<?xml version="1.0" encoding="UTF-8" standalone="no"?>
<!DOCTYPE svg PUBLIC "-//W3C//DTD SVG 1.1//EN" "http://www.w3.org/Graphics/SVG/1.1/DTD/svg11.dtd">
<svg width="100%" height="100%" viewBox="0 0 28 28" version="1.1" xmlns="http://www.w3.org/2000/svg" xmlns:xlink="http://www.w3.org/1999/xlink" xml:space="preserve" style="fill-rule:evenodd;clip-rule:evenodd;stroke-linejoin:round;stroke-miterlimit:2;">
    <g id="path36" transform="matrix(0.0211277,0,0,0.0211277,0.270739,0.549068)">
        <path d="M786.107,1273.3C717.928,1256.7 646.514,1267.16 577.283,1256.5C434.74,1242.55 293.252,1219.14 150.452,1208.81C104.616,1196.26 15.49,1218.68 33.852,1143.53C50.67,1108.41 34.871,1051.92 58.728,1029.17C156.631,1035.08 256.933,1042.24 354.902,1057.15C449.655,1066.93 542.792,1085.94 637.739,1094.29C691.689,1111.73 767.328,1084.59 805.038,1134.46C834.764,1167.85 737.946,1121.67 792.524,1153.59C833.292,1183.45 735.246,1199.98 769.04,1191.46C795.029,1204.18 817.502,1216.3 800.949,1219.02C806.296,1237.95 775.249,1213.39 779.172,1226.25C747.303,1213.89 654.714,1227.2 666.43,1224.46C695.006,1229.13 739.838,1218.32 758.397,1236.64C694.843,1224.25 821.252,1259.73 786.107,1273.3ZM737.118,1217.99C698.952,1211.78 693.206,1221.17 737.118,1217.99ZM458.134,1213.17C446.186,1210.94 455.979,1215.38 458.134,1213.17ZM440.452,1211.42C433.224,1206.57 435.641,1214.9 440.452,1211.42ZM431.052,1210.2C405.745,1203.63 362.252,1202.21 413.052,1208.81C417.91,1203.4 426.087,1215.34 431.052,1210.2ZM376.832,1202.69C351.134,1195.65 322.603,1200.32 376.832,1202.69ZM328.647,1197.17C321.296,1193.32 322.318,1200.52 328.647,1197.17ZM313.477,1195.88C304.591,1193.45 311.874,1198.3 313.477,1195.88ZM306.275,1194.8C291.054,1190.59 291.801,1197.43 306.275,1194.8ZM289.118,1192.74C269.702,1191.39 305.915,1196.17 289.118,1192.74ZM265.436,1191.29C253.629,1185.93 242.961,1193.02 265.436,1191.29ZM243.118,1188.75C233.783,1183.82 236.57,1193.79 243.118,1188.75ZM1080.8,1144.6C902.227,1115.58 725.574,1076.75 547.037,1048.09C449.902,1026.04 350.971,1012.13 254.833,985.23C189.355,971.56 122.086,955.219 64.347,921.079C58.956,909.205 45.869,887.786 71.743,897.846C58.603,884.317 32.721,856.277 59.685,860.596C14.312,841.833 125.598,869.147 62.672,839.93C26.839,828.268 104.289,816.834 50.697,817.687C11.722,826.577 3.436,806.576 16.299,781.085C14.874,757.486 46.161,727.097 37.749,704.557C37.134,681.927 26.8,678.341 40.635,660.563C7.177,662.519 -4.308,653.062 37.36,643.803C70.773,625.474 -23.342,620.106 27.674,607.618C58.661,574.869 28.079,547.927 0,542.857C57.674,535.658 101.115,492.984 160.237,484.754C184.719,472.337 293.696,476.065 213.505,466.356C162.888,451.86 94.781,465.574 58.452,423.942C71.765,419.805 51.952,399.256 66.452,397.701C97.952,382.353 24.427,373.032 66.269,359.967C58.337,335.473 2.766,347.486 51.478,332.204C81.751,286.132 -7.634,314.97 44.179,284.791C30.751,272.341 -0.501,287.341 41.429,269.946C55.758,249.708 31.673,250.125 65.118,234.087C18.607,231.862 63.082,212.365 69.653,200.754C44.122,189.266 109.256,171.325 83.518,169.02C59.563,150.361 139.875,164.382 170.641,172.234C305.77,144.067 442.169,117.518 579.149,97.772C710.46,72.546 843.456,55.521 973.092,22.424C1054.77,8.139 1137.3,-5.724 1220.56,2.42C1194.51,5.4 1235.79,25.62 1195.79,19.42C1222.22,25.328 1260.53,42.387 1208.51,33.043C1181.19,27.935 1106.75,30.868 1175.17,35.133C1237.13,22.366 1263.93,77.217 1262.59,131.623C1269.65,163.151 1267.17,209.908 1262.45,230.754C1225.83,250.876 1150.09,245.354 1099.71,256.736C1036.03,265.931 972.198,273.907 908.452,282.53C1033.76,298.011 1157.97,320.946 1282.69,340.346C1300.48,361.72 1264.78,387.685 1256.45,411.823C1245.33,426.449 1256.28,453.628 1246.13,465.157C1292.4,471.506 1257.05,473.929 1235.31,481.904C1261.62,506.381 1264.1,497.197 1237.91,520.661C1224.03,539.513 1240.39,555.47 1259.86,563.823C1235.04,563.258 1193.98,564.067 1223.01,581.162C1213.01,595.769 1173.18,597.327 1216.88,602.675C1226.4,615.201 1260.65,611.782 1251.46,644.731C1281.84,638.239 1267.83,678.981 1277.63,671.16C1340.64,647.665 1251.02,705.282 1224.97,696.424C1254.76,682.836 1278.4,728.913 1243.38,726.638C1188.06,722.453 1258.93,734.935 1275.77,738.941C1273.68,754.654 1200.12,778.427 1238.4,775.399C1245.17,755.795 1244.62,792.278 1251.29,788.087C1208.73,801.767 1112.99,786.298 1050.18,791.431C1034.92,793.025 956.084,786.344 1006.73,795.609C1053.91,808.893 1111.86,816.8 1153.12,830.75C1126.61,832.849 1222.03,851.893 1244.45,858.71C1286.1,861.96 1245.56,878.73 1287.79,885.993C1252.11,898.537 1255.45,938.481 1227.6,966.682C1217.65,991.928 1196.81,1013.97 1219.2,1027.39C1216.72,1049.96 1287.19,1039.69 1233.74,1055.27C1216.93,1081.68 1293.21,1075.23 1233.3,1079.13C1231.95,1092.92 1266.34,1090.78 1220.39,1094.69C1189.22,1103.52 1194.39,1131.06 1227.79,1133.74C1178.14,1138.07 1129.26,1146.61 1080.8,1144.6ZM81.071,905.59C53.222,893.531 82.76,914.125 81.071,905.59ZM1220.45,719.42C1210.61,714.393 1216.02,724.67 1220.45,719.42ZM1218.1,708.003C1274.15,713.127 1200.35,685.66 1201.45,709.146L1204.8,709.905L1218.1,708.003ZM254.125,609.087C242.503,601.105 245.906,617.69 254.125,609.087ZM142.731,600.353C163.446,587.535 141.101,577.594 116.037,596.385C115.698,608.376 136.395,599.338 142.731,600.353ZM163.785,558.896C158.58,554.549 158.441,561.263 163.785,558.896ZM211.017,558.389C250.2,548.597 305.241,563.778 330.452,546.726C311.124,547.08 222.917,553.89 282.673,536.567C256.282,539.528 163.617,527.981 199.785,552.947C161.597,550.08 188.319,565.794 211.017,558.389ZM213.156,551.269C201.681,536.474 282.695,542.595 225.147,550.587L218.582,552.54L213.156,551.269ZM241.118,550.087C246.323,545.216 246.323,554.958 241.118,550.087ZM152.757,557.281C147.478,554.48 151.511,560.286 152.757,557.281ZM346.285,549.254C357.284,539.689 317.068,550.337 346.285,549.254ZM65.118,545.378C58.902,535.847 55.331,553.644 65.118,545.378ZM318.143,538.113C305.835,530.211 306.978,551.188 318.143,538.113ZM295.785,536.087C273.62,528.552 306.304,543.664 295.785,536.087ZM357.118,533.942C347.289,522.949 346.586,546.289 357.118,533.942ZM392.118,534.528C415.011,518.892 354.809,541.243 392.118,534.528ZM443.586,532.623C457.074,521.196 421.599,536.979 443.586,532.623ZM408.452,528.754C404.019,523.504 398.605,533.781 408.452,528.754ZM1174.45,506.832C1171.34,502.252 1170.61,509.373 1174.45,506.832ZM185.879,456.905C159.27,440.26 60.674,430.933 141.523,449.807C156.052,451.735 171.336,458.921 185.879,456.905ZM1131.12,32.754C1134.61,27.446 1119.57,38.344 1131.12,32.754ZM1198.45,844.754C1196.25,839.811 1205.19,849.775 1198.45,844.754ZM1187.79,842.626C1176.67,835.887 1209.53,848.201 1187.79,842.626ZM1214.79,22.537C1209.26,14.943 1225.62,26.432 1214.79,22.537Z" style="fill-rule:nonzero;"/>
    </g>
</svg>
