<?xml version="1.0" encoding="UTF-8"?>
<!DOCTYPE svg  PUBLIC '-//W3C//DTD SVG 1.1//EN'  'http://www.w3.org/Graphics/SVG/1.1/DTD/svg11.dtd'>
<svg clip-rule="evenodd" fill-rule="evenodd" stroke-linejoin="round" stroke-miterlimit="2" version="1.1" viewBox="0 0 3e3 3e3" xml:space="preserve" xmlns="http://www.w3.org/2000/svg">
    <g transform="matrix(2.4876 0 0 2.4876 -5078.1 -1550.4)">
        <path d="m2867.9 629.12h-618.88c-15.59 0-28.24 12.655-28.24 28.243v1137.8c0 15.59 12.65 28.25 28.24 28.25h790.58c15.58 0 28.24-12.66 28.24-28.25v-966.06h-150.87c-27.08 0-49.07-21.99-49.07-49.076v-150.87zm-539.15 1044.9h315.56c11.5 0 20.83-9.34 20.83-20.84s-9.33-20.83-20.83-20.83h-315.56c-11.5 0-20.83 9.33-20.83 20.83s9.33 20.84 20.83 20.84zm0-100.11h473.23c11.5 0 20.83-9.33 20.83-20.83s-9.33-20.83-20.83-20.83h-473.23c-11.5 0-20.83 9.33-20.83 20.83s9.33 20.83 20.83 20.83zm0-101.13h627.5c11.5 0 20.83-9.34 20.83-20.83 0-11.5-9.33-20.84-20.83-20.84h-627.5c-11.5 0-20.83 9.34-20.83 20.84 0 11.49 9.33 20.83 20.83 20.83zm0-101.13h627.5c11.5 0 20.83-9.34 20.83-20.84 0-11.49-9.33-20.83-20.83-20.83h-627.5c-11.5 0-20.83 9.34-20.83 20.83 0 11.5 9.33 20.84 20.83 20.84zm277.16-254.05 6 67.2c-16.8 6.93-37.87 10.4-63.2 10.4s-45.67-2.67-61-8c-15.33-5.34-27.4-13.74-36.2-25.2-8.8-11.47-14.93-24.94-18.4-40.4-3.47-15.47-5.2-34.54-5.2-57.2 0-22.67 1.73-41.8 5.2-57.4 3.47-15.602 9.6-29.136 18.4-40.602 17.07-22.134 48.4-33.2 94-33.2 10.13 0 22.07 1 35.8 3s23.93 4.466 30.6 7.4l-12 61.202c-17.33-3.74-33.2-5.602-47.6-5.602s-24.4 1.332-30 4.002c-5.6 2.66-8.4 8-8.4 16v104.8c10.4 2.13 20.93 3.2 31.6 3.2 22.67 0 42.8-3.2 60.4-9.6zm170.4-178.4h84.4l-62 250h-116.8l-62-250h84.4l34 158.8h3.6l34.4-158.8zm241.91-151.81h-101.25c-4.09 0-7.41-3.321-7.41-7.41v-101.38c31.88 31.596 77.34 77.166 108.66 108.79v1e-3z" fill="#fff"/>
    </g>
</svg>
