<svg xmlns="http://www.w3.org/2000/svg" viewBox="0 0 40 45" fill-rule="nonzero" stroke-linejoin="round" stroke-miterlimit="2" fill="#fff"><path d="M15.762 4.108A4.11 4.11 0 0 1 19.87 0a4.11 4.11 0 0 1 4.108 4.108 4.11 4.11 0 0 1-4.108 4.108 4.11 4.11 0 0 1-4.108-4.108zm9.585 10.03s11.922-1.818 14.103-3.256c.763-.503-.119-2.708-1.017-2.543-3.036.557-17.194 2.615-17.194 2.615H18.5L1.307 8.339c-.898-.166-1.78 2.04-1.017 2.543 2.181 1.438 14.103 3.256 14.103 3.256v10.509S9.286 39.625 8.777 42.814c-.144.901 2.076 1.744 2.56.971 1.751-2.8 7.947-17.769 7.947-17.769h1.173s6.196 14.969 7.947 17.769c.485.774 2.704-.07 2.56-.971-.509-3.189-5.617-18.167-5.617-18.167l-.001-10.509z"/></svg>