<?xml version="1.0" encoding="UTF-8" standalone="no"?>
<!DOCTYPE svg PUBLIC "-//W3C//DTD SVG 1.1//EN" "http://www.w3.org/Graphics/SVG/1.1/DTD/svg11.dtd">
<svg width="100%" height="100%" viewBox="0 0 477 1002" version="1.1" xmlns="http://www.w3.org/2000/svg" xmlns:xlink="http://www.w3.org/1999/xlink" xml:space="preserve"  style="fill-rule:evenodd;clip-rule:evenodd;stroke-linecap:round;stroke-linejoin:round;stroke-miterlimit:1.5;">
    <g id="Artboard1" transform="matrix(1,0,0,0.968145,0,0)">
        <rect x="0" y="0" width="476.785" height="1034.37" style="fill:none;"/>
        <g id="Buttons" transform="matrix(1,0,0,1.0329,-22.2355,-29.5635)">
            <g transform="matrix(0.178215,0,0,0.78125,484.999,125.057)">
                <path d="M59.972,218.128C59.972,216.986 55.906,216.058 50.896,216.058L32.744,216.058C27.735,216.058 23.668,216.986 23.668,218.128L23.668,291.782C23.668,292.924 27.735,293.852 32.744,293.852L50.896,293.852C55.906,293.852 59.972,292.924 59.972,291.782L59.972,218.128Z" style="fill:rgb(91,91,91);"/>
            </g>
            <g transform="matrix(0.178215,0,0,0.78125,21.3508,157.435)">
                <path d="M59.972,218.128C59.972,216.986 55.906,216.058 50.896,216.058L32.744,216.058C27.735,216.058 23.668,216.986 23.668,218.128L23.668,291.782C23.668,292.924 27.735,293.852 32.744,293.852L50.896,293.852C55.906,293.852 59.972,292.924 59.972,291.782L59.972,218.128Z" style="fill:rgb(91,91,91);"/>
            </g>
            <g id="Volume" transform="matrix(0.178215,0,0,1.19973,21.3508,-58.6907)">
                <path d="M59.972,217.406C59.972,216.662 55.906,216.058 50.896,216.058L32.744,216.058C27.735,216.058 23.668,216.662 23.668,217.406L23.668,292.504C23.668,293.248 27.735,293.852 32.744,293.852L50.896,293.852C55.906,293.852 59.972,293.248 59.972,292.504L59.972,217.406Z" style="fill:rgb(91,91,91);"/>
            </g>
        </g>
        <g transform="matrix(1,0,0,1.0329,0,0)">
            <path d="M418.503,0.437L58.282,0.437C29.685,0.437 6.47,23.653 6.47,52.249C6.47,52.249 6.47,949.084 6.47,949.084C6.47,977.679 29.686,1000.9 58.282,1000.9L418.503,1000.9C447.099,1000.9 470.315,977.679 470.315,949.084L470.315,52.249C470.315,23.653 447.099,0.437 418.503,0.437ZM13.137,946.117L13.137,949.084C13.137,974 33.365,994.229 58.282,994.229C58.282,994.229 418.503,994.229 418.503,994.229C443.419,994.229 463.648,974 463.648,949.084L463.648,946.117C457.071,958.829 443.796,967.526 428.505,967.526C428.505,967.526 48.28,967.526 48.28,967.526C32.989,967.526 19.714,958.829 13.137,946.117ZM458.721,56.992C453.685,45.287 442.045,37.083 428.504,37.083L48.28,37.083C34.739,37.083 23.1,45.287 18.063,56.992L10.936,56.992L10.936,946.117L20.859,946.117C26.749,954.999 36.835,960.86 48.28,960.86L428.505,960.86C439.949,960.86 450.036,954.999 455.926,946.117L466.107,946.138L466.122,57.044L458.721,56.992ZM463.645,51.82C463.417,27.103 443.278,7.104 418.503,7.103L58.282,7.103C33.507,7.104 13.367,27.103 13.139,51.82C19.717,39.112 32.991,30.417 48.28,30.416L428.505,30.416C443.794,30.417 457.068,39.112 463.645,51.82Z" style="fill:rgb(0,1,4);"/>
        </g>
        <g id="Bottom-UI" serif:id="Bottom UI" transform="matrix(1,0,0,1.0329,-789.068,-212.387)">
            <g transform="matrix(1.00498,0,0,1,-6.25412,0)">
                <path d="M1255.59,1111.25L802.264,1111.25L804.752,1169.82L1251.55,1173.58L1255.59,1111.25Z" style="fill:white;"/>
            </g>
            <path d="M1035.72,1135.75C1035.72,1133.51 1033.9,1131.69 1031.66,1131.69L1023.26,1131.69C1021.02,1131.69 1019.2,1133.51 1019.2,1135.75L1019.2,1143.87C1019.2,1146.11 1021.02,1147.93 1023.26,1147.93L1031.66,1147.93C1033.9,1147.93 1035.72,1146.11 1035.72,1143.87L1035.72,1135.75Z" style="fill:none;stroke:rgb(148,148,148);stroke-width:2.58px;"/>
            <path d="M893.281,1131.69L893.281,1147.93" style="fill:none;stroke:rgb(148,148,148);stroke-width:2.58px;"/>
            <g transform="matrix(1,0,0,1,7.47257,0)">
                <path d="M893.281,1131.69L893.281,1147.93" style="fill:none;stroke:rgb(148,148,148);stroke-width:2.58px;"/>
            </g>
            <g transform="matrix(1,0,0,1,15.0255,0)">
                <path d="M893.281,1131.69L893.281,1147.93" style="fill:none;stroke:rgb(148,148,148);stroke-width:2.58px;"/>
            </g>
            <path d="M1157.93,1131.69L1149.96,1139.81L1157.69,1147.93" style="fill:none;stroke:rgb(148,148,148);stroke-width:2.58px;"/>
        </g>
        <g id="Top-UI" serif:id="Top UI" transform="matrix(1,0,0,1.0329,-787.936,-212.387)">
            <g transform="matrix(1,0,0,1,0,1.47475)">
                <path d="M1247.43,235.609L804.772,235.609L798.872,268.036L1253.79,268.036L1247.43,235.609Z" style="fill:white;"/>
            </g>
            <g>
                <g transform="matrix(-1.03139,-1.26309e-16,1.20329e-16,-0.982558,2470.14,507.058)">
                    <path d="M1220.76,253.895C1219.01,253.895 1212.65,253.939 1211.05,253.939L1211.05,261.243C1211.05,261.732 1211.42,262.129 1211.89,262.129L1219.91,262.129C1220.38,262.129 1220.76,261.732 1220.76,261.243L1220.76,253.895Z" style="fill:rgb(196,196,196);"/>
                </g>
                <g transform="matrix(-0.450601,-5.51827e-17,5.25699e-17,-0.429266,1763.95,359.771)">
                    <path d="M1220.76,253.895C1219.01,253.895 1212.65,253.939 1211.05,253.939L1211.05,261.243C1211.05,261.732 1211.42,262.129 1211.89,262.129L1219.91,262.129C1220.38,262.129 1220.76,261.732 1220.76,261.243L1220.76,253.895Z" style="fill:rgb(196,196,196);"/>
                </g>
                <g transform="matrix(1.03139,0,0,0.982558,-38.0035,4.77531)">
                    <path d="M1220.76,253.895C1219.01,253.895 1212.65,253.939 1211.05,253.939L1211.05,261.243C1211.05,261.732 1211.42,262.129 1211.89,262.129L1219.91,262.129C1220.38,262.129 1220.76,261.732 1220.76,261.243L1220.76,253.895Z" style="fill:rgb(107,107,107);"/>
                </g>
            </g>
            <g>
                <path d="M1153.3,259.605L1153.3,261.405" style="fill:none;stroke:rgb(102,102,102);stroke-width:1.58px;"/>
                <g transform="matrix(1,0,0,2.81538,3.82115,-474.55)">
                    <path d="M1153.3,259.605L1153.3,261.405" style="fill:none;stroke:rgb(102,102,102);stroke-width:0.75px;"/>
                </g>
                <g transform="matrix(1,0,0,5.09231,7.53155,-1069.75)">
                    <path d="M1153.3,259.605L1153.3,261.405" style="fill:none;stroke:rgb(194,194,194);stroke-width:0.43px;"/>
                </g>
                <g transform="matrix(1,0,0,6.87692,11.3527,-1536.26)">
                    <path d="M1153.3,259.605L1153.3,261.405" style="fill:none;stroke:rgb(194,194,194);stroke-width:0.32px;"/>
                </g>
            </g>
            <g transform="matrix(0.379207,0,0,0.379207,516.847,164.496)">
                <text x="835.928px" y="256.979px" style="font-family:'Roboto-Regular', 'Roboto';font-size:50px;fill:rgb(102,102,102);">15:55</text>
            </g>
            <g id="_64-" serif:id="64%" transform="matrix(0.379207,0,0,0.379207,855.053,164.496)">
                <text x="835.928px" y="256.979px" style="font-family:'Roboto-Regular', 'Roboto';font-size:50px;fill:rgb(102,102,102);">64%</text>
            </g>
        </g>
        <g id="Main-phone" serif:id="Main phone" transform="matrix(1,0,0,1.0329,-789.068,-212.387)">
            <path d="M1207.57,209.392C1234.33,209.392 1256.05,231.115 1256.05,257.87L1256.05,1154.7C1256.05,1181.46 1234.33,1203.18 1207.57,1203.18L847.35,1203.18C820.594,1203.18 798.872,1181.46 798.872,1154.7L798.872,257.87C798.872,231.115 820.594,209.392 847.35,209.392L1207.57,209.392ZM1217.57,239.371L837.348,239.371C817.362,239.372 801.137,255.598 801.137,275.583L801.137,1133.6C801.137,1153.59 817.363,1169.82 837.348,1169.82L1217.57,1169.82C1237.56,1169.82 1253.79,1153.59 1253.79,1133.6L1253.79,275.583C1253.79,255.598 1237.56,239.372 1217.57,239.371Z" style="fill:rgb(26,26,26);"/>
        </g>
        <g id="Cameras---Speaker" serif:id="Cameras / Speaker" transform="matrix(1,0,0,1.0329,-786.752,-213.122)">
            <g id="Speaker" transform="matrix(1,0,0,1,-827.255,-0.754212)">
                <path d="M1880.67,223.859C1880.67,222.97 1879.94,222.249 1879.06,222.249L1825.74,222.249C1824.85,222.249 1824.13,222.97 1824.13,223.859L1824.13,227.078C1824.13,227.966 1824.85,228.687 1825.74,228.687L1879.06,228.687C1879.94,228.687 1880.67,227.966 1880.67,227.078L1880.67,223.859Z" style="fill:rgb(83,83,83);"/>
            </g>
            <g id="Camera" transform="matrix(1.42701,0,0,1.42701,-462.146,-95.9543)">
                <g transform="matrix(1,0,0,1,792.36,176.437)">
                    <circle cx="301.739" cy="48.277" r="6.681" style="fill:rgb(13,13,13);"/>
                </g>
                <g transform="matrix(0.845182,0,0,0.845182,839.075,183.911)">
                    <circle cx="301.739" cy="48.277" r="6.681" style="fill:rgb(36,36,36);"/>
                </g>
            </g>
            <g transform="matrix(0.48184,0,0,0.48184,979.222,201.452)">
                <circle cx="301.739" cy="48.277" r="6.681" style="fill:rgb(46,46,46);"/>
            </g>
            <g transform="matrix(0.48184,0,0,0.48184,765.587,201.452)">
                <circle cx="301.739" cy="48.277" r="6.681" style="fill:rgb(46,46,46);"/>
            </g>
            <g transform="matrix(0.48184,0,0,0.48184,753.377,201.452)">
                <circle cx="301.739" cy="48.277" r="6.681" style="fill:rgb(46,46,46);"/>
            </g>
            <g transform="matrix(0.854459,0,0,0.854459,609.665,183.463)">
                <circle cx="301.739" cy="48.277" r="6.681" style="fill:rgb(46,46,46);"/>
            </g>
            <g transform="matrix(0.48184,0,0,0.48184,703.521,201.452)">
                <circle cx="301.739" cy="48.277" r="6.681" style="fill:rgb(46,46,46);"/>
            </g>
        </g>
    </g>
</svg>
