<?xml version="1.0" encoding="UTF-8" standalone="no"?>
<!DOCTYPE svg PUBLIC "-//W3C//DTD SVG 1.1//EN" "http://www.w3.org/Graphics/SVG/1.1/DTD/svg11.dtd">
<svg width="100%" height="100%" viewBox="0 0 3855 2650" version="1.1" xmlns="http://www.w3.org/2000/svg" xmlns:xlink="http://www.w3.org/1999/xlink" xml:space="preserve"  style="fill-rule:evenodd;clip-rule:evenodd;stroke-linejoin:round;stroke-miterlimit:2;">
    <rect id="icons-group" x="0" y="-0" width="3854.07" height="2649.26" style="fill:none;"/>
    <g id="icons-group1" serif:id="icons-group">
        <g id="dark-fill" transform="matrix(1,0,0,1,27.272,28.3037)">
            <path d="M712.859,112.292L122.305,112.292L122.305,654.484L712.859,654.484L712.859,112.292ZM207.46,486.621L635.482,486.621L635.482,469.955L207.46,469.955L207.46,486.621ZM207.46,391.723L635.482,391.723L635.482,375.056L207.46,375.056L207.46,391.723ZM207.46,290.601L635.482,290.601L635.482,273.935L207.46,273.935L207.46,290.601Z" style="fill:rgb(71,97,111);"/>
            <g>
                <g transform="matrix(1,0,0,1,-27.272,-28.3037)">
                    <path d="M444.858,1690.19L27.272,1306.8L444.858,923.408L862.445,1306.8L444.858,1690.19ZM475.949,1153.78C500.377,1153.87 507.629,1154.13 522.911,1154.77C542.945,1155.62 553.829,1158.74 561.05,1161.33C571.189,1164.93 578.412,1169.27 586,1176.24C593.69,1183.3 598.434,1190.02 602.432,1199.43C605.294,1206.19 608.763,1216.34 609.701,1235.05C610.628,1253.78 610.834,1259.38 610.834,1306.8C610.834,1354.2 610.628,1359.83 609.701,1378.55C608.763,1397.26 605.294,1407.4 602.429,1414.17C598.434,1423.59 593.687,1430.31 586.006,1437.35C578.416,1444.33 571.192,1448.65 561.06,1452.26C553.827,1454.85 542.942,1457.99 522.912,1458.82C502.539,1459.68 496.438,1459.86 444.863,1459.86C393.273,1459.86 387.172,1459.68 366.805,1458.82C346.772,1457.99 335.903,1454.85 328.66,1452.27C318.519,1448.65 311.295,1444.33 303.718,1437.36C296.024,1430.31 291.277,1423.59 287.273,1414.15C284.427,1407.39 280.948,1397.25 280.009,1378.54C279.083,1359.83 278.891,1354.2 278.891,1306.8C278.891,1259.38 279.083,1253.78 280.01,1235.04C280.948,1216.35 284.427,1206.2 287.284,1199.42C291.277,1190.02 296.021,1183.3 303.711,1176.24C311.299,1169.27 318.522,1164.93 328.656,1161.33C335.902,1158.74 346.769,1155.62 366.804,1154.77C387.176,1153.92 393.291,1153.73 444.863,1153.73L462.187,1153.74L475.949,1153.78ZM444.863,1244.81C482.375,1244.81 513.117,1272.35 513.117,1306.8C513.117,1341.24 482.376,1368.79 444.863,1368.79C407.336,1368.79 376.593,1341.24 376.593,1306.8C376.593,1272.35 407.337,1244.81 444.863,1244.81Z" style="fill:rgb(71,97,111);"/>
                </g>
                <g transform="matrix(1,0,0,1,-7363.89,-48186.7)">
                    <circle cx="7875.06" cy="49376.3" r="28.623" style="fill:rgb(71,97,111);"/>
                </g>
            </g>
            <g>
                <g transform="matrix(1,0,0,1,-27.272,-28.3037)">
                    <path d="M444.858,2620.96L27.272,2237.57L444.858,1854.18L862.445,2237.57L444.858,2620.96ZM588.697,2173.68C588.697,2100.57 524.485,2040.94 444.863,2040.94C365.225,2040.94 301.014,2100.57 301.014,2173.68C301.014,2188.82 303.761,2203.37 308.822,2216.94C327.188,2266.11 437.68,2454.04 437.68,2454.04L444.801,2466.14L452.013,2454.09C452.013,2454.09 565.94,2263.51 582.693,2211.75C586.598,2199.68 588.697,2186.89 588.697,2173.68Z" style="fill:rgb(71,97,111);"/>
                </g>
                <g transform="matrix(1,0,0,1,-27.272,-28.3037)">
                    <path d="M502.403,2169.24C502.403,2198.23 476.43,2221.39 444.857,2221.39C413.283,2221.39 387.311,2198.23 387.311,2169.24C387.311,2140.25 413.283,2117.09 444.857,2117.09C476.43,2117.09 502.403,2140.25 502.403,2169.24Z" style="fill:rgb(71,97,111);"/>
                </g>
            </g>
            <g transform="matrix(1,0,0,1,-27.272,-28.3037)">
                <path d="M3409.21,795.082L2991.63,411.693L3409.21,28.304L3826.8,411.693L3409.21,795.082ZM3355.37,549.458C3489.23,549.458 3562.43,447.637 3562.43,359.349C3562.43,356.455 3562.36,353.574 3562.22,350.72C3576.42,341.284 3588.79,329.523 3598.53,316.123C3585.49,321.436 3571.46,325.017 3556.73,326.642C3571.76,318.37 3583.29,305.274 3588.73,289.68C3574.67,297.332 3559.09,302.895 3542.53,305.895C3529.24,292.905 3510.33,284.791 3489.4,284.791C3449.21,284.791 3416.61,314.709 3416.61,351.592C3416.61,356.838 3417.26,361.939 3418.51,366.829C3358.03,364.04 3304.38,337.452 3268.5,297.028C3262.24,306.899 3258.64,318.37 3258.64,330.607C3258.64,353.786 3271.49,374.255 3291.03,386.215C3279.1,385.884 3267.88,382.871 3258.07,377.863C3258.05,378.141 3258.05,378.418 3258.05,378.709C3258.05,411.072 3283.14,438.096 3316.43,444.215C3310.33,445.748 3303.89,446.567 3297.26,446.567C3292.57,446.567 3288,446.144 3283.57,445.365C3292.84,471.913 3319.7,491.22 3351.55,491.775C3326.65,509.694 3295.27,520.372 3261.18,520.372C3255.3,520.372 3249.5,520.068 3243.82,519.447C3276.01,538.397 3314.26,549.458 3355.37,549.458Z" style="fill:rgb(71,97,111);"/>
            </g>
            <g transform="matrix(1,0,0,1,-27.272,-28.3037)">
                <path d="M3409.21,1690.19L2991.63,1306.8L3409.21,923.408L3826.8,1306.8L3409.21,1690.19ZM3346.89,1171.82C3340.55,1156.24 3333.5,1158.55 3328.64,1158.38C3323.76,1158.22 3318.23,1157.39 3312.66,1157.2C3307.09,1157 3297.96,1158.62 3290,1166.02C3282.04,1173.42 3259.72,1191.22 3258.18,1228.93C3256.64,1266.63 3285.07,1304.11 3289.03,1309.36C3293,1314.62 3343.3,1396.36 3426.9,1429.98C3510.51,1463.59 3510.96,1453.33 3526.3,1452.58C3541.65,1451.84 3576.44,1435.73 3584.14,1418.09C3591.82,1400.43 3592.44,1385.09 3590.48,1381.83C3588.53,1378.56 3583.04,1376.44 3574.85,1372.33C3566.65,1368.2 3526.39,1348.25 3518.83,1345.43C3511.28,1342.62 3505.78,1341.15 3499.89,1348.63C3494,1356.1 3477.31,1372.82 3472.24,1377.76C3467.16,1382.71 3462.27,1383.17 3454.06,1379.04C3445.89,1374.93 3419.3,1365.9 3388.48,1338.71C3364.51,1317.54 3348.77,1291.87 3344.21,1284.04C3339.65,1276.2 3344.18,1272.2 3348.51,1268.52C3352.41,1265.22 3357.24,1259.85 3361.6,1255.53C3365.93,1251.2 3367.47,1248.05 3370.46,1243.03C3373.44,1238.02 3372.25,1233.49 3370.31,1229.59C3368.38,1225.69 3353.22,1187.4 3346.89,1171.82Z" style="fill:rgb(71,97,111);"/>
            </g>
            <g transform="matrix(1,0,0,1,-27.272,-28.3037)">
                <path d="M2441.68,795.082L2024.1,411.693L2441.68,28.304L2859.27,411.693L2441.68,795.082ZM2550.31,365.746L2543.31,420.073C2542.66,425.306 2537.8,429.217 2532.1,429.217L2468.72,429.217L2468.36,597.812L2388.32,597.812L2388.61,429.217L2340.88,429.217C2334.72,429.217 2329.68,424.592 2329.61,418.883L2329.44,364.544C2329.38,358.835 2334.42,354.157 2340.65,354.157L2388.32,354.157L2388.32,301.668C2388.32,240.707 2428.81,207.551 2488.05,207.551L2536.6,207.551C2542.84,207.551 2547.87,212.177 2547.87,217.899L2547.87,263.675C2547.87,269.397 2542.84,274.022 2536.6,274.022L2506.84,274.075C2474.58,274.075 2468.36,288.122 2468.36,308.698L2468.36,354.21L2539.17,354.21C2545.86,354.21 2551.14,359.601 2550.31,365.746Z" style="fill:rgb(71,97,111);"/>
            </g>
            <g>
                <path d="M1441.93,1661.88L1024.34,1278.49L1441.93,895.104L1859.52,1278.49L1441.93,1661.88ZM1452.52,1418.83C1448.1,1418.8 1346.63,1417.93 1314.17,1415.02C1312.07,1414.71 1310.51,1414.55 1308.76,1414.38C1298.16,1413.25 1278.43,1411.15 1262.93,1396.19C1248.79,1383.07 1244.4,1356.88 1243.96,1353.93C1243.77,1352.53 1239.74,1322.82 1239.74,1292.55L1239.74,1264.44C1239.74,1234.18 1243.77,1204.33 1243.93,1203.07C1244.4,1199.96 1248.79,1173.81 1262.86,1160.57C1279.45,1144.7 1298.34,1143.04 1307.39,1142.23L1309.82,1142C1366.73,1138.21 1451.64,1138.16 1452.51,1138.16C1453.51,1138.16 1538.42,1138.21 1594.5,1141.95L1597.42,1142.23C1606.55,1143.02 1625.53,1144.67 1642.08,1160.66C1656.17,1173.79 1660.59,1199.96 1661.04,1202.91L1661.07,1203.07C1661.23,1204.33 1665.26,1234.15 1665.41,1264.39L1665.41,1292.55C1665.41,1322.82 1661.38,1352.53 1661.21,1353.79C1660.74,1356.88 1656.33,1383.07 1642.1,1396.32C1625.55,1412.14 1606.66,1413.82 1597.59,1414.61L1595.16,1414.85C1538.43,1418.64 1453.37,1418.83 1452.52,1418.83ZM1400.04,1210.07L1400.04,1346.91L1543.43,1278.56L1400.04,1210.07Z" style="fill:rgb(71,97,111);"/>
            </g>
            <path d="M1441.93,766.779L1024.34,383.389L1441.93,0L1859.52,383.389L1441.93,766.779ZM1478.76,328.209C1482.01,324.337 1484.5,321.113 1487.28,318.14C1499.49,305.097 1515,297.749 1533.57,295.939C1554.03,293.943 1573.59,296.414 1591.23,306.828C1611,318.483 1621.03,336.059 1626.05,356.502C1628.65,367.14 1629.27,377.937 1629.27,388.8C1629.26,425.18 1629.22,461.561 1629.35,497.941C1629.36,501.483 1628.74,502.804 1624.37,502.764C1603.09,502.513 1581.79,502.553 1560.5,502.738C1556.76,502.764 1555.94,501.747 1555.95,498.47C1556.08,464.362 1556.04,430.268 1556.04,396.173C1556.04,388.443 1555.45,380.765 1553.22,373.298C1545.63,347.873 1512.59,339.772 1491.93,358.26C1483.16,366.11 1478.76,375.651 1478.78,386.963C1478.82,423.925 1478.7,460.873 1478.86,497.835C1478.88,501.628 1477.98,502.804 1473.62,502.751C1452.48,502.513 1431.35,502.513 1410.22,502.751C1405.86,502.804 1405.21,501.549 1405.24,497.954C1405.83,438.461 1406.09,378.968 1405.8,319.474C1405.77,314.056 1405.64,308.625 1405.33,303.22C1405.15,300.538 1406.19,299.824 1409.01,299.837C1431.09,299.93 1453.15,299.943 1475.22,299.824C1478.17,299.811 1478.88,300.656 1478.82,303.22C1478.66,311.215 1478.76,319.197 1478.76,328.209ZM1291.41,401.644C1291.41,369.109 1291.47,336.588 1291.33,304.053C1291.31,300.656 1292.31,299.784 1295.98,299.811C1317.57,299.969 1339.17,299.943 1360.78,299.824C1363.93,299.811 1365.01,300.458 1365.01,303.564C1364.91,368.766 1364.91,433.968 1364.99,499.17C1364.99,502.024 1364.09,502.725 1361.08,502.712C1339.17,502.593 1317.25,502.579 1295.34,502.725C1291.89,502.751 1291.34,501.641 1291.36,498.8C1291.46,466.424 1291.41,434.034 1291.41,401.644ZM1287.27,237.236C1287.28,214.427 1308.02,200.128 1333.54,202.639C1355,204.74 1368.4,217.361 1369.58,235.148C1370.92,255.287 1354.89,271.198 1331.83,272.255C1314.27,273.061 1299.72,268.106 1291.05,252.922C1288.25,248.032 1287.22,242.733 1287.27,237.236Z" style="fill:rgb(71,97,111);"/>
            <g transform="matrix(1,0,0,1,-27.272,-28.3037)">
                <path d="M1469.2,2620.96L1051.62,2237.57L1469.2,1854.18L1886.79,2237.57L1469.2,2620.96ZM1660.77,2247.42L1492.88,2093.28C1479.86,2081.32 1458.54,2081.32 1445.51,2093.28L1277.63,2247.42C1264.6,2259.38 1264.6,2278.96 1277.63,2290.92L1314.93,2325.16C1327.96,2337.12 1349.28,2337.12 1362.3,2325.16L1469.2,2227.03L1576.09,2325.16C1589.12,2337.12 1610.43,2337.12 1623.47,2325.16L1660.77,2290.92C1673.79,2278.95 1673.79,2259.38 1660.77,2247.42Z" style="fill:rgb(71,97,111);"/>
            </g>
            <g transform="matrix(1,0,0,1,-27.272,-28.3037)">
                <path d="M2439.92,2620.96L2022.33,2237.57L2439.92,1854.18L2857.5,2237.57L2439.92,2620.96ZM2292.24,2369.68L2606.49,2369.68L2606.49,2353.01L2292.24,2353.01L2292.24,2369.68ZM2509,2233.99C2509.05,2233.29 2509.23,2232.61 2509.23,2231.9L2509.23,2075.47C2509.23,2055.61 2491.53,2039.36 2469.9,2039.36L2424.21,2039.36C2402.58,2039.36 2384.87,2055.61 2384.87,2075.47L2384.87,2231.9C2384.87,2232.61 2385.06,2233.29 2385.1,2233.99L2328.22,2233.99L2449.37,2345.22L2570.52,2233.99L2509,2233.99Z" style="fill:rgb(71,97,111);"/>
            </g>
            <g transform="matrix(1,0,0,1,-27.272,-28.3037)">
                <path d="M3409.21,2620.96L2991.63,2237.57L3409.21,1854.18L3826.8,2237.57L3409.21,2620.96ZM3535.58,2097.07C3535.58,2101.3 3534.78,2104.74 3533.2,2107.39C3533.2,2107.65 3533.07,2107.91 3532.8,2108.18L3532.8,2108.58C3530.95,2112.01 3529.49,2114.72 3528.44,2116.71C3527.38,2118.69 3526.26,2120.47 3525.07,2122.06C3523.88,2123.65 3522.55,2125.23 3521.1,2126.82C3519.65,2128.41 3517.6,2130.39 3514.95,2132.77C3512.57,2135.15 3510.26,2137.6 3508.01,2140.11C3505.76,2142.62 3503.32,2144.93 3500.67,2147.05C3498.03,2149.43 3495.39,2151.74 3492.74,2153.99C3490.1,2156.24 3487.32,2158.42 3484.41,2160.53C3483.88,2161.06 3483.35,2161.53 3482.83,2161.92C3482.3,2162.32 3481.64,2162.78 3480.84,2163.31C3478.46,2165.16 3476.35,2167.08 3474.49,2169.06C3472.64,2171.05 3470.53,2172.83 3468.15,2174.42C3465.77,2176 3463.39,2177.59 3461.01,2179.18C3458.63,2180.76 3456.38,2182.61 3454.27,2184.73C3453.47,2185.26 3452.55,2186.32 3451.49,2187.9C3450.43,2188.96 3450.57,2189.75 3451.89,2190.28C3453.47,2191.34 3454.66,2192 3455.46,2192.27C3456.25,2192.8 3457.18,2193.12 3458.23,2193.26C3459.29,2193.39 3460.22,2193.59 3461.01,2193.85C3464.45,2194.91 3467.82,2195.9 3471.12,2196.83C3474.43,2197.75 3477.93,2198.61 3481.64,2199.41C3487.45,2200.99 3492.81,2203.04 3497.7,2205.55C3502.59,2208.07 3507.42,2211.17 3512.18,2214.87C3517.2,2218.31 3521.56,2222.54 3525.26,2227.57C3530.55,2233.65 3534.26,2240.79 3536.37,2248.99C3537.96,2254.54 3538.09,2260.09 3536.77,2265.64C3536.24,2266.97 3535.84,2268.42 3535.58,2270.01C3535.31,2271.59 3534.92,2273.05 3534.39,2274.37C3532.8,2278.87 3530.82,2283.23 3528.44,2287.46C3525.53,2291.69 3522.62,2295.79 3519.71,2299.75C3516.8,2303.72 3513.63,2307.55 3510.19,2311.26C3509.4,2312.32 3508.47,2313.31 3507.42,2314.23C3506.36,2315.16 3505.43,2316.28 3504.64,2317.6C3503.85,2318.4 3503.05,2319.26 3502.26,2320.18C3501.47,2321.11 3500.67,2321.97 3499.88,2322.76C3497.5,2324.88 3495.05,2327.12 3492.54,2329.5C3490.03,2331.88 3487.45,2334.13 3484.81,2336.24C3481.9,2339.15 3478.99,2341.86 3476.08,2344.38C3473.17,2346.89 3469.87,2349.33 3466.17,2351.71C3464.32,2353.04 3462.6,2354.36 3461.01,2355.68C3459.42,2357 3457.84,2358.32 3456.25,2359.65C3451.49,2363.35 3446.66,2366.85 3441.77,2370.16C3436.88,2373.46 3431.79,2376.57 3426.5,2379.48C3422.01,2382.39 3417.31,2385.1 3412.42,2387.61C3407.53,2390.12 3402.57,2392.57 3397.55,2394.95C3391.99,2397.59 3386.24,2399.84 3380.29,2401.69C3374.34,2403.54 3368.33,2405.13 3362.25,2406.45C3361.45,2406.71 3360.59,2406.85 3359.67,2406.85C3358.74,2406.85 3357.75,2406.98 3356.69,2407.24C3354.58,2407.51 3352.46,2407.71 3350.35,2407.84C3348.23,2407.97 3346.12,2408.17 3344,2408.43C3329.99,2410.28 3316.11,2408.3 3302.36,2402.48C3299.97,2401.43 3297.46,2399.84 3294.82,2397.72C3293.76,2396.67 3292.7,2395.74 3291.65,2394.95C3290.59,2394.15 3289.4,2393.36 3288.08,2392.57C3286.75,2391.51 3285.56,2389.92 3284.51,2387.81C3283.98,2386.49 3283.32,2385.23 3282.52,2384.04C3281.73,2382.85 3281.07,2381.59 3280.54,2380.27C3279.22,2377.1 3278.56,2373.93 3278.56,2370.75C3278.56,2369.43 3278.62,2368.24 3278.76,2367.18C3278.89,2366.12 3279.22,2364.93 3279.75,2363.61C3281.07,2360.97 3282.33,2358.39 3283.51,2355.88C3284.7,2353.37 3285.96,2350.79 3287.28,2348.14C3287.81,2347.09 3288.87,2345.5 3290.46,2343.38C3294.16,2338.36 3297.79,2333.4 3301.36,2328.51C3304.93,2323.62 3308.57,2318.66 3312.27,2313.64C3312.8,2313.11 3313.13,2312.71 3313.26,2312.45C3313.39,2312.18 3313.72,2311.92 3314.25,2311.65C3316.63,2308.74 3318.55,2306.43 3320.01,2304.71C3321.46,2302.99 3322.72,2301.41 3323.77,2299.95C3324.83,2298.5 3325.76,2296.98 3326.55,2295.39C3327.34,2293.8 3328.27,2291.82 3329.33,2289.44C3332.24,2283.1 3334.81,2276.68 3337.06,2270.2C3339.31,2263.73 3341.75,2257.18 3344.4,2250.57C3344.93,2249.25 3345.39,2247.99 3345.79,2246.8C3346.18,2245.61 3346.78,2244.36 3347.57,2243.03C3350.22,2238.01 3352.33,2232.92 3353.92,2227.76C3355.5,2222.61 3357.22,2217.39 3359.07,2212.1C3360.66,2207.07 3362.38,2202.12 3364.23,2197.22C3366.08,2192.33 3367.93,2187.37 3369.78,2182.35C3370.31,2181.03 3370.84,2179.71 3371.37,2178.38C3371.9,2177.06 3372.56,2175.74 3373.35,2174.42C3375.47,2169.66 3377.32,2164.83 3378.91,2159.94C3380.49,2155.05 3381.95,2150.09 3383.27,2145.07C3384.33,2142.16 3385.19,2139.38 3385.85,2136.74C3386.51,2134.09 3386.57,2131.32 3386.05,2128.41C3386.05,2126.82 3385.38,2126.29 3384.06,2126.82C3383.53,2127.09 3383.07,2127.22 3382.67,2127.22C3382.28,2127.22 3381.81,2127.35 3381.29,2127.61C3376.53,2131.05 3372.3,2134.89 3368.59,2139.12C3364.63,2143.35 3360.66,2147.51 3356.69,2151.61C3352.73,2155.71 3348.89,2160.01 3345.19,2164.5C3343.87,2166.09 3342.41,2167.61 3340.83,2169.06C3339.24,2170.52 3337.79,2171.91 3336.47,2173.23C3334.35,2174.81 3332.17,2175.61 3329.92,2175.61C3327.67,2175.61 3325.76,2174.95 3324.17,2173.62C3323.38,2172.83 3322.78,2171.84 3322.39,2170.65C3321.99,2169.46 3322.06,2168.34 3322.58,2167.28C3323.91,2164.9 3325.16,2162.58 3326.35,2160.34C3327.54,2158.09 3328.8,2155.78 3330.12,2153.4C3330.65,2152.34 3331.24,2151.28 3331.9,2150.22C3332.57,2149.16 3333.29,2148.24 3334.09,2147.45C3338.32,2142.16 3342.68,2137.07 3347.18,2132.18C3351.67,2127.28 3356.56,2122.72 3361.85,2118.49C3362.64,2117.7 3363.5,2116.97 3364.43,2116.31C3365.35,2115.65 3366.21,2114.79 3367.01,2113.73C3377.32,2103.68 3388.56,2095.35 3400.72,2088.74C3412.88,2082.13 3425.84,2076.85 3439.59,2072.88C3443.03,2071.82 3446.33,2070.89 3449.51,2070.1C3452.95,2069.04 3457.04,2068.25 3461.8,2067.72L3465.37,2067.72C3466.43,2067.72 3467.62,2067.46 3468.94,2066.93C3472.64,2066.14 3476.21,2065.87 3479.65,2066.14C3483.09,2066.4 3486.66,2066.4 3490.36,2066.14L3491.95,2066.14C3500.94,2067.99 3509.14,2070.5 3516.54,2073.67C3517.6,2074.2 3518.59,2074.73 3519.51,2075.26C3520.44,2075.79 3521.43,2076.32 3522.49,2076.85C3527.25,2080.28 3530.82,2084.12 3533.2,2088.35C3533.73,2088.88 3534.06,2089.47 3534.19,2090.13C3534.32,2090.79 3534.52,2091.52 3534.78,2092.31C3535.31,2094.96 3535.58,2096.54 3535.58,2097.07ZM3333.69,2400.1C3334.75,2400.1 3335.94,2400.1 3337.26,2400.1C3338.58,2400.1 3340.03,2399.97 3341.62,2399.71C3342.94,2399.44 3344.33,2399.24 3345.79,2399.11C3347.24,2398.98 3348.63,2398.91 3349.95,2398.91C3352.86,2398.91 3355.5,2398.58 3357.88,2397.92C3360.26,2397.26 3362.64,2396.4 3365.02,2395.34C3367.93,2394.02 3370.78,2392.77 3373.55,2391.58C3376.33,2390.39 3379.17,2389.26 3382.08,2388.2C3385.25,2387.15 3388.23,2386.02 3391,2384.83C3393.78,2383.64 3396.62,2382.39 3399.53,2381.07C3402.44,2379.74 3405.15,2378.29 3407.66,2376.7C3410.17,2375.12 3412.75,2373.4 3415.4,2371.55C3415.66,2371.28 3416.06,2371.15 3416.59,2371.15C3420.02,2368.77 3422.8,2366.92 3424.92,2365.6C3427.03,2364.27 3429.01,2362.95 3430.87,2361.63C3432.72,2360.31 3434.7,2358.79 3436.82,2357.07C3438.93,2355.35 3441.84,2353.04 3445.54,2350.13C3455.06,2342.2 3463.52,2334 3470.93,2325.54C3473.57,2322.63 3476.08,2319.92 3478.46,2317.41C3480.84,2314.89 3483.22,2312.18 3485.6,2309.27C3487.98,2306.89 3490.23,2303.99 3492.34,2300.55C3494.46,2297.11 3496.64,2293.67 3498.89,2290.24C3501.14,2286.8 3503.45,2283.36 3505.83,2279.92C3507.95,2276.75 3509.66,2273.44 3510.99,2270.01C3512.31,2266.57 3513.37,2262.87 3514.16,2258.9C3514.16,2257.84 3514.22,2256.92 3514.36,2256.12C3514.49,2255.33 3514.56,2254.41 3514.56,2253.35C3514.82,2252.29 3514.89,2251.3 3514.75,2250.37C3514.62,2249.45 3514.56,2248.59 3514.56,2247.8C3514.29,2242.51 3512.18,2237.22 3508.21,2231.93C3507.15,2230.61 3506.23,2229.48 3505.43,2228.56C3504.64,2227.63 3503.71,2226.51 3502.66,2225.19C3501.6,2223.6 3499.88,2222.15 3497.5,2220.82C3493.53,2218.44 3489.5,2216.33 3485.4,2214.48C3481.3,2212.63 3477.01,2211.17 3472.51,2210.12C3466.96,2208.79 3461.41,2207.6 3455.85,2206.55C3450.3,2205.49 3444.62,2204.56 3438.8,2203.77C3437.74,2203.77 3436.62,2203.7 3435.43,2203.57C3434.24,2203.44 3432.98,2203.5 3431.66,2203.77C3427.96,2203.77 3424.78,2204.56 3422.14,2206.15C3420.82,2206.68 3419.63,2207.34 3418.57,2208.13C3417.51,2208.93 3416.32,2209.72 3415,2210.51C3408.65,2214.21 3401.78,2217.52 3394.38,2220.43C3392.26,2221.22 3390.28,2221.35 3388.43,2220.82C3387.63,2220.56 3387.24,2219.9 3387.24,2218.84C3386.71,2217.25 3386.97,2215.93 3388.03,2214.87C3388.82,2213.02 3389.88,2211.44 3391.2,2210.12C3397.28,2204.83 3402.7,2199.27 3407.46,2193.46C3408.52,2192.13 3410.37,2190.94 3413.02,2189.89C3415.4,2189.09 3417.71,2188.37 3419.96,2187.7C3422.2,2187.04 3424.39,2186.18 3426.5,2185.13C3432.06,2183.54 3436.29,2180.63 3439.2,2176.4C3441.84,2173.49 3444.35,2171.11 3446.73,2169.26C3453.08,2164.77 3459.16,2159.48 3464.98,2153.4C3467.62,2150.49 3470.33,2147.84 3473.11,2145.46C3475.88,2143.08 3478.59,2140.44 3481.24,2137.53C3483.62,2135.15 3486,2132.77 3488.38,2130.39C3490.76,2128.01 3492.74,2125.37 3494.33,2122.46C3495.12,2121.14 3495.98,2120.01 3496.91,2119.09C3497.83,2118.16 3498.82,2117.17 3499.88,2116.11C3501.99,2113.47 3504.24,2110.16 3506.62,2106.2C3509,2102.23 3510.59,2099.06 3511.38,2096.68C3511.91,2095.62 3512.24,2094.69 3512.37,2093.9C3512.51,2093.11 3512.7,2092.05 3512.97,2090.73C3513.23,2088.88 3512.7,2086.76 3511.38,2084.38C3510.33,2083.32 3509.4,2082.4 3508.61,2081.6C3507.81,2080.81 3506.89,2080.15 3505.83,2079.62C3504.77,2079.09 3503.85,2078.83 3503.05,2078.83C3500.14,2078.3 3497.3,2077.84 3494.53,2077.44C3491.75,2077.04 3488.91,2076.98 3486,2077.24C3479.65,2077.77 3473.31,2078.56 3466.96,2079.62C3460.61,2080.68 3454.4,2082.53 3448.32,2085.17C3447.79,2085.44 3447.13,2085.64 3446.33,2085.77C3445.54,2085.9 3444.88,2086.23 3444.35,2086.76C3440.65,2088.08 3437.14,2089.47 3433.84,2090.93C3430.53,2092.38 3427.16,2094.03 3423.73,2095.88C3422.93,2096.41 3422.07,2097.01 3421.15,2097.67C3420.22,2098.33 3419.49,2098.92 3418.97,2099.45C3418.44,2099.98 3417.84,2100.64 3417.18,2101.44C3416.52,2102.23 3416.32,2103.16 3416.59,2104.21C3417.38,2107.91 3417.12,2111.62 3415.79,2115.32C3413.94,2122.46 3411.56,2129.73 3408.65,2137.13C3404.69,2147.45 3400.85,2157.76 3397.15,2168.07C3393.45,2178.38 3389.75,2188.56 3386.05,2198.61C3384.72,2202.31 3383.8,2206.15 3383.27,2210.12C3383.27,2213.55 3382.08,2216.46 3379.7,2218.84C3377.58,2221.75 3375.87,2224.72 3374.54,2227.76C3373.22,2230.81 3371.9,2233.78 3370.58,2236.69C3368.46,2242.51 3366.28,2248.32 3364.03,2254.14C3361.78,2259.96 3359.47,2265.78 3357.09,2271.59C3355.5,2275.56 3354.31,2279.53 3353.52,2283.49C3353.26,2284.02 3353.45,2284.75 3354.12,2285.67C3354.78,2286.6 3355.37,2286.93 3355.9,2286.66C3359.6,2286.14 3363.37,2285.74 3367.2,2285.48C3371.04,2285.21 3374.81,2284.68 3378.51,2283.89C3380.89,2283.36 3383.27,2282.96 3385.65,2282.7C3388.03,2282.43 3390.41,2282.43 3392.79,2282.7C3393.58,2282.7 3394.31,2282.83 3394.97,2283.1C3395.63,2283.36 3396.36,2283.49 3397.15,2283.49C3397.68,2283.76 3398.01,2284.35 3398.14,2285.28C3398.28,2286.2 3398.08,2286.93 3397.55,2287.46C3396.75,2288.25 3396.09,2288.78 3395.57,2289.05C3393.45,2289.57 3391.33,2289.84 3389.22,2289.84C3387.1,2289.84 3384.99,2289.97 3382.87,2290.24C3379.96,2290.5 3377.06,2290.7 3374.15,2290.83C3371.24,2290.96 3368.33,2291.29 3365.42,2291.82C3359.6,2292.62 3354.58,2295.13 3350.35,2299.36C3349.82,2299.89 3349.36,2300.41 3348.96,2300.94C3348.56,2301.47 3348.1,2302 3347.57,2302.53C3344.13,2304.91 3341.75,2307.95 3340.43,2311.65C3339.9,2312.98 3339.24,2314.17 3338.45,2315.22C3337.66,2316.28 3336.99,2317.47 3336.47,2318.79C3333.82,2321.97 3331.05,2323.82 3328.14,2324.35C3322.58,2325.93 3318.35,2328.84 3315.44,2333.07C3314.39,2334.39 3313.33,2335.65 3312.27,2336.84C3311.21,2338.03 3310.02,2339.29 3308.7,2340.61C3305.79,2344.57 3303.15,2348.41 3300.77,2352.11C3299.18,2354.76 3297.93,2357.4 3297,2360.04C3296.08,2362.69 3295.22,2365.46 3294.42,2368.37L3294.42,2371.15C3294.42,2378.55 3296.67,2384.64 3301.16,2389.39C3303.55,2391.51 3305.99,2393.36 3308.5,2394.95C3311.01,2396.53 3313.99,2397.59 3317.43,2398.12C3320.07,2398.65 3322.72,2398.98 3325.36,2399.11C3328,2399.24 3330.78,2399.58 3333.69,2400.1Z" style="fill:rgb(71,97,111);"/>
            </g>
            <g transform="matrix(1,0,0,1,-27.272,-28.3037)">
                <path d="M2441.68,1690.19L2024.1,1306.8L2441.68,923.408L2859.27,1306.8L2441.68,1690.19ZM2626.92,1260.49L2626.92,1392.8C2626.92,1412.29 2612.14,1428.14 2593.98,1428.14L2289.41,1428.14C2271.23,1428.14 2256.45,1412.29 2256.45,1392.8L2256.45,1260.49L2420.06,1373.98C2433.07,1383 2450.31,1383 2463.31,1373.98L2626.92,1260.49ZM2441.68,1342.8L2256.45,1214.31L2626.92,1214.31L2441.68,1342.8Z" style="fill:rgb(71,97,111);"/>
            </g>
        </g>
        <g id="dark-stroke" transform="matrix(1,0,0,1,-226.073,-165.931)">
            <g transform="matrix(1,0,0,1,-7105.61,-47985.7)">
                <g transform="matrix(14.3936,0,0,13.2149,7106.22,46110.9)">
                    <rect x="26.056" y="165.07" width="41.029" height="41.029" style="fill:none;stroke:rgb(149,157,167);stroke-width:1.21px;"/>
                </g>
                <g transform="matrix(14.3936,0,0,13.2149,7566.42,48462.2)">
                    <path d="M0,0L29.737,0" style="fill:none;fill-rule:nonzero;stroke:rgb(71,97,111);stroke-width:1.21px;stroke-linejoin:miter;stroke-miterlimit:10;"/>
                </g>
                <g transform="matrix(14.3936,0,0,13.2149,7566.42,48563.3)">
                    <path d="M0,0L29.737,0" style="fill:none;fill-rule:nonzero;stroke:rgb(71,97,111);stroke-width:1.21px;stroke-linejoin:miter;stroke-miterlimit:10;"/>
                </g>
                <g transform="matrix(14.3936,0,0,13.2149,7566.42,48658.2)">
                    <path d="M0,0L29.737,0" style="fill:none;fill-rule:nonzero;stroke:rgb(71,97,111);stroke-width:1.21px;stroke-linejoin:miter;stroke-miterlimit:10;"/>
                </g>
            </g>
            <g transform="matrix(1,0,0,1,-7105.61,-47985.7)">
                <g transform="matrix(10.1778,9.34431,10.1778,-9.34431,7481.26,49187.3)">
                    <rect x="8.497" y="-20.515" width="41.029" height="41.029" style="fill:none;stroke:rgb(149,157,167);stroke-width:1.16px;"/>
                </g>
                <g transform="matrix(14.3936,0,0,13.2149,7893.19,49547.3)">
                    <path d="M0,-13.45C0,-12.565 -0.718,-11.847 -1.603,-11.847C-2.488,-11.847 -3.206,-12.565 -3.206,-13.45C-3.206,-14.335 -2.488,-15.053 -1.603,-15.053C-0.718,-15.053 0,-14.335 0,-13.45ZM-8.104,-12.046C-11.044,-12.046 -13.426,-9.664 -13.426,-6.725C-13.426,-3.786 -11.044,-1.403 -8.104,-1.403C-5.165,-1.403 -2.783,-3.786 -2.783,-6.725C-2.783,-9.664 -5.165,-12.046 -8.104,-12.046ZM-8.104,-17.677C-4.537,-17.677 -4.115,-17.663 -2.706,-17.599C-1.404,-17.539 -0.696,-17.322 -0.226,-17.139C0.398,-16.897 0.843,-16.607 1.31,-16.14C1.778,-15.672 2.067,-15.227 2.31,-14.604C2.493,-14.133 2.71,-13.425 2.77,-12.123C2.834,-10.714 2.848,-10.292 2.848,-6.725C2.848,-3.158 2.834,-2.735 2.77,-1.327C2.71,-0.024 2.493,0.683 2.31,1.154C2.067,1.778 1.778,2.223 1.31,2.69C0.843,3.158 0.398,3.447 -0.226,3.689C-0.696,3.872 -1.404,4.09 -2.706,4.149C-4.115,4.214 -4.537,4.227 -8.104,4.227C-11.672,4.227 -12.094,4.214 -13.503,4.149C-14.805,4.09 -15.512,3.872 -15.983,3.689C-16.607,3.447 -17.052,3.158 -17.519,2.69C-17.987,2.223 -18.276,1.778 -18.519,1.154C-18.701,0.683 -18.919,-0.024 -18.979,-1.327C-19.043,-2.735 -19.056,-3.158 -19.056,-6.725C-19.056,-10.292 -19.043,-10.714 -18.979,-12.123C-18.919,-13.425 -18.701,-14.133 -18.519,-14.604C-18.276,-15.227 -17.987,-15.672 -17.519,-16.14C-17.052,-16.607 -16.607,-16.897 -15.983,-17.139C-15.512,-17.322 -14.805,-17.539 -13.503,-17.599C-12.094,-17.663 -11.671,-17.677 -8.104,-17.677" style="fill:none;fill-rule:nonzero;stroke:rgb(71,97,111);stroke-width:1.21px;stroke-linejoin:miter;stroke-miterlimit:10;"/>
                </g>
            </g>
            <g transform="matrix(1,0,0,1,-7105.61,-47985.7)">
                <g transform="matrix(10.1778,9.34431,10.1778,-9.34431,7481.26,50118.1)">
                    <rect x="8.497" y="-20.515" width="41.029" height="41.029" style="fill:none;stroke:rgb(149,157,167);stroke-width:1.16px;"/>
                </g>
                <g transform="matrix(14.3936,0,0,13.2149,7912.05,50477)">
                    <path d="M0,-11.482C0,-10.549 -0.136,-9.647 -0.389,-8.795C-1.545,-4.905 -9.414,9.414 -9.414,9.414C-9.414,9.414 -17.054,-4.728 -18.323,-8.428C-18.651,-9.386 -18.829,-10.413 -18.829,-11.482C-18.829,-16.681 -14.614,-20.896 -9.414,-20.896C-4.215,-20.896 0,-16.681 0,-11.482Z" style="fill:none;fill-rule:nonzero;stroke:rgb(71,97,111);stroke-width:1.21px;stroke-linejoin:miter;stroke-miterlimit:10;"/>
                </g>
                <g transform="matrix(0,-13.2149,-14.3936,0,7776.54,50260.4)">
                    <circle cx="-4.577" cy="0" r="4.577" style="fill:none;stroke:rgb(71,97,111);stroke-width:1.21px;stroke-linejoin:miter;stroke-miterlimit:10;"/>
                </g>
            </g>
            <g transform="matrix(1,0,0,1,-7105.61,-47985.7)">
                <g transform="matrix(10.1778,9.34431,10.1778,-9.34431,10445.6,50118.1)">
                    <rect x="8.497" y="-20.515" width="41.029" height="41.029" style="fill:none;stroke:rgb(149,157,167);stroke-width:1.16px;"/>
                </g>
                <g transform="matrix(396.637,0,0,396.637,10609.4,50507.3)">
                    <path d="M0.65,-0.652C0.65,-0.641 0.648,-0.633 0.644,-0.626C0.644,-0.625 0.644,-0.625 0.643,-0.624L0.643,-0.623C0.638,-0.614 0.635,-0.608 0.632,-0.603C0.629,-0.598 0.626,-0.593 0.624,-0.589C0.621,-0.585 0.617,-0.581 0.614,-0.577C0.61,-0.573 0.605,-0.568 0.598,-0.562C0.592,-0.556 0.586,-0.55 0.581,-0.544C0.575,-0.537 0.569,-0.531 0.562,-0.526C0.555,-0.52 0.549,-0.514 0.542,-0.508C0.535,-0.503 0.528,-0.497 0.521,-0.492C0.52,-0.491 0.518,-0.49 0.517,-0.489C0.516,-0.488 0.514,-0.486 0.512,-0.485C0.506,-0.48 0.501,-0.475 0.496,-0.47C0.491,-0.466 0.486,-0.461 0.48,-0.457C0.474,-0.453 0.468,-0.449 0.462,-0.445C0.456,-0.441 0.45,-0.436 0.445,-0.431C0.443,-0.43 0.441,-0.427 0.438,-0.423C0.435,-0.42 0.436,-0.418 0.439,-0.417C0.443,-0.414 0.446,-0.413 0.448,-0.412C0.45,-0.411 0.452,-0.41 0.455,-0.409C0.458,-0.409 0.46,-0.409 0.462,-0.408C0.471,-0.405 0.479,-0.403 0.488,-0.401C0.496,-0.398 0.505,-0.396 0.514,-0.394C0.529,-0.39 0.542,-0.385 0.555,-0.379C0.567,-0.372 0.579,-0.364 0.591,-0.355C0.604,-0.346 0.615,-0.336 0.624,-0.323C0.637,-0.308 0.647,-0.29 0.652,-0.269C0.656,-0.255 0.656,-0.241 0.653,-0.227C0.652,-0.224 0.651,-0.22 0.65,-0.216C0.649,-0.212 0.648,-0.208 0.647,-0.205C0.643,-0.194 0.638,-0.183 0.632,-0.172C0.625,-0.161 0.617,-0.151 0.61,-0.141C0.603,-0.131 0.595,-0.121 0.586,-0.112C0.584,-0.109 0.582,-0.107 0.579,-0.105C0.576,-0.102 0.574,-0.099 0.572,-0.096L0.56,-0.083C0.554,-0.078 0.548,-0.072 0.542,-0.066C0.535,-0.06 0.529,-0.054 0.522,-0.049C0.515,-0.042 0.507,-0.035 0.5,-0.029C0.493,-0.022 0.484,-0.016 0.475,-0.01C0.47,-0.007 0.466,-0.003 0.462,-0C0.458,0.003 0.454,0.007 0.45,0.01C0.438,0.019 0.426,0.028 0.413,0.036C0.401,0.045 0.388,0.053 0.375,0.06C0.364,0.067 0.352,0.074 0.34,0.08C0.327,0.087 0.315,0.093 0.302,0.099C0.288,0.106 0.274,0.111 0.259,0.116C0.244,0.121 0.228,0.125 0.213,0.128C0.211,0.129 0.209,0.129 0.206,0.129C0.204,0.129 0.202,0.129 0.199,0.13L0.167,0.133C0.132,0.138 0.097,0.133 0.062,0.118C0.056,0.115 0.05,0.111 0.043,0.106C0.04,0.103 0.038,0.101 0.035,0.099C0.032,0.097 0.029,0.095 0.026,0.093C0.023,0.09 0.02,0.086 0.017,0.081C0.016,0.078 0.014,0.074 0.012,0.071C0.01,0.068 0.008,0.065 0.007,0.062C0.004,0.054 0.002,0.046 0.002,0.038C0.002,0.035 0.002,0.032 0.003,0.029C0.003,0.026 0.004,0.023 0.005,0.02L0.024,-0.019C0.025,-0.022 0.028,-0.026 0.032,-0.031L0.087,-0.106C0.088,-0.107 0.089,-0.108 0.09,-0.109C0.09,-0.11 0.091,-0.11 0.092,-0.111C0.098,-0.118 0.103,-0.124 0.107,-0.129C0.11,-0.133 0.113,-0.137 0.116,-0.141C0.119,-0.144 0.121,-0.148 0.123,-0.152C0.125,-0.156 0.127,-0.161 0.13,-0.167C0.137,-0.183 0.144,-0.199 0.15,-0.216C0.155,-0.232 0.161,-0.248 0.168,-0.265C0.169,-0.268 0.171,-0.272 0.172,-0.275C0.172,-0.278 0.174,-0.281 0.176,-0.284C0.183,-0.297 0.188,-0.31 0.192,-0.323C0.196,-0.336 0.2,-0.349 0.205,-0.362C0.209,-0.375 0.213,-0.387 0.218,-0.4C0.223,-0.412 0.227,-0.424 0.232,-0.437C0.233,-0.44 0.235,-0.444 0.236,-0.447C0.237,-0.45 0.239,-0.454 0.241,-0.457C0.246,-0.469 0.251,-0.481 0.255,-0.494C0.259,-0.506 0.263,-0.518 0.266,-0.531C0.269,-0.538 0.271,-0.545 0.273,-0.552C0.274,-0.559 0.274,-0.566 0.273,-0.573C0.273,-0.577 0.271,-0.578 0.268,-0.577C0.267,-0.576 0.266,-0.576 0.265,-0.576C0.264,-0.576 0.262,-0.576 0.261,-0.575C0.249,-0.566 0.238,-0.557 0.229,-0.546C0.219,-0.535 0.209,-0.525 0.199,-0.515C0.189,-0.504 0.179,-0.493 0.17,-0.482C0.167,-0.478 0.163,-0.474 0.159,-0.47C0.155,-0.467 0.151,-0.463 0.148,-0.46C0.143,-0.456 0.137,-0.454 0.132,-0.454C0.126,-0.454 0.121,-0.456 0.117,-0.459C0.115,-0.461 0.114,-0.464 0.113,-0.467C0.112,-0.469 0.112,-0.472 0.113,-0.475L0.132,-0.51C0.133,-0.513 0.135,-0.515 0.137,-0.518C0.138,-0.521 0.14,-0.523 0.142,-0.525C0.153,-0.538 0.164,-0.551 0.175,-0.564C0.186,-0.576 0.199,-0.587 0.212,-0.598C0.214,-0.6 0.216,-0.602 0.219,-0.604C0.221,-0.605 0.223,-0.607 0.225,-0.61C0.251,-0.635 0.279,-0.656 0.31,-0.673C0.341,-0.69 0.373,-0.703 0.408,-0.713C0.417,-0.716 0.425,-0.718 0.433,-0.72C0.442,-0.723 0.452,-0.725 0.464,-0.726L0.473,-0.726C0.476,-0.726 0.479,-0.727 0.482,-0.728C0.491,-0.73 0.5,-0.731 0.509,-0.73C0.518,-0.729 0.527,-0.729 0.536,-0.73L0.54,-0.73C0.563,-0.725 0.583,-0.719 0.602,-0.711L0.617,-0.703C0.629,-0.694 0.638,-0.685 0.644,-0.674C0.645,-0.673 0.646,-0.671 0.647,-0.67C0.647,-0.668 0.647,-0.666 0.648,-0.664C0.649,-0.657 0.65,-0.653 0.65,-0.652ZM0.141,0.112C0.144,0.112 0.147,0.112 0.15,0.112C0.153,0.112 0.157,0.112 0.161,0.111C0.164,0.11 0.168,0.11 0.172,0.109C0.175,0.109 0.179,0.109 0.182,0.109C0.189,0.109 0.196,0.108 0.202,0.106C0.208,0.105 0.214,0.103 0.22,0.1C0.227,0.097 0.234,0.093 0.242,0.09C0.249,0.087 0.256,0.085 0.263,0.082C0.271,0.079 0.279,0.076 0.285,0.073C0.293,0.07 0.3,0.067 0.307,0.064C0.314,0.061 0.321,0.057 0.328,0.053C0.334,0.049 0.34,0.045 0.347,0.04C0.348,0.039 0.349,0.039 0.35,0.039L0.386,0.015C0.391,0.012 0.396,0.008 0.401,0.003C0.406,-0.001 0.414,-0.007 0.423,-0.014C0.447,-0.034 0.468,-0.055 0.487,-0.076C0.494,-0.083 0.5,-0.09 0.506,-0.097C0.512,-0.103 0.518,-0.11 0.524,-0.117C0.53,-0.123 0.536,-0.13 0.541,-0.139C0.546,-0.148 0.552,-0.156 0.558,-0.165C0.563,-0.174 0.569,-0.182 0.575,-0.191C0.58,-0.199 0.585,-0.207 0.588,-0.216C0.591,-0.225 0.594,-0.234 0.596,-0.244L0.597,-0.258C0.598,-0.261 0.598,-0.263 0.598,-0.266C0.597,-0.268 0.597,-0.27 0.597,-0.272C0.596,-0.285 0.591,-0.299 0.581,-0.312L0.567,-0.329C0.564,-0.333 0.56,-0.337 0.554,-0.34C0.544,-0.346 0.534,-0.351 0.524,-0.356C0.513,-0.361 0.502,-0.364 0.491,-0.367C0.477,-0.37 0.463,-0.373 0.449,-0.376C0.435,-0.379 0.421,-0.381 0.406,-0.383C0.403,-0.383 0.401,-0.383 0.398,-0.384C0.395,-0.384 0.391,-0.384 0.388,-0.383C0.379,-0.383 0.371,-0.381 0.364,-0.377C0.361,-0.376 0.358,-0.374 0.355,-0.372C0.352,-0.37 0.349,-0.368 0.346,-0.366C0.33,-0.357 0.313,-0.348 0.294,-0.341C0.289,-0.339 0.284,-0.339 0.279,-0.34C0.277,-0.341 0.276,-0.342 0.276,-0.345C0.275,-0.349 0.275,-0.352 0.278,-0.355C0.28,-0.36 0.283,-0.364 0.286,-0.367C0.301,-0.38 0.315,-0.394 0.327,-0.409C0.33,-0.412 0.334,-0.415 0.341,-0.418C0.347,-0.42 0.353,-0.422 0.359,-0.424C0.364,-0.425 0.37,-0.427 0.375,-0.43C0.389,-0.434 0.4,-0.441 0.407,-0.452C0.414,-0.459 0.42,-0.465 0.426,-0.47C0.442,-0.481 0.457,-0.495 0.472,-0.51C0.479,-0.517 0.486,-0.524 0.493,-0.53C0.5,-0.536 0.506,-0.543 0.513,-0.55C0.519,-0.556 0.525,-0.562 0.531,-0.568C0.537,-0.574 0.542,-0.581 0.546,-0.588C0.548,-0.591 0.55,-0.594 0.553,-0.597C0.555,-0.599 0.557,-0.601 0.56,-0.604C0.565,-0.611 0.571,-0.619 0.577,-0.629C0.583,-0.639 0.587,-0.647 0.589,-0.653C0.59,-0.656 0.591,-0.658 0.592,-0.66C0.592,-0.662 0.592,-0.665 0.593,-0.668C0.594,-0.673 0.592,-0.678 0.589,-0.684C0.586,-0.687 0.584,-0.689 0.582,-0.691C0.58,-0.693 0.578,-0.695 0.575,-0.696C0.572,-0.697 0.57,-0.698 0.568,-0.698C0.561,-0.699 0.554,-0.701 0.547,-0.702C0.54,-0.703 0.532,-0.703 0.525,-0.702C0.509,-0.701 0.493,-0.699 0.477,-0.696C0.461,-0.693 0.445,-0.689 0.43,-0.682C0.429,-0.681 0.427,-0.681 0.425,-0.681C0.423,-0.68 0.421,-0.679 0.42,-0.678C0.411,-0.675 0.402,-0.671 0.394,-0.668C0.385,-0.664 0.377,-0.66 0.368,-0.655C0.366,-0.654 0.364,-0.652 0.362,-0.651C0.359,-0.649 0.357,-0.647 0.356,-0.646C0.355,-0.645 0.353,-0.643 0.352,-0.641C0.35,-0.639 0.349,-0.637 0.35,-0.634C0.352,-0.625 0.351,-0.615 0.348,-0.606C0.343,-0.588 0.337,-0.57 0.33,-0.551C0.32,-0.525 0.31,-0.499 0.301,-0.473C0.292,-0.447 0.282,-0.421 0.273,-0.396C0.27,-0.387 0.267,-0.377 0.266,-0.367C0.266,-0.358 0.263,-0.351 0.257,-0.345C0.252,-0.338 0.247,-0.33 0.244,-0.323C0.241,-0.315 0.237,-0.307 0.234,-0.3C0.229,-0.285 0.223,-0.271 0.218,-0.256C0.212,-0.241 0.206,-0.227 0.2,-0.212C0.196,-0.202 0.193,-0.192 0.191,-0.182C0.19,-0.181 0.191,-0.179 0.193,-0.177C0.194,-0.174 0.196,-0.173 0.197,-0.174C0.206,-0.175 0.216,-0.176 0.226,-0.177C0.235,-0.178 0.245,-0.179 0.254,-0.181C0.26,-0.182 0.266,-0.183 0.272,-0.184C0.278,-0.185 0.284,-0.185 0.29,-0.184C0.292,-0.184 0.294,-0.184 0.296,-0.183C0.297,-0.182 0.299,-0.182 0.301,-0.182C0.302,-0.181 0.303,-0.18 0.304,-0.178C0.304,-0.175 0.303,-0.173 0.302,-0.172C0.3,-0.17 0.298,-0.169 0.297,-0.168C0.292,-0.167 0.286,-0.166 0.281,-0.166C0.276,-0.166 0.27,-0.166 0.265,-0.165C0.258,-0.164 0.25,-0.164 0.243,-0.164C0.236,-0.163 0.228,-0.162 0.221,-0.161C0.206,-0.159 0.194,-0.153 0.183,-0.142L0.176,-0.134C0.167,-0.128 0.161,-0.12 0.158,-0.111C0.157,-0.108 0.155,-0.105 0.153,-0.102C0.151,-0.099 0.149,-0.096 0.148,-0.093C0.141,-0.085 0.134,-0.08 0.127,-0.079C0.113,-0.075 0.102,-0.068 0.095,-0.057C0.092,-0.054 0.09,-0.051 0.087,-0.048C0.084,-0.045 0.081,-0.041 0.078,-0.038C0.071,-0.028 0.064,-0.018 0.058,-0.009C0.054,-0.002 0.051,0.004 0.049,0.011C0.046,0.018 0.044,0.025 0.042,0.032L0.042,0.039C0.042,0.058 0.048,0.073 0.059,0.085C0.065,0.09 0.071,0.095 0.078,0.099C0.084,0.103 0.091,0.106 0.1,0.107C0.107,0.108 0.113,0.109 0.12,0.109C0.127,0.11 0.134,0.111 0.141,0.112Z" style="fill:rgb(71,97,111);fill-rule:nonzero;"/>
                </g>
            </g>
            <g transform="matrix(1,0,0,1,-7105.61,-47985.7)">
                <g transform="matrix(10.1778,9.34431,10.1778,-9.34431,9478.09,48292.2)">
                    <rect x="8.497" y="-20.515" width="41.029" height="41.029" style="fill:none;stroke:rgb(149,157,167);stroke-width:1.16px;"/>
                </g>
                <g transform="matrix(14.3936,0,0,13.2149,9881.99,48591.3)">
                    <path d="M0,-5.59L-0.486,-1.479C-0.531,-1.083 -0.869,-0.787 -1.265,-0.787L-5.668,-0.787L-5.693,11.971L-11.254,11.971L-11.234,-0.787L-14.55,-0.787C-14.978,-0.787 -15.328,-1.137 -15.333,-1.569L-15.345,-5.681C-15.349,-6.113 -14.999,-6.467 -14.566,-6.467L-11.254,-6.467L-11.254,-10.439C-11.254,-15.052 -8.441,-17.561 -4.325,-17.561L-0.952,-17.561C-0.519,-17.561 -0.169,-17.211 -0.169,-16.778L-0.169,-13.314C-0.169,-12.881 -0.519,-12.531 -0.952,-12.531L-3.02,-12.527C-5.261,-12.527 -5.693,-11.464 -5.693,-9.907L-5.693,-6.463L-0.774,-6.463C-0.309,-6.463 0.058,-6.055 0,-5.59" style="fill:none;fill-rule:nonzero;stroke:rgb(71,97,111);stroke-width:1.21px;"/>
                </g>
            </g>
            <g transform="matrix(1,0,0,1,-7105.61,-47985.7)">
                <g transform="matrix(10.1778,9.34431,10.1778,-9.34431,10445.6,48292.2)">
                    <rect x="8.497" y="-20.515" width="41.029" height="41.029" style="fill:none;stroke:rgb(149,157,167);stroke-width:1.16px;"/>
                </g>
                <g transform="matrix(14.3936,0,0,13.2149,10687,48436.4)">
                    <path d="M0,20.028C9.3,20.028 14.386,12.323 14.386,5.642C14.386,5.423 14.381,5.205 14.371,4.989C15.358,4.275 16.217,3.385 16.894,2.371C15.988,2.773 15.013,3.044 13.99,3.167C15.034,2.541 15.835,1.55 16.213,0.37C15.236,0.949 14.154,1.37 13.003,1.597C12.08,0.614 10.766,0 9.312,0C6.52,0 4.255,2.264 4.255,5.055C4.255,5.452 4.3,5.838 4.387,6.208C0.185,5.997 -3.542,3.985 -6.035,0.926C-6.47,1.673 -6.72,2.541 -6.72,3.467C-6.72,5.221 -5.827,6.77 -4.47,7.675C-5.299,7.65 -6.078,7.422 -6.76,7.043C-6.761,7.064 -6.761,7.085 -6.761,7.107C-6.761,9.556 -5.018,11.601 -2.705,12.064C-3.129,12.18 -3.576,12.242 -4.037,12.242C-4.363,12.242 -4.68,12.21 -4.988,12.151C-4.344,14.16 -2.478,15.621 -0.265,15.663C-1.995,17.019 -4.175,17.827 -6.544,17.827C-6.952,17.827 -7.355,17.804 -7.75,17.757C-5.513,19.191 -2.856,20.028 0,20.028" style="fill:none;fill-rule:nonzero;stroke:rgb(71,97,111);stroke-width:1.21px;"/>
                </g>
            </g>
            <g transform="matrix(1,0,0,1,-7105.61,-47985.7)">
                <g transform="matrix(10.1778,9.34431,10.1778,-9.34431,10445.6,49187.3)">
                    <rect x="8.497" y="-20.515" width="41.029" height="41.029" style="fill:none;stroke:rgb(149,157,167);stroke-width:1.16px;"/>
                </g>
                <g transform="matrix(14.3936,0,0,13.2149,10678.6,49599.6)">
                    <path d="M0,-20.9C-0.44,-22.079 -0.93,-21.904 -1.268,-21.917C-1.607,-21.929 -1.991,-21.992 -2.378,-22.006C-2.765,-22.021 -3.399,-21.899 -3.952,-21.339C-4.505,-20.779 -6.056,-19.432 -6.163,-16.578C-6.27,-13.725 -4.295,-10.889 -4.02,-10.492C-3.744,-10.094 -0.249,-3.908 5.559,-1.364C11.368,1.179 11.399,0.403 12.465,0.346C13.531,0.29 15.948,-0.929 16.483,-2.264C17.017,-3.6 17.06,-4.761 16.924,-5.008C16.788,-5.255 16.407,-5.416 15.838,-5.727C15.268,-6.039 12.471,-7.549 11.946,-7.762C11.421,-7.975 11.039,-8.086 10.63,-7.52C10.221,-6.955 9.061,-5.69 8.709,-5.316C8.356,-4.941 8.016,-4.906 7.446,-5.219C6.878,-5.53 5.031,-6.213 2.89,-8.271C1.224,-9.873 0.131,-11.815 -0.186,-12.408C-0.503,-13.001 -0.188,-13.304 0.113,-13.582C0.384,-13.832 0.719,-14.238 1.022,-14.565C1.323,-14.893 1.43,-15.131 1.638,-15.511C1.845,-15.89 1.762,-16.233 1.627,-16.528C1.493,-16.823 0.44,-19.721 0,-20.9" style="fill:none;stroke:rgb(71,97,111);stroke-width:1.81px;stroke-linejoin:bevel;stroke-miterlimit:1;"/>
                </g>
            </g>
            <g transform="matrix(1,0,0,1,-7105.61,-47985.7)">
                <g transform="matrix(10.1778,9.34431,10.1778,-9.34431,9478.09,49187.3)">
                    <rect x="8.497" y="-20.515" width="41.029" height="41.029" style="fill:none;stroke:rgb(149,157,167);stroke-width:1.16px;"/>
                </g>
                <g transform="matrix(1,0,0,1,3902.86,-128.481)">
                    <path d="M5870.51,49622.9L5685.27,49494.4L6055.74,49494.4L5870.51,49622.9Z" style="fill:none;fill-rule:nonzero;stroke:rgb(71,97,111);stroke-width:16.67px;"/>
                </g>
                <g transform="matrix(1,0,0,1,0.610925,0.708475)">
                    <path d="M9958,49411.4L9958,49543.7C9958,49563.2 9943.21,49579.1 9925.05,49579.1L9620.48,49579.1C9602.31,49579.1 9587.52,49563.2 9587.52,49543.7L9587.52,49411.4L9751.13,49524.9C9764.14,49533.9 9781.38,49533.9 9794.39,49524.9L9958,49411.4Z" style="fill:none;fill-rule:nonzero;stroke:rgb(71,97,111);stroke-width:16.67px;"/>
                </g>
            </g>
            <g transform="matrix(1,0,0,1,-7105.61,-47985.7)">
                <g transform="matrix(10.1778,9.34431,10.1778,-9.34431,9476.32,50118.1)">
                    <rect x="8.497" y="-20.515" width="41.029" height="41.029" style="fill:none;stroke:rgb(149,157,167);stroke-width:1.16px;"/>
                </g>
                <g transform="matrix(14.3936,0,0,13.2149,9840.69,50302.2)">
                    <path d="M0,6.311C0.003,6.258 0.016,6.207 0.016,6.153L0.016,-5.684C0.016,-7.187 -1.214,-8.417 -2.717,-8.417L-5.891,-8.417C-7.394,-8.417 -8.624,-7.187 -8.624,-5.684L-8.624,6.153C-8.624,6.207 -8.611,6.258 -8.608,6.311L-12.56,6.311L-4.143,14.728L4.274,6.311L0,6.311Z" style="fill:none;fill-rule:nonzero;stroke:rgb(71,97,111);stroke-width:1.21px;"/>
                </g>
                <g transform="matrix(14.3936,0,0,13.2149,9623.92,50513)">
                    <path d="M0,0L21.833,0" style="fill:none;fill-rule:nonzero;stroke:rgb(71,97,111);stroke-width:1.21px;stroke-miterlimit:10;"/>
                </g>
            </g>
            <g transform="matrix(1,0,0,1,-7105.61,-47985.7)">
                <g transform="matrix(10.1778,9.34431,10.1778,-9.34431,8505.61,48292.2)">
                    <rect x="8.497" y="-20.515" width="41.029" height="41.029" style="fill:none;stroke:rgb(149,157,167);stroke-width:1.16px;"/>
                </g>
                <g transform="matrix(14.3936,0,0,13.2149,8837.72,48648.5)">
                    <path d="M0,-10.619C0.226,-10.912 0.399,-11.156 0.592,-11.381C1.44,-12.368 2.518,-12.924 3.808,-13.061C5.229,-13.212 6.588,-13.025 7.814,-12.237C9.187,-11.355 9.884,-10.025 10.233,-8.478C10.414,-7.673 10.457,-6.856 10.457,-6.034C10.456,-3.281 10.453,-0.528 10.462,2.225C10.463,2.493 10.42,2.593 10.116,2.59C8.638,2.571 7.158,2.574 5.679,2.588C5.419,2.59 5.362,2.513 5.363,2.265C5.372,-0.316 5.369,-2.896 5.369,-5.476C5.369,-6.061 5.328,-6.642 5.173,-7.207C4.646,-9.131 2.35,-9.744 0.915,-8.345C0.306,-7.751 0,-7.029 0.001,-6.173C0.004,-3.376 -0.004,-0.58 0.007,2.217C0.008,2.504 -0.054,2.593 -0.357,2.589C-1.826,2.571 -3.294,2.571 -4.762,2.589C-5.065,2.593 -5.11,2.498 -5.108,2.226C-5.067,-2.276 -5.049,-6.778 -5.069,-11.28C-5.071,-11.69 -5.08,-12.101 -5.102,-12.51C-5.114,-12.713 -5.042,-12.767 -4.846,-12.766C-3.312,-12.759 -1.779,-12.758 -0.246,-12.767C-0.041,-12.768 0.008,-12.704 0.004,-12.51C-0.007,-11.905 0,-11.301 0,-10.619" style="fill:none;fill-rule:nonzero;stroke:rgb(71,97,111);stroke-width:1.21px;stroke-linecap:round;"/>
                </g>
                <g transform="matrix(14.3936,0,0,13.2149,8650.37,48580.8)">
                    <path d="M0,0.057C0,-2.405 0.004,-4.866 -0.006,-7.328C-0.007,-7.585 0.062,-7.651 0.317,-7.649C1.817,-7.637 3.318,-7.639 4.819,-7.648C5.038,-7.649 5.113,-7.6 5.113,-7.365C5.106,-2.431 5.106,2.503 5.112,7.437C5.112,7.653 5.049,7.706 4.84,7.705C3.318,7.696 1.795,7.695 0.273,7.706C0.033,7.708 -0.005,7.624 -0.004,7.409C0.003,4.959 0,2.508 0,0.057" style="fill:none;fill-rule:nonzero;stroke:rgb(71,97,111);stroke-width:1.21px;"/>
                </g>
                <g transform="matrix(14.3936,0,0,13.2149,8646.22,48415.9)">
                    <path d="M0,0.097C0.001,-1.629 1.442,-2.711 3.215,-2.521C4.706,-2.362 5.637,-1.407 5.719,-0.061C5.812,1.463 4.698,2.667 3.096,2.747C1.876,2.808 0.865,2.433 0.263,1.284C0.068,0.914 -0.003,0.513 0,0.097" style="fill:none;fill-rule:nonzero;stroke:rgb(71,97,111);stroke-width:1.21px;"/>
                </g>
            </g>
            <g transform="matrix(1,0,0,1,-7105.61,-47985.7)">
                <g>
                    <g transform="matrix(10.1778,9.34431,10.1778,-9.34431,8505.61,49187.3)">
                        <rect x="8.497" y="-20.515" width="41.029" height="41.029" style="fill:none;stroke:rgb(149,157,167);stroke-width:1.16px;"/>
                    </g>
                    <g transform="matrix(14.3936,0,0,13.2149,8780.59,49498.2)">
                        <path d="M2.146,7.613C1.839,7.611 -5.211,7.545 -7.466,7.325C-7.612,7.301 -7.72,7.289 -7.842,7.276C-8.578,7.191 -9.949,7.032 -11.026,5.9C-12.008,4.907 -12.313,2.925 -12.344,2.702C-12.357,2.596 -12.637,0.348 -12.637,-1.943L-12.637,-4.07C-12.637,-6.36 -12.357,-8.619 -12.346,-8.714C-12.313,-8.949 -12.008,-10.928 -11.031,-11.93C-9.878,-13.131 -8.566,-13.257 -7.937,-13.318L-7.768,-13.335C-3.814,-13.622 2.085,-13.626 2.145,-13.626C2.215,-13.626 8.114,-13.622 12.01,-13.339L12.213,-13.318C12.847,-13.258 14.166,-13.133 15.316,-11.923C16.295,-10.93 16.602,-8.949 16.633,-8.726L16.635,-8.714C16.646,-8.619 16.926,-6.362 16.937,-4.074L16.937,-1.943C16.937,0.348 16.657,2.596 16.645,2.691C16.612,2.925 16.306,4.907 15.317,5.91C14.167,7.107 12.855,7.234 12.225,7.294L12.056,7.312C8.115,7.599 2.205,7.613 2.146,7.613" style="fill:none;fill-rule:nonzero;stroke:rgb(71,97,111);stroke-width:1.21px;"/>
                    </g>
                    <g transform="matrix(1,0,0,1,0.610925,4.72843)">
                        <path d="M8758.39,49385.3L8758.39,49522.1L8901.77,49453.8L8758.39,49385.3ZM8775.05,49495.7L8863.07,49453.8L8775.05,49411.7L8775.05,49495.7Z" style="fill:rgb(71,97,111);"/>
                    </g>
                </g>
            </g>
            <g transform="matrix(1,0,0,1,-7105.61,-47985.7)">
                <g transform="matrix(10.1778,9.34431,10.1778,-9.34431,8505.61,50118.1)">
                    <rect x="8.497" y="-20.515" width="41.029" height="41.029" style="fill:none;stroke:rgb(149,157,167);stroke-width:1.16px;"/>
                </g>
                <g transform="matrix(14.3936,0,0,13.2149,8992.45,50322.7)">
                    <path d="M0,5.781L-11.664,-5.883C-12.569,-6.788 -14.05,-6.788 -14.955,-5.883L-26.619,5.781C-27.524,6.686 -27.524,8.168 -26.619,9.073L-24.027,11.664C-23.122,12.569 -21.641,12.569 -20.736,11.664L-13.309,4.238L-5.883,11.664C-4.978,12.569 -3.497,12.569 -2.591,11.664L0,9.073C0.905,8.167 0.905,6.686 0,5.781" style="fill:none;fill-rule:nonzero;stroke:rgb(71,97,111);stroke-width:1.21px;"/>
                </g>
            </g>
        </g>
        <g id="light-stroke" transform="matrix(1,0,0,1,27.272,28.3037)">
            <g>
                <g transform="matrix(14.3936,0,0,13.2149,-252.734,-2069.08)">
                    <rect x="26.056" y="165.07" width="41.029" height="41.029" style="fill:none;stroke:rgb(149,157,167);stroke-width:1.21px;"/>
                </g>
                <g transform="matrix(14.3936,0,0,13.2149,207.46,282.268)">
                    <path d="M0,0L29.737,0" style="fill:none;fill-rule:nonzero;stroke:white;stroke-width:1.21px;stroke-linejoin:miter;stroke-miterlimit:10;"/>
                </g>
                <g transform="matrix(14.3936,0,0,13.2149,207.46,383.389)">
                    <path d="M0,0L29.737,0" style="fill:none;fill-rule:nonzero;stroke:white;stroke-width:1.21px;stroke-linejoin:miter;stroke-miterlimit:10;"/>
                </g>
                <g transform="matrix(14.3936,0,0,13.2149,207.46,478.288)">
                    <path d="M0,0L29.737,0" style="fill:none;fill-rule:nonzero;stroke:white;stroke-width:1.21px;stroke-linejoin:miter;stroke-miterlimit:10;"/>
                </g>
            </g>
            <g>
                <g transform="matrix(10.1778,9.34431,10.1778,-9.34431,122.308,1007.4)">
                    <rect x="8.497" y="-20.515" width="41.029" height="41.029" style="fill:none;stroke:rgb(149,157,167);stroke-width:1.16px;"/>
                </g>
                <g transform="matrix(14.3936,0,0,13.2149,534.236,1367.36)">
                    <path d="M0,-13.45C0,-12.565 -0.718,-11.847 -1.603,-11.847C-2.488,-11.847 -3.206,-12.565 -3.206,-13.45C-3.206,-14.335 -2.488,-15.053 -1.603,-15.053C-0.718,-15.053 0,-14.335 0,-13.45ZM-8.104,-12.046C-11.044,-12.046 -13.426,-9.664 -13.426,-6.725C-13.426,-3.786 -11.044,-1.403 -8.104,-1.403C-5.165,-1.403 -2.783,-3.786 -2.783,-6.725C-2.783,-9.664 -5.165,-12.046 -8.104,-12.046ZM-8.104,-17.677C-4.537,-17.677 -4.115,-17.663 -2.706,-17.599C-1.404,-17.539 -0.696,-17.322 -0.226,-17.139C0.398,-16.897 0.843,-16.607 1.31,-16.14C1.778,-15.672 2.067,-15.227 2.31,-14.604C2.493,-14.133 2.71,-13.425 2.77,-12.123C2.834,-10.714 2.848,-10.292 2.848,-6.725C2.848,-3.158 2.834,-2.735 2.77,-1.327C2.71,-0.024 2.493,0.683 2.31,1.154C2.067,1.778 1.778,2.223 1.31,2.69C0.843,3.158 0.398,3.447 -0.226,3.689C-0.696,3.872 -1.404,4.09 -2.706,4.149C-4.115,4.214 -4.537,4.227 -8.104,4.227C-11.672,4.227 -12.094,4.214 -13.503,4.149C-14.805,4.09 -15.512,3.872 -15.983,3.689C-16.607,3.447 -17.052,3.158 -17.519,2.69C-17.987,2.223 -18.276,1.778 -18.519,1.154C-18.701,0.683 -18.919,-0.024 -18.979,-1.327C-19.043,-2.735 -19.056,-3.158 -19.056,-6.725C-19.056,-10.292 -19.043,-10.714 -18.979,-12.123C-18.919,-13.425 -18.701,-14.133 -18.519,-14.604C-18.276,-15.227 -17.987,-15.672 -17.519,-16.14C-17.052,-16.607 -16.607,-16.897 -15.983,-17.139C-15.512,-17.322 -14.805,-17.539 -13.503,-17.599C-12.094,-17.663 -11.671,-17.677 -8.104,-17.677" style="fill:none;fill-rule:nonzero;stroke:white;stroke-width:1.21px;stroke-linejoin:miter;stroke-miterlimit:10;"/>
                </g>
            </g>
            <g>
                <g transform="matrix(10.1778,9.34431,10.1778,-9.34431,122.308,1938.17)">
                    <rect x="8.497" y="-20.515" width="41.029" height="41.029" style="fill:none;stroke:rgb(149,157,167);stroke-width:1.16px;"/>
                </g>
                <g transform="matrix(14.3936,0,0,13.2149,553.092,2297.1)">
                    <path d="M0,-11.482C0,-10.549 -0.136,-9.647 -0.389,-8.795C-1.545,-4.905 -9.414,9.414 -9.414,9.414C-9.414,9.414 -17.054,-4.728 -18.323,-8.428C-18.651,-9.386 -18.829,-10.413 -18.829,-11.482C-18.829,-16.681 -14.614,-20.896 -9.414,-20.896C-4.215,-20.896 0,-16.681 0,-11.482Z" style="fill:none;fill-rule:nonzero;stroke:white;stroke-width:1.21px;stroke-linejoin:miter;stroke-miterlimit:10;"/>
                </g>
                <g transform="matrix(0,-13.2149,-14.3936,0,417.585,2080.45)">
                    <circle cx="-4.577" cy="0" r="4.577" style="fill:none;stroke:white;stroke-width:1.21px;stroke-linejoin:miter;stroke-miterlimit:10;"/>
                </g>
            </g>
            <g>
                <g transform="matrix(10.1778,9.34431,10.1778,-9.34431,3086.66,1938.17)">
                    <rect x="8.497" y="-20.515" width="41.029" height="41.029" style="fill:none;stroke:rgb(149,157,167);stroke-width:1.16px;"/>
                </g>
                <g transform="matrix(396.637,0,0,396.637,3250.49,2327.38)">
                    <path d="M0.65,-0.652C0.65,-0.641 0.648,-0.633 0.644,-0.626C0.644,-0.625 0.644,-0.625 0.643,-0.624L0.643,-0.623C0.638,-0.614 0.635,-0.608 0.632,-0.603C0.629,-0.598 0.626,-0.593 0.624,-0.589C0.621,-0.585 0.617,-0.581 0.614,-0.577C0.61,-0.573 0.605,-0.568 0.598,-0.562C0.592,-0.556 0.586,-0.55 0.581,-0.544C0.575,-0.537 0.569,-0.531 0.562,-0.526C0.555,-0.52 0.549,-0.514 0.542,-0.508C0.535,-0.503 0.528,-0.497 0.521,-0.492C0.52,-0.491 0.518,-0.49 0.517,-0.489C0.516,-0.488 0.514,-0.486 0.512,-0.485C0.506,-0.48 0.501,-0.475 0.496,-0.47C0.491,-0.466 0.486,-0.461 0.48,-0.457C0.474,-0.453 0.468,-0.449 0.462,-0.445C0.456,-0.441 0.45,-0.436 0.445,-0.431C0.443,-0.43 0.441,-0.427 0.438,-0.423C0.435,-0.42 0.436,-0.418 0.439,-0.417C0.443,-0.414 0.446,-0.413 0.448,-0.412C0.45,-0.411 0.452,-0.41 0.455,-0.409C0.458,-0.409 0.46,-0.409 0.462,-0.408C0.471,-0.405 0.479,-0.403 0.488,-0.401C0.496,-0.398 0.505,-0.396 0.514,-0.394C0.529,-0.39 0.542,-0.385 0.555,-0.379C0.567,-0.372 0.579,-0.364 0.591,-0.355C0.604,-0.346 0.615,-0.336 0.624,-0.323C0.637,-0.308 0.647,-0.29 0.652,-0.269C0.656,-0.255 0.656,-0.241 0.653,-0.227C0.652,-0.224 0.651,-0.22 0.65,-0.216C0.649,-0.212 0.648,-0.208 0.647,-0.205C0.643,-0.194 0.638,-0.183 0.632,-0.172C0.625,-0.161 0.617,-0.151 0.61,-0.141C0.603,-0.131 0.595,-0.121 0.586,-0.112C0.584,-0.109 0.582,-0.107 0.579,-0.105C0.576,-0.102 0.574,-0.099 0.572,-0.096L0.56,-0.083C0.554,-0.078 0.548,-0.072 0.542,-0.066C0.535,-0.06 0.529,-0.054 0.522,-0.049C0.515,-0.042 0.507,-0.035 0.5,-0.029C0.493,-0.022 0.484,-0.016 0.475,-0.01C0.47,-0.007 0.466,-0.003 0.462,-0C0.458,0.003 0.454,0.007 0.45,0.01C0.438,0.019 0.426,0.028 0.413,0.036C0.401,0.045 0.388,0.053 0.375,0.06C0.364,0.067 0.352,0.074 0.34,0.08C0.327,0.087 0.315,0.093 0.302,0.099C0.288,0.106 0.274,0.111 0.259,0.116C0.244,0.121 0.228,0.125 0.213,0.128C0.211,0.129 0.209,0.129 0.206,0.129C0.204,0.129 0.202,0.129 0.199,0.13L0.167,0.133C0.132,0.138 0.097,0.133 0.062,0.118C0.056,0.115 0.05,0.111 0.043,0.106C0.04,0.103 0.038,0.101 0.035,0.099C0.032,0.097 0.029,0.095 0.026,0.093C0.023,0.09 0.02,0.086 0.017,0.081C0.016,0.078 0.014,0.074 0.012,0.071C0.01,0.068 0.008,0.065 0.007,0.062C0.004,0.054 0.002,0.046 0.002,0.038C0.002,0.035 0.002,0.032 0.003,0.029C0.003,0.026 0.004,0.023 0.005,0.02L0.024,-0.019C0.025,-0.022 0.028,-0.026 0.032,-0.031L0.087,-0.106C0.088,-0.107 0.089,-0.108 0.09,-0.109C0.09,-0.11 0.091,-0.11 0.092,-0.111C0.098,-0.118 0.103,-0.124 0.107,-0.129C0.11,-0.133 0.113,-0.137 0.116,-0.141C0.119,-0.144 0.121,-0.148 0.123,-0.152C0.125,-0.156 0.127,-0.161 0.13,-0.167C0.137,-0.183 0.144,-0.199 0.15,-0.216C0.155,-0.232 0.161,-0.248 0.168,-0.265C0.169,-0.268 0.171,-0.272 0.172,-0.275C0.172,-0.278 0.174,-0.281 0.176,-0.284C0.183,-0.297 0.188,-0.31 0.192,-0.323C0.196,-0.336 0.2,-0.349 0.205,-0.362C0.209,-0.375 0.213,-0.387 0.218,-0.4C0.223,-0.412 0.227,-0.424 0.232,-0.437C0.233,-0.44 0.235,-0.444 0.236,-0.447C0.237,-0.45 0.239,-0.454 0.241,-0.457C0.246,-0.469 0.251,-0.481 0.255,-0.494C0.259,-0.506 0.263,-0.518 0.266,-0.531C0.269,-0.538 0.271,-0.545 0.273,-0.552C0.274,-0.559 0.274,-0.566 0.273,-0.573C0.273,-0.577 0.271,-0.578 0.268,-0.577C0.267,-0.576 0.266,-0.576 0.265,-0.576C0.264,-0.576 0.262,-0.576 0.261,-0.575C0.249,-0.566 0.238,-0.557 0.229,-0.546C0.219,-0.535 0.209,-0.525 0.199,-0.515C0.189,-0.504 0.179,-0.493 0.17,-0.482C0.167,-0.478 0.163,-0.474 0.159,-0.47C0.155,-0.467 0.151,-0.463 0.148,-0.46C0.143,-0.456 0.137,-0.454 0.132,-0.454C0.126,-0.454 0.121,-0.456 0.117,-0.459C0.115,-0.461 0.114,-0.464 0.113,-0.467C0.112,-0.469 0.112,-0.472 0.113,-0.475L0.132,-0.51C0.133,-0.513 0.135,-0.515 0.137,-0.518C0.138,-0.521 0.14,-0.523 0.142,-0.525C0.153,-0.538 0.164,-0.551 0.175,-0.564C0.186,-0.576 0.199,-0.587 0.212,-0.598C0.214,-0.6 0.216,-0.602 0.219,-0.604C0.221,-0.605 0.223,-0.607 0.225,-0.61C0.251,-0.635 0.279,-0.656 0.31,-0.673C0.341,-0.69 0.373,-0.703 0.408,-0.713C0.417,-0.716 0.425,-0.718 0.433,-0.72C0.442,-0.723 0.452,-0.725 0.464,-0.726L0.473,-0.726C0.476,-0.726 0.479,-0.727 0.482,-0.728C0.491,-0.73 0.5,-0.731 0.509,-0.73C0.518,-0.729 0.527,-0.729 0.536,-0.73L0.54,-0.73C0.563,-0.725 0.583,-0.719 0.602,-0.711L0.617,-0.703C0.629,-0.694 0.638,-0.685 0.644,-0.674C0.645,-0.673 0.646,-0.671 0.647,-0.67C0.647,-0.668 0.647,-0.666 0.648,-0.664C0.649,-0.657 0.65,-0.653 0.65,-0.652ZM0.141,0.112C0.144,0.112 0.147,0.112 0.15,0.112C0.153,0.112 0.157,0.112 0.161,0.111C0.164,0.11 0.168,0.11 0.172,0.109C0.175,0.109 0.179,0.109 0.182,0.109C0.189,0.109 0.196,0.108 0.202,0.106C0.208,0.105 0.214,0.103 0.22,0.1C0.227,0.097 0.234,0.093 0.242,0.09C0.249,0.087 0.256,0.085 0.263,0.082C0.271,0.079 0.279,0.076 0.285,0.073C0.293,0.07 0.3,0.067 0.307,0.064C0.314,0.061 0.321,0.057 0.328,0.053C0.334,0.049 0.34,0.045 0.347,0.04C0.348,0.039 0.349,0.039 0.35,0.039L0.386,0.015C0.391,0.012 0.396,0.008 0.401,0.003C0.406,-0.001 0.414,-0.007 0.423,-0.014C0.447,-0.034 0.468,-0.055 0.487,-0.076C0.494,-0.083 0.5,-0.09 0.506,-0.097C0.512,-0.103 0.518,-0.11 0.524,-0.117C0.53,-0.123 0.536,-0.13 0.541,-0.139C0.546,-0.148 0.552,-0.156 0.558,-0.165C0.563,-0.174 0.569,-0.182 0.575,-0.191C0.58,-0.199 0.585,-0.207 0.588,-0.216C0.591,-0.225 0.594,-0.234 0.596,-0.244L0.597,-0.258C0.598,-0.261 0.598,-0.263 0.598,-0.266C0.597,-0.268 0.597,-0.27 0.597,-0.272C0.596,-0.285 0.591,-0.299 0.581,-0.312L0.567,-0.329C0.564,-0.333 0.56,-0.337 0.554,-0.34C0.544,-0.346 0.534,-0.351 0.524,-0.356C0.513,-0.361 0.502,-0.364 0.491,-0.367C0.477,-0.37 0.463,-0.373 0.449,-0.376C0.435,-0.379 0.421,-0.381 0.406,-0.383C0.403,-0.383 0.401,-0.383 0.398,-0.384C0.395,-0.384 0.391,-0.384 0.388,-0.383C0.379,-0.383 0.371,-0.381 0.364,-0.377C0.361,-0.376 0.358,-0.374 0.355,-0.372C0.352,-0.37 0.349,-0.368 0.346,-0.366C0.33,-0.357 0.313,-0.348 0.294,-0.341C0.289,-0.339 0.284,-0.339 0.279,-0.34C0.277,-0.341 0.276,-0.342 0.276,-0.345C0.275,-0.349 0.275,-0.352 0.278,-0.355C0.28,-0.36 0.283,-0.364 0.286,-0.367C0.301,-0.38 0.315,-0.394 0.327,-0.409C0.33,-0.412 0.334,-0.415 0.341,-0.418C0.347,-0.42 0.353,-0.422 0.359,-0.424C0.364,-0.425 0.37,-0.427 0.375,-0.43C0.389,-0.434 0.4,-0.441 0.407,-0.452C0.414,-0.459 0.42,-0.465 0.426,-0.47C0.442,-0.481 0.457,-0.495 0.472,-0.51C0.479,-0.517 0.486,-0.524 0.493,-0.53C0.5,-0.536 0.506,-0.543 0.513,-0.55C0.519,-0.556 0.525,-0.562 0.531,-0.568C0.537,-0.574 0.542,-0.581 0.546,-0.588C0.548,-0.591 0.55,-0.594 0.553,-0.597C0.555,-0.599 0.557,-0.601 0.56,-0.604C0.565,-0.611 0.571,-0.619 0.577,-0.629C0.583,-0.639 0.587,-0.647 0.589,-0.653C0.59,-0.656 0.591,-0.658 0.592,-0.66C0.592,-0.662 0.592,-0.665 0.593,-0.668C0.594,-0.673 0.592,-0.678 0.589,-0.684C0.586,-0.687 0.584,-0.689 0.582,-0.691C0.58,-0.693 0.578,-0.695 0.575,-0.696C0.572,-0.697 0.57,-0.698 0.568,-0.698C0.561,-0.699 0.554,-0.701 0.547,-0.702C0.54,-0.703 0.532,-0.703 0.525,-0.702C0.509,-0.701 0.493,-0.699 0.477,-0.696C0.461,-0.693 0.445,-0.689 0.43,-0.682C0.429,-0.681 0.427,-0.681 0.425,-0.681C0.423,-0.68 0.421,-0.679 0.42,-0.678C0.411,-0.675 0.402,-0.671 0.394,-0.668C0.385,-0.664 0.377,-0.66 0.368,-0.655C0.366,-0.654 0.364,-0.652 0.362,-0.651C0.359,-0.649 0.357,-0.647 0.356,-0.646C0.355,-0.645 0.353,-0.643 0.352,-0.641C0.35,-0.639 0.349,-0.637 0.35,-0.634C0.352,-0.625 0.351,-0.615 0.348,-0.606C0.343,-0.588 0.337,-0.57 0.33,-0.551C0.32,-0.525 0.31,-0.499 0.301,-0.473C0.292,-0.447 0.282,-0.421 0.273,-0.396C0.27,-0.387 0.267,-0.377 0.266,-0.367C0.266,-0.358 0.263,-0.351 0.257,-0.345C0.252,-0.338 0.247,-0.33 0.244,-0.323C0.241,-0.315 0.237,-0.307 0.234,-0.3C0.229,-0.285 0.223,-0.271 0.218,-0.256C0.212,-0.241 0.206,-0.227 0.2,-0.212C0.196,-0.202 0.193,-0.192 0.191,-0.182C0.19,-0.181 0.191,-0.179 0.193,-0.177C0.194,-0.174 0.196,-0.173 0.197,-0.174C0.206,-0.175 0.216,-0.176 0.226,-0.177C0.235,-0.178 0.245,-0.179 0.254,-0.181C0.26,-0.182 0.266,-0.183 0.272,-0.184C0.278,-0.185 0.284,-0.185 0.29,-0.184C0.292,-0.184 0.294,-0.184 0.296,-0.183C0.297,-0.182 0.299,-0.182 0.301,-0.182C0.302,-0.181 0.303,-0.18 0.304,-0.178C0.304,-0.175 0.303,-0.173 0.302,-0.172C0.3,-0.17 0.298,-0.169 0.297,-0.168C0.292,-0.167 0.286,-0.166 0.281,-0.166C0.276,-0.166 0.27,-0.166 0.265,-0.165C0.258,-0.164 0.25,-0.164 0.243,-0.164C0.236,-0.163 0.228,-0.162 0.221,-0.161C0.206,-0.159 0.194,-0.153 0.183,-0.142L0.176,-0.134C0.167,-0.128 0.161,-0.12 0.158,-0.111C0.157,-0.108 0.155,-0.105 0.153,-0.102C0.151,-0.099 0.149,-0.096 0.148,-0.093C0.141,-0.085 0.134,-0.08 0.127,-0.079C0.113,-0.075 0.102,-0.068 0.095,-0.057C0.092,-0.054 0.09,-0.051 0.087,-0.048C0.084,-0.045 0.081,-0.041 0.078,-0.038C0.071,-0.028 0.064,-0.018 0.058,-0.009C0.054,-0.002 0.051,0.004 0.049,0.011C0.046,0.018 0.044,0.025 0.042,0.032L0.042,0.039C0.042,0.058 0.048,0.073 0.059,0.085C0.065,0.09 0.071,0.095 0.078,0.099C0.084,0.103 0.091,0.106 0.1,0.107C0.107,0.108 0.113,0.109 0.12,0.109C0.127,0.11 0.134,0.111 0.141,0.112Z" style="fill:white;fill-rule:nonzero;"/>
                </g>
            </g>
            <g>
                <g transform="matrix(10.1778,9.34431,10.1778,-9.34431,2119.14,112.292)">
                    <rect x="8.497" y="-20.515" width="41.029" height="41.029" style="fill:none;stroke:rgb(149,157,167);stroke-width:1.16px;"/>
                </g>
                <g transform="matrix(14.3936,0,0,13.2149,2523.03,411.314)">
                    <path d="M0,-5.59L-0.486,-1.479C-0.531,-1.083 -0.869,-0.787 -1.265,-0.787L-5.668,-0.787L-5.693,11.971L-11.254,11.971L-11.234,-0.787L-14.55,-0.787C-14.978,-0.787 -15.328,-1.137 -15.333,-1.569L-15.345,-5.681C-15.349,-6.113 -14.999,-6.467 -14.566,-6.467L-11.254,-6.467L-11.254,-10.439C-11.254,-15.052 -8.441,-17.561 -4.325,-17.561L-0.952,-17.561C-0.519,-17.561 -0.169,-17.211 -0.169,-16.778L-0.169,-13.314C-0.169,-12.881 -0.519,-12.531 -0.952,-12.531L-3.02,-12.527C-5.261,-12.527 -5.693,-11.464 -5.693,-9.907L-5.693,-6.463L-0.774,-6.463C-0.309,-6.463 0.058,-6.055 0,-5.59" style="fill:none;fill-rule:nonzero;stroke:white;stroke-width:1.21px;"/>
                </g>
            </g>
            <g>
                <g transform="matrix(10.1778,9.34431,10.1778,-9.34431,3086.66,112.292)">
                    <rect x="8.497" y="-20.515" width="41.029" height="41.029" style="fill:none;stroke:rgb(149,157,167);stroke-width:1.16px;"/>
                </g>
                <g transform="matrix(14.3936,0,0,13.2149,3328.09,256.487)">
                    <path d="M0,20.028C9.3,20.028 14.386,12.323 14.386,5.642C14.386,5.423 14.381,5.205 14.371,4.989C15.358,4.275 16.217,3.385 16.894,2.371C15.988,2.773 15.013,3.044 13.99,3.167C15.034,2.541 15.835,1.55 16.213,0.37C15.236,0.949 14.154,1.37 13.003,1.597C12.08,0.614 10.766,0 9.312,0C6.52,0 4.255,2.264 4.255,5.055C4.255,5.452 4.3,5.838 4.387,6.208C0.185,5.997 -3.542,3.985 -6.035,0.926C-6.47,1.673 -6.72,2.541 -6.72,3.467C-6.72,5.221 -5.827,6.77 -4.47,7.675C-5.299,7.65 -6.078,7.422 -6.76,7.043C-6.761,7.064 -6.761,7.085 -6.761,7.107C-6.761,9.556 -5.018,11.601 -2.705,12.064C-3.129,12.18 -3.576,12.242 -4.037,12.242C-4.363,12.242 -4.68,12.21 -4.988,12.151C-4.344,14.16 -2.478,15.621 -0.265,15.663C-1.995,17.019 -4.175,17.827 -6.544,17.827C-6.952,17.827 -7.355,17.804 -7.75,17.757C-5.513,19.191 -2.856,20.028 0,20.028" style="fill:none;fill-rule:nonzero;stroke:white;stroke-width:1.21px;"/>
                </g>
            </g>
            <g transform="matrix(14.3936,0,0,13.2149,3328.09,256.487)">
                <path d="M0,20.028C9.3,20.028 14.386,12.323 14.386,5.642C14.386,5.423 14.381,5.205 14.371,4.989C15.358,4.275 16.217,3.385 16.894,2.371C15.988,2.773 15.013,3.044 13.99,3.167C15.034,2.541 15.835,1.55 16.213,0.37C15.236,0.949 14.154,1.37 13.003,1.597C12.08,0.614 10.766,0 9.312,0C6.52,0 4.255,2.264 4.255,5.055C4.255,5.452 4.3,5.838 4.387,6.208C0.185,5.997 -3.542,3.985 -6.035,0.926C-6.47,1.673 -6.72,2.541 -6.72,3.467C-6.72,5.221 -5.827,6.77 -4.47,7.675C-5.299,7.65 -6.078,7.422 -6.76,7.043C-6.761,7.064 -6.761,7.085 -6.761,7.107C-6.761,9.556 -5.018,11.601 -2.705,12.064C-3.129,12.18 -3.576,12.242 -4.037,12.242C-4.363,12.242 -4.68,12.21 -4.988,12.151C-4.344,14.16 -2.478,15.621 -0.265,15.663C-1.995,17.019 -4.175,17.827 -6.544,17.827C-6.952,17.827 -7.355,17.804 -7.75,17.757C-5.513,19.191 -2.856,20.028 0,20.028" style="fill:none;fill-rule:nonzero;stroke:white;stroke-width:1.21px;"/>
            </g>
            <g>
                <g transform="matrix(10.1778,9.34431,10.1778,-9.34431,3086.66,1007.4)">
                    <rect x="8.497" y="-20.515" width="41.029" height="41.029" style="fill:none;stroke:rgb(149,157,167);stroke-width:1.16px;"/>
                </g>
                <g transform="matrix(14.3936,0,0,13.2149,3319.61,1419.7)">
                    <path d="M0,-20.9C-0.44,-22.079 -0.93,-21.904 -1.268,-21.917C-1.607,-21.929 -1.991,-21.992 -2.378,-22.006C-2.765,-22.021 -3.399,-21.899 -3.952,-21.339C-4.505,-20.779 -6.056,-19.432 -6.163,-16.578C-6.27,-13.725 -4.295,-10.889 -4.02,-10.492C-3.744,-10.094 -0.249,-3.908 5.559,-1.364C11.368,1.179 11.399,0.403 12.465,0.346C13.531,0.29 15.948,-0.929 16.483,-2.264C17.017,-3.6 17.06,-4.761 16.924,-5.008C16.788,-5.255 16.407,-5.416 15.838,-5.727C15.268,-6.039 12.471,-7.549 11.946,-7.762C11.421,-7.975 11.039,-8.086 10.63,-7.52C10.221,-6.955 9.061,-5.69 8.709,-5.316C8.356,-4.941 8.016,-4.906 7.446,-5.219C6.878,-5.53 5.031,-6.213 2.89,-8.271C1.224,-9.873 0.131,-11.815 -0.186,-12.408C-0.503,-13.001 -0.188,-13.304 0.113,-13.582C0.384,-13.832 0.719,-14.238 1.022,-14.565C1.323,-14.893 1.43,-15.131 1.638,-15.511C1.845,-15.89 1.762,-16.233 1.627,-16.528C1.493,-16.823 0.44,-19.721 0,-20.9" style="fill:none;stroke:white;stroke-width:1.81px;stroke-linejoin:bevel;stroke-miterlimit:1;"/>
                </g>
            </g>
            <g>
                <g transform="matrix(10.1778,9.34431,10.1778,-9.34431,2119.14,1007.4)">
                    <rect x="8.497" y="-20.515" width="41.029" height="41.029" style="fill:none;stroke:rgb(149,157,167);stroke-width:1.16px;"/>
                </g>
                <g transform="matrix(1,0,0,1,-3456.09,-48308.4)">
                    <path d="M5870.51,49622.9L5685.27,49494.4L6055.74,49494.4L5870.51,49622.9Z" style="fill:none;fill-rule:nonzero;stroke:white;stroke-width:16.67px;"/>
                </g>
                <g transform="matrix(1,0,0,1,-7358.34,-48179.2)">
                    <path d="M9958,49411.4L9958,49543.7C9958,49563.2 9943.21,49579.1 9925.05,49579.1L9620.48,49579.1C9602.31,49579.1 9587.52,49563.2 9587.52,49543.7L9587.52,49411.4L9751.13,49524.9C9764.14,49533.9 9781.38,49533.9 9794.39,49524.9L9958,49411.4Z" style="fill:none;fill-rule:nonzero;stroke:white;stroke-width:16.67px;"/>
                </g>
            </g>
            <g>
                <g transform="matrix(10.1778,9.34431,10.1778,-9.34431,2117.37,1938.17)">
                    <rect x="8.497" y="-20.515" width="41.029" height="41.029" style="fill:none;stroke:rgb(149,157,167);stroke-width:1.16px;"/>
                </g>
                <g transform="matrix(14.3936,0,0,13.2149,2481.73,2122.28)">
                    <path d="M0,6.311C0.003,6.258 0.016,6.207 0.016,6.153L0.016,-5.684C0.016,-7.187 -1.214,-8.417 -2.717,-8.417L-5.891,-8.417C-7.394,-8.417 -8.624,-7.187 -8.624,-5.684L-8.624,6.153C-8.624,6.207 -8.611,6.258 -8.608,6.311L-12.56,6.311L-4.143,14.728L4.274,6.311L0,6.311Z" style="fill:none;fill-rule:nonzero;stroke:white;stroke-width:1.21px;"/>
                </g>
                <g transform="matrix(14.3936,0,0,13.2149,2264.97,2333.04)">
                    <path d="M0,0L21.833,0" style="fill:none;fill-rule:nonzero;stroke:white;stroke-width:1.21px;stroke-miterlimit:10;"/>
                </g>
            </g>
            <g>
                <g transform="matrix(10.1778,9.34431,10.1778,-9.34431,1146.65,112.292)">
                    <rect x="8.497" y="-20.515" width="41.029" height="41.029" style="fill:none;stroke:rgb(149,157,167);stroke-width:1.16px;"/>
                </g>
                <g transform="matrix(14.3936,0,0,13.2149,1478.76,468.538)">
                    <path d="M0,-10.619C0.226,-10.912 0.399,-11.156 0.592,-11.381C1.44,-12.368 2.518,-12.924 3.808,-13.061C5.229,-13.212 6.588,-13.025 7.814,-12.237C9.187,-11.355 9.884,-10.025 10.233,-8.478C10.414,-7.673 10.457,-6.856 10.457,-6.034C10.456,-3.281 10.453,-0.528 10.462,2.225C10.463,2.493 10.42,2.593 10.116,2.59C8.638,2.571 7.158,2.574 5.679,2.588C5.419,2.59 5.362,2.513 5.363,2.265C5.372,-0.316 5.369,-2.896 5.369,-5.476C5.369,-6.061 5.328,-6.642 5.173,-7.207C4.646,-9.131 2.35,-9.744 0.915,-8.345C0.306,-7.751 0,-7.029 0.001,-6.173C0.004,-3.376 -0.004,-0.58 0.007,2.217C0.008,2.504 -0.054,2.593 -0.357,2.589C-1.826,2.571 -3.294,2.571 -4.762,2.589C-5.065,2.593 -5.11,2.498 -5.108,2.226C-5.067,-2.276 -5.049,-6.778 -5.069,-11.28C-5.071,-11.69 -5.08,-12.101 -5.102,-12.51C-5.114,-12.713 -5.042,-12.767 -4.846,-12.766C-3.312,-12.759 -1.779,-12.758 -0.246,-12.767C-0.041,-12.768 0.008,-12.704 0.004,-12.51C-0.007,-11.905 0,-11.301 0,-10.619" style="fill:none;fill-rule:nonzero;stroke:white;stroke-width:1.21px;stroke-linecap:round;"/>
                </g>
                <g transform="matrix(14.3936,0,0,13.2149,1291.41,400.891)">
                    <path d="M0,0.057C0,-2.405 0.004,-4.866 -0.006,-7.328C-0.007,-7.585 0.062,-7.651 0.317,-7.649C1.817,-7.637 3.318,-7.639 4.819,-7.648C5.038,-7.649 5.113,-7.6 5.113,-7.365C5.106,-2.431 5.106,2.503 5.112,7.437C5.112,7.653 5.049,7.706 4.84,7.705C3.318,7.696 1.795,7.695 0.273,7.706C0.033,7.708 -0.005,7.624 -0.004,7.409C0.003,4.959 0,2.508 0,0.057" style="fill:none;fill-rule:nonzero;stroke:white;stroke-width:1.21px;"/>
                </g>
                <g transform="matrix(14.3936,0,0,13.2149,1287.27,235.954)">
                    <path d="M0,0.097C0.001,-1.629 1.442,-2.711 3.215,-2.521C4.706,-2.362 5.637,-1.407 5.719,-0.061C5.812,1.463 4.698,2.667 3.096,2.747C1.876,2.808 0.865,2.433 0.263,1.284C0.068,0.914 -0.003,0.513 0,0.097" style="fill:none;fill-rule:nonzero;stroke:white;stroke-width:1.21px;"/>
                </g>
            </g>
            <g>
                <g transform="matrix(10.1778,9.34431,10.1778,-9.34431,1146.65,1007.4)">
                    <rect x="8.497" y="-20.515" width="41.029" height="41.029" style="fill:none;stroke:rgb(149,157,167);stroke-width:1.16px;"/>
                </g>
                <g transform="matrix(14.3936,0,0,13.2149,1421.63,1318.22)">
                    <path d="M2.146,7.613C1.839,7.611 -5.211,7.545 -7.466,7.325C-7.612,7.301 -7.72,7.289 -7.842,7.276C-8.578,7.191 -9.949,7.032 -11.026,5.9C-12.008,4.907 -12.313,2.925 -12.344,2.702C-12.357,2.596 -12.637,0.348 -12.637,-1.943L-12.637,-4.07C-12.637,-6.36 -12.357,-8.619 -12.346,-8.714C-12.313,-8.949 -12.008,-10.928 -11.031,-11.93C-9.878,-13.131 -8.566,-13.257 -7.937,-13.318L-7.768,-13.335C-3.814,-13.622 2.085,-13.626 2.145,-13.626C2.215,-13.626 8.114,-13.622 12.01,-13.339L12.213,-13.318C12.847,-13.258 14.166,-13.133 15.316,-11.923C16.295,-10.93 16.602,-8.949 16.633,-8.726L16.635,-8.714C16.646,-8.619 16.926,-6.362 16.937,-4.074L16.937,-1.943C16.937,0.348 16.657,2.596 16.645,2.691C16.612,2.925 16.306,4.907 15.317,5.91C14.167,7.107 12.855,7.234 12.225,7.294L12.056,7.312C8.115,7.599 2.205,7.613 2.146,7.613" style="fill:none;fill-rule:nonzero;stroke:white;stroke-width:1.21px;"/>
                </g>
                <g transform="matrix(1,0,0,1,-7358.34,-48175.2)">
                    <path d="M8758.39,49385.3L8758.39,49522.1L8901.77,49453.8L8758.39,49385.3ZM8775.05,49495.7L8863.07,49453.8L8775.05,49411.7L8775.05,49495.7Z" style="fill:white;"/>
                </g>
            </g>
            <g transform="matrix(1,0,0,1,-7358.96,-48401.2)">
                <g transform="matrix(14.3936,0,0,13.2149,8780.59,49719.4)">
                    <path d="M2.146,7.613C1.839,7.611 -5.211,7.545 -7.466,7.325C-7.612,7.301 -7.72,7.289 -7.842,7.276C-8.578,7.191 -9.949,7.032 -11.026,5.9C-12.008,4.907 -12.313,2.925 -12.344,2.702C-12.357,2.596 -12.637,0.348 -12.637,-1.943L-12.637,-4.07C-12.637,-6.36 -12.357,-8.619 -12.346,-8.714C-12.313,-8.949 -12.008,-10.928 -11.031,-11.93C-9.878,-13.131 -8.566,-13.257 -7.937,-13.318L-7.768,-13.335C-3.814,-13.622 2.085,-13.626 2.145,-13.626C2.215,-13.626 8.114,-13.622 12.01,-13.339L12.213,-13.318C12.847,-13.258 14.166,-13.133 15.316,-11.923C16.295,-10.93 16.602,-8.949 16.633,-8.726L16.635,-8.714C16.646,-8.619 16.926,-6.362 16.937,-4.074L16.937,-1.943C16.937,0.348 16.657,2.596 16.645,2.691C16.612,2.925 16.306,4.907 15.317,5.91C14.167,7.107 12.855,7.234 12.225,7.294L12.056,7.312C8.115,7.599 2.205,7.613 2.146,7.613" style="fill:none;fill-rule:nonzero;stroke:white;stroke-width:1.21px;"/>
                </g>
                <g transform="matrix(1,0,0,1,0.610925,225.98)">
                    <path d="M8758.39,49385.3L8758.39,49522.1L8901.77,49453.8L8758.39,49385.3ZM8775.05,49495.7L8863.07,49453.8L8775.05,49411.7L8775.05,49495.7Z" style="fill:white;"/>
                </g>
            </g>
            <g>
                <g transform="matrix(10.1778,9.34431,10.1778,-9.34431,1146.65,1938.17)">
                    <rect x="8.497" y="-20.515" width="41.029" height="41.029" style="fill:none;stroke:rgb(149,157,167);stroke-width:1.16px;"/>
                </g>
                <g transform="matrix(14.3936,0,0,13.2149,1633.5,2142.72)">
                    <path d="M0,5.781L-11.664,-5.883C-12.569,-6.788 -14.05,-6.788 -14.955,-5.883L-26.619,5.781C-27.524,6.686 -27.524,8.168 -26.619,9.073L-24.027,11.664C-23.122,12.569 -21.641,12.569 -20.736,11.664L-13.309,4.238L-5.883,11.664C-4.978,12.569 -3.497,12.569 -2.591,11.664L0,9.073C0.905,8.167 0.905,6.686 0,5.781" style="fill:none;fill-rule:nonzero;stroke:white;stroke-width:1.21px;"/>
                </g>
            </g>
        </g>
    </g>
</svg>
