<?xml version="1.0" encoding="UTF-8" standalone="no"?>
<!DOCTYPE svg PUBLIC "-//W3C//DTD SVG 1.1//EN" "http://www.w3.org/Graphics/SVG/1.1/DTD/svg11.dtd">
<svg width="100%" height="100%" viewBox="0 0 1916 659" version="1.1" xmlns="http://www.w3.org/2000/svg" xmlns:xlink="http://www.w3.org/1999/xlink" xml:space="preserve" xmlns:serif="http://www.serif.com/" style="fill-rule:evenodd;clip-rule:evenodd;stroke-linejoin:round;stroke-miterlimit:2;">
    <g transform="matrix(8.33333,0,0,8.33333,1896.82,425.659)">
        <path d="M0,-6.75C-2.673,-9.019 -6.278,-9.055 -9.591,-8.776C-14.658,-8.348 -19.716,-7.658 -24.769,-7.096C-34.429,-6.023 -44.088,-4.951 -53.748,-3.876C-58.418,-3.357 -63.087,-2.736 -67.776,-2.413C-70.05,-2.256 -72.327,-2.182 -74.605,-2.272C-76.132,-2.332 -77.673,-2.445 -79.182,-2.688C-79.631,-2.767 -80.079,-2.846 -80.527,-2.925C-82.161,-2.94 -82.652,-3.979 -82,-6.042C-81.808,-5.644 -81.122,-5.925 -81.279,-6.345C-82.51,-9.656 -86.981,-6.365 -84.303,-3.384C-82.449,-1.321 -78.527,-1.295 -75.964,-1.097C-70.953,-0.71 -65.927,-1.231 -60.948,-1.769C-50.576,-2.89 -40.209,-4.061 -29.84,-5.21C-24.528,-5.799 -19.215,-6.388 -13.902,-6.977C-11.55,-7.238 -9.129,-7.666 -6.756,-7.596C-4.957,-7.543 -3.007,-7.27 -1.48,-6.208C0.973,-4.503 2.397,-0.225 -1.431,1.32C-2.207,1.633 -1.876,2.906 -1.08,2.594C3.012,0.991 3.181,-4.05 0,-6.75" style="fill:rgb(148,153,136);fill-rule:nonzero;"/>
    </g>
    <g transform="matrix(8.33333,0,0,8.33333,18.3961,425.659)">
        <path d="M0,-6.75C2.673,-9.019 6.278,-9.055 9.591,-8.776C14.658,-8.348 19.716,-7.658 24.769,-7.096C34.429,-6.023 44.088,-4.951 53.748,-3.876C58.418,-3.357 63.087,-2.736 67.776,-2.413C70.05,-2.256 72.327,-2.182 74.605,-2.272C76.132,-2.332 77.673,-2.445 79.182,-2.688C79.631,-2.767 80.079,-2.846 80.527,-2.925C82.161,-2.94 82.652,-3.979 82,-6.042C81.808,-5.644 81.122,-5.925 81.279,-6.345C82.51,-9.656 86.981,-6.365 84.303,-3.384C82.449,-1.321 78.527,-1.295 75.964,-1.097C70.953,-0.71 65.927,-1.231 60.948,-1.769C50.576,-2.89 40.209,-4.061 29.84,-5.21C24.528,-5.799 19.215,-6.388 13.902,-6.977C11.55,-7.238 9.129,-7.666 6.756,-7.596C4.957,-7.543 3.007,-7.27 1.48,-6.208C-0.973,-4.503 -2.397,-0.225 1.431,1.32C2.207,1.633 1.876,2.906 1.08,2.594C-3.012,0.991 -3.181,-4.05 0,-6.75" style="fill:rgb(148,153,136);fill-rule:nonzero;"/>
    </g>
    <g transform="matrix(8.33333,0,0,8.33333,-2342.39,-1410.02)">
        <g transform="matrix(14,0,0,14,307.828,248.097)">
            <path d="M0.142,-0.265L0.184,-0.388C0.211,-0.466 0.234,-0.535 0.257,-0.616L0.261,-0.616C0.284,-0.535 0.308,-0.466 0.334,-0.388L0.376,-0.265L0.142,-0.265ZM0.466,-0L0.515,-0L0.283,-0.659L0.237,-0.659L0.004,-0L0.051,-0L0.128,-0.226L0.389,-0.226L0.466,-0Z" style="fill:rgb(71,97,111);fill-rule:nonzero;"/>
        </g>
        <g transform="matrix(14,0,0,14,315.094,248.097)">
            <path d="M0.094,-0L0.14,-0L0.14,-0.283L0.274,-0.283C0.42,-0.283 0.508,-0.346 0.508,-0.475C0.508,-0.611 0.421,-0.659 0.274,-0.659L0.094,-0.659L0.094,-0ZM0.14,-0.322L0.14,-0.62L0.262,-0.62C0.396,-0.62 0.461,-0.586 0.461,-0.475C0.461,-0.367 0.397,-0.322 0.262,-0.322L0.14,-0.322Z" style="fill:rgb(71,97,111);fill-rule:nonzero;"/>
        </g>
        <g transform="matrix(14,0,0,14,322.808,248.097)">
            <path d="M0.094,-0L0.14,-0L0.14,-0.283L0.274,-0.283C0.42,-0.283 0.508,-0.346 0.508,-0.475C0.508,-0.611 0.421,-0.659 0.274,-0.659L0.094,-0.659L0.094,-0ZM0.14,-0.322L0.14,-0.62L0.262,-0.62C0.396,-0.62 0.461,-0.586 0.461,-0.475C0.461,-0.367 0.397,-0.322 0.262,-0.322L0.14,-0.322Z" style="fill:rgb(71,97,111);fill-rule:nonzero;"/>
        </g>
        <g transform="matrix(14,0,0,14,330.522,248.097)">
            <path d="M0.094,-0L0.443,-0L0.443,-0.04L0.14,-0.04L0.14,-0.659L0.094,-0.659L0.094,-0Z" style="fill:rgb(71,97,111);fill-rule:nonzero;"/>
        </g>
        <g transform="matrix(14,0,0,14,336.962,248.097)">
            <rect x="0.094" y="-0.659" width="0.046" height="0.659" style="fill:rgb(71,97,111);fill-rule:nonzero;"/>
        </g>
        <g transform="matrix(14,0,0,14,340.224,248.097)">
            <path d="M0.094,-0L0.464,-0L0.464,-0.04L0.14,-0.04L0.14,-0.33L0.404,-0.33L0.404,-0.37L0.14,-0.37L0.14,-0.619L0.454,-0.619L0.454,-0.659L0.094,-0.659L0.094,-0Z" style="fill:rgb(71,97,111);fill-rule:nonzero;"/>
        </g>
        <g transform="matrix(14,0,0,14,347.322,248.097)">
            <path d="M0.094,-0L0.247,-0C0.449,-0 0.546,-0.132 0.546,-0.332C0.546,-0.531 0.449,-0.659 0.246,-0.659L0.094,-0.659L0.094,-0ZM0.14,-0.039L0.14,-0.62L0.241,-0.62C0.42,-0.62 0.498,-0.503 0.498,-0.332C0.498,-0.16 0.42,-0.039 0.241,-0.039L0.14,-0.039Z" style="fill:rgb(71,97,111);fill-rule:nonzero;"/>
        </g>
        <g transform="matrix(14,0,0,14,358.494,248.097)">
            <path d="M0.094,-0L0.136,-0L0.136,-0.433C0.136,-0.487 0.133,-0.556 0.131,-0.611L0.135,-0.611L0.187,-0.466L0.329,-0.072L0.369,-0.072L0.511,-0.466L0.562,-0.611L0.566,-0.611C0.563,-0.556 0.56,-0.487 0.56,-0.433L0.56,-0L0.605,-0L0.605,-0.659L0.54,-0.659L0.403,-0.272L0.352,-0.126L0.348,-0.126L0.296,-0.272L0.158,-0.659L0.094,-0.659L0.094,-0Z" style="fill:rgb(71,97,111);fill-rule:nonzero;"/>
        </g>
        <g transform="matrix(14,0,0,14,368.28,248.097)">
            <path d="M0.142,-0.265L0.184,-0.388C0.211,-0.466 0.234,-0.535 0.257,-0.616L0.261,-0.616C0.284,-0.535 0.308,-0.466 0.334,-0.388L0.376,-0.265L0.142,-0.265ZM0.466,-0L0.515,-0L0.283,-0.659L0.237,-0.659L0.004,-0L0.051,-0L0.128,-0.226L0.389,-0.226L0.466,-0Z" style="fill:rgb(71,97,111);fill-rule:nonzero;"/>
        </g>
        <g transform="matrix(14,0,0,14,375.546,248.097)">
            <path d="M0.14,-0.341L0.14,-0.62L0.27,-0.62C0.387,-0.62 0.451,-0.584 0.451,-0.485C0.451,-0.388 0.387,-0.341 0.27,-0.341L0.14,-0.341ZM0.511,-0L0.33,-0.306C0.433,-0.32 0.499,-0.38 0.499,-0.485C0.499,-0.611 0.413,-0.659 0.282,-0.659L0.094,-0.659L0.094,-0L0.14,-0L0.14,-0.303L0.28,-0.303L0.458,-0L0.511,-0Z" style="fill:rgb(71,97,111);fill-rule:nonzero;"/>
        </g>
        <g transform="matrix(14,0,0,14,383.288,248.097)">
            <path d="M0.094,-0L0.14,-0L0.14,-0.227L0.274,-0.38L0.491,-0L0.544,-0L0.305,-0.415L0.515,-0.659L0.461,-0.659L0.142,-0.293L0.14,-0.293L0.14,-0.659L0.094,-0.659L0.094,-0Z" style="fill:rgb(71,97,111);fill-rule:nonzero;"/>
        </g>
        <g transform="matrix(14,0,0,14,391.002,248.097)">
            <path d="M0.094,-0L0.464,-0L0.464,-0.04L0.14,-0.04L0.14,-0.33L0.404,-0.33L0.404,-0.37L0.14,-0.37L0.14,-0.619L0.454,-0.619L0.454,-0.659L0.094,-0.659L0.094,-0Z" style="fill:rgb(71,97,111);fill-rule:nonzero;"/>
        </g>
        <g transform="matrix(14,0,0,14,398.1,248.097)">
            <path d="M0.236,-0L0.282,-0L0.282,-0.619L0.491,-0.619L0.491,-0.659L0.026,-0.659L0.026,-0.619L0.236,-0.619L0.236,-0Z" style="fill:rgb(71,97,111);fill-rule:nonzero;"/>
        </g>
        <g transform="matrix(14,0,0,14,405.338,248.097)">
            <rect x="0.094" y="-0.659" width="0.046" height="0.659" style="fill:rgb(71,97,111);fill-rule:nonzero;"/>
        </g>
        <g transform="matrix(14,0,0,14,408.6,248.097)">
            <path d="M0.094,-0L0.137,-0L0.137,-0.409C0.137,-0.473 0.134,-0.533 0.131,-0.596L0.135,-0.596L0.21,-0.465L0.487,-0L0.535,-0L0.535,-0.659L0.492,-0.659L0.492,-0.255C0.492,-0.191 0.495,-0.127 0.498,-0.063L0.494,-0.063L0.419,-0.194L0.142,-0.659L0.094,-0.659L0.094,-0Z" style="fill:rgb(71,97,111);fill-rule:nonzero;"/>
        </g>
        <g transform="matrix(14,0,0,14,417.406,248.097)">
            <path d="M0.051,-0.331C0.051,-0.121 0.165,0.012 0.334,0.012C0.42,0.012 0.488,-0.019 0.529,-0.063L0.529,-0.324L0.328,-0.324L0.328,-0.285L0.485,-0.285L0.485,-0.08C0.453,-0.048 0.397,-0.03 0.338,-0.03C0.188,-0.03 0.099,-0.148 0.099,-0.331C0.099,-0.514 0.192,-0.629 0.343,-0.629C0.415,-0.629 0.461,-0.599 0.495,-0.562L0.522,-0.592C0.487,-0.629 0.432,-0.671 0.343,-0.671C0.169,-0.671 0.051,-0.54 0.051,-0.331Z" style="fill:rgb(71,97,111);fill-rule:nonzero;"/>
        </g>
        <g transform="matrix(14,0,0,14,428.55,248.097)">
            <path d="M0.043,-0.087C0.095,-0.029 0.169,0.012 0.265,0.012C0.393,0.012 0.476,-0.064 0.476,-0.165C0.476,-0.266 0.411,-0.307 0.338,-0.34L0.238,-0.384C0.19,-0.406 0.124,-0.435 0.124,-0.511C0.124,-0.583 0.182,-0.629 0.269,-0.629C0.335,-0.629 0.388,-0.602 0.426,-0.561L0.453,-0.592C0.413,-0.635 0.349,-0.671 0.269,-0.671C0.16,-0.671 0.078,-0.604 0.078,-0.509C0.078,-0.411 0.154,-0.37 0.211,-0.345L0.311,-0.3C0.376,-0.271 0.43,-0.244 0.43,-0.162C0.43,-0.084 0.366,-0.03 0.266,-0.03C0.189,-0.03 0.12,-0.065 0.072,-0.119L0.043,-0.087Z" style="fill:rgb(71,97,111);fill-rule:nonzero;"/>
        </g>
        <g transform="matrix(14,0,0,14,435.466,248.097)">
            <path d="M0.236,-0L0.282,-0L0.282,-0.619L0.491,-0.619L0.491,-0.659L0.026,-0.659L0.026,-0.619L0.236,-0.619L0.236,-0Z" style="fill:rgb(71,97,111);fill-rule:nonzero;"/>
        </g>
        <g transform="matrix(14,0,0,14,442.704,248.097)">
            <path d="M0.14,-0.341L0.14,-0.62L0.27,-0.62C0.387,-0.62 0.451,-0.584 0.451,-0.485C0.451,-0.388 0.387,-0.341 0.27,-0.341L0.14,-0.341ZM0.511,-0L0.33,-0.306C0.433,-0.32 0.499,-0.38 0.499,-0.485C0.499,-0.611 0.413,-0.659 0.282,-0.659L0.094,-0.659L0.094,-0L0.14,-0L0.14,-0.303L0.28,-0.303L0.458,-0L0.511,-0Z" style="fill:rgb(71,97,111);fill-rule:nonzero;"/>
        </g>
        <g transform="matrix(14,0,0,14,450.306,248.097)">
            <path d="M0.142,-0.265L0.184,-0.388C0.211,-0.466 0.234,-0.535 0.257,-0.616L0.261,-0.616C0.284,-0.535 0.308,-0.466 0.334,-0.388L0.376,-0.265L0.142,-0.265ZM0.466,-0L0.515,-0L0.283,-0.659L0.237,-0.659L0.004,-0L0.051,-0L0.128,-0.226L0.389,-0.226L0.466,-0Z" style="fill:rgb(71,97,111);fill-rule:nonzero;"/>
        </g>
        <g transform="matrix(14,0,0,14,457.012,248.097)">
            <path d="M0.236,-0L0.282,-0L0.282,-0.619L0.491,-0.619L0.491,-0.659L0.026,-0.659L0.026,-0.619L0.236,-0.619L0.236,-0Z" style="fill:rgb(71,97,111);fill-rule:nonzero;"/>
        </g>
        <g transform="matrix(14,0,0,14,464.25,248.097)">
            <path d="M0.094,-0L0.464,-0L0.464,-0.04L0.14,-0.04L0.14,-0.33L0.404,-0.33L0.404,-0.37L0.14,-0.37L0.14,-0.619L0.454,-0.619L0.454,-0.659L0.094,-0.659L0.094,-0Z" style="fill:rgb(71,97,111);fill-rule:nonzero;"/>
        </g>
        <g transform="matrix(14,0,0,14,471.348,248.097)">
            <path d="M0.051,-0.331C0.051,-0.121 0.165,0.012 0.334,0.012C0.42,0.012 0.488,-0.019 0.529,-0.063L0.529,-0.324L0.328,-0.324L0.328,-0.285L0.485,-0.285L0.485,-0.08C0.453,-0.048 0.397,-0.03 0.338,-0.03C0.188,-0.03 0.099,-0.148 0.099,-0.331C0.099,-0.514 0.192,-0.629 0.343,-0.629C0.415,-0.629 0.461,-0.599 0.495,-0.562L0.522,-0.592C0.487,-0.629 0.432,-0.671 0.343,-0.671C0.169,-0.671 0.051,-0.54 0.051,-0.331Z" style="fill:rgb(71,97,111);fill-rule:nonzero;"/>
        </g>
        <g transform="matrix(14,0,0,14,479.706,248.097)">
            <path d="M0.197,-0L0.243,-0L0.243,-0.267L0.441,-0.659L0.394,-0.659L0.294,-0.453C0.272,-0.405 0.247,-0.359 0.222,-0.311L0.218,-0.311C0.193,-0.359 0.171,-0.405 0.148,-0.453L0.048,-0.659L-0.001,-0.659L0.197,-0.267L0.197,-0Z" style="fill:rgb(71,97,111);fill-rule:nonzero;"/>
        </g>
    </g>
    <g transform="matrix(0.977415,0,0,1.07998,-45814.9,-38927.5)">
        <g transform="matrix(306.932,0,0,277.783,46955.9,36247.6)">
            <path d="M0.65,-0.652C0.65,-0.641 0.648,-0.633 0.644,-0.626C0.644,-0.625 0.644,-0.625 0.643,-0.624L0.643,-0.623C0.638,-0.614 0.635,-0.608 0.632,-0.603C0.629,-0.598 0.626,-0.593 0.624,-0.589C0.621,-0.585 0.617,-0.581 0.614,-0.577C0.61,-0.573 0.605,-0.568 0.598,-0.562C0.592,-0.556 0.586,-0.55 0.581,-0.544C0.575,-0.537 0.569,-0.531 0.562,-0.526C0.555,-0.52 0.549,-0.514 0.542,-0.508C0.535,-0.503 0.528,-0.497 0.521,-0.492C0.52,-0.491 0.518,-0.49 0.517,-0.489C0.516,-0.488 0.514,-0.486 0.512,-0.485C0.506,-0.48 0.501,-0.475 0.496,-0.47C0.491,-0.466 0.486,-0.461 0.48,-0.457C0.474,-0.453 0.468,-0.449 0.462,-0.445C0.456,-0.441 0.45,-0.436 0.445,-0.431C0.443,-0.43 0.441,-0.427 0.438,-0.423C0.435,-0.42 0.436,-0.418 0.439,-0.417C0.443,-0.414 0.446,-0.413 0.448,-0.412C0.45,-0.411 0.452,-0.41 0.455,-0.409C0.458,-0.409 0.46,-0.409 0.462,-0.408C0.471,-0.405 0.479,-0.403 0.488,-0.401C0.496,-0.398 0.505,-0.396 0.514,-0.394C0.529,-0.39 0.542,-0.385 0.555,-0.379C0.567,-0.372 0.579,-0.364 0.591,-0.355C0.604,-0.346 0.615,-0.336 0.624,-0.323C0.637,-0.308 0.647,-0.29 0.652,-0.269C0.656,-0.255 0.656,-0.241 0.653,-0.227C0.652,-0.224 0.651,-0.22 0.65,-0.216C0.649,-0.212 0.648,-0.208 0.647,-0.205C0.643,-0.194 0.638,-0.183 0.632,-0.172C0.625,-0.161 0.617,-0.151 0.61,-0.141C0.603,-0.131 0.595,-0.121 0.586,-0.112C0.584,-0.109 0.582,-0.107 0.579,-0.105C0.576,-0.102 0.574,-0.099 0.572,-0.096L0.56,-0.083C0.554,-0.078 0.548,-0.072 0.542,-0.066C0.535,-0.06 0.529,-0.054 0.522,-0.049C0.515,-0.042 0.507,-0.035 0.5,-0.029C0.493,-0.022 0.484,-0.016 0.475,-0.01C0.47,-0.007 0.466,-0.003 0.462,-0C0.458,0.003 0.454,0.007 0.45,0.01C0.438,0.019 0.426,0.028 0.413,0.036C0.401,0.045 0.388,0.053 0.375,0.06C0.364,0.067 0.352,0.074 0.34,0.08C0.327,0.087 0.315,0.093 0.302,0.099C0.288,0.106 0.274,0.111 0.259,0.116C0.244,0.121 0.228,0.125 0.213,0.128C0.211,0.129 0.209,0.129 0.206,0.129C0.204,0.129 0.202,0.129 0.199,0.13L0.167,0.133C0.132,0.138 0.097,0.133 0.062,0.118C0.056,0.115 0.05,0.111 0.043,0.106C0.04,0.103 0.038,0.101 0.035,0.099C0.032,0.097 0.029,0.095 0.026,0.093C0.023,0.09 0.02,0.086 0.017,0.081C0.016,0.078 0.014,0.074 0.012,0.071C0.01,0.068 0.008,0.065 0.007,0.062C0.004,0.054 0.002,0.046 0.002,0.038C0.002,0.035 0.002,0.032 0.003,0.029C0.003,0.026 0.004,0.023 0.005,0.02L0.024,-0.019C0.025,-0.022 0.028,-0.026 0.032,-0.031L0.087,-0.106C0.088,-0.107 0.089,-0.108 0.09,-0.109C0.09,-0.11 0.091,-0.11 0.092,-0.111C0.098,-0.118 0.103,-0.124 0.107,-0.129C0.11,-0.133 0.113,-0.137 0.116,-0.141C0.119,-0.144 0.121,-0.148 0.123,-0.152C0.125,-0.156 0.127,-0.161 0.13,-0.167C0.137,-0.183 0.144,-0.199 0.15,-0.216C0.155,-0.232 0.161,-0.248 0.168,-0.265C0.169,-0.268 0.171,-0.272 0.172,-0.275C0.172,-0.278 0.174,-0.281 0.176,-0.284C0.183,-0.297 0.188,-0.31 0.192,-0.323C0.196,-0.336 0.2,-0.349 0.205,-0.362C0.209,-0.375 0.213,-0.387 0.218,-0.4C0.223,-0.412 0.227,-0.424 0.232,-0.437C0.233,-0.44 0.235,-0.444 0.236,-0.447C0.237,-0.45 0.239,-0.454 0.241,-0.457C0.246,-0.469 0.251,-0.481 0.255,-0.494C0.259,-0.506 0.263,-0.518 0.266,-0.531C0.269,-0.538 0.271,-0.545 0.273,-0.552C0.274,-0.559 0.274,-0.566 0.273,-0.573C0.273,-0.577 0.271,-0.578 0.268,-0.577C0.267,-0.576 0.266,-0.576 0.265,-0.576C0.264,-0.576 0.262,-0.576 0.261,-0.575C0.249,-0.566 0.238,-0.557 0.229,-0.546C0.219,-0.535 0.209,-0.525 0.199,-0.515C0.189,-0.504 0.179,-0.493 0.17,-0.482C0.167,-0.478 0.163,-0.474 0.159,-0.47C0.155,-0.467 0.151,-0.463 0.148,-0.46C0.143,-0.456 0.137,-0.454 0.132,-0.454C0.126,-0.454 0.121,-0.456 0.117,-0.459C0.115,-0.461 0.114,-0.464 0.113,-0.467C0.112,-0.469 0.112,-0.472 0.113,-0.475L0.132,-0.51C0.133,-0.513 0.135,-0.515 0.137,-0.518C0.138,-0.521 0.14,-0.523 0.142,-0.525C0.153,-0.538 0.164,-0.551 0.175,-0.564C0.186,-0.576 0.199,-0.587 0.212,-0.598C0.214,-0.6 0.216,-0.602 0.219,-0.604C0.221,-0.605 0.223,-0.607 0.225,-0.61C0.251,-0.635 0.279,-0.656 0.31,-0.673C0.341,-0.69 0.373,-0.703 0.408,-0.713C0.417,-0.716 0.425,-0.718 0.433,-0.72C0.442,-0.723 0.452,-0.725 0.464,-0.726L0.473,-0.726C0.476,-0.726 0.479,-0.727 0.482,-0.728C0.491,-0.73 0.5,-0.731 0.509,-0.73C0.518,-0.729 0.527,-0.729 0.536,-0.73L0.54,-0.73C0.563,-0.725 0.583,-0.719 0.602,-0.711L0.617,-0.703C0.629,-0.694 0.638,-0.685 0.644,-0.674C0.645,-0.673 0.646,-0.671 0.647,-0.67C0.647,-0.668 0.647,-0.666 0.648,-0.664C0.649,-0.657 0.65,-0.653 0.65,-0.652ZM0.141,0.112C0.144,0.112 0.147,0.112 0.15,0.112C0.153,0.112 0.157,0.112 0.161,0.111C0.164,0.11 0.168,0.11 0.172,0.109C0.175,0.109 0.179,0.109 0.182,0.109C0.189,0.109 0.196,0.108 0.202,0.106C0.208,0.105 0.214,0.103 0.22,0.1C0.227,0.097 0.234,0.093 0.242,0.09C0.249,0.087 0.256,0.085 0.263,0.082C0.271,0.079 0.279,0.076 0.285,0.073C0.293,0.07 0.3,0.067 0.307,0.064C0.314,0.061 0.321,0.057 0.328,0.053C0.334,0.049 0.34,0.045 0.347,0.04C0.348,0.039 0.349,0.039 0.35,0.039L0.386,0.015C0.391,0.012 0.396,0.008 0.401,0.003C0.406,-0.001 0.414,-0.007 0.423,-0.014C0.447,-0.034 0.468,-0.055 0.487,-0.076C0.494,-0.083 0.5,-0.09 0.506,-0.097C0.512,-0.103 0.518,-0.11 0.524,-0.117C0.53,-0.123 0.536,-0.13 0.541,-0.139C0.546,-0.148 0.552,-0.156 0.558,-0.165C0.563,-0.174 0.569,-0.182 0.575,-0.191C0.58,-0.199 0.585,-0.207 0.588,-0.216C0.591,-0.225 0.594,-0.234 0.596,-0.244L0.597,-0.258C0.598,-0.261 0.598,-0.263 0.598,-0.266C0.597,-0.268 0.597,-0.27 0.597,-0.272C0.596,-0.285 0.591,-0.299 0.581,-0.312L0.567,-0.329C0.564,-0.333 0.56,-0.337 0.554,-0.34C0.544,-0.346 0.534,-0.351 0.524,-0.356C0.513,-0.361 0.502,-0.364 0.491,-0.367C0.477,-0.37 0.463,-0.373 0.449,-0.376C0.435,-0.379 0.421,-0.381 0.406,-0.383C0.403,-0.383 0.401,-0.383 0.398,-0.384C0.395,-0.384 0.391,-0.384 0.388,-0.383C0.379,-0.383 0.371,-0.381 0.364,-0.377C0.361,-0.376 0.358,-0.374 0.355,-0.372C0.352,-0.37 0.349,-0.368 0.346,-0.366C0.33,-0.357 0.313,-0.348 0.294,-0.341C0.289,-0.339 0.284,-0.339 0.279,-0.34C0.277,-0.341 0.276,-0.342 0.276,-0.345C0.275,-0.349 0.275,-0.352 0.278,-0.355C0.28,-0.36 0.283,-0.364 0.286,-0.367C0.301,-0.38 0.315,-0.394 0.327,-0.409C0.33,-0.412 0.334,-0.415 0.341,-0.418C0.347,-0.42 0.353,-0.422 0.359,-0.424C0.364,-0.425 0.37,-0.427 0.375,-0.43C0.389,-0.434 0.4,-0.441 0.407,-0.452C0.414,-0.459 0.42,-0.465 0.426,-0.47C0.442,-0.481 0.457,-0.495 0.472,-0.51C0.479,-0.517 0.486,-0.524 0.493,-0.53C0.5,-0.536 0.506,-0.543 0.513,-0.55C0.519,-0.556 0.525,-0.562 0.531,-0.568C0.537,-0.574 0.542,-0.581 0.546,-0.588C0.548,-0.591 0.55,-0.594 0.553,-0.597C0.555,-0.599 0.557,-0.601 0.56,-0.604C0.565,-0.611 0.571,-0.619 0.577,-0.629C0.583,-0.639 0.587,-0.647 0.589,-0.653C0.59,-0.656 0.591,-0.658 0.592,-0.66C0.592,-0.662 0.592,-0.665 0.593,-0.668C0.594,-0.673 0.592,-0.678 0.589,-0.684C0.586,-0.687 0.584,-0.689 0.582,-0.691C0.58,-0.693 0.578,-0.695 0.575,-0.696C0.572,-0.697 0.57,-0.698 0.568,-0.698C0.561,-0.699 0.554,-0.701 0.547,-0.702C0.54,-0.703 0.532,-0.703 0.525,-0.702C0.509,-0.701 0.493,-0.699 0.477,-0.696C0.461,-0.693 0.445,-0.689 0.43,-0.682C0.429,-0.681 0.427,-0.681 0.425,-0.681C0.423,-0.68 0.421,-0.679 0.42,-0.678C0.411,-0.675 0.402,-0.671 0.394,-0.668C0.385,-0.664 0.377,-0.66 0.368,-0.655C0.366,-0.654 0.364,-0.652 0.362,-0.651C0.359,-0.649 0.357,-0.647 0.356,-0.646C0.355,-0.645 0.353,-0.643 0.352,-0.641C0.35,-0.639 0.349,-0.637 0.35,-0.634C0.352,-0.625 0.351,-0.615 0.348,-0.606C0.343,-0.588 0.337,-0.57 0.33,-0.551C0.32,-0.525 0.31,-0.499 0.301,-0.473C0.292,-0.447 0.282,-0.421 0.273,-0.396C0.27,-0.387 0.267,-0.377 0.266,-0.367C0.266,-0.358 0.263,-0.351 0.257,-0.345C0.252,-0.338 0.247,-0.33 0.244,-0.323C0.241,-0.315 0.237,-0.307 0.234,-0.3C0.229,-0.285 0.223,-0.271 0.218,-0.256C0.212,-0.241 0.206,-0.227 0.2,-0.212C0.196,-0.202 0.193,-0.192 0.191,-0.182C0.19,-0.181 0.191,-0.179 0.193,-0.177C0.194,-0.174 0.196,-0.173 0.197,-0.174C0.206,-0.175 0.216,-0.176 0.226,-0.177C0.235,-0.178 0.245,-0.179 0.254,-0.181C0.26,-0.182 0.266,-0.183 0.272,-0.184C0.278,-0.185 0.284,-0.185 0.29,-0.184C0.292,-0.184 0.294,-0.184 0.296,-0.183C0.297,-0.182 0.299,-0.182 0.301,-0.182C0.302,-0.181 0.303,-0.18 0.304,-0.178C0.304,-0.175 0.303,-0.173 0.302,-0.172C0.3,-0.17 0.298,-0.169 0.297,-0.168C0.292,-0.167 0.286,-0.166 0.281,-0.166C0.276,-0.166 0.27,-0.166 0.265,-0.165C0.258,-0.164 0.25,-0.164 0.243,-0.164C0.236,-0.163 0.228,-0.162 0.221,-0.161C0.206,-0.159 0.194,-0.153 0.183,-0.142L0.176,-0.134C0.167,-0.128 0.161,-0.12 0.158,-0.111C0.157,-0.108 0.155,-0.105 0.153,-0.102C0.151,-0.099 0.149,-0.096 0.148,-0.093C0.141,-0.085 0.134,-0.08 0.127,-0.079C0.113,-0.075 0.102,-0.068 0.095,-0.057C0.092,-0.054 0.09,-0.051 0.087,-0.048C0.084,-0.045 0.081,-0.041 0.078,-0.038C0.071,-0.028 0.064,-0.018 0.058,-0.009C0.054,-0.002 0.051,0.004 0.049,0.011C0.046,0.018 0.044,0.025 0.042,0.032L0.042,0.039C0.042,0.058 0.048,0.073 0.059,0.085C0.065,0.09 0.071,0.095 0.078,0.099C0.084,0.103 0.091,0.106 0.1,0.107C0.107,0.108 0.113,0.109 0.12,0.109C0.127,0.11 0.134,0.111 0.141,0.112Z" style="fill:rgb(71,97,111);fill-rule:nonzero;"/>
        </g>
        <g transform="matrix(306.932,0,0,277.783,47170.8,36247.6)">
            <path d="M-0.024,-0.199C-0.015,-0.221 -0.006,-0.243 0.002,-0.266C0.01,-0.288 0.015,-0.311 0.016,-0.334C0.021,-0.337 0.025,-0.339 0.028,-0.34C0.031,-0.341 0.034,-0.342 0.037,-0.341C0.04,-0.34 0.043,-0.339 0.047,-0.336C0.05,-0.333 0.055,-0.328 0.06,-0.323C0.065,-0.326 0.068,-0.329 0.071,-0.332C0.074,-0.335 0.076,-0.338 0.079,-0.342C0.088,-0.349 0.098,-0.355 0.107,-0.361C0.116,-0.367 0.126,-0.371 0.137,-0.374C0.146,-0.375 0.155,-0.376 0.164,-0.376C0.172,-0.375 0.18,-0.373 0.187,-0.369C0.194,-0.366 0.197,-0.362 0.197,-0.355C0.194,-0.348 0.191,-0.345 0.187,-0.345L0.178,-0.345C0.175,-0.345 0.172,-0.346 0.169,-0.347C0.161,-0.347 0.153,-0.346 0.146,-0.344C0.138,-0.343 0.131,-0.338 0.124,-0.331C0.105,-0.314 0.088,-0.295 0.071,-0.276C0.054,-0.257 0.041,-0.235 0.03,-0.21C0.029,-0.206 0.027,-0.203 0.025,-0.2C0.024,-0.197 0.022,-0.193 0.019,-0.189C0.016,-0.181 0.01,-0.178 0.003,-0.181C-0.002,-0.182 -0.007,-0.184 -0.011,-0.186C-0.016,-0.188 -0.02,-0.192 -0.024,-0.199Z" style="fill:rgb(71,97,111);fill-rule:nonzero;"/>
        </g>
        <g transform="matrix(306.932,0,0,277.783,47220.5,36247.6)">
            <path d="M-0.023,-0.202C-0.022,-0.206 -0.021,-0.209 -0.02,-0.212C-0.019,-0.214 -0.018,-0.216 -0.017,-0.217C-0.012,-0.233 -0.004,-0.249 0.006,-0.264C0.017,-0.279 0.024,-0.291 0.029,-0.301C0.03,-0.304 0.031,-0.306 0.032,-0.309C0.033,-0.312 0.034,-0.315 0.035,-0.318C0.036,-0.321 0.038,-0.325 0.04,-0.328C0.041,-0.331 0.043,-0.334 0.046,-0.336C0.047,-0.339 0.049,-0.341 0.051,-0.342C0.053,-0.343 0.056,-0.343 0.059,-0.344L0.062,-0.344C0.07,-0.345 0.076,-0.341 0.08,-0.332C0.082,-0.33 0.082,-0.327 0.081,-0.322C0.078,-0.317 0.076,-0.313 0.075,-0.312C0.069,-0.303 0.063,-0.294 0.058,-0.287C0.052,-0.28 0.047,-0.271 0.042,-0.261C0.039,-0.256 0.035,-0.249 0.031,-0.241C0.027,-0.233 0.024,-0.226 0.021,-0.221C0.02,-0.22 0.018,-0.216 0.017,-0.211C0.015,-0.206 0.014,-0.202 0.014,-0.2C0.014,-0.199 0.015,-0.198 0.017,-0.197C0.02,-0.196 0.022,-0.196 0.023,-0.196C0.029,-0.197 0.037,-0.199 0.046,-0.202C0.055,-0.205 0.064,-0.209 0.075,-0.214C0.085,-0.218 0.095,-0.223 0.106,-0.229C0.117,-0.234 0.127,-0.24 0.137,-0.246C0.143,-0.249 0.148,-0.251 0.153,-0.254C0.158,-0.257 0.163,-0.258 0.169,-0.259C0.17,-0.258 0.171,-0.257 0.171,-0.254L0.171,-0.251C0.169,-0.248 0.166,-0.245 0.163,-0.243C0.16,-0.24 0.156,-0.238 0.153,-0.235C0.146,-0.229 0.136,-0.222 0.125,-0.214C0.113,-0.206 0.101,-0.198 0.089,-0.191C0.076,-0.183 0.064,-0.176 0.053,-0.17C0.041,-0.163 0.031,-0.159 0.024,-0.156C0.017,-0.153 0.009,-0.152 0.001,-0.154L-0.008,-0.157C-0.017,-0.161 -0.022,-0.168 -0.024,-0.177C-0.025,-0.179 -0.026,-0.18 -0.025,-0.181C-0.024,-0.182 -0.024,-0.183 -0.025,-0.185C-0.025,-0.19 -0.025,-0.194 -0.024,-0.197C-0.024,-0.198 -0.024,-0.2 -0.023,-0.201C-0.022,-0.202 -0.022,-0.203 -0.023,-0.202ZM0.064,-0.375C0.065,-0.376 0.065,-0.378 0.065,-0.38C0.065,-0.381 0.065,-0.383 0.066,-0.384C0.067,-0.389 0.069,-0.394 0.071,-0.398C0.073,-0.402 0.075,-0.406 0.077,-0.41C0.078,-0.411 0.079,-0.412 0.08,-0.413C0.081,-0.414 0.082,-0.415 0.083,-0.416C0.094,-0.419 0.104,-0.417 0.111,-0.41C0.117,-0.404 0.118,-0.399 0.114,-0.394C0.111,-0.387 0.106,-0.379 0.099,-0.372C0.094,-0.366 0.086,-0.362 0.077,-0.361C0.076,-0.361 0.075,-0.361 0.074,-0.362C0.073,-0.362 0.073,-0.362 0.072,-0.362C0.067,-0.363 0.065,-0.366 0.065,-0.369C0.065,-0.371 0.065,-0.373 0.064,-0.375Z" style="fill:rgb(71,97,111);fill-rule:nonzero;"/>
        </g>
        <g transform="matrix(306.932,0,0,277.783,47268.7,36247.6)">
            <path d="M0.084,-0.235C0.079,-0.235 0.073,-0.234 0.067,-0.234C0.061,-0.233 0.056,-0.232 0.052,-0.232C0.047,-0.232 0.042,-0.233 0.037,-0.234C0.032,-0.235 0.027,-0.237 0.022,-0.24C0.007,-0.248 -0.001,-0.259 -0.003,-0.274C-0.005,-0.288 -0.002,-0.303 0.006,-0.318C0.01,-0.325 0.017,-0.331 0.027,-0.338C0.037,-0.344 0.048,-0.349 0.059,-0.354C0.071,-0.359 0.083,-0.362 0.095,-0.365C0.106,-0.367 0.116,-0.368 0.124,-0.367C0.13,-0.367 0.135,-0.364 0.138,-0.358C0.139,-0.354 0.139,-0.351 0.137,-0.348C0.135,-0.346 0.133,-0.345 0.13,-0.345C0.124,-0.344 0.117,-0.343 0.108,-0.34C0.099,-0.337 0.09,-0.333 0.081,-0.329C0.072,-0.324 0.064,-0.319 0.057,-0.314C0.049,-0.309 0.043,-0.303 0.039,-0.298C0.036,-0.293 0.034,-0.288 0.035,-0.282C0.036,-0.276 0.038,-0.272 0.041,-0.27L0.076,-0.27C0.086,-0.27 0.098,-0.267 0.111,-0.262C0.124,-0.257 0.132,-0.25 0.137,-0.241C0.141,-0.232 0.141,-0.222 0.137,-0.211C0.133,-0.199 0.127,-0.187 0.117,-0.173C0.109,-0.161 0.098,-0.148 0.086,-0.135C0.074,-0.122 0.062,-0.111 0.049,-0.102C0.035,-0.092 0.023,-0.084 0.012,-0.078C-0,-0.071 -0.01,-0.068 -0.017,-0.068C-0.024,-0.068 -0.029,-0.069 -0.033,-0.07C-0.037,-0.072 -0.038,-0.074 -0.037,-0.077C-0.022,-0.088 -0.008,-0.097 0.003,-0.103C0.014,-0.111 0.026,-0.12 0.039,-0.133C0.044,-0.138 0.051,-0.147 0.061,-0.158C0.07,-0.169 0.079,-0.181 0.086,-0.192C0.093,-0.203 0.097,-0.213 0.099,-0.222C0.1,-0.231 0.095,-0.235 0.084,-0.235Z" style="fill:rgb(71,97,111);fill-rule:nonzero;"/>
        </g>
        <g transform="matrix(306.932,0,0,277.783,47324.2,36247.6)">
            <path d="M0.079,-0.361C0.078,-0.357 0.076,-0.352 0.075,-0.347C0.074,-0.342 0.071,-0.336 0.068,-0.331C0.064,-0.322 0.06,-0.313 0.056,-0.304C0.051,-0.295 0.047,-0.286 0.043,-0.277C0.04,-0.27 0.038,-0.263 0.035,-0.257C0.033,-0.251 0.031,-0.244 0.03,-0.237C0.029,-0.232 0.028,-0.226 0.028,-0.22C0.027,-0.213 0.027,-0.207 0.027,-0.202C0.028,-0.189 0.032,-0.18 0.038,-0.175C0.043,-0.17 0.053,-0.169 0.066,-0.17C0.086,-0.172 0.105,-0.177 0.122,-0.186C0.127,-0.189 0.132,-0.191 0.137,-0.194C0.142,-0.196 0.147,-0.198 0.152,-0.199C0.153,-0.199 0.155,-0.199 0.157,-0.198C0.158,-0.197 0.16,-0.197 0.163,-0.197C0.156,-0.188 0.149,-0.179 0.143,-0.17C0.137,-0.161 0.129,-0.155 0.12,-0.15C0.099,-0.139 0.077,-0.136 0.054,-0.139C0.035,-0.142 0.019,-0.151 0.007,-0.168C-0.005,-0.184 -0.01,-0.202 -0.009,-0.221C-0.008,-0.23 -0.005,-0.24 -0.002,-0.25C0.001,-0.259 0.004,-0.269 0.007,-0.28C0.014,-0.296 0.022,-0.312 0.029,-0.328C0.036,-0.344 0.045,-0.359 0.054,-0.374C0.059,-0.379 0.062,-0.385 0.065,-0.391C0.068,-0.397 0.071,-0.403 0.074,-0.41C0.077,-0.418 0.077,-0.426 0.074,-0.435C0.07,-0.435 0.066,-0.435 0.063,-0.436C0.06,-0.437 0.056,-0.437 0.051,-0.437C0.035,-0.437 0.019,-0.437 0.002,-0.436C-0.015,-0.435 -0.033,-0.435 -0.05,-0.435C-0.063,-0.435 -0.075,-0.436 -0.086,-0.437C-0.097,-0.438 -0.109,-0.441 -0.121,-0.445C-0.125,-0.446 -0.128,-0.448 -0.131,-0.451C-0.134,-0.454 -0.138,-0.456 -0.142,-0.459C-0.135,-0.463 -0.129,-0.465 -0.122,-0.466C-0.116,-0.467 -0.11,-0.467 -0.105,-0.467L0.098,-0.467C0.109,-0.479 0.117,-0.492 0.122,-0.506C0.127,-0.515 0.133,-0.523 0.138,-0.531C0.143,-0.539 0.148,-0.547 0.152,-0.555C0.153,-0.556 0.154,-0.558 0.155,-0.56C0.156,-0.561 0.157,-0.563 0.158,-0.564C0.162,-0.568 0.167,-0.571 0.172,-0.572C0.177,-0.573 0.183,-0.574 0.188,-0.574C0.195,-0.574 0.2,-0.572 0.202,-0.568C0.204,-0.564 0.207,-0.56 0.21,-0.555C0.199,-0.542 0.188,-0.528 0.178,-0.515C0.167,-0.502 0.158,-0.487 0.149,-0.472C0.17,-0.469 0.191,-0.469 0.21,-0.47C0.229,-0.471 0.249,-0.472 0.268,-0.472C0.286,-0.471 0.304,-0.47 0.323,-0.471C0.342,-0.472 0.36,-0.472 0.377,-0.472C0.396,-0.471 0.415,-0.47 0.434,-0.469C0.453,-0.469 0.473,-0.468 0.492,-0.467C0.461,-0.456 0.426,-0.451 0.387,-0.451L0.278,-0.443C0.258,-0.442 0.238,-0.441 0.217,-0.44C0.196,-0.439 0.176,-0.438 0.155,-0.437L0.144,-0.437C0.136,-0.437 0.129,-0.436 0.124,-0.433C0.119,-0.43 0.115,-0.424 0.112,-0.416C0.109,-0.409 0.105,-0.402 0.1,-0.395C0.095,-0.388 0.091,-0.381 0.087,-0.374L0.085,-0.374L0.079,-0.361Z" style="fill:rgb(71,97,111);fill-rule:nonzero;"/>
        </g>
        <g transform="matrix(306.932,0,0,277.783,47372.4,36247.6)">
            <path d="M0.14,-0.307C0.14,-0.305 0.14,-0.303 0.139,-0.3C0.139,-0.295 0.142,-0.292 0.148,-0.292L0.158,-0.292C0.163,-0.293 0.171,-0.294 0.18,-0.294C0.189,-0.294 0.196,-0.295 0.201,-0.296L0.215,-0.296C0.216,-0.295 0.217,-0.293 0.217,-0.292C0.22,-0.288 0.219,-0.285 0.216,-0.283C0.215,-0.281 0.215,-0.28 0.214,-0.28C0.213,-0.279 0.211,-0.278 0.21,-0.277C0.207,-0.274 0.205,-0.273 0.204,-0.273C0.197,-0.271 0.188,-0.269 0.179,-0.268C0.169,-0.267 0.161,-0.265 0.154,-0.263C0.143,-0.258 0.133,-0.256 0.123,-0.256L0.116,-0.252C0.115,-0.251 0.114,-0.25 0.114,-0.249C0.113,-0.248 0.113,-0.247 0.112,-0.246C0.11,-0.243 0.109,-0.241 0.108,-0.239C0.107,-0.238 0.106,-0.236 0.105,-0.235C0.098,-0.22 0.087,-0.206 0.074,-0.193C0.06,-0.18 0.047,-0.17 0.036,-0.161C0.031,-0.157 0.025,-0.154 0.016,-0.153L0.009,-0.153C0.007,-0.153 0.005,-0.154 0.002,-0.155C-0.006,-0.157 -0.012,-0.16 -0.016,-0.165C-0.02,-0.17 -0.023,-0.176 -0.025,-0.183C-0.026,-0.184 -0.026,-0.185 -0.026,-0.186C-0.027,-0.191 -0.027,-0.196 -0.025,-0.201C-0.024,-0.203 -0.023,-0.205 -0.022,-0.206C-0.021,-0.207 -0.021,-0.209 -0.021,-0.211C-0.018,-0.216 -0.017,-0.22 -0.016,-0.223C-0.013,-0.232 -0.011,-0.24 -0.008,-0.246C-0.006,-0.252 -0.003,-0.26 0.001,-0.269C0.003,-0.274 0.005,-0.278 0.007,-0.283C0.009,-0.288 0.011,-0.292 0.014,-0.297C0.017,-0.302 0.02,-0.306 0.023,-0.31C0.025,-0.314 0.029,-0.318 0.032,-0.322L0.05,-0.352C0.053,-0.356 0.056,-0.358 0.061,-0.359C0.064,-0.362 0.067,-0.363 0.072,-0.363C0.079,-0.364 0.088,-0.366 0.097,-0.367C0.106,-0.368 0.114,-0.366 0.119,-0.361C0.12,-0.36 0.122,-0.359 0.123,-0.359C0.124,-0.358 0.126,-0.357 0.127,-0.356L0.137,-0.338C0.138,-0.335 0.139,-0.332 0.14,-0.329C0.141,-0.326 0.141,-0.322 0.14,-0.318L0.14,-0.307ZM0.082,-0.265C0.082,-0.268 0.082,-0.269 0.081,-0.27C0.078,-0.274 0.075,-0.278 0.073,-0.282C0.071,-0.286 0.069,-0.29 0.067,-0.294C0.066,-0.295 0.065,-0.297 0.062,-0.298C0.061,-0.299 0.06,-0.299 0.057,-0.299C0.056,-0.299 0.054,-0.298 0.052,-0.296C0.049,-0.291 0.045,-0.286 0.042,-0.28C0.035,-0.267 0.029,-0.255 0.025,-0.244C0.021,-0.233 0.017,-0.221 0.013,-0.206L0.013,-0.203C0.012,-0.202 0.012,-0.2 0.013,-0.199C0.013,-0.198 0.014,-0.197 0.015,-0.197C0.017,-0.196 0.019,-0.196 0.02,-0.197C0.034,-0.202 0.046,-0.211 0.056,-0.224C0.066,-0.237 0.074,-0.249 0.081,-0.26C0.082,-0.261 0.082,-0.263 0.082,-0.265ZM0.114,-0.334C0.114,-0.335 0.113,-0.337 0.112,-0.338C0.109,-0.338 0.108,-0.338 0.108,-0.337C0.099,-0.33 0.093,-0.32 0.091,-0.308C0.09,-0.307 0.09,-0.306 0.091,-0.305C0.091,-0.304 0.091,-0.302 0.091,-0.301C0.091,-0.3 0.092,-0.299 0.093,-0.296C0.094,-0.295 0.096,-0.294 0.098,-0.294C0.099,-0.294 0.101,-0.295 0.102,-0.296C0.104,-0.298 0.106,-0.3 0.107,-0.302C0.11,-0.306 0.111,-0.311 0.112,-0.316C0.113,-0.321 0.113,-0.327 0.114,-0.332L0.114,-0.334Z" style="fill:rgb(71,97,111);fill-rule:nonzero;"/>
        </g>
        <g transform="matrix(306.932,0,0,277.783,47427.1,36247.6)">
            <path d="M0.101,-0.191C0.1,-0.19 0.099,-0.189 0.099,-0.188C0.098,-0.187 0.097,-0.187 0.096,-0.186C0.095,-0.185 0.094,-0.183 0.091,-0.18L0.09,-0.18L0.087,-0.177C0.084,-0.173 0.08,-0.169 0.076,-0.165C0.071,-0.161 0.067,-0.157 0.063,-0.154C0.054,-0.145 0.044,-0.14 0.033,-0.138L0.03,-0.138C0.023,-0.137 0.017,-0.137 0.012,-0.14C0.006,-0.143 0,-0.146 -0.005,-0.151C-0.012,-0.158 -0.015,-0.167 -0.013,-0.176L-0.013,-0.178C-0.011,-0.189 -0.009,-0.199 -0.006,-0.209C-0.004,-0.219 -0.002,-0.229 0.001,-0.238L0.022,-0.295C0.024,-0.304 0.027,-0.313 0.032,-0.322C0.043,-0.347 0.053,-0.371 0.064,-0.395C0.075,-0.419 0.086,-0.443 0.097,-0.466L0.099,-0.473C0.102,-0.482 0.105,-0.489 0.108,-0.496C0.111,-0.503 0.116,-0.51 0.121,-0.517C0.122,-0.518 0.123,-0.52 0.124,-0.523C0.124,-0.525 0.125,-0.528 0.126,-0.531L0.165,-0.632C0.166,-0.637 0.168,-0.641 0.17,-0.646C0.172,-0.65 0.174,-0.654 0.176,-0.659C0.178,-0.662 0.179,-0.666 0.18,-0.67C0.18,-0.673 0.181,-0.677 0.182,-0.68C0.184,-0.686 0.187,-0.689 0.192,-0.69C0.195,-0.691 0.197,-0.692 0.199,-0.692C0.201,-0.692 0.203,-0.692 0.204,-0.693C0.207,-0.692 0.209,-0.692 0.21,-0.691C0.213,-0.69 0.215,-0.688 0.217,-0.687C0.22,-0.683 0.221,-0.679 0.22,-0.674L0.22,-0.664C0.219,-0.661 0.218,-0.659 0.218,-0.657C0.217,-0.654 0.216,-0.652 0.215,-0.651C0.211,-0.642 0.207,-0.632 0.203,-0.624C0.2,-0.615 0.196,-0.606 0.191,-0.597C0.181,-0.576 0.172,-0.556 0.163,-0.536C0.154,-0.516 0.145,-0.496 0.137,-0.475C0.133,-0.465 0.129,-0.455 0.126,-0.445C0.122,-0.435 0.118,-0.425 0.113,-0.415L0.083,-0.351C0.081,-0.345 0.079,-0.339 0.077,-0.334C0.074,-0.328 0.072,-0.322 0.069,-0.317C0.068,-0.314 0.066,-0.31 0.065,-0.306C0.063,-0.301 0.061,-0.297 0.059,-0.293C0.047,-0.264 0.037,-0.234 0.028,-0.203L0.027,-0.189L0.027,-0.185C0.027,-0.18 0.029,-0.178 0.034,-0.179C0.036,-0.18 0.038,-0.181 0.04,-0.182C0.041,-0.183 0.043,-0.184 0.045,-0.185C0.049,-0.189 0.053,-0.192 0.058,-0.195C0.063,-0.197 0.067,-0.2 0.072,-0.204L0.076,-0.208L0.077,-0.208L0.088,-0.218L0.088,-0.217C0.093,-0.221 0.097,-0.225 0.101,-0.23C0.102,-0.232 0.104,-0.234 0.106,-0.235C0.107,-0.236 0.109,-0.238 0.11,-0.239L0.143,-0.265C0.147,-0.268 0.151,-0.271 0.155,-0.274C0.158,-0.277 0.162,-0.28 0.167,-0.283L0.169,-0.283C0.17,-0.282 0.17,-0.28 0.17,-0.278C0.169,-0.275 0.167,-0.272 0.166,-0.269C0.164,-0.266 0.161,-0.263 0.158,-0.261L0.15,-0.253C0.147,-0.25 0.144,-0.246 0.142,-0.243C0.14,-0.239 0.137,-0.235 0.134,-0.232C0.131,-0.229 0.128,-0.227 0.126,-0.224C0.123,-0.221 0.121,-0.217 0.118,-0.214L0.105,-0.197C0.104,-0.196 0.103,-0.195 0.102,-0.194C0.102,-0.193 0.101,-0.193 0.1,-0.192L0.101,-0.191Z" style="fill:rgb(71,97,111);fill-rule:nonzero;"/>
        </g>
        <g transform="matrix(306.932,0,0,277.783,47532,36247.6)">
            <path d="M0.684,0.065C0.669,0.079 0.656,0.093 0.643,0.106C0.629,0.119 0.616,0.13 0.603,0.138C0.589,0.147 0.574,0.152 0.558,0.153C0.542,0.154 0.524,0.15 0.503,0.139C0.491,0.134 0.481,0.127 0.471,0.119C0.463,0.112 0.456,0.101 0.453,0.087C0.448,0.079 0.446,0.072 0.446,0.065C0.441,0.022 0.438,-0.021 0.439,-0.064C0.439,-0.107 0.444,-0.151 0.453,-0.197C0.458,-0.225 0.464,-0.253 0.47,-0.28C0.476,-0.307 0.483,-0.333 0.49,-0.36C0.494,-0.375 0.499,-0.391 0.503,-0.406C0.508,-0.421 0.513,-0.436 0.516,-0.449C0.517,-0.453 0.519,-0.459 0.522,-0.467C0.525,-0.475 0.529,-0.484 0.532,-0.493C0.535,-0.502 0.538,-0.512 0.541,-0.521C0.544,-0.53 0.545,-0.539 0.545,-0.547L0.524,-0.517C0.519,-0.511 0.515,-0.505 0.512,-0.5C0.509,-0.496 0.507,-0.492 0.506,-0.49C0.476,-0.454 0.447,-0.418 0.418,-0.383C0.389,-0.347 0.361,-0.311 0.333,-0.276C0.328,-0.269 0.322,-0.263 0.317,-0.256C0.312,-0.249 0.306,-0.244 0.3,-0.239C0.293,-0.233 0.284,-0.229 0.275,-0.228C0.266,-0.226 0.257,-0.226 0.248,-0.229C0.239,-0.232 0.231,-0.236 0.224,-0.243C0.217,-0.249 0.211,-0.257 0.208,-0.267C0.206,-0.27 0.205,-0.274 0.204,-0.277C0.204,-0.28 0.204,-0.284 0.204,-0.287C0.204,-0.297 0.205,-0.308 0.206,-0.32C0.207,-0.332 0.209,-0.344 0.21,-0.355C0.21,-0.361 0.21,-0.368 0.211,-0.376C0.211,-0.383 0.211,-0.391 0.212,-0.399C0.213,-0.407 0.213,-0.415 0.214,-0.422C0.215,-0.429 0.216,-0.436 0.217,-0.441C0.218,-0.444 0.217,-0.444 0.215,-0.442C0.213,-0.44 0.211,-0.437 0.207,-0.433C0.204,-0.429 0.202,-0.425 0.199,-0.421C0.196,-0.417 0.193,-0.414 0.192,-0.413C0.183,-0.396 0.174,-0.38 0.165,-0.365C0.155,-0.35 0.145,-0.335 0.136,-0.319C0.117,-0.29 0.098,-0.264 0.081,-0.242C0.063,-0.22 0.046,-0.194 0.029,-0.165C0.026,-0.16 0.022,-0.154 0.017,-0.147C0.012,-0.14 0.008,-0.133 0.003,-0.126C-0.002,-0.118 -0.008,-0.112 -0.013,-0.106C-0.019,-0.1 -0.025,-0.096 -0.03,-0.093C-0.036,-0.09 -0.041,-0.088 -0.045,-0.086C-0.049,-0.085 -0.052,-0.084 -0.055,-0.085C-0.058,-0.085 -0.062,-0.086 -0.065,-0.089C-0.068,-0.092 -0.073,-0.096 -0.078,-0.101C-0.078,-0.106 -0.076,-0.11 -0.073,-0.111C-0.07,-0.112 -0.067,-0.113 -0.066,-0.114C-0.059,-0.124 -0.051,-0.134 -0.044,-0.143C-0.037,-0.153 -0.029,-0.164 -0.022,-0.177C0.001,-0.213 0.023,-0.249 0.044,-0.285C0.065,-0.322 0.087,-0.358 0.11,-0.394C0.138,-0.441 0.166,-0.487 0.194,-0.532C0.222,-0.577 0.25,-0.623 0.278,-0.67C0.28,-0.675 0.282,-0.678 0.284,-0.68C0.286,-0.682 0.288,-0.685 0.289,-0.688C0.3,-0.689 0.309,-0.686 0.314,-0.677C0.319,-0.668 0.323,-0.661 0.328,-0.654C0.327,-0.645 0.326,-0.636 0.324,-0.629C0.322,-0.623 0.319,-0.615 0.316,-0.608C0.308,-0.598 0.302,-0.586 0.298,-0.573C0.293,-0.56 0.289,-0.546 0.286,-0.533C0.281,-0.514 0.276,-0.493 0.27,-0.47C0.264,-0.448 0.259,-0.426 0.254,-0.403C0.249,-0.38 0.246,-0.357 0.245,-0.335C0.243,-0.312 0.244,-0.291 0.248,-0.272C0.253,-0.271 0.26,-0.275 0.269,-0.283C0.278,-0.291 0.288,-0.301 0.298,-0.312C0.308,-0.323 0.317,-0.334 0.326,-0.345C0.335,-0.357 0.341,-0.366 0.346,-0.373C0.348,-0.375 0.35,-0.378 0.354,-0.381C0.357,-0.384 0.359,-0.387 0.361,-0.39C0.377,-0.404 0.392,-0.42 0.406,-0.438C0.419,-0.455 0.433,-0.473 0.446,-0.493C0.459,-0.511 0.471,-0.53 0.484,-0.549C0.497,-0.567 0.51,-0.583 0.524,-0.598C0.544,-0.623 0.562,-0.65 0.577,-0.679C0.584,-0.688 0.592,-0.693 0.601,-0.694C0.61,-0.695 0.619,-0.696 0.628,-0.698C0.638,-0.698 0.645,-0.696 0.65,-0.693C0.655,-0.689 0.659,-0.683 0.662,-0.675C0.655,-0.654 0.647,-0.632 0.638,-0.611C0.629,-0.589 0.621,-0.567 0.614,-0.546C0.601,-0.513 0.588,-0.481 0.576,-0.45C0.564,-0.419 0.553,-0.387 0.543,-0.356C0.532,-0.325 0.523,-0.293 0.515,-0.26C0.506,-0.227 0.499,-0.193 0.494,-0.157C0.492,-0.145 0.49,-0.132 0.488,-0.117C0.486,-0.103 0.484,-0.088 0.483,-0.073C0.482,-0.058 0.481,-0.043 0.48,-0.028C0.479,-0.013 0.48,0 0.481,0.013C0.481,0.028 0.483,0.042 0.486,0.055C0.489,0.068 0.493,0.082 0.497,0.095C0.502,0.103 0.509,0.109 0.517,0.114C0.524,0.119 0.533,0.121 0.542,0.12C0.558,0.115 0.574,0.106 0.591,0.094C0.607,0.082 0.623,0.071 0.638,0.06C0.652,0.049 0.665,0.037 0.678,0.025C0.691,0.014 0.704,0.002 0.717,-0.01L0.762,-0.052C0.765,-0.047 0.764,-0.039 0.758,-0.029C0.753,-0.019 0.745,-0.008 0.736,0.003C0.727,0.015 0.717,0.027 0.707,0.038C0.697,0.049 0.689,0.058 0.684,0.065Z" style="fill:rgb(71,97,111);fill-rule:nonzero;"/>
        </g>
        <g transform="matrix(306.932,0,0,277.783,47723.5,36247.6)">
            <path d="M0.148,-0.167C0.139,-0.167 0.131,-0.168 0.123,-0.171L0.115,-0.176C0.109,-0.183 0.106,-0.19 0.107,-0.197C0.108,-0.201 0.109,-0.205 0.11,-0.208C0.111,-0.211 0.112,-0.214 0.111,-0.217C0.111,-0.22 0.11,-0.221 0.107,-0.221C0.106,-0.22 0.106,-0.22 0.105,-0.22C0.104,-0.22 0.104,-0.22 0.103,-0.219C0.098,-0.212 0.094,-0.207 0.089,-0.204C0.086,-0.201 0.083,-0.199 0.08,-0.197C0.077,-0.195 0.074,-0.193 0.071,-0.191C0.068,-0.188 0.065,-0.186 0.062,-0.183C0.059,-0.18 0.055,-0.177 0.051,-0.175C0.036,-0.164 0.019,-0.159 -0.001,-0.161C-0.006,-0.161 -0.012,-0.164 -0.019,-0.169C-0.022,-0.173 -0.024,-0.176 -0.026,-0.178C-0.031,-0.184 -0.031,-0.19 -0.027,-0.195C-0.025,-0.2 -0.023,-0.204 -0.021,-0.209C-0.02,-0.214 -0.019,-0.219 -0.019,-0.224C-0.017,-0.231 -0.015,-0.235 -0.013,-0.236C-0.01,-0.241 -0.006,-0.246 -0.003,-0.25C0,-0.254 0.004,-0.258 0.009,-0.262L0.029,-0.283C0.031,-0.286 0.033,-0.288 0.036,-0.29C0.039,-0.292 0.041,-0.295 0.044,-0.298C0.047,-0.301 0.05,-0.303 0.053,-0.306C0.055,-0.309 0.057,-0.311 0.06,-0.314C0.07,-0.325 0.081,-0.332 0.092,-0.336L0.119,-0.348C0.121,-0.349 0.123,-0.35 0.126,-0.35C0.129,-0.351 0.131,-0.351 0.134,-0.352C0.138,-0.354 0.142,-0.354 0.147,-0.352L0.149,-0.352C0.153,-0.35 0.158,-0.349 0.163,-0.348C0.168,-0.347 0.172,-0.347 0.177,-0.346C0.184,-0.345 0.188,-0.342 0.191,-0.339C0.193,-0.335 0.193,-0.331 0.192,-0.326C0.192,-0.317 0.19,-0.307 0.185,-0.298C0.183,-0.293 0.181,-0.287 0.178,-0.282C0.175,-0.277 0.173,-0.271 0.172,-0.266L0.164,-0.247C0.162,-0.242 0.16,-0.236 0.158,-0.231C0.156,-0.226 0.154,-0.221 0.153,-0.216L0.153,-0.209C0.153,-0.208 0.154,-0.207 0.155,-0.206C0.156,-0.205 0.158,-0.205 0.159,-0.205C0.162,-0.205 0.165,-0.205 0.167,-0.206C0.172,-0.208 0.178,-0.21 0.184,-0.213C0.189,-0.216 0.195,-0.218 0.2,-0.221L0.25,-0.254C0.261,-0.26 0.273,-0.265 0.284,-0.269C0.286,-0.27 0.288,-0.27 0.291,-0.27C0.292,-0.27 0.294,-0.269 0.295,-0.268C0.296,-0.267 0.297,-0.265 0.297,-0.264L0.291,-0.255C0.287,-0.251 0.283,-0.247 0.279,-0.243C0.275,-0.239 0.271,-0.235 0.267,-0.232C0.258,-0.226 0.249,-0.22 0.241,-0.213C0.233,-0.206 0.225,-0.2 0.216,-0.194C0.211,-0.191 0.206,-0.188 0.201,-0.185C0.196,-0.182 0.19,-0.178 0.185,-0.175C0.175,-0.17 0.163,-0.167 0.148,-0.167ZM0.147,-0.322C0.147,-0.326 0.145,-0.328 0.142,-0.328C0.139,-0.327 0.137,-0.326 0.135,-0.326C0.133,-0.326 0.131,-0.325 0.129,-0.324C0.124,-0.323 0.119,-0.321 0.115,-0.319C0.111,-0.316 0.107,-0.313 0.103,-0.31C0.098,-0.306 0.092,-0.301 0.087,-0.296C0.082,-0.291 0.076,-0.285 0.071,-0.28C0.063,-0.271 0.055,-0.261 0.048,-0.251C0.041,-0.24 0.033,-0.23 0.026,-0.22L0.026,-0.216C0.025,-0.215 0.025,-0.214 0.025,-0.214C0.026,-0.213 0.026,-0.213 0.026,-0.212L0.033,-0.212C0.035,-0.214 0.037,-0.216 0.039,-0.217C0.041,-0.218 0.043,-0.219 0.045,-0.221C0.054,-0.228 0.062,-0.236 0.071,-0.244C0.08,-0.251 0.088,-0.259 0.096,-0.266C0.103,-0.273 0.111,-0.279 0.117,-0.285C0.125,-0.292 0.131,-0.298 0.138,-0.305C0.14,-0.307 0.142,-0.309 0.143,-0.311C0.144,-0.312 0.146,-0.315 0.147,-0.318C0.148,-0.319 0.148,-0.32 0.148,-0.321C0.147,-0.321 0.147,-0.321 0.147,-0.322Z" style="fill:rgb(71,97,111);fill-rule:nonzero;"/>
        </g>
        <g transform="matrix(306.932,0,0,277.783,47807.3,36247.6)">
            <path d="M-0.024,-0.199C-0.015,-0.221 -0.006,-0.243 0.002,-0.266C0.01,-0.288 0.015,-0.311 0.016,-0.334C0.021,-0.337 0.025,-0.339 0.028,-0.34C0.031,-0.341 0.034,-0.342 0.037,-0.341C0.04,-0.34 0.043,-0.339 0.047,-0.336C0.05,-0.333 0.055,-0.328 0.06,-0.323C0.065,-0.326 0.068,-0.329 0.071,-0.332C0.074,-0.335 0.076,-0.338 0.079,-0.342C0.088,-0.349 0.098,-0.355 0.107,-0.361C0.116,-0.367 0.126,-0.371 0.137,-0.374C0.146,-0.375 0.155,-0.376 0.164,-0.376C0.172,-0.375 0.18,-0.373 0.187,-0.369C0.194,-0.366 0.197,-0.362 0.197,-0.355C0.194,-0.348 0.191,-0.345 0.187,-0.345L0.178,-0.345C0.175,-0.345 0.172,-0.346 0.169,-0.347C0.161,-0.347 0.153,-0.346 0.146,-0.344C0.138,-0.343 0.131,-0.338 0.124,-0.331C0.105,-0.314 0.088,-0.295 0.071,-0.276C0.054,-0.257 0.041,-0.235 0.03,-0.21C0.029,-0.206 0.027,-0.203 0.025,-0.2C0.024,-0.197 0.022,-0.193 0.019,-0.189C0.016,-0.181 0.01,-0.178 0.003,-0.181C-0.002,-0.182 -0.007,-0.184 -0.011,-0.186C-0.016,-0.188 -0.02,-0.192 -0.024,-0.199Z" style="fill:rgb(71,97,111);fill-rule:nonzero;"/>
        </g>
        <g transform="matrix(306.932,0,0,277.783,47864.4,36247.6)">
            <path d="M0.231,-0.232C0.238,-0.23 0.239,-0.225 0.233,-0.216C0.226,-0.207 0.218,-0.198 0.209,-0.188C0.2,-0.179 0.19,-0.169 0.179,-0.16C0.168,-0.15 0.156,-0.143 0.143,-0.138C0.134,-0.135 0.126,-0.134 0.118,-0.133C0.11,-0.132 0.102,-0.134 0.093,-0.137C0.088,-0.138 0.084,-0.139 0.081,-0.141C0.068,-0.149 0.058,-0.158 0.053,-0.168C0.047,-0.178 0.042,-0.192 0.037,-0.211C0.036,-0.217 0.033,-0.221 0.03,-0.224C0.027,-0.226 0.022,-0.222 0.016,-0.213C0.014,-0.211 0.013,-0.21 0.013,-0.21C0.008,-0.199 0.002,-0.188 -0.004,-0.177C-0.011,-0.165 -0.017,-0.154 -0.022,-0.143C-0.025,-0.138 -0.028,-0.132 -0.031,-0.126C-0.034,-0.12 -0.04,-0.116 -0.047,-0.115C-0.048,-0.115 -0.05,-0.115 -0.051,-0.114C-0.052,-0.113 -0.054,-0.112 -0.055,-0.113C-0.058,-0.114 -0.059,-0.117 -0.058,-0.121C-0.058,-0.123 -0.058,-0.125 -0.057,-0.127C-0.054,-0.13 -0.052,-0.134 -0.052,-0.138C-0.051,-0.145 -0.05,-0.152 -0.048,-0.158C-0.046,-0.164 -0.043,-0.17 -0.04,-0.175L-0.029,-0.196C-0.026,-0.201 -0.023,-0.207 -0.02,-0.213C-0.018,-0.218 -0.016,-0.224 -0.014,-0.23C-0.013,-0.232 -0.012,-0.234 -0.012,-0.236C-0.012,-0.239 -0.011,-0.242 -0.01,-0.245C-0.008,-0.252 -0.006,-0.257 -0.005,-0.26C-0.004,-0.263 0,-0.268 0.006,-0.276C0.007,-0.278 0.008,-0.28 0.009,-0.282C0.01,-0.284 0.011,-0.286 0.012,-0.287C0.021,-0.314 0.032,-0.342 0.045,-0.37C0.057,-0.397 0.07,-0.425 0.083,-0.453C0.096,-0.481 0.109,-0.509 0.122,-0.538C0.134,-0.566 0.145,-0.594 0.154,-0.623C0.156,-0.63 0.158,-0.637 0.16,-0.644C0.162,-0.651 0.165,-0.657 0.168,-0.664C0.17,-0.668 0.173,-0.671 0.177,-0.672C0.181,-0.673 0.185,-0.672 0.189,-0.671C0.193,-0.67 0.197,-0.667 0.2,-0.664C0.203,-0.66 0.204,-0.655 0.204,-0.649C0.204,-0.647 0.203,-0.645 0.203,-0.643C0.202,-0.641 0.201,-0.639 0.2,-0.637C0.196,-0.626 0.192,-0.617 0.188,-0.608C0.184,-0.599 0.18,-0.59 0.175,-0.58C0.17,-0.568 0.165,-0.556 0.16,-0.544C0.154,-0.532 0.148,-0.52 0.143,-0.509C0.135,-0.489 0.126,-0.469 0.116,-0.448C0.105,-0.427 0.095,-0.406 0.086,-0.386C0.082,-0.378 0.078,-0.37 0.075,-0.362C0.072,-0.353 0.068,-0.345 0.065,-0.336C0.064,-0.334 0.064,-0.332 0.064,-0.33C0.064,-0.327 0.064,-0.325 0.063,-0.324C0.062,-0.322 0.063,-0.32 0.065,-0.319C0.067,-0.317 0.069,-0.316 0.07,-0.316L0.076,-0.316C0.083,-0.316 0.092,-0.318 0.101,-0.321C0.11,-0.324 0.119,-0.326 0.126,-0.327C0.131,-0.328 0.137,-0.327 0.143,-0.326C0.15,-0.324 0.155,-0.321 0.16,-0.318C0.163,-0.316 0.165,-0.313 0.166,-0.309C0.167,-0.305 0.168,-0.301 0.169,-0.298C0.17,-0.291 0.167,-0.284 0.16,-0.279C0.153,-0.273 0.144,-0.268 0.134,-0.264C0.123,-0.259 0.113,-0.255 0.103,-0.252C0.093,-0.249 0.086,-0.246 0.082,-0.243L0.078,-0.239C0.078,-0.23 0.079,-0.219 0.081,-0.206C0.082,-0.194 0.086,-0.183 0.091,-0.174C0.094,-0.167 0.098,-0.164 0.104,-0.164C0.114,-0.164 0.124,-0.166 0.133,-0.17C0.142,-0.173 0.152,-0.178 0.161,-0.184C0.17,-0.189 0.178,-0.195 0.187,-0.202C0.196,-0.208 0.204,-0.214 0.213,-0.219C0.216,-0.22 0.219,-0.223 0.222,-0.226C0.225,-0.229 0.228,-0.231 0.231,-0.232ZM0.126,-0.296C0.123,-0.297 0.12,-0.297 0.116,-0.296C0.111,-0.295 0.107,-0.293 0.102,-0.291C0.097,-0.288 0.091,-0.285 0.085,-0.281C0.098,-0.28 0.11,-0.282 0.119,-0.285C0.128,-0.289 0.131,-0.293 0.126,-0.296Z" style="fill:rgb(71,97,111);fill-rule:nonzero;"/>
        </g>
        <g transform="matrix(306.932,0,0,277.783,47933.8,36247.6)">
            <path d="M0.027,-0.142C0.02,-0.142 0.014,-0.143 0.009,-0.145C0.008,-0.146 0.006,-0.146 0.005,-0.147C0.004,-0.148 0.002,-0.148 -0.001,-0.149C-0.002,-0.15 -0.003,-0.15 -0.004,-0.151C-0.005,-0.152 -0.006,-0.152 -0.007,-0.153C-0.01,-0.156 -0.013,-0.159 -0.016,-0.162C-0.019,-0.165 -0.022,-0.168 -0.024,-0.172C-0.027,-0.177 -0.027,-0.184 -0.024,-0.191C-0.023,-0.196 -0.021,-0.202 -0.019,-0.207L-0.01,-0.231C-0.009,-0.234 -0.008,-0.236 -0.007,-0.238C-0.004,-0.244 -0.001,-0.251 0.001,-0.26C0.002,-0.267 0.005,-0.273 0.009,-0.276C0.012,-0.285 0.019,-0.293 0.028,-0.301C0.032,-0.305 0.036,-0.309 0.04,-0.313C0.043,-0.317 0.047,-0.321 0.051,-0.324C0.054,-0.325 0.056,-0.327 0.058,-0.328C0.062,-0.329 0.066,-0.331 0.07,-0.332C0.073,-0.333 0.078,-0.334 0.083,-0.335C0.084,-0.336 0.086,-0.336 0.087,-0.336L0.092,-0.336C0.098,-0.335 0.102,-0.333 0.103,-0.331C0.108,-0.326 0.113,-0.322 0.117,-0.317C0.12,-0.313 0.122,-0.308 0.124,-0.303C0.126,-0.298 0.125,-0.292 0.122,-0.287C0.118,-0.282 0.113,-0.277 0.108,-0.272C0.103,-0.267 0.097,-0.262 0.092,-0.257C0.085,-0.252 0.079,-0.246 0.072,-0.241C0.065,-0.235 0.058,-0.229 0.051,-0.224C0.046,-0.221 0.041,-0.219 0.035,-0.22C0.032,-0.22 0.03,-0.22 0.029,-0.219C0.025,-0.217 0.022,-0.215 0.021,-0.213C0.018,-0.208 0.017,-0.204 0.017,-0.201C0.014,-0.194 0.013,-0.185 0.014,-0.176C0.015,-0.175 0.016,-0.173 0.017,-0.172C0.018,-0.172 0.019,-0.17 0.021,-0.169C0.026,-0.168 0.031,-0.167 0.034,-0.168C0.043,-0.169 0.051,-0.172 0.058,-0.175C0.067,-0.178 0.076,-0.182 0.084,-0.186C0.091,-0.19 0.099,-0.194 0.107,-0.199L0.158,-0.23C0.162,-0.231 0.165,-0.232 0.167,-0.232C0.169,-0.233 0.171,-0.233 0.173,-0.232C0.176,-0.23 0.177,-0.228 0.176,-0.227C0.174,-0.218 0.169,-0.209 0.161,-0.202C0.154,-0.198 0.147,-0.193 0.14,-0.188C0.133,-0.183 0.126,-0.177 0.12,-0.172C0.115,-0.169 0.109,-0.165 0.103,-0.162C0.098,-0.158 0.092,-0.155 0.085,-0.153C0.08,-0.151 0.076,-0.149 0.07,-0.148C0.066,-0.146 0.06,-0.145 0.055,-0.145C0.05,-0.144 0.046,-0.143 0.041,-0.142C0.036,-0.141 0.032,-0.141 0.027,-0.142ZM0.09,-0.296C0.089,-0.297 0.088,-0.299 0.088,-0.3C0.088,-0.301 0.088,-0.301 0.087,-0.301L0.081,-0.301C0.08,-0.3 0.079,-0.298 0.077,-0.296C0.07,-0.289 0.064,-0.282 0.058,-0.275C0.051,-0.268 0.046,-0.26 0.042,-0.251C0.042,-0.248 0.042,-0.247 0.043,-0.247L0.046,-0.247L0.066,-0.266C0.071,-0.269 0.076,-0.273 0.079,-0.278C0.082,-0.283 0.085,-0.287 0.088,-0.292C0.089,-0.293 0.09,-0.295 0.09,-0.296Z" style="fill:rgb(71,97,111);fill-rule:nonzero;"/>
        </g>
        <g transform="matrix(306.932,0,0,277.783,47985.1,36247.6)">
            <path d="M0.079,-0.361C0.078,-0.357 0.076,-0.352 0.075,-0.347C0.074,-0.342 0.071,-0.336 0.068,-0.331C0.064,-0.322 0.06,-0.313 0.056,-0.304C0.051,-0.295 0.047,-0.286 0.043,-0.277C0.04,-0.27 0.038,-0.263 0.035,-0.257C0.033,-0.251 0.031,-0.244 0.03,-0.237C0.029,-0.232 0.028,-0.226 0.028,-0.22C0.027,-0.213 0.027,-0.207 0.027,-0.202C0.028,-0.189 0.032,-0.18 0.038,-0.175C0.043,-0.17 0.053,-0.169 0.066,-0.17C0.086,-0.172 0.105,-0.177 0.122,-0.186C0.127,-0.189 0.132,-0.191 0.137,-0.194C0.142,-0.196 0.147,-0.198 0.152,-0.199C0.153,-0.199 0.155,-0.199 0.157,-0.198C0.158,-0.197 0.16,-0.197 0.163,-0.197C0.156,-0.188 0.149,-0.179 0.143,-0.17C0.137,-0.161 0.129,-0.155 0.12,-0.15C0.099,-0.139 0.077,-0.136 0.054,-0.139C0.035,-0.142 0.019,-0.151 0.007,-0.168C-0.005,-0.184 -0.01,-0.202 -0.009,-0.221C-0.008,-0.23 -0.005,-0.24 -0.002,-0.25C0.001,-0.259 0.004,-0.269 0.007,-0.28C0.014,-0.296 0.022,-0.312 0.029,-0.328C0.036,-0.344 0.045,-0.359 0.054,-0.374C0.059,-0.379 0.062,-0.385 0.065,-0.391C0.068,-0.397 0.071,-0.403 0.074,-0.41C0.077,-0.418 0.077,-0.426 0.074,-0.435C0.07,-0.435 0.066,-0.435 0.063,-0.436C0.06,-0.437 0.056,-0.437 0.051,-0.437C0.035,-0.437 0.019,-0.437 0.002,-0.436C-0.015,-0.435 -0.033,-0.435 -0.05,-0.435C-0.063,-0.435 -0.075,-0.436 -0.086,-0.437C-0.097,-0.438 -0.109,-0.441 -0.121,-0.445C-0.125,-0.446 -0.128,-0.448 -0.131,-0.451C-0.134,-0.454 -0.138,-0.456 -0.142,-0.459C-0.135,-0.463 -0.129,-0.465 -0.122,-0.466C-0.116,-0.467 -0.11,-0.467 -0.105,-0.467L0.098,-0.467C0.109,-0.479 0.117,-0.492 0.122,-0.506C0.127,-0.515 0.133,-0.523 0.138,-0.531C0.143,-0.539 0.148,-0.547 0.152,-0.555C0.153,-0.556 0.154,-0.558 0.155,-0.56C0.156,-0.561 0.157,-0.563 0.158,-0.564C0.162,-0.568 0.167,-0.571 0.172,-0.572C0.177,-0.573 0.183,-0.574 0.188,-0.574C0.195,-0.574 0.2,-0.572 0.202,-0.568C0.204,-0.564 0.207,-0.56 0.21,-0.555C0.199,-0.542 0.188,-0.528 0.178,-0.515C0.167,-0.502 0.158,-0.487 0.149,-0.472C0.17,-0.469 0.191,-0.469 0.21,-0.47C0.229,-0.471 0.249,-0.472 0.268,-0.472C0.286,-0.471 0.304,-0.47 0.323,-0.471C0.342,-0.472 0.36,-0.472 0.377,-0.472C0.396,-0.471 0.415,-0.47 0.434,-0.469C0.453,-0.469 0.473,-0.468 0.492,-0.467C0.461,-0.456 0.426,-0.451 0.387,-0.451L0.278,-0.443C0.258,-0.442 0.238,-0.441 0.217,-0.44C0.196,-0.439 0.176,-0.438 0.155,-0.437L0.144,-0.437C0.136,-0.437 0.129,-0.436 0.124,-0.433C0.119,-0.43 0.115,-0.424 0.112,-0.416C0.109,-0.409 0.105,-0.402 0.1,-0.395C0.095,-0.388 0.091,-0.381 0.087,-0.374L0.085,-0.374L0.079,-0.361Z" style="fill:rgb(71,97,111);fill-rule:nonzero;"/>
        </g>
        <g transform="matrix(306.932,0,0,277.783,48033.2,36247.6)">
            <path d="M-0.023,-0.202C-0.022,-0.206 -0.021,-0.209 -0.02,-0.212C-0.019,-0.214 -0.018,-0.216 -0.017,-0.217C-0.012,-0.233 -0.004,-0.249 0.006,-0.264C0.017,-0.279 0.024,-0.291 0.029,-0.301C0.03,-0.304 0.031,-0.306 0.032,-0.309C0.033,-0.312 0.034,-0.315 0.035,-0.318C0.036,-0.321 0.038,-0.325 0.04,-0.328C0.041,-0.331 0.043,-0.334 0.046,-0.336C0.047,-0.339 0.049,-0.341 0.051,-0.342C0.053,-0.343 0.056,-0.343 0.059,-0.344L0.062,-0.344C0.07,-0.345 0.076,-0.341 0.08,-0.332C0.082,-0.33 0.082,-0.327 0.081,-0.322C0.078,-0.317 0.076,-0.313 0.075,-0.312C0.069,-0.303 0.063,-0.294 0.058,-0.287C0.052,-0.28 0.047,-0.271 0.042,-0.261C0.039,-0.256 0.035,-0.249 0.031,-0.241C0.027,-0.233 0.024,-0.226 0.021,-0.221C0.02,-0.22 0.018,-0.216 0.017,-0.211C0.015,-0.206 0.014,-0.202 0.014,-0.2C0.014,-0.199 0.015,-0.198 0.017,-0.197C0.02,-0.196 0.022,-0.196 0.023,-0.196C0.029,-0.197 0.037,-0.199 0.046,-0.202C0.055,-0.205 0.064,-0.209 0.075,-0.214C0.085,-0.218 0.095,-0.223 0.106,-0.229C0.117,-0.234 0.127,-0.24 0.137,-0.246C0.143,-0.249 0.148,-0.251 0.153,-0.254C0.158,-0.257 0.163,-0.258 0.169,-0.259C0.17,-0.258 0.171,-0.257 0.171,-0.254L0.171,-0.251C0.169,-0.248 0.166,-0.245 0.163,-0.243C0.16,-0.24 0.156,-0.238 0.153,-0.235C0.146,-0.229 0.136,-0.222 0.125,-0.214C0.113,-0.206 0.101,-0.198 0.089,-0.191C0.076,-0.183 0.064,-0.176 0.053,-0.17C0.041,-0.163 0.031,-0.159 0.024,-0.156C0.017,-0.153 0.009,-0.152 0.001,-0.154L-0.008,-0.157C-0.017,-0.161 -0.022,-0.168 -0.024,-0.177C-0.025,-0.179 -0.026,-0.18 -0.025,-0.181C-0.024,-0.182 -0.024,-0.183 -0.025,-0.185C-0.025,-0.19 -0.025,-0.194 -0.024,-0.197C-0.024,-0.198 -0.024,-0.2 -0.023,-0.201C-0.022,-0.202 -0.022,-0.203 -0.023,-0.202ZM0.064,-0.375C0.065,-0.376 0.065,-0.378 0.065,-0.38C0.065,-0.381 0.065,-0.383 0.066,-0.384C0.067,-0.389 0.069,-0.394 0.071,-0.398C0.073,-0.402 0.075,-0.406 0.077,-0.41C0.078,-0.411 0.079,-0.412 0.08,-0.413C0.081,-0.414 0.082,-0.415 0.083,-0.416C0.094,-0.419 0.104,-0.417 0.111,-0.41C0.117,-0.404 0.118,-0.399 0.114,-0.394C0.111,-0.387 0.106,-0.379 0.099,-0.372C0.094,-0.366 0.086,-0.362 0.077,-0.361C0.076,-0.361 0.075,-0.361 0.074,-0.362C0.073,-0.362 0.073,-0.362 0.072,-0.362C0.067,-0.363 0.065,-0.366 0.065,-0.369C0.065,-0.371 0.065,-0.373 0.064,-0.375Z" style="fill:rgb(71,97,111);fill-rule:nonzero;"/>
        </g>
        <g transform="matrix(306.932,0,0,277.783,48081.4,36247.6)">
            <path d="M0.097,-0.18C0.104,-0.185 0.112,-0.189 0.119,-0.194C0.127,-0.199 0.134,-0.204 0.141,-0.21C0.149,-0.216 0.158,-0.222 0.168,-0.227C0.177,-0.232 0.186,-0.237 0.195,-0.243C0.198,-0.244 0.201,-0.246 0.203,-0.248C0.206,-0.249 0.21,-0.251 0.213,-0.252C0.216,-0.253 0.219,-0.255 0.222,-0.256C0.225,-0.257 0.228,-0.259 0.232,-0.26C0.235,-0.261 0.235,-0.26 0.234,-0.257C0.235,-0.255 0.235,-0.253 0.234,-0.252C0.233,-0.251 0.233,-0.249 0.232,-0.247L0.211,-0.231L0.198,-0.222L0.16,-0.186C0.152,-0.179 0.144,-0.171 0.136,-0.164C0.127,-0.157 0.118,-0.149 0.109,-0.142C0.106,-0.14 0.102,-0.138 0.1,-0.135C0.097,-0.132 0.093,-0.13 0.09,-0.127C0.087,-0.125 0.085,-0.123 0.083,-0.121C0.08,-0.119 0.078,-0.118 0.077,-0.117C0.068,-0.114 0.06,-0.114 0.055,-0.119L0.05,-0.123C0.045,-0.129 0.042,-0.133 0.041,-0.136C0.04,-0.139 0.04,-0.145 0.042,-0.154L0.046,-0.171C0.049,-0.18 0.052,-0.189 0.055,-0.198C0.058,-0.207 0.061,-0.216 0.065,-0.225L0.074,-0.25L0.076,-0.26C0.076,-0.263 0.075,-0.265 0.072,-0.266C0.07,-0.266 0.068,-0.266 0.067,-0.265L0.043,-0.241C0.039,-0.236 0.035,-0.232 0.029,-0.229C0.025,-0.225 0.019,-0.222 0.014,-0.221C0.012,-0.22 0.01,-0.219 0.009,-0.218C0.008,-0.217 0.006,-0.216 0.005,-0.214C0.003,-0.21 -0.002,-0.206 -0.009,-0.203L-0.016,-0.2C-0.022,-0.197 -0.026,-0.199 -0.029,-0.206C-0.032,-0.21 -0.032,-0.215 -0.031,-0.221C-0.028,-0.226 -0.026,-0.231 -0.024,-0.236C-0.023,-0.241 -0.021,-0.245 -0.019,-0.25C-0.016,-0.255 -0.013,-0.261 -0.01,-0.267C-0.007,-0.273 -0.005,-0.279 -0.003,-0.286C-0.002,-0.291 0,-0.296 0.003,-0.3C0.005,-0.306 0.007,-0.312 0.01,-0.318C0.013,-0.324 0.015,-0.33 0.017,-0.337C0.018,-0.341 0.02,-0.345 0.021,-0.348C0.023,-0.351 0.025,-0.355 0.026,-0.358C0.027,-0.361 0.03,-0.363 0.035,-0.363L0.045,-0.363C0.047,-0.363 0.049,-0.363 0.051,-0.363C0.054,-0.362 0.056,-0.361 0.057,-0.359C0.063,-0.354 0.065,-0.349 0.064,-0.343C0.064,-0.34 0.063,-0.337 0.062,-0.334C0.061,-0.331 0.06,-0.327 0.06,-0.324C0.061,-0.323 0.062,-0.322 0.064,-0.322C0.066,-0.322 0.068,-0.322 0.069,-0.323C0.074,-0.328 0.08,-0.333 0.086,-0.337C0.093,-0.341 0.099,-0.346 0.104,-0.351C0.111,-0.356 0.119,-0.358 0.129,-0.358C0.136,-0.358 0.142,-0.356 0.145,-0.352C0.146,-0.351 0.146,-0.349 0.147,-0.348C0.148,-0.347 0.148,-0.346 0.148,-0.345C0.15,-0.341 0.151,-0.338 0.15,-0.337C0.149,-0.332 0.147,-0.327 0.146,-0.324L0.111,-0.248L0.093,-0.202C0.09,-0.194 0.089,-0.187 0.09,-0.182C0.09,-0.18 0.091,-0.179 0.093,-0.179L0.095,-0.179L0.095,-0.178L0.097,-0.18Z" style="fill:rgb(71,97,111);fill-rule:nonzero;"/>
        </g>
        <g transform="matrix(306.932,0,0,277.783,48146.8,36247.6)">
            <path d="M-0.147,0.227C-0.149,0.227 -0.15,0.227 -0.151,0.227C-0.152,0.228 -0.154,0.228 -0.155,0.227C-0.156,0.226 -0.158,0.226 -0.16,0.225C-0.162,0.225 -0.164,0.224 -0.165,0.223C-0.172,0.22 -0.178,0.215 -0.182,0.21C-0.185,0.205 -0.186,0.2 -0.186,0.195C-0.185,0.188 -0.183,0.182 -0.181,0.175C-0.179,0.168 -0.177,0.162 -0.174,0.156C-0.168,0.149 -0.164,0.14 -0.162,0.131C-0.158,0.123 -0.154,0.115 -0.149,0.107C-0.144,0.1 -0.139,0.092 -0.133,0.085C-0.131,0.082 -0.129,0.079 -0.127,0.076C-0.125,0.074 -0.123,0.071 -0.122,0.068C-0.115,0.055 -0.106,0.044 -0.097,0.035C-0.093,0.032 -0.089,0.028 -0.086,0.024C-0.083,0.02 -0.079,0.016 -0.076,0.012C-0.065,0.001 -0.055,-0.011 -0.044,-0.023C-0.033,-0.034 -0.022,-0.045 -0.01,-0.055L-0.001,-0.064C0.003,-0.069 0.007,-0.073 0.012,-0.077C0.016,-0.081 0.021,-0.085 0.028,-0.088C0.031,-0.09 0.033,-0.092 0.035,-0.095C0.038,-0.098 0.04,-0.1 0.043,-0.103C0.046,-0.106 0.048,-0.108 0.051,-0.111C0.054,-0.114 0.057,-0.116 0.06,-0.119C0.061,-0.12 0.061,-0.12 0.062,-0.121C0.063,-0.121 0.063,-0.121 0.064,-0.122C0.073,-0.129 0.08,-0.136 0.085,-0.143C0.09,-0.151 0.096,-0.16 0.101,-0.169C0.102,-0.17 0.102,-0.17 0.102,-0.171C0.102,-0.172 0.102,-0.172 0.103,-0.173C0.107,-0.184 0.111,-0.196 0.114,-0.209C0.117,-0.221 0.12,-0.233 0.121,-0.246C0.121,-0.249 0.121,-0.25 0.12,-0.251C0.12,-0.252 0.119,-0.253 0.117,-0.253C0.116,-0.253 0.115,-0.253 0.114,-0.252C0.109,-0.248 0.105,-0.243 0.102,-0.238C0.095,-0.229 0.087,-0.22 0.08,-0.211C0.073,-0.202 0.065,-0.193 0.056,-0.184C0.053,-0.181 0.051,-0.178 0.049,-0.175C0.046,-0.172 0.043,-0.17 0.04,-0.167C0.038,-0.164 0.035,-0.162 0.032,-0.161C0.029,-0.159 0.025,-0.157 0.022,-0.155C0.011,-0.15 0,-0.149 -0.011,-0.152C-0.022,-0.155 -0.031,-0.162 -0.037,-0.173C-0.037,-0.175 -0.037,-0.177 -0.038,-0.18C-0.039,-0.182 -0.039,-0.184 -0.038,-0.186C-0.036,-0.205 -0.031,-0.221 -0.022,-0.235C-0.017,-0.244 -0.012,-0.252 -0.007,-0.26C-0.002,-0.268 0.003,-0.276 0.009,-0.283C0.01,-0.284 0.011,-0.286 0.012,-0.288C0.013,-0.289 0.013,-0.291 0.014,-0.293C0.014,-0.298 0.016,-0.303 0.021,-0.309L0.049,-0.338C0.056,-0.345 0.063,-0.35 0.071,-0.354C0.08,-0.357 0.088,-0.358 0.097,-0.359C0.101,-0.359 0.104,-0.359 0.106,-0.358C0.115,-0.358 0.122,-0.355 0.126,-0.348C0.127,-0.347 0.129,-0.345 0.132,-0.343C0.132,-0.342 0.134,-0.341 0.137,-0.341C0.139,-0.342 0.141,-0.344 0.142,-0.345C0.143,-0.347 0.145,-0.348 0.147,-0.349C0.148,-0.35 0.15,-0.351 0.151,-0.35C0.152,-0.35 0.153,-0.349 0.154,-0.348C0.157,-0.342 0.159,-0.336 0.158,-0.33L0.157,-0.32C0.156,-0.317 0.156,-0.314 0.157,-0.312C0.159,-0.304 0.159,-0.297 0.158,-0.292C0.157,-0.281 0.156,-0.271 0.155,-0.262C0.154,-0.252 0.153,-0.242 0.152,-0.231C0.149,-0.224 0.149,-0.214 0.151,-0.203C0.152,-0.2 0.151,-0.196 0.149,-0.19C0.148,-0.188 0.147,-0.186 0.146,-0.184C0.145,-0.181 0.144,-0.179 0.143,-0.177C0.136,-0.168 0.132,-0.159 0.13,-0.151L0.12,-0.127C0.114,-0.11 0.107,-0.093 0.1,-0.076C0.092,-0.059 0.084,-0.042 0.076,-0.026C0.071,-0.017 0.067,-0.009 0.062,-0C0.057,0.009 0.051,0.017 0.046,0.026C0.041,0.035 0.036,0.044 0.031,0.052C0.026,0.061 0.021,0.069 0.015,0.078C0.008,0.089 0,0.101 -0.008,0.112C-0.016,0.123 -0.025,0.135 -0.034,0.146C-0.045,0.159 -0.057,0.172 -0.068,0.183C-0.073,0.188 -0.079,0.192 -0.085,0.196C-0.091,0.201 -0.097,0.206 -0.103,0.211C-0.106,0.212 -0.11,0.215 -0.113,0.218C-0.118,0.221 -0.123,0.223 -0.128,0.224C-0.133,0.226 -0.138,0.227 -0.143,0.227L-0.147,0.227ZM0.063,-0.067C0.065,-0.072 0.067,-0.078 0.069,-0.083C0.071,-0.088 0.073,-0.094 0.074,-0.099L0.074,-0.102C0.072,-0.103 0.07,-0.103 0.068,-0.102C0.061,-0.096 0.054,-0.09 0.047,-0.084C0.04,-0.078 0.034,-0.072 0.028,-0.065C0.021,-0.06 0.014,-0.054 0.009,-0.048C0.003,-0.042 -0.003,-0.036 -0.008,-0.03C-0.019,-0.019 -0.029,-0.007 -0.038,0.004C-0.048,0.015 -0.058,0.027 -0.067,0.039C-0.072,0.046 -0.077,0.052 -0.081,0.058C-0.086,0.065 -0.09,0.071 -0.095,0.077C-0.102,0.086 -0.109,0.096 -0.114,0.107C-0.119,0.118 -0.125,0.13 -0.13,0.142C-0.134,0.151 -0.138,0.161 -0.143,0.173C-0.144,0.176 -0.144,0.179 -0.144,0.182C-0.145,0.185 -0.145,0.188 -0.145,0.191C-0.146,0.192 -0.145,0.194 -0.143,0.195C-0.141,0.196 -0.139,0.197 -0.138,0.197C-0.135,0.197 -0.131,0.196 -0.127,0.193C-0.119,0.187 -0.111,0.183 -0.104,0.18C-0.103,0.179 -0.1,0.177 -0.097,0.176C-0.092,0.171 -0.086,0.166 -0.081,0.161C-0.076,0.156 -0.071,0.151 -0.066,0.145C-0.061,0.138 -0.056,0.132 -0.051,0.129C-0.044,0.122 -0.037,0.113 -0.031,0.103L-0.017,0.086C-0.014,0.083 -0.011,0.078 -0.01,0.073C-0.007,0.066 -0.005,0.062 -0.003,0.059C0,0.052 0.004,0.046 0.008,0.04C0.012,0.034 0.016,0.028 0.021,0.021C0.028,0.01 0.034,-0 0.039,-0.01C0.04,-0.013 0.042,-0.016 0.043,-0.019C0.045,-0.021 0.047,-0.023 0.048,-0.026C0.049,-0.027 0.05,-0.028 0.051,-0.029C0.051,-0.03 0.051,-0.032 0.051,-0.033C0.054,-0.038 0.056,-0.044 0.058,-0.05C0.059,-0.055 0.061,-0.061 0.063,-0.067ZM0.117,-0.322C0.117,-0.325 0.115,-0.328 0.111,-0.329C0.109,-0.329 0.107,-0.329 0.106,-0.329C0.104,-0.328 0.102,-0.328 0.101,-0.328C0.095,-0.323 0.089,-0.319 0.084,-0.315C0.079,-0.31 0.073,-0.305 0.068,-0.3C0.063,-0.295 0.059,-0.289 0.054,-0.284C0.049,-0.279 0.044,-0.273 0.039,-0.267C0.032,-0.258 0.025,-0.248 0.02,-0.239C0.014,-0.23 0.008,-0.22 0.003,-0.209L0.003,-0.204C0.004,-0.202 0.006,-0.201 0.009,-0.202C0.015,-0.204 0.021,-0.207 0.028,-0.212L0.036,-0.221C0.045,-0.23 0.053,-0.239 0.061,-0.249C0.069,-0.258 0.077,-0.267 0.085,-0.276C0.09,-0.281 0.095,-0.287 0.1,-0.293C0.104,-0.299 0.108,-0.305 0.113,-0.31L0.117,-0.317L0.117,-0.322Z" style="fill:rgb(71,97,111);fill-rule:nonzero;"/>
        </g>
        <g transform="matrix(306.932,0,0,277.783,48272.3,36247.6)">
            <path d="M0.345,0.135C0.346,0.133 0.346,0.131 0.345,0.128C0.345,0.125 0.345,0.123 0.346,0.121C0.347,0.112 0.349,0.103 0.35,0.094C0.351,0.085 0.353,0.077 0.356,0.068C0.357,0.065 0.358,0.062 0.359,0.059C0.359,0.056 0.359,0.054 0.36,0.051C0.362,0.042 0.364,0.033 0.366,0.024C0.368,0.015 0.371,0.007 0.375,-0.001C0.376,-0.004 0.377,-0.007 0.378,-0.01C0.379,-0.013 0.379,-0.016 0.38,-0.019C0.38,-0.03 0.383,-0.041 0.388,-0.054C0.392,-0.067 0.396,-0.079 0.4,-0.092C0.403,-0.104 0.407,-0.116 0.41,-0.129C0.411,-0.134 0.412,-0.138 0.413,-0.14C0.416,-0.147 0.419,-0.153 0.421,-0.16C0.423,-0.167 0.425,-0.174 0.426,-0.181C0.429,-0.194 0.431,-0.207 0.434,-0.22C0.436,-0.233 0.439,-0.246 0.442,-0.259C0.442,-0.26 0.441,-0.262 0.44,-0.264C0.439,-0.266 0.437,-0.267 0.436,-0.267C0.435,-0.268 0.434,-0.268 0.433,-0.268L0.418,-0.268L0.387,-0.261C0.372,-0.256 0.358,-0.252 0.344,-0.249C0.329,-0.245 0.315,-0.241 0.3,-0.236C0.281,-0.231 0.263,-0.225 0.245,-0.219C0.227,-0.212 0.209,-0.205 0.192,-0.198C0.189,-0.197 0.186,-0.195 0.183,-0.193C0.18,-0.19 0.178,-0.188 0.175,-0.185C0.174,-0.184 0.174,-0.184 0.174,-0.183C0.174,-0.182 0.174,-0.182 0.173,-0.182C0.169,-0.175 0.165,-0.169 0.161,-0.164C0.157,-0.158 0.153,-0.152 0.149,-0.146C0.139,-0.129 0.129,-0.112 0.119,-0.095C0.109,-0.078 0.1,-0.06 0.091,-0.042C0.088,-0.035 0.084,-0.027 0.08,-0.02C0.075,-0.013 0.071,-0.005 0.066,0.002C0.063,0.006 0.06,0.009 0.055,0.011C0.052,0.012 0.049,0.014 0.045,0.015C0.036,0.017 0.027,0.016 0.02,0.013C0.019,0.013 0.018,0.013 0.017,0.012C0.016,0.011 0.015,0.011 0.014,0.01C0.011,0.009 0.008,0.008 0.006,0.006C0.004,0.004 0.002,0.002 0.001,-0.001C-0.002,-0.004 -0.002,-0.008 0,-0.011C0.002,-0.014 0.004,-0.016 0.006,-0.018C0.007,-0.019 0.009,-0.022 0.01,-0.025C0.019,-0.041 0.029,-0.057 0.038,-0.073C0.047,-0.089 0.055,-0.106 0.064,-0.123C0.068,-0.13 0.066,-0.135 0.057,-0.136L0.053,-0.136C0.048,-0.135 0.043,-0.136 0.039,-0.137C0.034,-0.138 0.03,-0.14 0.025,-0.142C0.024,-0.142 0.022,-0.143 0.019,-0.146C0.014,-0.15 0.013,-0.154 0.017,-0.158C0.019,-0.161 0.02,-0.163 0.021,-0.164C0.026,-0.17 0.034,-0.176 0.043,-0.182C0.048,-0.185 0.053,-0.187 0.058,-0.189C0.063,-0.191 0.067,-0.193 0.072,-0.196C0.079,-0.199 0.086,-0.202 0.093,-0.205C0.099,-0.208 0.105,-0.211 0.112,-0.214C0.119,-0.217 0.126,-0.221 0.131,-0.226C0.136,-0.23 0.14,-0.235 0.145,-0.24L0.19,-0.297C0.2,-0.309 0.21,-0.321 0.22,-0.333C0.23,-0.345 0.24,-0.357 0.25,-0.368C0.264,-0.383 0.278,-0.399 0.291,-0.414C0.304,-0.429 0.318,-0.445 0.332,-0.46C0.341,-0.469 0.349,-0.478 0.358,-0.487C0.367,-0.496 0.376,-0.505 0.385,-0.514L0.42,-0.55L0.437,-0.569C0.441,-0.572 0.445,-0.576 0.449,-0.58C0.453,-0.583 0.457,-0.587 0.461,-0.591C0.466,-0.597 0.473,-0.603 0.482,-0.61C0.485,-0.613 0.487,-0.615 0.49,-0.617C0.493,-0.619 0.496,-0.621 0.499,-0.623C0.514,-0.636 0.526,-0.65 0.533,-0.665C0.534,-0.668 0.536,-0.67 0.538,-0.673C0.539,-0.675 0.541,-0.678 0.542,-0.681C0.545,-0.686 0.548,-0.689 0.552,-0.691C0.556,-0.692 0.561,-0.693 0.566,-0.694L0.58,-0.693C0.583,-0.692 0.586,-0.69 0.589,-0.687C0.591,-0.684 0.592,-0.68 0.593,-0.677C0.594,-0.672 0.594,-0.667 0.592,-0.66C0.591,-0.653 0.589,-0.646 0.587,-0.64C0.584,-0.633 0.582,-0.626 0.58,-0.619C0.571,-0.588 0.562,-0.557 0.555,-0.528C0.553,-0.518 0.551,-0.508 0.548,-0.497C0.545,-0.486 0.541,-0.476 0.538,-0.466C0.533,-0.448 0.528,-0.43 0.524,-0.412C0.519,-0.394 0.514,-0.376 0.509,-0.358C0.508,-0.356 0.508,-0.354 0.508,-0.353C0.508,-0.351 0.508,-0.349 0.507,-0.348C0.504,-0.333 0.509,-0.326 0.524,-0.328L0.546,-0.331L0.557,-0.33L0.559,-0.328C0.56,-0.325 0.56,-0.323 0.559,-0.321C0.557,-0.316 0.554,-0.313 0.549,-0.311C0.54,-0.304 0.53,-0.3 0.52,-0.297L0.5,-0.29C0.495,-0.288 0.491,-0.285 0.49,-0.28C0.489,-0.277 0.487,-0.274 0.486,-0.27C0.477,-0.242 0.469,-0.214 0.461,-0.186C0.453,-0.157 0.445,-0.129 0.437,-0.1C0.436,-0.097 0.436,-0.095 0.435,-0.092C0.434,-0.089 0.433,-0.086 0.432,-0.083C0.429,-0.075 0.427,-0.067 0.425,-0.059C0.423,-0.051 0.421,-0.043 0.419,-0.035C0.418,-0.028 0.416,-0.021 0.413,-0.014C0.41,-0.007 0.408,-0 0.407,0.007C0.404,0.016 0.401,0.026 0.398,0.035C0.395,0.045 0.391,0.055 0.388,0.065C0.386,0.071 0.384,0.077 0.383,0.083C0.381,0.09 0.379,0.096 0.378,0.103C0.375,0.117 0.371,0.129 0.368,0.138C0.365,0.143 0.362,0.147 0.359,0.15C0.358,0.151 0.356,0.151 0.353,0.15C0.349,0.149 0.348,0.148 0.347,0.146C0.346,0.144 0.346,0.142 0.346,0.14C0.346,0.139 0.346,0.137 0.345,0.135ZM0.257,-0.267C0.27,-0.27 0.284,-0.274 0.298,-0.277C0.311,-0.28 0.325,-0.283 0.338,-0.286C0.351,-0.289 0.365,-0.292 0.378,-0.296C0.391,-0.299 0.405,-0.303 0.418,-0.306C0.43,-0.308 0.441,-0.312 0.452,-0.318C0.458,-0.323 0.462,-0.327 0.463,-0.331C0.466,-0.339 0.468,-0.347 0.471,-0.355C0.474,-0.363 0.476,-0.371 0.478,-0.379C0.481,-0.393 0.484,-0.407 0.487,-0.421C0.49,-0.435 0.492,-0.449 0.494,-0.463C0.495,-0.467 0.496,-0.471 0.496,-0.474C0.496,-0.478 0.497,-0.482 0.498,-0.485C0.502,-0.5 0.505,-0.516 0.508,-0.531C0.511,-0.546 0.515,-0.561 0.518,-0.576C0.519,-0.577 0.519,-0.58 0.519,-0.583C0.519,-0.586 0.518,-0.588 0.516,-0.589C0.515,-0.59 0.512,-0.59 0.509,-0.588C0.506,-0.585 0.502,-0.581 0.499,-0.577C0.495,-0.573 0.491,-0.569 0.487,-0.566C0.482,-0.562 0.477,-0.558 0.473,-0.554C0.47,-0.549 0.466,-0.545 0.461,-0.54C0.452,-0.529 0.443,-0.518 0.434,-0.506C0.425,-0.496 0.415,-0.485 0.404,-0.476C0.403,-0.475 0.401,-0.473 0.399,-0.47C0.394,-0.465 0.389,-0.459 0.384,-0.453C0.379,-0.447 0.374,-0.441 0.369,-0.435C0.364,-0.43 0.358,-0.424 0.353,-0.419C0.347,-0.413 0.342,-0.406 0.339,-0.399L0.332,-0.392C0.325,-0.385 0.319,-0.379 0.314,-0.372C0.309,-0.365 0.303,-0.357 0.298,-0.35L0.258,-0.299C0.255,-0.296 0.253,-0.292 0.25,-0.289C0.247,-0.286 0.245,-0.282 0.243,-0.279C0.242,-0.278 0.241,-0.275 0.241,-0.272C0.24,-0.271 0.241,-0.269 0.243,-0.268C0.244,-0.266 0.246,-0.265 0.247,-0.265C0.248,-0.266 0.25,-0.266 0.252,-0.266C0.254,-0.266 0.256,-0.266 0.257,-0.267Z" style="fill:rgb(71,97,111);fill-rule:nonzero;"/>
        </g>
        <g transform="matrix(306.932,0,0,277.783,48454.7,36247.6)">
            <path d="M-0.147,0.227C-0.149,0.227 -0.15,0.227 -0.151,0.227C-0.152,0.228 -0.154,0.228 -0.155,0.227C-0.156,0.226 -0.158,0.226 -0.16,0.225C-0.162,0.225 -0.164,0.224 -0.165,0.223C-0.172,0.22 -0.178,0.215 -0.182,0.21C-0.185,0.205 -0.186,0.2 -0.186,0.195C-0.185,0.188 -0.183,0.182 -0.181,0.175C-0.179,0.168 -0.177,0.162 -0.174,0.156C-0.168,0.149 -0.164,0.14 -0.162,0.131C-0.158,0.123 -0.154,0.115 -0.149,0.107C-0.144,0.1 -0.139,0.092 -0.133,0.085C-0.131,0.082 -0.129,0.079 -0.127,0.076C-0.125,0.074 -0.123,0.071 -0.122,0.068C-0.115,0.055 -0.106,0.044 -0.097,0.035C-0.093,0.032 -0.089,0.028 -0.086,0.024C-0.083,0.02 -0.079,0.016 -0.076,0.012C-0.065,0.001 -0.055,-0.011 -0.044,-0.023C-0.033,-0.034 -0.022,-0.045 -0.01,-0.055L-0.001,-0.064C0.003,-0.069 0.007,-0.073 0.012,-0.077C0.016,-0.081 0.021,-0.085 0.028,-0.088C0.031,-0.09 0.033,-0.092 0.035,-0.095C0.038,-0.098 0.04,-0.1 0.043,-0.103C0.046,-0.106 0.048,-0.108 0.051,-0.111C0.054,-0.114 0.057,-0.116 0.06,-0.119C0.061,-0.12 0.061,-0.12 0.062,-0.121C0.063,-0.121 0.063,-0.121 0.064,-0.122C0.073,-0.129 0.08,-0.136 0.085,-0.143C0.09,-0.151 0.096,-0.16 0.101,-0.169C0.102,-0.17 0.102,-0.17 0.102,-0.171C0.102,-0.172 0.102,-0.172 0.103,-0.173C0.107,-0.184 0.111,-0.196 0.114,-0.209C0.117,-0.221 0.12,-0.233 0.121,-0.246C0.121,-0.249 0.121,-0.25 0.12,-0.251C0.12,-0.252 0.119,-0.253 0.117,-0.253C0.116,-0.253 0.115,-0.253 0.114,-0.252C0.109,-0.248 0.105,-0.243 0.102,-0.238C0.095,-0.229 0.087,-0.22 0.08,-0.211C0.073,-0.202 0.065,-0.193 0.056,-0.184C0.053,-0.181 0.051,-0.178 0.049,-0.175C0.046,-0.172 0.043,-0.17 0.04,-0.167C0.038,-0.164 0.035,-0.162 0.032,-0.161C0.029,-0.159 0.025,-0.157 0.022,-0.155C0.011,-0.15 0,-0.149 -0.011,-0.152C-0.022,-0.155 -0.031,-0.162 -0.037,-0.173C-0.037,-0.175 -0.037,-0.177 -0.038,-0.18C-0.039,-0.182 -0.039,-0.184 -0.038,-0.186C-0.036,-0.205 -0.031,-0.221 -0.022,-0.235C-0.017,-0.244 -0.012,-0.252 -0.007,-0.26C-0.002,-0.268 0.003,-0.276 0.009,-0.283C0.01,-0.284 0.011,-0.286 0.012,-0.288C0.013,-0.289 0.013,-0.291 0.014,-0.293C0.014,-0.298 0.016,-0.303 0.021,-0.309L0.049,-0.338C0.056,-0.345 0.063,-0.35 0.071,-0.354C0.08,-0.357 0.088,-0.358 0.097,-0.359C0.101,-0.359 0.104,-0.359 0.106,-0.358C0.115,-0.358 0.122,-0.355 0.126,-0.348C0.127,-0.347 0.129,-0.345 0.132,-0.343C0.132,-0.342 0.134,-0.341 0.137,-0.341C0.139,-0.342 0.141,-0.344 0.142,-0.345C0.143,-0.347 0.145,-0.348 0.147,-0.349C0.148,-0.35 0.15,-0.351 0.151,-0.35C0.152,-0.35 0.153,-0.349 0.154,-0.348C0.157,-0.342 0.159,-0.336 0.158,-0.33L0.157,-0.32C0.156,-0.317 0.156,-0.314 0.157,-0.312C0.159,-0.304 0.159,-0.297 0.158,-0.292C0.157,-0.281 0.156,-0.271 0.155,-0.262C0.154,-0.252 0.153,-0.242 0.152,-0.231C0.149,-0.224 0.149,-0.214 0.151,-0.203C0.152,-0.2 0.151,-0.196 0.149,-0.19C0.148,-0.188 0.147,-0.186 0.146,-0.184C0.145,-0.181 0.144,-0.179 0.143,-0.177C0.136,-0.168 0.132,-0.159 0.13,-0.151L0.12,-0.127C0.114,-0.11 0.107,-0.093 0.1,-0.076C0.092,-0.059 0.084,-0.042 0.076,-0.026C0.071,-0.017 0.067,-0.009 0.062,-0C0.057,0.009 0.051,0.017 0.046,0.026C0.041,0.035 0.036,0.044 0.031,0.052C0.026,0.061 0.021,0.069 0.015,0.078C0.008,0.089 0,0.101 -0.008,0.112C-0.016,0.123 -0.025,0.135 -0.034,0.146C-0.045,0.159 -0.057,0.172 -0.068,0.183C-0.073,0.188 -0.079,0.192 -0.085,0.196C-0.091,0.201 -0.097,0.206 -0.103,0.211C-0.106,0.212 -0.11,0.215 -0.113,0.218C-0.118,0.221 -0.123,0.223 -0.128,0.224C-0.133,0.226 -0.138,0.227 -0.143,0.227L-0.147,0.227ZM0.063,-0.067C0.065,-0.072 0.067,-0.078 0.069,-0.083C0.071,-0.088 0.073,-0.094 0.074,-0.099L0.074,-0.102C0.072,-0.103 0.07,-0.103 0.068,-0.102C0.061,-0.096 0.054,-0.09 0.047,-0.084C0.04,-0.078 0.034,-0.072 0.028,-0.065C0.021,-0.06 0.014,-0.054 0.009,-0.048C0.003,-0.042 -0.003,-0.036 -0.008,-0.03C-0.019,-0.019 -0.029,-0.007 -0.038,0.004C-0.048,0.015 -0.058,0.027 -0.067,0.039C-0.072,0.046 -0.077,0.052 -0.081,0.058C-0.086,0.065 -0.09,0.071 -0.095,0.077C-0.102,0.086 -0.109,0.096 -0.114,0.107C-0.119,0.118 -0.125,0.13 -0.13,0.142C-0.134,0.151 -0.138,0.161 -0.143,0.173C-0.144,0.176 -0.144,0.179 -0.144,0.182C-0.145,0.185 -0.145,0.188 -0.145,0.191C-0.146,0.192 -0.145,0.194 -0.143,0.195C-0.141,0.196 -0.139,0.197 -0.138,0.197C-0.135,0.197 -0.131,0.196 -0.127,0.193C-0.119,0.187 -0.111,0.183 -0.104,0.18C-0.103,0.179 -0.1,0.177 -0.097,0.176C-0.092,0.171 -0.086,0.166 -0.081,0.161C-0.076,0.156 -0.071,0.151 -0.066,0.145C-0.061,0.138 -0.056,0.132 -0.051,0.129C-0.044,0.122 -0.037,0.113 -0.031,0.103L-0.017,0.086C-0.014,0.083 -0.011,0.078 -0.01,0.073C-0.007,0.066 -0.005,0.062 -0.003,0.059C0,0.052 0.004,0.046 0.008,0.04C0.012,0.034 0.016,0.028 0.021,0.021C0.028,0.01 0.034,-0 0.039,-0.01C0.04,-0.013 0.042,-0.016 0.043,-0.019C0.045,-0.021 0.047,-0.023 0.048,-0.026C0.049,-0.027 0.05,-0.028 0.051,-0.029C0.051,-0.03 0.051,-0.032 0.051,-0.033C0.054,-0.038 0.056,-0.044 0.058,-0.05C0.059,-0.055 0.061,-0.061 0.063,-0.067ZM0.117,-0.322C0.117,-0.325 0.115,-0.328 0.111,-0.329C0.109,-0.329 0.107,-0.329 0.106,-0.329C0.104,-0.328 0.102,-0.328 0.101,-0.328C0.095,-0.323 0.089,-0.319 0.084,-0.315C0.079,-0.31 0.073,-0.305 0.068,-0.3C0.063,-0.295 0.059,-0.289 0.054,-0.284C0.049,-0.279 0.044,-0.273 0.039,-0.267C0.032,-0.258 0.025,-0.248 0.02,-0.239C0.014,-0.23 0.008,-0.22 0.003,-0.209L0.003,-0.204C0.004,-0.202 0.006,-0.201 0.009,-0.202C0.015,-0.204 0.021,-0.207 0.028,-0.212L0.036,-0.221C0.045,-0.23 0.053,-0.239 0.061,-0.249C0.069,-0.258 0.077,-0.267 0.085,-0.276C0.09,-0.281 0.095,-0.287 0.1,-0.293C0.104,-0.299 0.108,-0.305 0.113,-0.31L0.117,-0.317L0.117,-0.322Z" style="fill:rgb(71,97,111);fill-rule:nonzero;"/>
        </g>
        <g transform="matrix(306.932,0,0,277.783,48516.4,36247.6)">
            <path d="M0.027,-0.142C0.02,-0.142 0.014,-0.143 0.009,-0.145C0.008,-0.146 0.006,-0.146 0.005,-0.147C0.004,-0.148 0.002,-0.148 -0.001,-0.149C-0.002,-0.15 -0.003,-0.15 -0.004,-0.151C-0.005,-0.152 -0.006,-0.152 -0.007,-0.153C-0.01,-0.156 -0.013,-0.159 -0.016,-0.162C-0.019,-0.165 -0.022,-0.168 -0.024,-0.172C-0.027,-0.177 -0.027,-0.184 -0.024,-0.191C-0.023,-0.196 -0.021,-0.202 -0.019,-0.207L-0.01,-0.231C-0.009,-0.234 -0.008,-0.236 -0.007,-0.238C-0.004,-0.244 -0.001,-0.251 0.001,-0.26C0.002,-0.267 0.005,-0.273 0.009,-0.276C0.012,-0.285 0.019,-0.293 0.028,-0.301C0.032,-0.305 0.036,-0.309 0.04,-0.313C0.043,-0.317 0.047,-0.321 0.051,-0.324C0.054,-0.325 0.056,-0.327 0.058,-0.328C0.062,-0.329 0.066,-0.331 0.07,-0.332C0.073,-0.333 0.078,-0.334 0.083,-0.335C0.084,-0.336 0.086,-0.336 0.087,-0.336L0.092,-0.336C0.098,-0.335 0.102,-0.333 0.103,-0.331C0.108,-0.326 0.113,-0.322 0.117,-0.317C0.12,-0.313 0.122,-0.308 0.124,-0.303C0.126,-0.298 0.125,-0.292 0.122,-0.287C0.118,-0.282 0.113,-0.277 0.108,-0.272C0.103,-0.267 0.097,-0.262 0.092,-0.257C0.085,-0.252 0.079,-0.246 0.072,-0.241C0.065,-0.235 0.058,-0.229 0.051,-0.224C0.046,-0.221 0.041,-0.219 0.035,-0.22C0.032,-0.22 0.03,-0.22 0.029,-0.219C0.025,-0.217 0.022,-0.215 0.021,-0.213C0.018,-0.208 0.017,-0.204 0.017,-0.201C0.014,-0.194 0.013,-0.185 0.014,-0.176C0.015,-0.175 0.016,-0.173 0.017,-0.172C0.018,-0.172 0.019,-0.17 0.021,-0.169C0.026,-0.168 0.031,-0.167 0.034,-0.168C0.043,-0.169 0.051,-0.172 0.058,-0.175C0.067,-0.178 0.076,-0.182 0.084,-0.186C0.091,-0.19 0.099,-0.194 0.107,-0.199L0.158,-0.23C0.162,-0.231 0.165,-0.232 0.167,-0.232C0.169,-0.233 0.171,-0.233 0.173,-0.232C0.176,-0.23 0.177,-0.228 0.176,-0.227C0.174,-0.218 0.169,-0.209 0.161,-0.202C0.154,-0.198 0.147,-0.193 0.14,-0.188C0.133,-0.183 0.126,-0.177 0.12,-0.172C0.115,-0.169 0.109,-0.165 0.103,-0.162C0.098,-0.158 0.092,-0.155 0.085,-0.153C0.08,-0.151 0.076,-0.149 0.07,-0.148C0.066,-0.146 0.06,-0.145 0.055,-0.145C0.05,-0.144 0.046,-0.143 0.041,-0.142C0.036,-0.141 0.032,-0.141 0.027,-0.142ZM0.09,-0.296C0.089,-0.297 0.088,-0.299 0.088,-0.3C0.088,-0.301 0.088,-0.301 0.087,-0.301L0.081,-0.301C0.08,-0.3 0.079,-0.298 0.077,-0.296C0.07,-0.289 0.064,-0.282 0.058,-0.275C0.051,-0.268 0.046,-0.26 0.042,-0.251C0.042,-0.248 0.042,-0.247 0.043,-0.247L0.046,-0.247L0.066,-0.266C0.071,-0.269 0.076,-0.273 0.079,-0.278C0.082,-0.283 0.085,-0.287 0.088,-0.292C0.089,-0.293 0.09,-0.295 0.09,-0.296Z" style="fill:rgb(71,97,111);fill-rule:nonzero;"/>
        </g>
        <g transform="matrix(306.932,0,0,277.783,48567.6,36247.6)">
            <path d="M0.097,-0.18C0.104,-0.185 0.112,-0.189 0.119,-0.194C0.127,-0.199 0.134,-0.204 0.141,-0.21C0.149,-0.216 0.158,-0.222 0.168,-0.227C0.177,-0.232 0.186,-0.237 0.195,-0.243C0.198,-0.244 0.201,-0.246 0.203,-0.248C0.206,-0.249 0.21,-0.251 0.213,-0.252C0.216,-0.253 0.219,-0.255 0.222,-0.256C0.225,-0.257 0.228,-0.259 0.232,-0.26C0.235,-0.261 0.235,-0.26 0.234,-0.257C0.235,-0.255 0.235,-0.253 0.234,-0.252C0.233,-0.251 0.233,-0.249 0.232,-0.247L0.211,-0.231L0.198,-0.222L0.16,-0.186C0.152,-0.179 0.144,-0.171 0.136,-0.164C0.127,-0.157 0.118,-0.149 0.109,-0.142C0.106,-0.14 0.102,-0.138 0.1,-0.135C0.097,-0.132 0.093,-0.13 0.09,-0.127C0.087,-0.125 0.085,-0.123 0.083,-0.121C0.08,-0.119 0.078,-0.118 0.077,-0.117C0.068,-0.114 0.06,-0.114 0.055,-0.119L0.05,-0.123C0.045,-0.129 0.042,-0.133 0.041,-0.136C0.04,-0.139 0.04,-0.145 0.042,-0.154L0.046,-0.171C0.049,-0.18 0.052,-0.189 0.055,-0.198C0.058,-0.207 0.061,-0.216 0.065,-0.225L0.074,-0.25L0.076,-0.26C0.076,-0.263 0.075,-0.265 0.072,-0.266C0.07,-0.266 0.068,-0.266 0.067,-0.265L0.043,-0.241C0.039,-0.236 0.035,-0.232 0.029,-0.229C0.025,-0.225 0.019,-0.222 0.014,-0.221C0.012,-0.22 0.01,-0.219 0.009,-0.218C0.008,-0.217 0.006,-0.216 0.005,-0.214C0.003,-0.21 -0.002,-0.206 -0.009,-0.203L-0.016,-0.2C-0.022,-0.197 -0.026,-0.199 -0.029,-0.206C-0.032,-0.21 -0.032,-0.215 -0.031,-0.221C-0.028,-0.226 -0.026,-0.231 -0.024,-0.236C-0.023,-0.241 -0.021,-0.245 -0.019,-0.25C-0.016,-0.255 -0.013,-0.261 -0.01,-0.267C-0.007,-0.273 -0.005,-0.279 -0.003,-0.286C-0.002,-0.291 0,-0.296 0.003,-0.3C0.005,-0.306 0.007,-0.312 0.01,-0.318C0.013,-0.324 0.015,-0.33 0.017,-0.337C0.018,-0.341 0.02,-0.345 0.021,-0.348C0.023,-0.351 0.025,-0.355 0.026,-0.358C0.027,-0.361 0.03,-0.363 0.035,-0.363L0.045,-0.363C0.047,-0.363 0.049,-0.363 0.051,-0.363C0.054,-0.362 0.056,-0.361 0.057,-0.359C0.063,-0.354 0.065,-0.349 0.064,-0.343C0.064,-0.34 0.063,-0.337 0.062,-0.334C0.061,-0.331 0.06,-0.327 0.06,-0.324C0.061,-0.323 0.062,-0.322 0.064,-0.322C0.066,-0.322 0.068,-0.322 0.069,-0.323C0.074,-0.328 0.08,-0.333 0.086,-0.337C0.093,-0.341 0.099,-0.346 0.104,-0.351C0.111,-0.356 0.119,-0.358 0.129,-0.358C0.136,-0.358 0.142,-0.356 0.145,-0.352C0.146,-0.351 0.146,-0.349 0.147,-0.348C0.148,-0.347 0.148,-0.346 0.148,-0.345C0.15,-0.341 0.151,-0.338 0.15,-0.337C0.149,-0.332 0.147,-0.327 0.146,-0.324L0.111,-0.248L0.093,-0.202C0.09,-0.194 0.089,-0.187 0.09,-0.182C0.09,-0.18 0.091,-0.179 0.093,-0.179L0.095,-0.179L0.095,-0.178L0.097,-0.18Z" style="fill:rgb(71,97,111);fill-rule:nonzero;"/>
        </g>
        <g transform="matrix(306.932,0,0,277.783,48633,36247.6)">
            <path d="M0.11,-0.23C0.123,-0.239 0.139,-0.249 0.156,-0.258C0.159,-0.26 0.163,-0.262 0.166,-0.263C0.169,-0.264 0.172,-0.265 0.175,-0.266C0.178,-0.269 0.179,-0.269 0.179,-0.266C0.181,-0.264 0.181,-0.262 0.179,-0.261C0.179,-0.26 0.179,-0.259 0.178,-0.258C0.177,-0.256 0.175,-0.254 0.173,-0.252C0.172,-0.25 0.17,-0.248 0.168,-0.246C0.166,-0.245 0.164,-0.243 0.162,-0.242C0.16,-0.24 0.158,-0.238 0.156,-0.236C0.154,-0.233 0.152,-0.229 0.149,-0.225C0.146,-0.221 0.143,-0.218 0.14,-0.216C0.134,-0.213 0.129,-0.209 0.125,-0.204C0.12,-0.199 0.115,-0.195 0.11,-0.192L0.098,-0.182L0.066,-0.161C0.05,-0.152 0.033,-0.148 0.015,-0.149L0.001,-0.149C-0.007,-0.15 -0.013,-0.153 -0.017,-0.157C-0.02,-0.16 -0.023,-0.163 -0.024,-0.166C-0.026,-0.169 -0.028,-0.172 -0.03,-0.175C-0.031,-0.176 -0.031,-0.176 -0.031,-0.177C-0.032,-0.178 -0.032,-0.178 -0.032,-0.179C-0.031,-0.183 -0.03,-0.187 -0.029,-0.191C-0.029,-0.195 -0.029,-0.199 -0.028,-0.202C-0.026,-0.213 -0.025,-0.221 -0.026,-0.228C-0.026,-0.231 -0.026,-0.233 -0.025,-0.234C-0.02,-0.239 -0.015,-0.245 -0.011,-0.252C-0.007,-0.259 -0.003,-0.266 0,-0.273C0.001,-0.277 0.002,-0.281 0.005,-0.284C0.008,-0.288 0.01,-0.292 0.012,-0.296C0.013,-0.299 0.015,-0.301 0.017,-0.303C0.018,-0.305 0.02,-0.307 0.021,-0.309C0.024,-0.31 0.027,-0.312 0.029,-0.314C0.031,-0.316 0.033,-0.318 0.036,-0.32C0.041,-0.323 0.047,-0.326 0.053,-0.328C0.058,-0.331 0.064,-0.331 0.071,-0.328C0.074,-0.327 0.076,-0.325 0.077,-0.323C0.078,-0.321 0.079,-0.319 0.08,-0.317L0.095,-0.292C0.094,-0.291 0.091,-0.29 0.086,-0.288C0.081,-0.285 0.073,-0.285 0.06,-0.288C0.06,-0.288 0.059,-0.287 0.058,-0.286C0.05,-0.277 0.043,-0.268 0.037,-0.259C0.031,-0.25 0.025,-0.24 0.02,-0.23C0.017,-0.223 0.015,-0.217 0.013,-0.211C0.011,-0.205 0.01,-0.199 0.009,-0.193C0.008,-0.19 0.008,-0.187 0.01,-0.186C0.013,-0.183 0.015,-0.182 0.017,-0.182C0.02,-0.182 0.023,-0.183 0.027,-0.184C0.033,-0.187 0.039,-0.189 0.045,-0.192C0.051,-0.195 0.057,-0.198 0.064,-0.201C0.069,-0.204 0.074,-0.207 0.079,-0.211C0.084,-0.214 0.089,-0.217 0.094,-0.22L0.108,-0.23L0.108,-0.229L0.11,-0.23Z" style="fill:rgb(71,97,111);fill-rule:nonzero;"/>
        </g>
        <g transform="matrix(306.932,0,0,277.783,48680.3,36247.6)">
            <path d="M0.083,-0.021C0.085,-0.015 0.085,-0.01 0.084,-0.007C0.073,0.016 0.063,0.039 0.052,0.062C0.041,0.085 0.03,0.109 0.019,0.132C0.011,0.145 0.003,0.157 -0.006,0.169C-0.015,0.181 -0.024,0.193 -0.033,0.204C-0.04,0.213 -0.049,0.221 -0.058,0.227C-0.067,0.234 -0.078,0.238 -0.089,0.241C-0.102,0.246 -0.114,0.249 -0.125,0.248C-0.136,0.247 -0.147,0.242 -0.156,0.233C-0.159,0.231 -0.16,0.228 -0.16,0.225C-0.165,0.214 -0.167,0.203 -0.164,0.19C-0.162,0.178 -0.159,0.166 -0.155,0.154C-0.149,0.142 -0.143,0.13 -0.137,0.118C-0.131,0.106 -0.123,0.096 -0.114,0.088C-0.111,0.085 -0.108,0.081 -0.106,0.078C-0.104,0.075 -0.102,0.071 -0.099,0.068C-0.085,0.047 -0.069,0.027 -0.052,0.008C-0.035,-0.011 -0.018,-0.03 -0.001,-0.049C0.008,-0.06 0.019,-0.07 0.031,-0.079C0.042,-0.088 0.054,-0.098 0.065,-0.107C0.074,-0.112 0.082,-0.119 0.089,-0.127C0.096,-0.134 0.103,-0.142 0.11,-0.15C0.113,-0.156 0.117,-0.162 0.121,-0.169C0.125,-0.175 0.127,-0.182 0.126,-0.189C0.127,-0.197 0.13,-0.205 0.135,-0.212C0.139,-0.219 0.14,-0.228 0.137,-0.237C0.135,-0.236 0.133,-0.235 0.132,-0.234C0.131,-0.234 0.129,-0.233 0.128,-0.232L0.1,-0.208C0.093,-0.203 0.087,-0.198 0.081,-0.194C0.075,-0.19 0.068,-0.187 0.061,-0.186C0.048,-0.182 0.036,-0.182 0.025,-0.186C0.015,-0.19 0.009,-0.201 0.006,-0.218C0.008,-0.223 0.01,-0.23 0.012,-0.237C0.014,-0.244 0.016,-0.252 0.017,-0.259C0.018,-0.268 0.021,-0.276 0.025,-0.282C0.028,-0.288 0.032,-0.294 0.035,-0.301C0.039,-0.308 0.043,-0.315 0.048,-0.322C0.053,-0.329 0.057,-0.336 0.061,-0.345C0.064,-0.352 0.068,-0.357 0.073,-0.361C0.078,-0.365 0.084,-0.368 0.09,-0.369C0.097,-0.37 0.103,-0.37 0.108,-0.368C0.113,-0.365 0.115,-0.359 0.115,-0.35C0.104,-0.334 0.093,-0.317 0.083,-0.299C0.072,-0.281 0.063,-0.262 0.056,-0.243C0.059,-0.24 0.062,-0.238 0.064,-0.239C0.066,-0.241 0.068,-0.242 0.07,-0.245C0.101,-0.27 0.13,-0.298 0.157,-0.331C0.164,-0.338 0.171,-0.346 0.179,-0.353C0.183,-0.352 0.187,-0.35 0.192,-0.349C0.196,-0.348 0.201,-0.346 0.207,-0.345C0.206,-0.336 0.205,-0.328 0.205,-0.32C0.206,-0.312 0.204,-0.304 0.199,-0.296C0.19,-0.277 0.183,-0.259 0.179,-0.242C0.175,-0.224 0.17,-0.205 0.164,-0.186C0.165,-0.185 0.165,-0.185 0.165,-0.184L0.165,-0.178C0.168,-0.179 0.172,-0.18 0.175,-0.181C0.178,-0.181 0.181,-0.181 0.184,-0.181C0.184,-0.18 0.184,-0.18 0.185,-0.179C0.185,-0.178 0.185,-0.178 0.186,-0.177C0.186,-0.176 0.186,-0.176 0.186,-0.175C0.181,-0.171 0.178,-0.168 0.177,-0.167C0.162,-0.16 0.151,-0.15 0.143,-0.137C0.137,-0.124 0.131,-0.111 0.126,-0.098C0.121,-0.087 0.116,-0.077 0.111,-0.066C0.106,-0.055 0.101,-0.044 0.096,-0.034C0.095,-0.031 0.093,-0.029 0.09,-0.027C0.087,-0.024 0.085,-0.021 0.083,-0.018C0.085,-0.021 0.086,-0.024 0.086,-0.025C0.087,-0.026 0.087,-0.028 0.088,-0.029C0.087,-0.028 0.087,-0.026 0.086,-0.025C0.086,-0.024 0.085,-0.022 0.083,-0.021ZM0.086,-0.09C0.079,-0.09 0.074,-0.088 0.069,-0.085C0.064,-0.082 0.059,-0.078 0.054,-0.073C0.047,-0.069 0.041,-0.064 0.036,-0.059C0.031,-0.054 0.025,-0.048 0.019,-0.043C0.014,-0.038 0.008,-0.032 0.001,-0.027C-0.006,-0.021 -0.012,-0.015 -0.018,-0.01C-0.026,-0.002 -0.034,0.007 -0.041,0.016C-0.049,0.025 -0.056,0.036 -0.061,0.047C-0.067,0.06 -0.074,0.073 -0.082,0.086C-0.09,0.099 -0.097,0.111 -0.103,0.124C-0.109,0.133 -0.114,0.143 -0.117,0.154C-0.12,0.165 -0.123,0.175 -0.126,0.184C-0.127,0.194 -0.125,0.201 -0.12,0.204C-0.115,0.208 -0.109,0.208 -0.101,0.204C-0.096,0.201 -0.09,0.196 -0.084,0.191C-0.078,0.186 -0.073,0.181 -0.069,0.176C-0.058,0.163 -0.047,0.151 -0.037,0.139C-0.027,0.128 -0.018,0.113 -0.011,0.096C-0.01,0.092 -0.009,0.088 -0.006,0.085C-0.003,0.082 -0.001,0.078 0.002,0.074C0.007,0.065 0.013,0.057 0.019,0.05C0.025,0.043 0.03,0.036 0.033,0.028C0.039,0.015 0.046,0.002 0.053,-0.011C0.059,-0.024 0.066,-0.036 0.072,-0.049C0.075,-0.054 0.079,-0.06 0.082,-0.067C0.085,-0.074 0.087,-0.081 0.086,-0.09Z" style="fill:rgb(71,97,111);fill-rule:nonzero;"/>
        </g>
    </g>
</svg>
