<?xml version="1.0" encoding="UTF-8"?>
<!DOCTYPE svg PUBLIC "-//W3C//DTD SVG 1.1//EN" "http://www.w3.org/Graphics/SVG/1.1/DTD/svg11.dtd">
<svg clip-rule="evenodd" fill-rule="evenodd" stroke-linejoin="round" stroke-miterlimit="2" version="1.1" viewBox="0 0 6609 2787" xml:space="preserve" xmlns="http://www.w3.org/2000/svg" xmlns:serif="http://www.serif.com/">
    <rect width="6608.6" height="2786.2" fill="none"/>
    <clipPath id="b">
        <rect width="6608.6" height="2786.2" serif:id="Artboard1"/>
    </clipPath>
    <g clip-path="url(#b)">
        <g transform="translate(1 1)">
            <clipPath id="a">
                <rect width="6608.6" height="2786.2"/>
            </clipPath>
            <g clip-path="url(#a)">
                <g transform="matrix(8.3333 0 0 8.3333 2442.4 2842.6)">
                    <path d="m0-74.68c-0.22 0.21-27.82 20.08-28 20.25-0.08 0-0.24-0.17-0.46-0.47-31.12 19.33-200.28 55.7-200.28 55.7h-64.35v-62.57s52.85 0.24 64.22 11.61c1.05 1.05 38.66-5.5 47.68-5.59-0.03-1.27-0.18-2.54 0.13-3.8 0.29-0.05 0.63-0.03 0.88-0.15 0.55-0.27 0.69-0.94 0.19-1.21-1.24-0.66-0.87-1.78-0.98-2.78 0.77 1.18 2.04 1.51 3.27 1.77 0.86 0.18 1.57 0.49 2.13 1.3 0.75-1.15 1.6-1.43 2.68-0.74 0.47 0.29 0.99 0.22 1.49 0.06 0.4-0.12 0.82-0.2 1.19 0.01 1.87 1.07 3.99 0.64 5.97 1.02 0.99 0.2 2-0.04 3.01-0.3 1.34-0.36 2.64-1.16 4.14-0.64 0.29 0.1 0.58-0.1 0.85-0.28 1.15-0.74 2.32-1.45 3.45-2.23 0.43-0.3 0.77-0.42 1.24-0.12 0.43 0.27 0.81 0.18 0.94-0.35 0.16-0.69 0.66-1 1.26-1.19 0.45-0.15 0.85-0.39 1.13-0.75 0.66-0.84 1.4-0.87 2.28-0.36 0.83 0.47 1.64 0.41 2.37-0.29 0.55-0.53 1.28-0.6 1.99-0.64 0.25-0.01 0.58 0.11 0.61-0.24 0.05-0.45 0.11-0.8 0.68-0.8 0.4 0.01 0.84-0.08 1.19 0.17 0.7 0.51 1.58 0.28 2.22 0.22 0.93-0.08 2.06-0.62 2.59-1.43 0.8-1.22 1.83-1.68 3.15-1.85 0.42-0.06 0.96-0.13 0.69-0.86-0.15-0.41 0.22-0.46 0.53-0.53 1.09-0.24 1.7 0.37 2.2 1.2 0.12 0.05 0.24 0.09 0.36 0.14 0.8 0.36 1.59 0.25 2.35-0.09 0.58-0.26 1.15-0.35 1.77-0.15 0.97 0.33 2.01 0.13 3.01 0.25 2.18 0.25 4.18-0.73 6.18-1.62 1.17-0.53 2.65-1.13 3.88 0.27 0.3 0.35 0.86 0.52 1.33 0.68 0.52 0.17 0.94-0.19 1.12-0.58 0.26-0.54-0.38-0.42-0.62-0.61-0.07-0.06-0.09-0.17-0.14-0.25 0.98-0.64 0.98-0.64 1.31 0.29 0.37 1.01 0.85 1.15 1.89 0.8 0.68-0.23 0.79-0.87 1.21-1.34 0.62 0.57 1.49 0.73 1.77 1.62 0.11 0.36 0.49 0.52 0.86 0.53 0.46 0.03 0.89 0.17 1.31 0.35 0.3 0.01 0.61-0.03 0.9 0.03 1.62 0.35 3.23 0.62 4.92 0.6 1.37-0.02 2.94 1.43 3.33 2.67 1.34-0.74 3.81-1.42 4.33-1.58 0.29-0.09 0.64 0.12 0.88-0.11 1.58-1.5 3.23-0.88 4.83-0.1 0.48 0.23 0.88 0.08 1.32 0.06 0.49-0.03 1.02-0.25 1.08 0.6 0.03 0.45 0.63 0.44 0.92 0.71 0.14 0.1 0.28 0.19 0.42 0.29 0.18 0.3 6.14 1.11 12.51-0.64 3.86-1.06 7.16 3.01 9.36 2.76-0.17-0.02-0.26-1.48-0.65-2.12 0.28-1.35 1.15-1.9 2.49-1.79 0.17 0.28 1.05-0.24 0.87-0.28-0.19-0.05 5.542-2.962 5.682-3.012 0.91-0.331 9.308-0.545 10.188-0.875 0.18-0.06 9.06-1.443 18.83-0.143 10.3 1.37 17.76-0.5 17.92-0.5" fill="#dfe0d2" fill-rule="nonzero"/>
                </g>
                <g transform="matrix(8.3333 0 0 8.3333 5086 3187.9)">
                    <path d="m0-122.22c-0.05 0.24-0.09 0.49-0.15 0.73-0.03 0.14-0.12 0.28-0.3 0.27-0.23-0.01-0.36-0.17-0.35-0.38 0.02-0.24 0.1-0.48 0.16-0.72 0.05-0.23 0.07-0.54 0.4-0.49 0.32 0.06 0.29 0.34 0.24 0.59m-3.24-4.01c0.59-0.02 0.78 0.37 1.05 0.55-0.03 0.28-0.16 0.34-0.32 0.34-0.48-0.03-0.69-0.32-0.73-0.89m-465.18 55.68h-0.22c0.07-0.01 0.13-0.02 0.2-0.03l0.09-0.07-0.08 0.08c0 0.01 0 0.01 0.01 0.02m650.67-46.7s-10.88 6.07-23.4 4.88c-12.51-1.2-33.913-4.66-61.913-4.66-35.25 0 0.693 3.31-77.207 7.34-0.12-0.02-0.24-0.05-0.36-0.07-0.07-0.07-0.14-0.16-0.2-0.27-0.2-0.33-0.69-0.13-0.99 0.02-0.01 0-0.01 0-0.01 0.01-0.61-0.12-1.25-0.25-1.92-0.37 0-0.01-0.01-0.01-0.02-0.01-0.5-0.35-1.31-0.22-1.34-1.18-0.02-0.5-0.51-0.59-0.94-0.5-0.5 0.11-0.99 0.25-1.46 0.43-1.1 0.43-1.59 0.37-2.17-0.57-0.42-0.67-0.71-1.19-1.37-0.23-0.21 0.3-0.56 0.26-0.79 0-0.26-0.29-0.12-0.6 0.17-0.76 0.63-0.33 1.25-1.01 2.01-0.17 0.36 0.4 0.82 0.32 1.27 0.13 0.37-0.16 0.68-0.44 0.41-0.81-0.35-0.49-0.25-0.81 0.16-1.17 0.16-0.14 0.12-0.35-0.06-0.52-0.91-0.85-0.59-1.81-0.23-2.78 0.01-0.2 0.01-0.41 0.01-0.62-0.29-0.7-1.12-0.98-1.35-1.76-0.1-0.36-0.48-0.21-0.78-0.2-1 0.01-1.09-0.14-0.91-1.39-0.05-0.29-0.1-0.58-0.14-0.87-0.1-0.02-0.19-0.06-0.28-0.1-0.08 0.03-0.17 0.04-0.26 0.05-0.01 0.05-0.01 0.09-0.03 0.14-0.07 0.19-0.03 0.57-0.34 0.43-0.26-0.11-0.06-0.39 0.09-0.57-0.21-0.15-0.34-0.35-0.34-0.61-0.25-0.19-0.58-0.8-0.8-0.31-0.51 1.13-1.34 1.03-2.26 0.88-0.1-0.02-0.2 0.02-0.3 0.03 0.01-0.29 0.02-0.59 0.03-0.89 0.02-0.59-0.15-0.93-0.86-0.91-0.87 0.04-0.67-0.47-0.37-0.96-0.1-0.29-0.25-0.54-0.52-0.72-0.57 0.14-1.01 0.41-1.1 1.07-0.09 0.69-0.58 0.87-1.19 0.86-0.11 1.05-0.9 1.38-1.76 1.64-0.46 0.14-0.85 0.01-1-0.43-0.19-0.52 0.33-0.52 0.63-0.65 0.14-0.06 0.29-0.08 0.43-0.13 0.78-0.29 0.88-0.49 0.36-1.03-0.87-0.9-0.99-2.35-2.25-2.95-0.51-0.25 0.24-1.17-0.55-1.21-0.5-0.02-0.42 0.87-0.92 0.9-0.75 0.05-1.64 0.32-2.21-0.21-1.15-1.05-2.09-0.63-3.08 0.14-0.05 0.04-0.09 0.09-0.12 0.16-0.21 0.75-1.19 1.26-0.64 2.3-1.04-1.24-2.74-1.33-3.7-2.52-0.12 0.44 0.02 1.03-0.69 1.08-0.08 0.27-0.25 0.46-0.52 0.56 0 0.19-0.01 0.39-0.01 0.58-0.01 0.71-0.2 1.18-1.06 0.91-0.35-0.11-0.69 0.02-1.03 0.11-0.46 0.13-0.89 0.11-1.24-0.25l-1.08 0.39c-0.56 0.45-1.14 0.83-1.86 0.3l-0.14 0.03-0.14-0.01c-0.53-0.1-1.06-0.23-1.59-0.29-0.78-0.1-1.18-0.46-1.11-1.27l-0.02-0.03c-0.36 0.06-0.69 0.01-0.97-0.22-0.19 0.02-0.37 0.05-0.56 0.08-0.9 0.59-1.81 0.15-2.69-0.01-0.38-0.07-0.71-0.37-1.14-0.23-0.94 0.31-1.41-0.21-1.72-0.99-0.29 0-0.58 0-0.87-0.01-0.06 0.09-0.11 0.23-0.18 0.24-1.22 0.17-1.98 1.04-2.83 1.8-0.18 0.17-0.41 0.45-0.6 0.43-0.88-0.09-1.39 0.45-1.91 1-0.35 0.37-0.79 0.42-1.25 0.44-0.4-0.1-0.8-0.19-1.2-0.29-0.11 0.22-0.2 0.45-0.32 0.67-0.86 1.54-0.86 1.54-2.53 1.03-0.75 0.27-1.51 0.03-2.26 0-0.66-0.03-1.3 0.01-1.95 0.1v0.01c-0.12 0.22-0.2 0.47-0.36 0.65-0.28 0.34-0.42 0.56-0.05 1.01 0.43 0.53 0.24 0.86-0.43 1-0.19 0.05-0.4 0.01-0.6 0.02-0.46 0.02-0.72 0.31-0.86 0.71-0.15 0.42 0.06 0.67 0.39 0.87 0.15 0.09 0.26 0.21 0.35 0.34-6.49-0.46-12.85-0.75-19.03-0.88-0.07-0.02-0.13-0.05-0.21-0.07-0.57-0.13-0.94-0.54-0.94-1.19-0.35-0.35-0.84-0.3-1.26-0.42-0.15-0.37 0.09-0.59 0.3-0.78 0.51-0.46 0.54-1.07 0.19-1.5-0.39-0.48-0.6-1.2-1.6-1.07-0.74 0.09-1.52 0.6-2.3 0.13l-0.24-0.21c-0.09-0.04-0.19-0.08-0.29-0.12-1.02-0.27-2.05-0.52-3.06-0.84-1.57-0.48-2.72 0.37-3.89 1.16-0.11 0.08-0.16 0.27-0.28 0.35-0.5 0.34-0.98 0.83-1.53 0.93-0.73 0.13-0.88-0.69-1.24-1.16-0.09-0.11-0.19-0.27-0.31-0.31-1.21-0.4-2.4-0.14-3.58 0.16-0.79 0.21-1.11 0.82-1.33 1.53-0.05 0.19-0.12 0.39-0.2 0.57-0.17 0.35-0.05 0.88-0.49 1.06-0.46 0.18-0.52-0.37-0.8-0.55-0.38-0.24-0.78-0.19-1.18-0.13-0.49 0.07-0.98 0.27-1.49 0.09-0.31 0.1-0.56 0.27-0.75 0.54-0.44 0.47-0.92 0.9-1.52 1.17l-0.02 0.03c-0.06 0.1-0.13 0.2-0.2 0.3l-0.06 0.1c-0.17 0.19-0.32 0.37-0.44 0.55l2.45 0.2c-7.08 0.45-13.72 1.15-19.78 2.07-13.88-9.08-47.48-5.15-81.65-5.15-27.24 0-45.788-6.798-61.548-0.578 0.44-0.83-0.432-0.742 0.198-1.362 0.02-0.32-0.03-0.62-0.44-0.59-0.54 0.04-0.78-0.31-0.97-0.73l-0.12-0.07c-0.23-0.03-0.46-0.06-0.68-0.1-0.19-0.04-0.37-0.08-0.55-0.13-0.25 0.09-0.48 0.08-0.68-0.1-0.07-0.01-0.13-0.04-0.18-0.09-0.55-0.23-1.08 0-1.62 0.06-0.1 0.21-0.28 0.3-0.49 0.35 0.01 1.02-0.38 1.84-1.18 2.47l0.33 1.32c-0.68 0.45-1.4 0.59-2.21 0.72-1.75 0.3-3.49 0.77-4.96 1.89-0.26 0.2-0.43 0.43-0.53 0.72-0.19 0.6-0.49 0.87-1.21 0.87-0.69 0.01-1.09 0.78-1.68 1.14-0.9 0.54-0.93 0.56-1.11-0.47-0.05-0.28-0.15-0.48-0.34-0.65-0.39-0.35-0.76-0.68-0.54-1.29 0.07-0.19-0.01-0.49-0.21-0.52-0.86-0.09-0.78-0.82-0.97-1.36-0.17-0.49-0.33-0.86-0.96-0.58-0.34 0.15-0.79 0.14-0.97-0.21-0.54-1.07-1.36-0.57-2.12-0.44-0.14 0.02-0.27 0.17-0.41 0.18-1.82 0.12-3.47 0.61-4.69 2.05-0.38 0.44-1.04-0.08-1.27 0.27-0.43 0.65-0.92 0.59-1.57 0.54-0.4-0.02-0.85 0.28-1.24 0.51-0.76 0.47-1.43 1.12-2.48 0.74-0.21-0.08-0.63 0.11-0.82 0.31-0.58 0.6-1.35 0.68-2.08 0.84-1.13 0.24-1.6-0.08-1.87-1.18-0.1-0.39-0.17-0.79-0.26-1.2-0.38 0.2-0.29 0.54-0.35 0.82-0.08 0.41-0.28 0.63-0.73 0.59-0.41-0.04-0.65-0.25-0.69-0.67-0.14-1.66-0.76-3.27-0.57-4.97-0.06-0.49-0.11-0.98-0.17-1.46-0.33-2.47-0.68-4.94-1-7.42-0.78-6.05-1.44-12.12-2.38-17.76-0.88 8.26-1.19 16.95-2.21 25.75-2.22-1.18-4.2-0.92-6.16-0.03-0.16 0.58-0.6 0.85-1.13 1.03-0.39 0.14-0.66-0.01-0.77-0.42-0.04-0.04-0.09-0.07-0.15-0.09h-1.13l-0.39 0.3h-0.56c-0.26 0.04-0.51 0.08-0.76 0.12-0.18 0.21-0.39 0.3-0.67 0.26-0.18-0.01-0.36-0.02-0.55-0.03-0.36 0.36-0.82 0.35-1.28 0.33-0.19 0.1-0.38 0.21-0.56 0.32-0.08 0.24-0.23 0.48-0.23 0.72-0.05 2.11-1.58 2.9-3.23 3.43-1.81 0.58-2.87 1.83-3.62 3.45-0.53 1.14-1.36 1.89-2.6 2.11-0.99 0.17-1.61 0.77-2.08 1.6-0.52 0.92-1.21 1.59-2.36 1.55-0.19-0.01-0.37-0.02-0.56-0.03-0.73-0.29-1.46-0.58-2.18-0.87l-0.57 0.06c-0.51 0.7-0.83 0.22-1.17-0.19-0.68-0.81-0.88-0.82-1.55-0.01-0.16 0.19-0.31 0.41-0.43 0.63-0.71 1.31-0.85 1.45-2.1 2.07-0.23 0.12-0.49 0.29-0.37 0.58 0.32 0.74-0.17 0.73-0.65 0.78-1.56 0.18-2.81-0.71-4.18-1.17-0.19 0-0.38 0-0.58-0.01-0.88 0.17-1.81-0.23-2.68 0.19-0.12 0.05-0.34 0.02-0.44-0.06-0.95-0.85-2.2-0.91-3.44-1.28 0.32-0.48 0.67-0.35 0.99-0.31 0.46 0.06 0.91 0.18 1.36 0.19 1 0.02 1.24-0.19 1.43-1.17l0.18-1.05-0.08-0.08c-0.52 0.21-0.96 0.08-1.33-0.32-0.19-0.04-0.37-0.09-0.56-0.14-0.32 0.39-0.72 0.78-1.22 0.45-0.39-0.27 0.02-0.72-0.01-1.08-0.7-0.5-1.18-1.3-2.09-1.51-0.97 0.02-1.93 0.03-2.86-0.32-0.35-0.14-0.68-0.19-0.95 0.16-0.47 0.58-0.99 0.81-1.71 0.35-0.33-0.2-0.57 0.09-0.62 0.44-0.05 0.3-0.07 0.6-0.07 0.91 0.01 0.58-0.09 1.11-0.67 1.42-0.28 0.15-0.45 0.4-0.53 0.71-0.19 0.7-0.8 1.02-1.36 1.07-1.51 0.14-2.19 0.89-2.09 2.3-0.29 0.18-0.47 0.11-0.65 0.01-0.24-0.13-0.48-0.53-0.75-0.13-0.22 0.33-0.39 0.77 0.05 1.09 0.41 0.29 0.85 0.54 1.29 0.8 1.05 0.63 1.34 0.96 1.55 1.83-0.44 0.23-0.6-0.23-0.88-0.38-0.23-0.11-0.58-0.32-0.66-0.05-0.28 0.92-0.76 0.41-1.27 0.3-0.98-0.21-1.91-0.07-2.7 0.87 0.54 0.1 1.22 0.07 1.05 0.87 0.25 0 0.5-0.02 0.74 0.02 0.33 0.06 0.38 0.3 0.19 0.54-0.53 0.71-1.88 1.01-2.79 0.64-1.7 0.38-3.31 1.12-5.07 1.23-0.47 0.03-0.84 0.33-1.28 0.42-0.21-0.02-0.42-0.04-0.64-0.06-1.02 0.25-2.05-0.11-3.07 0.01l-0.15 0.03-0.14-0.02c-1.15 0.26-2.31 0.49-3.47 0.02l-0.3-0.27c-0.78-0.22-1.58-0.24-2.37-0.04-1.41 0.35-2.63 0.1-3.57-1.11-0.17-0.21-0.5-0.31-0.75-0.46-0.82-0.55-1.52-1.25-2.57-1.49-0.53-0.13-0.91-0.28-1.37 0.1-0.22 0.2-0.5 0.34-0.78 0.46-0.45 0.18-0.85 0.26-1.14-0.32-0.37-0.71-1.05-0.97-1.82-0.79-1.31 0.31-2.63 0.19-3.95 0.16-0.8 0.67-1.78 0.2-2.66 0.39-0.15 0.42-0.44 0.59-0.82 0.34-0.35-0.23-0.77-0.27-1.12-0.43-1.71-0.78-3.58-0.46-5.36-0.78-1.41-0.25-2.91 0.21-4.3 0.77-2.35 0.94-4.69 1.91-7.01 2.91-1.89 0.82-3.82 1.54-5.64 2.63-2.32 1.4-4.81 2.62-7.4 3.55-0.57 0.21-1.2 0.35-1.62 0.82-0.57 0.65-1.33 1.01-2.1 1.18-3.07 0.71-5.47 2.91-8.48 3.73-1.84 1.43-4.11 1.98-6.21 2.83-1.67 0.67-3.52 0.92-5.3 1.34-2.32 0.55-4.78 0.4-7.04 1.24-1.42 0.53-2.81 0.76-4.32 0.35-0.56-0.16-1.26-0.17-1.81 0-1.61 0.5-3.35 0.33-4.92 1-0.5 0.22-0.99 0.07-1.49-0.06-3.01-0.83-6.1-0.95-9.19-1.12-0.37-0.02-0.72-0.07-1.06-0.14-0.8-0.38-1.74-0.74-2.8-1.07-0.4-0.22-0.79-0.47-1.18-0.74-0.61-0.42-2.425-0.571-2.435-0.231-31.141 7.148-110.56 0.751-110.56 0.751v53.68h54.84v55.79h438.25l12.95-92.49c24.38 9.69 54.22 17.82 80.19 19.7 28.96 2.11 41.91-14.64 47.66-31.24 26.47 12.84 73.36 25.37 111.16 25.37 55.99 0 47.52-65.54 47.52-65.54" fill="#949988" fill-rule="nonzero"/>
                </g>
                <g transform="matrix(8.3333 0 0 8.3333 5707.4 1563.5)">
                    <path d="m0 91.283c-0.092 0.319-0.299 0.546-0.641 0.558-0.383 0.013-0.483-0.293-0.582-0.593-0.062-0.191-0.163-0.369-0.247-0.553-0.147 0.211-0.118 0.637-0.527 0.52-0.104-0.029-0.224-0.371-0.172-0.507 0.176-0.463 0.45-0.118 0.688-0.029 0.272-0.49 0.642-0.626 1.135-0.315 0.345 0.218 0.457 0.532 0.346 0.919m-53.06 4.321 0.062-0.099 0.046 0.109-0.108-0.01zm-8.777-4.269c-0.09 0.306-0.335 0.484-0.678 0.428-0.082-0.014-0.199-0.094-0.219-0.166-0.101-0.376 0.181-0.508 0.444-0.655 0.169-0.095 0.323-0.214 0.484-0.324-5e-3 0.241 0.035 0.494-0.031 0.717m-124.86-21.476c-0.047 0.241-0.087 0.484-0.144 0.722-0.037 0.149-0.126 0.282-0.299 0.274-0.23-0.01-0.363-0.173-0.35-0.381 0.014-0.241 0.094-0.479 0.151-0.717 0.055-0.229 0.072-0.543 0.403-0.489 0.32 0.053 0.289 0.34 0.239 0.591m-3.236-4.014c0.587-0.015 0.774 0.37 1.048 0.549-0.026 0.282-0.164 0.345-0.317 0.338-0.485-0.023-0.693-0.317-0.731-0.887m-43.894 13.166c0.698-0.051 1.093 0.076 1.781 0.413-0.752 4e-3 -1.169-0.011-1.781-0.413m-18.051-4.187c0.044 0.059 0.087 0.118 0.131 0.177-0.194 0.034-0.133-0.09-0.131-0.177m-34.634 0.151c0.592-0.152 0.938 0.085 1.422 0.593-0.715 0.038-1.076-0.129-1.422-0.593m-18.859-27.721c-0.361 0.019-0.553 0.441-1.071 0.391-0.321-0.439-0.246-0.898-0.118-1.324 0.146-0.485 0.536-0.711 1.044-0.678 0.438 0.029 0.799 0.223 0.855 0.689 0.06 0.5-0.11 0.891-0.71 0.922m-10.713 0.213c-0.355 0.019-0.615 0.387-0.994 0.197-0.227-0.362-0.188-0.777-0.153-1.167 0.04-0.457 0.365-0.716 0.816-0.736 0.448-0.02 0.847 0.187 0.858 0.654 9e-3 0.399 0.094 1.018-0.527 1.052m-188.05 90.005c-0.919 0.039-1.596-0.164-1.806-1.16h9.423c-1.187 0.601-2.404 1.12-3.797 1.139-1.274 0.017-2.549-0.033-3.82 0.021m-4.24-0.022c-0.37 8e-3 -0.718-0.011-0.743-0.533-9e-3 -0.204-0.075-0.415-0.164-0.605h2.086c-0.039 0.232-0.077 0.464-0.151 0.684-0.167 0.496-0.626 0.446-1.028 0.454m-3.91 0.052c-0.838-0.053-1.481-0.268-1.916-1-0.043-0.071-0.086-0.134-0.13-0.19h3.735c-0.305 0.734-0.7 1.254-1.689 1.19m-4.247-0.021c-0.869-0.014-1.755 0.068-2.404-0.682-0.125-0.146-0.221-0.317-0.321-0.487h4.169c-0.03 0.049-0.06 0.1-0.089 0.166-0.274 0.62-0.623 1.016-1.355 1.003m-4.695-0.787c-0.015-0.127-0.029-0.255-0.043-0.382h1.606c-0.218 0.199-0.25 0.545-0.469 0.73-0.519 0.436-1.013 0.33-1.094-0.348m-1.96 1.062c-3.107 0.035-6.215 0.013-9.322 6e-3 -0.198 0-0.401-0.053-0.594-0.109-0.159-0.045-0.226-0.189-0.235-0.348-0.01-0.182 0.115-0.284 0.26-0.333 0.19-0.066 0.395-0.091 0.591-0.142 0.334-0.087 0.76-0.128 0.831-0.518h10.027c-0.08 1.046-0.463 1.431-1.558 1.444m-32.96-1.444h0.311c8e-3 0.054 9e-3 0.101 0.022 0.159-0.111-0.062-0.223-0.113-0.333-0.159m-5.219 1.622c-0.356 0.164-0.551-0.135-0.715-0.397-0.081-0.129-0.12-0.284-0.205-0.409-0.389-0.572-0.659-0.579-0.87 0.103-0.277 0.895-0.8 1.205-1.695 1.151-1.197-0.072-1.503-0.297-1.502-1.543 0-0.197-0.044-0.366-0.104-0.527h4.878c0.157 0.229 0.318 0.452 0.425 0.701 0.148 0.343 0.203 0.73-0.212 0.921m-7.041 0.669c-1.014 0.341-2.068-0.021-2.547-0.841-0.202-0.345-0.259-0.777-0.629-1.02-0.192-0.126-0.328-0.271-0.43-0.43h4.368c-0.019 0.171-0.022 0.346-3e-3 0.525 0.076 0.745 0.106 1.476-0.759 1.766m-63.483-125.83c-0.171 0.512-0.127 1.106-0.13 1.663-1e-3 0.292-1e-3 0.584-3e-3 0.875 2e-3 -0.291 2e-3 -0.583 3e-3 -0.875 2e-3 -0.557-0.041-1.151 0.13-1.663 0.131-0.392 0.169-0.768 0.167-1.139 2e-3 0.371-0.036 0.747-0.167 1.139m-0.423 10.534c0.142-0.856 0.255-1.715 0.28-2.581-0.024 0.866-0.138 1.725-0.28 2.581m-1.311 15.317c0.19-1.716 0.397-3.432 0.431-5.162-0.034 1.73-0.24 3.446-0.431 5.162m-3.325 15.033c-0.134 0.03-0.256 0.039-0.364 0.026 0.108 0.013 0.23 4e-3 0.363-0.026 0.323-0.072 0.641-0.332 0.892-0.671-0.251 0.339-0.569 0.599-0.891 0.671m-4.051-9.851c-0.028 0.102-0.041 0.208-0.056 0.314 0.015-0.106 0.028-0.212 0.055-0.314 0.017-0.064 0.059-0.134 0.112-0.193-0.053 0.059-0.094 0.129-0.111 0.193m-1.138 5.902c-0.027 0.132-0.06 0.264-0.12 0.372 0.06-0.108 0.093-0.24 0.12-0.372 0.337-1.669 0.668-3.34 0.995-5.011-0.327 1.671-0.658 3.342-0.995 5.011m-1.344 31.685c-0.439 0.446-0.753 0.932-0.884 1.561-0.204 0.976-0.872 1.479-1.848 1.503-0.868 0.021-1.718 0.112-2.568 0.289-1.162 0.241-2.094-0.315-2.912-1.027-0.655-0.57-1.103-1.341-1.456-2.124-0.336-0.747-0.153-1.513 0.349-2.154 0.502-0.64 1.063-1.231 1.793-1.631 0.356-0.196 0.711-0.397 1.046-0.625 1.02-0.693 1.05-0.849 0.241-1.743-0.415-0.458-0.822-0.877-0.835-1.562-0.019-0.982 1.168-2.311 2.383-2.593 1.434-0.335 3.085 0.622 3.478 2.027 0.294 1.05-0.226 1.804-1.021 2.341-0.736 0.497-1.169 0.951-0.564 1.839 0.153 0.224 0.097 0.59 0.133 0.892 0.188 1.544 0.925 2.097 2.484 1.854 0.197-0.031 0.387-0.121 0.683 0.039 0.052 0.512-0.222 0.828-0.502 1.114m-9.448 5.243c-0.871 1.858-1.719 2.289-3.612 1.564-0.918-0.352-1.528-0.22-2.156 0.463-0.275 0.299-0.555 0.816-1.121 0.399-0.203 4e-3 -0.406 7e-3 -0.609 0.011-1.112 0.262-1.747-0.516-2.46-1.126-0.077-0.012-0.152-0.032-0.225-0.058-0.855-0.171-1.094-0.828-1.232-1.565-0.093-0.092-0.187-0.185-0.281-0.278-0.699-0.655-0.838-1.334-0.358-2.067 1.117-1.709 4.714-3.244 6.367-0.832 0.326 0.476 0.798 0.575 1.33 0.575 0.914-1e-3 1.832-0.034 2.741 0.04 1.717 0.141 2.352 1.306 1.616 2.874m-11.594 10.291c-0.506 0.259-0.727 0.644-0.807 1.196-0.079 0.543-0.517 0.773-1.016 0.705-0.804-0.11-1.611-0.249-2.388-0.477-0.783-0.23-0.651-1.186-1.161-1.696-0.218-0.218 0.255-0.437 0.555-0.507 1.087-0.255 1.111-0.264 0.749-1.343-0.224-0.668 0.04-1.076 0.58-1.386 0.366-0.211 0.779-0.215 1.188-0.22 1.701-0.196 2.857 1.605 2.734 2.811-0.038 0.375-0.086 0.74-0.434 0.917m-7.357-23.116c-1.041-0.015-1.789-0.397-1.744-0.871 0.073-0.759 0.744-0.875 1.317-1.039 0.531-0.152 1.079-0.248 1.62-0.364 0.461-0.098 0.91-0.068 1.316 0.188 0.606 0.381 0.621 1.202-0.037 1.44-0.847 0.305-1.719 0.588-2.472 0.646m-2.123 8.22c-0.514-0.068-1.038-0.205-1.138-0.824-0.068-0.416 0.522-0.783 1.192-0.754 0.479 0.065 0.967 0.217 1.05 0.844 0.063 0.476-0.449 0.82-1.104 0.734m-1.492 4.705c-0.908 0.602-1.708 0.468-2.499-0.402-0.31-0.341-0.7-0.372-1.057-0.537-0.191-0.089-0.382-0.218-0.368-0.438 0.018-0.283 0.341-0.564 0.489-0.473 1.254 0.775 2.417-0.232 3.621-0.127 0.483 0.042 1.033 0.015 1.374 0.61-0.408 0.573-0.988 0.987-1.56 1.367m-0.859 15.45c-0.227 0.11-0.465 0.199-0.705 0.278-0.913 0.302-1.8 0.621-1.781 1.835 1e-3 0.039-0.17 0.082-0.261 0.124-0.22 0.28-0.526 0.36-0.862 0.376-0.125 0.095-0.242 0.086-0.351-0.027-0.09-0.016-0.178-0.037-0.265-0.065-0.116-0.082-0.231-0.163-0.346-0.245-0.101-0.105-0.202-0.209-0.303-0.314-0.198-0.048-0.39-0.135-0.381-0.364 0.011-0.289 0.221-0.402 0.49-0.42 0.169-0.049 0.339-0.097 0.509-0.146 0.064-0.884-0.382-1.733-0.171-2.626-0.079-0.13-0.158-0.259-0.237-0.389-0.202-0.147-0.173-0.276 0.031-0.39 0.236-0.194 0.471-0.388 0.706-0.582 0.027-0.171 0.134-0.253 0.3-0.269 0.092-0.035 0.182-0.074 0.27-0.118 0.097-0.132 0.227-0.182 0.388-0.15 0.473 5e-3 0.946 0.01 1.419 0.016 0.152-0.032 0.273 0.014 0.361 0.143 0.104 0.047 0.208 0.093 0.311 0.14 0.139-0.01 0.225 0.05 0.251 0.189l0.079 0.066c0.779 0.544 0.745 1.472 1.023 2.243 0.107 0.295-0.186 0.556-0.475 0.695m-3.146-35.213c0.024-0.45 0.61-0.846 1.267-0.858 0.75-0.012 1.279 0.385 1.299 0.976 0.021 0.569-0.444 0.968-1.115 0.96-0.717-9e-3 -1.477-0.574-1.451-1.078m2.566 11.672c0.491-7e-3 0.738 0.27 0.737 0.768-0.134 0.648-0.608 0.758-1.153 0.68-0.414-0.059-0.883-0.233-0.783-0.736 0.117-0.585 0.673-0.704 1.199-0.712m-4.132-17.585c-0.68 0.189-1.309-0.092-1.704-0.714-0.401-0.63-0.171-1.21 0.536-1.42 0.349-0.104 0.716-0.121 1.05 0 0.695 0.253 1.344 0.198 2.065 0.021 1.106-0.27 2.079 0.322 3.001 0.836 0.601 0.335 0.527 0.971-0.067 1.33-0.289 0.174-0.563 0.215-1.791 0.222-0.148-0.014-0.639 0.042-1.043-0.12-0.686-0.277-1.314-0.359-2.047-0.155m12.575 0.409c0.419-0.353 0.95-0.464 1.431-0.303 0.905 0.303 1.799 0.664 2.647 1.101 0.585 0.301 0.511 0.87-0.12 1.115-0.466 0.18-0.973 0.253-1.483 0.379-1.092-0.223-1.82-1.031-2.652-1.645-0.22-0.163-0.025-0.477 0.177-0.647m0.592 12.833c0.657-0.384 1.526-0.238 1.753 0.3 0.206 0.485 0.079 0.948-0.427 1.138-0.529 0.198-1.105 0.28-1.484-0.334l-0.019-0.016c-0.697-0.484-0.295-0.813 0.177-1.088m0.352 6.015c0.322 0.037 0.578 0.174 0.563 0.566-0.133 0.482-0.493 0.606-0.927 0.545-0.377-0.052-0.729-0.266-0.629-0.681 0.117-0.489 0.584-0.478 0.993-0.43m5.109-4.118c1.097-0.195 1.566 0.106 1.782 0.924 0.281 1.067-0.071 1.797-1.067 2.205-0.729 0.299-1.491 0.242-2.541 0.193-0.619-0.018-1.543 0.036-2.326-0.576-1.006-0.785-0.907-1.699 0.26-2.199 0.229-0.098 0.486-0.185 0.73-0.184 1.07 2e-3 2.111-0.176 3.162-0.363m0.763-5.601c0.637-0.525 1.374-0.547 2.136-0.366 0.144 0.034 0.288 0.096 0.415 0.172 0.347 0.208 0.731 0.431 0.657 0.909-0.08 0.521-0.482 0.729-0.969 0.791-0.148 0.019-0.299 0.025-0.471 0.038-0.752-0.076-1.469-0.262-1.889-1-0.11-0.194-0.039-0.412 0.121-0.544m4.917 6.228c0.904 0.02 1.497 0.465 1.515 1.069 0.019 0.574-0.427 0.922-1.143 0.893-0.774-0.032-1.644-0.648-1.552-1.159 0.124-0.686 0.697-0.776 1.18-0.803m12.523 1.496c0.085-0.272 0.352-0.357 0.621-0.275 0.328 0.1 0.489 0.333 0.437 0.678-0.091 0.277-0.271 0.47-0.553 0.38-0.355-0.114-0.64-0.359-0.505-0.783m-29.943-55.416c0.721-0.508 0.717-0.846 0.065-1.375-0.55-0.448-0.569-1.081-0.244-1.662 0.361-0.648 1.042-0.718 1.604-0.439 1.05 0.521 1.811 0.134 2.804-0.298 1.309-0.569 2.682-0.98 3.952-1.691 0.719-0.403 1.565-0.388 2.279 0.242 0.747 0.66 0.848 1.123 0.218 1.917-0.274 0.345-0.434 0.661-0.403 1.093 0.022 0.309 0.012 0.678-0.253 0.842-0.85 0.528-0.516 1.48-0.844 2.191-0.236 0.51 0.172 0.853 0.435 1.215 0.629 0.869 0.195 1.672-0.222 2.415-0.381 0.681-0.957 1.195-1.993 1.142-0.143-0.039-0.487-0.045-0.718-0.21-1.225-0.876-2.71-1.121-4.052-1.709-0.631-0.277-1.187-0.584-1.428-1.267-0.197-0.558-0.587-0.898-1.094-1.202-0.765-0.459-0.806-0.71-0.106-1.204m4.834-6.665c0.485-0.134 1.078-0.246 1.307 0.353 0.173 0.452-0.247 0.717-0.641 0.866-0.184 0.07-0.391 0.076-0.621 0.117-0.22-0.054-0.474-0.085-0.698-0.182-0.117-0.052-0.258-0.219-0.26-0.336-9e-3 -0.598 0.495-0.702 0.913-0.818m5.069 17.355c-0.578 0.263-1.584 0.066-1.96-0.422-0.333-0.43-0.215-0.749 0.348-0.849l4e-3 -4e-3c0.311-0.627 0.863-0.625 1.432-0.522 0.416 0.075 0.788 0.272 0.856 0.737 0.077 0.526-0.231 0.857-0.68 1.06m-5.952-3.864c-0.13 0.288-0.682 0.516-1.203 0.519-0.781 6e-3 -1.52-0.46-1.675-1.066-0.116-0.456 0.06-0.789 0.462-1.011 0.645-0.356 1.527-0.162 2.016 0.494 0.226 0.303 0.615 0.587 0.4 1.064m10.786-11.981c0.61-0.035 1.025 0.296 1.044 0.833 0.025 0.653-0.61 1.252-1.411 1.301-0.486 0.03-0.942-0.04-0.928-0.69 0.016-0.734 0.629-1.407 1.295-1.444m9.502-3.361c0.547-0.122 1.112-0.178 1.309-0.835-0.061-0.177-0.123-0.353-0.184-0.53-0.46-0.253-0.639-0.558-0.034-0.809 0.424-0.175 0.888-0.13 1.305 0.115 0.543 0.106 0.898 0.371 0.841 0.988 0.207 0.226 0.19 0.477-9e-3 0.669-0.534 0.517-1.167 0.913-1.467 1.672-0.156 0.394-0.675 0.392-1.085 0.307-0.525-0.109-0.923-0.419-1.111-0.922-0.137-0.367 0.121-0.584 0.435-0.655m756.5 62.011c-0.225-2.665-0.665-5.313-0.655-7.998 5e-3 -1.251-1.071-2.721-2.225-3.062-0.72-0.213-1.175 0.072-1.259 0.842-0.105 0.952 0.118 1.924-0.15 2.869 0.137 0.759 0.145 1.519 0.023 2.281 0.045 0.506 0.137 1.012 0.128 1.517-0.055 3.109 0.307 6.192 0.557 9.282 0.025 0.304 0.066 0.617 0.025 0.915-0.472 3.452 0.183 6.899 0.039 10.352-0.041 0.992-0.27 1.763-1.017 2.421-0.454 0.4-0.861 0.876-1.198 1.378-0.853 1.269-1.947 1.724-3.414 1.186-0.333-0.121-0.702-0.152-1.025-0.293-0.572-0.251-1.132-0.458-1.765-0.233-0.139 0.049-0.337 0.095-0.448 0.034-1.219-0.67-2.394-0.522-3.632 8e-3 -0.483 0.206-1.093 0.015-1.641-0.171-1.482-0.502-1.837-0.405-2.704 0.809-0.261 0.365-0.511 0.622-0.958 0.63-0.625 0.012-1.09 0.191-1.172 0.915-0.054 0.486-0.396 0.475-0.796 0.435-0.657-0.065-1.321-0.064-1.981-0.085-0.673-0.021-1.308 0.05-1.862 0.518-0.599 0.506-1.443 0.578-2.033 0.311-0.989-0.446-1.967-0.373-2.952-0.335-1.123 0.043-2.212-0.239-3.326-0.218-0.202 3e-3 -0.487 0.043-0.594-0.068-0.892-0.925-2.288-0.957-3.191-1.811-0.431-0.409-0.808-0.627-1.325-0.279-0.672 0.453-1.328 0.298-2.044 0.109-1.462-0.388-2.96-0.643-4.416-1.05-1.314-0.367-2.611-0.113-3.912-0.053-0.958 0.044-1.086 0.041-1.101-0.924-0.054-3.51-0.261-7.017-0.412-10.521-0.194-4.476-0.06-8.957-0.365-13.426-0.01-0.149 0.038-0.302 0.058-0.453-0.212-1.257-0.231-2.518-0.083-3.783-0.269-1.664-0.087-3.34-0.14-5.01-0.052-1.679-0.161-1.833-1.858-1.797-2.522 0.052-5.044 0.179-7.567 0.233-1.756 0.037-2.178-0.347-2.526-2.114-0.059-0.298-0.21-0.609-0.168-0.891 0.285-1.907-0.674-3.051-2.222-3.943-0.588-0.339-1.004-0.424-1.439 0.118-0.365 0.454-0.728 0.884-1.392 0.509-0.609-7e-3 -1.217-0.013-1.827-0.02-0.821 0.272-1.64 0.421-2.446-0.05-0.327-0.045-0.653-0.09-0.98-0.135-0.21 0.568-0.679 0.736-1.21 0.696-2.08-0.159-4.101 0.291-6.141 0.552l-0.075 0.093c0.039 0.969 0.48 2.01-0.493 2.801-0.207 0.359-0.565 0.279-0.887 0.307-0.803 0.515-1.701 0.596-2.622 0.568-0.762-0.024-1.221 0.26-1.384 1.079-0.201 1.014-0.94 1.56-1.949 1.218-1.123-0.38-2.045-0.081-3.074 0.235-1.257 0.386-2.587 0.453-3.902 0.555-1.314 0.102-2.628 0.221-3.931 0.409-1.808 0.26-1.801 0.29-1.801 2.088 1e-3 1.218-6e-3 2.437-0.01 3.655 0.333 2.003 0.285 4.02 0.209 6.037 0.155 2.075 0.148 4.15 0.042 6.226 0.545 1.828 0.193 3.709 0.319 5.561 0.044 0.651-0.023 1.309-0.04 1.964 0.347 1.575-0.076 3.116-0.225 4.667-0.05 0.518-0.448 0.771-0.951 0.821-0.411 0.04-0.77-0.184-0.779-0.556-0.043-1.763-0.986-3.423-0.585-5.231-0.078-0.305-0.181-0.598-0.412-0.827-0.096 0.051-0.307-4.403-0.431-6.839 0.087-0.174 0.078-0.463 0.049-0.666-0.145-1.053-0.396-2.097-0.46-3.153-0.043-0.721-0.557-6.129-1.003-8.873-0.017-0.265-0.058-0.53-0.116-0.791-0.255-1.136-0.526-2.268-0.778-3.405-0.295-1.331-0.75-2.635-0.705-4.026-0.13-0.275-0.34-0.538-0.378-0.825-0.137-1.034-0.811-1.169-1.655-1.077-0.107 0.096-0.213 0.192-0.32 0.287-0.1 0.512-0.201 1.024-0.302 1.536 0.221 1.806 0.32 3.6 0.208 5.438-0.055 0.883-0.239 1.774-0.226 2.674h-3e-3s1e-3 0.018 4e-3 0.045c4e-3 0.195 0.014 0.391 0.041 0.588 6e-3 0.043 0.012 0.086 0.018 0.128 0.162 1.961 0.583 7.041 0.583 7.041-0.017 1.523 0.393 3.01 0.328 4.545-9e-3 0.215 0.029 0.418 0.088 0.61 0.225 3.125 0.9 8.045 0.983 8.575 0.236 1.507 0.081 3.039 0.38 4.547 0.168 0.845 0.153 1.745-0.886 2.194-0.198 0.086-0.317 0.387-0.439 0.608-0.297 0.538-0.674 0.55-1.121 0.202-0.733-0.57-1.568-0.928-2.449-1.205-0.393-0.123-0.758-0.186-1.186-0.118-1.229 0.195-1.449 0.011-1.85-1.316-0.13-0.43-0.807-0.693-1.234-0.304-0.563 0.514-0.95 0.367-1.448 6e-3 -0.866-0.626-1.824-0.48-2.782-0.286-0.437 0.089-0.966 0.423-1.298 0.026-0.475-0.566-1.18-1.011-1.304-1.804-0.052-0.333 0.155-0.715-0.272-0.928-0.366-0.182-0.753-0.403-1.158-0.194-0.663 0.342-0.983 0.171-1.475-0.436-0.502-0.621-1.323-1.017-2.282-1.001-1.929 0.033-3.83 0.13-5.664 0.814-0.527 0.196-1.111 0.222-1.659 0.086-0.836-0.208-1.634-0.075-2.382 0.252-0.833 0.363-1.645 0.424-2.527 0.249-0.643-0.127-1.312-0.139-1.971-0.163-0.299-0.011-0.751-0.038-0.876 0.132-0.852 1.148-1.83 0.595-2.689 0.164-0.769-0.385-1.378 0.094-2.063 0.072-0.207 0.392 0.253 0.489 0.306 0.77 0.172 0.916-0.18 1.457-1.106 1.618-1.301 0.225-1.335 0.22-1.529 1.521-0.108 0.721-0.427 0.989-1.127 0.821-0.903-0.216-1.798-0.242-2.715-0.018-0.878 0.214-1.597-0.038-2.032-0.908-0.157-0.315-0.407-0.582-0.582-0.889-0.185-0.326-0.364-0.385-0.727-0.21-0.557 0.27-1.188-0.237-1.805 0.14-0.23 0.141-0.495-0.286-0.633-0.554-0.401-0.782-0.968-1.11-1.852-0.807-0.225 0.077-0.522-0.067-0.754 1e-3 -0.879 0.259-1.332 0.076-1.313-0.956 0.01-0.626-0.917-0.822-0.883-1.53-0.539-0.023-1.077-0.046-1.617-0.069-0.068-0.275-0.298-0.409-0.497-0.571-0.448-0.012-0.932 0.094-1.233-0.387-0.765 0.041-1.429 0.129-1.827-0.882-0.267-0.677-0.964-1.376-1.638-1.651-0.806-0.328-1.79-0.247-2.7-0.274-0.384-0.011-0.623 0.34-0.735 0.688-0.178 0.555-0.664 0.734-1.098 0.986-0.437 0.691-0.99 1.184-1.882 1.092-0.357 0.401-1.044 0.504-1.077 1.196-0.607 0.516-1.365 0.964-0.616 2.285-1.247-0.681-2.065-0.408-2.875 0.195-0.404 0.302-0.985 0.117-1.486 0.162-1.022 0.092-1.187 0.26-1.247 1.311-0.029 0.504-8e-3 1.011-0.028 1.516-0.021 0.577-0.371 0.783-0.907 0.768-0.467-0.013-0.837-0.211-0.808-0.701 0.096-1.618-0.365-3.209-0.195-4.827-0.046-1.295-0.091-2.59-0.137-3.885-0.234-0.252-0.287-0.577-0.362-0.893-1.481 0.294-2.976 0.411-4.486 0.396-0.743-8e-3 -1.137-0.304-1.133-1.067 4e-3 -0.75-0.127-1.507 0.109-2.247-0.305-0.895-0.913-1.177-1.856-1.119-1.516 0.093-3.04 0.068-4.56 0.058-0.701-4e-3 -1.182 0.209-1.299 0.958l0.099 2.073c-0.091 1.41-0.273 1.56-1.583 1.583-0.717 0.012-1.272-0.268-1.792-0.699-0.189-1e-3 -0.377-1e-3 -0.565-2e-3 -0.091 0.038-0.186 0.067-0.271 0.113-1.045 0.573-1.045 0.574-1.235-0.721-1.109-0.251-1.109-0.251-1.501 0.798-0.182 0.486-0.976 0.74-1.691 0.478-0.573-0.209-1.136-0.462-1.667-0.761-0.742-0.419-1.517-0.523-2.353-0.477-0.715 0.038-1.252 0.125-1.409 1.023-0.112 0.644-0.973 0.942-1.915 0.634-0.735-0.24-1.323-0.513-2.112-0.023-0.463 0.287-1.04-0.262-1.525-0.518-1.003-0.528-2.001-0.99-3.19-0.83-0.604 0.081-1.105 0.172-1.163 0.919-0.04 0.513-0.412 0.619-0.861 0.666-1.888 0.194-3.756 0.385-5.444-0.824-0.684-0.489-1.502-0.557-2.344-0.491-0.688 0.053-1.346 0.025-1.395 0.985-0.022 0.44-0.392 0.553-0.778 0.556-0.558 5e-3 -1.115-0.075-1.673 0.051-1.208 0.273-2.319 9e-3 -3.346-0.66-0.892-0.581-1.86-0.754-2.917-0.64-0.661 0.072-1.215 0.15-1.275 0.981-0.031 0.437-0.372 0.552-0.761 0.588-1.264 0.118-2.513-0.092-3.767-0.179-0.304-0.021-0.429-0.27-0.471-0.524-0.066-0.4-0.107-0.806-0.118-1.211-0.016-0.56 0.038-1.123 4e-3 -1.68-0.044-0.732-0.231-1.508-0.966-1.761-0.696-0.24-1.531-0.346-2.121 0.347-0.305 0.357-0.676 0.416-1.089 0.432-0.254 0.01-0.51 7e-3 -0.763 0.031-3.052 0.296-2.524 0.183-2.467 2.74 0.012 0.509-0.015 1.018-0.025 1.527 0.1 0.116 0.173 0.282 0.023 0.359-0.232 0.119-0.322-0.098-0.408-0.267-0.478-0.064-0.956-0.127-1.434-0.191-0.657 0.495-1.593 0.301-2.214 0.912-0.242 0.239-0.496 0.053-0.593-0.197-0.143-0.374-0.219-0.773-0.324-1.162l-0.024-0.019c-0.387-0.019-0.774-0.039-1.16-0.058l-4e-3 5e-3c-0.348 0.574-0.475 0.567-0.837-0.05-0.301-0.197-0.401-0.465-0.283-0.809-0.172-0.7-1.13-0.609-1.31-1.302-0.2 0.019-0.401 0.038-0.601 0.057-0.347 0.579-0.663 0.332-0.813-0.101-0.275-0.788-0.459-1.607-0.681-2.413-0.013-0.097-0.022-0.195-0.028-0.292-0.783 0.093-1.498 0.227-2.357-0.024-0.58-0.169-1.222 0.104-1.653-0.642-0.193-0.332-0.686-0.132-0.989 0.02-0.768 0.387-1.324 0.045-1.943-0.376-0.501-0.341-1.319-0.215-1.346-1.176-0.014-0.499-0.509-0.593-0.942-0.497-0.493 0.11-0.988 0.242-1.457 0.427-1.098 0.432-1.589 0.368-2.171-0.568-0.421-0.677-0.71-1.192-1.371-0.234-0.206 0.3-0.559 0.263-0.79 5e-3 -0.26-0.291-0.122-0.606 0.174-0.76 0.633-0.329 1.249-1.009 2.009-0.172 0.358 0.396 0.82 0.323 1.271 0.132 0.373-0.158 0.673-0.441 0.413-0.809-0.35-0.495-0.251-0.81 0.153-1.17 0.165-0.147 0.125-0.357-0.054-0.524-0.914-0.854-0.591-1.814-0.229-2.776l3e-3 -0.621c-0.287-0.704-1.117-0.983-1.343-1.759-0.104-0.359-0.485-0.213-0.785-0.207-0.996 0.018-1.09-0.141-0.912-1.385-0.047-0.291-0.095-0.581-0.142-0.872-0.093-0.025-0.183-0.057-0.271-0.098-0.088 0.025-0.178 0.041-0.269 0.048-8e-3 0.046-9e-3 0.095-0.026 0.138-0.072 0.187-0.031 0.576-0.34 0.436-0.258-0.117-0.056-0.397 0.095-0.577-0.217-0.146-0.34-0.344-0.342-0.611-0.248-0.19-0.578-0.791-0.798-0.305-0.513 1.132-1.342 1.029-2.267 0.879-0.095-0.015-0.198 0.021-0.297 0.034 0.011-0.298 0.022-0.595 0.032-0.893 0.02-0.591-0.155-0.931-0.858-0.906-0.875 0.031-0.674-0.472-0.378-0.961-0.1-0.29-0.248-0.548-0.513-0.721-0.577 0.137-1.011 0.409-1.099 1.066-0.093 0.693-0.581 0.873-1.196 0.858-0.113 1.051-0.9 1.383-1.756 1.643-0.458 0.139-0.85 7e-3 -1.004-0.43-0.184-0.522 0.33-0.519 0.628-0.651 0.139-0.061 0.294-0.081 0.437-0.134 0.772-0.282 0.878-0.48 0.354-1.021-0.87-0.9-0.985-2.359-2.244-2.959-0.512-0.243 0.235-1.161-0.556-1.201-0.501-0.025-0.413 0.867-0.919 0.901-0.746 0.049-1.636 0.317-2.213-0.212-1.145-1.05-2.089-0.63-3.08 0.139-0.05 0.042-0.087 0.093-0.112 0.154-0.209 0.759-1.198 1.268-0.644 2.307-1.037-1.245-2.74-1.337-3.703-2.518-0.116 0.431 0.022 1.023-0.687 1.075-0.079 0.273-0.249 0.461-0.516 0.562-5e-3 0.193-0.011 0.386-0.016 0.579-6e-3 0.708-0.201 1.182-1.061 0.913-0.346-0.109-0.69 0.012-1.026 0.106-0.458 0.127-0.888 0.115-1.244-0.255-0.359 0.132-0.719 0.264-1.078 0.396-0.563 0.452-1.139 0.83-1.861 0.302l-0.136 0.023-0.137-3e-3c-0.532-0.101-1.061-0.232-1.598-0.296-0.772-0.092-1.18-0.459-1.104-1.268l-0.024-0.026c-0.356 0.059-0.685 6e-3 -0.973-0.226-0.185 0.028-0.369 0.057-0.553 0.085-0.899 0.589-1.81 0.151-2.696-0.015-0.377-0.071-0.71-0.362-1.141-0.222-0.938 0.305-1.403-0.216-1.716-0.994l-0.87-6e-3c-0.059 0.082-0.108 0.226-0.177 0.236-1.221 0.168-1.986 1.043-2.829 1.801-0.186 0.167-0.415 0.447-0.6 0.428-0.882-0.09-1.398 0.449-1.915 1.001-0.347 0.371-0.789 0.418-1.25 0.436-0.4-0.096-0.801-0.192-1.202-0.287-0.105 0.222-0.196 0.451-0.316 0.666-0.859 1.543-0.865 1.543-2.53 1.038-0.75 0.264-1.512 0.03-2.256-6e-3 -0.666-0.032-1.304 0.014-1.952 0.105l-7e-3 0.011c-0.116 0.218-0.199 0.465-0.355 0.65-0.284 0.337-0.416 0.56-0.053 1.006 0.431 0.53 0.239 0.861-0.424 1.004-0.192 0.042-0.4 4e-3 -0.599 0.015-0.462 0.026-0.72 0.306-0.867 0.716-0.148 0.414 0.067 0.668 0.393 0.866 0.223 0.135 0.382 0.321 0.478 0.562 0.456 0.205 0.774 0.473 0.604 1.056-0.281 0.964-0.023 1.703 0.947 2.124 0.247 0.107 0.439 0.28 0.349 0.587-0.076 0.262-0.273 0.426-0.536 0.487-0.145 0.034-0.301 0.029-0.453 0.033-1.386 0.035-1.714 0.202-2.071 1.425-0.397 1.36-1.721 1.629-2.62 2.394-0.166 0.142-0.385-0.023-0.535-0.171-0.253-0.251-0.574-0.468-0.731-0.77-0.198-0.382-0.606-0.873-0.366-1.225 0.309-0.449 0.796-0.153 1.212 0.107 0.506 0.315 1.088 0.24 1.636 0.102 0.848-0.214 1.071-0.602 0.698-1.441-0.251-0.563-0.332-0.853 0.418-0.881 0.413-0.015 0.419-0.324 0.418-0.658-2e-3 -0.858-0.614-1.456-0.891-2.195-0.776-0.454-1.557-0.867-2.456-0.295-0.091 0.298-0.17 0.614-0.603 0.42-0.767-0.049-1.274-0.892-2.121-0.695-0.113 0.307-0.286 0.546-0.645 0.581-0.1 0.019-0.199 0.039-0.3 0.059-0.506 0.309-1.034 0.207-1.562 0.079-0.472-0.088-0.945-0.175-1.417-0.263-0.046 0.018-0.09 0.041-0.137 0.053-0.499 0.126-1.078 0.621-1.485 0.109-0.338-0.427 0.23-0.876 0.41-1.311-1.559-0.516-2.678-0.206-3.444 0.949-0.3 8e-3 -0.608-0.027-0.897 0.034-1.246 0.262-1.492 0.184-1.897-1.026-0.169-0.507-0.388-0.722-0.895-0.841-0.569-0.134-0.943-0.542-0.94-1.188-0.347-0.355-0.838-0.301-1.258-0.425-0.155-0.371 0.09-0.589 0.3-0.777 0.512-0.459 0.538-1.072 0.189-1.502-0.385-0.474-0.604-1.194-1.604-1.069-0.736 0.092-1.514 0.603-2.297 0.132-0.078-0.069-0.156-0.139-0.234-0.208-0.097-0.04-0.194-0.079-0.292-0.118-1.022-0.278-2.054-0.527-3.066-0.841-1.568-0.488-2.712 0.369-3.883 1.16-0.118 0.08-0.163 0.271-0.281 0.35-0.501 0.334-0.984 0.821-1.534 0.923-0.725 0.133-0.882-0.692-1.24-1.152-0.091-0.118-0.187-0.276-0.313-0.317-1.21-0.396-2.396-0.141-3.576 0.167-0.789 0.206-1.108 0.82-1.325 1.525-0.059 0.194-0.12 0.389-0.207 0.571-0.169 0.352-0.045 0.876-0.485 1.055-0.46 0.189-0.525-0.367-0.801-0.544-0.377-0.24-0.779-0.196-1.177-0.135-0.497 0.075-0.982 0.272-1.495 0.096-0.305 0.099-0.56 0.271-0.75 0.533-0.441 0.479-0.921 0.907-1.522 1.179l-0.016 0.021c-0.066 0.103-0.132 0.206-0.197 0.308l-0.06 0.099c-0.59 0.638-1.049 1.268-0.033 1.95 0.14 0.094 0.167 0.354 0.256 0.533 0.09 0.181 0.208 0.383 0.042 0.548-0.199 0.197-0.486 0.172-0.701 0.046-0.205-0.121-0.46-0.306-0.515-0.51-0.269-1.006-0.96-1.872-0.979-2.957-0.06-0.044-0.123-0.08-0.191-0.108-1.112 0.346-2.189 0.354-3.184-0.346-0.709-0.499-1.344-0.575-2.044 0.09-0.43 0.409-1.075 0.548-1.549 0.954-0.413 0.353-0.968 0.39-1.458 0.237-0.98-0.306-1.68 1e-3 -2.218 0.823-0.053 0.08-0.148 0.138-0.234 0.189-0.036 0.021-0.099-4e-3 -0.181-9e-3 -0.33-0.454 0.058-0.855 0.154-1.261 0.103-0.438 0.131-0.774-0.285-1.068-0.404-0.286-0.773-0.499-1.227-0.107-0.229 0.198-0.479 0.476-0.794 0.382-0.879-0.26-1.579-0.081-2.161 0.647-0.088 0.111-0.385 0.056-0.585 0.077-0.149 0.092-0.299 0.184-0.448 0.276-0.407 0.399-0.607 0.275-0.645-0.256l-0.06-1.509c-0.038-0.08-0.041-0.16-8e-3 -0.241-0.133-5.101-0.267-10.201-0.401-15.301-0.043-0.128-0.086-0.257-0.129-0.385-0.075-3.294-0.136-6.59-0.24-9.883-0.019-0.602-0.209-1.199-0.591-1.702-0.248 2e-3 -0.33 0.188-0.404 0.374-0.281 0.706-0.766 0.643-1.181 0.211-0.609-0.633-1.038-1.382-0.891-2.33 0.132-0.856-6e-3 -1.584-1.001-1.791-0.312-0.065-0.427-0.279-0.516-0.493-0.636-1.536-1.835-2.837-1.927-4.604-0.01-0.195-0.091-0.406-0.196-0.573-0.449-0.706-0.717-2.563-0.791-2.696-0.654 0.321-1.467 3.095-1.478 3.998-0.014 1.067-0.779 1.86-1.165 2.793-0.287 0.692-0.892 1.783-1.467 1.763-0.398 0.568-0.458 1.26-0.505 1.962-0.049 0.724-0.244 1.407-0.701 1.987-0.518 0.658-0.776 0.635-1.366-0.102-0.09-0.113-0.117-0.295-0.307-0.251-0.187 0.183-0.364 0.357-0.541 0.531l-0.046 0.081c0.059 5.444 0.051 10.89 0.2 16.332 0.098 3.565 0 7.13 0.101 10.694 0.051 1.784-1.041 3.081-2.743 3.622-1.762 0.559-3.061 1.751-3.758 3.445-0.414 1.008-0.944 1.653-2.061 1.707-0.25 0.201-0.487 0.175-0.575-0.134-0.081-0.284-0.061-0.596-0.087-0.896-0.043-0.503-0.319-0.773-0.804-0.595-0.832 0.306-1.586-0.027-2.366-0.182-0.153-0.031-0.272-0.114-0.311-0.279-0.057-0.248 0.111-0.422 0.286-0.462 0.586-0.133 1.188-0.311 1.777-0.29 0.767 0.028 1.486-0.198 2.233-0.238l0.048-0.621-0.01-0.02c-0.179-0.063-0.358-0.126-0.537-0.189-0.98-0.203-1.914-0.482-2.429-1.459-0.201-0.022-0.403-0.045-0.604-0.067-0.399 0.331-0.807 0.373-1.229 0.042-0.294-0.054-0.589-0.107-0.883-0.161-0.637 0.63-1.389 1.125-1.832 1.972-0.241 0.46-0.738 0.888-1.22 1.099-0.915 0.4-1.618 0.813-1.404 1.99 0.041 0.225-0.448 0.506-0.511 0.323-0.284-0.828-1.56-0.857-1.492-1.915-1.277 0.307-2.554 0.612-3.83 0.924-0.244 0.06-0.586 0.07-0.706 0.233-0.963 1.303-2.721 1.582-3.662 2.872-0.273 0.374-0.622 0.259-0.927 0.391-0.147 0.065-0.228 0.2-0.188 0.362 0.042 0.174 0.187 0.232 0.352 0.212 0.302-0.035 0.601-0.11 0.904-0.121 0.663-0.024 1.135 0.162 0.886 0.974-0.172 0.564 0.405 1.019 0.293 1.664-0.674-0.065-1.114-0.413-1.498-0.781-0.496-0.476-0.991-0.623-1.659-0.405-0.374 0.122-0.804 0.085-1.21 0.093-0.59 0.011-0.954-0.248-1.032-0.875-0.15-1.205-0.901-2.197-1.135-3.412-0.251-1.306-1.875-2.168-3.296-2.134-1.134 0.027-2.163 0.401-3.225 0.799-1.461 0.548-2.781 1.412-4.322 1.787-0.821 0.2-1.647 0.564-2.183 1.319-0.334 0.469-0.758 0.598-1.331 0.462-1.137-0.27-2.27 1e-3 -3.284 0.422-1.209 0.501-2.367 0.478-3.576 0.223-0.548-0.116-1.113-0.206-1.626-0.416-1.423-0.585-2.815-0.046-4.216 0.051-0.619 0.043-0.784 0.593-0.923 1.086-0.233 0.821-0.686 1.434-1.413 1.912-0.683 0.45-1.447-0.061-2.06 0.253-0.638 0.326-0.646 1.271-1.309 1.638-0.216 0.12-0.47 0.193-0.716 0.234-1.128 0.186-2.172 0.536-2.981 1.403-0.373 0.401-0.905 0.438-1.394 0.562-0.296 0.074-0.618 0.218-0.893 0.161-1.101-0.227-1.431 1.269-2.366 1.097-0.983-0.181-1.8-0.068-2.597 0.499-0.199 0.141-0.463 0.209-0.708 0.266-1.167 0.269-2.206 0.628-2.727 1.912-0.259 0.637-0.938 1.064-1.614 1.344-0.688 0.285-1.229 0.743-1.565 1.395-0.865 1.679-2.468 2.485-3.981 3.385-0.566 0.337-1.179 0.539-1.5 1.212-0.288 0.606-0.914 0.779-1.545 0.825-1.632 0.12-3.176 0.648-4.754 1.017-0.816 0.191-1.508 0.612-1.844 1.455-0.459 1.151-1.301 1.711-2.546 1.882-1.572 0.216-3.064 0.765-4.411 1.632-0.493 0.317-1.02 0.578-1.576 0.407-0.928-0.286-1.813 3e-3 -2.716 0.051-0.202 0.01-0.461-0.022-0.596 0.087-1.636 1.319-3.825 0.822-5.593 1.729-1.153 0.592-2.423 0.72-3.715 0.629-0.516-0.037-1.009 0.095-1.497 0.257-0.337 0.112-0.692 0.302-1.025 0.278-2.062-0.15-4.018 0.582-6.046 0.678-0.52 0.024-0.998 0.105-1.445 0.401-0.774 0.514-1.599 0.884-2.567 0.842-0.62-0.026-1.066 0.31-1.37 0.824-0.327 0.555-0.783 0.917-1.409 1.089-1.085 0.298-2.067 0.786-3.013 1.421-0.589 0.396-1.21 0.706-1.66 1.285-0.603 0.775-1.462 1.097-2.405 1.156-0.745 0.047-1.401 0.26-1.945 0.768-0.592 0.554-1.395 0.695-2.1 0.842-2.446 0.51-4.241 2.144-6.216 3.444-0.607 0.399-1.197 0.658-1.856 0.914-2.08 0.808-4.118 1.725-6.167 2.611-0.227 0.098-0.531 0.218-0.619 0.41-0.819 1.799-2.803 2.068-4.183 3.116-1.229 0.934-11.501 3.256-11.923 3.75-0.098 0.114-0.217 0.226-0.35 0.293-0.355 0.18-0.708 0.367-1.063 0.552h-9.878c-0.033-0.083-0.071-0.164-0.112-0.242-0.126-0.246-0.325-0.405-0.611-0.337-0.204 0.049-0.352 0.211-0.401 0.42-0.012 0.052-0.019 0.106-0.029 0.159h-2.217c-0.128-0.241-0.27-0.507-0.567-0.538-0.358-0.037-0.473 0.277-0.572 0.538h-4.026c-0.126-0.081-0.252-0.087-0.374 0h-6.378c-0.073-0.714-0.087-1.434 0.259-2.118 0.118-0.233 0.232-0.468-0.048-0.659-0.074-0.051-0.201-0.064-0.292-0.044-0.309 0.069-0.387 0.294-0.326 0.576 0.16 0.744 0.12 1.497 0.087 2.245h-10.063c-0.082-0.279-0.444-0.34-0.685-0.483-0.175-0.104-0.385-0.183-0.38-0.427 7e-3 -0.322 0.263-0.387 0.514-0.453 0.721-0.188 1.508-0.162 2.144-0.623 0.107-0.078-0.597-2.232-0.943-2.928-0.801 0.586-1.369 1.447-2.374 1.76-0.955 0.298-1.968 0.535-2.681 1.287-0.15-0.095-0.298-0.144-0.299-0.197-0.035-1.23-0.032-1.23-1.271-1.51-0.702-0.158-0.767-0.324-0.29-0.85 0.497-0.547 0.959-1.112 1.316-1.773-0.542-0.409-1.067-0.064-1.552-0.208-0.377-0.112-0.498 0.241-0.586 0.546-0.192 0.666-0.667 0.92-1.288 0.704-0.619-0.215-0.784-0.746-0.646-1.37 0.032-0.149 0.086-0.295 0.104-0.445 0.044-0.355 0.103-0.747-0.234-0.982-0.369-0.255-0.649 0.048-0.955 0.231-0.813 0.49-0.82 0.479-1.22-0.395l-8e-3 -8e-3c-1.002 0.108-1.986 0.405-3.017 0.112-0.383-0.109-0.807 0.111-1.156 0.317-0.805 0.475-1.641 0.801-2.594 0.787-0.371-6e-3 -0.733 0.071-0.725 0.571 0.015 1.043-0.652 1.229-1.508 1.269-1.665 0.079-1.986 0.327-1.864 1.966 0.071 0.951-0.59 1.273-1.058 1.695-0.435 0.392-0.96 0.653-0.931 1.407h-0.832c-0.642-0.211-1.187-0.384-1.367-1.217-0.097-0.449-0.742-0.561-1.171-0.223-0.835 0.656-1.817 0.541-2.833 0.613 0.054 0.317 0.198 0.578 0.359 0.827h-4.834c-0.136-0.279-0.317-0.544-0.467-0.871-0.358 0.25-0.525 0.549-0.6 0.871h-4.514c-0.166-0.377-0.18-0.814-0.2-1.262-0.136-3.045-0.421-6.088-0.433-9.132-0.015-3.698-0.352-7.389-0.202-11.089 0.011-0.253 0.066-0.504 0.1-0.756-0.032-0.696-0.063-1.392-0.095-2.088-0.417-0.499-0.341-1.011-0.039-1.529 0.081-1.604-0.262-3.219 0.127-4.815v-1e-3c0.297-0.044 0.629-0.021 0.887-0.148 0.549-0.269 0.687-0.939 0.183-1.208-1.238-0.662-0.871-1.782-0.978-2.78-0.282-1.08-0.742-2.113-0.867-3.236-0.346-0.163-0.661-0.361-0.953-0.583 0.293 0.222 0.607 0.419 0.953 0.583 9e-3 -0.264-0.275-1.725-0.638-4.505-0.114-0.865-0.149-0.259-1.069-0.144-0.412 0.052-1.461-5.041-2.725-10.296-0.764 4.209-2.794 7.014-3.058 6.615-1.123-1.698-0.842-19.637-1.447-21.554-0.67-2.12 0.146-0.079 0.804-3.555 0.25-1.322-1.31-4.408-0.026-8.272 0.12-0.359-0.775-2.73-2.502-9.771-0.644-2.626-2.71-10.151-3.563-11.324-0.362-0.499-4.344 14.385-4.732 13.917-0.758-0.912-1.341-0.3-1.114-1.291-0.125-0.309-0.423-3.059-0.53-4.119-0.549-5.469-1.045-10.944-1.688-16.402-0.32-2.715-0.279-5.493-1.206-8.124-0.097-0.275-0.088-0.612-0.045-0.908 0.155-1.078-0.01-2.126-0.176-3.187-0.158-1.004-0.414-1.994-0.416-3.024-4e-3 -2.714-0.406-5.388-1.12-7.992-0.438-1.595-0.606-3.196-0.68-4.822-0.049-1.067 0.028-2.14-0.019-3.207-0.069-1.565-0.039-3.146-0.543-4.662 0.08-0.135 0.059-0.262-0.032-0.382-0.585-0.905-0.392-1.896-0.32-2.873 0.035-0.072 0.024-0.136-0.033-0.191-0.766-2.766-1.776-5.455-1.707-8.426 0.044-1.918-0.282-3.844 0.2-5.75-0.013-0.366-0.025-0.733-0.038-1.1-0.571-2.154-0.677-4.378-0.945-6.575-0.471-3.867-0.854-7.744-1.266-11.618-0.054-0.502-0.059-1.008-0.087-1.513-0.606-2.582-0.68-5.233-0.997-7.853-0.908-7.479-1.814-14.958-2.693-22.44-0.66-5.612-1.266-11.23-1.917-16.843-0.662-5.712-1.362-11.42-2.019-17.133-0.477-4.146-0.933-8.295-1.355-12.447-0.185-1.816-0.799-3.586-0.581-5.444-0.309-1.115-0.585-2.237-0.622-3.403-0.013-0.179-0.027-0.359-0.04-0.538-0.261-0.506-0.34-1.042-0.26-1.603-0.014-0.477-0.029-0.954-0.043-1.431-0.548-1.817-0.665-3.71-0.791-5.575-0.214-3.158-0.866-6.25-1.199-9.386-0.252-2.376-0.45-4.758-0.672-7.138-0.071-0.09-0.078-0.184-0.021-0.284-0.113-0.48 0.23-0.815 0.384-1.211 0.712-1.073 0.732-1.099-0.272-1.919-0.587-0.478-0.592-1.089-0.592-1.734-0.272-3.023-1.234-5.935-1.461-8.964-0.067-0.901-0.071-1.79-0.484-2.643-0.329-0.679 0.086-1.392 0.129-2.092 0.025-0.403 0.166-0.812 0.117-1.201-0.083-0.676 0.24-0.801 0.792-0.746 0.211 0.02 0.41-1e-3 0.474-0.259-3e-3 -0.245-0.173-0.378-0.371-0.406-0.937-0.133-1.265-0.741-1.285-1.597-8e-3 -0.334-3e-3 -0.668-0.243-0.897 0.259-0.181 0.481-0.388 0.646-0.704 0.855-1.634 0.587-3.048-1.04-4.74-0.188 1.284-0.787 2.438-0.168 3.706 0.175 0.358 0.169 0.79-0.115 1.148 0.145 0.212 0.289 0.423 0.433 0.635-0.013 0.027-0.023 0.056-0.048 0.081 5e-3 0.401 9e-3 0.802 0.013 1.203 0.104 1.214 0.104 1.214-0.9 1.291-0.289 0.031-0.578 0.062-0.866 0.094 0.025 0.16 0.05 0.321 0.075 0.481 0.06 0.013 0.089 0.051 0.086 0.113 0.252-8e-3 0.489 0.039 0.696 0.192 0.191 0.029 0.382 0.058 0.572 0.088 0.067-0.203 0.18-0.354 0.415-0.263 0.057 0.022 0.116 0.178 0.092 0.243-0.077 0.211-0.264 0.261-0.475 0.239 0.091 0.314 0.181 0.628 0.272 0.941 0.402 1.107 0.5 2.15 0.136 3.363-0.266 0.892-0.223 1.98-0.206 2.952 0.039 2.145-0.565 4.201-0.621 6.319-0.017 0.657-0.019 1.319-0.11 1.967-0.09 0.64-0.183 1.35-1.102 1.339-0.331 0.706-0.452 1.347 0.465 1.725 0.203 0.084 0.224 0.314 0.248 0.516 0.436 0.311 0.437 0.78 0.421 1.237-0.048 1.368 0.026 2.744-0.299 4.094-0.095 0.391-0.142 0.806-0.131 1.207 0.19 6.56-0.52 13.08-0.839 19.617-0.027 0.554-0.039 1.123-0.366 1.616-0.011 0.236-0.022 0.471-0.033 0.706 0.077 0.418 0.085 0.821-0.246 1.151 0.103 0.337 0.036 0.665-0.053 0.992 0.181 2.45-0.226 4.874-0.36 7.308-0.546 9.963-1.175 19.921-1.786 29.88-0.571 9.299-1.16 18.597-1.736 27.895-0.514 8.282-1.02 16.564-1.53 24.846-0.216 3.505-0.421 7.012-0.654 10.517-0.062 0.925 0.018 1.905-0.701 2.664l0.025-4e-3c0.051 0.349 0.233 0.744 0.131 1.041-0.507 1.467-0.319 2.891 0.057 4.344 0.297 1.149 0.091 2.295-0.073 3.468-0.428 3.072-0.517 6.179-0.702 9.275-0.084 1.414-0.063 2.849-0.527 4.215-0.087 0.256-0.132 0.482 0.014 0.72 0.785 1.28 0.469 2.675 0.346 4.02-0.105 1.15-0.765 1.511-1.815 1.058-0.775-0.334-1.641-0.586-2.119-1.394-0.837-0.354-0.773-1.263-1.166-1.89-0.116-0.083-0.233-0.165-0.35-0.247-0.297 0.015-0.65-0.041-0.699 0.385-0.061 0.522-0.229 0.97-0.653 1.314-0.486 0.394-0.367 0.901 0.062 1.135 1.977 1.081 2.565 3.148 3.601 4.899 0.446-0.03 0.638-0.468 1.002-0.626 0.515-0.222 1.024-0.243 1.26 0.363 0.204 0.522-0.081 0.863-0.608 0.99-0.29 0.07-0.586 0.087-0.828 0.31-0.637 0.587-0.57 1.127 0.232 1.444 0.325 0.129 0.689 0.157 0.863 0.522-0.056 0.054-0.113 0.107-0.172 0.158 0.011 0.319 0.021 0.637 0.032 0.955-3e-3 0.465-5e-3 0.93-7e-3 1.394-0.101 0.872-0.203 1.745-0.305 2.619 0.042 2.179-0.023 4.372-0.197 6.526-0.365 4.508-1.178 8.981-0.976 13.532 0.011 0.251-0.041 0.506-0.076 0.758-0.45 3.231-0.627 6.483-0.701 9.74-0.019 0.819-0.065 1.624-0.218 2.426-0.135 6e-3 -0.269 0.013-0.404 0.019-0.031 0.303-0.066 0.603-0.133 0.895 0.067-0.292 0.102-0.593 0.133-0.895-0.291-0.07-0.569 0.052-0.616 0.302-0.22 1.164-1.164 2.153-0.773 3.483 0.094 0.321-0.164 0.784-0.344 1.14-0.232 0.459-0.587 0.236-0.904 0.061l-0.01-0.029c-0.206-0.093-0.321-0.249-0.333-0.477-0.202-1.667-0.421-3.33-1.189-4.859-0.377-0.679-0.28-1.421-0.289-2.149-1e-3 -2e-3 -2e-3 -3e-3 -4e-3 -5e-3 5e-3 6e-3 9e-3 0.013 0.013 0.019 0.104-0.637-0.246-2.523-0.647-3.482 0 0-0.011-0.104-0.011-0.105 0.372-0.555 1.102-1.069 0.183-1.764-0.186-0.141-0.113-0.357-0.09-0.559 0.08-0.699-0.424-1.125-0.68-1.698-0.536 0.358-0.682 1.028-0.633 1.247 0.181 0.806-0.857 1.348-0.406 2.076 0.468 0.757 0.351 1.496 0.204 2.277-0.384 2.041-0.446 4.136-1.045 6.143-0.067 0.224 0.04 0.499 0.066 0.75l-0.01 0.013c0.107 0.407 0.058 0.808-0.052 1.206 0.336 0.392 0.075 0.516-0.27 0.603-0.168 0.22-0.44 0.402-0.629 0.176-0.769-0.921-1.499-1.849-2.525-2.538-0.519-0.348-0.498-1.085 0.074-1.409 0.628-0.355 0.577-0.866 0.635-1.398l-7e-3 -8e-3c-0.221 0.028-0.32-0.07-0.298-0.291l-0.013-8e-3c-0.333 0.114-0.501-0.057-0.599-0.348-0.177-0.187-0.402-0.345-0.397-0.644l-0.061 0.065c-0.225 0.063-0.402-0.029-0.563-0.175-0.677-0.177-1.46-0.16-1.794-0.97 3e-3 -0.112 7e-3 -0.224 0.011-0.337-0.198 0.027-0.253-0.124-0.318-0.263-0.094 9e-3 -0.18-0.013-0.257-0.068-0.716-0.423-0.618-0.974-0.246-1.567-0.02-0.21-0.04-0.419-0.06-0.629l-0.3-0.486-0.143 0.01-0.139-0.038c-0.419 0.177-0.525-0.066-0.555-0.412-0.278-0.147-0.604-0.236-0.712-0.589-0.251-0.205-0.417-0.469-0.531-0.77-0.435-0.457-0.487-1.095-0.765-1.626l-0.478-0.299c-0.802 0.018-1.605 0.037-2.407 0.055-0.03 0.49-0.061 0.981-0.091 1.472 0.05 0.065 0.114 0.109 0.192 0.131 0.401-0.097 0.647 0.041 0.708 0.463l0.042 0.027c0.561-0.084 0.967 0.2 1.307 0.587 0.524 0.595 0.935 1.282 1.644 1.72 0.39 0.242 0.473 0.807 0.06 1.007-0.92 0.446-0.474 0.871-0.139 1.384 0.092 0.141 0.035 0.38 0.047 0.574 0.144 0.677 0.075 1.332-0.212 1.963 0.034 0.406 0.068 0.812 0.103 1.218 1.083 0.707 2.154 1.411 1.708 3.002-0.097 0.343 0.167 0.568 0.455 0.698 0.653 0.294 1.033 0.799 1.183 1.481 0.197 0.904 0.8 1.226 1.662 1.198 0.733-0.755 0.736-0.978-0.024-1.655-0.21-0.187-0.669-0.226-0.521-0.616 0.172-0.453 0.62-0.305 0.926-0.178 0.665 0.278 1.603-0.238 2.036 0.697l0.074 0.022c0.357-0.124 0.635-0.024 0.838 0.293l0.042 0.019c1.041 0.415 1.128 0.88 0.339 1.799-0.064-8e-3 -0.101 0.021-0.11 0.085-0.067 0.189-0.191 0.281-0.397 0.23l-0.019 5e-3c-0.095 0.225-0.188 0.216-0.278-3e-3l-0.017-3e-3c-0.325 0.117-0.561-2e-3 -0.739-0.277l-0.036-0.015c-0.299 0.116-0.609 0.218-0.729 0.565 0.623 0.703 1.241 1.412 1.872 2.108 0.459 0.506 0.372 0.875-0.247 1.137-0.133 0.231-0.346 0.315-0.6 0.324-0.568 0.597-1.245 0.782-2.052 0.602-1.837-0.409-3.439 0.112-4.88 1.265-0.481 0.385-1.03 0.681-1.65 0.735-0.535 0.046-1.147 0.162-1.394-0.561l-0.01-8e-3c-0.488 0.101-0.526-0.613-0.995-0.547-1.223 1.412-2.419 1.72-3.804 0.978-1.061-0.568-1.182-0.967-0.606-2.038 0.095-0.177 0.214-0.342 0.323-0.513 0.14-0.719 0.494-1.02 1.208-0.62 0.784-0.051 1.569-0.102 2.354-0.154 0.038-0.403 0.077-0.805 0.115-1.208-0.409-0.4-0.576-0.857-0.326-1.41-0.299-0.027-0.598-0.045-0.895-0.083-0.501-0.065-0.838-0.351-0.924-0.844-0.09-0.514 0.32-0.682 0.697-0.827 0.331-0.127 0.679-0.215 0.715-0.655-0.729-0.148-1.222-0.495-1.13-1.337-0.141-0.472-0.431-0.79-0.928-0.892-0.117-0.058-0.235-0.116-0.353-0.174-0.09-0.047-0.182-0.086-0.278-0.116-0.109-0.075-0.217-0.149-0.326-0.224-0.06-0.075-0.097-0.16-0.11-0.256-0.102-0.102-0.203-0.204-0.305-0.307-0.243-0.161-0.487-0.322-0.73-0.484-0.164 0.022-0.291-0.038-0.384-0.173-0.361-0.145-0.777-0.184-1.03-0.536-0.454-0.065-0.909-0.13-1.364-0.195-0.338 0.291-0.706 0.316-1.097 0.118-0.094 0.016-0.174 0.059-0.24 0.129 0.028 0.531 0.057 1.063 0.085 1.595l0.024 0.031c0.728 0.549 0.714 0.667-0.134 1.15-0.065 7e-3 -0.124 0.031-0.177 0.071-0.495 0.543-1.042 0.967-1.837 0.689-0.602-0.21-0.941 0.138-1.264 0.547l-0.015 0.864c0.443 0.687 1.333 0.985 1.593 1.831 0.062 0.054 0.1 0.122 0.114 0.202 0.623 0.02 0.96 0.473 1.329 0.877 0.696 0.05 0.797 0.602 0.94 1.117 0.06 0.051 0.103 0.113 0.129 0.188 0.674 0.664 0.674 0.762 9e-3 1.429-0.174 0.216-0.42 0.263-0.676 0.288-0.232 0.163-0.456 0.156-0.672-0.031-0.087-0.023-0.172-0.051-0.255-0.085-1.441-0.368-3.001-0.336-4.264-1.307-0.404-0.31-0.865-0.079-1.309-0.039-1.089 0.099-2.222 0.313-3.034-0.743-0.484-0.044-0.969-0.079-1.452-0.135-0.547-0.064-1.07-0.179-1.252-0.812l-0.027-0.015c-0.112-0.066-0.225-0.133-0.337-0.199l-0.333-0.396c-0.053-1e-3 -0.105-7e-3 -0.157-0.018-0.571-0.103-0.683-0.518-0.601-0.988 0.074-0.43 0.235-0.844 0.359-1.266-0.185-0.11-0.267-0.286-0.318-0.484-0.577-0.039-0.898-0.379-1.061-0.904-0.392-0.018-0.784-0.037-1.175-0.055-0.125-0.058-0.249-0.115-0.373-0.173-0.089-0.031-0.177-0.064-0.264-0.099-0.16-0.05-0.256-0.158-0.284-0.324l3e-3 -7e-3c-0.124-0.061-0.324-0.092-0.36-0.187-0.093-0.244 0.099-0.339 0.309-0.385 0.409-0.515 0.784-1.068 1.441-1.312 0.157-0.179 0.328-0.194 0.513-0.043 0.165 0.027 0.33 0.054 0.495 0.08 1.423-0.495 1.453-0.548 1.147-2.036-0.176-0.856-0.352-1.712-0.529-2.568v-0.465c-0.289-0.461 0.095-0.976-0.126-1.456-0.135-0.295-0.044-0.601 0.242-0.784 0.348-0.222 0.667-0.091 0.951 0.155 0.341 0.296 0.637 0.629 0.796 1.062 0.183 0.039 0.365 0.079 0.547 0.118 0.46-0.382 0.801-0.065 0.974 0.279 0.444 0.879 1.106 0.88 1.886 0.605 0.102-0.087 0.205-0.174 0.307-0.262 0.052-0.452 0.348-0.637 0.747-0.541 0.54 0.13 1.066 0.327 1.589 0.522 0.409 0.152 0.762 0.692 1.232 0.371 0.572-0.392 1.282-0.673 1.56-1.397 0.557-1.454 1.092-2.916 1.661-4.364 0.153-0.39 0.226-0.777 0.218-1.188-0.191-0.107-0.382-0.214-0.573-0.32-0.816-0.029-1.553 0.323-2.33 0.472-0.963 0.184-2.005 0.453-2.657-0.677-1.618-0.033-2.378 0.474-2.79 1.925-0.103 0.36-0.166 0.691-0.596 0.773l-0.01 0.018c-0.628 0.764-0.864 0.757-1.382-0.045l-0.117-0.534c-0.597-0.33-0.614-0.74-0.167-1.214-0.023-0.211-0.045-0.421-0.068-0.632-0.665-0.242-1.385-0.359-1.942-0.849-0.229-0.061-0.445-0.144-0.583-0.353-0.071-0.022-0.139-0.047-0.205-0.077-0.427-0.055-0.675-0.341-0.529-0.712 0.242-0.616 0.396-1.331 1.119-1.631 0.09-0.104 0.18-0.207 0.27-0.311 0.073-0.377 0.218-0.592 0.603-0.269 0.193-2e-3 0.385-3e-3 0.578-4e-3 1.18-0.182 2.359-0.384 3.559-0.306 0.548 0.036 1.114 0.315 1.142 0.837 0.085 1.577 0.96 2.027 2.356 1.907 0.4-3e-3 0.799-6e-3 1.198-9e-3 0.32-0.293 0.663-0.242 0.973-0.012 0.484 0.359 1.058 0.318 1.602 0.416 0.075-0.029 0.147-0.064 0.215-0.107 0.37-0.376 0.833-0.348 1.28-0.243 0.604 0.142 1.002 0.481 0.888 1.186-0.041 0.249-0.087 0.502-0.084 0.753 7e-3 0.621 0.428 0.881 0.958 1.005 0.556 0.129 0.843-0.15 0.993-0.669 0.098-0.336 0.233-0.673 0.415-0.971 0.175-0.284 0.447-0.411 0.744-0.108l0.579-0.027c0.336-0.319 0.74-0.256 1.15-0.222 1.72 0.142 2.551-0.866 2.001-2.522-0.25-0.75-0.351-1.475-0.232-2.241 0.043-0.281 0.249-0.427 0.499-0.52 0.056-0.5 0.431-0.624 0.838-0.71 0.333-0.524 0.668-0.514 1.005-5e-3 0.179 0.042 0.358 0.083 0.537 0.125 0.564-0.349 0.577 0.122 0.68 0.458v0.324l0.026 0.038c0.216-0.012 0.321 0.107 0.361 0.303l0.085 2e-3c0.283-0.592 0.633-0.355 0.95-0.054 0.518 0.492 1.045 0.968 1.658 1.343 0.314 0.192 0.626 0.357 1.001 0.207 0.349-0.14 0.622-0.379 0.68-0.76 0.054-0.349-0.164-0.606-0.474-0.695-0.96-0.274-1.22-0.986-1.245-1.868-0.426-0.267-0.71-0.585-0.405-1.117-0.185-0.643-0.147-1.306-0.174-1.963-0.273-0.13-0.549-0.256-0.612-0.6l-0.025-0.021c-0.263-0.015-0.412-0.2-0.562-0.382-0.2-7e-3 -0.411 0.027-0.596-0.029-0.395-0.119-0.797-0.317-0.737-0.806 0.054-0.435 0.475-0.47 0.824-0.491 0.498-0.03 0.969-0.293 1.483-0.177l0.069-0.096c-0.151-0.464-0.085-0.829 0.445-0.983l3e-3 -3e-3c0.101-0.535 0.484-0.601 0.931-0.562 0.094-0.026 0.187-0.02 0.277 0.017 0.188-0.047 0.375-0.094 0.563-0.142 0.345-0.322 0.6-0.071 0.861 0.137 0.731 0.238 1.139 0.909 1.765 1.309 1.517 0.97 1.74 0.918 2.097-0.873-0.082-0.142-0.163-0.283-0.245-0.424-0.313-0.047-0.498-0.278-0.697-0.487-0.782-0.174-1.091-0.852-1.425-1.443-0.228-0.401-0.053-0.79 0.491-0.862 0.078-0.025 0.153-0.056 0.225-0.093 0.121-0.363 0.43-0.527 0.725-0.721 1.295-0.851 1.352-1.067 0.958-2.603-0.1-0.392-0.682-0.945 0.213-1.187l9e-3 -7e-3c0.256-0.848 1.057-0.701 1.647-0.816 0.708-0.138 1.362-0.188 1.85-0.855 0.494-0.675 1.29-0.576 1.968-0.362 1.161 0.365 2.107-0.016 2.921-0.759 0.321-0.292-0.762-2.287-1.383-2.84-0.809-0.72-1.701-0.99-2.784-0.948-1.248 0.049-2.546 0.238-3.655-0.663-0.423-0.344-0.863-0.095-1.233 0.228-1.366 1.196-2.985 0.863-4.502 0.582-1.261-0.234-1.505-1.287-0.664-2.134l4e-3 -4e-3c0.985-0.805 2.079-1.28 3.38-1.102 0.389 0.053 0.814 0.286 1.087-0.18 0.238-0.404-8e-3 -0.757-0.182-1.13-0.543-1.167-1.348-1.806-2.723-1.709-0.897 0.063-1.871 0.026-2.16-1.158l-0.015-0.014c-0.654-0.114-0.788-0.571-0.725-1.134 0.049-0.431 0.075-0.87-0.469-0.956-0.542-0.085-1.309-0.248-1.504 0.361-0.355 1.113-1.213 1.042-2.047 1.208-1.548 0.306-1.702 0.62-1.122 2.051 0.518 1.281-0.022 2.226-1.378 2.4-0.201 0.026-0.407 0.011-0.611 0.021-1.496 0.068-1.602 0.129-1.886 1.62-0.16 0.838-0.414 1.661-0.243 2.559 0.159 0.837-0.386 1.445-1.003 1.937-0.234 0.186-0.552 0.264-0.8 0.437-0.705 0.491-0.677 1.09 0.062 1.514 0.218 0.125 0.454 0.216 0.682 0.322 0.31-4e-3 0.619-8e-3 0.929-0.012 1.61-1.996 3.218-2.292 5.259-0.871 0.58 0.405 1.018 0.597 1.611 0.102 0.357-0.298 0.806-0.423 1.282-0.423 0.941 1e-3 1.588 0.713 1.529 1.692-0.054 0.905-0.918 1.639-1.796 1.407-2.567-0.678-5.126-0.128-7.684 5e-3 -0.761 0.039-1.523 0.187-2.275 0.031-0.548-0.113-1.119-0.293-1.09-1.045 0.026-0.689-0.435-0.713-0.924-0.666-0.519 0.05-0.955 0.336-1.416 0.548-0.511 0.234-1.022 0.513-1.567 0.078-0.193 5e-3 -0.385 0.01-0.578 0.015-0.968 1.034-2.215 1.703-3.372 2.473-0.636 0.424-1.44 0.198-2.195-0.034-1.338-0.413-2.661-0.921-4.089-0.972-0.7-0.025-1.302 0.026-1.499 0.897-0.158 0.701-0.738 0.918-1.398 0.921-0.9 4e-3 -1.275 0.488-1.264 1.339 9e-3 0.636-0.209 1.152-0.636 1.645-0.62 0.719-0.581 0.752 0.386 1.384 0.501 0.01 1.002 0.019 1.503 0.029 0.836-0.273 1.503 0.201 2.209 0.502 0.181 0.024 0.361 0.047 0.541 0.071 0.372-0.269 0.639-0.564 0.489-1.089-0.111-0.392 0.063-0.657 0.501-0.69 0.079-0.027 0.155-0.061 0.228-0.102 0.806-0.523 1.576-0.409 2.129 0.314 0.443 0.578 0.361 0.958-0.331 1.527-0.17 0.041-0.34 0.082-0.509 0.123-0.168 1.122-0.118 2.293-0.82 3.287-0.188 0.266-0.031 0.579 9e-3 0.87 0.049 0.362-0.142 0.555-0.477 0.633-0.341 0.329-0.758 0.37-1.2 0.312-0.421 0.269-0.512 0.017-0.537-0.34-0.015-0.186-0.029-0.373-0.044-0.56-0.764-0.799-0.531-1.823-0.625-2.774l9e-3 -0.054c-0.209 0.014-0.419 0.028-0.629 0.041-1.329 0.216-2.657 0.431-3.986 0.646v2.752c0.046 0.02 0.095 0.034 0.137 0.06 0.126 0.077 0.367 0.184 0.356 0.235-0.234 1.091 0.667 1.859 0.782 2.819 0.06 0.503-0.202 1.067-0.398 1.572-0.136 0.349-0.548 0.4-0.877 0.512v1.223c0.285 0.545 0.875 0.767 1.266 1.201 0.407 0.452 0.968 0.869 0.672 1.564-0.241 0.562-0.842 0.46-1.343 0.495-0.2 0.014-0.397 0.068-0.595 0.104v11.008c0.147 7e-3 0.296 6e-3 0.442 0.024 0.301 0.039 0.612 0.111 0.643 0.476 0.029 0.339-0.202 0.542-0.505 0.635-0.185 0.056-0.386 0.06-0.58 0.088v20.181c0.586 0.356 1.171-0.173 1.869 0.036 0.24 0.453 0.196 1.075 0.439 1.619 0.315 0.706-0.052 1.07-0.869 1.125-0.484 0.032-0.955-0.403-1.439-0.028v3.058c0.724 0.182 1.271-0.028 1.669-0.682 0.503-0.826 1.304-0.877 2.137-0.702 0.865 0.182 0.882 0.92 1.096 1.61 0.402 1.299-0.32 2.259-0.855 3.234-0.356 0.65-1.183 0.742-1.904 0.631-0.537-0.082-1.107-0.135-1.576-0.476l-0.567 0.054v26.296c0.319 0.021 0.639 0.041 0.958 0.061 1.493-0.149 1.493-0.149 1.853 1.139 0.475 0.928 0.3 1.984 0.592 2.953 0.301 1.002 0.665 1.155 1.472 0.524 1.733-1.355 2.203-1.283 3.442 0.524 0.143 0.209 0.272 0.428 0.419 0.634 0.698 0.979 0.849 1.022 1.764 0.246 0.455-0.385 0.87-0.674 1.495-0.459 0.583 0.2 0.95-0.118 1.267-0.573 0.864-1.244 1.448-1.4 2.737-0.764 0.471 0.233 0.961 0.854 1.468 0.301 0.506-0.551 0.075-1.13-0.313-1.624-0.125-0.159-0.243-0.325-0.344-0.5-0.128-0.22-0.268-0.479-0.092-0.704 0.244-0.312 0.556-0.168 0.809 9e-3 0.457 0.32 0.874 0.698 1.344 0.996 0.78 0.495 1.306 0.285 1.607-0.611 0.194-0.577 0.358-1.163 0.543-1.742 0.114-0.357 0.297-0.65 0.73-0.659 0.658-0.161 1.375-0.122 1.941-0.586-0.857-1.259-1.58-2.688-3.463-2.583-0.42 0.023-0.814-0.078-0.917-0.588l-0.02-0.014c-0.571 0.035-1.114-0.063-1.599-0.377-0.443-0.285-0.467-0.636-0.093-0.997 0.143-0.139 0.308-0.293 0.49-0.348 1.154-0.348 1.989-1.061 2.791-1.966 0.913-1.03 2.281-0.479 2.581 0.878 0.283 1.28 0.54 2.578 0.977 3.808 0.48 1.348 1.546 2.346 2.471 3.403 0.252 0.289 0.559 0.012 0.613-0.347 0.047-0.317-0.133-0.579-0.266-0.854-0.439-0.916-0.49-1.911-0.06-2.785 0.284-0.576 0.116-1.07 0.153-1.6 0 0-0.016-0.108-0.017-0.107-0.243-0.063-0.485-0.127-0.727-0.192-1.436-0.842-1.528-1.759-0.102-2.513 0.89-0.469 1.125-1.045 1.085-1.939-0.042-0.96 0.063-1.92-0.397-2.838-0.357-0.713-0.13-1.401 0.396-1.966 0.532-0.57 1.209-0.564 1.827-0.236 0.787 0.416 1.419 0.356 2.078-0.252 0.238-0.22 0.646-0.269 0.985-0.364 0.644-0.179 1.213-0.453 1.743-0.892 1.06-0.878 2.246-0.789 3.281 0.144 0.113 0.102 0.213 0.219 0.326 0.321 1.473 1.322 1.518 1.491 0.625 3.332-0.205 0.421-0.344 0.851-0.429 1.297-0.179 0.938-0.498 1.753-1.459 2.171-0.556 0.241-0.604 0.687-0.246 1.113 0.512 0.609 0.796 1.297 0.885 2.072 0.096 0.828 0.075 1.632-0.593 2.267-0.672 0.639-0.712 1.668-1.41 2.292-0.032 0.193-0.064 0.385-0.096 0.578 0.297 0.315 0.148 0.516-0.173 0.673-0.03 0.544-0.14 1.028-0.814 1.091 0.012 0.265-0.062 0.497-0.263 0.68 0.018 0.218 0.035 0.436 0.053 0.654 0.305 0.024 0.609 0.048 0.914 0.073 0.629 0.051 0.89 0.445 0.893 1.025 0.012 2.29 0.043 4.581-4e-3 6.871-0.019 0.936-0.701 1.474-1.654 1.347-1.313-0.176-2.617-0.406-3.516-1.579-0.332-0.434-0.735-0.849-1.308-1.014-1.083-0.311-2.761 0.581-3.1 1.667-0.143 0.459 0.119 0.718 0.526 0.721 1.008 6e-3 1.594 0.494 1.933 1.417 0.094 0.258 0.368 0.555 0.621 0.634 1.348 0.423 2.246 1.553 3.496 2.136 0.959 0.448 0.942 0.584 0.487 1.504-0.406 0.821-0.782 1.657-1.21 2.466-0.533 1.007-1.449 1.463-2.389 0.861-1.352-0.867-2.923-1.152-4.29-1.931-0.361-0.207-0.775-0.348-0.731-0.853 0.045-0.507 0.469-0.608 0.877-0.701 0.849-0.193 1.671-0.472 2.399-0.956 0.691-0.459 0.701-0.93 0.052-1.445-0.277-0.219-0.583-0.435-0.912-0.549-0.663-0.231-0.969-0.656-1.023-1.351-0.067-0.865-0.597-1.218-1.45-1.206-1.159 0.017-2.329-0.171-3.377 0.593-0.477 0.348-1.048 0.362-1.534-0.116-0.551-0.543-1.162-0.481-1.833-0.207-0.936 0.383-1.954 0.597-2.612 1.475-0.189 0.253-0.48 0.369-0.787 0.432-0.678 0.139-0.971 0.564-0.794 1.22 0.184 0.686-0.055 1.063-0.697 1.281-0.236 0.08-0.426 0.3-0.662 0.369-0.748 0.217-1.266 1.692-2.282 0.454-0.516-0.63-1.522-0.837-1.496-1.958 0.015-0.646-0.569-1.05-1.146-1.314-0.509-0.232-1.021-0.471-1.553-0.637-1.089-0.34-1.928-0.895-2.153-2.114-0.071-0.383-0.325-0.646-0.749-0.61-0.341 0.03-0.525 0.275-0.626 0.587-0.079 0.241-0.138 0.491-0.247 0.717-0.623 1.285-0.627 1.283-1.971 0.741v160.69h792.57v-200.44c-0.797-0.453-1.047-1.247-1.115-2.054" fill="#47616f" fill-rule="nonzero"/>
                </g>
            </g>
        </g>
    </g>
</svg>