<?xml version="1.0" encoding="UTF-8" standalone="no"?>
<!DOCTYPE svg PUBLIC "-//W3C//DTD SVG 1.1//EN" "http://www.w3.org/Graphics/SVG/1.1/DTD/svg11.dtd">
<svg width="100%" height="100%" viewBox="0 0 6600 2770" version="1.1" xmlns="http://www.w3.org/2000/svg" xmlns:xlink="http://www.w3.org/1999/xlink" xml:space="preserve" xmlns:serif="http://www.serif.com/" style="fill-rule:evenodd;clip-rule:evenodd;stroke-linejoin:round;stroke-miterlimit:2;">
    <rect id="Artboard1" x="-0" y="-0" width="6608.56" height="2786.18" style="fill:none;"/>
    <clipPath id="_clip1">
        <rect id="Artboard11" serif:id="Artboard1" x="-0" y="-0" width="6608.56" height="2786.18"/>
    </clipPath>
    <g clip-path="url(#_clip1)">
        <g transform="matrix(1.00106,0,0,1.00106,5.02709e-13,1)">
            <g transform="matrix(8.33333,0,0,8.33333,2442.42,2842.64)">
                <path d="M0,-74.68C-0.22,-74.47 -27.82,-54.6 -28,-54.43C-28.08,-54.43 -28.24,-54.6 -28.46,-54.9C-59.58,-35.57 -228.74,0.8 -228.74,0.8L-293.09,0.8L-293.09,-61.77C-293.09,-61.77 -240.24,-61.53 -228.87,-50.16C-227.82,-49.11 -190.21,-55.66 -181.19,-55.75C-181.22,-57.02 -181.37,-58.29 -181.06,-59.55C-180.77,-59.6 -180.43,-59.58 -180.18,-59.7C-179.63,-59.97 -179.49,-60.64 -179.99,-60.91C-181.23,-61.57 -180.86,-62.69 -180.97,-63.69C-180.2,-62.51 -178.93,-62.18 -177.7,-61.92C-176.84,-61.74 -176.13,-61.43 -175.57,-60.62C-174.82,-61.77 -173.97,-62.05 -172.89,-61.36C-172.42,-61.07 -171.9,-61.14 -171.4,-61.3C-171,-61.42 -170.58,-61.5 -170.21,-61.29C-168.34,-60.22 -166.22,-60.65 -164.24,-60.27C-163.25,-60.07 -162.24,-60.31 -161.23,-60.57C-159.89,-60.93 -158.59,-61.73 -157.09,-61.21C-156.8,-61.11 -156.51,-61.31 -156.24,-61.49C-155.09,-62.23 -153.92,-62.94 -152.79,-63.72C-152.36,-64.02 -152.02,-64.14 -151.55,-63.84C-151.12,-63.57 -150.74,-63.66 -150.61,-64.19C-150.45,-64.88 -149.95,-65.19 -149.35,-65.38C-148.9,-65.53 -148.5,-65.77 -148.22,-66.13C-147.56,-66.97 -146.82,-67 -145.94,-66.49C-145.11,-66.02 -144.3,-66.08 -143.57,-66.78C-143.02,-67.31 -142.29,-67.38 -141.58,-67.42C-141.33,-67.43 -141,-67.31 -140.97,-67.66C-140.92,-68.11 -140.86,-68.46 -140.29,-68.46C-139.89,-68.45 -139.45,-68.54 -139.1,-68.29C-138.4,-67.78 -137.52,-68.01 -136.88,-68.07C-135.95,-68.15 -134.82,-68.69 -134.29,-69.5C-133.49,-70.72 -132.46,-71.18 -131.14,-71.35C-130.72,-71.41 -130.18,-71.48 -130.45,-72.21C-130.6,-72.62 -130.23,-72.67 -129.92,-72.74C-128.83,-72.98 -128.22,-72.37 -127.72,-71.54C-127.6,-71.49 -127.48,-71.45 -127.36,-71.4C-126.56,-71.04 -125.77,-71.15 -125.01,-71.49C-124.43,-71.75 -123.86,-71.84 -123.24,-71.64C-122.27,-71.31 -121.23,-71.51 -120.23,-71.39C-118.05,-71.14 -116.05,-72.12 -114.05,-73.01C-112.88,-73.54 -111.4,-74.14 -110.17,-72.74C-109.87,-72.39 -109.31,-72.22 -108.84,-72.06C-108.32,-71.89 -107.9,-72.25 -107.72,-72.64C-107.46,-73.18 -108.1,-73.06 -108.34,-73.25C-108.41,-73.31 -108.43,-73.42 -108.48,-73.5C-107.5,-74.14 -107.5,-74.14 -107.17,-73.21C-106.8,-72.2 -106.32,-72.06 -105.28,-72.41C-104.6,-72.64 -104.49,-73.28 -104.07,-73.75C-103.45,-73.18 -102.58,-73.02 -102.3,-72.13C-102.19,-71.77 -101.81,-71.61 -101.44,-71.6C-100.98,-71.57 -100.55,-71.43 -100.13,-71.25C-99.83,-71.24 -99.52,-71.28 -99.23,-71.22C-97.61,-70.87 -96,-70.6 -94.31,-70.62C-92.94,-70.64 -91.37,-69.19 -90.98,-67.95C-89.64,-68.69 -87.17,-69.37 -86.65,-69.53C-86.36,-69.62 -86.01,-69.41 -85.77,-69.64C-84.19,-71.14 -82.54,-70.52 -80.94,-69.74C-80.46,-69.51 -80.06,-69.66 -79.62,-69.68C-79.13,-69.71 -78.6,-69.93 -78.54,-69.08C-78.51,-68.63 -77.91,-68.64 -77.62,-68.37C-77.48,-68.27 -77.34,-68.18 -77.2,-68.08C-77.02,-67.78 -71.06,-66.97 -64.69,-68.72C-60.83,-69.78 -57.53,-65.71 -55.33,-65.96C-55.5,-65.98 -55.59,-67.44 -55.98,-68.08C-55.7,-69.43 -54.83,-69.98 -53.49,-69.87C-53.32,-69.59 -52.44,-70.11 -52.62,-70.15C-52.81,-70.2 -47.078,-73.112 -46.938,-73.162C-46.028,-73.493 -37.63,-73.707 -36.75,-74.037C-36.57,-74.097 -27.69,-75.48 -17.92,-74.18C-7.62,-72.81 -0.16,-74.68 0,-74.68" style="fill:rgb(223,224,210);fill-rule:nonzero;"/>
            </g>
            <g transform="matrix(8.33333,0,0,8.33333,5086,3187.89)">
                <path d="M0,-122.22C-0.05,-121.98 -0.09,-121.73 -0.15,-121.49C-0.18,-121.35 -0.27,-121.21 -0.45,-121.22C-0.68,-121.23 -0.81,-121.39 -0.8,-121.6C-0.78,-121.84 -0.7,-122.08 -0.64,-122.32C-0.59,-122.55 -0.57,-122.86 -0.24,-122.81C0.08,-122.75 0.05,-122.47 0,-122.22M-3.24,-126.23C-2.65,-126.25 -2.46,-125.86 -2.19,-125.68C-2.22,-125.4 -2.35,-125.34 -2.51,-125.34C-2.99,-125.37 -3.2,-125.66 -3.24,-126.23M-468.42,-70.55L-468.64,-70.55C-468.57,-70.56 -468.51,-70.57 -468.44,-70.58L-468.35,-70.65L-468.43,-70.57C-468.43,-70.56 -468.43,-70.56 -468.42,-70.55M182.25,-117.25C182.25,-117.25 171.37,-111.18 158.85,-112.37C146.34,-113.57 124.937,-117.03 96.937,-117.03C61.687,-117.03 97.63,-113.72 19.73,-109.69C19.61,-109.71 19.49,-109.74 19.37,-109.76C19.3,-109.83 19.23,-109.92 19.17,-110.03C18.97,-110.36 18.48,-110.16 18.18,-110.01C18.17,-110.01 18.17,-110.01 18.17,-110C17.56,-110.12 16.92,-110.25 16.25,-110.37C16.25,-110.38 16.24,-110.38 16.23,-110.38C15.73,-110.73 14.92,-110.6 14.89,-111.56C14.87,-112.06 14.38,-112.15 13.95,-112.06C13.45,-111.95 12.96,-111.81 12.49,-111.63C11.39,-111.2 10.9,-111.26 10.32,-112.2C9.9,-112.87 9.61,-113.39 8.95,-112.43C8.74,-112.13 8.39,-112.17 8.16,-112.43C7.9,-112.72 8.04,-113.03 8.33,-113.19C8.96,-113.52 9.58,-114.2 10.34,-113.36C10.7,-112.96 11.16,-113.04 11.61,-113.23C11.98,-113.39 12.29,-113.67 12.02,-114.04C11.67,-114.53 11.77,-114.85 12.18,-115.21C12.34,-115.35 12.3,-115.56 12.12,-115.73C11.21,-116.58 11.53,-117.54 11.89,-118.51C11.9,-118.71 11.9,-118.92 11.9,-119.13C11.61,-119.83 10.78,-120.11 10.55,-120.89C10.45,-121.25 10.07,-121.1 9.77,-121.09C8.77,-121.08 8.68,-121.23 8.86,-122.48C8.81,-122.77 8.76,-123.06 8.72,-123.35C8.62,-123.37 8.53,-123.41 8.44,-123.45C8.36,-123.42 8.27,-123.41 8.18,-123.4C8.17,-123.35 8.17,-123.31 8.15,-123.26C8.08,-123.07 8.12,-122.69 7.81,-122.83C7.55,-122.94 7.75,-123.22 7.9,-123.4C7.69,-123.55 7.56,-123.75 7.56,-124.01C7.31,-124.2 6.98,-124.81 6.76,-124.32C6.25,-123.19 5.42,-123.29 4.5,-123.44C4.4,-123.46 4.3,-123.42 4.2,-123.41C4.21,-123.7 4.22,-124 4.23,-124.3C4.25,-124.89 4.08,-125.23 3.37,-125.21C2.5,-125.17 2.7,-125.68 3,-126.17C2.9,-126.46 2.75,-126.71 2.48,-126.89C1.91,-126.75 1.47,-126.48 1.38,-125.82C1.29,-125.13 0.8,-124.95 0.19,-124.96C0.08,-123.91 -0.71,-123.58 -1.57,-123.32C-2.03,-123.18 -2.42,-123.31 -2.57,-123.75C-2.76,-124.27 -2.24,-124.27 -1.94,-124.4C-1.8,-124.46 -1.65,-124.48 -1.51,-124.53C-0.73,-124.82 -0.63,-125.02 -1.15,-125.56C-2.02,-126.46 -2.14,-127.91 -3.4,-128.51C-3.91,-128.76 -3.16,-129.68 -3.95,-129.72C-4.45,-129.74 -4.37,-128.85 -4.87,-128.82C-5.62,-128.77 -6.51,-128.5 -7.08,-129.03C-8.23,-130.08 -9.17,-129.66 -10.16,-128.89C-10.21,-128.85 -10.25,-128.8 -10.28,-128.73C-10.49,-127.98 -11.47,-127.47 -10.92,-126.43C-11.96,-127.67 -13.66,-127.76 -14.62,-128.95C-14.74,-128.51 -14.6,-127.92 -15.31,-127.87C-15.39,-127.6 -15.56,-127.41 -15.83,-127.31C-15.83,-127.12 -15.84,-126.92 -15.84,-126.73C-15.85,-126.02 -16.04,-125.55 -16.9,-125.82C-17.25,-125.93 -17.59,-125.8 -17.93,-125.71C-18.39,-125.58 -18.82,-125.6 -19.17,-125.96C-19.53,-125.83 -19.89,-125.7 -20.25,-125.57C-20.81,-125.12 -21.39,-124.74 -22.11,-125.27L-22.25,-125.24L-22.39,-125.25C-22.92,-125.35 -23.45,-125.48 -23.98,-125.54C-24.76,-125.64 -25.16,-126 -25.09,-126.81L-25.11,-126.84C-25.47,-126.78 -25.8,-126.83 -26.08,-127.06C-26.27,-127.04 -26.45,-127.01 -26.64,-126.98C-27.54,-126.39 -28.45,-126.83 -29.33,-126.99C-29.71,-127.06 -30.04,-127.36 -30.47,-127.22C-31.41,-126.91 -31.88,-127.43 -32.19,-128.21C-32.48,-128.21 -32.77,-128.21 -33.06,-128.22C-33.12,-128.13 -33.17,-127.99 -33.24,-127.98C-34.46,-127.81 -35.22,-126.94 -36.07,-126.18C-36.25,-126.01 -36.48,-125.73 -36.67,-125.75C-37.55,-125.84 -38.06,-125.3 -38.58,-124.75C-38.93,-124.38 -39.37,-124.33 -39.83,-124.31C-40.23,-124.41 -40.63,-124.5 -41.03,-124.6C-41.14,-124.38 -41.23,-124.15 -41.35,-123.93C-42.21,-122.39 -42.21,-122.39 -43.88,-122.9C-44.63,-122.63 -45.39,-122.87 -46.14,-122.9C-46.8,-122.93 -47.44,-122.89 -48.09,-122.8L-48.09,-122.79C-48.21,-122.57 -48.29,-122.32 -48.45,-122.14C-48.73,-121.8 -48.87,-121.58 -48.5,-121.13C-48.07,-120.6 -48.26,-120.27 -48.93,-120.13C-49.12,-120.08 -49.33,-120.12 -49.53,-120.11C-49.99,-120.09 -50.25,-119.8 -50.39,-119.4C-50.54,-118.98 -50.33,-118.73 -50,-118.53C-49.85,-118.44 -49.74,-118.32 -49.65,-118.19C-56.14,-118.65 -62.5,-118.94 -68.68,-119.07C-68.75,-119.09 -68.81,-119.12 -68.89,-119.14C-69.46,-119.27 -69.83,-119.68 -69.83,-120.33C-70.18,-120.68 -70.67,-120.63 -71.09,-120.75C-71.24,-121.12 -71,-121.34 -70.79,-121.53C-70.28,-121.99 -70.25,-122.6 -70.6,-123.03C-70.99,-123.51 -71.2,-124.23 -72.2,-124.1C-72.94,-124.01 -73.72,-123.5 -74.5,-123.97C-74.58,-124.04 -74.66,-124.11 -74.74,-124.18C-74.83,-124.22 -74.93,-124.26 -75.03,-124.3C-76.05,-124.57 -77.08,-124.82 -78.09,-125.14C-79.66,-125.62 -80.81,-124.77 -81.98,-123.98C-82.09,-123.9 -82.14,-123.71 -82.26,-123.63C-82.76,-123.29 -83.24,-122.8 -83.79,-122.7C-84.52,-122.57 -84.67,-123.39 -85.03,-123.86C-85.12,-123.97 -85.22,-124.13 -85.34,-124.17C-86.55,-124.57 -87.74,-124.31 -88.92,-124.01C-89.71,-123.8 -90.03,-123.19 -90.25,-122.48C-90.3,-122.29 -90.37,-122.09 -90.45,-121.91C-90.62,-121.56 -90.5,-121.03 -90.94,-120.85C-91.4,-120.67 -91.46,-121.22 -91.74,-121.4C-92.12,-121.64 -92.52,-121.59 -92.92,-121.53C-93.41,-121.46 -93.9,-121.26 -94.41,-121.44C-94.72,-121.34 -94.97,-121.17 -95.16,-120.9C-95.6,-120.43 -96.08,-120 -96.68,-119.73L-96.7,-119.7C-96.76,-119.6 -96.83,-119.5 -96.9,-119.4L-96.96,-119.3C-97.13,-119.11 -97.28,-118.93 -97.4,-118.75L-94.95,-118.55C-102.03,-118.1 -108.67,-117.4 -114.73,-116.48C-128.61,-125.56 -162.21,-121.63 -196.38,-121.63C-223.62,-121.63 -242.168,-128.428 -257.928,-122.208C-257.488,-123.038 -258.36,-122.95 -257.73,-123.57C-257.71,-123.89 -257.76,-124.19 -258.17,-124.16C-258.71,-124.12 -258.95,-124.47 -259.14,-124.89L-259.26,-124.96C-259.49,-124.99 -259.72,-125.02 -259.94,-125.06C-260.13,-125.1 -260.31,-125.14 -260.49,-125.19C-260.74,-125.1 -260.97,-125.11 -261.17,-125.29C-261.24,-125.3 -261.3,-125.33 -261.35,-125.38C-261.9,-125.61 -262.43,-125.38 -262.97,-125.32C-263.07,-125.11 -263.25,-125.02 -263.46,-124.97C-263.45,-123.95 -263.84,-123.13 -264.64,-122.5L-264.31,-121.18C-264.99,-120.73 -265.71,-120.59 -266.52,-120.46C-268.27,-120.16 -270.01,-119.69 -271.48,-118.57C-271.74,-118.37 -271.91,-118.14 -272.01,-117.85C-272.2,-117.25 -272.5,-116.98 -273.22,-116.98C-273.91,-116.97 -274.31,-116.2 -274.9,-115.84C-275.8,-115.3 -275.83,-115.28 -276.01,-116.31C-276.06,-116.59 -276.16,-116.79 -276.35,-116.96C-276.74,-117.31 -277.11,-117.64 -276.89,-118.25C-276.82,-118.44 -276.9,-118.74 -277.1,-118.77C-277.96,-118.86 -277.88,-119.59 -278.07,-120.13C-278.24,-120.62 -278.4,-120.99 -279.03,-120.71C-279.37,-120.56 -279.82,-120.57 -280,-120.92C-280.54,-121.99 -281.36,-121.49 -282.12,-121.36C-282.26,-121.34 -282.39,-121.19 -282.53,-121.18C-284.35,-121.06 -286,-120.57 -287.22,-119.13C-287.6,-118.69 -288.26,-119.21 -288.49,-118.86C-288.92,-118.21 -289.41,-118.27 -290.06,-118.32C-290.46,-118.34 -290.91,-118.04 -291.3,-117.81C-292.06,-117.34 -292.73,-116.69 -293.78,-117.07C-293.99,-117.15 -294.41,-116.96 -294.6,-116.76C-295.18,-116.16 -295.95,-116.08 -296.68,-115.92C-297.81,-115.68 -298.28,-116 -298.55,-117.1C-298.65,-117.49 -298.72,-117.89 -298.81,-118.3C-299.19,-118.1 -299.1,-117.76 -299.16,-117.48C-299.24,-117.07 -299.44,-116.85 -299.89,-116.89C-300.3,-116.93 -300.54,-117.14 -300.58,-117.56C-300.72,-119.22 -301.34,-120.83 -301.15,-122.53C-301.21,-123.02 -301.26,-123.51 -301.32,-123.99C-301.65,-126.46 -302,-128.93 -302.32,-131.41C-303.1,-137.46 -303.76,-143.53 -304.7,-149.17C-305.58,-140.91 -305.89,-132.22 -306.91,-123.42C-309.13,-124.6 -311.11,-124.34 -313.07,-123.45C-313.23,-122.87 -313.67,-122.6 -314.2,-122.42C-314.59,-122.28 -314.86,-122.43 -314.97,-122.84C-315.01,-122.88 -315.06,-122.91 -315.12,-122.93L-316.25,-122.93C-316.38,-122.83 -316.51,-122.73 -316.64,-122.63L-317.2,-122.63C-317.46,-122.59 -317.71,-122.55 -317.96,-122.51C-318.14,-122.3 -318.35,-122.21 -318.63,-122.25C-318.81,-122.26 -318.99,-122.27 -319.18,-122.28C-319.54,-121.92 -320,-121.93 -320.46,-121.95C-320.65,-121.85 -320.84,-121.74 -321.02,-121.63C-321.1,-121.39 -321.25,-121.15 -321.25,-120.91C-321.3,-118.8 -322.83,-118.01 -324.48,-117.48C-326.29,-116.9 -327.35,-115.65 -328.1,-114.03C-328.63,-112.89 -329.46,-112.14 -330.7,-111.92C-331.69,-111.75 -332.31,-111.15 -332.78,-110.32C-333.3,-109.4 -333.99,-108.73 -335.14,-108.77C-335.33,-108.78 -335.51,-108.79 -335.7,-108.8C-336.43,-109.09 -337.16,-109.38 -337.88,-109.67C-338.07,-109.65 -338.26,-109.63 -338.45,-109.61C-338.96,-108.91 -339.28,-109.39 -339.62,-109.8C-340.3,-110.61 -340.5,-110.62 -341.17,-109.81C-341.33,-109.62 -341.48,-109.4 -341.6,-109.18C-342.31,-107.87 -342.45,-107.73 -343.7,-107.11C-343.93,-106.99 -344.19,-106.82 -344.07,-106.53C-343.75,-105.79 -344.24,-105.8 -344.72,-105.75C-346.28,-105.57 -347.53,-106.46 -348.9,-106.92C-349.09,-106.92 -349.28,-106.92 -349.48,-106.93C-350.36,-106.76 -351.29,-107.16 -352.16,-106.74C-352.28,-106.69 -352.5,-106.72 -352.6,-106.8C-353.55,-107.65 -354.8,-107.71 -356.04,-108.08C-355.72,-108.56 -355.37,-108.43 -355.05,-108.39C-354.59,-108.33 -354.14,-108.21 -353.69,-108.2C-352.69,-108.18 -352.45,-108.39 -352.26,-109.37C-352.2,-109.72 -352.14,-110.07 -352.08,-110.42L-352.16,-110.5C-352.68,-110.29 -353.12,-110.42 -353.49,-110.82C-353.68,-110.86 -353.86,-110.91 -354.05,-110.96C-354.37,-110.57 -354.77,-110.18 -355.27,-110.51C-355.66,-110.78 -355.25,-111.23 -355.28,-111.59C-355.98,-112.09 -356.46,-112.89 -357.37,-113.1C-358.34,-113.08 -359.3,-113.07 -360.23,-113.42C-360.58,-113.56 -360.91,-113.61 -361.18,-113.26C-361.65,-112.68 -362.17,-112.45 -362.89,-112.91C-363.22,-113.11 -363.46,-112.82 -363.51,-112.47C-363.56,-112.17 -363.58,-111.87 -363.58,-111.56C-363.57,-110.98 -363.67,-110.45 -364.25,-110.14C-364.53,-109.99 -364.7,-109.74 -364.78,-109.43C-364.97,-108.73 -365.58,-108.41 -366.14,-108.36C-367.65,-108.22 -368.33,-107.47 -368.23,-106.06C-368.52,-105.88 -368.7,-105.95 -368.88,-106.05C-369.12,-106.18 -369.36,-106.58 -369.63,-106.18C-369.85,-105.85 -370.02,-105.41 -369.58,-105.09C-369.17,-104.8 -368.73,-104.55 -368.29,-104.29C-367.24,-103.66 -366.95,-103.33 -366.74,-102.46C-367.18,-102.23 -367.34,-102.69 -367.62,-102.84C-367.85,-102.95 -368.2,-103.16 -368.28,-102.89C-368.56,-101.97 -369.04,-102.48 -369.55,-102.59C-370.53,-102.8 -371.46,-102.66 -372.25,-101.72C-371.71,-101.62 -371.03,-101.65 -371.2,-100.85C-370.95,-100.85 -370.7,-100.87 -370.46,-100.83C-370.13,-100.77 -370.08,-100.53 -370.27,-100.29C-370.8,-99.58 -372.15,-99.28 -373.06,-99.65C-374.76,-99.27 -376.37,-98.53 -378.13,-98.42C-378.6,-98.39 -378.97,-98.09 -379.41,-98C-379.62,-98.02 -379.83,-98.04 -380.05,-98.06C-381.07,-97.81 -382.1,-98.17 -383.12,-98.05L-383.27,-98.02L-383.41,-98.04C-384.56,-97.78 -385.72,-97.55 -386.88,-98.02C-386.98,-98.11 -387.08,-98.2 -387.18,-98.29C-387.96,-98.51 -388.76,-98.53 -389.55,-98.33C-390.96,-97.98 -392.18,-98.23 -393.12,-99.44C-393.29,-99.65 -393.62,-99.75 -393.87,-99.9C-394.69,-100.45 -395.39,-101.15 -396.44,-101.39C-396.97,-101.52 -397.35,-101.67 -397.81,-101.29C-398.03,-101.09 -398.31,-100.95 -398.59,-100.83C-399.04,-100.65 -399.44,-100.57 -399.73,-101.15C-400.1,-101.86 -400.78,-102.12 -401.55,-101.94C-402.86,-101.63 -404.18,-101.75 -405.5,-101.78C-406.3,-101.11 -407.28,-101.58 -408.16,-101.39C-408.31,-100.97 -408.6,-100.8 -408.98,-101.05C-409.33,-101.28 -409.75,-101.32 -410.1,-101.48C-411.81,-102.26 -413.68,-101.94 -415.46,-102.26C-416.87,-102.51 -418.37,-102.05 -419.76,-101.49C-422.11,-100.55 -424.45,-99.58 -426.77,-98.58C-428.66,-97.76 -430.59,-97.04 -432.41,-95.95C-434.73,-94.55 -437.22,-93.33 -439.81,-92.4C-440.38,-92.19 -441.01,-92.05 -441.43,-91.58C-442,-90.93 -442.76,-90.57 -443.53,-90.4C-446.6,-89.69 -449,-87.49 -452.01,-86.67C-453.85,-85.24 -456.12,-84.69 -458.22,-83.84C-459.89,-83.17 -461.74,-82.92 -463.52,-82.5C-465.84,-81.95 -468.3,-82.1 -470.56,-81.26C-471.98,-80.73 -473.37,-80.5 -474.88,-80.91C-475.44,-81.07 -476.14,-81.08 -476.69,-80.91C-478.3,-80.41 -480.04,-80.58 -481.61,-79.91C-482.11,-79.69 -482.6,-79.84 -483.1,-79.97C-486.11,-80.8 -489.2,-80.92 -492.29,-81.09C-492.66,-81.11 -493.01,-81.16 -493.35,-81.23C-494.15,-81.61 -495.09,-81.97 -496.15,-82.3C-496.55,-82.52 -496.94,-82.77 -497.33,-83.04C-497.94,-83.46 -499.755,-83.611 -499.765,-83.271C-530.906,-76.123 -610.32,-82.52 -610.32,-82.52L-610.32,-28.84L-555.48,-28.84L-555.48,26.95L-117.23,26.95L-104.28,-65.54C-79.9,-55.85 -50.06,-47.72 -24.09,-45.84C4.87,-43.73 17.82,-60.48 23.57,-77.08C50.04,-64.24 96.93,-51.71 134.73,-51.71C190.72,-51.71 182.25,-117.25 182.25,-117.25" style="fill:rgb(148,153,136);fill-rule:nonzero;"/>
            </g>
            <g transform="matrix(8.33333,0,0,8.33333,5707.37,1563.47)">
                <path d="M0,91.283C-0.092,91.602 -0.299,91.829 -0.641,91.841C-1.024,91.854 -1.124,91.548 -1.223,91.248C-1.285,91.057 -1.386,90.879 -1.47,90.695C-1.617,90.906 -1.588,91.332 -1.997,91.215C-2.101,91.186 -2.221,90.844 -2.169,90.708C-1.993,90.245 -1.719,90.59 -1.481,90.679C-1.209,90.189 -0.839,90.053 -0.346,90.364C-0.001,90.582 0.111,90.896 0,91.283M-53.06,95.604L-52.998,95.505L-52.952,95.614L-53.06,95.604ZM-61.837,91.335C-61.927,91.641 -62.172,91.819 -62.515,91.763C-62.597,91.749 -62.714,91.669 -62.734,91.597C-62.835,91.221 -62.553,91.089 -62.29,90.942C-62.121,90.847 -61.967,90.728 -61.806,90.618C-61.811,90.859 -61.771,91.112 -61.837,91.335M-186.693,69.859C-186.74,70.1 -186.78,70.343 -186.837,70.581C-186.874,70.73 -186.963,70.863 -187.136,70.855C-187.366,70.845 -187.499,70.682 -187.486,70.474C-187.472,70.233 -187.392,69.995 -187.335,69.757C-187.28,69.528 -187.263,69.214 -186.932,69.268C-186.612,69.321 -186.643,69.608 -186.693,69.859M-189.929,65.845C-189.342,65.83 -189.155,66.215 -188.881,66.394C-188.907,66.676 -189.045,66.739 -189.198,66.732C-189.683,66.709 -189.891,66.415 -189.929,65.845M-233.823,79.011C-233.125,78.96 -232.73,79.087 -232.042,79.424C-232.794,79.428 -233.211,79.413 -233.823,79.011M-251.874,74.824C-251.83,74.883 -251.787,74.942 -251.743,75.001C-251.937,75.035 -251.876,74.911 -251.874,74.824M-286.508,74.975C-285.916,74.823 -285.57,75.06 -285.086,75.568C-285.801,75.606 -286.162,75.439 -286.508,74.975M-305.367,47.254C-305.728,47.273 -305.92,47.695 -306.438,47.645C-306.759,47.206 -306.684,46.747 -306.556,46.321C-306.41,45.836 -306.02,45.61 -305.512,45.643C-305.074,45.672 -304.713,45.866 -304.657,46.332C-304.597,46.832 -304.767,47.223 -305.367,47.254M-316.08,47.467C-316.435,47.486 -316.695,47.854 -317.074,47.664C-317.301,47.302 -317.262,46.887 -317.227,46.497C-317.187,46.04 -316.862,45.781 -316.411,45.761C-315.963,45.741 -315.564,45.948 -315.553,46.415C-315.544,46.814 -315.459,47.433 -316.08,47.467M-504.129,137.472C-505.048,137.511 -505.725,137.308 -505.935,136.312L-496.512,136.312C-497.699,136.913 -498.916,137.432 -500.309,137.451C-501.583,137.468 -502.858,137.418 -504.129,137.472M-508.369,137.45C-508.739,137.458 -509.087,137.439 -509.112,136.917C-509.121,136.713 -509.187,136.502 -509.276,136.312L-507.19,136.312C-507.229,136.544 -507.267,136.776 -507.341,136.996C-507.508,137.492 -507.967,137.442 -508.369,137.45M-512.279,137.502C-513.117,137.449 -513.76,137.234 -514.195,136.502C-514.238,136.431 -514.281,136.368 -514.325,136.312L-510.59,136.312C-510.895,137.046 -511.29,137.566 -512.279,137.502M-516.526,137.481C-517.395,137.467 -518.281,137.549 -518.93,136.799C-519.055,136.653 -519.151,136.482 -519.251,136.312L-515.082,136.312C-515.112,136.361 -515.142,136.412 -515.171,136.478C-515.445,137.098 -515.794,137.494 -516.526,137.481M-521.221,136.694C-521.236,136.567 -521.25,136.439 -521.264,136.312L-519.658,136.312C-519.876,136.511 -519.908,136.857 -520.127,137.042C-520.646,137.478 -521.14,137.372 -521.221,136.694M-523.181,137.756C-526.288,137.791 -529.396,137.769 -532.503,137.762C-532.701,137.762 -532.904,137.709 -533.097,137.653C-533.256,137.608 -533.323,137.464 -533.332,137.305C-533.342,137.123 -533.217,137.021 -533.072,136.972C-532.882,136.906 -532.677,136.881 -532.481,136.83C-532.147,136.743 -531.721,136.702 -531.65,136.312L-521.623,136.312C-521.703,137.358 -522.086,137.743 -523.181,137.756M-556.141,136.312L-555.83,136.312C-555.822,136.366 -555.821,136.413 -555.808,136.471C-555.919,136.409 -556.031,136.358 -556.141,136.312M-561.36,137.934C-561.716,138.098 -561.911,137.799 -562.075,137.537C-562.156,137.408 -562.195,137.253 -562.28,137.128C-562.669,136.556 -562.939,136.549 -563.15,137.231C-563.427,138.126 -563.95,138.436 -564.845,138.382C-566.042,138.31 -566.348,138.085 -566.347,136.839C-566.347,136.642 -566.391,136.473 -566.451,136.312L-561.573,136.312C-561.416,136.541 -561.255,136.764 -561.148,137.013C-561,137.356 -560.945,137.743 -561.36,137.934M-568.401,138.603C-569.415,138.944 -570.469,138.582 -570.948,137.762C-571.15,137.417 -571.207,136.985 -571.577,136.742C-571.769,136.616 -571.905,136.471 -572.007,136.312L-567.639,136.312C-567.658,136.483 -567.661,136.658 -567.642,136.837C-567.566,137.582 -567.536,138.313 -568.401,138.603M-631.884,12.776C-632.055,13.288 -632.011,13.882 -632.014,14.439C-632.015,14.731 -632.015,15.023 -632.017,15.314C-632.015,15.023 -632.015,14.731 -632.014,14.439C-632.012,13.882 -632.055,13.288 -631.884,12.776C-631.753,12.384 -631.715,12.008 -631.717,11.637C-631.715,12.008 -631.753,12.384 -631.884,12.776M-632.307,23.31C-632.165,22.454 -632.052,21.595 -632.027,20.729C-632.051,21.595 -632.165,22.454 -632.307,23.31M-633.618,38.627C-633.428,36.911 -633.221,35.195 -633.187,33.465C-633.221,35.195 -633.427,36.911 -633.618,38.627M-636.943,53.66C-637.077,53.69 -637.199,53.699 -637.307,53.686C-637.199,53.699 -637.077,53.69 -636.944,53.66C-636.621,53.588 -636.303,53.328 -636.052,52.989C-636.303,53.328 -636.621,53.588 -636.943,53.66M-640.994,43.809C-641.022,43.911 -641.035,44.017 -641.05,44.123C-641.035,44.017 -641.022,43.911 -640.995,43.809C-640.978,43.745 -640.936,43.675 -640.883,43.616C-640.936,43.675 -640.977,43.745 -640.994,43.809M-642.132,49.711C-642.159,49.843 -642.192,49.975 -642.252,50.083C-642.192,49.975 -642.159,49.843 -642.132,49.711C-641.795,48.042 -641.464,46.371 -641.137,44.7C-641.464,46.371 -641.795,48.042 -642.132,49.711M-643.476,81.396C-643.915,81.842 -644.229,82.328 -644.36,82.957C-644.564,83.933 -645.232,84.436 -646.208,84.46C-647.076,84.481 -647.926,84.572 -648.776,84.749C-649.938,84.99 -650.87,84.434 -651.688,83.722C-652.343,83.152 -652.791,82.381 -653.144,81.598C-653.48,80.851 -653.297,80.085 -652.795,79.444C-652.293,78.804 -651.732,78.213 -651.002,77.813C-650.646,77.617 -650.291,77.416 -649.956,77.188C-648.936,76.495 -648.906,76.339 -649.715,75.445C-650.13,74.987 -650.537,74.568 -650.55,73.883C-650.569,72.901 -649.382,71.572 -648.167,71.29C-646.733,70.955 -645.082,71.912 -644.689,73.317C-644.395,74.367 -644.915,75.121 -645.71,75.658C-646.446,76.155 -646.879,76.609 -646.274,77.497C-646.121,77.721 -646.177,78.087 -646.141,78.389C-645.953,79.933 -645.216,80.486 -643.657,80.243C-643.46,80.212 -643.27,80.122 -642.974,80.282C-642.922,80.794 -643.196,81.11 -643.476,81.396M-652.924,86.639C-653.795,88.497 -654.643,88.928 -656.536,88.203C-657.454,87.851 -658.064,87.983 -658.692,88.666C-658.967,88.965 -659.247,89.482 -659.813,89.065C-660.016,89.069 -660.219,89.072 -660.422,89.076C-661.534,89.338 -662.169,88.56 -662.882,87.95C-662.959,87.938 -663.034,87.918 -663.107,87.892C-663.962,87.721 -664.201,87.064 -664.339,86.327C-664.432,86.235 -664.526,86.142 -664.62,86.049C-665.319,85.394 -665.458,84.715 -664.978,83.982C-663.861,82.273 -660.264,80.738 -658.611,83.15C-658.285,83.626 -657.813,83.725 -657.281,83.725C-656.367,83.724 -655.449,83.691 -654.54,83.765C-652.823,83.906 -652.188,85.071 -652.924,86.639M-664.518,96.93C-665.024,97.189 -665.245,97.574 -665.325,98.126C-665.404,98.669 -665.842,98.899 -666.341,98.831C-667.145,98.721 -667.952,98.582 -668.729,98.354C-669.512,98.124 -669.38,97.168 -669.89,96.658C-670.108,96.44 -669.635,96.221 -669.335,96.151C-668.248,95.896 -668.224,95.887 -668.586,94.808C-668.81,94.14 -668.546,93.732 -668.006,93.422C-667.64,93.211 -667.227,93.207 -666.818,93.202C-665.117,93.006 -663.961,94.807 -664.084,96.013C-664.122,96.388 -664.17,96.753 -664.518,96.93M-671.875,73.814C-672.916,73.799 -673.664,73.417 -673.619,72.943C-673.546,72.184 -672.875,72.068 -672.302,71.904C-671.771,71.752 -671.223,71.656 -670.682,71.54C-670.221,71.442 -669.772,71.472 -669.366,71.728C-668.76,72.109 -668.745,72.93 -669.403,73.168C-670.25,73.473 -671.122,73.756 -671.875,73.814M-673.998,82.034C-674.512,81.966 -675.036,81.829 -675.136,81.21C-675.204,80.794 -674.614,80.427 -673.944,80.456C-673.465,80.521 -672.977,80.673 -672.894,81.3C-672.831,81.776 -673.343,82.12 -673.998,82.034M-675.49,86.739C-676.398,87.341 -677.198,87.207 -677.989,86.337C-678.299,85.996 -678.689,85.965 -679.046,85.8C-679.237,85.711 -679.428,85.582 -679.414,85.362C-679.396,85.079 -679.073,84.798 -678.925,84.889C-677.671,85.664 -676.508,84.657 -675.304,84.762C-674.821,84.804 -674.271,84.777 -673.93,85.372C-674.338,85.945 -674.918,86.359 -675.49,86.739M-676.349,102.189C-676.576,102.299 -676.814,102.388 -677.054,102.467C-677.967,102.769 -678.854,103.088 -678.835,104.302C-678.834,104.341 -679.005,104.384 -679.096,104.426C-679.316,104.706 -679.622,104.786 -679.958,104.802C-680.083,104.897 -680.2,104.888 -680.309,104.775C-680.399,104.759 -680.487,104.738 -680.574,104.71C-680.69,104.628 -680.805,104.547 -680.92,104.465C-681.021,104.36 -681.122,104.256 -681.223,104.151C-681.421,104.103 -681.613,104.016 -681.604,103.787C-681.593,103.498 -681.383,103.385 -681.114,103.367C-680.945,103.318 -680.775,103.27 -680.605,103.221C-680.541,102.337 -680.987,101.488 -680.776,100.595C-680.855,100.465 -680.934,100.336 -681.013,100.206C-681.215,100.059 -681.186,99.93 -680.982,99.816C-680.746,99.622 -680.511,99.428 -680.276,99.234C-680.249,99.063 -680.142,98.981 -679.976,98.965C-679.884,98.93 -679.794,98.891 -679.706,98.847C-679.609,98.715 -679.479,98.665 -679.318,98.697C-678.845,98.702 -678.372,98.707 -677.899,98.713C-677.747,98.681 -677.626,98.727 -677.538,98.856C-677.434,98.903 -677.33,98.949 -677.227,98.996C-677.088,98.986 -677.002,99.046 -676.976,99.185L-676.897,99.251C-676.118,99.795 -676.152,100.723 -675.874,101.494C-675.767,101.789 -676.06,102.05 -676.349,102.189M-679.495,66.976C-679.471,66.526 -678.885,66.13 -678.228,66.118C-677.478,66.106 -676.949,66.503 -676.929,67.094C-676.908,67.663 -677.373,68.062 -678.044,68.054C-678.761,68.045 -679.521,67.48 -679.495,66.976M-676.929,78.648C-676.438,78.641 -676.191,78.918 -676.192,79.416C-676.326,80.064 -676.8,80.174 -677.345,80.096C-677.759,80.037 -678.228,79.863 -678.128,79.36C-678.011,78.775 -677.455,78.656 -676.929,78.648M-681.061,61.063C-681.741,61.252 -682.37,60.971 -682.765,60.349C-683.166,59.719 -682.936,59.139 -682.229,58.929C-681.88,58.825 -681.513,58.808 -681.179,58.929C-680.484,59.182 -679.835,59.127 -679.114,58.95C-678.008,58.68 -677.035,59.272 -676.113,59.786C-675.512,60.121 -675.586,60.757 -676.18,61.116C-676.469,61.29 -676.743,61.331 -677.971,61.338C-678.119,61.324 -678.61,61.38 -679.014,61.218C-679.7,60.941 -680.328,60.859 -681.061,61.063M-668.486,61.472C-668.067,61.119 -667.536,61.008 -667.055,61.169C-666.15,61.472 -665.256,61.833 -664.408,62.27C-663.823,62.571 -663.897,63.14 -664.528,63.385C-664.994,63.565 -665.501,63.638 -666.011,63.764C-667.103,63.541 -667.831,62.733 -668.663,62.119C-668.883,61.956 -668.688,61.642 -668.486,61.472M-667.894,74.305C-667.237,73.921 -666.368,74.067 -666.141,74.605C-665.935,75.09 -666.062,75.553 -666.568,75.743C-667.097,75.941 -667.673,76.023 -668.052,75.409L-668.071,75.393C-668.768,74.909 -668.366,74.58 -667.894,74.305M-667.542,80.32C-667.22,80.357 -666.964,80.494 -666.979,80.886C-667.112,81.368 -667.472,81.492 -667.906,81.431C-668.283,81.379 -668.635,81.165 -668.535,80.75C-668.418,80.261 -667.951,80.272 -667.542,80.32M-662.433,76.202C-661.336,76.007 -660.867,76.308 -660.651,77.126C-660.37,78.193 -660.722,78.923 -661.718,79.331C-662.447,79.63 -663.209,79.573 -664.259,79.524C-664.878,79.506 -665.802,79.56 -666.585,78.948C-667.591,78.163 -667.492,77.249 -666.325,76.749C-666.096,76.651 -665.839,76.564 -665.595,76.565C-664.525,76.567 -663.484,76.389 -662.433,76.202M-661.67,70.601C-661.033,70.076 -660.296,70.054 -659.534,70.235C-659.39,70.269 -659.246,70.331 -659.119,70.407C-658.772,70.615 -658.388,70.838 -658.462,71.316C-658.542,71.837 -658.944,72.045 -659.431,72.107C-659.579,72.126 -659.73,72.132 -659.902,72.145C-660.654,72.069 -661.371,71.883 -661.791,71.145C-661.901,70.951 -661.83,70.733 -661.67,70.601M-656.753,76.829C-655.849,76.849 -655.256,77.294 -655.238,77.898C-655.219,78.472 -655.665,78.82 -656.381,78.791C-657.155,78.759 -658.025,78.143 -657.933,77.632C-657.809,76.946 -657.236,76.856 -656.753,76.829M-644.23,78.325C-644.145,78.053 -643.878,77.968 -643.609,78.05C-643.281,78.15 -643.12,78.383 -643.172,78.728C-643.263,79.005 -643.443,79.198 -643.725,79.108C-644.08,78.994 -644.365,78.749 -644.23,78.325M-674.173,22.909C-673.452,22.401 -673.456,22.063 -674.108,21.534C-674.658,21.086 -674.677,20.453 -674.352,19.872C-673.991,19.224 -673.31,19.154 -672.748,19.433C-671.698,19.954 -670.937,19.567 -669.944,19.135C-668.635,18.566 -667.262,18.155 -665.992,17.444C-665.273,17.041 -664.427,17.056 -663.713,17.686C-662.966,18.346 -662.865,18.809 -663.495,19.603C-663.769,19.948 -663.929,20.264 -663.898,20.696C-663.876,21.005 -663.886,21.374 -664.151,21.538C-665.001,22.066 -664.667,23.018 -664.995,23.729C-665.231,24.239 -664.823,24.582 -664.56,24.944C-663.931,25.813 -664.365,26.616 -664.782,27.359C-665.163,28.04 -665.739,28.554 -666.775,28.501C-666.918,28.462 -667.262,28.456 -667.493,28.291C-668.718,27.415 -670.203,27.17 -671.545,26.582C-672.176,26.305 -672.732,25.998 -672.973,25.315C-673.17,24.757 -673.56,24.417 -674.067,24.113C-674.832,23.654 -674.873,23.403 -674.173,22.909M-669.339,16.244C-668.854,16.11 -668.261,15.998 -668.032,16.597C-667.859,17.049 -668.279,17.314 -668.673,17.463C-668.857,17.533 -669.064,17.539 -669.294,17.58C-669.514,17.526 -669.768,17.495 -669.992,17.398C-670.109,17.346 -670.25,17.179 -670.252,17.062C-670.261,16.464 -669.757,16.36 -669.339,16.244M-664.27,33.599C-664.848,33.862 -665.854,33.665 -666.23,33.177C-666.563,32.747 -666.445,32.428 -665.882,32.328L-665.878,32.324C-665.567,31.697 -665.015,31.699 -664.446,31.802C-664.03,31.877 -663.658,32.074 -663.59,32.539C-663.513,33.065 -663.821,33.396 -664.27,33.599M-670.222,29.735C-670.352,30.023 -670.904,30.251 -671.425,30.254C-672.206,30.26 -672.945,29.794 -673.1,29.188C-673.216,28.732 -673.04,28.399 -672.638,28.177C-671.993,27.821 -671.111,28.015 -670.622,28.671C-670.396,28.974 -670.007,29.258 -670.222,29.735M-659.436,17.754C-658.826,17.719 -658.411,18.05 -658.392,18.587C-658.367,19.24 -659.002,19.839 -659.803,19.888C-660.289,19.918 -660.745,19.848 -660.731,19.198C-660.715,18.464 -660.102,17.791 -659.436,17.754M-649.934,14.393C-649.387,14.271 -648.822,14.215 -648.625,13.558C-648.686,13.381 -648.748,13.205 -648.809,13.028C-649.269,12.775 -649.448,12.47 -648.843,12.219C-648.419,12.044 -647.955,12.089 -647.538,12.334C-646.995,12.44 -646.64,12.705 -646.697,13.322C-646.49,13.548 -646.507,13.799 -646.706,13.991C-647.24,14.508 -647.873,14.904 -648.173,15.663C-648.329,16.057 -648.848,16.055 -649.258,15.97C-649.783,15.861 -650.181,15.551 -650.369,15.048C-650.506,14.681 -650.248,14.464 -649.934,14.393M106.571,76.404C106.346,73.739 105.906,71.091 105.916,68.406C105.921,67.155 104.845,65.685 103.691,65.344C102.971,65.131 102.516,65.416 102.432,66.186C102.327,67.138 102.55,68.11 102.282,69.055C102.419,69.814 102.427,70.574 102.305,71.336C102.35,71.842 102.442,72.348 102.433,72.853C102.378,75.962 102.74,79.045 102.99,82.135C103.015,82.439 103.056,82.752 103.015,83.05C102.543,86.502 103.198,89.949 103.054,93.402C103.013,94.394 102.784,95.165 102.037,95.823C101.583,96.223 101.176,96.699 100.839,97.201C99.986,98.47 98.892,98.925 97.425,98.387C97.092,98.266 96.723,98.235 96.4,98.094C95.828,97.843 95.268,97.636 94.635,97.861C94.496,97.91 94.298,97.956 94.187,97.895C92.968,97.225 91.793,97.373 90.555,97.903C90.072,98.109 89.462,97.918 88.914,97.732C87.432,97.23 87.077,97.327 86.21,98.541C85.949,98.906 85.699,99.163 85.252,99.171C84.627,99.183 84.162,99.362 84.08,100.086C84.026,100.572 83.684,100.561 83.284,100.521C82.627,100.456 81.963,100.457 81.303,100.436C80.63,100.415 79.995,100.486 79.441,100.954C78.842,101.46 77.998,101.532 77.408,101.265C76.419,100.819 75.441,100.892 74.456,100.93C73.333,100.973 72.244,100.691 71.13,100.712C70.928,100.715 70.643,100.755 70.536,100.644C69.644,99.719 68.248,99.687 67.345,98.833C66.914,98.424 66.537,98.206 66.02,98.554C65.348,99.007 64.692,98.852 63.976,98.663C62.514,98.275 61.016,98.02 59.56,97.613C58.246,97.246 56.949,97.5 55.648,97.56C54.69,97.604 54.562,97.601 54.547,96.636C54.493,93.126 54.286,89.619 54.135,86.115C53.941,81.639 54.075,77.158 53.77,72.689C53.76,72.54 53.808,72.387 53.828,72.236C53.616,70.979 53.597,69.718 53.745,68.453C53.476,66.789 53.658,65.113 53.605,63.443C53.553,61.764 53.444,61.61 51.747,61.646C49.225,61.698 46.703,61.825 44.18,61.879C42.424,61.916 42.002,61.532 41.654,59.765C41.595,59.467 41.444,59.156 41.486,58.874C41.771,56.967 40.812,55.823 39.264,54.931C38.676,54.592 38.26,54.507 37.825,55.049C37.46,55.503 37.097,55.933 36.433,55.558C35.824,55.551 35.216,55.545 34.606,55.538C33.785,55.81 32.966,55.959 32.16,55.488C31.833,55.443 31.507,55.398 31.18,55.353C30.97,55.921 30.501,56.089 29.97,56.049C27.89,55.89 25.869,56.34 23.829,56.601L23.754,56.694C23.793,57.663 24.234,58.704 23.261,59.495C23.054,59.854 22.696,59.774 22.374,59.802C21.571,60.317 20.673,60.398 19.752,60.37C18.99,60.346 18.531,60.63 18.368,61.449C18.167,62.463 17.428,63.009 16.419,62.667C15.296,62.287 14.374,62.586 13.345,62.902C12.088,63.288 10.758,63.355 9.443,63.457C8.129,63.559 6.815,63.678 5.512,63.866C3.704,64.126 3.711,64.156 3.711,65.954C3.712,67.172 3.705,68.391 3.701,69.609C4.034,71.612 3.986,73.629 3.91,75.646C4.065,77.721 4.058,79.796 3.952,81.872C4.497,83.7 4.145,85.581 4.271,87.433C4.315,88.084 4.248,88.742 4.231,89.397C4.578,90.972 4.155,92.513 4.006,94.064C3.956,94.582 3.558,94.835 3.055,94.885C2.644,94.925 2.285,94.701 2.276,94.329C2.233,92.566 1.29,90.906 1.691,89.098C1.613,88.793 1.51,88.5 1.279,88.271C1.183,88.322 0.972,83.868 0.848,81.432C0.935,81.258 0.926,80.969 0.897,80.766C0.752,79.713 0.501,78.669 0.437,77.613C0.394,76.892 -0.12,71.484 -0.566,68.74C-0.583,68.475 -0.624,68.21 -0.682,67.949C-0.937,66.813 -1.208,65.681 -1.46,64.544C-1.755,63.213 -2.21,61.909 -2.165,60.518C-2.295,60.243 -2.505,59.98 -2.543,59.693C-2.68,58.659 -3.354,58.524 -4.198,58.616C-4.305,58.712 -4.411,58.808 -4.518,58.903C-4.618,59.415 -4.719,59.927 -4.82,60.439C-4.599,62.245 -4.5,64.039 -4.612,65.877C-4.667,66.76 -4.851,67.651 -4.838,68.551L-4.841,68.551C-4.841,68.551 -4.84,68.569 -4.837,68.596C-4.833,68.791 -4.823,68.987 -4.796,69.184C-4.79,69.227 -4.784,69.27 -4.778,69.312C-4.616,71.273 -4.195,76.353 -4.195,76.353C-4.212,77.876 -3.802,79.363 -3.867,80.898C-3.876,81.113 -3.838,81.316 -3.779,81.508C-3.554,84.633 -2.879,89.553 -2.796,90.083C-2.56,91.59 -2.715,93.122 -2.416,94.63C-2.248,95.475 -2.263,96.375 -3.302,96.824C-3.5,96.91 -3.619,97.211 -3.741,97.432C-4.038,97.97 -4.415,97.982 -4.862,97.634C-5.595,97.064 -6.43,96.706 -7.311,96.429C-7.704,96.306 -8.069,96.243 -8.497,96.311C-9.726,96.506 -9.946,96.322 -10.347,94.995C-10.477,94.565 -11.154,94.302 -11.581,94.691C-12.144,95.205 -12.531,95.058 -13.029,94.697C-13.895,94.071 -14.853,94.217 -15.811,94.411C-16.248,94.5 -16.777,94.834 -17.109,94.437C-17.584,93.871 -18.289,93.426 -18.413,92.633C-18.465,92.3 -18.258,91.918 -18.685,91.705C-19.051,91.523 -19.438,91.302 -19.843,91.511C-20.506,91.853 -20.826,91.682 -21.318,91.075C-21.82,90.454 -22.641,90.058 -23.6,90.074C-25.529,90.107 -27.43,90.204 -29.264,90.888C-29.791,91.084 -30.375,91.11 -30.923,90.974C-31.759,90.766 -32.557,90.899 -33.305,91.226C-34.138,91.589 -34.95,91.65 -35.832,91.475C-36.475,91.348 -37.144,91.336 -37.803,91.312C-38.102,91.301 -38.554,91.274 -38.679,91.444C-39.531,92.592 -40.509,92.039 -41.368,91.608C-42.137,91.223 -42.746,91.702 -43.431,91.68C-43.638,92.072 -43.178,92.169 -43.125,92.45C-42.953,93.366 -43.305,93.907 -44.231,94.068C-45.532,94.293 -45.566,94.288 -45.76,95.589C-45.868,96.31 -46.187,96.578 -46.887,96.41C-47.79,96.194 -48.685,96.168 -49.602,96.392C-50.48,96.606 -51.199,96.354 -51.634,95.484C-51.791,95.169 -52.041,94.902 -52.216,94.595C-52.401,94.269 -52.58,94.21 -52.943,94.385C-53.5,94.655 -54.131,94.148 -54.748,94.525C-54.978,94.666 -55.243,94.239 -55.381,93.971C-55.782,93.189 -56.349,92.861 -57.233,93.164C-57.458,93.241 -57.755,93.097 -57.987,93.165C-58.866,93.424 -59.319,93.241 -59.3,92.209C-59.29,91.583 -60.217,91.387 -60.183,90.679C-60.722,90.656 -61.26,90.633 -61.8,90.61C-61.868,90.335 -62.098,90.201 -62.297,90.039C-62.745,90.027 -63.229,90.133 -63.53,89.652C-64.295,89.693 -64.959,89.781 -65.357,88.77C-65.624,88.093 -66.321,87.394 -66.995,87.119C-67.801,86.791 -68.785,86.872 -69.695,86.845C-70.079,86.834 -70.318,87.185 -70.43,87.533C-70.608,88.088 -71.094,88.267 -71.528,88.519C-71.965,89.21 -72.518,89.703 -73.41,89.611C-73.767,90.012 -74.454,90.115 -74.487,90.807C-75.094,91.323 -75.852,91.771 -75.103,93.092C-76.35,92.411 -77.168,92.684 -77.978,93.287C-78.382,93.589 -78.963,93.404 -79.464,93.449C-80.486,93.541 -80.651,93.709 -80.711,94.76C-80.74,95.264 -80.719,95.771 -80.739,96.276C-80.76,96.853 -81.11,97.059 -81.646,97.044C-82.113,97.031 -82.483,96.833 -82.454,96.343C-82.358,94.725 -82.819,93.134 -82.649,91.516C-82.695,90.221 -82.74,88.926 -82.786,87.631C-83.02,87.379 -83.073,87.054 -83.148,86.738C-84.629,87.032 -86.124,87.149 -87.634,87.134C-88.377,87.126 -88.771,86.83 -88.767,86.067C-88.763,85.317 -88.894,84.56 -88.658,83.82C-88.963,82.925 -89.571,82.643 -90.514,82.701C-92.03,82.794 -93.554,82.769 -95.074,82.759C-95.775,82.755 -96.256,82.968 -96.373,83.717L-96.274,85.79C-96.365,87.2 -96.547,87.35 -97.857,87.373C-98.574,87.385 -99.129,87.105 -99.649,86.674C-99.838,86.673 -100.026,86.673 -100.214,86.672C-100.305,86.71 -100.4,86.739 -100.485,86.785C-101.53,87.358 -101.53,87.359 -101.72,86.064C-102.829,85.813 -102.829,85.813 -103.221,86.862C-103.403,87.348 -104.197,87.602 -104.912,87.34C-105.485,87.131 -106.048,86.878 -106.579,86.579C-107.321,86.16 -108.096,86.056 -108.932,86.102C-109.647,86.14 -110.184,86.227 -110.341,87.125C-110.453,87.769 -111.314,88.067 -112.256,87.759C-112.991,87.519 -113.579,87.246 -114.368,87.736C-114.831,88.023 -115.408,87.474 -115.893,87.218C-116.896,86.69 -117.894,86.228 -119.083,86.388C-119.687,86.469 -120.188,86.56 -120.246,87.307C-120.286,87.82 -120.658,87.926 -121.107,87.973C-122.995,88.167 -124.863,88.358 -126.551,87.149C-127.235,86.66 -128.053,86.592 -128.895,86.658C-129.583,86.711 -130.241,86.683 -130.29,87.643C-130.312,88.083 -130.682,88.196 -131.068,88.199C-131.626,88.204 -132.183,88.124 -132.741,88.25C-133.949,88.523 -135.06,88.259 -136.087,87.59C-136.979,87.009 -137.947,86.836 -139.004,86.95C-139.665,87.022 -140.219,87.1 -140.279,87.931C-140.31,88.368 -140.651,88.483 -141.04,88.519C-142.304,88.637 -143.553,88.427 -144.807,88.34C-145.111,88.319 -145.236,88.07 -145.278,87.816C-145.344,87.416 -145.385,87.01 -145.396,86.605C-145.412,86.045 -145.358,85.482 -145.392,84.925C-145.436,84.193 -145.623,83.417 -146.358,83.164C-147.054,82.924 -147.889,82.818 -148.479,83.511C-148.784,83.868 -149.155,83.927 -149.568,83.943C-149.822,83.953 -150.078,83.95 -150.331,83.974C-153.383,84.27 -152.855,84.157 -152.798,86.714C-152.786,87.223 -152.813,87.732 -152.823,88.241C-152.723,88.357 -152.65,88.523 -152.8,88.6C-153.032,88.719 -153.122,88.502 -153.208,88.333C-153.686,88.269 -154.164,88.206 -154.642,88.142C-155.299,88.637 -156.235,88.443 -156.856,89.054C-157.098,89.293 -157.352,89.107 -157.449,88.857C-157.592,88.483 -157.668,88.084 -157.773,87.695L-157.797,87.676C-158.184,87.657 -158.571,87.637 -158.957,87.618L-158.961,87.623C-159.309,88.197 -159.436,88.19 -159.798,87.573C-160.099,87.376 -160.199,87.108 -160.081,86.764C-160.253,86.064 -161.211,86.155 -161.391,85.462C-161.591,85.481 -161.792,85.5 -161.992,85.519C-162.339,86.098 -162.655,85.851 -162.805,85.418C-163.08,84.63 -163.264,83.811 -163.486,83.005C-163.499,82.908 -163.508,82.81 -163.514,82.713C-164.297,82.806 -165.012,82.94 -165.871,82.689C-166.451,82.52 -167.093,82.793 -167.524,82.047C-167.717,81.715 -168.21,81.915 -168.513,82.067C-169.281,82.454 -169.837,82.112 -170.456,81.691C-170.957,81.35 -171.775,81.476 -171.802,80.515C-171.816,80.016 -172.311,79.922 -172.744,80.018C-173.237,80.128 -173.732,80.26 -174.201,80.445C-175.299,80.877 -175.79,80.813 -176.372,79.877C-176.793,79.2 -177.082,78.685 -177.743,79.643C-177.949,79.943 -178.302,79.906 -178.533,79.648C-178.793,79.357 -178.655,79.042 -178.359,78.888C-177.726,78.559 -177.11,77.879 -176.35,78.716C-175.992,79.112 -175.53,79.039 -175.079,78.848C-174.706,78.69 -174.406,78.407 -174.666,78.039C-175.016,77.544 -174.917,77.229 -174.513,76.869C-174.348,76.722 -174.388,76.512 -174.567,76.345C-175.481,75.491 -175.158,74.531 -174.796,73.569C-174.795,73.362 -174.794,73.155 -174.793,72.948C-175.08,72.244 -175.91,71.965 -176.136,71.189C-176.24,70.83 -176.621,70.976 -176.921,70.982C-177.917,71 -178.011,70.841 -177.833,69.597C-177.88,69.306 -177.928,69.016 -177.975,68.725C-178.068,68.7 -178.158,68.668 -178.246,68.627C-178.334,68.652 -178.424,68.668 -178.515,68.675C-178.523,68.721 -178.524,68.77 -178.541,68.813C-178.613,69 -178.572,69.389 -178.881,69.249C-179.139,69.132 -178.937,68.852 -178.786,68.672C-179.003,68.526 -179.126,68.328 -179.128,68.061C-179.376,67.871 -179.706,67.27 -179.926,67.756C-180.439,68.888 -181.268,68.785 -182.193,68.635C-182.288,68.62 -182.391,68.656 -182.49,68.669C-182.479,68.371 -182.468,68.074 -182.458,67.776C-182.438,67.185 -182.613,66.845 -183.316,66.87C-184.191,66.901 -183.99,66.398 -183.694,65.909C-183.794,65.619 -183.942,65.361 -184.207,65.188C-184.784,65.325 -185.218,65.597 -185.306,66.254C-185.399,66.947 -185.887,67.127 -186.502,67.112C-186.615,68.163 -187.402,68.495 -188.258,68.755C-188.716,68.894 -189.108,68.762 -189.262,68.325C-189.446,67.803 -188.932,67.806 -188.634,67.674C-188.495,67.613 -188.34,67.593 -188.197,67.54C-187.425,67.258 -187.319,67.06 -187.843,66.519C-188.713,65.619 -188.828,64.16 -190.087,63.56C-190.599,63.317 -189.852,62.399 -190.643,62.359C-191.144,62.334 -191.056,63.226 -191.562,63.26C-192.308,63.309 -193.198,63.577 -193.775,63.048C-194.92,61.998 -195.864,62.418 -196.855,63.187C-196.905,63.229 -196.942,63.28 -196.967,63.341C-197.176,64.1 -198.165,64.609 -197.611,65.648C-198.648,64.403 -200.351,64.311 -201.314,63.13C-201.43,63.561 -201.292,64.153 -202.001,64.205C-202.08,64.478 -202.25,64.666 -202.517,64.767C-202.522,64.96 -202.528,65.153 -202.533,65.346C-202.539,66.054 -202.734,66.528 -203.594,66.259C-203.94,66.15 -204.284,66.271 -204.62,66.365C-205.078,66.492 -205.508,66.48 -205.864,66.11C-206.223,66.242 -206.583,66.374 -206.942,66.506C-207.505,66.958 -208.081,67.336 -208.803,66.808L-208.939,66.831L-209.076,66.828C-209.608,66.727 -210.137,66.596 -210.674,66.532C-211.446,66.44 -211.854,66.073 -211.778,65.264L-211.802,65.238C-212.158,65.297 -212.487,65.244 -212.775,65.012C-212.96,65.04 -213.144,65.069 -213.328,65.097C-214.227,65.686 -215.138,65.248 -216.024,65.082C-216.401,65.011 -216.734,64.72 -217.165,64.86C-218.103,65.165 -218.568,64.644 -218.881,63.866C-219.171,63.864 -219.461,63.862 -219.751,63.86C-219.81,63.942 -219.859,64.086 -219.928,64.096C-221.149,64.264 -221.914,65.139 -222.757,65.897C-222.943,66.064 -223.172,66.344 -223.357,66.325C-224.239,66.235 -224.755,66.774 -225.272,67.326C-225.619,67.697 -226.061,67.744 -226.522,67.762C-226.922,67.666 -227.323,67.57 -227.724,67.475C-227.829,67.697 -227.92,67.926 -228.04,68.141C-228.899,69.684 -228.905,69.684 -230.57,69.179C-231.32,69.443 -232.082,69.209 -232.826,69.173C-233.492,69.141 -234.13,69.187 -234.778,69.278L-234.785,69.289C-234.901,69.507 -234.984,69.754 -235.14,69.939C-235.424,70.276 -235.556,70.499 -235.193,70.945C-234.762,71.475 -234.954,71.806 -235.617,71.949C-235.809,71.991 -236.017,71.953 -236.216,71.964C-236.678,71.99 -236.936,72.27 -237.083,72.68C-237.231,73.094 -237.016,73.348 -236.69,73.546C-236.467,73.681 -236.308,73.867 -236.212,74.108C-235.756,74.313 -235.438,74.581 -235.608,75.164C-235.889,76.128 -235.631,76.867 -234.661,77.288C-234.414,77.395 -234.222,77.568 -234.312,77.875C-234.388,78.137 -234.585,78.301 -234.848,78.362C-234.993,78.396 -235.149,78.391 -235.301,78.395C-236.687,78.43 -237.015,78.597 -237.372,79.82C-237.769,81.18 -239.093,81.449 -239.992,82.214C-240.158,82.356 -240.377,82.191 -240.527,82.043C-240.78,81.792 -241.101,81.575 -241.258,81.273C-241.456,80.891 -241.864,80.4 -241.624,80.048C-241.315,79.599 -240.828,79.895 -240.412,80.155C-239.906,80.47 -239.324,80.395 -238.776,80.257C-237.928,80.043 -237.705,79.655 -238.078,78.816C-238.329,78.253 -238.41,77.963 -237.66,77.935C-237.247,77.92 -237.241,77.611 -237.242,77.277C-237.244,76.419 -237.856,75.821 -238.133,75.082C-238.909,74.628 -239.69,74.215 -240.589,74.787C-240.68,75.085 -240.759,75.401 -241.192,75.207C-241.959,75.158 -242.466,74.315 -243.313,74.512C-243.426,74.819 -243.599,75.058 -243.958,75.093C-244.058,75.112 -244.157,75.132 -244.258,75.152C-244.764,75.461 -245.292,75.359 -245.82,75.231C-246.292,75.143 -246.765,75.056 -247.237,74.968C-247.283,74.986 -247.327,75.009 -247.374,75.021C-247.873,75.147 -248.452,75.642 -248.859,75.13C-249.197,74.703 -248.629,74.254 -248.449,73.819C-250.008,73.303 -251.127,73.613 -251.893,74.768C-252.193,74.776 -252.501,74.741 -252.79,74.802C-254.036,75.064 -254.282,74.986 -254.687,73.776C-254.856,73.269 -255.075,73.054 -255.582,72.935C-256.151,72.801 -256.525,72.393 -256.522,71.747C-256.869,71.392 -257.36,71.446 -257.78,71.322C-257.935,70.951 -257.69,70.733 -257.48,70.545C-256.968,70.086 -256.942,69.473 -257.291,69.043C-257.676,68.569 -257.895,67.849 -258.895,67.974C-259.631,68.066 -260.409,68.577 -261.192,68.106C-261.27,68.037 -261.348,67.967 -261.426,67.898C-261.523,67.858 -261.62,67.819 -261.718,67.78C-262.74,67.502 -263.772,67.253 -264.784,66.939C-266.352,66.451 -267.496,67.308 -268.667,68.099C-268.785,68.179 -268.83,68.37 -268.948,68.449C-269.449,68.783 -269.932,69.27 -270.482,69.372C-271.207,69.505 -271.364,68.68 -271.722,68.22C-271.813,68.102 -271.909,67.944 -272.035,67.903C-273.245,67.507 -274.431,67.762 -275.611,68.07C-276.4,68.276 -276.719,68.89 -276.936,69.595C-276.995,69.789 -277.056,69.984 -277.143,70.166C-277.312,70.518 -277.188,71.042 -277.628,71.221C-278.088,71.41 -278.153,70.854 -278.429,70.677C-278.806,70.437 -279.208,70.481 -279.606,70.542C-280.103,70.617 -280.588,70.814 -281.101,70.638C-281.406,70.737 -281.661,70.909 -281.851,71.171C-282.292,71.65 -282.772,72.078 -283.373,72.35L-283.389,72.371C-283.455,72.474 -283.521,72.577 -283.586,72.679L-283.646,72.778C-284.236,73.416 -284.695,74.046 -283.679,74.728C-283.539,74.822 -283.512,75.082 -283.423,75.261C-283.333,75.442 -283.215,75.644 -283.381,75.809C-283.58,76.006 -283.867,75.981 -284.082,75.855C-284.287,75.734 -284.542,75.549 -284.597,75.345C-284.866,74.339 -285.557,73.473 -285.576,72.388C-285.636,72.344 -285.699,72.308 -285.767,72.28C-286.879,72.626 -287.956,72.634 -288.951,71.934C-289.66,71.435 -290.295,71.359 -290.995,72.024C-291.425,72.433 -292.07,72.572 -292.544,72.978C-292.957,73.331 -293.512,73.368 -294.002,73.215C-294.982,72.909 -295.682,73.216 -296.22,74.038C-296.273,74.118 -296.368,74.176 -296.454,74.227C-296.49,74.248 -296.553,74.223 -296.635,74.218C-296.965,73.764 -296.577,73.363 -296.481,72.957C-296.378,72.519 -296.35,72.183 -296.766,71.889C-297.17,71.603 -297.539,71.39 -297.993,71.782C-298.222,71.98 -298.472,72.258 -298.787,72.164C-299.666,71.904 -300.366,72.083 -300.948,72.811C-301.036,72.922 -301.333,72.867 -301.533,72.888C-301.682,72.98 -301.832,73.072 -301.981,73.164C-302.388,73.563 -302.588,73.439 -302.626,72.908C-302.646,72.405 -302.666,71.902 -302.686,71.399C-302.724,71.319 -302.727,71.239 -302.694,71.158C-302.827,66.057 -302.961,60.957 -303.095,55.857C-303.138,55.729 -303.181,55.6 -303.224,55.472C-303.299,52.178 -303.36,48.882 -303.464,45.589C-303.483,44.987 -303.673,44.39 -304.055,43.887C-304.303,43.889 -304.385,44.075 -304.459,44.261C-304.74,44.967 -305.225,44.904 -305.64,44.472C-306.249,43.839 -306.678,43.09 -306.531,42.142C-306.399,41.286 -306.537,40.558 -307.532,40.351C-307.844,40.286 -307.959,40.072 -308.048,39.858C-308.684,38.322 -309.883,37.021 -309.975,35.254C-309.985,35.059 -310.066,34.848 -310.171,34.681C-310.62,33.975 -310.888,32.118 -310.962,31.985C-311.616,32.306 -312.429,35.08 -312.44,35.983C-312.454,37.05 -313.219,37.843 -313.605,38.776C-313.892,39.468 -314.497,40.559 -315.072,40.539C-315.47,41.107 -315.53,41.799 -315.577,42.501C-315.626,43.225 -315.821,43.908 -316.278,44.488C-316.796,45.146 -317.054,45.123 -317.644,44.386C-317.734,44.273 -317.761,44.091 -317.951,44.135C-318.138,44.318 -318.315,44.492 -318.492,44.666L-318.538,44.747C-318.479,50.191 -318.487,55.637 -318.338,61.079C-318.24,64.644 -318.338,68.209 -318.237,71.773C-318.186,73.557 -319.278,74.854 -320.98,75.395C-322.742,75.954 -324.041,77.146 -324.738,78.84C-325.152,79.848 -325.682,80.493 -326.799,80.547C-327.049,80.748 -327.286,80.722 -327.374,80.413C-327.455,80.129 -327.435,79.817 -327.461,79.517C-327.504,79.014 -327.78,78.744 -328.265,78.922C-329.097,79.228 -329.851,78.895 -330.631,78.74C-330.784,78.709 -330.903,78.626 -330.942,78.461C-330.999,78.213 -330.831,78.039 -330.656,77.999C-330.07,77.866 -329.468,77.688 -328.879,77.709C-328.112,77.737 -327.393,77.511 -326.646,77.471C-326.63,77.264 -326.614,77.057 -326.598,76.85L-326.608,76.83C-326.787,76.767 -326.966,76.704 -327.145,76.641C-328.125,76.438 -329.059,76.159 -329.574,75.182C-329.775,75.16 -329.977,75.137 -330.178,75.115C-330.577,75.446 -330.985,75.488 -331.407,75.157C-331.701,75.103 -331.996,75.05 -332.29,74.996C-332.927,75.626 -333.679,76.121 -334.122,76.968C-334.363,77.428 -334.86,77.856 -335.342,78.067C-336.257,78.467 -336.96,78.88 -336.746,80.057C-336.705,80.282 -337.194,80.563 -337.257,80.38C-337.541,79.552 -338.817,79.523 -338.749,78.465C-340.026,78.772 -341.303,79.077 -342.579,79.389C-342.823,79.449 -343.165,79.459 -343.285,79.622C-344.248,80.925 -346.006,81.204 -346.947,82.494C-347.22,82.868 -347.569,82.753 -347.874,82.885C-348.021,82.95 -348.102,83.085 -348.062,83.247C-348.02,83.421 -347.875,83.479 -347.71,83.459C-347.408,83.424 -347.109,83.349 -346.806,83.338C-346.143,83.314 -345.671,83.5 -345.92,84.312C-346.092,84.876 -345.515,85.331 -345.627,85.976C-346.301,85.911 -346.741,85.563 -347.125,85.195C-347.621,84.719 -348.116,84.572 -348.784,84.79C-349.158,84.912 -349.588,84.875 -349.994,84.883C-350.584,84.894 -350.948,84.635 -351.026,84.008C-351.176,82.803 -351.927,81.811 -352.161,80.596C-352.412,79.29 -354.036,78.428 -355.457,78.462C-356.591,78.489 -357.62,78.863 -358.682,79.261C-360.143,79.809 -361.463,80.673 -363.004,81.048C-363.825,81.248 -364.651,81.612 -365.187,82.367C-365.521,82.836 -365.945,82.965 -366.518,82.829C-367.655,82.559 -368.788,82.83 -369.802,83.251C-371.011,83.752 -372.169,83.729 -373.378,83.474C-373.926,83.358 -374.491,83.268 -375.004,83.058C-376.427,82.473 -377.819,83.012 -379.22,83.109C-379.839,83.152 -380.004,83.702 -380.143,84.195C-380.376,85.016 -380.829,85.629 -381.556,86.107C-382.239,86.557 -383.003,86.046 -383.616,86.36C-384.254,86.686 -384.262,87.631 -384.925,87.998C-385.141,88.118 -385.395,88.191 -385.641,88.232C-386.769,88.418 -387.813,88.768 -388.622,89.635C-388.995,90.036 -389.527,90.073 -390.016,90.197C-390.312,90.271 -390.634,90.415 -390.909,90.358C-392.01,90.131 -392.34,91.627 -393.275,91.455C-394.258,91.274 -395.075,91.387 -395.872,91.954C-396.071,92.095 -396.335,92.163 -396.58,92.22C-397.747,92.489 -398.786,92.848 -399.307,94.132C-399.566,94.769 -400.245,95.196 -400.921,95.476C-401.609,95.761 -402.15,96.219 -402.486,96.871C-403.351,98.55 -404.954,99.356 -406.467,100.256C-407.033,100.593 -407.646,100.795 -407.967,101.468C-408.255,102.074 -408.881,102.247 -409.512,102.293C-411.144,102.413 -412.688,102.941 -414.266,103.31C-415.082,103.501 -415.774,103.922 -416.11,104.765C-416.569,105.916 -417.411,106.476 -418.656,106.647C-420.228,106.863 -421.72,107.412 -423.067,108.279C-423.56,108.596 -424.087,108.857 -424.643,108.686C-425.571,108.4 -426.456,108.689 -427.359,108.737C-427.561,108.747 -427.82,108.715 -427.955,108.824C-429.591,110.143 -431.78,109.646 -433.548,110.553C-434.701,111.145 -435.971,111.273 -437.263,111.182C-437.779,111.145 -438.272,111.277 -438.76,111.439C-439.097,111.551 -439.452,111.741 -439.785,111.717C-441.847,111.567 -443.803,112.299 -445.831,112.395C-446.351,112.419 -446.829,112.5 -447.276,112.796C-448.05,113.31 -448.875,113.68 -449.843,113.638C-450.463,113.612 -450.909,113.948 -451.213,114.462C-451.54,115.017 -451.996,115.379 -452.622,115.551C-453.707,115.849 -454.689,116.337 -455.635,116.972C-456.224,117.368 -456.845,117.678 -457.295,118.257C-457.898,119.032 -458.757,119.354 -459.7,119.413C-460.445,119.46 -461.101,119.673 -461.645,120.181C-462.237,120.735 -463.04,120.876 -463.745,121.023C-466.191,121.533 -467.986,123.167 -469.961,124.467C-470.568,124.866 -471.158,125.125 -471.817,125.381C-473.897,126.189 -475.935,127.106 -477.984,127.992C-478.211,128.09 -478.515,128.21 -478.603,128.402C-479.422,130.201 -481.406,130.47 -482.786,131.518C-484.015,132.452 -494.287,134.774 -494.709,135.268C-494.807,135.382 -494.926,135.494 -495.059,135.561C-495.414,135.741 -495.767,135.928 -496.122,136.113L-506,136.113C-506.033,136.03 -506.071,135.949 -506.112,135.871C-506.238,135.625 -506.437,135.466 -506.723,135.534C-506.927,135.583 -507.075,135.745 -507.124,135.954C-507.136,136.006 -507.143,136.06 -507.153,136.113L-509.37,136.113C-509.498,135.872 -509.64,135.606 -509.937,135.575C-510.295,135.538 -510.41,135.852 -510.509,136.113L-514.535,136.113C-514.661,136.032 -514.787,136.026 -514.909,136.113L-521.287,136.113C-521.36,135.399 -521.374,134.679 -521.028,133.995C-520.91,133.762 -520.796,133.527 -521.076,133.336C-521.15,133.285 -521.277,133.272 -521.368,133.292C-521.677,133.361 -521.755,133.586 -521.694,133.868C-521.534,134.612 -521.574,135.365 -521.607,136.113L-531.67,136.113C-531.752,135.834 -532.114,135.773 -532.355,135.63C-532.53,135.526 -532.74,135.447 -532.735,135.203C-532.728,134.881 -532.472,134.816 -532.221,134.75C-531.5,134.562 -530.713,134.588 -530.077,134.127C-529.97,134.049 -530.674,131.895 -531.02,131.199C-531.821,131.785 -532.389,132.646 -533.394,132.959C-534.349,133.257 -535.362,133.494 -536.075,134.246C-536.225,134.151 -536.373,134.102 -536.374,134.049C-536.409,132.819 -536.406,132.819 -537.645,132.539C-538.347,132.381 -538.412,132.215 -537.935,131.689C-537.438,131.142 -536.976,130.577 -536.619,129.916C-537.161,129.507 -537.686,129.852 -538.171,129.708C-538.548,129.596 -538.669,129.949 -538.757,130.254C-538.949,130.92 -539.424,131.174 -540.045,130.958C-540.664,130.743 -540.829,130.212 -540.691,129.588C-540.659,129.439 -540.605,129.293 -540.587,129.143C-540.543,128.788 -540.484,128.396 -540.821,128.161C-541.19,127.906 -541.47,128.209 -541.776,128.392C-542.589,128.882 -542.596,128.871 -542.996,127.997L-543.004,127.989C-544.006,128.097 -544.99,128.394 -546.021,128.101C-546.404,127.992 -546.828,128.212 -547.177,128.418C-547.982,128.893 -548.818,129.219 -549.771,129.205C-550.142,129.199 -550.504,129.276 -550.496,129.776C-550.481,130.819 -551.148,131.005 -552.004,131.045C-553.669,131.124 -553.99,131.372 -553.868,133.011C-553.797,133.962 -554.458,134.284 -554.926,134.706C-555.361,135.098 -555.886,135.359 -555.857,136.113L-556.689,136.113C-557.331,135.902 -557.876,135.729 -558.056,134.896C-558.153,134.447 -558.798,134.335 -559.227,134.673C-560.062,135.329 -561.044,135.214 -562.06,135.286C-562.006,135.603 -561.862,135.864 -561.701,136.113L-566.535,136.113C-566.671,135.834 -566.852,135.569 -567.002,135.242C-567.36,135.492 -567.527,135.791 -567.602,136.113L-572.116,136.113C-572.282,135.736 -572.296,135.299 -572.316,134.851C-572.452,131.806 -572.737,128.763 -572.749,125.719C-572.764,122.021 -573.101,118.33 -572.951,114.63C-572.94,114.377 -572.885,114.126 -572.851,113.874C-572.883,113.178 -572.914,112.482 -572.946,111.786C-573.363,111.287 -573.287,110.775 -572.985,110.257C-572.904,108.653 -573.247,107.038 -572.858,105.442L-572.858,105.441C-572.561,105.397 -572.229,105.42 -571.971,105.293C-571.422,105.024 -571.284,104.354 -571.788,104.085C-573.026,103.423 -572.659,102.303 -572.766,101.305C-573.048,100.225 -573.508,99.192 -573.633,98.069C-573.979,97.906 -574.294,97.708 -574.586,97.486C-574.293,97.708 -573.979,97.905 -573.633,98.069C-573.624,97.805 -573.908,96.344 -574.271,93.564C-574.385,92.699 -574.42,93.305 -575.34,93.42C-575.752,93.472 -576.801,88.379 -578.065,83.124C-578.829,87.333 -580.859,90.138 -581.123,89.739C-582.246,88.041 -581.965,70.102 -582.57,68.185C-583.24,66.065 -582.424,68.106 -581.766,64.63C-581.516,63.308 -583.076,60.222 -581.792,56.358C-581.672,55.999 -582.567,53.628 -584.294,46.587C-584.938,43.961 -587.004,36.436 -587.857,35.263C-588.219,34.764 -592.201,49.648 -592.589,49.18C-593.347,48.268 -593.93,48.88 -593.703,47.889C-593.828,47.58 -594.126,44.83 -594.233,43.77C-594.782,38.301 -595.278,32.826 -595.921,27.368C-596.241,24.653 -596.2,21.875 -597.127,19.244C-597.224,18.969 -597.215,18.632 -597.172,18.336C-597.017,17.258 -597.182,16.21 -597.348,15.149C-597.506,14.145 -597.762,13.155 -597.764,12.125C-597.768,9.411 -598.17,6.737 -598.884,4.133C-599.322,2.538 -599.49,0.937 -599.564,-0.689C-599.613,-1.756 -599.536,-2.829 -599.583,-3.896C-599.652,-5.461 -599.622,-7.042 -600.126,-8.558C-600.046,-8.693 -600.067,-8.82 -600.158,-8.94C-600.743,-9.845 -600.55,-10.836 -600.478,-11.813C-600.443,-11.885 -600.454,-11.949 -600.511,-12.004C-601.277,-14.77 -602.287,-17.459 -602.218,-20.43C-602.174,-22.348 -602.5,-24.274 -602.018,-26.18C-602.031,-26.546 -602.043,-26.913 -602.056,-27.28C-602.627,-29.434 -602.733,-31.658 -603.001,-33.855C-603.472,-37.722 -603.855,-41.599 -604.267,-45.473C-604.321,-45.975 -604.326,-46.481 -604.354,-46.986C-604.96,-49.568 -605.034,-52.219 -605.351,-54.839C-606.259,-62.318 -607.165,-69.797 -608.044,-77.279C-608.704,-82.891 -609.31,-88.509 -609.961,-94.122C-610.623,-99.834 -611.323,-105.542 -611.98,-111.255C-612.457,-115.401 -612.913,-119.55 -613.335,-123.702C-613.52,-125.518 -614.134,-127.288 -613.916,-129.146C-614.225,-130.261 -614.501,-131.383 -614.538,-132.549C-614.551,-132.728 -614.565,-132.908 -614.578,-133.087C-614.839,-133.593 -614.918,-134.129 -614.838,-134.69C-614.852,-135.167 -614.867,-135.644 -614.881,-136.121C-615.429,-137.938 -615.546,-139.831 -615.672,-141.696C-615.886,-144.854 -616.538,-147.946 -616.871,-151.082C-617.123,-153.458 -617.321,-155.84 -617.543,-158.22C-617.614,-158.31 -617.621,-158.404 -617.564,-158.504C-617.677,-158.984 -617.334,-159.319 -617.18,-159.715C-616.468,-160.788 -616.448,-160.814 -617.452,-161.634C-618.039,-162.112 -618.044,-162.723 -618.044,-163.368C-618.316,-166.391 -619.278,-169.303 -619.505,-172.332C-619.572,-173.233 -619.576,-174.122 -619.989,-174.975C-620.318,-175.654 -619.903,-176.367 -619.86,-177.067C-619.835,-177.47 -619.694,-177.879 -619.743,-178.268C-619.826,-178.944 -619.503,-179.069 -618.951,-179.014C-618.74,-178.994 -618.541,-179.015 -618.477,-179.273C-618.48,-179.518 -618.65,-179.651 -618.848,-179.679C-619.785,-179.812 -620.113,-180.42 -620.133,-181.276C-620.141,-181.61 -620.136,-181.944 -620.376,-182.173C-620.117,-182.354 -619.895,-182.561 -619.73,-182.877C-618.875,-184.511 -619.143,-185.925 -620.77,-187.617C-620.958,-186.333 -621.557,-185.179 -620.938,-183.911C-620.763,-183.553 -620.769,-183.121 -621.053,-182.763C-620.908,-182.551 -620.764,-182.34 -620.62,-182.128C-620.633,-182.101 -620.643,-182.072 -620.668,-182.047C-620.663,-181.646 -620.659,-181.245 -620.655,-180.844C-620.551,-179.63 -620.551,-179.63 -621.555,-179.553C-621.844,-179.522 -622.133,-179.491 -622.421,-179.459C-622.396,-179.299 -622.371,-179.138 -622.346,-178.978C-622.286,-178.965 -622.257,-178.927 -622.26,-178.865C-622.008,-178.873 -621.771,-178.826 -621.564,-178.673C-621.373,-178.644 -621.182,-178.615 -620.992,-178.585C-620.925,-178.788 -620.812,-178.939 -620.577,-178.848C-620.52,-178.826 -620.461,-178.67 -620.485,-178.605C-620.562,-178.394 -620.749,-178.344 -620.96,-178.366C-620.869,-178.052 -620.779,-177.738 -620.688,-177.425C-620.286,-176.318 -620.188,-175.275 -620.552,-174.062C-620.818,-173.17 -620.775,-172.082 -620.758,-171.11C-620.719,-168.965 -621.323,-166.909 -621.379,-164.791C-621.396,-164.134 -621.398,-163.472 -621.489,-162.824C-621.579,-162.184 -621.672,-161.474 -622.591,-161.485C-622.922,-160.779 -623.043,-160.138 -622.126,-159.76C-621.923,-159.676 -621.902,-159.446 -621.878,-159.244C-621.442,-158.933 -621.441,-158.464 -621.457,-158.007C-621.505,-156.639 -621.431,-155.263 -621.756,-153.913C-621.851,-153.522 -621.898,-153.107 -621.887,-152.706C-621.697,-146.146 -622.407,-139.626 -622.726,-133.089C-622.753,-132.535 -622.765,-131.966 -623.092,-131.473C-623.103,-131.237 -623.114,-131.002 -623.125,-130.767C-623.048,-130.349 -623.04,-129.946 -623.371,-129.616C-623.268,-129.279 -623.335,-128.951 -623.424,-128.624C-623.243,-126.174 -623.65,-123.75 -623.784,-121.316C-624.33,-111.353 -624.959,-101.395 -625.57,-91.436C-626.141,-82.137 -626.73,-72.839 -627.306,-63.541C-627.82,-55.259 -628.326,-46.977 -628.836,-38.695C-629.052,-35.19 -629.257,-31.683 -629.49,-28.178C-629.552,-27.253 -629.472,-26.273 -630.191,-25.514L-630.166,-25.518C-630.115,-25.169 -629.933,-24.774 -630.035,-24.477C-630.542,-23.01 -630.354,-21.586 -629.978,-20.133C-629.681,-18.984 -629.887,-17.838 -630.051,-16.665C-630.479,-13.593 -630.568,-10.486 -630.753,-7.39C-630.837,-5.976 -630.816,-4.541 -631.28,-3.175C-631.367,-2.919 -631.412,-2.693 -631.266,-2.455C-630.481,-1.175 -630.797,0.22 -630.92,1.565C-631.025,2.715 -631.685,3.076 -632.735,2.623C-633.51,2.289 -634.376,2.037 -634.854,1.229C-635.691,0.875 -635.627,-0.034 -636.02,-0.661C-636.136,-0.744 -636.253,-0.826 -636.37,-0.908C-636.667,-0.893 -637.02,-0.949 -637.069,-0.523C-637.13,-0.001 -637.298,0.447 -637.722,0.791C-638.208,1.185 -638.089,1.692 -637.66,1.926C-635.683,3.007 -635.095,5.074 -634.059,6.825C-633.613,6.795 -633.421,6.357 -633.057,6.199C-632.542,5.977 -632.033,5.956 -631.797,6.562C-631.593,7.084 -631.878,7.425 -632.405,7.552C-632.695,7.622 -632.991,7.639 -633.233,7.862C-633.87,8.449 -633.803,8.989 -633.001,9.306C-632.676,9.435 -632.312,9.463 -632.138,9.828C-632.194,9.882 -632.251,9.935 -632.31,9.986C-632.299,10.305 -632.289,10.623 -632.278,10.941C-632.281,11.406 -632.283,11.871 -632.285,12.335C-632.386,13.207 -632.488,14.08 -632.59,14.954C-632.548,17.133 -632.613,19.326 -632.787,21.48C-633.152,25.988 -633.965,30.461 -633.763,35.012C-633.752,35.263 -633.804,35.518 -633.839,35.77C-634.289,39.001 -634.466,42.253 -634.54,45.51C-634.559,46.329 -634.605,47.134 -634.758,47.936C-634.893,47.942 -635.027,47.949 -635.162,47.955C-635.193,48.258 -635.228,48.558 -635.295,48.85C-635.228,48.558 -635.193,48.257 -635.162,47.955C-635.453,47.885 -635.731,48.007 -635.778,48.257C-635.998,49.421 -636.942,50.41 -636.551,51.74C-636.457,52.061 -636.715,52.524 -636.895,52.88C-637.127,53.339 -637.482,53.116 -637.799,52.941L-637.809,52.912C-638.015,52.819 -638.13,52.663 -638.142,52.435C-638.344,50.768 -638.563,49.105 -639.331,47.576C-639.708,46.897 -639.611,46.155 -639.62,45.427C-639.621,45.425 -639.622,45.424 -639.624,45.422C-639.619,45.428 -639.615,45.435 -639.611,45.441C-639.507,44.804 -639.857,42.918 -640.258,41.959C-640.258,41.959 -640.269,41.855 -640.269,41.854C-639.897,41.299 -639.167,40.785 -640.086,40.09C-640.272,39.949 -640.199,39.733 -640.176,39.531C-640.096,38.832 -640.6,38.406 -640.856,37.833C-641.392,38.191 -641.538,38.861 -641.489,39.08C-641.308,39.886 -642.346,40.428 -641.895,41.156C-641.427,41.913 -641.544,42.652 -641.691,43.433C-642.075,45.474 -642.137,47.569 -642.736,49.576C-642.803,49.8 -642.696,50.075 -642.67,50.326L-642.68,50.339C-642.573,50.746 -642.622,51.147 -642.732,51.545C-642.396,51.937 -642.657,52.061 -643.002,52.148C-643.17,52.368 -643.442,52.55 -643.631,52.324C-644.4,51.403 -645.13,50.475 -646.156,49.786C-646.675,49.438 -646.654,48.701 -646.082,48.377C-645.454,48.022 -645.505,47.511 -645.447,46.979L-645.454,46.971C-645.675,46.999 -645.774,46.901 -645.752,46.68L-645.765,46.672C-646.098,46.786 -646.266,46.615 -646.364,46.324C-646.541,46.137 -646.766,45.979 -646.761,45.68L-646.822,45.745C-647.047,45.808 -647.224,45.716 -647.385,45.57C-648.062,45.393 -648.845,45.41 -649.179,44.6C-649.176,44.488 -649.172,44.376 -649.168,44.263C-649.366,44.29 -649.421,44.139 -649.486,44C-649.58,44.009 -649.666,43.987 -649.743,43.932C-650.459,43.509 -650.361,42.958 -649.989,42.365C-650.009,42.155 -650.029,41.946 -650.049,41.736C-650.149,41.574 -650.249,41.412 -650.349,41.25L-650.492,41.26L-650.631,41.222C-651.05,41.399 -651.156,41.156 -651.186,40.81C-651.464,40.663 -651.79,40.574 -651.898,40.221C-652.149,40.016 -652.315,39.752 -652.429,39.451C-652.864,38.994 -652.916,38.356 -653.194,37.825L-653.672,37.526C-654.474,37.544 -655.277,37.563 -656.079,37.581C-656.109,38.071 -656.14,38.562 -656.17,39.053C-656.12,39.118 -656.056,39.162 -655.978,39.184C-655.577,39.087 -655.331,39.225 -655.27,39.647L-655.228,39.674C-654.667,39.59 -654.261,39.874 -653.921,40.261C-653.397,40.856 -652.986,41.543 -652.277,41.981C-651.887,42.223 -651.804,42.788 -652.217,42.988C-653.137,43.434 -652.691,43.859 -652.356,44.372C-652.264,44.513 -652.321,44.752 -652.309,44.946C-652.165,45.623 -652.234,46.278 -652.521,46.909C-652.487,47.315 -652.453,47.721 -652.418,48.127C-651.335,48.834 -650.264,49.538 -650.71,51.129C-650.807,51.472 -650.543,51.697 -650.255,51.827C-649.602,52.121 -649.222,52.626 -649.072,53.308C-648.875,54.212 -648.272,54.534 -647.41,54.506C-646.677,53.751 -646.674,53.528 -647.434,52.851C-647.644,52.664 -648.103,52.625 -647.955,52.235C-647.783,51.782 -647.335,51.93 -647.029,52.057C-646.364,52.335 -645.426,51.819 -644.993,52.754L-644.919,52.776C-644.562,52.652 -644.284,52.752 -644.081,53.069L-644.039,53.088C-642.998,53.503 -642.911,53.968 -643.7,54.887C-643.764,54.879 -643.801,54.908 -643.81,54.972C-643.877,55.161 -644.001,55.253 -644.207,55.202L-644.226,55.207C-644.321,55.432 -644.414,55.423 -644.504,55.204L-644.521,55.201C-644.846,55.318 -645.082,55.199 -645.26,54.924L-645.296,54.909C-645.595,55.025 -645.905,55.127 -646.025,55.474C-645.402,56.177 -644.784,56.886 -644.153,57.582C-643.694,58.088 -643.781,58.457 -644.4,58.719C-644.533,58.95 -644.746,59.034 -645,59.043C-645.568,59.64 -646.245,59.825 -647.052,59.645C-648.889,59.236 -650.491,59.757 -651.932,60.91C-652.413,61.295 -652.962,61.591 -653.582,61.645C-654.117,61.691 -654.729,61.807 -654.976,61.084L-654.986,61.076C-655.474,61.177 -655.512,60.463 -655.981,60.529C-657.204,61.941 -658.4,62.249 -659.785,61.507C-660.846,60.939 -660.967,60.54 -660.391,59.469C-660.296,59.292 -660.177,59.127 -660.068,58.956C-659.928,58.237 -659.574,57.936 -658.86,58.336C-658.076,58.285 -657.291,58.234 -656.506,58.182C-656.468,57.779 -656.429,57.377 -656.391,56.974C-656.8,56.574 -656.967,56.117 -656.717,55.564C-657.016,55.537 -657.315,55.519 -657.612,55.481C-658.113,55.416 -658.45,55.13 -658.536,54.637C-658.626,54.123 -658.216,53.955 -657.839,53.81C-657.508,53.683 -657.16,53.595 -657.124,53.155C-657.853,53.007 -658.346,52.66 -658.254,51.818C-658.395,51.346 -658.685,51.028 -659.182,50.926C-659.299,50.868 -659.417,50.81 -659.535,50.752C-659.625,50.705 -659.717,50.666 -659.813,50.636C-659.922,50.561 -660.03,50.487 -660.139,50.412C-660.199,50.337 -660.236,50.252 -660.249,50.156C-660.351,50.054 -660.452,49.952 -660.554,49.849C-660.797,49.688 -661.041,49.527 -661.284,49.365C-661.448,49.387 -661.575,49.327 -661.668,49.192C-662.029,49.047 -662.445,49.008 -662.698,48.656C-663.152,48.591 -663.607,48.526 -664.062,48.461C-664.4,48.752 -664.768,48.777 -665.159,48.579C-665.253,48.595 -665.333,48.638 -665.399,48.708C-665.371,49.239 -665.342,49.771 -665.314,50.303L-665.29,50.334C-664.562,50.883 -664.576,51.001 -665.424,51.484C-665.489,51.491 -665.548,51.515 -665.601,51.555C-666.096,52.098 -666.643,52.522 -667.438,52.244C-668.04,52.034 -668.379,52.382 -668.702,52.791C-668.707,53.079 -668.712,53.367 -668.717,53.655C-668.274,54.342 -667.384,54.64 -667.124,55.486C-667.062,55.54 -667.024,55.608 -667.01,55.688C-666.387,55.708 -666.05,56.161 -665.681,56.565C-664.985,56.615 -664.884,57.167 -664.741,57.682C-664.681,57.733 -664.638,57.795 -664.612,57.87C-663.938,58.534 -663.938,58.632 -664.603,59.299C-664.777,59.515 -665.023,59.562 -665.279,59.587C-665.511,59.75 -665.735,59.743 -665.951,59.556C-666.038,59.533 -666.123,59.505 -666.206,59.471C-667.647,59.103 -669.207,59.135 -670.47,58.164C-670.874,57.854 -671.335,58.085 -671.779,58.125C-672.868,58.224 -674.001,58.438 -674.813,57.382C-675.297,57.338 -675.782,57.303 -676.265,57.247C-676.812,57.183 -677.335,57.068 -677.517,56.435L-677.544,56.42C-677.656,56.354 -677.769,56.287 -677.881,56.221C-677.992,56.089 -678.103,55.957 -678.214,55.825C-678.267,55.824 -678.319,55.818 -678.371,55.807C-678.942,55.704 -679.054,55.289 -678.972,54.819C-678.898,54.389 -678.737,53.975 -678.613,53.553C-678.798,53.443 -678.88,53.267 -678.931,53.069C-679.508,53.03 -679.829,52.69 -679.992,52.165C-680.384,52.147 -680.776,52.128 -681.167,52.11C-681.292,52.052 -681.416,51.995 -681.54,51.937C-681.629,51.906 -681.717,51.873 -681.804,51.838C-681.964,51.788 -682.06,51.68 -682.088,51.514L-682.085,51.507C-682.209,51.446 -682.409,51.415 -682.445,51.32C-682.538,51.076 -682.346,50.981 -682.136,50.935C-681.727,50.42 -681.352,49.867 -680.695,49.623C-680.538,49.444 -680.367,49.429 -680.182,49.58C-680.017,49.607 -679.852,49.634 -679.687,49.66C-678.264,49.165 -678.234,49.112 -678.54,47.624C-678.716,46.768 -678.892,45.912 -679.069,45.056L-679.069,44.591C-679.358,44.13 -678.974,43.615 -679.195,43.135C-679.33,42.84 -679.239,42.534 -678.953,42.351C-678.605,42.129 -678.286,42.26 -678.002,42.506C-677.661,42.802 -677.365,43.135 -677.206,43.568C-677.023,43.607 -676.841,43.647 -676.659,43.686C-676.199,43.304 -675.858,43.621 -675.685,43.965C-675.241,44.844 -674.579,44.845 -673.799,44.57C-673.697,44.483 -673.594,44.396 -673.492,44.308C-673.44,43.856 -673.144,43.671 -672.745,43.767C-672.205,43.897 -671.679,44.094 -671.156,44.289C-670.747,44.441 -670.394,44.981 -669.924,44.66C-669.352,44.268 -668.642,43.987 -668.364,43.263C-667.807,41.809 -667.272,40.347 -666.703,38.899C-666.55,38.509 -666.477,38.122 -666.485,37.711C-666.676,37.604 -666.867,37.497 -667.058,37.391C-667.874,37.362 -668.611,37.714 -669.388,37.863C-670.351,38.047 -671.393,38.316 -672.045,37.186C-673.663,37.153 -674.423,37.66 -674.835,39.111C-674.938,39.471 -675.001,39.802 -675.431,39.884L-675.441,39.902C-676.069,40.666 -676.305,40.659 -676.823,39.857C-676.862,39.679 -676.901,39.501 -676.94,39.323C-677.537,38.993 -677.554,38.583 -677.107,38.109C-677.13,37.898 -677.152,37.688 -677.175,37.477C-677.84,37.235 -678.56,37.118 -679.117,36.628C-679.346,36.567 -679.562,36.484 -679.7,36.275C-679.771,36.253 -679.839,36.228 -679.905,36.198C-680.332,36.143 -680.58,35.857 -680.434,35.486C-680.192,34.87 -680.038,34.155 -679.315,33.855C-679.225,33.751 -679.135,33.648 -679.045,33.544C-678.972,33.167 -678.827,32.952 -678.442,33.275C-678.249,33.273 -678.057,33.272 -677.864,33.271C-676.684,33.089 -675.505,32.887 -674.305,32.965C-673.757,33.001 -673.191,33.28 -673.163,33.802C-673.078,35.379 -672.203,35.829 -670.807,35.709C-670.407,35.706 -670.008,35.703 -669.609,35.7C-669.289,35.407 -668.946,35.458 -668.636,35.688C-668.152,36.047 -667.578,36.006 -667.034,36.104C-666.959,36.075 -666.887,36.04 -666.819,35.997C-666.449,35.621 -665.986,35.649 -665.539,35.754C-664.935,35.896 -664.537,36.235 -664.651,36.94C-664.692,37.189 -664.738,37.442 -664.735,37.693C-664.728,38.314 -664.307,38.574 -663.777,38.698C-663.221,38.827 -662.934,38.548 -662.784,38.029C-662.686,37.693 -662.551,37.356 -662.369,37.058C-662.194,36.774 -661.922,36.647 -661.625,36.95C-661.432,36.941 -661.239,36.932 -661.046,36.923C-660.71,36.604 -660.306,36.667 -659.896,36.701C-658.176,36.843 -657.345,35.835 -657.895,34.179C-658.145,33.429 -658.246,32.704 -658.127,31.938C-658.084,31.657 -657.878,31.511 -657.628,31.418C-657.572,30.918 -657.197,30.794 -656.79,30.708C-656.457,30.184 -656.122,30.194 -655.785,30.703C-655.606,30.745 -655.427,30.786 -655.248,30.828C-654.684,30.479 -654.671,30.95 -654.568,31.286L-654.568,31.61L-654.542,31.648C-654.326,31.636 -654.221,31.755 -654.181,31.951L-654.096,31.953C-653.813,31.361 -653.463,31.598 -653.146,31.899C-652.628,32.391 -652.101,32.867 -651.488,33.242C-651.174,33.434 -650.862,33.599 -650.487,33.449C-650.138,33.309 -649.865,33.07 -649.807,32.689C-649.753,32.34 -649.971,32.083 -650.281,31.994C-651.241,31.72 -651.501,31.008 -651.526,30.126C-651.952,29.859 -652.236,29.541 -651.931,29.009C-652.116,28.366 -652.078,27.703 -652.105,27.046C-652.378,26.916 -652.654,26.79 -652.717,26.446L-652.742,26.425C-653.005,26.41 -653.154,26.225 -653.304,26.043C-653.504,26.036 -653.715,26.07 -653.9,26.014C-654.295,25.895 -654.697,25.697 -654.637,25.208C-654.583,24.773 -654.162,24.738 -653.813,24.717C-653.315,24.687 -652.844,24.424 -652.33,24.54L-652.261,24.444C-652.412,23.98 -652.346,23.615 -651.816,23.461L-651.813,23.458C-651.712,22.923 -651.329,22.857 -650.882,22.896C-650.788,22.87 -650.695,22.876 -650.605,22.913C-650.417,22.866 -650.23,22.819 -650.042,22.771C-649.697,22.449 -649.442,22.7 -649.181,22.908C-648.45,23.146 -648.042,23.817 -647.416,24.217C-645.899,25.187 -645.676,25.135 -645.319,23.344C-645.401,23.202 -645.482,23.061 -645.564,22.92C-645.877,22.873 -646.062,22.642 -646.261,22.433C-647.043,22.259 -647.352,21.581 -647.686,20.99C-647.914,20.589 -647.739,20.2 -647.195,20.128C-647.117,20.103 -647.042,20.072 -646.97,20.035C-646.849,19.672 -646.54,19.508 -646.245,19.314C-644.95,18.463 -644.893,18.247 -645.287,16.711C-645.387,16.319 -645.969,15.766 -645.074,15.524L-645.065,15.517C-644.809,14.669 -644.008,14.816 -643.418,14.701C-642.71,14.563 -642.056,14.513 -641.568,13.846C-641.074,13.171 -640.278,13.27 -639.6,13.484C-638.439,13.849 -637.493,13.468 -636.679,12.725C-636.358,12.433 -637.441,10.438 -638.062,9.885C-638.871,9.165 -639.763,8.895 -640.846,8.937C-642.094,8.986 -643.392,9.175 -644.501,8.274C-644.924,7.93 -645.364,8.179 -645.734,8.502C-647.1,9.698 -648.719,9.365 -650.236,9.084C-651.497,8.85 -651.741,7.797 -650.9,6.95L-650.896,6.946C-649.911,6.141 -648.817,5.666 -647.516,5.844C-647.127,5.897 -646.702,6.13 -646.429,5.664C-646.191,5.26 -646.437,4.907 -646.611,4.534C-647.154,3.367 -647.959,2.728 -649.334,2.825C-650.231,2.888 -651.205,2.851 -651.494,1.667L-651.509,1.653C-652.163,1.539 -652.297,1.082 -652.234,0.519C-652.185,0.088 -652.159,-0.351 -652.703,-0.437C-653.245,-0.522 -654.012,-0.685 -654.207,-0.076C-654.562,1.037 -655.42,0.966 -656.254,1.132C-657.802,1.438 -657.956,1.752 -657.376,3.183C-656.858,4.464 -657.398,5.409 -658.754,5.583C-658.955,5.609 -659.161,5.594 -659.365,5.604C-660.861,5.672 -660.967,5.733 -661.251,7.224C-661.411,8.062 -661.665,8.885 -661.494,9.783C-661.335,10.62 -661.88,11.228 -662.497,11.72C-662.731,11.906 -663.049,11.984 -663.297,12.157C-664.002,12.648 -663.974,13.247 -663.235,13.671C-663.017,13.796 -662.781,13.887 -662.553,13.993C-662.243,13.989 -661.934,13.985 -661.624,13.981C-660.014,11.985 -658.406,11.689 -656.365,13.11C-655.785,13.515 -655.347,13.707 -654.754,13.212C-654.397,12.914 -653.948,12.789 -653.472,12.789C-652.531,12.79 -651.884,13.502 -651.943,14.481C-651.997,15.386 -652.861,16.12 -653.739,15.888C-656.306,15.21 -658.865,15.76 -661.423,15.893C-662.184,15.932 -662.946,16.08 -663.698,15.924C-664.246,15.811 -664.817,15.631 -664.788,14.879C-664.762,14.19 -665.223,14.166 -665.712,14.213C-666.231,14.263 -666.667,14.549 -667.128,14.761C-667.639,14.995 -668.15,15.274 -668.695,14.839C-668.888,14.844 -669.08,14.849 -669.273,14.854C-670.241,15.888 -671.488,16.557 -672.645,17.327C-673.281,17.751 -674.085,17.525 -674.84,17.293C-676.178,16.88 -677.501,16.372 -678.929,16.321C-679.629,16.296 -680.231,16.347 -680.428,17.218C-680.586,17.919 -681.166,18.136 -681.826,18.139C-682.726,18.143 -683.101,18.627 -683.09,19.478C-683.081,20.114 -683.299,20.63 -683.726,21.123C-684.346,21.842 -684.307,21.875 -683.34,22.507C-682.839,22.517 -682.338,22.526 -681.837,22.536C-681.001,22.263 -680.334,22.737 -679.628,23.038C-679.447,23.062 -679.267,23.085 -679.087,23.109C-678.715,22.84 -678.448,22.545 -678.598,22.02C-678.709,21.628 -678.535,21.363 -678.097,21.33C-678.018,21.303 -677.942,21.269 -677.869,21.228C-677.063,20.705 -676.293,20.819 -675.74,21.542C-675.297,22.12 -675.379,22.5 -676.071,23.069C-676.241,23.11 -676.411,23.151 -676.58,23.192C-676.748,24.314 -676.698,25.485 -677.4,26.479C-677.588,26.745 -677.431,27.058 -677.391,27.349C-677.342,27.711 -677.533,27.904 -677.868,27.982C-678.209,28.311 -678.626,28.352 -679.068,28.294C-679.489,28.563 -679.58,28.311 -679.605,27.954C-679.62,27.768 -679.634,27.581 -679.649,27.394C-680.413,26.595 -680.18,25.571 -680.274,24.62L-680.265,24.566C-680.474,24.58 -680.684,24.594 -680.894,24.607C-682.223,24.823 -683.551,25.038 -684.88,25.253L-684.88,28.005C-684.834,28.025 -684.785,28.039 -684.743,28.065C-684.617,28.142 -684.376,28.249 -684.387,28.3C-684.621,29.391 -683.72,30.159 -683.605,31.119C-683.545,31.622 -683.807,32.186 -684.003,32.691C-684.139,33.04 -684.551,33.091 -684.88,33.203L-684.88,34.426C-684.595,34.971 -684.005,35.193 -683.614,35.627C-683.207,36.079 -682.646,36.496 -682.942,37.191C-683.183,37.753 -683.784,37.651 -684.285,37.686C-684.485,37.7 -684.682,37.754 -684.88,37.79L-684.88,48.798C-684.733,48.805 -684.584,48.804 -684.438,48.822C-684.137,48.861 -683.826,48.933 -683.795,49.298C-683.766,49.637 -683.997,49.84 -684.3,49.933C-684.485,49.989 -688.545,50.136 -688.739,50.164L-689.882,69.59C-689.296,69.946 -683.709,70.029 -683.011,70.238C-682.771,70.691 -682.815,71.313 -682.572,71.857C-682.257,72.563 -682.624,72.927 -683.441,72.982C-683.925,73.014 -686.968,73.335 -687.452,73.71L-688.024,76.298C-687.3,76.48 -683.609,75.984 -683.211,75.33C-682.708,74.504 -681.907,74.453 -681.074,74.628C-680.209,74.81 -680.192,75.548 -679.978,76.238C-679.576,77.537 -680.298,78.497 -680.833,79.472C-681.189,80.122 -682.016,80.214 -682.737,80.103C-683.274,80.021 -683.844,79.968 -684.313,79.627C-684.502,79.645 -690.122,79.806 -690.311,79.824L-690.311,106.406C-689.992,106.427 -684.241,106.018 -683.922,106.038C-682.429,105.889 -682.429,105.889 -682.069,107.177C-681.594,108.105 -681.769,109.161 -681.477,110.13C-681.176,111.132 -680.812,111.285 -680.005,110.654C-678.272,109.299 -677.802,109.371 -676.563,111.178C-676.42,111.387 -676.291,111.606 -676.144,111.812C-675.446,112.791 -675.295,112.834 -674.38,112.058C-673.925,111.673 -673.51,111.384 -672.885,111.599C-672.302,111.799 -671.935,111.481 -671.618,111.026C-670.754,109.782 -670.17,109.626 -668.881,110.262C-668.41,110.495 -667.92,111.116 -667.413,110.563C-666.907,110.012 -667.338,109.433 -667.726,108.939C-667.851,108.78 -667.969,108.614 -668.07,108.439C-668.198,108.219 -668.338,107.96 -668.162,107.735C-667.918,107.423 -667.606,107.567 -667.353,107.744C-666.896,108.064 -666.479,108.442 -666.009,108.74C-665.229,109.235 -664.703,109.025 -664.402,108.129C-664.208,107.552 -664.044,106.966 -663.859,106.387C-663.745,106.03 -663.562,105.737 -663.129,105.728C-662.471,105.567 -661.754,105.606 -661.188,105.142C-662.045,103.883 -662.768,102.454 -664.651,102.559C-665.071,102.582 -665.465,102.481 -665.568,101.971L-665.588,101.957C-666.159,101.992 -666.702,101.894 -667.187,101.58C-667.63,101.295 -667.654,100.944 -667.28,100.583C-667.137,100.444 -666.972,100.29 -666.79,100.235C-665.636,99.887 -664.801,99.174 -663.999,98.269C-663.086,97.239 -661.718,97.79 -661.418,99.147C-661.135,100.427 -660.878,101.725 -660.441,102.955C-659.961,104.303 -658.895,105.301 -657.97,106.358C-657.718,106.647 -657.411,106.37 -657.357,106.011C-657.31,105.694 -657.49,105.432 -657.623,105.157C-658.062,104.241 -658.113,103.246 -657.683,102.372C-657.399,101.796 -657.567,101.302 -657.53,100.772C-657.53,100.772 -657.546,100.664 -657.547,100.665C-657.79,100.602 -658.032,100.538 -658.274,100.473C-659.71,99.631 -659.802,98.714 -658.376,97.96C-657.486,97.491 -657.251,96.915 -657.291,96.021C-657.333,95.061 -657.228,94.101 -657.688,93.183C-658.045,92.47 -657.818,91.782 -657.292,91.217C-656.76,90.647 -656.083,90.653 -655.465,90.981C-654.678,91.397 -654.046,91.337 -653.387,90.729C-653.149,90.509 -652.741,90.46 -652.402,90.365C-651.758,90.186 -651.189,89.912 -650.659,89.473C-649.599,88.595 -648.413,88.684 -647.378,89.617C-647.265,89.719 -647.165,89.836 -647.052,89.938C-645.579,91.26 -645.534,91.429 -646.427,93.27C-646.632,93.691 -646.771,94.121 -646.856,94.567C-647.035,95.505 -647.354,96.32 -648.315,96.738C-648.871,96.979 -648.919,97.425 -648.561,97.851C-648.049,98.46 -647.765,99.148 -647.676,99.923C-647.58,100.751 -647.601,101.555 -648.269,102.19C-648.941,102.829 -648.981,103.858 -649.679,104.482C-649.711,104.675 -649.743,104.867 -649.775,105.06C-649.478,105.375 -649.627,105.576 -649.948,105.733C-649.978,106.277 -650.088,106.761 -650.762,106.824C-650.75,107.089 -650.824,107.321 -651.025,107.504C-651.007,107.722 -650.99,107.94 -650.972,108.158C-650.667,108.182 -650.363,108.206 -650.058,108.231C-649.429,108.282 -649.168,108.676 -649.165,109.256C-649.153,111.546 -649.122,113.837 -649.169,116.127C-649.188,117.063 -649.87,117.601 -650.823,117.474C-652.136,117.298 -653.44,117.068 -654.339,115.895C-654.671,115.461 -655.074,115.046 -655.647,114.881C-656.73,114.57 -658.408,115.462 -658.747,116.548C-658.89,117.007 -658.628,117.266 -658.221,117.269C-657.213,117.275 -656.627,117.763 -656.288,118.686C-656.194,118.944 -655.92,119.241 -655.667,119.32C-654.319,119.743 -653.421,120.873 -652.171,121.456C-651.212,121.904 -651.229,122.04 -651.684,122.96C-652.09,123.781 -652.466,124.617 -652.894,125.426C-653.427,126.433 -654.343,126.889 -655.283,126.287C-656.635,125.42 -658.206,125.135 -659.573,124.356C-659.934,124.149 -660.348,124.008 -660.304,123.503C-660.259,122.996 -659.835,122.895 -659.427,122.802C-658.578,122.609 -657.756,122.33 -657.028,121.846C-656.337,121.387 -656.327,120.916 -656.976,120.401C-657.253,120.182 -657.559,119.966 -657.888,119.852C-658.551,119.621 -658.857,119.196 -658.911,118.501C-658.978,117.636 -659.508,117.283 -660.361,117.295C-661.52,117.312 -662.69,117.124 -663.738,117.888C-664.215,118.236 -664.786,118.25 -665.272,117.772C-665.823,117.229 -666.434,117.291 -667.105,117.565C-668.041,117.948 -669.059,118.162 -669.717,119.04C-669.906,119.293 -670.197,119.409 -670.504,119.472C-671.182,119.611 -671.475,120.036 -671.298,120.692C-671.114,121.378 -671.353,121.755 -671.995,121.973C-672.231,122.053 -672.421,122.273 -672.657,122.342C-673.405,122.559 -673.923,124.034 -674.939,122.796C-675.455,122.166 -676.461,121.959 -676.435,120.838C-676.42,120.192 -677.004,119.788 -677.581,119.524C-678.09,119.292 -678.602,119.053 -679.134,118.887C-680.223,118.547 -681.062,117.992 -681.287,116.773C-681.358,116.39 -681.612,116.127 -682.036,116.163C-682.377,116.193 -682.561,116.438 -682.662,116.75C-682.741,116.991 -682.8,117.241 -682.909,117.467C-683.532,118.752 -688.109,118.607 -689.453,118.065L-689.453,155.458L110.276,155.281L110.145,78.809C109.348,78.356 106.639,77.211 106.571,76.404" style="fill:rgb(71,97,111);fill-rule:nonzero;"/>
            </g>
        </g>
    </g>
</svg>
