<?xml version="1.0" encoding="UTF-8"?>
<!DOCTYPE svg  PUBLIC '-//W3C//DTD SVG 1.1//EN'  'http://www.w3.org/Graphics/SVG/1.1/DTD/svg11.dtd'>
<svg clip-rule="evenodd" fill-rule="evenodd" stroke-linejoin="round" stroke-miterlimit="2" version="1.1" viewBox="0 0 28 28" xml:space="preserve" xmlns="http://www.w3.org/2000/svg">
    <g transform="matrix(.27717 0 0 .27717 -4.8702e-6 0)">
        <rect width="100" height="100" fill="none"/>
        <g transform="matrix(3.6079 0 0 3.6079 .70062 0)">
            <path d="m11.254 25.855c-0.123 0.067-0.246 0.134-0.37 0.2-0.277 0.059-0.764 0.212-0.991 0.143 0.991-0.627-1.26 0.113-0.052-0.548 0.354-0.35-0.833 0.181 0.018-0.366 0.417-0.621-1.464 0.537-1.275 0.18 0.53-0.43 0.524-0.523-0.055-0.465 0.374-0.285 1.123-0.856 0.098-0.505-1.066 0.25 0.879-1.079-0.406-0.455-0.579-0.09-1.777 0.611-2.651 0.892-0.495 0.169-2.246 0.869-1.889 0.642 0.874-0.211 0.247-0.41 0.013-0.347-9e-3 3e-3 -0.018 6e-3 -0.026 9e-3 8e-3 -3e-3 0.016-6e-3 0.026-9e-3 0.483-0.166 2.267-0.877 0.863-0.401-0.757 0.158-1.573 0.333-2.298 0.481 1.207-0.399 2.448-0.812 3.641-1.266-0.933 0.163-2.014 0.717-3.016 0.822-0.994 0.443-1.846-0.533-1.91-1.414-0.514 0.421 0.181-1.015-0.598-0.232 0.222-0.438 0.455-1.65-0.37-1.147-0.094-0.934 0.87-1.732 1.454-2.484 0.337-0.409 1.561-1.434 0.764-1.378-0.437 8e-3 -0.805 0.909-0.551 0.031-0.705 0.616-0.021-0.111-0.337 0.043-0.01 0.024-0.012 0.028-3e-3 1e-3l3e-3 -1e-3c0.066-0.166 0.473-1.298-0.183-0.447 0.292-0.717 1.277-2.048 2.034-2.842 2.938-3.17 5.831-6.383 8.818-9.509 1.061-1.045 2.056-2.176 3.258-3.063 0.661-0.213-0.18 0.442 0.585 8e-3 0.272 0.165 0.256-0.048-0.125 0.513 0.661-0.489 0.491-0.265 0.385 0.251 0.753-0.693-0.043 0.602 0.566-0.297 0.016 0.194-0.185 0.586 0.516 0.202 1.214-0.845-0.922 1.173 0.243 0.237 0.286 0.231-1.12 1.069-0.311 0.816-0.595 0.797 0.417-0.279 0.353 2e-3 0.383-0.282 1.763-1.548 1.539-1.239-0.756 0.538-0.138 0.518 0.125 0.327 9e-3 -7e-3 0.017-0.013 0.024-0.019-8e-3 6e-3 -0.015 0.013-0.024 0.019-0.395 0.312-1.862 1.64-0.716 0.707 0.55-0.229 1.868-1.338 1.929-1.169-1.086 0.785-2.122 1.679-3.12 2.555-0.4 0.229-2.091 1.67-2.245 1.936 1.541-1.157 2.902-2.547 4.492-3.634 0.711-0.642 1.481-0.908 2.212-0.444 0.646 0.545 1.335 1.469 1.403 2.293 0.181 0.342-0.269 0.928-0.021 0.859 0.011 0.184 0.629 0.059 0.971-0.183-0.514 0.484 0.157 1.203 0.594 0.74 0.022-0.04 0.051-0.079 0.089-0.117-0.028 0.045-0.058 0.084-0.089 0.117-0.19 0.351 0.206 0.741 0.455 0.199-0.165 0.422-0.096 1.07-0.042 1.274 1.292-0.512 0.039 1.546-0.375 2.035-1.219 1.648-2.637 3.135-4.06 4.601 1.348-0.621 2.718-1.265 4.137-1.748 1.106-0.837 0.968 0.739 1.164 1.385 0.088 0.605 0.364 1.351 0.792 1.317-0.752 0.666 0.72 0.471 0.181 1.342-0.084 0.786 1.257 0.316 0.317 0.969-0.383 1.315-1.714 1.947-2.934 2.368-0.861 0.398-1.675 0.876-2.463 1.396 0 0 2.501 0.258 5.337 1.599 0.142 0.085 0.495 0.362 0.414 0.541-0.481-0.072 0.63 0.941-0.414 0.521 1.036 0.454-0.577 0.355 0.199 0.888-0.707-0.032 0.683 0.08-0.171 0.247 0.392 0.535 0.532 1.042-0.136 0.739 0.624 0.662-0.931-0.266-0.613 0.405-0.29 8e-3 0.559 0.412-0.43 0.396-2.114-0.385-4.211-1.052-6.371-1.279-2.877-0.446-5.806-0.124-8.654-0.251l0.283 0.011zm13.04-6.795c0.355-0.307 0.71-0.217 0.477 0.035 0.651-0.154 0.933-0.436 0.789-0.642 0.013-0.276-1.423 0.522-1.409 0.614l-1e-3 0.044 0.144-0.051zm0.704-0.187c0.063-0.201 0.23-0.262 0.312-0.247s0.078 0.107-0.199 0.209l-0.113 0.038zm-22.863-5.472c0.297-0.312-1.003-0.021-0.167-0.566-0.855 0.521 0.036-0.598-0.746-0.306 0.383-0.496-0.404 0.455-0.092-0.25-0.587 0.013-1.025-0.144-0.466-0.474-0.797 0.116 0.666-0.54 0.018-0.65 0.141-0.214-0.583 0.196-0.069-0.513 1.354-1.338 2.903-2.519 4.165-3.97 1.786-1.859 3.041-4.147 4.581-6.147 0.305-0.34 0.64 0.662 1.143 1.001 0.383 0.609 0.691-0.497 0.937 0.086 0.218-0.393 0.176 0.113 0.242 0.164-0.198 1.015 0.847-0.469 0.296 0.697-0.45 2.051-1.935 3.667-3.147 5.316-1.721 2.156-3.679 4.211-6.092 5.586-0.134 0.06-0.514 0.176-0.603 0.026z"/>
        </g>
    </g>
</svg>
