<?xml version="1.0" encoding="UTF-8"?>
<!DOCTYPE svg  PUBLIC '-//W3C//DTD SVG 1.1//EN'  'http://www.w3.org/Graphics/SVG/1.1/DTD/svg11.dtd'>
<svg clip-rule="evenodd" fill-rule="evenodd" stroke-linejoin="round" stroke-miterlimit="2" version="1.1" viewBox="0 0 28 28" xml:space="preserve" xmlns="http://www.w3.org/2000/svg">
    <g transform="matrix(.27717 0 0 .27717 -4.8702e-6 0)">
        <rect width="100" height="100" fill="none"/>
        <g transform="matrix(.070546 0 0 .070546 1.088 6.8031)">
            
                <path d="m351.24 1238.9c-16.186-1.3-41.116-15.15-20.083-24.19-23.952 2.37-58.447-4.6-47.392-21.6-38.738 20.75 41.861-47.83-13.207-22.67-45.179 25.59 7.187-68.97-46.352-38.31-19.708-12.48-34.221 10.26-18.395-12.39-35.083 5.18-79.586 9.88-115.6-10.74-17.901-11.4 23.37-11.19-14.271-25.34 6.493-12.01 21.682-6.97 10.934-20.78 43.537-14.38-40.789-17.37-31.601-25.71 37.06-9.19 8.382-9.69 7.781-25.57 58.225 2.91-35.349-32.345 16.76-35.743-6.233-22.141-48.34-10.732-38.653-46.008-39.488-6.192-13.507-34.573-26.601-30.837-50.636 22.039 48.129-40.652 34.932-27.356-36.68-6.494-12.146-36.063 11.39-30.927-21.741-3.364-70.742-14.143-23.207-27.875 29.746-9.713 7.917-34.427 0.607-12.639-27.004-37.61 45.054-5.044 26.932-56.828-8.038-148.79-20.996-297.38-27.204-446.21 2.579-67.5-8.795-136.52 1.061-202.99 15.962-37.836 19.574-0.647 40.413-29.364 1.102 25.895 15.282 2.941 21.651 24.878 22.482-16.775 6.508-68.287 29.766-22.087 19.045-42.993 16.506 52.438 34.535-11.69 21.635 1.277 20.511 32.033 31.17-0.937 11.829-7.751 12.103-24.291 38.165-20.585 4.227-37.963 38.518 0.937 18.737-34.384 33.668 8.57 22.301 72.491 41.615 31.799 29.922-24.674 14.122 58.645 28.889 0.498 4.815-50.405 42.795 49.005 40.498 9.794-14.35-4.033 30.992-24.969 17.731 12.478-0.23 35.421-6.466 118.77 3.253 126.4 13.642-49.393 37.126-81.335 71.805-83.511-3.53 24.596 16.566-23.303 3.079 22.985 5.588 20.915 20.275-47.132 25.997-1.747 0.932 36.259 31.492-42.41 22.125 13.108 9.8-43.438 25.28-7.842 14.695-13.003 7.197 19.744 42.746-65.604 46.515-22.806-16.128 39.493-12.346 35.079 6.853 9.602 18.895 23.504-21.262 45.93-0.147 54.497 20.584-42.363 0.612 52.613 16.991-3.627 11.052-26.993 20.602 60.895 7.643 83.715-4.888 32.169-37.987 127.65 0.703 58.191 18.573-31.7 45.536-87.719 54.853-34.737 6.028 19.582 20.709 31.143 33.351 7.302 10.444-27.924-1.031 29.839 16.339-7.995-4.978 11.736-3.787 50.216 12.368 22.808-12.027 35.717-46.864 107.47 5.992 46.395 101.38-94.952 202.62-192.37 320.56-266.32-50.073 48.749 133.1-80.579 76.26-42.301 23.45-14.42 29.72-20.313 36.27-1.374 36.68-29.187 15.34 24.538 37.98 37.865 18.78 36.255 19.12 86.809 53.18 110.69-1.84 33.822 32.15 39.905 55.29 33.812 40.69-55.49-8.84 63.954 45.09 17.381 19.8-18.792-30.58 55.939 13.66 16.871-22.82 20.122-19.36 99.139 24.02 60.074-3.26 30.13-44.14 84.349-64.77 120.24-24.84 34.63-120.61 87.556-109.35 107.51 37.51-17.671 50.69 17.885 58.43 9.72 45.38 6.335 9.72 10.166 19.29 14.946 25.95-6.564-53.62 27.328 10.96 12.433 2.94 9.847-33.27 34.845 13.39 30.741-51.47 28.687 46.78-18.548-6.31 15.975 2.37 13.461 59.47 4.359 56.48 22.006-23.72 6.835-60.93 21.821-13.8 13.208 13.12 23.543-58.54 16.432-38.96 32.839 34.85-0.677-44.35 29.725 18.18 9.946 15.53-2.256-55.83 47.186 4.98 29.545 50.14-12.049 55.92 7.136 48.61 37.227-7.26 29.211-44.65 58.398-18.87 93.74 2.5 10.343-23.52 31.394 14.73 24.728 53.9 2.793-67.93 15.117-11.92 37.195 61.39-5.42-45.19 35.72 1.6 67.03 85.67 10.532-26.68 11.584-41.34 40.755-67.35 24.12-136.14 47.78-209.09 45.85-36.98 3.16-120.49 1.08-128.9 11.96 41.397 22.82 149.52 6.52 118.18 79.07-15.34 39.2-10.51 94.67-71.31 59.36-149.7-33.3-297.61-75.43-445.37-115.27-63.65 8.51-99.785 80.72-158.95 106.84-25.937 9.61-55.136 36.52-81.618 32.43zm-151.05-129.9c-20.85-14.17-79.918 7.36-11.632 3.55 3.789 0.26 9.73 1.02 11.632-3.55zm915.86-107.07c32.29 0.76 105.96-0.37 68.21-17.662 60.35-7.717-51.25-5.259-70.9 0.635-36.68 4.501-79.23-0.399-92.68 10.951 20.71 0.304 141.65-13.405 71.29 6.416 7.84 2.79 16.15-0.39 24.08-0.34zm12.55-6.294c24.77-16.611 72.57-1.709 14.78-0.038l-8.04 0.697-6.74-0.659zm-1084.2-783.4c16.902-31.431-1.092-120.12-1.767-36.582 0.013 5.822-5.076 57.76 1.767 36.582z" fill-rule="nonzero"/>
            
        </g>
    </g>
</svg>
