<?xml version="1.0" encoding="UTF-8" standalone="no"?>
<!DOCTYPE svg PUBLIC "-//W3C//DTD SVG 1.1//EN" "http://www.w3.org/Graphics/SVG/1.1/DTD/svg11.dtd">
<svg width="100%" height="100%" viewBox="0 0 28 28" version="1.1" xmlns="http://www.w3.org/2000/svg" xmlns:xlink="http://www.w3.org/1999/xlink" xml:space="preserve" xmlns:serif="http://www.serif.com/" style="fill-rule:evenodd;clip-rule:evenodd;stroke-linejoin:round;stroke-miterlimit:2;">
    <g id="Artboard1" transform="matrix(0.27717,0,0,0.27717,-4.87019e-06,0)">
        <rect x="0" y="0" width="100" height="100" style="fill:none;"/>
        <g transform="matrix(0.0705463,0,0,0.0705463,1.088,6.80307)">
            <g id="path71">
                <path id="path94" d="M351.238,1238.88C335.052,1237.58 310.122,1223.73 331.155,1214.69C307.203,1217.06 272.708,1210.09 283.763,1193.09C245.025,1213.84 325.624,1145.26 270.556,1170.42C225.377,1196.01 277.743,1101.45 224.204,1132.11C204.496,1119.63 189.983,1142.37 205.809,1119.72C170.726,1124.9 126.223,1129.6 90.209,1108.98C72.308,1097.58 113.579,1097.79 75.938,1083.64C82.431,1071.63 97.62,1076.67 86.872,1062.86C130.409,1048.48 46.083,1045.49 55.271,1037.15C92.331,1027.96 63.653,1027.46 63.052,1011.58C121.277,1014.49 27.703,979.235 79.812,975.837C73.579,953.696 31.472,965.105 41.159,929.829C1.671,923.637 27.652,895.256 14.558,898.992C-36.078,921.031 62.687,858.34 49.49,871.636C12.81,865.142 37.344,835.573 60.88,840.709C39.139,837.345 -9.862,826.566 37.673,812.834C67.419,803.121 45.59,778.407 38.28,800.195C11.276,762.585 83.334,795.151 65.212,743.367C57.174,594.575 44.216,445.99 38.008,297.158C40.587,229.658 29.213,160.635 39.069,94.169C55.031,56.333 58.643,93.522 79.482,64.805C80.584,90.7 94.764,67.746 101.133,89.683C123.615,72.908 107.641,21.396 130.899,67.596C149.944,24.603 147.405,120.034 165.434,55.906C187.069,57.183 185.945,87.939 196.604,54.969C208.433,47.218 208.707,30.678 234.769,34.384C238.996,-3.579 273.287,35.321 253.506,0C287.174,8.57 275.807,72.491 295.121,31.799C325.043,7.125 309.243,90.444 324.01,32.297C328.825,-18.108 366.805,81.302 364.508,42.091C350.158,38.058 395.5,17.122 382.239,54.569C382.009,89.99 375.773,173.339 385.492,180.969C399.134,131.576 422.618,99.634 457.297,97.458C453.767,122.054 473.863,74.155 460.376,120.443C465.964,141.358 480.651,73.311 486.373,118.696C487.305,154.955 517.865,76.286 508.498,131.804C518.298,88.366 533.778,123.962 523.193,118.801C530.39,138.545 565.939,53.197 569.708,95.995C553.58,135.488 557.362,131.074 576.561,105.597C595.456,129.101 555.299,151.527 576.414,160.094C596.998,117.731 577.026,212.707 593.405,156.467C604.457,129.474 614.007,217.362 601.048,240.182C596.16,272.351 563.061,367.829 601.751,298.373C620.324,266.673 647.287,210.654 656.604,263.636C662.632,283.218 677.313,294.779 689.955,270.938C700.399,243.014 688.924,300.777 706.294,262.943C701.316,274.679 702.507,313.159 718.662,285.751C706.635,321.468 671.798,393.218 724.654,332.146C826.03,237.194 927.279,139.774 1045.21,65.826C995.137,114.575 1178.31,-14.753 1121.47,23.525C1144.92,9.105 1151.19,3.212 1157.74,22.151C1194.42,-7.036 1173.08,46.689 1195.72,60.016C1214.5,96.271 1214.84,146.825 1248.9,170.709C1247.06,204.531 1281.05,210.614 1304.19,204.521C1344.88,149.031 1295.35,268.475 1349.28,221.902C1369.08,203.11 1318.7,277.841 1362.94,238.773C1340.12,258.895 1343.58,337.912 1386.96,298.847C1383.7,328.977 1342.82,383.196 1322.19,419.092C1297.35,453.722 1201.58,506.648 1212.84,526.606C1250.35,508.935 1263.53,544.491 1271.27,536.326C1316.65,542.661 1280.99,546.492 1290.56,551.272C1316.51,544.708 1236.94,578.6 1301.52,563.705C1304.46,573.552 1268.25,598.55 1314.91,594.446C1263.44,623.133 1361.69,575.898 1308.6,610.421C1310.97,623.882 1368.07,614.78 1365.08,632.427C1341.36,639.262 1304.15,654.248 1351.28,645.635C1364.4,669.178 1292.74,662.067 1312.32,678.474C1347.17,677.797 1267.97,708.199 1330.5,688.42C1346.03,686.164 1274.67,735.606 1335.48,717.965C1385.62,705.916 1391.4,725.101 1384.09,755.192C1376.83,784.403 1339.44,813.59 1365.22,848.932C1367.72,859.275 1341.7,880.326 1379.95,873.66C1433.85,876.453 1312.02,888.777 1368.03,910.855C1429.42,905.435 1322.84,946.575 1369.63,977.885C1455.3,988.417 1342.95,989.469 1328.29,1018.64C1260.94,1042.76 1192.15,1066.42 1119.2,1064.49C1082.22,1067.65 998.709,1065.57 990.303,1076.45C1031.7,1099.27 1139.82,1082.97 1108.48,1155.52C1093.14,1194.72 1097.97,1250.19 1037.17,1214.88C887.472,1181.58 739.559,1139.45 591.803,1099.61C528.153,1108.12 492.018,1180.33 432.856,1206.45C406.919,1216.06 377.72,1242.97 351.238,1238.88ZM200.189,1108.98C179.339,1094.81 120.271,1116.34 188.557,1112.53C192.346,1112.79 198.287,1113.55 200.189,1108.98ZM1116.05,1001.91C1148.34,1002.67 1222.01,1001.54 1184.26,984.248C1244.61,976.531 1133.01,978.989 1113.36,984.883C1076.68,989.384 1034.13,984.484 1020.68,995.834C1041.39,996.138 1162.33,982.429 1091.97,1002.25C1099.81,1005.04 1108.12,1001.86 1116.05,1001.91ZM1128.6,995.616C1153.37,979.005 1201.17,993.907 1143.38,995.578L1135.34,996.275L1128.6,995.616ZM44.357,212.218C61.259,180.787 43.265,92.101 42.59,175.636C42.603,181.458 37.514,233.396 44.357,212.218Z" style="fill-rule:nonzero;"/>
            </g>
        </g>
    </g>
</svg>
