<?xml version="1.0" encoding="UTF-8" standalone="no"?>
<!DOCTYPE svg PUBLIC "-//W3C//DTD SVG 1.1//EN" "http://www.w3.org/Graphics/SVG/1.1/DTD/svg11.dtd">
<svg width="100%" height="100%" viewBox="0 0 28 28" style="fill-rule:evenodd;clip-rule:evenodd;stroke-linejoin:round;stroke-miterlimit:2;">
    <g id="path67" transform="matrix(0.0289361,0,0,0.0289361,-0.265121,-0.550925)">
        <path d="M37.734,64.11C71.626,68.149 96.712,34.11 52.876,31.723C90.773,28.479 128.189,22.426 165.177,22.536C285.723,38.508 407.309,50.11 528.988,41.315C635.443,39.885 741.254,25.466 847.792,24.692C870.717,27.103 919.096,26.723 909.791,50.687C884.378,43.346 952.726,71.078 918.664,72.201C957.758,75.27 867.731,82.901 921.21,87.656C955.708,89.769 879.565,117.417 928.465,118.051C942.097,131.418 898.263,132.843 936.658,128.679C952.45,122.457 923.275,150.206 929.701,146.219C935.846,154.106 969.241,162.754 971.522,174.787C963.252,183.04 937.177,172.256 932.252,184.544C972.752,170.317 945.321,214.276 936.086,199.156C915.419,190.197 898.344,211.994 929.439,215.017C895.484,220.687 910.646,226.087 937.231,225.515C918.565,242.327 853.646,260.152 865.158,260.856C892.881,271.536 972.883,247.248 964.019,284.659C962.209,309.392 937.729,327 941.665,353.749C955.013,369.616 921.24,385.302 958.45,382.82C960.932,391.005 913.393,395.968 948.006,410.726C966.393,408.502 904.479,456.553 950.409,462.289C974.532,471.11 914.627,469.753 909.376,486.391C873.42,490.76 870.25,512.034 908.382,507.32C932.168,502.26 929.794,514.827 920.587,514.88C935.184,518.057 979.195,519.299 958.713,535.386C967.984,542.453 961.346,553.187 940.153,554.871C953.555,559.411 924.821,561.672 916.5,560.881C909.262,563.679 901.686,566.29 901.966,564.393C880.71,568.815 834.548,572.085 829.816,578.236C856.788,581.319 904.278,564.492 919.433,581.183C895.079,583.632 938.058,596.669 906.273,609.4C905.824,609.701 905.443,609.999 905.122,610.293C898.428,616.423 918.041,620.951 899.18,625.613C887.826,631.826 938.366,634.019 921.428,642.595C934.863,650.902 967.294,650.502 956.979,667.624C950.443,671.106 960.498,687.182 932.848,683.506C927.361,685.421 928.605,699.632 936.612,700.328C939.131,704.12 915.519,713.04 943.08,713.226C960.162,713.639 937.734,731.766 969.286,729.182C945.627,745.904 953.653,779.301 930.427,803.008C936.064,825.394 905.339,852.12 933.607,859.739C921.898,882.94 991.628,863.252 945.222,885.908C936.941,908.703 997.306,894.376 949.352,904.965C936.931,917.602 982.855,910.186 949.366,918.201C911.322,925.405 927.936,956.14 947.739,954.941C907.162,964.249 872.28,980.455 831.906,982.937C822.385,983.741 812.839,982.389 803.312,982.382L803.312,982.382C674.455,977.573 545.715,970.32 416.847,968.138C382.437,961.106 342.939,967.94 323.889,964.652C323.401,964.9 322.751,964.98 322.525,964.392C321.438,964.163 320.427,963.895 319.499,963.583C272.054,968.948 221.654,967.823 172.457,970.178C162.902,965.556 124.265,955.861 112.477,950.45C125.687,925.18 67.643,938.087 67.969,916.603C46.998,906.571 64.091,897.633 67.072,896.706C53.851,890.28 34.787,867.842 55.889,869.631C18.714,857.963 107.603,867.832 56.272,851.185C26.694,846.773 97.497,822.752 55.561,815.56C36.097,794.66 48.772,808.179 68.368,800.861C47.028,798.728 30.335,799.555 61.112,789.348C53.625,776.947 59.599,774.765 37.838,764.667C40.089,748.733 -0.506,742.372 34.206,734.219C32.129,752.985 90.913,728.351 45.693,734.175C24.739,720.509 65.73,701.951 65.591,719.925C113.437,732.729 56.087,685.755 73.626,699.293C112.485,698.064 80.547,690.067 65.095,684.885C87.52,678.731 96.495,669.221 88.675,658.52C107.137,663.126 169.908,657.273 116.521,655.047C81.876,652.582 62.807,626.562 39.751,608.439C59.138,609.134 60.625,563.129 41.189,563.228C75.755,553.835 17.995,539.743 55.059,534.948C58.758,513.589 86.711,509.537 56.39,493.435C63.181,478.011 19.805,456.58 22.358,431.934C29.361,425.985 40.877,444.761 51.902,435.89C75.326,444.014 5.714,398.525 39.241,392.693C6.732,362.773 102.578,373.576 44.926,354.921C38.633,343.917 1.983,323 32.423,334.8C13.793,301.429 39.804,315.316 45.982,317.459C31.242,307.798 82.112,315.935 83.669,320.957C95.494,306.143 151.636,314.682 160.462,301.762C134.721,298.295 75.869,320.129 70.239,293.385C120.455,303.401 2.249,262.699 39.713,244.261C63.211,257.587 124.335,246.185 91.48,248.568C68.562,236.22 24.341,238.302 25.322,220.421C-3.689,215.902 35.433,209.27 27.576,195.639C40.818,177.046 64.993,156.748 61.259,134.632C83.823,122.507 61.051,100.682 38.238,98.201C23.158,99.431 80.147,76.655 36.075,75.574C16.69,74.301 80.031,69.863 37.734,64.11C37.284,64.056 36.836,63.997 36.387,63.93C36.845,63.99 37.292,64.049 37.734,64.11ZM332.95,956.847C339.487,957.214 367.606,957.684 368.498,955.252C369.391,952.82 346.608,952.569 345.41,952.437C343.731,952.252 329.316,950.96 329.277,953.051C329.239,955.02 331.508,956.766 332.95,956.847ZM84.318,908.428C80.591,906.819 71.622,902.155 70.293,902.226C68.964,902.297 66.106,905.757 66.534,906.457C67.389,907.857 80.286,910.811 84.318,908.428ZM66.007,724.369C62.194,721.071 59.414,719.625 57.608,719.261C55.801,718.897 54.968,719.615 55.048,720.643C55.208,722.7 59.021,725.998 66.007,724.369ZM893.135,692.2C872.533,690.226 856.573,696.4 891.258,693.873L892.911,693.291L893.135,692.2ZM869.054,688.304C876.348,689.037 894.013,688.845 903.185,688.34C912.358,687.836 913.037,687.02 886.36,686.506C866.128,684.79 848.017,689.144 869.054,688.304ZM899.258,684.136C900.003,684.198 902.09,684.344 903.142,684.408C916.476,683.618 921.004,683.094 920.831,682.784C920.658,682.474 915.783,682.379 910.311,682.447C900.346,682.571 888.401,683.237 899.258,684.136ZM871.811,629.764C876.74,628.453 896.879,624.18 892.418,619.032C890.618,616.954 864.922,626.14 862.839,626.899C858.672,628.417 866.881,631.075 871.811,629.764ZM901.67,608.199C903.787,607.335 911.37,602.487 910.7,602.582C910.03,602.676 888.845,611.508 887.843,611.914C885.839,612.725 897.861,609.754 901.67,608.199ZM910.633,557.708C911.483,557.575 931.403,556.673 932.381,556.531C931.349,553.487 915.046,555.948 910.633,557.708ZM922,463.806C923.181,462.52 915.384,457.008 912.643,457.192C909.902,457.376 903.993,463.809 905.553,464.911C907.112,466.014 920.818,465.093 922,463.806ZM831.757,463.196C854.137,460.414 823.889,451.731 847.744,448.437C821.718,448.326 779.467,445.97 764.492,450.861C787.69,452.148 810.183,455.126 796.494,461.718C808.983,461.641 821.887,463.007 831.757,463.196ZM807.694,457.496C811.994,454.279 816.607,452.937 820.492,452.666C824.376,452.395 827.533,453.196 828.921,454.266C831.697,456.406 827.397,459.623 807.694,457.496ZM29.193,434.892C28.724,434.997 28.577,435.317 28.598,435.67C28.619,436.024 28.808,436.411 29.013,436.651C29.421,437.132 29.89,437.027 29.193,434.892ZM875.466,429.128C887.193,424.805 890.614,422.286 889.759,421.029C888.904,419.772 883.773,419.777 878.398,420.501C867.648,421.948 855.92,426.271 875.466,429.128ZM103.283,320.649C145.303,318.439 104.89,311.447 91.223,320.66L93.782,321.608L103.283,320.649ZM941.607,194.496C936.599,193.116 933.466,192.674 931.741,192.725C930.016,192.776 929.698,193.319 930.32,193.912C931.566,195.096 936.573,196.475 941.607,194.496ZM900.639,45.602C898.903,44.298 896.992,43.906 895.363,43.986C893.734,44.067 892.386,44.62 891.777,45.206C890.559,46.379 892.294,47.683 900.639,45.602Z" style="fill-rule:nonzero;"/>
    </g>
</svg>
