<?xml version="1.0" encoding="UTF-8" standalone="no"?>
<!DOCTYPE svg PUBLIC "-//W3C//DTD SVG 1.1//EN" "http://www.w3.org/Graphics/SVG/1.1/DTD/svg11.dtd">
<svg width="100%" height="100%" viewBox="0 0 699 263" version="1.1" xmlns="http://www.w3.org/2000/svg" xmlns:xlink="http://www.w3.org/1999/xlink" xml:space="preserve" xmlns:serif="http://www.serif.com/" style="fill-rule:evenodd;clip-rule:evenodd;stroke-linejoin:round;stroke-miterlimit:2;">
    <g id="XMLID_80_" transform="matrix(1.39518,0,0,1.39518,-88.5939,-71.3639)">
        <g id="XMLID_102_">
            <g id="XMLID_120_">
                <path d="M63.5,237.2L63.5,170.7L78.9,170.7C84.1,170.7 88.3,171.1 91.4,171.8C94.5,172.5 97.2,173.8 99.6,175.4C102,177.2 103.9,179.4 105.3,182C106.7,184.6 107.4,187.4 107.4,190.3C107.4,196.8 105,201.9 100.1,205.7C95.3,209.4 88.6,211.3 80,211.3L75,211.3L75,237.2L63.5,237.2ZM75,201.4L80.3,201.4C85.3,201.4 89.2,200.5 91.8,198.7C94.4,196.9 95.8,194.3 95.8,190.8C95.8,187.3 94.5,184.7 91.8,183.1C89.1,181.5 85,180.6 79.3,180.6L75,180.6L75,201.4Z" style="fill:white;fill-rule:nonzero;"/>
            </g>
            <g id="XMLID_117_">
                <path d="M113.4,203.9C113.4,199.8 114,195.9 115.1,192.2C116.2,188.5 117.9,185.2 120.2,182C123.3,177.7 127.2,174.4 131.8,172C136.4,169.6 141.3,168.5 146.4,168.5C150.8,168.5 155,169.4 159.1,171.1C163.2,172.9 166.7,175.4 169.8,178.6C172.9,182 175.3,185.8 177,190C178.6,194.3 179.5,198.9 179.5,203.8C179.5,208.7 178.7,213.3 177,217.6C175.4,221.9 173,225.6 169.8,228.9C166.7,232.2 163.1,234.7 159,236.4C155,238.2 150.8,239.1 146.4,239.1C142,239.1 137.8,238.2 133.8,236.5C129.8,234.8 126.2,232.3 123.1,229C119.9,225.6 117.5,221.8 115.8,217.6C114.2,213.4 113.4,208.9 113.4,203.9ZM125.4,203.9C125.4,210.8 127.4,216.5 131.5,221.1C135.5,225.7 140.5,228 146.4,228C152.3,228 157.4,225.7 161.4,221.1C165.5,216.5 167.5,210.8 167.5,203.9C167.5,197 165.5,191.3 161.5,186.7C157.5,182.1 152.4,179.8 146.4,179.8C140.4,179.8 135.4,182.1 131.4,186.7C127.4,191.3 125.4,197 125.4,203.9Z" style="fill:white;fill-rule:nonzero;"/>
            </g>
            <g id="XMLID_115_">
                <path d="M187.5,222.4C191.1,224.7 194.4,226.4 197.4,227.5C200.4,228.6 203.2,229.1 205.9,229.1C209.4,229.1 212.2,228.2 214.4,226.5C216.6,224.8 217.6,222.5 217.6,219.8C217.6,217.5 216.9,215.5 215.4,213.6C214,211.8 211.4,209.8 207.8,207.7L202.8,204.7C197.7,201.7 194.1,198.8 192,195.9C189.9,193 188.8,189.7 188.8,186C188.8,180.8 190.7,176.6 194.4,173.3C198.1,170.1 203,168.4 209,168.4C211.9,168.4 214.7,168.7 217.4,169.4C220.1,170.1 222.9,171.1 225.7,172.4L225.3,183C222,181.2 219.1,179.9 216.6,179C214.1,178.2 211.8,177.7 209.9,177.7C206.8,177.7 204.4,178.4 202.7,179.7C200.9,181.1 200.1,182.9 200.1,185.3C200.1,187.1 200.7,188.8 202,190.3C203.3,191.8 205.7,193.6 209.1,195.6L213.9,198.4C219.5,201.7 223.4,205 225.8,208.2C228.1,211.4 229.3,215.2 229.3,219.4C229.3,225.3 227.2,230.1 223.1,233.7C218.9,237.3 213.4,239.1 206.5,239.1C203.3,239.1 200.2,238.8 197.2,238.1C194.2,237.4 191.3,236.5 188.6,235.2L187.5,222.4Z" style="fill:white;fill-rule:nonzero;"/>
            </g>
            <g id="XMLID_113_">
                <path d="M268.2,180.8L268.2,237L256.5,237L256.5,180.8L234.1,180.8L234.1,170.7L290.5,170.7L290.5,180.8L268.2,180.8Z" style="fill:white;fill-rule:nonzero;"/>
            </g>
            <g id="XMLID_111_">
                <path d="M344.6,232.8C341.6,234.9 338.5,236.5 335.1,237.6C331.7,238.7 328.2,239.2 324.7,239.2C320.9,239.2 317.3,238.6 313.7,237.3C310.2,236.1 306.9,234.3 304,231.9C299.9,228.6 296.7,224.5 294.5,219.7C292.3,214.9 291.2,209.6 291.2,203.8C291.2,193.6 294.4,185.2 300.8,178.5C307.2,171.8 315.2,168.4 324.9,168.4C328.4,168.4 331.8,168.9 335,170C338.2,171 341.4,172.6 344.4,174.7L343.2,187.7C340.5,184.9 337.8,182.7 334.9,181.3C332,179.9 328.9,179.2 325.7,179.2C319.1,179.2 313.7,181.5 309.5,186.1C305.3,190.7 303.2,196.6 303.2,203.8C303.2,210.8 305.2,216.5 309.4,221.1C313.5,225.6 318.7,227.9 325.1,227.9C328.7,227.9 332.1,227.1 335.4,225.5C338.7,223.9 342,221.4 345.3,218L344.6,232.8Z" style="fill:white;fill-rule:nonzero;"/>
            </g>
            <g id="XMLID_108_">
                <path d="M352.1,203.9C352.1,199.8 352.7,195.9 353.8,192.2C354.9,188.5 356.6,185.2 358.9,182C362,177.7 365.9,174.4 370.5,172C375.1,169.6 380,168.5 385.1,168.5C389.5,168.5 393.7,169.4 397.8,171.1C401.9,172.9 405.4,175.4 408.5,178.6C411.6,182 414,185.8 415.7,190C417.3,194.3 418.2,198.9 418.2,203.8C418.2,208.7 417.4,213.3 415.7,217.6C414.1,221.9 411.7,225.6 408.5,228.9C405.4,232.2 401.8,234.7 397.7,236.4C393.7,238.2 389.5,239.1 385.1,239.1C380.7,239.1 376.5,238.2 372.5,236.5C368.5,234.8 364.9,232.3 361.8,229C358.6,225.6 356.2,221.8 354.5,217.6C352.9,213.4 352.1,208.9 352.1,203.9ZM364.1,203.9C364.1,210.8 366.1,216.5 370.2,221.1C374.2,225.7 379.2,228 385.1,228C391,228 396.1,225.7 400.1,221.1C404.2,216.5 406.2,210.8 406.2,203.9C406.2,197 404.2,191.3 400.2,186.7C396.2,182.1 391.2,179.8 385.1,179.8C379.1,179.8 374.1,182.1 370.1,186.7C366.1,191.3 364.1,197 364.1,203.9Z" style="fill:white;fill-rule:nonzero;"/>
            </g>
            <g id="XMLID_105_">
                <path d="M430,237.1L430,170.7L446,170.7C458.4,170.7 468.1,173.7 475.2,179.6C482.3,185.5 485.8,193.6 485.8,203.9C485.8,210.1 484.4,215.5 481.6,220.3C478.8,225.1 474.7,229 469.4,232.1C466.4,233.9 463.1,235.1 459.5,235.9C455.9,236.7 451.4,237.1 446.1,237.1L430,237.1ZM441.5,226.5L447.5,226.5C455.8,226.5 462.2,224.5 466.9,220.5C471.5,216.5 473.9,211 473.9,203.9C473.9,196.8 471.6,191.3 466.9,187.3C462.2,183.3 455.8,181.3 447.5,181.3L441.5,181.3L441.5,226.5Z" style="fill:white;fill-rule:nonzero;"/>
            </g>
            <g id="XMLID_103_">
                <path d="M497.7,237.1L497.7,170.7L536.3,170.7L536.3,180.9L509,180.9L509,197.2L532.4,197.2L532.4,207.3L509,207.3L509,226.7L536.7,226.7L536.7,237L497.7,237L497.7,237.1Z" style="fill:white;fill-rule:nonzero;"/>
            </g>
        </g>
        <g id="XMLID_91_">
            <g id="XMLID_100_">
                <path d="M312.2,146.5L312.2,118.4L287.1,81.4L296.1,81.4L316.3,111.3L338.1,81.4L346.6,81.4L319.9,117.8L319.9,146.5L312.2,146.5Z" style="fill:white;fill-rule:nonzero;"/>
            </g>
            <g id="XMLID_97_">
                <path d="M345,113.9C345,109.1 345.8,104.5 347.4,100.4C349,96.2 351.3,92.5 354.4,89.1C357.4,86 360.8,83.5 364.7,81.8C368.6,80.1 372.7,79.2 376.9,79.2C381.1,79.2 385.2,80.1 389.1,81.8C393,83.5 396.4,86 399.4,89.2C402.5,92.5 404.8,96.2 406.4,100.4C408,104.6 408.8,109.1 408.8,113.9C408.8,118 408.3,121.8 407.2,125.4C406.1,129 404.5,132.3 402.3,135.2C399.3,139.4 395.5,142.7 391.1,145C386.6,147.4 381.9,148.5 377,148.5C372.8,148.5 368.7,147.6 364.8,145.9C360.9,144.2 357.4,141.7 354.5,138.6C351.4,135.3 349,131.5 347.5,127.4C345.8,123.2 345,118.7 345,113.9ZM352.8,113.9C352.8,121.7 355.1,128.2 359.8,133.5C364.4,138.7 370.2,141.4 376.9,141.4C383.7,141.4 389.4,138.8 394,133.6C398.6,128.4 400.9,121.8 400.9,114C400.9,106.1 398.6,99.6 394,94.4C389.4,89.2 383.7,86.6 376.9,86.6C370.1,86.6 364.4,89.2 359.7,94.5C355.1,99.5 352.8,106 352.8,113.9Z" style="fill:white;fill-rule:nonzero;"/>
            </g>
            <g id="XMLID_95_">
                <path d="M428.3,81.3L428.3,119.4C428.3,126.6 429.8,132.1 432.9,135.8C436,139.5 440.5,141.3 446.6,141.3C452.5,141.3 457.1,139.4 460.1,135.7C463.2,132 464.7,126.4 464.7,119.1L464.7,81.3L471.7,81.3L471.7,120.3C471.7,129.1 469.5,136 465,141C460.5,146 454.4,148.5 446.6,148.5C438.3,148.5 431.9,146.1 427.4,141.2C422.9,136.4 420.6,129.5 420.6,120.6L420.6,81.3L428.3,81.3Z" style="fill:white;fill-rule:nonzero;"/>
            </g>
            <g id="XMLID_92_">
                <path d="M488.4,146.4L488.4,81.3L502.2,81.3C511.3,81.3 518.2,82.9 522.9,86.1C527.6,89.3 530,94 530,100.2C530,104.9 528.5,108.9 525.4,112.3C522.3,115.7 518.2,117.8 513,118.6L536.6,146.3L526.9,146.3L504.2,119.6L496,119.6L496,146.3L488.4,146.3L488.4,146.4ZM496,113.7L502.6,113.7C509,113.7 513.9,112.6 517.2,110.3C520.6,108 522.2,104.8 522.2,100.5C522.2,96.1 520.5,92.8 517.2,90.8C513.9,88.7 508.5,87.7 501.2,87.7L496,87.7L496,113.7Z" style="fill:white;fill-rule:nonzero;"/>
            </g>
        </g>
        <g id="XMLID_81_">
            <g id="XMLID_89_">
                <path d="M63.6,146.4L63.6,81.3L75,81.3L75,136.2L103,136.2L103,146.4L63.6,146.4Z" style="fill:white;fill-rule:nonzero;"/>
            </g>
            <g id="XMLID_86_">
                <path d="M103.7,113.9C103.7,109.9 104.3,106.1 105.4,102.5C106.5,98.9 108.2,95.6 110.4,92.5C113.5,88.3 117.2,85.1 121.7,82.7C126.2,80.4 131,79.2 136,79.2C140.3,79.2 144.5,80.1 148.4,81.8C152.4,83.5 155.9,86 158.9,89.1C162,92.4 164.3,96.1 165.9,100.3C167.5,104.5 168.3,109 168.3,113.8C168.3,118.6 167.5,123.1 165.9,127.3C164.3,131.5 161.9,135.2 158.9,138.4C155.8,141.6 152.3,144.1 148.4,145.8C144.5,147.5 140.3,148.4 136.1,148.4C131.8,148.4 127.7,147.5 123.8,145.8C119.9,144.1 116.4,141.6 113.3,138.4C110.2,135.1 107.8,131.4 106.2,127.2C104.5,123.2 103.7,118.7 103.7,113.9ZM115.5,113.9C115.5,120.6 117.5,126.2 121.4,130.8C125.4,135.3 130.2,137.6 136.1,137.6C141.9,137.6 146.8,135.3 150.8,130.8C154.8,126.3 156.8,120.7 156.8,113.9C156.8,107.1 154.8,101.5 150.9,97C146.9,92.5 142,90.3 136.1,90.3C130.2,90.3 125.3,92.5 121.4,97C117.5,101.5 115.5,107.1 115.5,113.9Z" style="fill:white;fill-rule:nonzero;"/>
            </g>
            <g id="XMLID_84_">
                <path d="M199.5,149.1L198.6,149.1L169.1,81.4L181.3,81.4L199.5,124.1L217.7,81.4L229.2,81.4L199.5,149.1Z" style="fill:white;fill-rule:nonzero;"/>
            </g>
            <g id="XMLID_82_">
                <path d="M235.9,146.4L235.9,81.3L273.8,81.3L273.8,91.3L247.1,91.3L247.1,107.3L270.1,107.3L270.1,117.2L247.1,117.2L247.1,136.2L274.3,136.2L274.3,146.3L235.9,146.3L235.9,146.4Z" style="fill:white;fill-rule:nonzero;"/>
            </g>
        </g>
        <g id="XMLID_73_">
            <g id="XMLID_77_">
                <path d="M549.7,81.3C541.5,81.5 534.8,75.3 534.2,67.4C533.5,58.5 540.3,51.8 548,51.2C556.8,50.5 564,57.3 564.3,65.6C564.6,74.1 558.2,81 549.7,81.3ZM561.4,66.3C561.4,59.6 556,54.1 549.3,54.1C542.6,54.1 537.1,59.6 537.1,66.3C537.1,73 542.5,78.4 549.2,78.4C555.9,78.4 561.4,73 561.4,66.3Z" style="fill:white;"/>
            </g>
            <g id="XMLID_74_">
                <path d="M544.3,58.6C545.7,58.5 547,58.4 548.4,58.4C549.5,58.4 550.6,58.5 551.6,58.8C553.4,59.3 554.7,60.4 555.1,62.3C555.5,64.4 554.8,66.1 553,67.4C552.9,67.5 552.8,67.6 552.7,67.6L552.7,67.7C553.8,69.6 555,71.4 556.2,73.4L552.8,73.4C552.3,73.4 552.1,73.2 552,72.9C551.3,71.6 550.6,70.3 549.9,68.9C549.8,68.6 549.6,68.5 549.2,68.5C548.8,68.6 548.3,68.5 547.8,68.5L547.8,73.3L544.3,73.3L544.3,58.6ZM547.8,63.7L547.8,65.4C547.8,65.5 547.9,65.7 548,65.7C548.8,65.8 549.7,65.8 550.4,65.4C551.2,65 551.6,64.2 551.5,63.3C551.4,62.4 551,61.8 550,61.7C549.4,61.6 548.7,61.6 548,61.6C547.7,61.6 547.6,61.7 547.6,62C547.8,62.6 547.8,63.1 547.8,63.7Z" style="fill:white;"/>
            </g>
        </g>
    </g>
</svg>
