<?xml version="1.0" encoding="UTF-8"?>
<!DOCTYPE svg  PUBLIC '-//W3C//DTD SVG 1.1//EN'  'http://www.w3.org/Graphics/SVG/1.1/DTD/svg11.dtd'>
<svg clip-rule="evenodd" fill-rule="evenodd" stroke-linejoin="round" stroke-miterlimit="2" version="1.1" viewBox="0 0 1509 738" xml:space="preserve" xmlns="http://www.w3.org/2000/svg">
    <g transform="translate(-124.14)">
        <rect x="124.14" width="1508.7" height="737.08" fill="none"/>
        <clipPath id="b">
            <rect x="124.14" width="1508.7" height="737.08"/>
        </clipPath>
        <g clip-path="url(#b)">
            <g transform="matrix(.90118 0 0 .90118 87.398 -59.13)">
                <clipPath id="a">
                    <rect x="40.918" y="65.614" width="1674.1" height="817.91"/>
                </clipPath>
                <g clip-path="url(#a)">
                    
                        <g transform="matrix(1.3875 0 0 1.3875 -263.51 -391.91)">
                            <path d="m822.94 358.88c293.91 0 533.22 235.63 539.16 528.13 0.07 3.704-1073.1 2.219-1078.4 2.219 4.771-293.52 244.55-530.35 539.2-530.35z" fill="#004a71"/>
                        </g>
                        <g transform="matrix(1.2059 0 0 1.2059 -163.57 -208.74)">
                            <path d="m822.94 358.88c288.28 0 524.03 226.69 538.56 511.38-14.05 0-1068.9-0.797-1077.1-0.797 14.931-284.32 250.51-510.59 538.52-510.59z" fill="#4997ae" fill-opacity=".3"/>
                        </g>
                        <g transform="translate(-29.404 -2.8422e-14)">
                            <path d="m822.94 358.88c278.24 0 507.55 211.18 536.25 481.86h-1072.5c28.696-270.68 258-481.86 536.25-481.86z" fill="#4997ae" fill-opacity=".5"/>
                        </g>
                    
                    <g transform="matrix(.65012 0 0 .65012 186.8 241.25)" fill="#e6f1ec">
                        <path d="m1338 163c56.73 28.387 108.93 76.506 158 116.18 93.93 75.953 183.69 155.33 273 236.6 38.07 34.644 77.5 68.133 117 101.13 20.88 17.449 47.05 34.75 64 56.084-47.05-19.677-78.05-73.939-124-95 41.98 30.145 79.58 68.791 120 101.28 14.9 11.979 35.41 32.561 54 37.719-8.83-5.737-21.15-13.166-27-22 20.11 9.314 37.88 25.628 56 38.263 32.86 22.913 66.93 45.025 102 64.415 12.86 7.112 25.77 14.272 39 20.675 1.75 0.846 13.72 5.881 8.89 9.224-3.2 2.212-11.92-3.438-14.89-4.852-14.74-7.01-29.68-13.747-44-21.607-59.84-32.846-115.75-70.461-170-111.86-154.88-118.2-301.03-249.04-449-375.7-47.12-40.332-94.04-83.549-146-117.26-15.63-10.139-36.51-28.995-55-32.296 11.73 5.743 26.09 14.419 35 24-26.5-8.352-53.14-33.398-78-46.75-54.42-29.225-109.85-55.419-168-76.417-19.67-7.104-40.64-13.026-61-17.833-4.17-0.986-19.08-2.257-18-7-37.477-3.508-74.182-11.69-112-12.96-68.847-2.311-138.34 11.914-204 31.571-41.51 12.428-81.939 28.816-121 47.508-12.492 5.978-37.431 25.272-51 23.881 12.372-7.202 27.013-12.78 38-22-90.143 33.544-164.83 105.37-242.56 159.36-19.112 13.274-36.014 30.951-53.438 46.328-5.701 5.031-14.371 16.268-22 17.313 8.605-8.3 18.321-15.808 26-25l-12 10c6.256-11.048 19.618-19.683 29-28.096 19.836-17.787 39.147-35.623 60-52.305 79.653-63.722 164.86-123.32 259-163.6 27.591-11.804 55.52-21.311 84-30.665 9.518-3.127 26.123-10.835 36-8.335-3.806 1.23-7.025 2.273-10 5 5.273-1.672 11.481-4.398 17-3-64.851 16.474-134.2 38.859-190 77 50.362-19.791 97.063-46.567 149-63.322 84.502-27.259 174.89-33.733 263-27.542 42.468 2.985 84.13 12.881 125 24.163 17.58 4.853 37.89 17.02 56 17.701-45.75-13.433-87.26-33.055-135-41.491-25.498-4.506-51.257-7.005-77-9.292-11.226-0.997-25.359 1.388-36-2.217 181.76 0 343.65 66.875 491 170.56 39.97 28.128 82.73 56.433 118 90.439l-1 1c-17.98-14.151-35.95-31.956-56-43 1.19 1.186 1.53 1.584 2 3-0.78-0.295-1.55-0.604-2.32-0.927l-0.09-0.081c-2.53-2.051-5.06-4.096-7.6-6.13-6.76-5.413-13.58-10.756-20.48-15.987-6.56-4.969-13.19-9.838-19.93-14.564-2.37-1.663-4.75-3.308-7.15-4.933l-0.12-0.088c-2.7-2.325-5.44-4.612-8.23-6.826-2.08-1.648-4.2-3.256-6.35-4.805-4.33-3.106-8.83-5.983-13.55-8.44-3.43-1.781-6.98-3.339-10.63-4.588-1.22-0.416-2.45-0.797-3.68-1.141-0.42-0.115-0.83-0.226-1.25-0.333-0.13-0.034-0.26-0.067-0.39-0.101-0.06-0.014-0.12-0.028-0.17-0.042-0.02-5e-3 -0.08-0.024-0.06-0.014 0.05 0.033 0.11 0.055 0.17 0.083 0.11 0.056 0.22 0.111 0.33 0.167 0.39 0.195 0.77 0.391 1.16 0.587 1.16 0.591 2.32 1.189 3.48 1.795 3.38 1.768 6.73 3.596 10.04 5.477 7.72 4.375 15.28 9.033 22.7 13.896 2.14 1.405 4.27 2.827 6.39 4.264l0.14 0.103c5.53 4.762 10.92 9.683 16.38 14.521 2.25 1.991 4.51 3.969 6.8 5.914 2.11 1.79 4.24 3.552 6.4 5.271 1.21 0.963 2.43 1.913 3.67 2.845 0.97 0.73 1.95 1.449 2.93 2.155 0.78 0.562 1.57 1.115 2.36 1.66 4.44 3.041 9.07 5.813 13.95 8.095 0.91 0.426 1.82 0.833 2.74 1.223l-99.64-68.056zm666 558c0.28 0.818 0.37 1.181 0.59 1.409 0.23 0.227 0.59 0.319 1.41 0.591-0.55-1.635-0.37-1.455-2-2zm-4-3 3 3c-0.9-1.923-1.08-1.999-3-3zm-1244-691c2.346 1.234 4.364 1.694 7 2-0.598-1.195-0.466-0.977-2-2l13-2-4 1c3.035 0.788 5.891 0.28 9 0-1.75-0.642-3.127-0.859-5-1 3.441-0.666 6.525-0.311 10 0l-3-1c61.247-9.824 120.58-5.168 182-4-13.333-5.15-29.941-3.822-44-5.439-52.337-6.018-112.28-1.953-163 12.439zm218.67-5.667c-0.222 0.223-0.07 0.32 0.145 0.355 0.216 0.034 0.493 6e-3 0.521-0.021 0.445-0.445-0.611-0.389-0.666-0.334zm-10.667-1.333c1.032 0.362 1.983 0.59 2.95 0.738 0.968 0.148 1.952 0.217 3.05 0.262-2.064-0.725-3.805-0.909-6-1z" fill-rule="nonzero"/>
                        <path d="m1354.8 213.94c22.08 15.402 43.51 31.47 64.22 46.938 103.52 77.323 196.5 163.14 291 250.99 37.7 35.054 77.93 67.472 117 101 18.64 15.996 42.27 32.447 57 52.14-14.84-4.99-29.14-22.071-40.98-32.122-24.81-21.059-51.42-42.964-78.02-61.878 17.05 19.477 39.63 35.178 59 52.32 35.13 31.091 70.48 65.203 110 90.68-7.97-8.684-18.76-14.657-26-24 20.08 9.9 37.31 27.318 55 40.859 32.18 24.637 65.68 48.189 101 68.135 13.24 7.477 27.03 14.571 41 20.557 1.36 0.583 14.71 5.761 9.15 8.551-8.76 4.396-37.81-14.366-46.15-18.233-48.93-22.676-93.85-55.589-136-88.88-171.15-135.17-328.4-286.27-499.98-420.65-50.3-39.394-100.55-80.599-156.02-112.19-15.14-8.624-43.44-29.797-61-29.145 12.29 3.894 29.83 12.924 39 22-51.12-20.089-98.77-47.738-151-66.29-129.84-46.123-269.39-61.221-403-22.562-68.003 19.675-131.23 49.508-193 83.626-18.88 10.429-37.051 22.286-55 34.225-6.504 4.327-16.074 13.653-24 14.001 11.214-8.453 25.598-15.58 35-26-115.94 61.901-205.62 171.87-296 264l-1-1c7.001-8.603 18.224-17.505 22-28-3.252 4.733-6.983 8.904-11 13l-1-1c93.176-107.48 195.19-209.4 318-283 29.012-17.387 59.006-33.007 90-46.562 8.996-3.934 24.079-14.032 34-12.438-3.335 1.618-5.891 2.909-8 6 8.928-4.878 27.814-15.637 38-14-72.244 25.113-146.85 62.026-206 111 47.63-27.379 91.982-58.702 142-82.199 82.194-38.613 174.51-60.143 265-64.723 42.6-2.156 84.792 0.525 127 6.376 18.827 2.61 42.28 12.772 61 10.546-48.429-7.415-93.095-22.438-143-22.992-24.615-0.274-49.461-0.587-74 1.128-10.53 0.736-25.967 6.007-36 2.864 172.28-37.049 358.45 23.496 506 109.98 30.47 17.862 59.71 37.311 89 57.027 13.48 9.075 33.36 19.846 43 32.995-21.53-10.612-38.69-29.698-60-41-0.23 1.315-3.28 0.109-7.22-2.065-26.12-18.216-53.14-35.495-80.93-49.73-7.89-5.066-17.36-11.525-25.85-12.205 8.68 3.738 17.3 7.826 25.85 12.205 1.44 0.927 2.83 1.807 4.15 2.596 19.43 11.62 38.91 22.959 58 35.157 2.23 1.423 11.88 8.178 18.78 11.977z"/>
                        <path d="m682.67 84.333c-0.445 0.445 0.611 0.389 0.666 0.334 0.445-0.445-0.611-0.389-0.666-0.334m-7 2c-0.445 0.445 0.611 0.389 0.666 0.334 0.445-0.445-0.611-0.389-0.666-0.334m-9 3c-0.445 0.445 0.611 0.389 0.666 0.334 0.445-0.445-0.611-0.389-0.666-0.334m-376.67 280.67c-11.242 8.293-23.314 19.067-32 30 8.007-16.21 28.21-30.286 41-43.003 39.537-39.31 88.768-83.915 139-109-28.247 21.441-55.278 43.317-82.154 66.242-12.701 10.835-29.685 21.597-38.846 35.758 24.802-11.621 47.308-37.123 69-53.967 40.425-31.39 83.258-60.257 128-85.145 114-63.416 252.53-105.46 384-98.81 55.781 2.823 107.35 17.61 162 25.922-10.66 1.184-22.64-4.262-33-6.56-28.12-6.234-64.124-17.823-93-14.44 2.959 1.375 5.753 1.792 9 2-22.763 4.953-53.34-3-77-3 19.644 6.898 46.216 2.912 67 5.199 42.378 4.662 83.91 12.819 125 24.24 150.09 41.716 295.04 125.37 416 222.56l1-1c-39.88-36.01-85.64-66.655-130-96.774-23.44-15.918-47.2-36.455-73-48.226 14.32 2.633 29.76 15.652 42 23.314 30.5 19.094 60.47 39.09 90 59.648 93.05 64.789 175.19 142.69 260 217.48 31.62 27.89 61.56 59.056 96 83.559-18.1-7.827-36.25-26.585-51-39.56-26.59-23.393-55.74-45.892-80.24-71.443-12.66-13.199-27-24.528-40.72-36.581-6.58-5.782-9.84-13.347-19.04-15.416 1.29-8.615-26.52-26.153-33-31.822-24.93-21.824-50.83-42.57-77-62.876-11.6-9.004-23.44-21.471-37-27.302 20.16 21.239 46.57 38.418 69 57.298 41.55 34.976 82.08 71.199 124 105.7-5.21-1.609-9.01-5.382-13-9l-1 1c65.64 65.546 138.14 122.72 208.98 182.25 76.05 63.912 148.83 127.07 234.02 178.75l1-1c-5.95-4.205-12.36-7.99-19-11 13.08 2.337 24.83 13.683 37 19-5.75-7.39-18.03-11.928-26-16.789-18.59-11.337-38.11-22.893-54.92-36.797-55.94-46.263-111.68-92.943-166.08-141.09-21.55-19.069-46.57-36.09-66-57.32 13.53 7.017 25.22 19.415 37 29l1-1c-35.51-37.359-78.78-69.494-117-104.22-89.71-81.506-181.23-159.49-277.95-232.6-77.06-58.246-160.21-110.55-252.05-143.07-27.03-9.573-55.53-21.747-84-26.107 9.57 6.3 24.87 9.256 36 12-10.82 1.198-23.52-4.89-34-7.508-25.5-6.374-58.05-17.041-84-15.492l4-1c-15.588-6.54-37.267-7.481-54-9.318-45.421-4.986-91.669-4.717-137 0.88-191.88 23.691-364.54 135.26-500.76 267.08-47.069 45.548-91.873 93.018-133.82 143.36-9.899 11.881-19.826 23.778-29.302 36-1.772 2.285-9.559 9.644-7.578 12.888 2.7 4.424 9.765-5.278 11.085-6.889 9.81-11.967 20.365-23.355 30.557-34.999 27.624-31.561 56.772-62.232 86.201-92.114 14.651-14.875 35.758-30.36 45.621-48.886m373.67-279.67c-0.445 0.445 0.611 0.389 0.666 0.334 0.445-0.445-0.611-0.389-0.666-0.334m-3 1c-0.445 0.445 0.611 0.389 0.666 0.334 0.445-0.445-0.611-0.389-0.666-0.334m-41.667 9.667c2.34 0.264 3.773-0.172 6-1-2.262-0.177-3.826 0.281-6 1z" fill-rule="nonzero"/>
                        <path d="m563.54 203.15c0.133 0.186 0.253 0.431 0.462 0.848-67.968 27.34-133.65 71.926-188 121 40.208-26.129 76.781-57.535 118-82.519 68.397-41.457 144.93-71.474 223-88.568 38.732-8.48 78.383-12.913 118-12.913 20.13 0 46.707 6.704 66 2-45.718-6.061-91-9.383-137-2.86-19.75 2.801-39.45 5.545-59 9.558-8.379 1.72-19.523 7.01-28 5.302 51.978-12.817 103.24-24.151 157-25.96 105.47-3.549 211.12 24.291 307 66.52 39.99 17.615 95.95 36.126 128 66.44-20.06-7.092-38.83-27.079-60-30l3 2c-1.91-0.395-3.82-0.861-5.72-1.392-17.93-9.596-36.2-18.775-54.7-26.999-19.59-11.335-39.43-21.758-60.58-22.609 20.37 5.974 40.61 13.736 60.58 22.609 18.17 10.515 36.12 21.815 54.7 26.999 21.47 11.496 42.44 23.595 62.72 35.365 102.55 59.522 195.33 126.7 288 200.55 37.37 29.779 74.19 60.512 110 92.165 15.41 13.617 37.17 27.665 48 45.313-42.01-20.876-71.41-72.552-115-90 57.59 37.919 107.62 94.075 161 138-7.14-9.561-19.15-15.663-25-26 47.67 29.096 89.32 77.13 129 116.02 10.09 9.887 19.86 20.103 30 29.941 1.46 1.421 11.34 9.17 6.33 11.418-3.55 1.59-8.23-4.334-10.33-6.379-9.02-8.784-18.54-17.12-28-25.43-39.24-34.478-77.01-70.715-117.02-104.33-131.1-110.15-262.09-221.7-407.98-312.15-40.85-25.33-81.35-52.586-124-74.817-10.17-5.303-44.33-18.979-48-29.277-30.19 0.177-61.08-36.662-93-34 9.84 2.861 21.78 6.802 30 13-46.11-11.875-90.04-30.241-137-40.313-114.19-24.487-234.3-23.947-344 19.529-65.192 25.837-125.92 60.706-184 99.789-17.764 11.954-34.901 24.745-52 37.622-6.214 4.68-15.081 14.669-23 15.373 9.474-8.131 21.136-15.251 29-25-100.65 63.932-180.38 163.78-263 248l-1-1c7.092-8.716 17.805-17.521 22-28l-4 5-1-1c85.656-94.465 172.08-188.61 277-262.44 24.656-17.35 50.077-32.995 76-48.356 8.416-4.987 23.12-16.395 33-16.206-4.562 2.768-9.303 5.105-13 9 15.586-6.728 30.626-13.812 45.538-20.848-0.247-0.346-0.54-0.486-1.538-1.152l4-1-0.648 1.296-0.575 0.272-1.239 0.584zm-222.54 150.85c0.818-0.273 1.181-0.364 1.409-0.591 0.227-0.228 0.318-0.591 0.591-1.409-1.635 0.545-1.455 0.365-2 2zm11-10 1 1c7.373-6.657 15.259-12.777 23-19-8.201 1.021-18.371 12.225-24 18zm123-85c-8.652 6.519-18.007 11.982-27 18 8.757 0.626 21.642-11.526 28-17l-1-1zm101.66-62.025c29.68-13.913 59.348-27.165 92.345-36.548 15.141-4.305 43.639-15.441 59-10.427-35.992 3.495-73.325 16.812-107 29.443-12.286 4.608-30.478 16.423-44.345 17.532-1.624 0.762-3.248 1.525-4.875 2.291-1.576 2.015-3.971 2.828-6.78 3.734l0.352-0.704c2.144-1.011 4.286-2.022 6.428-3.03 0.49-0.626 0.9-1.369 1.22-2.266 1.178 0.089 2.399 0.076 3.655-0.025z" fill-rule="nonzero"/>
                        <path d="m128.24 597.96c-7.028 7.158-14.34 14.112-20.938 21.362-1.966 2.161-10.41 12.654-13.762 6.738-3.4-6 16.332-22.863 20.022-27.057 23.54-26.762 47.508-53.512 72.418-79 79.725-81.575 163.89-157.27 259.02-220.67 23.908-15.933 49.323-29.744 75-42.583 8.308-4.153 20.498-13.383 30-12.75-22.174 12.489-47.847 21.191-68 37 42.995-20.937 87.332-40.68 130-62l-3-1c63.89-21.138 122.45-36.353 190-41.136 16.96-1.201 53.095-7.445 68 1.136-32.197 0-68.609-4.541-100 4 25.005-3e-3 49.921-3.491 75-2.981 15.331 0.311 34.094 4.746 49 0.981h-7v-2c32.626 0.301 66.456 7.176 98 14.852 11.906 2.897 26.22 4.065 37 10.148-5.74-0.588-11.23-2.869-17-2 53.26 5.477 109.95 35.327 158.9 55.587 175.6 72.68 326.93 192.96 472.1 313.95 44.37 36.985 85.71 76.847 129 115.02 10.27 9.059 43.14 30.969 45 44.436-49.01-48.556-103.83-92.302-156-137.44-12.63-10.926-25.46-21.6-38-32.62-3.59-3.157-11.82-7.652-11-12.942-17.83-10-30.92-30.429-50-38 11.79 7.662 19.5 18.351 30.01 27 16.6 13.663 37.78 26.953 50.99 44-27.87-13.168-50.48-41.568-76-59 1.19 1.186 1.53 1.584 2 3-23.85-10.258-46.13-34.093-67-49.62-45.08-33.547-90.72-66.259-138-96.671-168.34-108.29-364.21-195.11-568-180.84-52.06 3.643-113.66 9.584-162 30.136l3 1c-101.1 33.197-199.47 92.889-280 162l12.326-7.614c-2.414 5.583-10.727 11.451-13.337 14.062-14.436 14.436-40.47 20.594-54.949 35.074-11.757 11.757-26.472 21.21-37.413 32.151-5.844 5.844-9.92 12.259-15.783 18.122-1.495 1.495-1.756 4.678-3.508 6.43-14.255 14.255-29.301 34.562-44.427 49.689-2.254 2.253-3.154 5.492-5.846 8.184-6.819 6.819-13.403 12.818-19.291 18.706-5.452 5.452-12.791 8.114-18.122 13.445l-2.79 2.902 1.14-2.151c-1.403 1.879-2.871 3.722-4.393 5.534-4.133 4.393-8.2 8.932-12.365 13.423z"/>
                        <path d="m357.87 380.88-10.866 9.118c38.624-22.976 73.753-51.537 113-74l1 1c-3.792 2.539-7.685 4.852-11 8 9.091-3.224 18.363-13.718 28-14-54.423 35.219-108.55 67.255-157 111 36.89-23.775 70.246-53.644 107-77.983 54.89-36.349 116.9-65.894 179-87.66 41.179-14.434 83.762-26.683 127-32.908 24.064-3.464 50.562-1.425 74-7.449-47.053 0-92.019 4.092-138 15.136-20.957 5.034-54.117 23.117-75 20.864 143.08-56.283 296.47-62.927 444-19.438 37.34 11.008 92.35 21.536 123 46.438-19.7-5.778-42.33-23.112-63-23 2.65 0.701 4.73 1.481 7 3-1.32-0.106-2.65-0.261-3.99-0.475-15.66-6.351-31.68-12.304-47.7-17.152-18.16-7.838-36.4-14.614-53.31-11.373 17.44 1.787 35.37 5.889 53.31 11.373 16.3 7.031 32.55 14.919 47.7 17.152 20.16 8.168 39.74 16.999 57.99 25.035 110.84 48.818 211.92 109.76 308 183.78 31.25 24.071 62.68 47.819 93 73.081 12.56 10.465 30.38 21.539 39 35.584-39.39-16.987-66.86-62.074-107-78 35.1 25.89 68.58 55.12 102 83.158 15.55 13.049 33.59 32.401 52 40.842-9.25-6.908-19.93-15.867-27-25 45.34 21.356 86.43 72.475 122 107.01 9.99 9.695 20.11 19.219 29.99 29.029 1.07 1.063 9.63 9.769 4.38 10.639-4.02 0.665-9.76-6.328-12.37-8.717-10.6-9.703-21.3-19.274-32-28.866-43.48-38.968-87.04-78.607-133-114.66-92.81-72.803-186.38-145.47-288-205.82-51.26-30.442-106.25-55.74-160-81.407-44.29-21.151-90.07-41.893-138-52.428-13.954-3.067-33.902-11.22-48-7.783 12.038 1.169 31.131 3.778 41 11-90.119-24.866-188.89-27.447-281-14.72-33.727 4.66-67.923 7.692-100 20.72l3 1c-30.225-1.915-69.758 22.629-96 35.75-81.739 40.87-152.29 94.059-226 147.25l-1-1c9.05-7.412 19.712-14.832 27-24-26.273 15.494-49.577 39.404-72.019 59.905-41.281 37.71-81.371 77.069-120.3 117.21-17.171 17.704-32.08 40.96-51.677 55.882 4.968-9.358 15.803-15.784 19-26-2.109 3.234-4.422 6.126-7 9l-1-1 3.089-3.766c1.755-1.879 3.439-3.867 5.082-5.907 11.951-13.336 26.343-26.495 35.127-41.388 1.422-0.645 3.063-1.231 3.763-2.631 2.612-5.224 10.193-7.293 13.094-13.095 0.966-1.931 3.917-4.384 5.612-6.079 1.162-1.162 1.255-3.125 2.339-4.209 3.307-3.307 6.398-6.866 9.82-10.289 8.471-8.47 14.85-19.059 23.383-27.591 12.844-12.844 27.349-23.608 39.751-36.01 3.008-3.008 4.871-7.209 7.483-9.821 6.43-6.431 13.864-14.8 20.109-21.044 1.572-1.572 2.251-4.59 3.741-6.08 7.974-7.974 16.593-15.658 24.318-23.383 6.246-6.245 11.002-11.937 17.304-18.238 1.681-1.682 4.204-2.335 6.079-4.209 4.151-4.151 12.114-5.099 16.368-9.353 0.723-0.723 2.253-0.383 2.806-0.936 4.282-4.282 11.239-9.184 19.598-10.089z"/>
                        <path d="m1370.4 452.96c19.54 13.439 38.66 27.425 57.56 39.93 57.21 37.845 123.64 76.029 170 127.11l-1 1c-2.34-1.834-4.2-3.038-7-4 54.56 32.4 111.1 75.277 156 120l-1 1c-72.86-57.093-150.99-108.1-226-162.33-157.3-113.72-328.58-230.15-519-279.03-71.303-18.304-150.06-35.67-224-30.502-32.694 2.286-64.919 8.561-97 14.984-14.124 2.827-32.592 10.628-47 5.88 6.56-2.664 13.579-3.984 20-7-50.99 8.772-103.15 35.827-149 58.75-22.032 11.016-48.113 18.664-69.04 30.399-69.529 38.991-133.41 92.616-192.96 145.16-39.756 35.085-77.518 72.205-115 109.69-9.788 9.788-29.634 38.969-44 40 192.28-212.13 450.27-428.37 753-425.99 65.843 0.517 131.76 11.151 195 29.28 49.19 14.102 96.39 32.875 143 53.832 25.59 11.505 56.32 25.37 76 45.881-24.39-7.718-47.63-24-71-34.663-25.22-11.51-50.8-22.221-76.78-31.852-25.79-10.182-51.97-19.025-78.31-25.911-18.63-6.417-40.748-14.094-56.91-11.574 19.002 2.697 38 6.632 56.91 11.574 5.79 1.997 11.25 3.872 16.09 5.279 21 6.114 41.74 13.037 62.22 20.632 58.43 23.067 114.87 53.006 166.78 82.66 35.16 20.088 80.16 40.825 107 71.855-1.52-0.607-3.04-1.291-4.56-2.042-8.39-5.776-16.86-11.452-25.42-16.865-15.55-11.756-31.37-24.2-48.02-26.093 16.38 7.163 32.35 16.191 48.02 26.093 8.52 6.445 16.97 12.683 25.42 16.865zm31.56 31.042c6.42 7.135 16.26 14.991 26.7 22.01s21.48 13.201 30.3 16.99c-14.57-14.811-38.42-29.704-57-39z"/>
                        <path d="m581.06 340.12c-2.616 0.32-5.001 0.301-7.065-0.123 47.386-16.472 92.62-36.324 142-47.084 89.419-19.486 182.13-12.901 270 10.576 30.27 8.086 59.91 18.076 89 29.708 9.61 3.844 26.38 7.638 33 15.8-16.33-6.805-39.18-21.097-57-21 2.03 0.818 2.73 1.252 4 3l-2.58-0.795c-7.57-3.015-15.22-5.927-22.92-8.636-23.5-9.675-50.445-21.363-70.5-17.569 23.134 2.605 47.02 9.225 70.5 17.569 8.2 3.385 15.99 6.522 22.92 8.636 18.2 7.238 35.92 15.069 52.58 22.357 95.59 41.805 182.07 92.408 270 148.37 35.12 22.353 69.84 45.525 104 69.333 16.36 11.402 36.46 22.009 50 36.737-40.05-9.68-70.16-56.147-110-66 39.17 19.919 75.39 52.135 112 76.665 13.27 8.891 29.72 22.791 45 27.335-9.15-5.532-19.61-12.251-27-20 16.36 2.726 35.57 20.928 49 31 30.12 22.591 65.58 41.742 94 67 5.48 4.87 14.61 9.612 20 15 2.17 2.173 0.42 7.138-3 6-14.78-4.925-32.41-21.56-45-31-32.37-24.281-68.05-46.365-102-69-68.05-45.37-137.78-91.04-208-132-59.26-34.568-115.35-73.895-178-100-42.65-17.772-83.36-40.232-126-58-6.82-2.841-37.63-17.498-37-18-25.98-3.444-60.912-23.562-87-17 9.968 0.968 23.313 2.874 32 8-56.336-7.694-110.67-16.884-168-14.96-124.01 4.163-252.63 48.873-355 118.96 6.395-2.753 13.858-8.476 21-8-3.762 1.994-7.07 3.884-10 7 2.735-1.104 5.046-2.163 8-2-45.438 21.309-91.527 43.945-132 74l2.46-1.222-0.646 0.572c-1.872 1.872-5.255 2.701-7.236 4.682-0.758 0.758-2.388 0.259-2.98 0.851-3.702 3.703-7.402 6.75-10.863 10.078-15.443 9.572-30.368 20.586-44.735 30.26-42.658 28.725-84.611 58.593-126 89.105-17.536 12.928-33.45 31.968-53 41.674l1-2c-4.598 2.999-8.746 6.539-13 10l-1-1c3.824-3.723 23.695-16.38 21-21 2.963-2.128 5.785-4.264 9-6l-1 2 5-4h-3c84.455-69.17 169.03-140.57 261-199.71 22.11-14.218 44.256-28.121 67-41.308 7.027-4.074 18.68-13.836 27-12.983-1.435 0.961-2.694 1.89-3.862 2.984-46.202 22.916-92.428 57.625-129.14 88.016 37.045-21.294 71.526-47.776 108-70.174 66.641-40.924 139.9-73.527 214-98.207 41.565-13.843 87.85-26.444 132-26.619v-2c-46.426 0.429-91.656 10.287-136 23.737-5.218 1.583-12.377 4.767-20.155 8.169-11.074 1.256-24.924 7.352-35.78 12.217z"/>
                        <path d="m329.69 496.43c-2.58 1.827-5.144 3.686-7.686 5.573 84.581-41.398 161.38-89.21 252-118.44 40.818-13.169 82.646-24.866 125-31.915 22.854-3.803 48.982-1.751 71-8.64-7.639 0-15.497 0.61-23-1-0.309 1.816-32.887 3.333-38 4-30.975 4.039-61.811 10.002-92 18.144-8.409 2.267-29.226 11.797-37 8.856 131.63-43.595 264.04-56.674 400-25.698 36.03 8.208 86.08 15.563 117 36.698-17.15-3.376-36.44-17.421-54-16-10.46-4.546-34.89-9.417-54.593-13.507l-1.799-0.417-7.815-1.609-3.793-0.8c-7.247-1.611-19.057-6.59-26-3.667 9.879 0.959 19.828 2.484 29.793 4.467l9.614 2.026c37.123 8.3 74.243 22.155 108.59 35.064 102.76 38.611 198.33 88.818 289 150.98 29.87 20.477 60.76 39.404 90 60.83 10.83 7.934 26.23 15.519 34 26.632-37.57-11.867-66.78-54.332-105-64 35.45 20.214 68.33 47.58 102 70.726 13.16 9.046 29.59 24 45 28.274-7.81-5.297-16.74-10.905-23-18 43.65 18.162 83.94 57.464 121 86.219 9.34 7.25 18.6 14.611 28 21.781 1.58 1.212 9.96 6.878 5.89 9.507-5.46 3.524-34.6-21.881-39.89-25.647-40.45-28.783-81.37-56.895-122-85.422-119.31-83.769-245.64-161.5-380-218.34-44.75-18.934-90.66-41.689-138-53.096 0.6-1.196 0.47-0.977 2-2-27.876-3.967-62.798-19.725-91-14 12.358 0.741 27.75 2.645 39 8-24.351-1.554-48.5-8.151-73-9.864-108.55-7.588-222.02-0.663-325 36.933-60.767 22.186-120.4 49.963-177 81.253-17.047 9.425-34.247 18.517-51 28.473-6.321 3.757-15.434 11.57-23 11.205 9.298-5.65 20.525-11.016 28-19-10.613 4.378-21.018 10.151-31.188 16.549 4.038-4.129 8.195-9.174 12.077-13.056 2.243-2.243 7.371-2.604 9.535-4.768 1.073-1.073 3.725-2.493 6.262-3.298z"/>
                        <path d="m781 392c0.98 1.783 0.907 1.594 3 2-142.69 3.9-285.38 52.519-413 114.9-47.158 23.052-90.206 55.198-138 76.097 1.186-1.186 1.584-1.528 3-2-2.567-0.149-3.9 0.517-6 2h3c-9.389 7.967-18.408 14.449-30 19l3-2c-6.893 0.18-12.682 7.541-16 13l6-2c-6.397 7.879-21.582 17.594-32 17 5.314 8.503-9.817 14.545-16 18.667-22.014 14.676-43.482 30.044-65 45.333 10.249-0.261 22.126-11.252 31-16l-5 5c4.394 0.219 7.952-1.415 12-3-0.986 1.479-1 1.203-1 3 20.235-10.314 38.682-27.462 60-35l-2 1c1.809 0.574 2.069 0.465 4 0-1.873-3.21 9.323-10.474 13-10-1.186 1.186-1.584 1.528-3 2l1 1c34.494-17.307 66.705-40.002 101-57.719 89.576-46.276 183.19-84.932 279-116.28l-3-1c18.77-7.615 41.252-9.379 61-13.445 22.136-4.559 44.231-11.982 67-13.555-3.669-1.15-7.225-0.35-11 0 4.589-1.631 9.134-2.689 14-3l-1 2 7 1c0-3.14 10.709-2.994 14-4 12.61-3.853 28.719-2.709 42-4 4.356-0.424 12.528 3.014 13-1 2.89 2.234 9.41 3.698 10-1l68 1-3 2c3.87 1.311 7.944 1 12 1-2.346-1.234-4.364-1.694-7-2 11.05-1.767 25.251 0.05 36 3-1.742 1.111-2.119 1.27-3 3h10c-2.064-0.725-3.805-0.909-6-1 14.186-3.569 25.599 5.398 38 7l-3-1c3.091-0.497 5.885-0.263 9 0l-3-1c22.383-4.322 51.834 11.187 74 15l-4 1c4.41 3.811 11.39 1.93 17 3.333 13.43 3.358 27.16 8.663 40 13.834 2.78 1.12 19.21 6.455 17 7.833 37.57 10.369 73.56 30.9 108 48.961 80.65 42.291 157.08 92.387 232 144.08 29.7 20.495 60.14 39.91 89.92 60.275 15.22 10.411 33.21 26.769 51.08 31.682-2.41-2.775-4.98-4.908-8-7 6.94 1.279 12.86 4.767 20 6-26.73-31.55-68.86-46.196-96-77l48 28 1-1c-17.86-19.267-41.74-33.04-63-48.438-39.14-28.345-78.64-56.459-119-83.035-117.67-77.48-239.46-149.7-379-179.04-60.278-12.675-120.73-14.482-182-14.482z" fill-rule="nonzero"/>
                        <path d="m276.5 615.13-0.341 0.445-3.671 2.268c-2.63 1.69-5.261 3.38-7.891 5.07l-7.321 4.905c-0.827 0.256-1.571 0.62-2.132 1.18-0.153 0.153-0.365 0.244-0.605 0.302l-1.562 0.227c-0.241 0.059-0.453 0.15-0.606 0.303-1.372 1.372-3.78 1.561-5.27 3.051-2.187 2.188-4.946 4.392-7.211 6.656-3.075 3.076-7.576 5.912-11.094 9.43-0.841 0.841-2.359 0.695-3.328 1.664-1.492 1.492-3.395 2.563-4.992 4.161-0.428 0.427-0.882 0.761-1.348 1.043-28.778 11.895-57.57 24.64-84.125 39.879-16.007 9.187-49.16 37.704-68 35.287 13.205-7.59 26.564-16.211 39-25-10.926 4.704-30.085 19.812-42 18 7.863-3.385 15.926-7.165 23-12-3.305 1.406-6.366 3.183-10 3 33.811-19.255 70.018-33.703 104-52.446 192.78-106.32 394.4-212.55 620-212.55 65.62 0 133.57 10.34 196 30.899 21.86 7.199 48.61 14.157 66 30.101-19.82-3.524-39.62-13.708-59-19.528-38.128-11.454-77.382-21.123-117-25.673l-0.029-3e-3 12.58 1.867c62.894 10.18 125.54 32.721 182.45 56.315 28.65 11.876 66.65 24.893 88.62 47.627 29.07 15.385 57.4 33.307 84.38 48.513 35.67 20.106 77.15 40.212 105 70.882l-7-2c30.45 15.206 60.32 36.95 88 56.713 12.77 9.119 29.67 19.708 38 33.287-56.7-26.182-109.66-71.255-163-104.18-124.23-76.674-256.77-147.6-401-177.13-74.513-15.254-156.58-19.366-232-13.163-41.623 3.423-81.543 18.259-123 22.465 4.496-5.403 13.736-6.184 20-9-52.375 8.88-104.74 35.268-154 54.392-9.788 3.8-20.701 2.561-30.118 5.774-38.291 13.067-82.378 34.355-119 56.963h-0.38zm989.5 19.871c9.55 9.459 24.96 20.461 41.16 30.222 16.2 9.76 33.17 18.281 45.84 22.778-20.78-19.738-60.02-43.289-87-53zm-119.19-75.255c-13.75-8.126-28.18-16.682-40.81-15.745 13.68 4.077 27.31 9.495 40.81 15.745 8.52 5.038 16.78 9.909 24.19 12.255-0.12-0.131-0.25-0.262-0.38-0.395-7.89-4.175-15.83-8.163-23.81-11.86z"/>
                        <path d="m264.82 624.68c35.687-15.296 71.394-29.807 108.18-42.465 11.889-4.091 32.527-15.559 45-13.214-2.635 1.099-4.789 2.198-7 4 42.749-7.373 83.481-28.79 127-36.247 0.512-0.088 1.039-0.186 1.579-0.293 8.583-0.861 18.607-3.449 27.838-6.013 4.264-0.461 8.255-0.414 11.583 0.553-44.968 6.378-88.441 21.437-132 33.608-51.469 14.381-105.73 30.569-153 56.392 74.594-21.691 145.32-53.705 221-73.364 36.115-9.381 73.063-18.517 110-24.034 21.206-3.168 44.303-2.282 65-7.602-34.837 0-68.684 1.911-103 9.222-5.234 1.115-12.151 3.162-19.583 5.225-9.334 1.01-19.977 4.455-27.838 6.013-4.765 0.478-9.085 0.425-12.579-0.46 116.45-28.1 229.53-47.804 349-24.698 29.932 5.789 69.581 9.598 96 25.698-16.024-2.454-33.725-13.802-50-12 2.266 0.416 3.975 0.915 6 2-4.247 0.236-8.576-0.1-12.964-0.811-6.227-1.596-12.526-3.197-18.863-4.707-18.245-5.594-36.851-12.796-54.173-8.482 17.862 0.636 36.171 4.193 54.173 8.482 6.355 1.949 12.666 3.703 18.863 4.707 5.382 1.379 10.711 2.755 15.964 4.065 98.72 24.62 184.29 70.415 271 122 40.47 24.078 94.81 50.115 127 84.741-33.22-8.025-58.98-43.833-92-52 31.48 16.011 61.46 40.739 91 60.335 11.32 7.512 27.55 21.47 41 23.665-7.64-4.052-17.97-9.875-23-17 37.89 15.222 71.81 46.768 105 70.035 3.76 2.633 34.02 22.122 29.81 25.943-4.05 3.672-28.54-15.486-32.81-18.313-33.46-22.174-67.12-44.215-101-65.734-82.56-52.433-166.67-109.71-256-150.05-45.56-20.574-92.896-38.328-140-55.055-18.719-6.648-41.576-9.613-59-18.827 1.797 0 1.522-0.014 3-1-21.752-2.058-54.008-14.441-75-7 9.207 0.175 20.472 1.411 29 5-115.43-6.922-233.6-10.274-346 22.74-54.25 15.935-107.54 34.598-161 52.93-15.94 5.466-45.5 23.989-62 21.33 9.069-3.568 18.506-7.217 27-12-17.154 0.775-36.212 12.799-52 19.205-40.213 16.315-82.355 32.904-120 54.508-16.007 9.187-49.16 37.704-68 35.287 13.205-7.59 26.564-16.211 39-25-10.926 4.704-30.085 19.812-42 18 7.863-3.385 15.926-7.165 23-12-3.305 1.406-6.366 3.183-10 3 33.811-19.255 70.018-33.703 104-52.446l34.094-18.723c0.558-6e-3 1.198 0.08 1.475-0.196 0.55-0.55 2.165-0.033 2.715-0.582 0.306-0.306 1.452-0.095 1.745-0.388 0.409-0.409 1.936-0.191 2.326-0.581 0.732-0.732 2.103-0.955 3.296-1.552 0.306-0.152 1.342-0.178 1.551-0.387 0.689-0.689 2.226-0.869 2.908-1.551 0.232-0.232 1.291-0.127 1.552-0.388 0.973-0.973 2.787-0.812 4.265-1.551 2.626-1.313 7.345-2.305 9.306-4.266 0.512-0.511 1.84-0.483 2.327-0.969 0.291-0.291 1.26 0.097 1.551-0.194 0.8-0.8 2.413-0.668 3.296-1.551 0.317-0.317 1.364-7e-3 1.745-0.388 1.17-1.17 4.065-0.963 5.235-2.132 0.697-0.697 2.141-0.59 2.714-1.164 0.428-0.428 1.039-0.884 1.72-1.312z"/>
                        <path d="m129.52 730.61 5.477-2.612c-17.445 4.295-34.576 9.976-52 14.33-3.099 0.775-15.526 5.496-16.133-0.59-0.446-4.473 7.042-6.198 10.133-7.18 11.821-3.756 24.142-8.389 35-14.56-3.356 0.968-6.492 2.356-10 2 74.968-29.413 150.19-60.031 227-84.357 18.616-5.896 37.388-11.132 56-16.999 7.225-2.278 18.529-7.727 26-5.644-3.005 1.026-5.497 2.041-8 4 34.133-7.392 71.038-23.555 107.65-30.824-0.219-0.055-0.435-0.114-0.649-0.176 98.802-24.317 198.37-34.75 299-14.693 26.138 5.209 70.629 8.062 92 24.693-14.736-2.949-29.848-10.985-45-11 1.9 0.87 2.737 1.375 4 3-21.003-4.149-51.797-18.169-73-13 38.245 1.374 78.561 15.609 115 26.256 78.965 23.072 154.83 52.385 228 90.383 23 11.945 46.83 22.442 70 34.113 9.3 4.686 23.64 9.805 30 18.248-27.03-8.522-56.91-32.534-85-35 37.16 16.606 79.35 51.429 120 57-6.43-3.412-13.33-6.397-19-11 34.72 7.006 69.46 32.833 100 50 3.4 1.91 32.82 17.167 27.89 20.577-5.01 3.464-27.69-11.758-32.89-14.322-33.56-16.538-67.54-32.297-101-49.005-98.56-49.21-201.36-92.033-306-126.26-34.679-11.342-69.327-26.362-105-33.995l-1-1c1.797 0 1.522-0.014 3-1-21.093-2.159-48.105-12.287-69-7 8.868 0.314 18.903 1.146 27 5-39.658-1.411-79.112-7.549-119-7.992-82.941-0.922-162.56 11.664-242 35.301-20.556 6.116-43.442 9.949-63 18.691 13.985-2.357 38.511-13.218 52-9-20.518 4.39-42.523 8.04-62.825 14.651l-0.175-0.651-16.099 5.71-2.901 0.29 1.433 0.23-206.91 73.382z"/>
                        <path d="m342.84 655.69-0.842 0.313c24.765-3.513 49.457-12.11 74-17.438 8.653-1.878 22.45-7.235 31-4.562-3.99 0.87-7.444 1.972-11 4 7.836-1.959 15.637-2.446 23-6-3.805 0.503-7.295 1.21-11 0 3.462-0.336 6.68-0.959 10-2l-3-1c52.01-10.702 104.66-18 158-18v2c-20.832 0-45.919-0.794-66 5 23.815-0.036 55.09 1.233 78-5 13.191 5.073 62.338-11.573 81 2-6.008 0-12.145-0.482-18 1 149.84 4e-3 303.49 54.201 434 124.66 40.27 21.742 90.81 43.704 125 74.335l-1 1c-34.03-24.228-73.66-41.941-110-62.424-2.57-1.45-11.18-5.206-18.97-9.272-3.91-2.903-8.42-5.876-13.2-8.749-0.78-0.957-1.11-1.823-0.83-2.555-11.83-3.742-23.5-14.478-36-15 10.05 3.181 24.34 10.033 36.83 17.555 2.09 2.545 7.42 5.732 13.2 8.749 2.63 1.945 4.98 3.862 6.97 5.696-66.11-20.499-128.42-54.695-195-75.946-111.05-35.447-232.97-50.31-349-42.19-37.761 2.642-87.274-2.232-123 10.136 2.717-0.14 5.317-0.436 8 0-45.897 10.723-99.983 11.911-143 32l4.038-0.48c-1.051 0.362-1.953 0.841-2.446 1.335-0.493 0.493-1.873 0.099-2.366 0.592-0.798 0.798-3.341 0.384-4.139 1.182-0.296 0.296-1.479-0.295-1.774 0-0.959 0.959-6.151 1.479-7.688 1.479-0.707 0-3.985-0.45-4.435 0-1.514 1.514-5.813 0.393-7.983 1.478-0.436 0.218-1.739-0.331-2.07 0-1.134 1.134-4.587 0.152-5.914 1.478-2.293 2.294-8.861 1.766-11.531 4.436-0.713 0.713-2.269 0.099-3.252 0.591-2.146 1.073-5.425 1.285-6.801 2.661-0.543 0.543-2.447 0.377-2.957 0.887-0.184 0.185-0.471 0.268-0.808 0.3l-2.227-9e-3c-0.337 0.032-0.624 0.116-0.808 0.3-1.633 1.633-6.341 0.953-8.575 2.07-1.008 0.504-2.538-0.419-3.252 0.296-0.395 0.394-1.972-0.394-2.366 0-0.788 0.788-3.055 0.098-3.844 0.887-0.239 0.239-1.989 0-2.365 0-1.313 0-4.658 0.223-5.322 0.887-0.111 0.111-0.305 0.138-0.541 0.125l-1.58-0.25c-0.235-0.014-0.429 0.014-0.54 0.125-1.221 1.22-4.567 0.131-5.914 1.478-1.287 1.288-4.195 0.647-5.618 2.07-2.251 2.251-8.214 2.777-11.531 4.435-1.961 0.98-5.466 0.144-7.096 1.774-2.183 2.183-7.082 1.76-9.166 3.844-0.321 0.321-1.634 0.078-2.07 0.296-1.284 0.642-2.812 1.038-3.548 1.774-0.821 0.821-3.195-0.058-4.14 0.887-2.146 2.146-7.467 1.258-9.757 3.548-0.58 0.58-2.177 0.108-2.661 0.591-2.017 2.017-6.795 1.177-8.87 3.253-0.598 0.598-3.001-0.252-3.548 0.295-1.183 1.183-3.844 0.887-5.027 2.07-0.279 0.28-1.527 0.048-1.774 0.296-1.133 1.133-3.893 0.64-5.026 1.774-1.969 1.969-5.784 2.004-8.279 3.252-0.814 0.407-1.59 0.407-2.07 0.887-0.345 0.345-1.725-0.345-2.07 0-1.404 1.405-4.206 0.658-5.618 2.07-1.177 1.177-2.999 1.907-4.906 2.532-12.928 3.598-25.765 7.585-38.765 10.834-3.099 0.775-15.526 5.496-16.133-0.59-0.446-4.473 7.042-6.198 10.133-7.18 11.608-3.688 23.697-8.222 34.404-14.237l0.442-0.124 0.371-0.066 0.116-0.07 2.209-0.617 0.09-8e-3 0.094-0.043 1.106-0.309c0.672 0.04 1.583 0.314 1.969 0.121 2.691-1.346 6.602-0.689 8.279-2.366 0.305-0.305 1.765 9e-3 2.07-0.295 0.957-0.957 3.065-0.7 4.139-1.774 0.28-0.28 1.527-0.049 1.774-0.296 0.98-0.98 3.358-0.987 4.625-1.773l1.701-0.475c0.217-9e-3 0.396-0.039 0.475-0.118l0.035-0.025 201.94-56.398z"/>
                        <path d="m268.13 690.23c2.657-2.657 64.04-16.871 66.095-17.686 59.717-7.494 118.32-20.181 178.77-24.407 153.45-10.726 312.34 12.637 456 67.426 44.73 17.06 87.36 37.522 130 59.183 15.01 7.624 41.19 17.253 51 31.255-20.76-10.366-49.74-36.525-73-38 21.35 9.191 43.87 21.803 63 35l-1 1c-31.34-19.006-66.54-34.739-100-49.774-13.32-5.985-31.32-16.673-46-17.226 17.06 5.929 39.22 13.081 53 25-39.11-12.331-81.629-42.693-123-45l-1-1 2-1-5 1c-0.143 0.572-38.656-15.672-46-12 1.853 0 1.35-0.3 2 1l-6-1c1.881-2.687-21.586-9.51-26-8 3.196 0.695 6.12 1.435 9 3-15.601-2.373-35.744-14.379-51-12 2.636 0.306 4.654 0.766 7 2-9.03 1.265-36.923-1.977-43-9-0.848 3.878-6.192 2.618-9 1l2-1c-2.717 0.14-5.317 0.436-8 0l2-1c-4.595-0.273-9.49-0.249-14-1l2-1c-30.877 1.844-63.079-4.702-94-6.864-39.519-2.763-80.462-2.059-120-0.058-130.47 6.603-257.79 36.428-381 78.808-26.365 9.068-52.286 19.473-78 30.256-6.71 2.813-22.498 13.148-29.686 10.779-5.252-1.732 0.709-6.525 2.686-7.921-5.509 1.606-18.001-2.764-10.439-9.801 7.411-6.896 23.057-10.831 32.439-14.6 21.502-8.637 70.809-28.047 72.526-28.266 0 0 16.723-2.768 17.82-3.865 1.033-1.033 19.2-12.698 19.2-12.698 0.137 8e-3 39.657-13.498 40.134-13.974 3.602-3.602 21.887-4.078 25.338-7.529 0.816-0.816 29.99 0.085 31.113-1.038z"/>
                        <path d="m399 693c13.678 4.465 37.564-1.5 52-2.783 24.159-2.145 47.119 1.747 71 1.783-15.488 3.919-34.036 1.27-50 2.078-29.063 1.471-58.128 5.765-87 9.247-56.812 6.852-110.91 25.693-167 33.675 36.378-15.373 78.078-24.08 117-30l-2 1c2.431 0.53 4.521 0.291 7 0l-3-1c2.735-0.334 5.251-0.206 8 0l-3-1c31.221-3.808 63.445-10 95-10-40.223-13.626-87.275 15.426-127 14 2.651-1.418 5.075-2.309 8-3-16.718-5.235-49.982 8.427-67 12.335-67.382 15.475-131.73 43.607-195 70.665 2.496 0.207 4.567-0.368 7-1-5.371 3.27-11.073 5.902-17 8 13.429 2.164 33.027-12.242 46-16.041 45.093-13.204 88.921-32.099 135-41.959-3.581 4.602-10.597 5.465-16 7 13.067 3.31 35.89-7.019 49-10.103 35.862-8.436 72.588-16.093 109-21.544 88.705-13.278 176.79-0.708 266-0.353-5.907-2.749-12.702-2.624-19-4 17.145-4.271 38.399 1.93 56 2-1.479 0.986-1.203 1-3 1 13.628 6.325 31.328 7.295 46 10.534 34.57 7.632 69.276 13.607 104 20.167 71.772 13.556 145.68 38.228 214 63.856 28.12 10.547 56.08 21.344 84 32.441 4.2 1.67 23.07 12.046 26.67 8.666 4.59-4.31-21.64-15.013-24.67-16.478-25.63-12.379-57.1-32.127-86-34.186 5.11 3.51 11.29 5.615 17 8-35.28-1.328-72.598-26.644-106-37 14.948-0.097 28.854 11.692 44 10l-1 2c11.138 8e-3 20.85 8.571 32 8-28.048-21.381-75.613-30.642-109-41.043-88.612-27.607-185.09-56.584-279-56.957 20.816-5.267 43.922 6.533 65 5-1.506-0.683-2.315-0.826-4-1 12.263-2.87 25.649 3.556 38 4-20.733-11.233-53.896-9.793-77-13.142-85.639-12.414-168.9-2.403-254 7.142z" fill-rule="nonzero"/>
                        <path d="m742.84 756.89c0.027 0.018 0.055 0.037 0.083 0.055 0.027 0.018 0.115 0.059 0.082 0.055-0.28-0.034-0.555-0.098-0.833-0.147-0.555-0.097-1.111-0.194-1.667-0.29-1.948-0.335-3.897-0.66-5.848-0.974-5.876-0.946-11.766-1.798-17.668-2.566-17.016-2.213-34.119-3.73-51.245-4.78-33.029-2.024-66.137-2.315-99.218-2.307-9.667 2e-3 -19.333 0.031-29 0.049-3.383 7e-3 -6.766 0.012-10.149 0.014-2.197 1e-3 -4.394-0.012-6.591 0.043-3.824 0.096-7.644 0.336-11.457 0.633-4.665 0.363-9.323 0.815-13.979 1.272-6.86 0.673-13.72 1.363-20.596 1.867-6.111 0.447-12.237 0.756-18.366 0.726-3.086-0.015-6.172-0.118-9.249-0.352-2.843-0.216-5.68-0.543-8.49-1.034-1.944-0.339-3.874-0.758-5.778-1.279-0.662-0.181-1.321-0.375-1.975-0.583-0.199-0.063-0.398-0.127-0.596-0.193-0.049-0.016-0.098-0.033-0.148-0.049-0.049-0.017-0.19-0.021-0.147-0.05 3e-3 -2e-3 0.552-0.071 0.555-0.071 0.463-0.058 0.927-0.111 1.391-0.16 1.775-0.187 3.556-0.314 5.338-0.407 6.057-0.317 12.131-0.243 18.179-0.727 2.384-0.19 4.763-0.468 7.116-0.896 0.781-0.142 1.559-0.3 2.332-0.477 0.228-0.052 0.455-0.106 0.681-0.161 0.091-0.022 0.182-0.044 0.272-0.067 0.046-0.011 0.177-0.012 0.136-0.034-1.319-0.694-2.711-1.251-4-2-0.159-0.092 0.367-3e-3 0.551-5e-3 0.185-1e-3 0.369-2e-3 0.554-3e-3 0.936-5e-3 1.872-5e-3 2.808-1e-3 2.723 0.01 5.445 0.051 8.168 0.105 8.281 0.162 16.561 0.431 24.844 0.464 4.716 0.018 9.433-0.037 14.145-0.238 4.255-0.181 8.507-0.48 12.738-0.975 2.969-0.347 5.928-0.791 8.861-1.373 1.003-0.2 2.002-0.415 2.997-0.649 0.268-0.063 0.536-0.127 0.803-0.193 0.089-0.021 0.177-0.043 0.266-0.065 0.088-0.022 0.356-0.06 0.265-0.067-0.366-0.029-0.735 0-1.102 1e-3 -0.734 0-1.469 2e-3 -2.203 4e-3 -2.203 6e-3 -4.405 0.019-6.607 0.039-6.232 0.055-12.462 0.162-18.692 0.317-20.094 0.503-40.174 1.518-60.221 2.967-42.953 3.105-85.741 8.204-128.34 14.454-13.757 2.018-27.496 4.156-41.221 6.386-4.702 0.764-9.403 1.538-14.102 2.323-2.454 0.41-4.909 0.814-7.361 1.239-10.757 1.864-21.349 4.572-31.869 7.465-15.51 4.266-30.913 8.992-46.64 12.419-7.598 1.655-15.273 3.003-23.014 3.778-2.01 0.201-4.025 0.363-6.042 0.481-0.646 0.038-1.291 0.071-1.938 0.1-0.143 6e-3 -0.286 0.012-0.43 0.018-0.072 3e-3 -0.147 0.033-0.215 9e-3 -0.027-0.01 0.039-0.043 0.059-0.064 0.04-0.043 0.08-0.085 0.12-0.127 0.12-0.126 0.244-0.249 0.369-0.37 0.358-0.343 0.737-0.664 1.131-0.965 1.201-0.915 2.539-1.635 3.921-2.233 1.583-0.684 3.23-1.212 4.89-1.676 2.663-0.744 5.371-1.313 8.041-2.031 0.867-0.233 1.73-0.483 2.581-0.767 0.69-0.23 1.369-0.489 2.053-0.734 0.831-0.299 1.664-0.592 2.499-0.88 2.936-1.013 5.893-1.965 8.86-2.882 9.235-2.857 18.57-5.38 27.769-8.351 3.506-1.133 6.992-2.33 10.436-3.638 0.821-0.312 1.641-0.63 2.457-0.955 0.136-0.054 0.272-0.109 0.407-0.163 0.136-0.055 0.453-0.025 0.407-0.164-0.047-0.141-0.293 0.042-0.44 0.063s-0.294 0.042-0.441 0.063c-1.03 0.148-2.059 0.299-3.088 0.453-4.005 0.6-8.002 1.248-11.991 1.945-17.319 3.025-34.492 6.95-51.348 11.956-10.506 3.121-20.89 6.665-31.072 10.72-3.064 1.22-6.11 2.487-9.134 3.803-0.956 0.416-1.91 0.837-2.861 1.263-0.407 0.183-0.814 0.366-1.22 0.55-0.135 0.061-0.28 0.103-0.405 0.184-0.041 0.026 0.096-0.01 0.144-0.015 0.096-0.011 0.193-0.022 0.289-0.034 0.34-0.042 0.68-0.092 1.018-0.148 0.893-0.148 1.779-0.339 2.659-0.551 1.917-0.461 3.81-1.015 5.723-1.491 1.338-0.334 2.69-0.626 4.058-0.807 1.121-0.148 2.256-0.219 3.386-0.158 0.385 0.021 0.77 0.057 1.153 0.111 0.119 0.016 0.238 0.035 0.357 0.055 0.047 8e-3 0.095 0.016 0.142 0.025 0.024 4e-3 0.09-1e-3 0.071 0.013-0.093 0.07-0.206 0.11-0.309 0.165-0.205 0.109-0.412 0.218-0.618 0.326-0.722 0.379-1.448 0.751-2.177 1.116-2.395 1.199-4.826 2.327-7.284 3.392-8.27 3.584-16.829 6.457-25.456 9.05-5.186 1.559-10.402 3.018-15.619 4.471-8.919 2.484-17.85 4.948-26.636 7.876-1.873 0.624-3.739 1.269-5.595 1.94-1.81 0.654-3.607 1.346-5.417 1.998-2.896 1.045-5.815 2.033-8.77 2.898-0.885 0.26-1.774 0.508-2.667 0.74-1.599 0.415-3.215 0.786-4.849 1.035-1.139 0.173-2.305 0.303-3.458 0.23-0.179-0.011-0.357-0.028-0.535-0.053-0.11-0.015-0.219-0.033-0.328-0.055-0.593-0.118-1.247-0.355-1.576-0.9-0.045-0.073-0.083-0.151-0.113-0.231-0.046-0.123-0.074-0.252-0.088-0.382-0.09-0.84 0.36-1.634 0.885-2.251 0.112-0.132 0.231-0.26 0.353-0.383 0.154-0.155 0.314-0.303 0.478-0.446 0.897-0.778 1.917-1.411 2.953-1.987 1.387-0.77 2.831-1.434 4.291-2.052 0.906-0.384 1.82-0.748 2.738-1.099 1.212-0.463 2.433-0.903 3.658-1.33 2.013-0.7 4.04-1.361 6.066-2.022 0.869-0.284 1.738-0.568 2.604-0.859 0.617-0.208 1.234-0.42 1.843-0.651 0.675-0.256 1.335-0.551 2-0.83 1.375-0.577 2.753-1.147 4.134-1.71 4.143-1.688 8.312-3.311 12.499-4.885 9.312-3.498 18.714-6.75 28.146-9.908 11.553-3.87 23.148-7.612 34.689-11.518 2.352-0.796 4.702-1.599 7.048-2.412 2.357-0.816 4.711-1.641 7.07-2.454 3.984-1.373 7.974-2.728 11.971-4.065 14.117-4.719 28.313-9.205 42.582-13.444 24.382-7.242 48.979-13.767 73.766-19.472 23.729-5.461 47.633-10.17 71.681-13.988 14.703-2.335 29.459-4.335 44.257-5.958 4.194-0.46 8.392-0.889 12.593-1.287 2.865-0.272 5.731-0.538 8.603-0.737 3.88-0.268 7.767-0.436 11.655-0.527 9.921-0.233 19.846 0.031 29.758 0.43 15.244 0.614 30.482 1.561 45.743 1.596 13.382 0.031 26.812-0.645 40.013-2.941 2.92-0.508 5.826-1.094 8.713-1.768 0.632-0.147 1.264-0.299 1.894-0.455 0.181-0.045 0.361-0.089 0.541-0.135 0.09-0.022 0.218 9e-3 0.27-0.068 0.042-0.062-0.15 0-0.225 0-0.226 1e-3 -0.453 3e-3 -0.679 6e-3 -0.54 7e-3 -1.079 0.019-1.619 0.035-1.693 0.052-3.384 0.142-5.076 0.236-2.945 0.163-5.89 0.341-8.84 0.394-2.329 0.041-4.664 7e-3 -6.986-0.195-1.697-0.147-3.39-0.384-5.051-0.766-0.559-0.128-1.114-0.273-1.663-0.436-0.181-0.054-0.361-0.11-0.54-0.168-0.072-0.023-0.143-0.046-0.214-0.07-0.036-0.012-0.144-0.033-0.107-0.036 0.19-0.015 0.381 0 0.571 0 0.572 1e-3 1.143 1e-3 1.714 3e-3 1.709 4e-3 3.419 0.014 5.129 0.028 5.1 0.043 10.199 0.131 15.297 0.261 16.002 0.409 31.993 1.242 47.955 2.447 24.85 1.876 49.626 4.653 74.315 8.033 28.777 3.94 57.435 8.691 86.04 13.712 12.532 2.2 25.054 4.451 37.575 6.712 4.468 0.807 8.936 1.614 13.404 2.422 1.827 0.33 3.652 0.673 5.475 1.027 6.132 1.193 12.239 2.52 18.321 3.947 14.165 3.325 28.194 7.198 42.18 11.201 4.896 1.401 9.787 2.819 14.679 4.234 2.112 0.612 4.223 1.231 6.339 1.83 1.49 0.422 2.985 0.828 4.48 1.229 6.342 1.699 12.712 3.311 18.964 5.325 4.328 1.394 8.613 2.973 12.709 4.956 2.113 1.023 4.176 2.156 6.139 3.446 0.437 0.287 0.868 0.581 1.294 0.884 0.094 0.067 0.188 0.134 0.281 0.202 0.046 0.033 0.164 0.049 0.139 0.101-0.025 0.053-0.115-0.02-0.173-0.03-0.231-0.041-0.461-0.085-0.69-0.132-0.981-0.197-1.952-0.44-2.917-0.706-3.746-1.034-7.403-2.447-11.248-3.095-1.544-0.26-3.114-0.389-4.68-0.309-0.5 0.026-0.999 0.072-1.495 0.141-0.178 0.025-0.355 0.053-0.531 0.083-0.059 0.01-0.118 0.021-0.177 0.031-0.03 6e-3 -0.118 7e-3 -0.089 0.017 0.172 0.058 0.352 0.087 0.528 0.131 0.353 0.087 0.705 0.175 1.058 0.263 1.059 0.266 2.118 0.536 3.175 0.81 3.195 0.829 6.379 1.696 9.554 2.598 9.503 2.702 18.915 5.718 28.239 8.982 14.632 5.123 29.047 10.855 43.261 17.037 15.335 6.671 30.445 13.869 45.335 21.489 1.29 0.661 2.57 1.334 3.88 1.961 1.82 0.866 3.66 1.666 5.51 2.433 6.59 2.724 13.35 5.037 19.79 8.125 3.28 1.573 6.47 3.35 9.4 5.502 0.78 0.566 1.53 1.159 2.26 1.779 0.21 0.182 0.43 0.366 0.64 0.552 0.08 0.075 0.16 0.149 0.25 0.225 0.04 0.037 0.08 0.07 0.12 0.113 0.01 0.01-0.03-6e-3 -0.04-9e-3s-0.03-6e-3 -0.04-9e-3c-0.04-0.01-0.08-0.021-0.13-0.032-0.14-0.039-0.29-0.085-0.43-0.133-0.46-0.157-0.91-0.342-1.36-0.532-1.22-0.524-2.43-1.098-3.64-1.663-1.4-0.653-2.79-1.304-4.21-1.913-1.15-0.493-2.31-0.964-3.5-1.353-0.77-0.253-1.56-0.481-2.37-0.588-0.46-0.061-0.94-0.092-1.39 0.031-0.35 0.094-0.65 0.297-0.79 0.632-0.05 0.117-0.07 0.241-0.09 0.367 0 0.05-0.01 0.1-0.01 0.15 0 0.017 0.02 0.056 0 0.052-0.01-2e-3 -1.26-0.371-1.27-0.375-1.06-0.313-2.12-0.629-3.18-0.947-3.18-0.956-6.35-1.935-9.51-2.933-11.4-3.601-22.72-7.462-33.99-11.452-24.681-8.738-49.138-18.094-73.853-26.736-9.002-3.148-18.037-6.2-27.125-9.092-2.957-0.941-5.92-1.864-8.889-2.769-2.195-0.668-4.39-1.334-6.605-1.935-2.858-0.776-5.737-1.474-8.623-2.136-3.096-0.711-6.201-1.38-9.309-2.037-7.846-1.66-15.709-3.254-23.505-5.141-6.054-1.465-12.077-3.098-17.964-5.14-4.489-1.556-8.911-3.351-13.108-5.586-1.413-0.752-2.799-1.556-4.146-2.421-0.449-0.289-0.894-0.584-1.333-0.887-0.119-0.082-0.237-0.164-0.355-0.247-0.04-0.028-0.079-0.055-0.118-0.083s-0.165-0.089-0.117-0.083c2.669 0.311 5.505 1.998 8 1 1.313-0.525-2.029-1.972-3-3-0.041-0.043 0.118 8e-3 0.177 0.013 0.176 0.012 0.353 0.026 0.53 0.039 0.412 0.033 0.824 0.068 1.236 0.107 1.355 0.127 2.707 0.287 4.054 0.476 4.14 0.581 8.238 1.438 12.29 2.463 5.187 1.311 10.301 2.897 15.382 4.569 6.649 2.186 13.247 4.525 19.919 6.641 7.832 2.484 15.793 4.677 23.94 5.838 2.772 0.394 5.562 0.668 8.359 0.789 0.893 0.038 1.787 0.061 2.681 0.068 0.298 3e-3 0.596 3e-3 0.895 2e-3 0.119-1e-3 0.238-2e-3 0.358-3e-3 0.06-1e-3 0.236 0.016 0.179-2e-3 -0.281-0.089-0.572-0.141-0.858-0.212-0.573-0.141-1.145-0.283-1.717-0.425-1.715-0.426-3.43-0.855-5.144-1.286-4.851-1.221-9.698-2.462-14.542-3.717-14.781-3.83-29.528-7.79-44.289-11.695-31.981-8.463-64.065-16.683-96.601-22.756-12.423-2.318-24.906-4.323-37.444-5.913-4.397-0.558-8.801-1.064-13.21-1.516-2.145-0.22-4.291-0.422-6.438-0.62-2.934-0.272-5.858-0.651-8.773-1.081-3.153-0.465-6.297-0.99-9.438-1.526-5.397-0.92-10.789-1.876-16.207-2.664-4.12-0.598-8.256-1.102-12.409-1.4-4.749-0.341-9.531-0.419-14.276 0.018-1.324 0.121-2.645 0.284-3.958 0.494-0.405 0.065-0.81 0.134-1.214 0.208-0.01 2e-3 -0.472 0.088-0.482 0.091-0.025 9e-3 0.054 6e-3 0.08 9e-3 0.028 4e-3 0.055 7e-3 0.083 0.01 0.138 0.015 0.215 0.023 0.354 0.036 0.269 0.027 0.539 0.05 0.809 0.073 0.824 0.07 1.65 0.133 2.474 0.208 1.469 0.134 2.939 0.295 4.393 0.554 1.049 0.186 2.099 0.42 3.102 0.785 0.455 0.166 0.903 0.361 1.32 0.61 0.297 0.178 0.581 0.386 0.82 0.638 0.191 0.201 0.352 0.432 0.456 0.69 0.035 0.087 0.064 0.177 0.085 0.268 6e-3 0.026 0.012 0.052 0.017 0.079 2e-3 0.013-7e-3 0.039 7e-3 0.04 0.091 8e-3 0.183-0.011 0.275-0.017 0.183-0.011 0.367-0.021 0.551-0.031 0.462-0.025 0.924-0.046 1.387-0.063 1.506-0.057 3.014-0.078 4.522-0.068 4.535 0.031 9.066 0.337 13.576 0.806 5.755 0.598 11.481 1.465 17.179 2.465 7.151 1.254 14.261 2.724 21.365 4.214 3.87 0.811 7.739 1.63 11.615 2.415 1.297 0.263 2.595 0.522 3.894 0.775 0.74 0.144 1.479 0.291 2.222 0.423 1.884 0.335 3.785 0.575 5.685 0.805 2.111 0.256 4.224 0.498 6.33 0.797l-0.176-0.069c-3.496-1.226-6.956-2.555-10.349-4.046-0.805-0.354-1.607-0.716-2.404-1.089 0 0-0.672-0.315-0.672-0.317-0.014-0.104 0.21 4e-3 0.315 6e-3 0.105 3e-3 0.209 5e-3 0.314 8e-3 0.42 0.01 0.84 0.021 1.26 0.035 1.369 0.045 2.737 0.111 4.103 0.194 6.605 0.403 13.178 1.23 19.707 2.295 14.41 2.352 28.596 5.86 42.86 8.938 2.905 0.626 5.814 1.235 8.729 1.811 0.825 0.163 1.651 0.323 2.477 0.48 0.206 0.04 0.412 0.079 0.618 0.117 0.205 0.039 0.44 4e-3 0.617 0.116 0.066 0.041-0.069 0.139-0.104 0.208-0.044 0.087-0.087 0.173-0.132 0.259-0.094 0.18-0.194 0.36-0.33 0.512-0.12 0.134-0.264 0.242-0.411 0.345-0.171 0.119-0.347 0.231-0.521 0.345-0.121 0.08-0.242 0.159-0.363 0.239-0.046 0.03-0.191 0.073-0.139 0.092 0.085 0.031 0.179-0.03 0.268-0.046 0.089-0.014 0.177-0.029 0.266-0.044 0.343-0.057 0.688-0.112 1.033-0.163 1.253-0.184 2.522-0.305 3.789-0.221 0.606 0.041 1.209 0.126 1.801 0.257 0.195 0.043 0.388 0.091 0.581 0.143 0.065 0.018 0.131 0.036 0.196 0.055 0.022 6e-3 0.088 0.013 0.066 0.019-1.33 0.345-2.694 0.572-4 1-0.233 0.076 0.488 0.046 0.732 0.07 0.371 0.035 0.742 0.071 1.112 0.107 1.139 0.111 2.277 0.228 3.414 0.357 4.277 0.483 8.561 1.12 12.715 2.277 1.345 0.375 2.676 0.807 3.978 1.313 0.463 0.181 0.922 0.37 1.377 0.571 0.169 0.074 0.337 0.15 0.505 0.227 0.056 0.026 0.228 0.075 0.167 0.078-0.247 0.014-0.494-0.031-0.741-0.046-0.5-0.032-0.999-0.064-1.499-0.097-1.804-0.121-3.607-0.252-5.41-0.394-5.69-0.449-11.372-1.002-17.043-1.654-9.106-1.047-18.185-2.345-27.21-3.949-9.066-1.611-18.08-3.533-26.977-5.913l-0.285-0.057zm256.16 67.11c6.31 4.592 14.81 8.492 23.61 11.795 8.8 3.302 17.9 6.007 25.39 8.205-12.3-9.363-33.74-17.623-49-20zm-290-78c0.875 0.321 1.657 0.536 2.454 0.688s1.61 0.242 2.546 0.312c-1.75-0.642-3.127-0.859-5-1z" fill-rule="nonzero"/>
                        <path d="m554.9 753.32c0.316 0 0.632 2e-3 0.948 5e-3 1.172 0.011 2.343 0.04 3.514 0.094 1.735 0.079 3.467 0.212 5.191 0.422 1.569 0.191 3.131 0.445 4.675 0.785 1.08 0.237 2.151 0.516 3.207 0.844 0.348 0.108 0.695 0.222 1.039 0.341 0.114 0.039 0.228 0.079 0.342 0.12l0.126 0.045 0.037 0.014 0.017 4e-3v2e-3l-0.015 2e-3c-0.018 1e-3 -0.036 0-0.054 0-0.023 1e-3 -0.046 2e-3 -0.07 3e-3 -0.092 3e-3 -0.185 7e-3 -0.277 0.01-0.302 0.011-0.604 0.022-0.906 0.034-0.894 0.035-1.787 0.074-2.68 0.121-1.429 0.074-2.856 0.168-4.281 0.292-1.26 0.11-2.518 0.245-3.772 0.415-1.332 0.18-2.66 0.399-3.977 0.671-0.438 0.091-0.875 0.188-1.311 0.291-0.147 0.035-0.293 0.07-0.439 0.106-0.05 0.013-0.101 0.025-0.151 0.038l-0.051 0.013-0.017 3e-3 2e-3 1e-3c0.01 1e-3 0.019 1e-3 0.028 1e-3l0.017-1e-3h0.233c0.17 1e-3 0.341 1e-3 0.512 2e-3 0.547 4e-3 1.094 0.01 1.641 0.02 1.643 0.028 3.285 0.084 4.926 0.161 2.419 0.114 4.837 0.274 7.251 0.465 2.544 0.201 5.085 0.438 7.623 0.695 2.182 0.222 4.362 0.459 6.54 0.706 2.354 0.266 4.706 0.542 7.058 0.82 5.863 0.695 11.725 1.404 17.597 2.014 2.697 0.28 5.395 0.539 8.096 0.765 2.53 0.212 5.062 0.395 7.597 0.537 2.08 0.117 4.161 0.206 6.243 0.26 1.995 0.053 3.99 0.073 5.984 0.054 1.904-0.018 3.808-0.073 5.71-0.171 1.81-0.093 3.618-0.226 5.422-0.408 1.329-0.133 2.655-0.292 3.977-0.481 1.252-0.179 2.5-0.384 3.743-0.619 0.852-0.161 1.701-0.336 2.546-0.526 0.278-0.062 0.554-0.126 0.831-0.192 0.097-0.023 0.193-0.046 0.29-0.07l0.112-0.027 0.02-2e-3 2e-3 -3e-3 -0.01-3e-3 -5e-3 -1e-3h-0.023l-0.04-4e-3c-0.064-7e-3 -0.127-0.013-0.191-0.02-0.21-0.023-0.42-0.047-0.63-0.075-0.33-0.043-0.659-0.095-0.984-0.164-0.139-0.03-0.278-0.064-0.416-0.101-0.14-0.037-0.279-0.078-0.417-0.123-0.292-0.095-0.578-0.205-0.861-0.324-0.095-0.04-0.19-0.081-0.284-0.123-0.029-0.012-0.058-0.025-0.086-0.038l-0.036-0.016-0.016-6e-3 -1e-3 -2e-3h0.369c0.221 0 0.442 1e-3 0.663 1e-3 0.689 2e-3 1.377 5e-3 2.066 9e-3 2.143 0.014 4.287 0.042 6.43 0.084 6.767 0.132 13.531 0.399 20.287 0.792 5.488 0.318 10.971 0.719 16.448 1.196 5.638 0.491 11.269 1.062 16.891 1.708 5.757 0.662 11.505 1.402 17.243 2.215 5.894 0.834 11.777 1.745 17.648 2.726 5.721 0.956 11.43 1.979 17.127 3.064 5.842 1.112 11.671 2.289 17.488 3.526 5.93 1.262 11.846 2.585 17.748 3.966 6.083 1.423 12.152 2.907 18.206 4.447 12.486 3.177 24.911 6.591 37.277 10.207 13.188 3.856 26.31 7.94 39.37 12.212 12.975 4.245 25.889 8.676 38.749 13.258 4.215 1.502 8.424 3.02 12.627 4.553 1.331 0.485 2.661 0.972 3.991 1.46 0.32 0.118 0.64 0.236 0.961 0.354 0.338 0.124 0.677 0.249 1.016 0.373 0.615 0.225 1.231 0.447 1.848 0.668 1.771 0.635 3.548 1.255 5.328 1.866 1.904 0.654 3.813 1.298 5.722 1.936 1.991 0.665 3.984 1.325 5.977 1.982 2.166 0.715 4.333 1.428 6.499 2.144 2.55 0.842 5.098 1.688 7.643 2.544 3.22 1.084 6.435 2.183 9.638 3.309 2.56 0.899 5.11 1.814 7.65 2.754 3.35 1.24 6.69 2.522 10 3.862 1.57 0.634 3.13 1.282 4.69 1.944 1.52 0.648 3.04 1.31 4.55 1.988 1.97 0.89 3.94 1.808 5.88 2.761 1.87 0.913 3.72 1.859 5.55 2.842 1.73 0.93 3.45 1.894 5.14 2.898 1.59 0.946 3.16 1.928 4.7 2.952 1.15 0.762 2.28 1.548 3.39 2.361 1.06 0.774 2.1 1.573 3.12 2.399 0.7 0.568 1.39 1.149 2.07 1.744 0.23 0.198 0.45 0.399 0.68 0.6 0.07 0.067 0.14 0.135 0.22 0.202l0.08 0.077 0.02 0.011v4e-3l-0.01 2e-3v-3e-3l-0.02-8e-3h-0.01c-0.04-0.014-0.09-0.028-0.14-0.042l-0.42-0.126c-0.55-0.162-1.09-0.326-1.63-0.493-2.07-0.635-4.12-1.306-6.17-2.007-3.85-1.32-7.66-2.745-11.45-4.237-4.07-1.602-8.1-3.282-12.12-4.997-4.79-2.043-9.55-4.137-14.33-6.214-3.62-1.574-7.24-3.138-10.88-4.662-3.18-1.333-6.377-2.636-9.594-3.887-0.921-0.358-1.845-0.712-2.77-1.061-0.346-0.131-0.693-0.261-1.04-0.39-0.311-0.116-0.623-0.232-0.935-0.347-0.584-0.215-1.17-0.427-1.756-0.637-2.557-0.915-5.13-1.784-7.712-2.628-2.764-0.904-5.537-1.778-8.313-2.645-5.05-1.578-10.108-3.131-15.136-4.782-1.993-0.654-3.981-1.324-5.961-2.017-1.87-0.654-3.732-1.328-5.584-2.031-1.286-0.487-2.567-0.988-3.841-1.504-0.418-0.169-0.835-0.34-1.251-0.512-0.143-0.06-0.287-0.12-0.431-0.18-0.048-0.02-0.095-0.04-0.143-0.06-0.015-6e-3 -0.03-0.012-0.045-0.019l-3e-3 -1e-3c1e-3 0 0.066 0.031 0.067 0.032 0.033 0.016 0.067 0.032 0.1 0.048 0.1 0.048 0.2 0.096 0.299 0.144 0.297 0.145 0.593 0.291 0.887 0.44 0.757 0.384 1.506 0.783 2.244 1.2 0.697 0.394 1.385 0.805 2.061 1.235 0.464 0.296 0.923 0.601 1.374 0.916 0.148 0.103 0.294 0.207 0.44 0.312 0.048 0.035 0.097 0.07 0.145 0.105l0.065 0.047 0.013 8e-3 -1e-3 2e-3 -0.01-1e-3c-0.013-1e-3 -0.025-5e-3 -0.037-7e-3 -0.032-5e-3 -0.064-0.011-0.096-0.016-0.095-0.017-0.191-0.033-0.287-0.05-0.287-0.049-0.574-0.1-0.861-0.152-0.971-0.176-1.939-0.366-2.905-0.568-3.247-0.679-6.464-1.492-9.659-2.381-2.608-0.726-5.201-1.502-7.789-2.297-3.319-1.019-6.628-2.071-9.948-3.089-4.103-1.259-8.224-2.469-12.39-3.504-0.895-0.222-1.792-0.436-2.691-0.64-0.299-0.069-0.599-0.136-0.899-0.202-0.095-0.021-0.19-0.041-0.285-0.062-0.031-7e-3 -0.063-0.014-0.095-0.021-0.01-2e-3 -0.021-5e-3 -0.032-7e-3l-0.015-3e-3 -3e-3 0.014c-1e-3 9e-3 -3e-3 0.019-5e-3 0.028-6e-3 0.027-0.014 0.054-0.022 0.081-0.027 0.08-0.066 0.156-0.116 0.224-0.013 0.018-0.026 0.035-0.04 0.051-0.103 0.123-0.236 0.216-0.378 0.29-0.025 0.013-0.051 0.026-0.078 0.038-0.033 0.016-0.066 0.03-0.1 0.043-0.147 0.059-0.3 0.103-0.455 0.139-0.185 0.041-0.372 0.07-0.56 0.092-0.232 0.026-0.465 0.04-0.698 0.047-0.264 8e-3 -0.529 6e-3 -0.793-2e-3 -0.343-0.01-0.684-0.031-1.026-0.059-0.371-0.03-0.743-0.068-1.113-0.113-0.401-0.048-0.802-0.102-1.202-0.162-0.433-0.065-0.865-0.135-1.296-0.21-0.455-0.079-0.909-0.163-1.362-0.251-0.485-0.094-0.97-0.192-1.454-0.294-1.05-0.221-2.096-0.458-3.14-0.705-0.744-0.177-1.486-0.359-2.228-0.546-0.778-0.195-1.556-0.396-2.332-0.601-1.829-0.481-3.653-0.984-5.473-1.499-1.071-0.304-2.142-0.611-3.212-0.92-0.43-0.124-0.859-0.248-1.289-0.371-0.343-0.099-0.687-0.197-1.031-0.294-0.145-0.04-0.29-0.081-0.435-0.12-0.114-0.031-0.228-0.062-0.343-0.092-0.245-0.065-0.49-0.131-0.735-0.196-0.798-0.212-1.595-0.424-2.393-0.636-2.276-0.605-4.553-1.207-6.831-1.805-10.384-2.727-20.789-5.376-31.24-7.837-4.506-1.062-9.02-2.088-13.544-3.07-4.299-0.933-8.606-1.826-12.923-2.671-7.122-1.394-14.27-2.656-21.445-3.744-1.667-0.253-3.336-0.497-5.006-0.731-0.409-0.057-0.818-0.114-1.227-0.17-0.259-0.035-0.519-0.07-0.778-0.106-0.306-0.041-0.612-0.082-0.917-0.124-1.173-0.159-2.345-0.317-3.518-0.474-4.589-0.615-9.179-1.22-13.771-1.813-16.681-2.153-33.383-4.15-50.106-5.951-25.863-2.785-51.777-5.1-77.735-6.794-3.589-0.235-7.179-0.457-10.77-0.667-4.052-0.237-8.105-0.458-12.159-0.664-4.618-0.233-9.238-0.446-13.858-0.637-5.287-0.218-10.576-0.408-15.865-0.568-6.06-0.182-12.122-0.326-18.184-0.428-7.04-0.119-14.08-0.182-21.121-0.187-17.747-0.012-35.496 0.349-53.226 1.127-5.662 0.249-11.322 0.54-16.98 0.875-1.595 0.094-3.191 0.192-4.786 0.294-0.411 0.026-0.823 0.052-1.235 0.079-0.337 0.022-0.674 0.044-1.011 0.064-0.469 0.029-0.937 0.054-1.406 0.077-1 0.049-2.001 0.087-3.001 0.114-1.027 0.029-2.054 0.047-3.08 0.057-2.218 0.021-4.436 3e-3 -6.653-0.039-2.368-0.046-4.735-0.12-7.102-0.209-2.569-0.098-5.137-0.214-7.705-0.335-2.619-0.124-5.237-0.254-7.856-0.377-2.1-0.1-4.201-0.195-6.302-0.28-2.357-0.096-4.715-0.18-7.073-0.242-2.025-0.053-4.05-0.091-6.075-0.107-1.92-0.016-3.84-0.012-5.76 0.018-1.826 0.028-3.651 0.079-5.475 0.16-1.757 0.077-3.513 0.181-5.267 0.318-1.683 0.132-3.364 0.295-5.041 0.495-1.589 0.19-3.174 0.413-4.752 0.677-1.892 0.316-3.774 0.69-5.639 1.137-1.724 0.412-3.433 0.886-5.119 1.435-0.709 0.231-1.413 0.475-2.112 0.733-0.229 0.085-0.457 0.171-0.685 0.258-0.077 0.03-0.155 0.06-0.233 0.09l-0.097 0.038-0.016 4e-3 -4e-3 3e-3 6e-3 4e-3h9e-3l0.012-2e-3c0.017 1e-3 0.034 2e-3 0.051 2e-3l0.204 9e-3c0.271 0.013 0.543 0.028 0.815 0.045 0.531 0.036 1.062 0.083 1.59 0.153 0.475 0.063 0.948 0.145 1.416 0.248 0.431 0.094 0.857 0.207 1.278 0.337 0.139 0.043 0.278 0.088 0.415 0.135 0.045 0.014 0.089 0.029 0.133 0.045l0.06 0.021 0.013 4e-3h-1e-3c-0.021 2e-3 -0.042 0-0.063 1e-3 -0.063 0-0.125 1e-3 -0.188 1e-3 -0.188 2e-3 -0.377 4e-3 -0.565 6e-3 -0.523 6e-3 -1.047 0.013-1.57 0.02-1.637 0.024-3.273 0.057-4.909 0.098-4.895 0.122-9.788 0.321-14.677 0.589-7.218 0.396-14.426 0.943-21.623 1.621-7.488 0.706-14.964 1.554-22.423 2.525-5.298 0.69-10.588 1.441-15.87 2.249-5.395 0.824-10.782 1.707-16.159 2.641-5.57 0.968-11.131 1.992-16.682 3.064-5.693 1.101-11.376 2.253-17.05 3.45-11.734 2.477-23.426 5.147-35.084 7.961-13.64 3.291-27.233 6.779-40.793 10.386-6.315 1.68-12.624 3.386-18.928 5.111-5.899 1.613-11.794 3.243-17.686 4.882-3.8 1.057-7.599 2.118-11.398 3.182-1.124 0.314-2.247 0.629-3.371 0.944l-1.329 0.372c-0.45 0.126-0.9 0.252-1.351 0.377-1.801 0.502-3.603 1-5.406 1.495-14.428 3.958-28.912 7.71-43.349 11.637-2.664 0.725-5.327 1.456-7.987 2.195-1.064 0.296-2.127 0.593-3.19 0.891-0.327 0.092-0.654 0.184-0.981 0.276-0.082 0.023-0.164 0.046-0.245 0.069-0.066 0.019-0.131 0.037-0.196 0.056-0.066 0.019-0.131 0.038-0.196 0.057-0.291 0.088-0.58 0.182-0.868 0.279-0.298 0.101-0.596 0.206-0.892 0.312-0.317 0.114-0.633 0.229-0.949 0.345-0.338 0.125-0.675 0.25-1.013 0.375-0.386 0.143-0.772 0.286-1.158 0.427-1.035 0.378-2.073 0.747-3.119 1.089-0.813 0.265-1.631 0.515-2.456 0.738-0.623 0.168-1.251 0.322-1.883 0.454-0.476 0.1-0.954 0.187-1.434 0.258-0.366 0.053-0.732 0.098-1.1 0.13-0.291 0.025-0.582 0.043-0.873 0.052-0.219 7e-3 -0.439 8e-3 -0.658 3e-3 -0.173-3e-3 -0.347-0.011-0.521-0.023-0.13-9e-3 -0.261-0.02-0.391-0.034-0.097-0.011-0.194-0.023-0.291-0.036-0.575-0.081-1.145-0.219-1.685-0.438-0.074-0.03-0.147-0.062-0.22-0.095-0.095-0.043-0.189-0.089-0.281-0.138-0.123-0.064-0.243-0.133-0.36-0.208-0.17-0.107-0.334-0.225-0.489-0.352-0.227-0.187-0.437-0.394-0.627-0.618-0.042-0.05-0.083-0.101-0.123-0.152-0.064-0.081-0.125-0.164-0.183-0.249-0.135-0.196-0.255-0.403-0.352-0.621-0.101-0.229-0.175-0.47-0.211-0.719-0.023-0.159-0.029-0.321-0.019-0.482 8e-3 -0.106 0.022-0.212 0.044-0.317 0.016-0.074 0.035-0.147 0.057-0.219 0.017-0.054 0.036-0.107 0.056-0.16 0.116-0.302 0.288-0.581 0.489-0.834 0.029-0.037 0.059-0.073 0.09-0.109 0.036-0.043 0.073-0.085 0.111-0.127 0.053-0.057 0.107-0.114 0.162-0.169 0.071-0.071 0.145-0.141 0.22-0.208 0.099-0.089 0.201-0.175 0.305-0.258 0.134-0.108 0.272-0.21 0.413-0.309 0.182-0.128 0.368-0.249 0.557-0.365 0.247-0.151 0.499-0.293 0.754-0.428 0.321-0.17 0.647-0.329 0.977-0.48 0.435-0.198 0.875-0.383 1.32-0.557 0.572-0.224 1.15-0.431 1.733-0.627 0.792-0.266 1.592-0.51 2.396-0.741 0.564-0.162 1.131-0.317 1.698-0.468 0.468-0.124 0.936-0.245 1.404-0.365 0.437-0.112 0.874-0.223 1.31-0.337 0.187-0.049 0.374-0.098 0.56-0.149 0.157-0.043 0.313-0.087 0.469-0.133 0.076-0.023 0.151-0.046 0.226-0.07 0.062-0.02 0.124-0.041 0.185-0.061 0.074-0.025 0.149-0.05 0.223-0.075 0.333-0.111 0.667-0.223 1.001-0.335 11.692-3.921 23.334-7.991 35.022-11.925 5.08-1.71 10.17-3.394 15.276-5.028 1.377-0.441 2.756-0.879 4.136-1.312 0.785-0.246 1.571-0.491 2.357-0.736 0.965-0.3 1.93-0.599 2.896-0.897 3.653-1.128 7.31-2.242 10.971-3.341 11.443-3.437 22.929-6.736 34.452-9.896 8.769-2.404 17.561-4.728 26.373-6.97 8.761-2.229 17.542-4.377 26.343-6.442 8.738-2.051 17.494-4.02 26.269-5.907 8.701-1.87 17.42-3.659 26.155-5.364 3.034-0.593 6.071-1.175 9.109-1.747 1.049-0.197 2.098-0.393 3.147-0.588 0.276-0.051 0.552-0.103 0.828-0.154 0.23-0.042 0.459-0.085 0.689-0.128 0.366-0.069 0.731-0.139 1.096-0.211 0.875-0.173 1.749-0.353 2.621-0.539 0.924-0.197 1.847-0.4 2.77-0.607 1.762-0.395 3.521-0.803 5.28-1.213 1.914-0.447 3.827-0.897 5.741-1.341 3.815-0.886 7.636-1.749 11.474-2.53 1.56-0.318 3.123-0.622 4.689-0.908 1.474-0.269 2.95-0.522 4.429-0.754 1.614-0.253 3.231-0.482 4.852-0.678 1.53-0.185 3.064-0.341 4.6-0.459 1.425-0.109 2.852-0.186 4.281-0.22 1.332-0.031 2.665-0.026 3.997 0.03 1.022 0.042 2.044 0.114 3.061 0.222 0.951 0.101 1.9 0.235 2.841 0.408 0.653 0.12 1.304 0.26 1.949 0.422 0.216 0.055 0.432 0.112 0.648 0.172l0.213 0.06 0.088 0.026 0.012 2e-3 -7e-3 4e-3 -0.021 4e-3c-2e-3 0-3e-3 0-4e-3 1e-3 -0.022 5e-3 -0.043 0.01-0.065 0.015-0.086 0.02-0.172 0.04-0.259 0.06-0.28 0.064-0.561 0.128-0.842 0.191-0.922 0.206-1.846 0.403-2.771 0.591-1.644 0.333-3.294 0.64-4.947 0.927-1.733 0.3-3.469 0.577-5.208 0.839-3.102 0.467-6.211 0.884-9.322 1.288-3.852 0.5-7.706 0.981-11.555 1.509-1.944 0.266-3.886 0.545-5.825 0.845-1.82 0.281-3.636 0.581-5.448 0.907-2.523 0.453-5.037 0.958-7.535 1.533-2.379 0.549-4.744 1.163-7.084 1.86-1.601 0.477-3.19 0.993-4.764 1.554-0.524 0.186-1.045 0.378-1.565 0.574-0.177 0.067-0.353 0.135-0.529 0.203l-0.156 0.06-0.063 0.024-4e-3 1e-3c-6e-3 2e-3 -0.013 3e-3 -0.019 5e-3l-8e-3 3e-3 1e-3 3e-3 2e-3 1e-3c4e-3 2e-3 8e-3 2e-3 0.012 2e-3l0.01-1e-3 0.021-3e-3 4e-3 -1e-3c0.05-2e-3 0.099-3e-3 0.149-5e-3l0.425-0.016 0.069-2e-3 0.447-0.018 0.149-5e-3 0.149-6e-3 0.149-7e-3 0.3-0.012 0.149-6e-3 0.15-7e-3 0.15-6e-3 0.15-7e-3 0.15-6e-3 0.151-7e-3 0.15-7e-3 0.151-6e-3 0.15-7e-3 0.072-4e-3 0.14-6e-3 0.152-7e-3 0.151-8e-3 0.304-0.014 0.152-8e-3 0.152-7e-3 0.152-8e-3 0.152-7e-3 0.153-8e-3 -0.137 7e-3 -0.152 7e-3 -0.304 0.016-0.152 7e-3 -0.151 7e-3 -0.152 8e-3 -0.302 0.014-0.188 9e-3 -0.16 7e-3 -0.302 0.014-0.151 6e-3 -0.15 7e-3 -0.03 1e-3 6.922-0.376 0.038-2e-3 0.156-0.011 0.314-0.02 0.218-0.015 0.096-6e-3 0.157-0.01 0.111-8e-3 0.156-0.011 0.156-0.01 0.312-0.022 0.157-0.01 0.156-0.011 0.157-0.011 0.156-0.011 0.157-0.012 0.471-0.033 0.157-0.012 0.157-0.011 0.157-0.012 0.158-0.012 0.157-0.011 0.474-0.036 0.141-0.011 0.128-9e-3 -0.174 0.013-0.148 0.011-0.157 0.012-0.316 0.024-0.157 0.011-0.158 0.012-0.157 0.011-0.157 0.012-0.158 0.011-0.157 0.012-0.157 0.011-0.156 0.011-0.314 0.022-0.156 0.011-0.157 0.011-0.312 0.022-0.156 0.01-0.164 0.012-0.125 8e-3 -0.207 0.014-0.124 8e-3 3.601-0.257 0.167-0.013 0.147-0.011 0.101-8e-3 0.175-0.013 1.46-0.116 0.098-8e-3 0.083-7e-3 0.264-0.022 0.1-8e-3 0.107-9e-3 0.359-0.03 0.321-0.027 0.147-0.012 0.157-0.013 0.189-0.016 0.202-0.018 0.119-0.01 0.161-0.014 0.151-0.013 0.172-0.015 0.16-0.014 0.126-0.011 0.144-0.013 1.33-0.12 0.163-0.015c0.399-0.037 0.798-0.074 1.197-0.112l0.059-6e-3 0.051-5e-3 1.288-0.124 0.072-7e-3 0.412-0.04 0.325-0.034 0.446-0.044c0.904-0.091 1.808-0.184 2.711-0.281h5e-3l-3.162 0.325c-0.367 0.036-0.653 0.064-0.403 0.04l12.55-1.404 2e-3 -1e-3 14.773-2.038h4e-3l15.14-2.477 0.122-0.022 13.108-2.45 2.205-0.44 0.8-0.161 0.427-0.086 0.155-0.032 0.231-0.047 0.188-0.039 0.218-0.044 0.069-0.014 0.718-0.148 0.121-0.025 5.451-1.151 0.107-0.023 0.155-0.033 0.226-0.049 0.204-0.044-0.072 0.015-0.192 0.042-0.195 0.042-0.179 0.039-0.054 0.011-2.658 0.568c-0.931 0.197-1.862 0.391-2.793 0.583l-0.024 5e-3c-0.05 0.016-0.1 0.031-0.15 0.047 2.841 0.608 5.984 0.578 9.095 0.161s6.191-1.222 8.905-2.161c-1.945-0.567-4.067-0.7-6.235-0.562l0.048-0.011c0.961-0.218 1.921-0.439 2.881-0.663 2.544-0.592 5.084-1.202 7.618-1.832 0.91-0.226 1.818-0.455 2.726-0.686 0.225-0.057 0.449-0.115 0.674-0.172 0.064-0.017 0.128-0.033 0.192-0.049l3e-3 -1e-3c0.02-4e-3 0.043-3e-3 0.063-8e-3l0.013-4e-3 0.01-6e-3 9e-3 -8e-3 -1e-3 -5e-3 -8e-3 -1e-3c-0.016 0-0.049 7e-3 -0.065 8e-3h-1e-3c-0.074-1e-3 -0.147-1e-3 -0.22-1e-3 -0.17-1e-3 -0.34-1e-3 -0.51-2e-3 -0.503-2e-3 -1.005-6e-3 -1.507-0.016-0.82-0.016-1.64-0.05-2.457-0.124-0.371-0.033-0.741-0.075-1.11-0.127-0.36-0.05-0.718-0.111-1.073-0.182-0.461-0.092-0.919-0.203-1.37-0.334-0.152-0.044-0.303-0.09-0.453-0.139-0.053-0.017-0.105-0.034-0.157-0.051l-0.054-0.018-0.016-5e-3v-1e-3l0.014-2e-3c0.014-1e-3 0.028 0 0.042-1e-3 0.019-1e-3 0.037-2e-3 0.056-3e-3l0.225-0.012c0.224-0.013 0.448-0.025 0.672-0.038 0.748-0.042 1.496-0.086 2.243-0.132 2.28-0.138 4.56-0.291 6.838-0.457 4.147-0.301 8.292-0.645 12.434-1.019 1.381-0.124 2.762-0.252 4.143-0.383l1.344-0.129c0.149-0.014 0.299-0.029 0.448-0.043 0.037-4e-3 0.075-7e-3 0.112-0.011s0.075-8e-3 0.112-0.011l-3e-3 1e-3c-8e-3 1e-3 -0.023 3e-3 -0.031 5e-3l-0.039 6e-3c-0.037 6e-3 -0.073 0.012-0.11 0.019-0.134 0.022-0.268 0.045-0.402 0.068-0.402 0.069-0.803 0.14-1.203 0.214-1.187 0.219-2.37 0.46-3.548 0.72-1.486 0.328-2.965 0.688-4.436 1.08-0.696 0.185-1.39 0.378-2.082 0.578-0.658 0.191-1.313 0.388-1.967 0.593-0.704 0.221-1.405 0.45-2.102 0.691-0.185 0.063-0.37 0.127-0.554 0.193-0.051 0.018-0.103 0.036-0.155 0.055l-0.026 9e-3 -0.017 4e-3 -7e-3 4e-3v4e-3l0.014 2e-3c5e-3 1e-3 9e-3 3e-3 0.014 5e-3 0.025 7e-3 0.049 0.015 0.074 0.023l0.192 0.06c0.204 0.062 0.41 0.119 0.617 0.173 0.619 0.159 1.247 0.282 1.88 0.376 0.641 0.094 1.286 0.159 1.933 0.2 0.694 0.044 1.39 0.06 2.086 0.056 0.751-5e-3 1.501-0.034 2.251-0.081 0.803-0.052 1.605-0.124 2.405-0.213 1.138-0.126 2.273-0.284 3.404-0.463 1.236-0.196 2.468-0.416 3.697-0.652 2.088-0.4 4.168-0.842 6.248-1.282 1.438-0.305 2.876-0.609 4.318-0.896 1.014-0.203 2.03-0.397 3.049-0.574 0.951-0.165 1.904-0.317 2.86-0.443 0.656-0.087 1.314-0.162 1.974-0.221 0.216-0.019 0.432-0.036 0.648-0.051 0.075-5e-3 0.149-0.01 0.224-0.015l0.096-6e-3 0.013 1e-3v-4e-3l-7e-3 -3e-3 -9e-3 -1e-3c-0.03-0.01-0.06-0.02-0.09-0.03-0.109-0.036-0.218-0.071-0.328-0.105-0.45-0.14-0.906-0.263-1.365-0.371-0.451-0.107-0.906-0.2-1.362-0.281-0.489-0.087-0.979-0.16-1.471-0.222-0.517-0.065-1.035-0.117-1.554-0.158-0.551-0.044-1.103-0.076-1.656-0.097-0.703-0.027-1.406-0.037-2.11-0.033-0.231 2e-3 -0.462 5e-3 -0.693 9e-3 -0.08 2e-3 -0.161 4e-3 -0.241 5e-3l-0.096 3e-3 -0.025 1e-3 1e-3 -1e-3c0.062-7e-3 0.125-0.013 0.188-0.019 0.126-0.014 0.252-0.027 0.377-0.04 0.44-0.047 0.88-0.093 1.32-0.14 1.195-0.127 2.389-0.255 3.583-0.384 3.71-0.4 7.419-0.809 11.128-1.218 10.887-1.202 21.774-2.407 32.682-3.412 6.122-0.565 12.251-1.066 18.387-1.469 6.051-0.397 12.109-0.699 18.171-0.87 2.863-0.081 5.727-0.133 8.591-0.153 0.669-5e-3 1.338-8e-3 2.007-9e-3h0.526l0.032-6e-3 0.01-1e-3 5e-3 4e-3 1e-3 3e-3c0.016 0.643 0.083 1.292 4e-3 1.93l-4e-3 0.031 0.305-0.026c0.177-0.015 0.355-0.03 0.533-0.045 0.863-0.073 1.726-0.145 2.59-0.215 2.689-0.22 5.38-0.426 8.072-0.613 8.063-0.562 16.139-0.958 24.222-1.044 0.813-9e-3 1.626-0.015 2.439-0.017 0.204 0 0.407-1e-3 0.61-1e-3 0.215 0 0.43 0 0.644-1e-3 0.419-2e-3 0.839-6e-3 1.258-0.012 0.895-0.013 1.789-0.036 2.684-0.064 0.943-0.03 1.885-0.067 2.827-0.107 1.714-0.072 3.428-0.155 5.141-0.232 2.245-0.1 4.49-0.189 6.736-0.233 0.868-0.016 1.737-0.026 2.606-0.027h0.237zm156.1 15.676c7.878 3.302 18.105 5.539 28.499 7.083 10.394 1.543 20.955 2.393 29.501 2.917-15.626-7.325-40.83-9.841-58-10z"/>
                    </g>
                    <g transform="translate(-40.946 -27.518)">
                        <path d="m761.42 815.25 19.268-44.96h77.075l8.029-40.544 54.594 3.211 1.606 94.511 62.623 3.211 9.634-36.303h32.118l20.87 36.303 52.99-61.995 73.86-6.423 52.99 68.418 83.5-41.12 494.29 102.9-48.89 32.779-1674.3-3.27-40.767-32.279 575.96-125.82 56.2 32.114 88.315 19.269z" fill="#004061"/>
                    </g>
                </g>
            </g>
        </g>
    </g>
</svg>
