<?xml version="1.0" encoding="UTF-8" standalone="no"?>
<!DOCTYPE svg PUBLIC "-//W3C//DTD SVG 1.1//EN" "http://www.w3.org/Graphics/SVG/1.1/DTD/svg11.dtd">
<svg width="100%" height="100%" viewBox="0 0 1509 738" version="1.1" xmlns="http://www.w3.org/2000/svg" xmlns:xlink="http://www.w3.org/1999/xlink" xml:space="preserve" xmlns:serif="http://www.serif.com/" style="fill-rule:evenodd;clip-rule:evenodd;stroke-linejoin:round;stroke-miterlimit:2;">
    <g id="Artboard1" transform="matrix(1,0,0,1,-124.136,0)">
        <rect x="124.136" y="0" width="1508.68" height="737.081" style="fill:none;"/>
        <clipPath id="_clip1">
            <rect x="124.136" y="0" width="1508.68" height="737.081"/>
        </clipPath>
        <g clip-path="url(#_clip1)">
            <g transform="matrix(1,0,0,1,0.636061,-106.027)">
                <clipPath id="_clip2">
                    <rect x="123.636" y="106.027" width="1508.68" height="737.081"/>
                </clipPath>
                <g clip-path="url(#_clip2)">
                    <g id="bg-light">
                        <g transform="matrix(1.38749,0,0,1.38749,-263.506,-391.913)">
                            <path d="M822.941,358.878C1116.85,358.878 1356.16,594.511 1362.1,887.009C1362.17,890.713 289.024,889.228 283.742,889.228C288.513,595.703 528.288,358.878 822.941,358.878Z" style="fill:rgb(0,74,113);"/>
                        </g>
                        <g transform="matrix(1.20594,0,0,1.20594,-163.567,-208.74)">
                            <path d="M822.941,358.878C1111.22,358.878 1346.97,585.57 1361.5,870.263C1347.45,870.263 292.585,869.466 284.42,869.466C299.351,585.147 534.93,358.878 822.941,358.878Z" style="fill:rgb(73,151,174);fill-opacity:0.3;"/>
                        </g>
                        <g transform="matrix(1,0,0,1,-29.4038,-2.84217e-14)">
                            <path d="M822.941,358.878C1101.18,358.878 1330.49,570.058 1359.19,840.743L286.695,840.743C315.391,570.058 544.699,358.878 822.941,358.878Z" style="fill:rgb(73,151,174);fill-opacity:0.5;"/>
                        </g>
                    </g>
                    <g id="sun-lines" transform="matrix(0.650119,0,0,0.650119,186.796,241.246)">
                        <path d="M1338,163C1394.73,191.387 1446.93,239.506 1496,279.179C1589.93,355.132 1679.69,434.508 1769,515.782C1807.07,550.426 1846.5,583.915 1886,616.916C1906.88,634.365 1933.05,651.666 1950,673C1902.95,653.323 1871.95,599.061 1826,578C1867.98,608.145 1905.58,646.791 1946,679.281C1960.9,691.26 1981.41,711.842 2000,717C1991.17,711.263 1978.85,703.834 1973,695C1993.11,704.314 2010.88,720.628 2029,733.263C2061.86,756.176 2095.93,778.288 2131,797.678C2143.86,804.79 2156.77,811.95 2170,818.353C2171.75,819.199 2183.72,824.234 2178.89,827.577C2175.69,829.789 2166.97,824.139 2164,822.725C2149.26,815.715 2134.32,808.978 2120,801.118C2060.16,768.272 2004.25,730.657 1950,689.255C1795.12,571.058 1648.97,440.213 1501,313.551C1453.88,273.219 1406.96,230.002 1355,196.296C1339.37,186.157 1318.49,167.301 1300,164C1311.73,169.743 1326.09,178.419 1335,188C1308.5,179.648 1281.86,154.602 1257,141.25C1202.58,112.025 1147.15,85.831 1089,64.833C1069.33,57.729 1048.36,51.807 1028,47C1023.83,46.014 1008.92,44.743 1010,40C972.523,36.492 935.818,28.31 898,27.04C829.153,24.729 759.659,38.954 694,58.611C652.49,71.039 612.061,87.427 573,106.119C560.508,112.097 535.569,131.391 522,130C534.372,122.798 549.013,117.22 560,108C469.857,141.544 395.166,213.374 317.438,267.359C298.326,280.633 281.424,298.31 264,313.687C258.299,318.718 249.629,329.955 242,331C250.605,322.7 260.321,315.192 268,306L256,316C262.256,304.952 275.618,296.317 285,287.904C304.836,270.117 324.147,252.281 345,235.599C424.653,171.877 509.858,112.276 604,72C631.591,60.196 659.52,50.689 688,41.335C697.518,38.208 714.123,30.5 724,33C720.194,34.23 716.975,35.273 714,38C719.273,36.328 725.481,33.602 731,35C666.149,51.474 596.798,73.859 541,112C591.362,92.209 638.063,65.433 690,48.678C774.502,21.419 864.888,14.945 953,21.136C995.468,24.121 1037.13,34.017 1078,45.299C1095.58,50.152 1115.89,62.319 1134,63C1088.25,49.567 1046.74,29.945 999,21.509C973.502,17.003 947.743,14.504 922,12.217C910.774,11.22 896.641,13.605 886,10C1067.76,10 1229.65,76.875 1377,180.561C1416.97,208.689 1459.73,236.994 1495,271L1494,272C1476.02,257.849 1458.05,240.044 1438,229C1439.19,230.186 1439.53,230.584 1440,232C1439.22,231.705 1438.45,231.396 1437.68,231.073L1437.59,230.992C1435.06,228.941 1432.53,226.896 1429.99,224.862C1423.23,219.449 1416.41,214.106 1409.51,208.875C1402.95,203.906 1396.32,199.037 1389.58,194.311C1387.21,192.648 1384.83,191.003 1382.43,189.378L1382.31,189.29C1379.61,186.965 1376.87,184.678 1374.08,182.464C1372,180.816 1369.88,179.208 1367.73,177.659C1363.4,174.553 1358.9,171.676 1354.18,169.219C1350.75,167.438 1347.2,165.88 1343.55,164.631C1342.33,164.215 1341.1,163.834 1339.87,163.49C1339.45,163.375 1339.04,163.264 1338.62,163.157C1338.49,163.123 1338.36,163.09 1338.23,163.056C1338.17,163.042 1338.11,163.028 1338.06,163.014C1338.04,163.009 1337.98,162.99 1338,163C1338.05,163.033 1338.11,163.055 1338.17,163.083C1338.28,163.139 1338.39,163.194 1338.5,163.25C1338.89,163.445 1339.27,163.641 1339.66,163.837C1340.82,164.428 1341.98,165.026 1343.14,165.632C1346.52,167.4 1349.87,169.228 1353.18,171.109C1360.9,175.484 1368.46,180.142 1375.88,185.005C1378.02,186.41 1380.15,187.832 1382.27,189.269L1382.41,189.372C1387.94,194.134 1393.33,199.055 1398.79,203.893C1401.04,205.884 1403.3,207.862 1405.59,209.807C1407.7,211.597 1409.83,213.359 1411.99,215.078C1413.2,216.041 1414.42,216.991 1415.66,217.923C1416.63,218.653 1417.61,219.372 1418.59,220.078C1419.37,220.64 1420.16,221.193 1420.95,221.738C1425.39,224.779 1430.02,227.551 1434.9,229.833C1435.81,230.259 1436.72,230.666 1437.64,231.056L1338,163ZM2004,721C2004.28,721.818 2004.37,722.181 2004.59,722.409C2004.82,722.636 2005.18,722.728 2006,723C2005.45,721.365 2005.63,721.545 2004,721ZM2000,718L2003,721C2002.1,719.077 2001.92,719.001 2000,718ZM756,27C758.346,28.234 760.364,28.694 763,29C762.402,27.805 762.534,28.023 761,27L774,25L770,26C773.035,26.788 775.891,26.28 779,26C777.25,25.358 775.873,25.141 774,25C777.441,24.334 780.525,24.689 784,25L781,24C842.247,14.176 901.579,18.832 963,20C949.667,14.85 933.059,16.178 919,14.561C866.663,8.543 806.718,12.608 756,27ZM974.667,21.333C974.445,21.556 974.597,21.653 974.812,21.688C975.028,21.722 975.305,21.694 975.333,21.667C975.778,21.222 974.722,21.278 974.667,21.333ZM964,20C965.032,20.362 965.983,20.59 966.95,20.738C967.918,20.886 968.902,20.955 970,21C967.936,20.275 966.195,20.091 964,20Z" style="fill:rgb(230,241,236);fill-rule:nonzero;"/>
                        <path d="M1354.78,213.935C1376.86,229.337 1398.29,245.405 1419,260.873C1522.52,338.196 1615.5,424.008 1710,511.864C1747.7,546.918 1787.93,579.336 1827,612.86C1845.64,628.856 1869.27,645.307 1884,665C1869.16,660.01 1854.86,642.929 1843.02,632.878C1818.21,611.819 1791.6,589.914 1765,571C1782.05,590.477 1804.63,606.178 1824,623.32C1859.13,654.411 1894.48,688.523 1934,714C1926.03,705.316 1915.24,699.343 1908,690C1928.08,699.9 1945.31,717.318 1963,730.859C1995.18,755.496 2028.68,779.048 2064,798.994C2077.24,806.471 2091.03,813.565 2105,819.551C2106.36,820.134 2119.71,825.312 2114.15,828.102C2105.39,832.498 2076.34,813.736 2068,809.869C2019.07,787.193 1974.15,754.28 1932,720.989C1760.85,585.818 1603.6,434.719 1432.02,300.337C1381.72,260.943 1331.47,219.738 1276,188.145C1260.86,179.521 1232.56,158.348 1215,159C1227.29,162.894 1244.83,171.924 1254,181C1202.88,160.911 1155.23,133.262 1103,114.71C973.163,68.587 833.61,53.489 700,92.148C631.997,111.823 568.767,141.656 507,175.774C488.12,186.203 469.949,198.06 452,209.999C445.496,214.326 435.926,223.652 428,224C439.214,215.547 453.598,208.42 463,198C347.055,259.901 257.375,369.872 167,462L166,461C173.001,452.397 184.224,443.495 188,433C184.748,437.733 181.017,441.904 177,446L176,445C269.176,337.523 371.186,235.605 494,162C523.012,144.613 553.006,128.993 584,115.438C592.996,111.504 608.079,101.406 618,103C614.665,104.618 612.109,105.909 610,109C618.928,104.122 637.814,93.363 648,95C575.756,120.113 501.149,157.026 442,206C489.63,178.621 533.982,147.298 584,123.801C666.194,85.188 758.508,63.658 849,59.078C891.6,56.922 933.792,59.603 976,65.454C994.827,68.064 1018.28,78.226 1037,76C988.571,68.585 943.905,53.562 894,53.008C869.385,52.734 844.539,52.421 820,54.136C809.47,54.872 794.033,60.143 784,57C956.283,19.951 1142.45,80.496 1290,166.978C1320.47,184.84 1349.71,204.289 1379,224.005C1392.48,233.08 1412.36,243.851 1422,257C1400.47,246.388 1383.31,227.302 1362,216C1361.77,217.315 1358.72,216.109 1354.78,213.935C1328.66,195.719 1301.64,178.44 1273.85,164.205C1265.96,159.139 1256.49,152.68 1248,152C1256.68,155.738 1265.3,159.826 1273.85,164.205C1275.29,165.132 1276.68,166.012 1278,166.801C1297.43,178.421 1316.91,189.76 1336,201.958C1338.23,203.381 1347.88,210.136 1354.78,213.935Z" style="fill:rgb(230,241,236);"/>
                        <path d="M682.667,84.333C682.222,84.778 683.278,84.722 683.333,84.667C683.778,84.222 682.722,84.278 682.667,84.333M675.667,86.333C675.222,86.778 676.278,86.722 676.333,86.667C676.778,86.222 675.722,86.278 675.667,86.333M666.667,89.333C666.222,89.778 667.278,89.722 667.333,89.667C667.778,89.222 666.722,89.278 666.667,89.333M290,370C278.758,378.293 266.686,389.067 258,400C266.007,383.79 286.21,369.714 299,356.997C338.537,317.687 387.768,273.082 438,248C409.753,269.441 382.722,291.317 355.846,314.242C343.145,325.077 326.161,335.839 317,350C341.802,338.379 364.308,312.877 386,296.033C426.425,264.643 469.258,235.776 514,210.888C628.004,147.472 766.526,105.424 898,112.078C953.781,114.901 1005.35,129.688 1060,138C1049.34,139.184 1037.36,133.738 1027,131.44C998.88,125.206 962.876,113.617 934,117C936.959,118.375 939.753,118.792 943,119C920.237,123.953 889.66,116 866,116C885.644,122.898 912.216,118.912 933,121.199C975.378,125.861 1016.91,134.018 1058,145.439C1208.09,187.155 1353.04,270.81 1474,368L1475,367C1435.12,330.99 1389.36,300.345 1345,270.226C1321.56,254.308 1297.8,233.771 1272,222C1286.32,224.633 1301.76,237.652 1314,245.314C1344.5,264.408 1374.47,284.404 1404,304.962C1497.05,369.751 1579.19,447.649 1664,522.441C1695.62,550.331 1725.56,581.497 1760,606C1741.9,598.173 1723.75,579.415 1709,566.44C1682.41,543.047 1653.26,520.548 1628.76,494.997C1616.1,481.798 1601.76,470.469 1588.04,458.416C1581.46,452.634 1578.2,445.069 1569,443C1570.29,434.385 1542.48,416.847 1536,411.178C1511.07,389.354 1485.17,368.608 1459,348.302C1447.4,339.298 1435.56,326.831 1422,321C1442.16,342.239 1468.57,359.418 1491,378.298C1532.55,413.274 1573.08,449.497 1615,484C1609.79,482.391 1605.99,478.618 1602,475L1601,476C1666.64,541.546 1739.14,598.72 1809.98,658.25C1886.03,722.162 1958.81,785.32 2044,837L2045,836C2039.05,831.795 2032.64,828.01 2026,825C2039.08,827.337 2050.83,838.683 2063,844C2057.25,836.61 2044.97,832.072 2037,827.211C2018.41,815.874 1998.89,804.318 1982.08,790.414C1926.14,744.151 1870.4,697.471 1816,649.32C1794.45,630.251 1769.43,613.23 1750,592C1763.53,599.017 1775.22,611.415 1787,621L1788,620C1752.49,582.641 1709.22,550.506 1671,515.782C1581.29,434.276 1489.77,356.288 1393.05,283.18C1315.99,224.934 1232.84,172.626 1141,140.107C1113.97,130.534 1085.47,118.36 1057,114C1066.57,120.3 1081.87,123.256 1093,126C1082.18,127.198 1069.48,121.11 1059,118.492C1033.5,112.118 1000.95,101.451 975,103L979,102C963.412,95.46 941.733,94.519 925,92.682C879.579,87.696 833.331,87.965 788,93.562C596.117,117.253 423.459,228.818 287.236,360.639C240.167,406.187 195.363,453.657 153.416,504C143.517,515.881 133.59,527.778 124.114,540C122.342,542.285 114.555,549.644 116.536,552.888C119.236,557.312 126.301,547.61 127.621,545.999C137.431,534.032 147.986,522.644 158.178,511C185.802,479.439 214.95,448.768 244.379,418.886C259.03,404.011 280.137,388.526 290,370M663.667,90.333C663.222,90.778 664.278,90.722 664.333,90.667C664.778,90.222 663.722,90.278 663.667,90.333M660.667,91.333C660.222,91.778 661.278,91.722 661.333,91.667C661.778,91.222 660.722,91.278 660.667,91.333M619,101C621.34,101.264 622.773,100.828 625,100C622.738,99.823 621.174,100.281 619,101Z" style="fill:rgb(230,241,236);fill-rule:nonzero;"/>
                        <path d="M563.538,203.152C563.671,203.338 563.791,203.583 564,204C496.032,231.34 430.352,275.926 376,325C416.208,298.871 452.781,267.465 494,242.481C562.397,201.024 638.933,171.007 717,153.913C755.732,145.433 795.383,141 835,141C855.13,141 881.707,147.704 901,143C855.282,136.939 810,133.617 764,140.14C744.25,142.941 724.55,145.685 705,149.698C696.621,151.418 685.477,156.708 677,155C728.978,142.183 780.245,130.849 834,129.04C939.474,125.491 1045.12,153.331 1141,195.56C1180.99,213.175 1236.95,231.686 1269,262C1248.94,254.908 1230.17,234.921 1209,232L1212,234C1210.09,233.605 1208.18,233.139 1206.28,232.608C1188.35,223.012 1170.08,213.833 1151.58,205.609C1131.99,194.274 1112.15,183.851 1091,183C1111.37,188.974 1131.61,196.736 1151.58,205.609C1169.75,216.124 1187.7,227.424 1206.28,232.608C1227.75,244.104 1248.72,256.203 1269,267.973C1371.55,327.495 1464.33,394.675 1557,468.522C1594.37,498.301 1631.19,529.034 1667,560.687C1682.41,574.304 1704.17,588.352 1715,606C1672.99,585.124 1643.59,533.448 1600,516C1657.59,553.919 1707.62,610.075 1761,654C1753.86,644.439 1741.85,638.337 1736,628C1783.67,657.096 1825.32,705.13 1865,744.019C1875.09,753.906 1884.86,764.122 1895,773.96C1896.46,775.381 1906.34,783.13 1901.33,785.378C1897.78,786.968 1893.1,781.044 1891,778.999C1881.98,770.215 1872.46,761.879 1863,753.569C1823.76,719.091 1785.99,682.854 1745.98,649.242C1614.88,539.089 1483.89,427.547 1338,337.094C1297.15,311.764 1256.65,284.508 1214,262.277C1203.83,256.974 1169.67,243.298 1166,233C1135.81,233.177 1104.92,196.338 1073,199C1082.84,201.861 1094.78,205.802 1103,212C1056.89,200.125 1012.96,181.759 966,171.687C851.811,147.2 731.699,147.74 622,191.216C556.808,217.053 496.077,251.922 438,291.005C420.236,302.959 403.099,315.75 386,328.627C379.786,333.307 370.919,343.296 363,344C372.474,335.869 384.136,328.749 392,319C291.35,382.932 211.617,482.78 129,567L128,566C135.092,557.284 145.805,548.479 150,538L146,543L145,542C230.656,447.535 317.08,353.392 422,279.562C446.656,262.212 472.077,246.567 498,231.206C506.416,226.219 521.12,214.811 531,215C526.438,217.768 521.697,220.105 518,224C533.586,217.272 548.626,210.188 563.538,203.152C563.291,202.806 562.998,202.666 562,202L566,201L565.352,202.296L564.777,202.568L563.538,203.152ZM341,354C341.818,353.727 342.181,353.636 342.409,353.409C342.636,353.181 342.727,352.818 343,352C341.365,352.545 341.545,352.365 341,354ZM352,344L353,345C360.373,338.343 368.259,332.223 376,326C367.799,327.021 357.629,338.225 352,344ZM475,259C466.348,265.519 456.993,270.982 448,277C456.757,277.626 469.642,265.474 476,260L475,259ZM576.655,196.975C606.335,183.062 636.003,169.81 669,160.427C684.141,156.122 712.639,144.986 728,150C692.008,153.495 654.675,166.812 621,179.443C608.714,184.051 590.522,195.866 576.655,196.975C575.031,197.737 573.407,198.5 571.78,199.266C570.204,201.281 567.809,202.094 565,203L565.352,202.296C567.496,201.285 569.638,200.274 571.78,199.266C572.27,198.64 572.68,197.897 573,197C574.178,197.089 575.399,197.076 576.655,196.975Z" style="fill:rgb(230,241,236);fill-rule:nonzero;"/>
                        <path d="M128.242,597.957C121.214,605.115 113.902,612.069 107.304,619.319C105.338,621.48 96.894,631.973 93.542,626.057C90.142,620.057 109.874,603.194 113.564,599C137.104,572.238 161.072,545.488 185.982,520C265.707,438.425 349.875,362.728 445,299.333C468.908,283.4 494.323,269.589 520,256.75C528.308,252.597 540.498,243.367 550,244C527.826,256.489 502.153,265.191 482,281C524.995,260.063 569.332,240.32 612,219L609,218C672.89,196.862 731.45,181.647 799,176.864C815.96,175.663 852.095,169.419 867,178C834.803,178 798.391,173.459 767,182C792.005,181.997 816.921,178.509 842,179.019C857.331,179.33 876.094,183.765 891,180L884,180L884,178C916.626,178.301 950.456,185.176 982,192.852C993.906,195.749 1008.22,196.917 1019,203C1013.26,202.412 1007.77,200.131 1002,201C1055.26,206.477 1111.95,236.327 1160.9,256.587C1336.5,329.267 1487.83,449.542 1633,570.54C1677.37,607.525 1718.71,647.387 1762,685.564C1772.27,694.623 1805.14,716.533 1807,730C1757.99,681.444 1703.17,637.698 1651,592.562C1638.37,581.636 1625.54,570.962 1613,559.942C1609.41,556.785 1601.18,552.29 1602,547C1584.17,537 1571.08,516.571 1552,509C1563.79,516.662 1571.5,527.351 1582.01,536C1598.61,549.663 1619.79,562.953 1633,580C1605.13,566.832 1582.52,538.432 1557,521C1558.19,522.186 1558.53,522.584 1559,524C1535.15,513.742 1512.87,489.907 1492,474.38C1446.92,440.833 1401.28,408.121 1354,377.709C1185.66,269.418 989.791,182.602 786,196.864C733.94,200.507 672.337,206.448 624,227L627,228C525.899,261.197 427.534,320.889 347,390L359.326,382.386C356.912,387.969 348.599,393.837 345.989,396.448C331.553,410.884 305.519,417.042 291.04,431.522C279.283,443.279 264.568,452.732 253.627,463.673C247.783,469.517 243.707,475.932 237.844,481.795C236.349,483.29 236.088,486.473 234.336,488.225C220.081,502.48 205.035,522.787 189.909,537.914C187.655,540.167 186.755,543.406 184.063,546.098C177.244,552.917 170.66,558.916 164.772,564.804C159.32,570.256 151.981,572.918 146.65,578.249L143.86,581.151L145,579C143.597,580.879 142.129,582.722 140.607,584.534C136.474,588.927 132.407,593.466 128.242,597.957Z" style="fill:rgb(230,241,236);"/>
                        <path d="M357.866,380.882L347,390C385.624,367.024 420.753,338.463 460,316L461,317C457.208,319.539 453.315,321.852 450,325C459.091,321.776 468.363,311.282 478,311C423.577,346.219 369.449,378.255 321,422C357.89,398.225 391.246,368.356 428,344.017C482.89,307.668 544.904,278.123 607,256.357C648.179,241.923 690.762,229.674 734,223.449C758.064,219.985 784.562,222.024 808,216C760.947,216 715.981,220.092 670,231.136C649.043,236.17 615.883,254.253 595,252C738.08,195.717 891.471,189.073 1039,232.562C1076.34,243.57 1131.35,254.098 1162,279C1142.3,273.222 1119.67,255.888 1099,256C1101.65,256.701 1103.73,257.481 1106,259C1104.68,258.894 1103.35,258.739 1102.01,258.525C1086.35,252.174 1070.33,246.221 1054.31,241.373C1036.15,233.535 1017.91,226.759 1001,230C1018.44,231.787 1036.37,235.889 1054.31,241.373C1070.61,248.404 1086.86,256.292 1102.01,258.525C1122.17,266.693 1141.75,275.524 1160,283.56C1270.84,332.378 1371.92,393.323 1468,467.335C1499.25,491.406 1530.68,515.154 1561,540.416C1573.56,550.881 1591.38,561.955 1600,576C1560.61,559.013 1533.14,513.926 1493,498C1528.1,523.89 1561.58,553.12 1595,581.158C1610.55,594.207 1628.59,613.559 1647,622C1637.75,615.092 1627.07,606.133 1620,597C1665.34,618.356 1706.43,669.475 1742,704.011C1751.99,713.706 1762.11,723.23 1771.99,733.04C1773.06,734.103 1781.62,742.809 1776.37,743.679C1772.35,744.344 1766.61,737.351 1764,734.962C1753.4,725.259 1742.7,715.688 1732,706.096C1688.52,667.128 1644.96,627.489 1599,591.438C1506.19,518.635 1412.62,445.964 1311,385.618C1259.74,355.176 1204.75,329.878 1151,304.211C1106.71,283.06 1060.93,262.318 1013,251.783C999.046,248.716 979.098,240.563 965,244C977.038,245.169 996.131,247.778 1006,255C915.881,230.134 817.114,227.553 725,240.28C691.273,244.94 657.077,247.972 625,261L628,262C597.775,260.085 558.242,284.629 532,297.75C450.261,338.62 379.712,391.809 306,445L305,444C314.05,436.588 324.712,429.168 332,420C305.727,435.494 282.423,459.404 259.981,479.905C218.7,517.615 178.61,556.974 139.677,597.118C122.506,614.822 107.597,638.078 88,653C92.968,643.642 103.803,637.216 107,627C104.891,630.234 102.578,633.126 100,636L99,635L102.089,631.234C103.844,629.355 105.528,627.367 107.171,625.327C119.122,611.991 133.514,598.832 142.298,583.939C143.72,583.294 145.361,582.708 146.061,581.308C148.673,576.084 156.254,574.015 159.155,568.213C160.121,566.282 163.072,563.829 164.767,562.134C165.929,560.972 166.022,559.009 167.106,557.925C170.413,554.618 173.504,551.059 176.926,547.636C185.397,539.166 191.776,528.577 200.309,520.045C213.153,507.201 227.658,496.437 240.06,484.035C243.068,481.027 244.931,476.826 247.543,474.214C253.973,467.783 261.407,459.414 267.652,453.17C269.224,451.598 269.903,448.58 271.393,447.09C279.367,439.116 287.986,431.432 295.711,423.707C301.957,417.462 306.713,411.77 313.015,405.469C314.696,403.787 317.219,403.134 319.094,401.26C323.245,397.109 331.208,396.161 335.462,391.907C336.185,391.184 337.715,391.524 338.268,390.971C342.55,386.689 349.507,381.787 357.866,380.882Z" style="fill:rgb(230,241,236);"/>
                        <path d="M1370.44,452.958C1389.98,466.397 1409.1,480.383 1428,492.888C1485.21,530.733 1551.64,568.917 1598,620L1597,621C1594.66,619.166 1592.8,617.962 1590,617C1644.56,649.4 1701.1,692.277 1746,737L1745,738C1672.14,680.907 1594.01,629.895 1519,575.669C1361.7,461.951 1190.42,345.521 1000,296.638C928.697,278.334 849.937,260.968 776,266.136C743.306,268.422 711.081,274.697 679,281.12C664.876,283.947 646.408,291.748 632,287C638.56,284.336 645.579,283.016 652,280C601.01,288.772 548.847,315.827 503,338.75C480.968,349.766 454.887,357.414 433.96,369.149C364.431,408.14 300.546,461.765 241,514.313C201.244,549.398 163.482,586.518 126,624C116.212,633.788 96.366,662.969 82,664C274.278,451.866 532.266,235.631 835,238.007C900.843,238.524 966.763,249.158 1030,267.287C1079.19,281.389 1126.39,300.162 1173,321.119C1198.59,332.624 1229.32,346.489 1249,367C1224.61,359.282 1201.37,343 1178,332.337C1152.78,320.827 1127.2,310.116 1101.22,300.485C1075.43,290.303 1049.25,281.46 1022.91,274.574C1004.28,268.157 982.162,260.48 966,263C985.002,265.697 1004,269.632 1022.91,274.574C1028.7,276.571 1034.16,278.446 1039,279.853C1060,285.967 1080.74,292.89 1101.22,300.485C1159.65,323.552 1216.09,353.491 1268,383.145C1303.16,403.233 1348.16,423.97 1375,455C1373.48,454.393 1371.96,453.709 1370.44,452.958C1362.05,447.182 1353.58,441.506 1345.02,436.093C1329.47,424.337 1313.65,411.893 1297,410C1313.38,417.163 1329.35,426.191 1345.02,436.093C1353.54,442.538 1361.99,448.776 1370.44,452.958ZM1402,484C1408.42,491.135 1418.26,498.991 1428.7,506.01C1439.14,513.029 1450.18,519.211 1459,523C1444.43,508.189 1420.58,493.296 1402,484Z" style="fill:rgb(230,241,236);"/>
                        <path d="M581.065,340.123C578.449,340.443 576.064,340.424 574,340C621.386,323.528 666.62,303.676 716,292.916C805.419,273.43 898.128,280.015 986,303.492C1016.27,311.578 1045.91,321.568 1075,333.2C1084.61,337.044 1101.38,340.838 1108,349C1091.67,342.195 1068.82,327.903 1051,328C1053.03,328.818 1053.73,329.252 1055,331L1052.42,330.205C1044.85,327.19 1037.2,324.278 1029.5,321.569C1006,311.894 979.055,300.206 959,304C982.134,306.605 1006.02,313.225 1029.5,321.569C1037.7,324.954 1045.49,328.091 1052.42,330.205C1070.62,337.443 1088.34,345.274 1105,352.562C1200.59,394.367 1287.07,444.97 1375,500.93C1410.12,523.283 1444.84,546.455 1479,570.263C1495.36,581.665 1515.46,592.272 1529,607C1488.95,597.32 1458.84,550.853 1419,541C1458.17,560.919 1494.39,593.135 1531,617.665C1544.27,626.556 1560.72,640.456 1576,645C1566.85,639.468 1556.39,632.749 1549,625C1565.36,627.726 1584.57,645.928 1598,656C1628.12,678.591 1663.58,697.742 1692,723C1697.48,727.87 1706.61,732.612 1712,738C1714.17,740.173 1712.42,745.138 1709,744C1694.22,739.075 1676.59,722.44 1664,713C1631.63,688.719 1595.95,666.635 1562,644C1493.95,598.63 1424.22,552.96 1354,512C1294.74,477.432 1238.65,438.105 1176,412C1133.35,394.228 1092.64,371.768 1050,354C1043.18,351.159 1012.37,336.502 1013,336C987.02,332.556 952.088,312.438 926,319C935.968,319.968 949.313,321.874 958,327C901.664,319.306 847.326,310.116 790,312.04C665.987,316.203 537.366,360.913 435,431C441.395,428.247 448.858,422.524 456,423C452.238,424.994 448.93,426.884 446,430C448.735,428.896 451.046,427.837 454,428C408.562,449.309 362.473,471.945 322,502L324.46,500.778L323.814,501.35C321.942,503.222 318.559,504.051 316.578,506.032C315.82,506.79 314.19,506.291 313.598,506.883C309.896,510.586 306.196,513.633 302.735,516.961C287.292,526.533 272.367,537.547 258,547.221C215.342,575.946 173.389,605.814 132,636.326C114.464,649.254 98.55,668.294 79,678L80,676C75.402,678.999 71.254,682.539 67,686L66,685C69.824,681.277 89.695,668.62 87,664C89.963,661.872 92.785,659.736 96,658L95,660L100,656L97,656C181.455,586.83 266.034,515.432 358,456.291C380.11,442.073 402.256,428.17 425,414.983C432.027,410.909 443.68,401.147 452,402C450.565,402.961 449.306,403.89 448.138,404.984C401.936,427.9 355.71,462.609 319,493C356.045,471.706 390.526,445.224 427,422.826C493.641,381.902 566.901,349.299 641,324.619C682.565,310.776 728.85,298.175 773,298L773,296C726.574,296.429 681.344,306.287 637,319.737C631.782,321.32 624.623,324.504 616.845,327.906C605.771,329.162 591.921,335.258 581.065,340.123Z" style="fill:rgb(230,241,236);"/>
                        <path d="M329.686,496.427C327.106,498.254 324.542,500.113 322,502C406.581,460.602 483.382,412.79 574,383.555C614.818,370.386 656.646,358.689 699,351.64C721.854,347.837 747.982,349.889 770,343C762.361,343 754.503,343.61 747,342C746.691,343.816 714.113,345.333 709,346C678.025,350.039 647.189,356.002 617,364.144C608.591,366.411 587.774,375.941 580,373C711.633,329.405 844.035,316.326 980,347.302C1016.03,355.51 1066.08,362.865 1097,384C1079.85,380.624 1060.56,366.579 1043,368C1032.54,363.454 1008.11,358.583 988.407,354.493L986.608,354.076L978.793,352.467L975,351.667C967.753,350.056 955.943,345.077 949,348C958.879,348.959 968.828,350.484 978.793,352.467L988.407,354.493C1025.53,362.793 1062.65,376.648 1097,389.557C1199.76,428.168 1295.33,478.375 1386,540.538C1415.87,561.015 1446.76,579.942 1476,601.368C1486.83,609.302 1502.23,616.887 1510,628C1472.43,616.133 1443.22,573.668 1405,564C1440.45,584.214 1473.33,611.58 1507,634.726C1520.16,643.772 1536.59,658.726 1552,663C1544.19,657.703 1535.26,652.095 1529,645C1572.65,663.162 1612.94,702.464 1650,731.219C1659.34,738.469 1668.6,745.83 1678,753C1679.58,754.212 1687.96,759.878 1683.89,762.507C1678.43,766.031 1649.29,740.626 1644,736.86C1603.55,708.077 1562.63,679.965 1522,651.438C1402.69,567.669 1276.36,489.939 1142,433.096C1097.25,414.162 1051.34,391.407 1004,380C1004.6,378.804 1004.47,379.023 1006,378C978.124,374.033 943.202,358.275 915,364C927.358,364.741 942.75,366.645 954,372C929.649,370.446 905.5,363.849 881,362.136C772.448,354.548 658.977,361.473 556,399.069C495.233,421.255 435.596,449.032 379,480.322C361.953,489.747 344.753,498.839 328,508.795C321.679,512.552 312.566,520.365 305,520C314.298,514.35 325.525,508.984 333,501C322.387,505.378 311.982,511.151 301.812,517.549C305.85,513.42 310.007,508.375 313.889,504.493C316.132,502.25 321.26,501.889 323.424,499.725C324.497,498.652 327.149,497.232 329.686,496.427Z" style="fill:rgb(230,241,236);"/>
                        <path d="M781,392C781.98,393.783 781.907,393.594 784,394C641.309,397.9 498.621,446.519 371,508.903C323.842,531.955 280.794,564.101 233,585C234.186,583.814 234.584,583.472 236,583C233.433,582.851 232.1,583.517 230,585L233,585C223.611,592.967 214.592,599.449 203,604L206,602C199.107,602.18 193.318,609.541 190,615L196,613C189.603,620.879 174.418,630.594 164,630C169.314,638.503 154.183,644.545 148,648.667C125.986,663.343 104.518,678.711 83,694C93.249,693.739 105.126,682.748 114,678L109,683C113.394,683.219 116.952,681.585 121,680C120.014,681.479 120,681.203 120,683C140.235,672.686 158.682,655.538 180,648L178,649C179.809,649.574 180.069,649.465 182,649C180.127,645.79 191.323,638.526 195,639C193.814,640.186 193.416,640.528 192,641L193,642C227.494,624.693 259.705,601.998 294,584.281C383.576,538.005 477.193,499.349 573,468L570,467C588.77,459.385 611.252,457.621 631,453.555C653.136,448.996 675.231,441.573 698,440C694.331,438.85 690.775,439.65 687,440C691.589,438.369 696.134,437.311 701,437L700,439L707,440C707,436.86 717.709,437.006 721,436C733.61,432.147 749.719,433.291 763,432C767.356,431.576 775.528,435.014 776,431C778.89,433.234 785.41,434.698 786,430L854,431L851,433C854.87,434.311 858.944,434 863,434C860.654,432.766 858.636,432.306 856,432C867.05,430.233 881.251,432.05 892,435C890.258,436.111 889.881,436.27 889,438L899,438C896.936,437.275 895.195,437.091 893,437C907.186,433.431 918.599,442.398 931,444L928,443C931.091,442.503 933.885,442.737 937,443L934,442C956.383,437.678 985.834,453.187 1008,457L1004,458C1008.41,461.811 1015.39,459.93 1021,461.333C1034.43,464.691 1048.16,469.996 1061,475.167C1063.78,476.287 1080.21,481.622 1078,483C1115.57,493.369 1151.56,513.9 1186,531.961C1266.65,574.252 1343.08,624.348 1418,676.043C1447.7,696.538 1478.14,715.953 1507.92,736.318C1523.14,746.729 1541.13,763.087 1559,768C1556.59,765.225 1554.02,763.092 1551,761C1557.94,762.279 1563.86,765.767 1571,767C1544.27,735.45 1502.14,720.804 1475,690L1523,718L1524,717C1506.14,697.733 1482.26,683.96 1461,668.562C1421.86,640.217 1382.36,612.103 1342,585.527C1224.33,508.047 1102.54,435.827 963,406.482C902.722,393.807 842.267,392 781,392Z" style="fill:rgb(230,241,236);fill-rule:nonzero;"/>
                        <path d="M276.497,615.129L276.156,615.574L272.485,617.842C269.855,619.532 267.224,621.222 264.594,622.912L257.273,627.817C256.446,628.073 255.702,628.437 255.141,628.997C254.988,629.15 254.776,629.241 254.536,629.299L252.974,629.526C252.733,629.585 252.521,629.676 252.368,629.829C250.996,631.201 248.588,631.39 247.098,632.88C244.911,635.068 242.152,637.272 239.887,639.536C236.812,642.612 232.311,645.448 228.793,648.966C227.952,649.807 226.434,649.661 225.465,650.63C223.973,652.122 222.07,653.193 220.473,654.791C220.045,655.218 219.591,655.552 219.125,655.834C190.347,667.729 161.555,680.474 135,695.713C118.993,704.9 85.84,733.417 67,731C80.205,723.41 93.564,714.789 106,706C95.074,710.704 75.915,725.812 64,724C71.863,720.615 79.926,716.835 87,712C83.695,713.406 80.634,715.183 77,715C110.811,695.745 147.018,681.297 181,662.554C373.779,556.23 575.403,450 801,450C866.62,450 934.567,460.34 997,480.899C1018.86,488.098 1045.61,495.056 1063,511C1043.18,507.476 1023.38,497.292 1004,491.472C965.872,480.018 926.618,470.349 887,465.799L886.971,465.796L899.551,467.663C962.445,477.843 1025.09,500.384 1082,523.978C1110.65,535.854 1148.65,548.871 1170.62,571.605C1199.69,586.99 1228.02,604.912 1255,620.118C1290.67,640.224 1332.15,660.33 1360,691L1353,689C1383.45,704.206 1413.32,725.95 1441,745.713C1453.77,754.832 1470.67,765.421 1479,779C1422.3,752.818 1369.34,707.745 1316,674.824C1191.77,598.15 1059.23,527.224 915,497.698C840.487,482.444 758.424,478.332 683,484.535C641.377,487.958 601.457,502.794 560,507C564.496,501.597 573.736,500.816 580,498C527.625,506.88 475.264,533.268 426,552.392C416.212,556.192 405.299,554.953 395.882,558.166C357.591,571.233 313.504,592.521 276.877,615.129L276.497,615.129ZM1266,635C1275.55,644.459 1290.96,655.461 1307.16,665.222C1323.36,674.982 1340.33,683.503 1353,688C1332.22,668.262 1292.98,644.711 1266,635ZM1146.81,559.745C1133.06,551.619 1118.63,543.063 1106,544C1119.68,548.077 1133.31,553.495 1146.81,559.745C1155.33,564.783 1163.59,569.654 1171,572C1170.88,571.869 1170.75,571.738 1170.62,571.605C1162.73,567.43 1154.79,563.442 1146.81,559.745Z" style="fill:rgb(230,241,236);"/>
                        <path d="M264.821,624.679C300.508,609.383 336.215,594.872 373,582.214C384.889,578.123 405.527,566.655 418,569C415.365,570.099 413.211,571.198 411,573C453.749,565.627 494.481,544.21 538,536.753C538.512,536.665 539.039,536.567 539.579,536.46C548.162,535.599 558.186,533.011 567.417,530.447C571.681,529.986 575.672,530.033 579,531C534.032,537.378 490.559,552.437 447,564.608C395.531,578.989 341.268,595.177 294,621C368.594,599.309 439.322,567.295 515,547.636C551.115,538.255 588.063,529.119 625,523.602C646.206,520.434 669.303,521.32 690,516C655.163,516 621.316,517.911 587,525.222C581.766,526.337 574.849,528.384 567.417,530.447C558.083,531.457 547.44,534.902 539.579,536.46C534.814,536.938 530.494,536.885 527,536C643.446,507.9 756.529,488.196 876,511.302C905.932,517.091 945.581,520.9 972,537C955.976,534.546 938.275,523.198 922,525C924.266,525.416 925.975,525.915 928,527C923.753,527.236 919.424,526.9 915.036,526.189C908.809,524.593 902.51,522.992 896.173,521.482C877.928,515.888 859.322,508.686 842,513C859.862,513.636 878.171,517.193 896.173,521.482C902.528,523.431 908.839,525.185 915.036,526.189C920.418,527.568 925.747,528.944 931,530.254C1029.72,554.874 1115.29,600.669 1202,652.259C1242.47,676.337 1296.81,702.374 1329,737C1295.78,728.975 1270.02,693.167 1237,685C1268.48,701.011 1298.46,725.739 1328,745.335C1339.32,752.847 1355.55,766.805 1369,769C1361.36,764.948 1351.03,759.125 1346,752C1383.89,767.222 1417.81,798.768 1451,822.035C1454.76,824.668 1485.02,844.157 1480.81,847.978C1476.76,851.65 1452.27,832.492 1448,829.665C1414.54,807.491 1380.88,785.45 1347,763.931C1264.44,711.498 1180.33,654.22 1091,613.882C1045.44,593.308 998.104,575.554 951,558.827C932.281,552.179 909.424,549.214 892,540C893.797,540 893.522,539.986 895,539C873.248,536.942 840.992,524.559 820,532C829.207,532.175 840.472,533.411 849,537C733.572,530.078 615.396,526.726 503,559.74C448.75,575.675 395.46,594.338 342,612.67C326.06,618.136 296.5,636.659 280,634C289.069,630.432 298.506,626.783 307,622C289.846,622.775 270.788,634.799 255,641.205C214.787,657.52 172.645,674.109 135,695.713C118.993,704.9 85.84,733.417 67,731C80.205,723.41 93.564,714.789 106,706C95.074,710.704 75.915,725.812 64,724C71.863,720.615 79.926,716.835 87,712C83.695,713.406 80.634,715.183 77,715C110.811,695.745 147.018,681.297 181,662.554L215.094,643.831C215.652,643.825 216.292,643.911 216.569,643.635C217.119,643.085 218.734,643.602 219.284,643.053C219.59,642.747 220.736,642.958 221.029,642.665C221.438,642.256 222.965,642.474 223.355,642.084C224.087,641.352 225.458,641.129 226.651,640.532C226.957,640.38 227.993,640.354 228.202,640.145C228.891,639.456 230.428,639.276 231.11,638.594C231.342,638.362 232.401,638.467 232.662,638.206C233.635,637.233 235.449,637.394 236.927,636.655C239.553,635.342 244.272,634.35 246.233,632.389C246.745,631.878 248.073,631.906 248.56,631.42C248.851,631.129 249.82,631.517 250.111,631.226C250.911,630.426 252.524,630.558 253.407,629.675C253.724,629.358 254.771,629.668 255.152,629.287C256.322,628.117 259.217,628.324 260.387,627.155C261.084,626.458 262.528,626.565 263.101,625.991C263.529,625.563 264.14,625.107 264.821,624.679Z" style="fill:rgb(230,241,236);"/>
                        <path d="M129.523,730.612L135,728C117.555,732.295 100.424,737.976 83,742.33C79.901,743.105 67.474,747.826 66.867,741.74C66.421,737.267 73.909,735.542 77,734.56C88.821,730.804 101.142,726.171 112,720C108.644,720.968 105.508,722.356 102,722C176.968,692.587 252.189,661.969 329,637.643C347.616,631.747 366.388,626.511 385,620.644C392.225,618.366 403.529,612.917 411,615C407.995,616.026 405.503,617.041 403,619C437.133,611.608 474.038,595.445 510.649,588.176C510.43,588.121 510.214,588.062 510,588C608.802,563.683 708.373,553.25 809,573.307C835.138,578.516 879.629,581.369 901,598C886.264,595.051 871.152,587.015 856,587C857.9,587.87 858.737,588.375 860,590C838.997,585.851 808.203,571.831 787,577C825.245,578.374 865.561,592.609 902,603.256C980.965,626.328 1056.83,655.641 1130,693.639C1153,705.584 1176.83,716.081 1200,727.752C1209.3,732.438 1223.64,737.557 1230,746C1202.97,737.478 1173.09,713.466 1145,711C1182.16,727.606 1224.35,762.429 1265,768C1258.57,764.588 1251.67,761.603 1246,757C1280.72,764.006 1315.46,789.833 1346,807C1349.4,808.91 1378.82,824.167 1373.89,827.577C1368.88,831.041 1346.2,815.819 1341,813.255C1307.44,796.717 1273.46,780.958 1240,764.25C1141.44,715.04 1038.64,672.217 934,637.995C899.321,626.653 864.673,611.633 829,604L828,603C829.797,603 829.522,602.986 831,602C809.907,599.841 782.895,589.713 762,595C770.868,595.314 780.903,596.146 789,600C749.342,598.589 709.888,592.451 670,592.008C587.059,591.086 507.443,603.672 428,627.309C407.444,633.425 384.558,637.258 365,646C378.985,643.643 403.511,632.782 417,637C396.482,641.39 374.477,645.04 354.175,651.651L354,651L337.901,656.71L335,657L336.433,657.23L129.523,730.612Z" style="fill:rgb(230,241,236);"/>
                        <path d="M342.842,655.687L342,656C366.765,652.487 391.457,643.89 416,638.562C424.653,636.684 438.45,631.327 447,634C443.01,634.87 439.556,635.972 436,638C443.836,636.041 451.637,635.554 459,632C455.195,632.503 451.705,633.21 448,632C451.462,631.664 454.68,631.041 458,630L455,629C507.01,618.298 559.665,611 613,611L613,613C592.168,613 567.081,612.206 547,618C570.815,617.964 602.09,619.233 625,613C638.191,618.073 687.338,601.427 706,615C699.992,615 693.855,614.518 688,616C837.841,616.004 991.49,670.201 1122,740.665C1162.27,762.407 1212.81,784.369 1247,815L1246,816C1211.97,791.772 1172.34,774.059 1136,753.576C1133.43,752.126 1124.82,748.37 1117.03,744.304C1113.12,741.401 1108.61,738.428 1103.83,735.555C1103.05,734.598 1102.72,733.732 1103,733C1091.17,729.258 1079.5,718.522 1067,718C1077.05,721.181 1091.34,728.033 1103.83,735.555C1105.92,738.1 1111.25,741.287 1117.03,744.304C1119.66,746.249 1122.01,748.166 1124,750C1057.89,729.501 995.578,695.305 929,674.054C817.95,638.607 696.031,623.744 580,631.864C542.239,634.506 492.726,629.632 457,642C459.717,641.86 462.317,641.564 465,642C419.103,652.723 365.017,653.911 322,674L326.038,673.52C324.987,673.882 324.085,674.361 323.592,674.855C323.099,675.348 321.719,674.954 321.226,675.447C320.428,676.245 317.885,675.831 317.087,676.629C316.791,676.925 315.608,676.334 315.313,676.629C314.354,677.588 309.162,678.108 307.625,678.108C306.918,678.108 303.64,677.658 303.19,678.108C301.676,679.622 297.377,678.501 295.207,679.586C294.771,679.804 293.468,679.255 293.137,679.586C292.003,680.72 288.55,679.738 287.223,681.064C284.93,683.358 278.362,682.83 275.692,685.5C274.979,686.213 273.423,685.599 272.44,686.091C270.294,687.164 267.015,687.376 265.639,688.752C265.096,689.295 263.192,689.129 262.682,689.639C262.498,689.824 262.211,689.907 261.874,689.939L259.647,689.93C259.31,689.962 259.023,690.046 258.839,690.23C257.206,691.863 252.498,691.183 250.264,692.3C249.256,692.804 247.726,691.881 247.012,692.596C246.617,692.99 245.04,692.202 244.646,692.596C243.858,693.384 241.591,692.694 240.802,693.483C240.563,693.722 238.813,693.483 238.437,693.483C237.124,693.483 233.779,693.706 233.115,694.37C233.004,694.481 232.81,694.508 232.574,694.495L230.994,694.245C230.759,694.231 230.565,694.259 230.454,694.37C229.233,695.59 225.887,694.501 224.54,695.848C223.253,697.136 220.345,696.495 218.922,697.918C216.671,700.169 210.708,700.695 207.391,702.353C205.43,703.333 201.925,702.497 200.295,704.127C198.112,706.31 193.213,705.887 191.129,707.971C190.808,708.292 189.495,708.049 189.059,708.267C187.775,708.909 186.247,709.305 185.511,710.041C184.69,710.862 182.316,709.983 181.371,710.928C179.225,713.074 173.904,712.186 171.614,714.476C171.034,715.056 169.437,714.584 168.953,715.067C166.936,717.084 162.158,716.244 160.083,718.32C159.485,718.918 157.082,718.068 156.535,718.615C155.352,719.798 152.691,719.502 151.508,720.685C151.229,720.965 149.981,720.733 149.734,720.981C148.601,722.114 145.841,721.621 144.708,722.755C142.739,724.724 138.924,724.759 136.429,726.007C135.615,726.414 134.839,726.414 134.359,726.894C134.014,727.239 132.634,726.549 132.289,726.894C130.885,728.299 128.083,727.552 126.671,728.964C125.494,730.141 123.672,730.871 121.765,731.496C108.837,735.094 96,739.081 83,742.33C79.901,743.105 67.474,747.826 66.867,741.74C66.421,737.267 73.909,735.542 77,734.56C88.608,730.872 100.697,726.338 111.404,720.323L111.846,720.199L112.217,720.133L112.333,720.063L114.542,719.446L114.632,719.438L114.726,719.395L115.832,719.086C116.504,719.126 117.415,719.4 117.801,719.207C120.492,717.861 124.403,718.518 126.08,716.841C126.385,716.536 127.845,716.85 128.15,716.546C129.107,715.589 131.215,715.846 132.289,714.772C132.569,714.492 133.816,714.723 134.063,714.476C135.043,713.496 137.421,713.489 138.688,712.703L140.389,712.228C140.606,712.219 140.785,712.189 140.864,712.11L140.899,712.085L342.842,655.687Z" style="fill:rgb(230,241,236);"/>
                        <path d="M268.131,690.229C270.788,687.572 332.171,673.358 334.226,672.543C393.943,665.049 452.545,652.362 513,648.136C666.451,637.41 825.335,660.773 969,715.562C1013.73,732.622 1056.36,753.084 1099,774.745C1114.01,782.369 1140.19,791.998 1150,806C1129.24,795.634 1100.26,769.475 1077,768C1098.35,777.191 1120.87,789.803 1140,803L1139,804C1107.66,784.994 1072.46,769.261 1039,754.226C1025.68,748.241 1007.68,737.553 993,737C1010.06,742.929 1032.22,750.081 1046,762C1006.89,749.669 964.371,719.307 923,717L922,716L924,715L919,716C918.857,716.572 880.344,700.328 873,704C874.853,704 874.35,703.7 875,705L869,704C870.881,701.313 847.414,694.49 843,696C846.196,696.695 849.12,697.435 852,699C836.399,696.627 816.256,684.621 801,687C803.636,687.306 805.654,687.766 808,689C798.97,690.265 771.077,687.023 765,680C764.152,683.878 758.808,682.618 756,681L758,680C755.283,680.14 752.683,680.436 750,680L752,679C747.405,678.727 742.51,678.751 738,678L740,677C709.123,678.844 676.921,672.298 646,670.136C606.481,667.373 565.538,668.077 526,670.078C395.533,676.681 268.212,706.506 145,748.886C118.635,757.954 92.714,768.359 67,779.142C60.29,781.955 44.502,792.29 37.314,789.921C32.062,788.189 38.023,783.396 40,782C34.491,783.606 21.999,779.236 29.561,772.199C36.972,765.303 52.618,761.368 62,757.599C83.502,748.962 132.809,729.552 134.526,729.333C134.526,729.333 151.249,726.565 152.346,725.468C153.379,724.435 171.546,712.77 171.546,712.77C171.683,712.778 211.203,699.272 211.68,698.796C215.282,695.194 233.567,694.718 237.018,691.267C237.834,690.451 267.008,691.352 268.131,690.229Z" style="fill:rgb(230,241,236);"/>
                        <path d="M399,693C412.678,697.465 436.564,691.5 451,690.217C475.159,688.072 498.119,691.964 522,692C506.512,695.919 487.964,693.27 472,694.078C442.937,695.549 413.872,699.843 385,703.325C328.188,710.177 274.089,729.018 218,737C254.378,721.627 296.078,712.92 335,707L333,708C335.431,708.53 337.521,708.291 340,708L337,707C339.735,706.666 342.251,706.794 345,707L342,706C373.221,702.192 405.445,696 437,696C396.777,682.374 349.725,711.426 310,710C312.651,708.582 315.075,707.691 318,707C301.282,701.765 268.018,715.427 251,719.335C183.618,734.81 119.271,762.942 56,790C58.496,790.207 60.567,789.632 63,789C57.629,792.27 51.927,794.902 46,797C59.429,799.164 79.027,784.758 92,780.959C137.093,767.755 180.921,748.86 227,739C223.419,743.602 216.403,744.465 211,746C224.067,749.31 246.89,738.981 260,735.897C295.862,727.461 332.588,719.804 369,714.353C457.705,701.075 545.794,713.645 635,714C629.093,711.251 622.298,711.376 616,710C633.145,705.729 654.399,711.93 672,712C670.521,712.986 670.797,713 669,713C682.628,719.325 700.328,720.295 715,723.534C749.57,731.166 784.276,737.141 819,743.701C890.772,757.257 964.676,781.929 1033,807.557C1061.12,818.104 1089.08,828.901 1117,839.998C1121.2,841.668 1140.07,852.044 1143.67,848.664C1148.26,844.354 1122.03,833.651 1119,832.186C1093.37,819.807 1061.9,800.059 1033,798C1038.11,801.51 1044.29,803.615 1050,806C1014.72,804.672 977.402,779.356 944,769C958.948,768.903 972.854,780.692 988,779L987,781C998.138,781.008 1007.85,789.571 1019,789C990.952,767.619 943.387,758.358 910,747.957C821.388,720.35 724.907,691.373 631,691C651.816,685.733 674.922,697.533 696,696C694.494,695.317 693.685,695.174 692,695C704.263,692.13 717.649,698.556 730,699C709.267,687.767 676.104,689.207 653,685.858C567.361,673.444 484.105,683.455 399,693Z" style="fill:rgb(230,241,236);fill-rule:nonzero;"/>
                        <path d="M742.835,756.89C742.862,756.908 742.89,756.927 742.918,756.945C742.945,756.963 743.033,757.004 743,757C742.72,756.966 742.445,756.902 742.167,756.853C741.612,756.756 741.056,756.659 740.5,756.563C738.552,756.228 736.603,755.903 734.652,755.589C728.776,754.643 722.886,753.791 716.984,753.023C699.968,750.81 682.865,749.293 665.739,748.243C632.71,746.219 599.602,745.928 566.521,745.936C556.854,745.938 547.188,745.967 537.521,745.985C534.138,745.992 530.755,745.997 527.372,745.999C525.175,746 522.978,745.987 520.781,746.042C516.957,746.138 513.137,746.378 509.324,746.675C504.659,747.038 500.001,747.49 495.345,747.947C488.485,748.62 481.625,749.31 474.749,749.814C468.638,750.261 462.512,750.57 456.383,750.54C453.297,750.525 450.211,750.422 447.134,750.188C444.291,749.972 441.454,749.645 438.644,749.154C436.7,748.815 434.77,748.396 432.866,747.875C432.204,747.694 431.545,747.5 430.891,747.292C430.692,747.229 430.493,747.165 430.295,747.099C430.246,747.083 430.197,747.066 430.147,747.05C430.098,747.033 429.957,747.029 430,747C430.003,746.998 430.552,746.929 430.555,746.929C431.018,746.871 431.482,746.818 431.946,746.769C433.721,746.582 435.502,746.455 437.284,746.362C443.341,746.045 449.415,746.119 455.463,745.635C457.847,745.445 460.226,745.167 462.579,744.739C463.36,744.597 464.138,744.439 464.911,744.262C465.139,744.21 465.366,744.156 465.592,744.101C465.683,744.079 465.774,744.057 465.864,744.034C465.91,744.023 466.041,744.022 466,744C464.681,743.306 463.289,742.749 462,742C461.841,741.908 462.367,741.997 462.551,741.995C462.736,741.994 462.92,741.993 463.105,741.992C464.041,741.987 464.977,741.987 465.913,741.991C468.636,742.001 471.358,742.042 474.081,742.096C482.362,742.258 490.642,742.527 498.925,742.56C503.641,742.578 508.358,742.523 513.07,742.322C517.325,742.141 521.577,741.842 525.808,741.347C528.777,741 531.736,740.556 534.669,739.974C535.672,739.774 536.671,739.559 537.666,739.325C537.934,739.262 538.202,739.198 538.469,739.132C538.558,739.111 538.646,739.089 538.735,739.067C538.823,739.045 539.091,739.007 539,739C538.634,738.971 538.265,739 537.898,739.001C537.164,739.001 536.429,739.003 535.695,739.005C533.492,739.011 531.29,739.024 529.088,739.044C522.856,739.099 516.626,739.206 510.396,739.361C490.302,739.864 470.222,740.879 450.175,742.328C407.222,745.433 364.434,750.532 321.832,756.782C308.075,758.8 294.336,760.938 280.611,763.168C275.909,763.932 271.208,764.706 266.509,765.491C264.055,765.901 261.6,766.305 259.148,766.73C248.391,768.594 237.799,771.302 227.279,774.195C211.769,778.461 196.366,783.187 180.639,786.614C173.041,788.269 165.366,789.617 157.625,790.392C155.615,790.593 153.6,790.755 151.583,790.873C150.937,790.911 150.292,790.944 149.645,790.973C149.502,790.979 149.359,790.985 149.215,790.991C149.143,790.994 149.068,791.024 149,791C148.973,790.99 149.039,790.957 149.059,790.936C149.099,790.893 149.139,790.851 149.179,790.809C149.299,790.683 149.423,790.56 149.548,790.439C149.906,790.096 150.285,789.775 150.679,789.474C151.88,788.559 153.218,787.839 154.6,787.241C156.183,786.557 157.83,786.029 159.49,785.565C162.153,784.821 164.861,784.252 167.531,783.534C168.398,783.301 169.261,783.051 170.112,782.767C170.802,782.537 171.481,782.278 172.165,782.033C172.996,781.734 173.829,781.441 174.664,781.153C177.6,780.14 180.557,779.188 183.524,778.271C192.759,775.414 202.094,772.891 211.293,769.92C214.799,768.787 218.285,767.59 221.729,766.282C222.55,765.97 223.37,765.652 224.186,765.327C224.322,765.273 224.458,765.218 224.593,765.164C224.729,765.109 225.046,765.139 225,765C224.953,764.859 224.707,765.042 224.56,765.063C224.413,765.084 224.266,765.105 224.119,765.126C223.089,765.274 222.06,765.425 221.031,765.579C217.026,766.179 213.029,766.827 209.04,767.524C191.721,770.549 174.548,774.474 157.692,779.48C147.186,782.601 136.802,786.145 126.62,790.2C123.556,791.42 120.51,792.687 117.486,794.003C116.53,794.419 115.576,794.84 114.625,795.266C114.218,795.449 113.811,795.632 113.405,795.816C113.27,795.877 113.125,795.919 113,796C112.959,796.026 113.096,795.99 113.144,795.985C113.24,795.974 113.337,795.963 113.433,795.951C113.773,795.909 114.113,795.859 114.451,795.803C115.344,795.655 116.23,795.464 117.11,795.252C119.027,794.791 120.92,794.237 122.833,793.761C124.171,793.427 125.523,793.135 126.891,792.954C128.012,792.806 129.147,792.735 130.277,792.796C130.662,792.817 131.047,792.853 131.43,792.907C131.549,792.923 131.668,792.942 131.787,792.962C131.834,792.97 131.882,792.978 131.929,792.987C131.953,792.991 132.019,792.986 132,793C131.907,793.07 131.794,793.11 131.691,793.165C131.486,793.274 131.279,793.383 131.073,793.491C130.351,793.87 129.625,794.242 128.896,794.607C126.501,795.806 124.07,796.934 121.612,797.999C113.342,801.583 104.783,804.456 96.156,807.049C90.97,808.608 85.754,810.067 80.537,811.52C71.618,814.004 62.687,816.468 53.901,819.396C52.028,820.02 50.162,820.665 48.306,821.336C46.496,821.99 44.699,822.682 42.889,823.334C39.993,824.379 37.074,825.367 34.119,826.232C33.234,826.492 32.345,826.74 31.452,826.972C29.853,827.387 28.237,827.758 26.603,828.007C25.464,828.18 24.298,828.31 23.145,828.237C22.966,828.226 22.788,828.209 22.61,828.184C22.5,828.169 22.391,828.151 22.282,828.129C21.689,828.011 21.035,827.774 20.706,827.229C20.661,827.156 20.623,827.078 20.593,826.998C20.547,826.875 20.519,826.746 20.505,826.616C20.415,825.776 20.865,824.982 21.39,824.365C21.502,824.233 21.621,824.105 21.743,823.982C21.897,823.827 22.057,823.679 22.221,823.536C23.118,822.758 24.138,822.125 25.174,821.549C26.561,820.779 28.005,820.115 29.465,819.497C30.371,819.113 31.285,818.749 32.203,818.398C33.415,817.935 34.636,817.495 35.861,817.068C37.874,816.368 39.901,815.707 41.927,815.046C42.796,814.762 43.665,814.478 44.531,814.187C45.148,813.979 45.765,813.767 46.374,813.536C47.049,813.28 47.709,812.985 48.374,812.706C49.749,812.129 51.127,811.559 52.508,810.996C56.651,809.308 60.82,807.685 65.007,806.111C74.319,802.613 83.721,799.361 93.153,796.203C104.706,792.333 116.301,788.591 127.842,784.685C130.194,783.889 132.544,783.086 134.89,782.273C137.247,781.457 139.601,780.632 141.96,779.819C145.944,778.446 149.934,777.091 153.931,775.754C168.048,771.035 182.244,766.549 196.513,762.31C220.895,755.068 245.492,748.543 270.279,742.838C294.008,737.377 317.912,732.668 341.96,728.85C356.663,726.515 371.419,724.515 386.217,722.892C390.411,722.432 394.609,722.003 398.81,721.605C401.675,721.333 404.541,721.067 407.413,720.868C411.293,720.6 415.18,720.432 419.068,720.341C428.989,720.108 438.914,720.372 448.826,720.771C464.07,721.385 479.308,722.332 494.569,722.367C507.951,722.398 521.381,721.722 534.582,719.426C537.502,718.918 540.408,718.332 543.295,717.658C543.927,717.511 544.559,717.359 545.189,717.203C545.37,717.158 545.55,717.114 545.73,717.068C545.82,717.046 545.948,717.077 546,717C546.042,716.938 545.85,717 545.775,717C545.549,717.001 545.322,717.003 545.096,717.006C544.556,717.013 544.017,717.025 543.477,717.041C541.784,717.093 540.093,717.183 538.401,717.277C535.456,717.44 532.511,717.618 529.561,717.671C527.232,717.712 524.897,717.678 522.575,717.476C520.878,717.329 519.185,717.092 517.524,716.71C516.965,716.582 516.41,716.437 515.861,716.274C515.68,716.22 515.5,716.164 515.321,716.106C515.249,716.083 515.178,716.06 515.107,716.036C515.071,716.024 514.963,716.003 515,716C515.19,715.985 515.381,716 515.571,716C516.143,716.001 516.714,716.001 517.285,716.003C518.994,716.007 520.704,716.017 522.414,716.031C527.514,716.074 532.613,716.162 537.711,716.292C553.713,716.701 569.704,717.534 585.666,718.739C610.516,720.615 635.292,723.392 659.981,726.772C688.758,730.712 717.416,735.463 746.021,740.484C758.553,742.684 771.075,744.935 783.596,747.196C788.064,748.003 792.532,748.81 797,749.618C798.827,749.948 800.652,750.291 802.475,750.645C808.607,751.838 814.714,753.165 820.796,754.592C834.961,757.917 848.99,761.79 862.976,765.793C867.872,767.194 872.763,768.612 877.655,770.027C879.767,770.639 881.878,771.258 883.994,771.857C885.484,772.279 886.979,772.685 888.474,773.086C894.816,774.785 901.186,776.397 907.438,778.411C911.766,779.805 916.051,781.384 920.147,783.367C922.26,784.39 924.323,785.523 926.286,786.813C926.723,787.1 927.154,787.394 927.58,787.697C927.674,787.764 927.768,787.831 927.861,787.899C927.907,787.932 928.025,787.948 928,788C927.975,788.053 927.885,787.98 927.827,787.97C927.596,787.929 927.366,787.885 927.137,787.838C926.156,787.641 925.185,787.398 924.22,787.132C920.474,786.098 916.817,784.685 912.972,784.037C911.428,783.777 909.858,783.648 908.292,783.728C907.792,783.754 907.293,783.8 906.797,783.869C906.619,783.894 906.442,783.922 906.266,783.952C906.207,783.962 906.148,783.973 906.089,783.983C906.059,783.989 905.971,783.99 906,784C906.172,784.058 906.352,784.087 906.528,784.131C906.881,784.218 907.233,784.306 907.586,784.394C908.645,784.66 909.704,784.93 910.761,785.204C913.956,786.033 917.14,786.9 920.315,787.802C929.818,790.504 939.23,793.52 948.554,796.784C963.186,801.907 977.601,807.639 991.815,813.821C1007.15,820.492 1022.26,827.69 1037.15,835.31C1038.44,835.971 1039.72,836.644 1041.03,837.271C1042.85,838.137 1044.69,838.937 1046.54,839.704C1053.13,842.428 1059.89,844.741 1066.33,847.829C1069.61,849.402 1072.8,851.179 1075.73,853.331C1076.51,853.897 1077.26,854.49 1077.99,855.11C1078.2,855.292 1078.42,855.476 1078.63,855.662C1078.71,855.737 1078.79,855.811 1078.88,855.887C1078.92,855.924 1078.96,855.957 1079,856C1079.01,856.01 1078.97,855.994 1078.96,855.991C1078.95,855.988 1078.93,855.985 1078.92,855.982C1078.88,855.972 1078.84,855.961 1078.79,855.95C1078.65,855.911 1078.5,855.865 1078.36,855.817C1077.9,855.66 1077.45,855.475 1077,855.285C1075.78,854.761 1074.57,854.187 1073.36,853.622C1071.96,852.969 1070.57,852.318 1069.15,851.709C1068,851.216 1066.84,850.745 1065.65,850.356C1064.88,850.103 1064.09,849.875 1063.28,849.768C1062.82,849.707 1062.34,849.676 1061.89,849.799C1061.54,849.893 1061.24,850.096 1061.1,850.431C1061.05,850.548 1061.03,850.672 1061.01,850.798C1061.01,850.848 1061,850.898 1061,850.948C1061,850.965 1061.02,851.004 1061,851C1060.99,850.998 1059.74,850.629 1059.73,850.625C1058.67,850.312 1057.61,849.996 1056.55,849.678C1053.37,848.722 1050.2,847.743 1047.04,846.745C1035.64,843.144 1024.32,839.283 1013.05,835.293C988.369,826.555 963.912,817.199 939.197,808.557C930.195,805.409 921.16,802.357 912.072,799.465C909.115,798.524 906.152,797.601 903.183,796.696C900.988,796.028 898.793,795.362 896.578,794.761C893.72,793.985 890.841,793.287 887.955,792.625C884.859,791.914 881.754,791.245 878.646,790.588C870.8,788.928 862.937,787.334 855.141,785.447C849.087,783.982 843.064,782.349 837.177,780.307C832.688,778.751 828.266,776.956 824.069,774.721C822.656,773.969 821.27,773.165 819.923,772.3C819.474,772.011 819.029,771.716 818.59,771.413C818.471,771.331 818.353,771.249 818.235,771.166C818.195,771.138 818.156,771.111 818.117,771.083C818.078,771.055 817.952,770.994 818,771C820.669,771.311 823.505,772.998 826,772C827.313,771.475 823.971,770.028 823,769C822.959,768.957 823.118,769.008 823.177,769.013C823.353,769.025 823.53,769.039 823.707,769.052C824.119,769.085 824.531,769.12 824.943,769.159C826.298,769.286 827.65,769.446 828.997,769.635C833.137,770.216 837.235,771.073 841.287,772.098C846.474,773.409 851.588,774.995 856.669,776.667C863.318,778.853 869.916,781.192 876.588,783.308C884.42,785.792 892.381,787.985 900.528,789.146C903.3,789.54 906.09,789.814 908.887,789.935C909.78,789.973 910.674,789.996 911.568,790.003C911.866,790.006 912.164,790.006 912.463,790.005C912.582,790.004 912.701,790.003 912.821,790.002C912.881,790.001 913.057,790.018 913,790C912.719,789.911 912.428,789.859 912.142,789.788C911.569,789.647 910.997,789.505 910.425,789.363C908.71,788.937 906.995,788.508 905.281,788.077C900.43,786.856 895.583,785.615 890.739,784.36C875.958,780.53 861.211,776.57 846.45,772.665C814.469,764.202 782.385,755.982 749.849,749.909C737.426,747.591 724.943,745.586 712.405,743.996C708.008,743.438 703.604,742.932 699.195,742.48C697.05,742.26 694.904,742.058 692.757,741.86C689.823,741.588 686.899,741.209 683.984,740.779C680.831,740.314 677.687,739.789 674.546,739.253C669.149,738.333 663.757,737.377 658.339,736.589C654.219,735.991 650.083,735.487 645.93,735.189C641.181,734.848 636.399,734.77 631.654,735.207C630.33,735.328 629.009,735.491 627.696,735.701C627.291,735.766 626.886,735.835 626.482,735.909C626.472,735.911 626.01,735.997 626,736C625.975,736.009 626.054,736.006 626.08,736.009C626.108,736.013 626.135,736.016 626.163,736.019C626.301,736.034 626.378,736.042 626.517,736.055C626.786,736.082 627.056,736.105 627.326,736.128C628.15,736.198 628.976,736.261 629.8,736.336C631.269,736.47 632.739,736.631 634.193,736.89C635.242,737.076 636.292,737.31 637.295,737.675C637.75,737.841 638.198,738.036 638.615,738.285C638.912,738.463 639.196,738.671 639.435,738.923C639.626,739.124 639.787,739.355 639.891,739.613C639.926,739.7 639.955,739.79 639.976,739.881C639.982,739.907 639.988,739.933 639.993,739.96C639.995,739.973 639.986,739.999 640,740C640.091,740.008 640.183,739.989 640.275,739.983C640.458,739.972 640.642,739.962 640.826,739.952C641.288,739.927 641.75,739.906 642.213,739.889C643.719,739.832 645.227,739.811 646.735,739.821C651.27,739.852 655.801,740.158 660.311,740.627C666.066,741.225 671.792,742.092 677.49,743.092C684.641,744.346 691.751,745.816 698.855,747.306C702.725,748.117 706.594,748.936 710.47,749.721C711.767,749.984 713.065,750.243 714.364,750.496C715.104,750.64 715.843,750.787 716.586,750.919C718.47,751.254 720.371,751.494 722.271,751.724C724.382,751.98 726.495,752.222 728.601,752.521L728.425,752.452C724.929,751.226 721.469,749.897 718.076,748.406C717.271,748.052 716.469,747.69 715.672,747.317C715.672,747.317 715,747.002 715,747C714.986,746.896 715.21,747.004 715.315,747.006C715.42,747.009 715.524,747.011 715.629,747.014C716.049,747.024 716.469,747.035 716.889,747.049C718.258,747.094 719.626,747.16 720.992,747.243C727.597,747.646 734.17,748.473 740.699,749.538C755.109,751.89 769.295,755.398 783.559,758.476C786.464,759.102 789.373,759.711 792.288,760.287C793.113,760.45 793.939,760.61 794.765,760.767C794.971,760.807 795.177,760.846 795.383,760.884C795.588,760.923 795.823,760.888 796,761C796.066,761.041 795.931,761.139 795.896,761.208C795.852,761.295 795.809,761.381 795.764,761.467C795.67,761.647 795.57,761.827 795.434,761.979C795.314,762.113 795.17,762.221 795.023,762.324C794.852,762.443 794.676,762.555 794.502,762.669C794.381,762.749 794.26,762.828 794.139,762.908C794.093,762.938 793.948,762.981 794,763C794.085,763.031 794.179,762.97 794.268,762.954C794.357,762.94 794.445,762.925 794.534,762.91C794.877,762.853 795.222,762.798 795.567,762.747C796.82,762.563 798.089,762.442 799.356,762.526C799.962,762.567 800.565,762.652 801.157,762.783C801.352,762.826 801.545,762.874 801.738,762.926C801.803,762.944 801.869,762.962 801.934,762.981C801.956,762.987 802.022,762.994 802,763C800.67,763.345 799.306,763.572 798,764C797.767,764.076 798.488,764.046 798.732,764.07C799.103,764.105 799.474,764.141 799.844,764.177C800.983,764.288 802.121,764.405 803.258,764.534C807.535,765.017 811.819,765.654 815.973,766.811C817.318,767.186 818.649,767.618 819.951,768.124C820.414,768.305 820.873,768.494 821.328,768.695C821.497,768.769 821.665,768.845 821.833,768.922C821.889,768.948 822.061,768.997 822,769C821.753,769.014 821.506,768.969 821.259,768.954C820.759,768.922 820.26,768.89 819.76,768.857C817.956,768.736 816.153,768.605 814.35,768.463C808.66,768.014 802.978,767.461 797.307,766.809C788.201,765.762 779.122,764.464 770.097,762.86C761.031,761.249 752.017,759.327 743.12,756.947L742.835,756.89ZM999,824C1005.31,828.592 1013.81,832.492 1022.61,835.795C1031.41,839.097 1040.51,841.802 1048,844C1035.7,834.637 1014.26,826.377 999,824ZM709,746C709.875,746.321 710.657,746.536 711.454,746.688C712.251,746.84 713.064,746.93 714,747C712.25,746.358 710.873,746.141 709,746Z" style="fill:rgb(230,241,236);fill-rule:nonzero;"/>
                        <path d="M554.904,753.324C555.22,753.324 555.536,753.326 555.852,753.329C557.024,753.34 558.195,753.369 559.366,753.423C561.101,753.502 562.833,753.635 564.557,753.845C566.126,754.036 567.688,754.29 569.232,754.63C570.312,754.867 571.383,755.146 572.439,755.474C572.787,755.582 573.134,755.696 573.478,755.815C573.592,755.854 573.706,755.894 573.82,755.935C573.862,755.95 573.904,755.965 573.946,755.98L573.983,755.994L574,755.998L574,756L573.985,756.002C573.967,756.003 573.949,756.002 573.931,756.002C573.908,756.003 573.885,756.004 573.861,756.005C573.769,756.008 573.676,756.012 573.584,756.015C573.282,756.026 572.98,756.037 572.678,756.049C571.784,756.084 570.891,756.123 569.998,756.17C568.569,756.244 567.142,756.338 565.717,756.462C564.457,756.572 563.199,756.707 561.945,756.877C560.613,757.057 559.285,757.276 557.968,757.548C557.53,757.639 557.093,757.736 556.657,757.839C556.51,757.874 556.364,757.909 556.218,757.945C556.168,757.958 556.117,757.97 556.067,757.983L556.016,757.996L555.999,757.999L556.001,758C556.011,758.001 556.02,758.001 556.029,758.001L556.046,758L556.279,758C556.449,758.001 556.62,758.001 556.791,758.002C557.338,758.006 557.885,758.012 558.432,758.022C560.075,758.05 561.717,758.106 563.358,758.183C565.777,758.297 568.195,758.457 570.609,758.648C573.153,758.849 575.694,759.086 578.232,759.343C580.414,759.565 582.594,759.802 584.772,760.049C587.126,760.315 589.478,760.591 591.83,760.869C597.693,761.564 603.555,762.273 609.427,762.883C612.124,763.163 614.822,763.422 617.523,763.648C620.053,763.86 622.585,764.043 625.12,764.185C627.2,764.302 629.281,764.391 631.363,764.445C633.358,764.498 635.353,764.518 637.347,764.499C639.251,764.481 641.155,764.426 643.057,764.328C644.867,764.235 646.675,764.102 648.479,763.92C649.808,763.787 651.134,763.628 652.456,763.439C653.708,763.26 654.956,763.055 656.199,762.82C657.051,762.659 657.9,762.484 658.745,762.294C659.023,762.232 659.299,762.168 659.576,762.102C659.673,762.079 659.769,762.056 659.866,762.032L659.978,762.005L659.998,762.003L660,762L659.99,761.997L659.985,761.996L659.962,761.996L659.922,761.992C659.858,761.985 659.795,761.979 659.731,761.972C659.521,761.949 659.311,761.925 659.101,761.897C658.771,761.854 658.442,761.802 658.117,761.733C657.978,761.703 657.839,761.669 657.701,761.632C657.561,761.595 657.422,761.554 657.284,761.509C656.992,761.414 656.706,761.304 656.423,761.185C656.328,761.145 656.233,761.104 656.139,761.062C656.11,761.05 656.081,761.037 656.053,761.024L656.017,761.008L656.001,761.002L656,761L656.369,761C656.59,761 656.811,761.001 657.032,761.001C657.721,761.003 658.409,761.006 659.098,761.01C661.241,761.024 663.385,761.052 665.528,761.094C672.295,761.226 679.059,761.493 685.815,761.886C691.303,762.204 696.786,762.605 702.263,763.082C707.901,763.573 713.532,764.144 719.154,764.79C724.911,765.452 730.659,766.192 736.397,767.005C742.291,767.839 748.174,768.75 754.045,769.731C759.766,770.687 765.475,771.71 771.172,772.795C777.014,773.907 782.843,775.084 788.66,776.321C794.59,777.583 800.506,778.906 806.408,780.287C812.491,781.71 818.56,783.194 824.614,784.734C837.1,787.911 849.525,791.325 861.891,794.941C875.079,798.797 888.201,802.881 901.261,807.153C914.236,811.398 927.15,815.829 940.01,820.411C944.225,821.913 948.434,823.431 952.637,824.964C953.968,825.449 955.298,825.936 956.628,826.424C956.948,826.542 957.268,826.66 957.589,826.778C957.927,826.902 958.266,827.027 958.605,827.151C959.22,827.376 959.836,827.598 960.453,827.819C962.224,828.454 964.001,829.074 965.781,829.685C967.685,830.339 969.594,830.983 971.503,831.621C973.494,832.286 975.487,832.946 977.48,833.603C979.646,834.318 981.813,835.031 983.979,835.747C986.529,836.589 989.077,837.435 991.622,838.291C994.842,839.375 998.057,840.474 1001.26,841.6C1003.82,842.499 1006.37,843.414 1008.91,844.354C1012.26,845.594 1015.6,846.876 1018.91,848.216C1020.48,848.85 1022.04,849.498 1023.6,850.16C1025.12,850.808 1026.64,851.47 1028.15,852.148C1030.12,853.038 1032.09,853.956 1034.03,854.909C1035.9,855.822 1037.75,856.768 1039.58,857.751C1041.31,858.681 1043.03,859.645 1044.72,860.649C1046.31,861.595 1047.88,862.577 1049.42,863.601C1050.57,864.363 1051.7,865.149 1052.81,865.962C1053.87,866.736 1054.91,867.535 1055.93,868.361C1056.63,868.929 1057.32,869.51 1058,870.105C1058.23,870.303 1058.45,870.504 1058.68,870.705C1058.75,870.772 1058.82,870.84 1058.9,870.907L1058.98,870.984L1059,870.995L1059,870.999L1058.99,871.001L1058.99,870.998L1058.97,870.99L1058.96,870.99C1058.92,870.976 1058.87,870.962 1058.82,870.948C1058.68,870.906 1058.54,870.864 1058.4,870.822C1057.85,870.66 1057.31,870.496 1056.77,870.329C1054.7,869.694 1052.65,869.023 1050.6,868.322C1046.75,867.002 1042.94,865.577 1039.15,864.085C1035.08,862.483 1031.05,860.803 1027.03,859.088C1022.24,857.045 1017.48,854.951 1012.7,852.874C1009.08,851.3 1005.46,849.736 1001.82,848.212C998.64,846.879 995.443,845.576 992.226,844.325C991.305,843.967 990.381,843.613 989.456,843.264C989.11,843.133 988.763,843.003 988.416,842.874C988.105,842.758 987.793,842.642 987.481,842.527C986.897,842.312 986.311,842.1 985.725,841.89C983.168,840.975 980.595,840.106 978.013,839.262C975.249,838.358 972.476,837.484 969.7,836.617C964.65,835.039 959.592,833.486 954.564,831.835C952.571,831.181 950.583,830.511 948.603,829.818C946.733,829.164 944.871,828.49 943.019,827.787C941.733,827.3 940.452,826.799 939.178,826.283C938.76,826.114 938.343,825.943 937.927,825.771C937.784,825.711 937.64,825.651 937.496,825.591C937.448,825.571 937.401,825.551 937.353,825.531C937.338,825.525 937.323,825.519 937.308,825.512L937.305,825.511C937.306,825.511 937.371,825.542 937.372,825.543C937.405,825.559 937.439,825.575 937.472,825.591C937.572,825.639 937.672,825.687 937.771,825.735C938.068,825.88 938.364,826.026 938.658,826.175C939.415,826.559 940.164,826.958 940.902,827.375C941.599,827.769 942.287,828.18 942.963,828.61C943.427,828.906 943.886,829.211 944.337,829.526C944.485,829.629 944.631,829.733 944.777,829.838C944.825,829.873 944.874,829.908 944.922,829.943L944.987,829.99L945,829.998L944.999,830L944.989,829.999C944.976,829.998 944.964,829.994 944.952,829.992C944.92,829.987 944.888,829.981 944.856,829.976C944.761,829.959 944.665,829.943 944.569,829.926C944.282,829.877 943.995,829.826 943.708,829.774C942.737,829.598 941.769,829.408 940.803,829.206C937.556,828.527 934.339,827.714 931.144,826.825C928.536,826.099 925.943,825.323 923.355,824.528C920.036,823.509 916.727,822.457 913.407,821.439C909.304,820.18 905.183,818.97 901.017,817.935C900.122,817.713 899.225,817.499 898.326,817.295C898.027,817.226 897.727,817.159 897.427,817.093C897.332,817.072 897.237,817.052 897.142,817.031C897.111,817.024 897.079,817.017 897.047,817.01C897.037,817.008 897.026,817.005 897.015,817.003L897,817L896.997,817.014C896.996,817.023 896.994,817.033 896.992,817.042C896.986,817.069 896.978,817.096 896.97,817.123C896.943,817.203 896.904,817.279 896.854,817.347C896.841,817.365 896.828,817.382 896.814,817.398C896.711,817.521 896.578,817.614 896.436,817.688C896.411,817.701 896.385,817.714 896.358,817.726C896.325,817.742 896.292,817.756 896.258,817.769C896.111,817.828 895.958,817.872 895.803,817.908C895.618,817.949 895.431,817.978 895.243,818C895.011,818.026 894.778,818.04 894.545,818.047C894.281,818.055 894.016,818.053 893.752,818.045C893.409,818.035 893.068,818.014 892.726,817.986C892.355,817.956 891.983,817.918 891.613,817.873C891.212,817.825 890.811,817.771 890.411,817.711C889.978,817.646 889.546,817.576 889.115,817.501C888.66,817.422 888.206,817.338 887.753,817.25C887.268,817.156 886.783,817.058 886.299,816.956C885.249,816.735 884.203,816.498 883.159,816.251C882.415,816.074 881.673,815.892 880.931,815.705C880.153,815.51 879.375,815.309 878.599,815.104C876.77,814.623 874.946,814.12 873.126,813.605C872.055,813.301 870.984,812.994 869.914,812.685C869.484,812.561 869.055,812.437 868.625,812.314C868.282,812.215 867.938,812.117 867.594,812.02C867.449,811.98 867.304,811.939 867.159,811.9C867.045,811.869 866.931,811.838 866.816,811.808C866.571,811.743 866.326,811.677 866.081,811.612C865.283,811.4 864.486,811.188 863.688,810.976C861.412,810.371 859.135,809.769 856.857,809.171C846.473,806.444 836.068,803.795 825.617,801.334C821.111,800.272 816.597,799.246 812.073,798.264C807.774,797.331 803.467,796.438 799.15,795.593C792.028,794.199 784.88,792.937 777.705,791.849C776.038,791.596 774.369,791.352 772.699,791.118C772.29,791.061 771.881,791.004 771.472,790.948C771.213,790.913 770.953,790.878 770.694,790.842C770.388,790.801 770.082,790.76 769.777,790.718C768.604,790.559 767.432,790.401 766.259,790.244C761.67,789.629 757.08,789.024 752.488,788.431C735.807,786.278 719.105,784.281 702.382,782.48C676.519,779.695 650.605,777.38 624.647,775.686C621.058,775.451 617.468,775.229 613.877,775.019C609.825,774.782 605.772,774.561 601.718,774.355C597.1,774.122 592.48,773.909 587.86,773.718C582.573,773.5 577.284,773.31 571.995,773.15C565.935,772.968 559.873,772.824 553.811,772.722C546.771,772.603 539.731,772.54 532.69,772.535C514.943,772.523 497.194,772.884 479.464,773.662C473.802,773.911 468.142,774.202 462.484,774.537C460.889,774.631 459.293,774.729 457.698,774.831C457.287,774.857 456.875,774.883 456.463,774.91C456.126,774.932 455.789,774.954 455.452,774.974C454.983,775.003 454.515,775.028 454.046,775.051C453.046,775.1 452.045,775.138 451.045,775.165C450.018,775.194 448.991,775.212 447.965,775.222C445.747,775.243 443.529,775.225 441.312,775.183C438.944,775.137 436.577,775.063 434.21,774.974C431.641,774.876 429.073,774.76 426.505,774.639C423.886,774.515 421.268,774.385 418.649,774.262C416.549,774.162 414.448,774.067 412.347,773.982C409.99,773.886 407.632,773.802 405.274,773.74C403.249,773.687 401.224,773.649 399.199,773.633C397.279,773.617 395.359,773.621 393.439,773.651C391.613,773.679 389.788,773.73 387.964,773.811C386.207,773.888 384.451,773.992 382.697,774.129C381.014,774.261 379.333,774.424 377.656,774.624C376.067,774.814 374.482,775.037 372.904,775.301C371.012,775.617 369.13,775.991 367.265,776.438C365.541,776.85 363.832,777.324 362.146,777.873C361.437,778.104 360.733,778.348 360.034,778.606C359.805,778.691 359.577,778.777 359.349,778.864C359.272,778.894 359.194,778.924 359.116,778.954L359.019,778.992L359.003,778.996L358.999,778.999L359.005,779.003L359.014,779.003L359.026,779.001C359.043,779.002 359.06,779.003 359.077,779.003C359.145,779.006 359.213,779.009 359.281,779.012C359.552,779.025 359.824,779.04 360.096,779.057C360.627,779.093 361.158,779.14 361.686,779.21C362.161,779.273 362.634,779.355 363.102,779.458C363.533,779.552 363.959,779.665 364.38,779.795C364.519,779.838 364.658,779.883 364.795,779.93C364.84,779.944 364.884,779.959 364.928,779.975L364.988,779.996L365.001,780L365,780C364.979,780.002 364.958,780 364.937,780.001C364.874,780.001 364.812,780.002 364.749,780.002C364.561,780.004 364.372,780.006 364.184,780.008C363.661,780.014 363.137,780.021 362.614,780.028C360.977,780.052 359.341,780.085 357.705,780.126C352.81,780.248 347.917,780.447 343.028,780.715C335.81,781.111 328.602,781.658 321.405,782.336C313.917,783.042 306.441,783.89 298.982,784.861C293.684,785.551 288.394,786.302 283.112,787.11C277.717,787.934 272.33,788.817 266.953,789.751C261.383,790.719 255.822,791.743 250.271,792.815C244.578,793.916 238.895,795.068 233.221,796.265C221.487,798.742 209.795,801.412 198.137,804.226C184.497,807.517 170.904,811.005 157.344,814.612C151.029,816.292 144.72,817.998 138.416,819.723C132.517,821.336 126.622,822.966 120.73,824.605C116.93,825.662 113.131,826.723 109.332,827.787C108.208,828.101 107.085,828.416 105.961,828.731C105.518,828.855 105.075,828.979 104.632,829.103C104.182,829.229 103.732,829.355 103.281,829.48C101.48,829.982 99.678,830.48 97.875,830.975C83.447,834.933 68.963,838.685 54.526,842.612C51.862,843.337 49.199,844.068 46.539,844.807C45.475,845.103 44.412,845.4 43.349,845.698C43.022,845.79 42.695,845.882 42.368,845.974C42.286,845.997 42.204,846.02 42.123,846.043C42.057,846.062 41.992,846.08 41.927,846.099C41.861,846.118 41.796,846.137 41.731,846.156C41.44,846.244 41.151,846.338 40.863,846.435C40.565,846.536 40.267,846.641 39.971,846.747C39.654,846.861 39.338,846.976 39.022,847.092C38.684,847.217 38.347,847.342 38.009,847.467C37.623,847.61 37.237,847.753 36.851,847.894C35.816,848.272 34.778,848.641 33.732,848.983C32.919,849.248 32.101,849.498 31.276,849.721C30.653,849.889 30.025,850.043 29.393,850.175C28.917,850.275 28.439,850.362 27.959,850.433C27.593,850.486 27.227,850.531 26.859,850.563C26.568,850.588 26.277,850.606 25.986,850.615C25.767,850.622 25.547,850.623 25.328,850.618C25.155,850.615 24.981,850.607 24.807,850.595C24.677,850.586 24.546,850.575 24.416,850.561C24.319,850.55 24.222,850.538 24.125,850.525C23.55,850.444 22.98,850.306 22.44,850.087C22.366,850.057 22.293,850.025 22.22,849.992C22.125,849.949 22.031,849.903 21.939,849.854C21.816,849.79 21.696,849.721 21.579,849.646C21.409,849.539 21.245,849.421 21.09,849.294C20.863,849.107 20.653,848.9 20.463,848.676C20.421,848.626 20.38,848.575 20.34,848.524C20.276,848.443 20.215,848.36 20.157,848.275C20.022,848.079 19.902,847.872 19.805,847.654C19.704,847.425 19.63,847.184 19.594,846.935C19.571,846.776 19.565,846.614 19.575,846.453C19.583,846.347 19.597,846.241 19.619,846.136C19.635,846.062 19.654,845.989 19.676,845.917C19.693,845.863 19.712,845.81 19.732,845.757C19.848,845.455 20.02,845.176 20.221,844.923C20.25,844.886 20.28,844.85 20.311,844.814C20.347,844.771 20.384,844.729 20.422,844.687C20.475,844.63 20.529,844.573 20.584,844.518C20.655,844.447 20.729,844.377 20.804,844.31C20.903,844.221 21.005,844.135 21.109,844.052C21.243,843.944 21.381,843.842 21.522,843.743C21.704,843.615 21.89,843.494 22.079,843.378C22.326,843.227 22.578,843.085 22.833,842.95C23.154,842.78 23.48,842.621 23.81,842.47C24.245,842.272 24.685,842.087 25.13,841.913C25.702,841.689 26.28,841.482 26.863,841.286C27.655,841.02 28.455,840.776 29.259,840.545C29.823,840.383 30.39,840.228 30.957,840.077C31.425,839.953 31.893,839.832 32.361,839.712C32.798,839.6 33.235,839.489 33.671,839.375C33.858,839.326 34.045,839.277 34.231,839.226C34.388,839.183 34.544,839.139 34.7,839.093C34.776,839.07 34.851,839.047 34.926,839.023C34.988,839.003 35.05,838.982 35.111,838.962C35.185,838.937 35.26,838.912 35.334,838.887C35.667,838.776 36.001,838.664 36.335,838.552C48.027,834.631 59.669,830.561 71.357,826.627C76.437,824.917 81.527,823.233 86.633,821.599C88.01,821.158 89.389,820.72 90.769,820.287C91.554,820.041 92.34,819.796 93.126,819.551C94.091,819.251 95.056,818.952 96.022,818.654C99.675,817.526 103.332,816.412 106.993,815.313C118.436,811.876 129.922,808.577 141.445,805.417C150.214,803.013 159.006,800.689 167.818,798.447C176.579,796.218 185.36,794.07 194.161,792.005C202.899,789.954 211.655,787.985 220.43,786.098C229.131,784.228 237.85,782.439 246.585,780.734C249.619,780.141 252.656,779.559 255.694,778.987C256.743,778.79 257.792,778.594 258.841,778.399C259.117,778.348 259.393,778.296 259.669,778.245C259.899,778.203 260.128,778.16 260.358,778.117C260.724,778.048 261.089,777.978 261.454,777.906C262.329,777.733 263.203,777.553 264.075,777.367C264.999,777.17 265.922,776.967 266.845,776.76C268.607,776.365 270.366,775.957 272.125,775.547C274.039,775.1 275.952,774.65 277.866,774.206C281.681,773.32 285.502,772.457 289.34,771.676C290.9,771.358 292.463,771.054 294.029,770.768C295.503,770.499 296.979,770.246 298.458,770.014C300.072,769.761 301.689,769.532 303.31,769.336C304.84,769.151 306.374,768.995 307.91,768.877C309.335,768.768 310.762,768.691 312.191,768.657C313.523,768.626 314.856,768.631 316.188,768.687C317.21,768.729 318.232,768.801 319.249,768.909C320.2,769.01 321.149,769.144 322.09,769.317C322.743,769.437 323.394,769.577 324.039,769.739C324.255,769.794 324.471,769.851 324.687,769.911C324.758,769.931 324.829,769.951 324.9,769.971L324.988,769.997L325,769.999L324.993,770.003L324.972,770.007C324.97,770.007 324.969,770.007 324.968,770.008C324.946,770.013 324.925,770.018 324.903,770.023C324.817,770.043 324.731,770.063 324.644,770.083C324.364,770.147 324.083,770.211 323.802,770.274C322.88,770.48 321.956,770.677 321.031,770.865C319.387,771.198 317.737,771.505 316.084,771.792C314.351,772.092 312.615,772.369 310.876,772.631C307.774,773.098 304.665,773.515 301.554,773.919C297.702,774.419 293.848,774.9 289.999,775.428C288.055,775.694 286.113,775.973 284.174,776.273C282.354,776.554 280.538,776.854 278.726,777.18C276.203,777.633 273.689,778.138 271.191,778.713C268.812,779.262 266.447,779.876 264.107,780.573C262.506,781.05 260.917,781.566 259.343,782.127C258.819,782.313 258.298,782.505 257.778,782.701C257.601,782.768 257.425,782.836 257.249,782.904C257.197,782.924 257.145,782.944 257.093,782.964L257.03,782.988L257.026,782.989C257.02,782.991 257.013,782.992 257.007,782.994L256.999,782.997L257,783L257.002,783.001C257.006,783.003 257.01,783.003 257.014,783.003L257.024,783.002L257.045,782.999L257.049,782.998C257.099,782.996 257.148,782.995 257.198,782.993L257.623,782.977L257.692,782.975L258.139,782.957L258.288,782.952L258.437,782.946L258.586,782.939L258.886,782.927L259.035,782.921L259.185,782.914L259.335,782.908L259.485,782.901L259.635,782.895L259.786,782.888L259.936,782.881L260.087,782.875L260.237,782.868L260.309,782.864L260.449,782.858L260.601,782.851L260.752,782.843L261.056,782.829L261.208,782.821L261.36,782.814L261.512,782.806L261.664,782.799L261.817,782.791L261.68,782.798L261.528,782.805L261.224,782.821L261.072,782.828L260.921,782.835L260.769,782.843L260.467,782.857L260.279,782.866L260.119,782.873L259.817,782.887L259.666,782.893L259.516,782.9L259.486,782.901L266.408,782.525L266.446,782.523L266.602,782.512L266.916,782.492L267.134,782.477L267.23,782.471L267.387,782.461L267.498,782.453L267.654,782.442L267.81,782.432L268.122,782.41L268.279,782.4L268.435,782.389L268.592,782.378L268.748,782.367L268.905,782.355L269.376,782.322L269.533,782.31L269.69,782.299L269.847,782.287L270.005,782.275L270.162,782.264L270.636,782.228L270.777,782.217L270.905,782.208L270.731,782.221L270.583,782.232L270.426,782.244L270.11,782.268L269.953,782.279L269.795,782.291L269.638,782.302L269.481,782.314L269.323,782.325L269.166,782.337L269.009,782.348L268.853,782.359L268.539,782.381L268.383,782.392L268.226,782.403L267.914,782.425L267.758,782.435L267.594,782.447L267.469,782.455L267.262,782.469L267.138,782.477L270.739,782.22L270.906,782.207L271.053,782.196L271.154,782.188L271.329,782.175L272.789,782.059L272.887,782.051L272.97,782.044L273.234,782.022L273.334,782.014L273.441,782.005L273.8,781.975C273.907,781.966 274.014,781.957 274.121,781.948L274.268,781.936L274.425,781.923L274.614,781.907L274.816,781.889L274.935,781.879L275.096,781.865L275.247,781.852L275.419,781.837L275.579,781.823L275.705,781.812L275.849,781.799L277.179,781.679L277.342,781.664C277.741,781.627 278.14,781.59 278.539,781.552L278.598,781.546L278.649,781.541L279.937,781.417L280.009,781.41L280.421,781.37L280.746,781.336L281.192,781.292C282.096,781.201 283,781.108 283.903,781.011L283.908,781.011L280.746,781.336C280.379,781.372 280.093,781.4 280.343,781.376L292.893,779.972L292.895,779.971L307.668,777.933L307.672,777.933L322.812,775.456L322.934,775.434L336.042,772.984L338.247,772.544L339.047,772.383L339.474,772.297L339.629,772.265L339.86,772.218L340.048,772.179L340.266,772.135L340.335,772.121L341.053,771.973L341.174,771.948L346.625,770.797L346.732,770.774L346.887,770.741L347.113,770.692L347.317,770.648L347.245,770.663L347.053,770.705L346.858,770.747L346.679,770.786L346.625,770.797L343.967,771.365C343.036,771.562 342.105,771.756 341.174,771.948L341.15,771.953C341.1,771.969 341.05,771.984 341,772C343.841,772.608 346.984,772.578 350.095,772.161C353.206,771.744 356.286,770.939 359,770C357.055,769.433 354.933,769.3 352.765,769.438L352.813,769.427C353.774,769.209 354.734,768.988 355.694,768.764C358.238,768.172 360.778,767.562 363.312,766.932C364.222,766.706 365.13,766.477 366.038,766.246C366.263,766.189 366.487,766.131 366.712,766.074C366.776,766.057 366.84,766.041 366.904,766.025L366.907,766.024C366.927,766.02 366.95,766.021 366.97,766.016L366.983,766.012L366.993,766.006L367.002,765.998L367.001,765.993L366.993,765.992C366.977,765.992 366.944,765.999 366.928,766L366.927,766C366.853,765.999 366.78,765.999 366.707,765.999C366.537,765.998 366.367,765.998 366.197,765.997C365.694,765.995 365.192,765.991 364.69,765.981C363.87,765.965 363.05,765.931 362.233,765.857C361.862,765.824 361.492,765.782 361.123,765.73C360.763,765.68 360.405,765.619 360.05,765.548C359.589,765.456 359.131,765.345 358.68,765.214C358.528,765.17 358.377,765.124 358.227,765.075C358.174,765.058 358.122,765.041 358.07,765.024L358.016,765.006L358,765.001L358,765L358.014,764.998C358.028,764.997 358.042,764.998 358.056,764.997C358.075,764.996 358.093,764.995 358.112,764.994C358.187,764.99 358.262,764.986 358.337,764.982C358.561,764.969 358.785,764.957 359.009,764.944C359.757,764.902 360.505,764.858 361.252,764.812C363.532,764.674 365.812,764.521 368.09,764.355C372.237,764.054 376.382,763.71 380.524,763.336C381.905,763.212 383.286,763.084 384.667,762.953C385.115,762.91 385.563,762.867 386.011,762.824C386.16,762.81 386.31,762.795 386.459,762.781C386.496,762.777 386.534,762.774 386.571,762.77C386.608,762.766 386.646,762.762 386.683,762.759L386.68,762.76C386.672,762.761 386.657,762.763 386.649,762.765L386.61,762.771C386.573,762.777 386.537,762.783 386.5,762.79C386.366,762.812 386.232,762.835 386.098,762.858C385.696,762.927 385.295,762.998 384.895,763.072C383.708,763.291 382.525,763.532 381.347,763.792C379.861,764.12 378.382,764.48 376.911,764.872C376.215,765.057 375.521,765.25 374.829,765.45C374.171,765.641 373.516,765.838 372.862,766.043C372.158,766.264 371.457,766.493 370.76,766.734C370.575,766.797 370.39,766.861 370.206,766.927C370.155,766.945 370.103,766.963 370.051,766.982L370.025,766.991L370.008,766.995L370.001,766.999L370.001,767.003L370.015,767.005C370.02,767.006 370.024,767.008 370.029,767.01C370.054,767.017 370.078,767.025 370.103,767.033C370.167,767.053 370.231,767.073 370.295,767.093C370.499,767.155 370.705,767.212 370.912,767.266C371.531,767.425 372.159,767.548 372.792,767.642C373.433,767.736 374.078,767.801 374.725,767.842C375.419,767.886 376.115,767.902 376.811,767.898C377.562,767.893 378.312,767.864 379.062,767.817C379.865,767.765 380.667,767.693 381.467,767.604C382.605,767.478 383.74,767.32 384.871,767.141C386.107,766.945 387.339,766.725 388.568,766.489C390.656,766.089 392.736,765.647 394.816,765.207C396.254,764.902 397.692,764.598 399.134,764.311C400.148,764.108 401.164,763.914 402.183,763.737C403.134,763.572 404.087,763.42 405.043,763.294C405.699,763.207 406.357,763.132 407.017,763.073C407.233,763.054 407.449,763.037 407.665,763.022C407.74,763.017 407.814,763.012 407.889,763.007L407.985,763.001L407.998,763.002L407.998,762.998L407.991,762.995L407.982,762.994C407.952,762.984 407.922,762.974 407.892,762.964C407.783,762.928 407.674,762.893 407.564,762.859C407.114,762.719 406.658,762.596 406.199,762.488C405.748,762.381 405.293,762.288 404.837,762.207C404.348,762.12 403.858,762.047 403.366,761.985C402.849,761.92 402.331,761.868 401.812,761.827C401.261,761.783 400.709,761.751 400.156,761.73C399.453,761.703 398.75,761.693 398.046,761.697C397.815,761.699 397.584,761.702 397.353,761.706C397.273,761.708 397.192,761.71 397.112,761.711L397.016,761.714L396.991,761.715L396.992,761.714C397.054,761.707 397.117,761.701 397.18,761.695C397.306,761.681 397.432,761.668 397.557,761.655C397.997,761.608 398.437,761.562 398.877,761.515C400.072,761.388 401.266,761.26 402.46,761.131C406.17,760.731 409.879,760.322 413.588,759.913C424.475,758.711 435.362,757.506 446.27,756.501C452.392,755.936 458.521,755.435 464.657,755.032C470.708,754.635 476.766,754.333 482.828,754.162C485.691,754.081 488.555,754.029 491.419,754.009C492.088,754.004 492.757,754.001 493.426,754L493.952,754L493.984,753.994L493.994,753.993L493.999,753.997L494,754C494.016,754.643 494.083,755.292 494.004,755.93L494,755.961L494.305,755.935C494.482,755.92 494.66,755.905 494.838,755.89C495.701,755.817 496.564,755.745 497.428,755.675C500.117,755.455 502.808,755.249 505.5,755.062C513.563,754.5 521.639,754.104 529.722,754.018C530.535,754.009 531.348,754.003 532.161,754.001C532.365,754.001 532.568,754 532.771,754C532.986,754 533.201,754 533.415,753.999C533.834,753.997 534.254,753.993 534.673,753.987C535.568,753.974 536.462,753.951 537.357,753.923C538.3,753.893 539.242,753.856 540.184,753.816C541.898,753.744 543.612,753.661 545.325,753.584C547.57,753.484 549.815,753.395 552.061,753.351C552.929,753.335 553.798,753.325 554.667,753.324L554.904,753.324ZM711,769C718.878,772.302 729.105,774.539 739.499,776.083C749.893,777.626 760.454,778.476 769,779C753.374,771.675 728.17,769.159 711,769Z" style="fill:rgb(230,241,236);"/>
                    </g>
                    <g id="foreground" transform="matrix(1,0,0,1,-40.9458,-27.5181)">
                        <path d="M761.423,815.254L780.691,770.294L857.766,770.294L865.795,729.75L920.389,732.961L921.995,827.472L984.618,830.683L994.252,794.38L1026.37,794.38L1047.24,830.683L1100.23,768.688L1174.09,762.265L1227.08,830.683L1310.58,789.563L1732.79,875.733L40.946,889.694L616.908,763.871L673.108,795.985L761.423,815.254Z" style="fill:rgb(0,64,97);"/>
                    </g>
                </g>
            </g>
        </g>
    </g>
</svg>
