<?xml version="1.0" encoding="UTF-8" standalone="no"?>
<!DOCTYPE svg PUBLIC "-//W3C//DTD SVG 1.1//EN" "http://www.w3.org/Graphics/SVG/1.1/DTD/svg11.dtd">
<svg width="100%" height="100%" viewBox="0 0 321 170" version="1.1" xmlns="http://www.w3.org/2000/svg" xmlns:xlink="http://www.w3.org/1999/xlink" xml:space="preserve"  style="fill-rule:evenodd;clip-rule:evenodd;stroke-linejoin:round;stroke-miterlimit:2;">
    <g id="swiis-logos" transform="matrix(1.00427,0,0,1.00808,0,-1.43257e-14)">
        <rect x="0" y="0" width="318.844" height="168.542" style="fill:none;"/>
        <g id="swiis-fc-scot" transform="matrix(0.995746,0,0,0.991983,-1092.19,-481.616)">
            <g transform="matrix(1,0,0,1,1133.09,583.007)">
                <path d="M0,-51.956C-8.008,-51.956 -11.932,-47.454 -11.932,-44.446C-11.932,-37.768 -3.855,-36.442 16.176,-28.413C33.367,-21.563 40.545,-14.069 40.545,-6.373C40.545,4.463 33.637,17.49 -0.748,17.49C-21.283,17.49 -35.635,12.479 -35.635,2.131C-35.635,-3.881 -32.632,-7.053 -25.789,-7.053C-18.275,-7.053 -16.604,-1.365 0.422,-1.365C15.107,-1.365 17.678,-3.881 17.678,-7.053C17.678,-10.882 12.607,-11.896 -3.248,-17.556C-18.945,-23.075 -33.133,-30.421 -33.133,-46.612C-33.133,-60.138 -20.699,-69.157 0.834,-69.157C0.834,-69.157 14.125,-69.446 25.166,-62.663C35.537,-56.286 29.068,-49.065 29.068,-49.065C29.068,-49.065 24.521,-42.649 15.1,-48.128C8.361,-52.044 0,-51.956 0,-51.956" style="fill:white;fill-rule:nonzero;"/>
            </g>
            <g transform="matrix(1,0,0,1,1293,600.342)">
                <path d="M0,-114.229C7.342,-114.229 13.18,-108.375 13.18,-101.043C13.18,-93.694 7.342,-88.026 0,-88.026C-7.357,-88.026 -13.029,-93.694 -13.029,-101.043C-13.029,-108.375 -7.357,-114.229 0,-114.229M9.848,-73.79C9.848,-66.448 9.523,-59.627 9.57,-52.471C9.697,-32.926 11.471,-27.14 11.471,-11.955C11.471,-5.451 8.66,0 -1.197,0C-14.225,0 -13.176,-28.19 -13.721,-44.375C-14.648,-71.909 -12.357,-80.967 1.33,-80.967C4.17,-80.967 9.848,-79.133 9.848,-73.79" style="fill:white;fill-rule:nonzero;"/>
            </g>
            <g transform="matrix(-1,0,0,1,1324.38,513.229)">
                <path d="M0.175,-26.211C-7.177,-26.211 -13.014,-20.371 -13.014,-13.022C-13.014,-5.682 -7.177,0 0.175,0C7.513,0 13.189,-5.682 13.189,-13.022C13.189,-20.371 7.513,-26.211 0.175,-26.211" style="fill:white;fill-rule:nonzero;"/>
            </g>
            <g transform="matrix(1,0,0,1,1409.15,577.601)">
                <path d="M0,-38.13C-5.805,-30.468 -13.152,-37.491 -13.152,-37.491C-17.67,-41.31 -23.539,-45.191 -33.635,-45.191C-41.643,-45.191 -44.148,-40.685 -44.148,-37.685C-44.148,-30.999 -35.135,-29.675 -15.105,-21.655C2.092,-14.808 7.15,-7.286 7.15,0.383C7.15,11.232 3.93,24.26 -30.459,24.26C-50.99,24.26 -65.348,19.25 -65.348,8.906C-65.348,2.885 -62.34,-0.281 -55.494,-0.281C-47.982,-0.281 -46.318,5.394 -29.289,5.394C-14.602,5.394 -13.604,2.885 -13.604,-0.281C-13.604,-4.121 -19.613,-5.136 -35.471,-10.792C-51.162,-16.306 -65.348,-23.653 -65.348,-39.847C-65.348,-53.374 -54.334,-62.39 -32.799,-62.39C-20.947,-62.39 -11.014,-58.175 -4.045,-52.997C-4.045,-52.997 5.541,-45.448 0,-38.13" style="fill:white;fill-rule:nonzero;"/>
            </g>
            <g transform="matrix(1,0,0,1,1262.17,600.837)">
                <path d="M0,-86.103C-4.744,-86.103 -10.615,-84.072 -11.635,-74.388C-12.213,-68.933 -13.885,-48.167 -14.896,-33.261C-20.531,-50.138 -29.344,-76.232 -30.979,-79.289C-33.252,-83.357 -36.551,-85.593 -40.275,-85.593C-45.906,-85.593 -49.471,-81.777 -51.848,-73.207C-53.717,-66.455 -59.412,-47.234 -62.508,-36.812C-64.877,-50.376 -69.316,-75.871 -70.674,-79.624C-72.475,-84.638 -76.684,-87.513 -82.201,-87.513C-87.131,-87.513 -92.111,-83.742 -92.111,-76.529C-92.111,-71.962 -90.373,-65.748 -87.879,-56.185C-86.691,-51.607 -85.459,-46.88 -84.465,-42.552C-82.934,-35.974 -81.576,-29.414 -80.391,-23.606C-79.117,-17.444 -78.115,-12.575 -77.412,-10.241C-75.418,-3.661 -71.545,-0.03 -66.512,-0.03C-58.74,-0.03 -56.543,-5.243 -54.816,-11.026L-54,-13.743C-46.924,-36.857 -43.537,-47.98 -41.92,-53.402C-41.145,-51.318 -40.182,-48.714 -39.15,-45.941C-31.922,-26.441 -24.744,-8.821 -23.381,-6.243C-20.709,-1.237 -16.246,1.41 -10.484,1.41C-3.824,1.41 -0.209,-4.457 0.851,-9.465C1.823,-14.032 10.043,-67.736 10.043,-73.804C10.043,-80.822 5.726,-86.103 0,-86.103" style="fill:white;fill-rule:nonzero;"/>
            </g>
            <g transform="matrix(1,0,0,1,1325.09,520.588)">
                <path d="M0,80.778C-11.852,81.362 -11.455,67.518 -11.455,67.518C-11.455,37.808 -13.672,33.965 -13.672,14.101C-13.672,3.257 -8.959,-0.584 -2.107,-0.584C6.73,-0.584 10.74,5.418 10.74,13.939C10.74,32.47 12.074,35.3 12.074,68.356C12.074,68.356 12.729,80.149 0,80.778" style="fill:white;fill-rule:nonzero;"/>
            </g>
            <g transform="matrix(1,0,0,1,1098.04,636.208)">
                <path d="M0,-6.592L0,-8.02L2.49,-8.02L2.49,-11.92C2.49,-13.348 2.871,-14.492 3.635,-15.354C4.397,-16.215 5.469,-16.645 6.848,-16.645L8.496,-16.645L8.496,-14.959L7.172,-14.959C5.308,-14.959 4.382,-13.959 4.395,-11.957L4.395,-8.02L8.496,-8.02L8.496,-6.592L4.395,-6.592L4.395,10.053L2.49,10.053L2.49,-6.592L0,-6.592Z" style="fill:white;fill-rule:nonzero;"/>
            </g>
            <g transform="matrix(1,0,0,1,1111.46,637.224)">
                <path d="M0,0C0,2.949 0.538,4.959 1.614,6.033C2.641,7.059 3.892,7.572 5.365,7.572C6.838,7.572 8.089,7.059 9.115,6.033C10.191,4.959 10.729,2.949 10.729,0C10.729,-2.947 10.191,-4.959 9.115,-6.033C8.089,-7.059 6.838,-7.57 5.365,-7.57C3.892,-7.57 2.641,-7.059 1.614,-6.033C0.538,-4.959 0,-2.947 0,0M-1.904,0C-1.904,-3.35 -1.155,-5.777 0.345,-7.277C1.674,-8.609 3.35,-9.271 5.374,-9.266C7.397,-9.258 9.068,-8.596 10.385,-7.277C11.884,-5.777 12.634,-3.35 12.634,0C12.634,3.352 11.884,5.777 10.385,7.279C9.056,8.609 7.383,9.271 5.365,9.266C3.347,9.26 1.674,8.598 0.345,7.279C-1.155,5.777 -1.904,3.352 -1.904,0" style="fill:white;fill-rule:nonzero;"/>
            </g>
            <g transform="matrix(1,0,0,1,1128.19,630.55)">
                <path d="M0,13.348L1.318,12.03C2.721,13.508 4.697,14.246 7.246,14.246C10.878,14.246 12.694,13.02 12.694,10.567C12.694,9.616 12.42,8.905 11.871,8.436C11.321,7.965 10.442,7.67 9.233,7.547L6.237,7.286C2.607,6.981 0.793,5.399 0.793,2.545C0.793,0.971 1.381,-0.277 2.557,-1.199C3.733,-2.121 5.309,-2.582 7.283,-2.582C9.789,-2.582 11.904,-1.947 13.629,-0.677L12.346,0.604C10.939,-0.422 9.252,-0.933 7.283,-0.933C5.779,-0.933 4.632,-0.632 3.844,-0.031C3.055,0.573 2.66,1.438 2.66,2.569C2.66,3.528 2.954,4.246 3.543,4.725C4.131,5.205 5.068,5.506 6.355,5.629L9.266,5.895C10.964,6.065 12.271,6.483 13.188,7.153C14.104,7.823 14.563,8.961 14.563,10.565C14.563,12.213 13.911,13.52 12.609,14.485C11.308,15.448 9.545,15.93 7.32,15.93C4.233,15.93 1.794,15.071 0,13.348" style="fill:white;fill-rule:nonzero;"/>
            </g>
            <g transform="matrix(1,0,0,1,1146.05,639.046)">
                <path d="M0,-9.43L0,-10.858L2.49,-10.858L2.49,-16.645L4.395,-16.645L4.395,-10.858L8.496,-10.858L8.496,-9.43L4.395,-9.43L4.395,2.527C4.395,4.529 5.32,5.529 7.172,5.529L8.496,5.529L8.496,7.215L6.849,7.215C5.469,7.215 4.397,6.783 3.635,5.924C2.872,5.062 2.49,3.918 2.49,2.49L2.49,-9.43L0,-9.43Z" style="fill:white;fill-rule:nonzero;"/>
            </g>
            <g transform="matrix(1,0,0,1,1160.56,638.349)">
                <path d="M0,-2.25L10.639,-2.25C10.54,-3.801 10.333,-4.936 10.016,-5.656C9.613,-6.609 8.993,-7.354 8.157,-7.891C7.321,-8.428 6.378,-8.695 5.328,-8.695C4.278,-8.695 3.332,-8.428 2.49,-7.891C1.647,-7.354 1.031,-6.609 0.641,-5.656C0.286,-4.717 0.073,-3.582 0,-2.25M-1.904,-1.133C-1.904,-4.062 -1.267,-6.336 0.009,-7.955C1.284,-9.572 3.061,-10.381 5.337,-10.381C7.614,-10.381 9.39,-9.605 10.666,-8.055C11.941,-6.504 12.579,-4.344 12.579,-1.572L12.579,-0.713L0,-0.713C0,1.607 0.5,3.373 1.501,4.588C2.502,5.803 3.961,6.41 5.878,6.41C6.927,6.41 7.827,6.242 8.578,5.906C9.329,5.57 10.095,5.012 10.876,4.23L12.305,5.367C11.328,6.344 10.352,7.049 9.375,7.48C8.398,7.914 7.196,8.131 5.768,8.131C3.265,8.131 1.36,7.344 0.055,5.77C-1.252,4.195 -1.904,1.895 -1.904,-1.133" style="fill:white;fill-rule:nonzero;"/>
            </g>
            <g transform="matrix(1,0,0,1,1178.95,627.968)">
                <path d="M0,18.293L0,0.221L1.904,0.221L1.904,2.619C2.43,1.789 3.168,1.145 4.12,0.688C5.072,0.229 6.098,0 7.196,0C8.941,0 10.389,0.574 11.536,1.721L10.163,3.113C9.613,2.564 9.095,2.188 8.606,1.986C8.118,1.785 7.495,1.686 6.738,1.686C5.237,1.686 4.056,2.217 3.195,3.277C2.335,4.34 1.904,5.635 1.904,7.16L1.904,18.293L0,18.293Z" style="fill:white;fill-rule:nonzero;"/>
            </g>
            <g transform="matrix(1,0,0,1,1204.13,630.439)">
                <path d="M0,13.57C-1.404,11.922 -2.105,9.66 -2.105,6.785C-2.105,3.91 -1.4,1.65 0.009,0.002C1.419,-1.647 3.356,-2.471 5.823,-2.471C7.092,-2.471 8.173,-2.272 9.063,-1.875C9.955,-1.479 10.864,-0.756 11.792,0.295L10.474,1.504C9.705,0.648 8.981,0.052 8.304,-0.284C7.626,-0.618 6.799,-0.785 5.823,-0.785C3.699,-0.785 2.1,0.013 1.025,1.613C0.195,2.808 -0.217,4.533 -0.211,6.785C-0.204,9.037 0.207,10.761 1.025,11.959C2.1,13.556 3.699,14.357 5.823,14.357C6.775,14.357 7.596,14.189 8.285,13.853C8.975,13.517 9.705,12.922 10.474,12.068L11.792,13.277C10.864,14.326 9.958,15.05 9.073,15.447C8.188,15.843 7.104,16.041 5.823,16.041C3.345,16.041 1.403,15.216 0,13.57" style="fill:white;fill-rule:nonzero;"/>
            </g>
            <g transform="matrix(1,0,0,1,1221.55,633.166)">
                <path d="M0,8.114C0,9.309 0.376,10.194 1.126,10.768C1.877,11.343 3.076,11.63 4.725,11.63C6.751,11.63 8.252,11.165 9.229,10.237C9.9,9.591 10.236,8.444 10.236,6.796L10.236,4.469L4.614,4.469C1.538,4.469 0,5.684 0,8.114M-1.904,8.151C-1.904,6.503 -1.349,5.221 -0.237,4.305C0.873,3.389 2.417,2.932 4.395,2.932L10.236,2.932L10.236,0.899C10.236,-0.577 9.836,-1.683 9.036,-2.415C8.237,-3.148 6.94,-3.513 5.146,-3.513C3.9,-3.513 2.905,-3.339 2.161,-2.991C1.416,-2.644 0.745,-2.054 0.146,-1.224L-1.227,-2.433C-0.482,-3.458 0.385,-4.175 1.374,-4.585C2.362,-4.993 3.619,-5.199 5.146,-5.199C9.809,-5.199 12.141,-3.226 12.141,0.716L12.141,13.094L10.236,13.094L10.236,11.3C9.491,12.044 8.713,12.565 7.901,12.866C7.089,13.165 6.03,13.313 4.725,13.313C2.246,13.313 0.47,12.764 -0.604,11.667C-1.471,10.8 -1.904,9.628 -1.904,8.151" style="fill:white;fill-rule:nonzero;"/>
            </g>
            <g transform="matrix(1,0,0,1,1238.96,627.968)">
                <path d="M0,18.293L0,0.221L1.904,0.221L1.904,2.619C2.43,1.789 3.168,1.145 4.12,0.688C5.072,0.229 6.098,0 7.196,0C8.941,0 10.389,0.574 11.536,1.721L10.163,3.113C9.613,2.564 9.095,2.188 8.606,1.986C8.118,1.785 7.495,1.686 6.738,1.686C5.237,1.686 4.056,2.217 3.195,3.277C2.335,4.34 1.904,5.635 1.904,7.16L1.904,18.293L0,18.293Z" style="fill:white;fill-rule:nonzero;"/>
            </g>
            <g transform="matrix(1,0,0,1,1253.44,638.349)">
                <path d="M0,-2.25L10.639,-2.25C10.54,-3.801 10.333,-4.936 10.016,-5.656C9.613,-6.609 8.993,-7.354 8.157,-7.891C7.321,-8.428 6.378,-8.695 5.328,-8.695C4.278,-8.695 3.332,-8.428 2.49,-7.891C1.647,-7.354 1.031,-6.609 0.641,-5.656C0.286,-4.717 0.073,-3.582 0,-2.25M-1.904,-1.133C-1.904,-4.062 -1.267,-6.336 0.009,-7.955C1.284,-9.572 3.061,-10.381 5.337,-10.381C7.614,-10.381 9.39,-9.605 10.666,-8.055C11.941,-6.504 12.579,-4.344 12.579,-1.572L12.579,-0.713L0,-0.713C0,1.607 0.5,3.373 1.501,4.588C2.502,5.803 3.961,6.41 5.878,6.41C6.927,6.41 7.827,6.242 8.578,5.906C9.329,5.57 10.095,5.012 10.876,4.23L12.305,5.367C11.328,6.344 10.352,7.049 9.375,7.48C8.398,7.914 7.196,8.131 5.768,8.131C3.265,8.131 1.36,7.344 0.055,5.77C-1.252,4.195 -1.904,1.895 -1.904,-1.133" style="fill:white;fill-rule:nonzero;"/>
            </g>
            <g transform="matrix(1,0,0,1,1279.28,622.861)">
                <path d="M0,20.103L1.429,18.675C2.601,19.847 3.751,20.665 4.88,21.128C6.009,21.593 7.385,21.826 9.009,21.826C11.133,21.826 12.809,21.337 14.035,20.361C15.262,19.382 15.875,18.035 15.875,16.312C15.875,14.64 15.387,13.39 14.41,12.558C13.861,12.132 13.342,11.826 12.854,11.644C12.365,11.46 11.597,11.29 10.547,11.13L7.435,10.656C5.407,10.351 3.82,9.697 2.674,8.697C1.27,7.525 0.567,5.888 0.567,3.789C0.567,1.542 1.306,-0.237 2.783,-1.549C4.26,-2.86 6.286,-3.516 8.862,-3.516C10.463,-3.516 11.85,-3.293 13.022,-2.848C14.195,-2.403 15.374,-1.668 16.559,-0.643L15.234,0.675C13.514,-0.971 11.353,-1.795 8.753,-1.795C6.799,-1.795 5.279,-1.309 4.193,-0.334C3.106,0.64 2.563,1.996 2.563,3.736C2.563,5.292 3.021,6.457 3.935,7.228C4.886,8.037 6.215,8.587 7.922,8.882L10.794,9.353C12.951,9.656 14.544,10.238 15.573,11.097C17.13,12.357 17.908,14.072 17.908,16.24C17.908,18.511 17.101,20.308 15.486,21.632C13.871,22.957 11.676,23.619 8.899,23.619C6.945,23.619 5.285,23.345 3.919,22.794C2.551,22.246 1.245,21.349 0,20.103" style="fill:white;fill-rule:nonzero;"/>
            </g>
            <g transform="matrix(1,0,0,1,1303.36,630.439)">
                <path d="M0,13.57C-1.404,11.922 -2.105,9.66 -2.105,6.785C-2.105,3.91 -1.4,1.65 0.009,0.002C1.419,-1.647 3.356,-2.471 5.823,-2.471C7.092,-2.471 8.173,-2.272 9.063,-1.875C9.955,-1.479 10.864,-0.756 11.792,0.295L10.474,1.504C9.705,0.648 8.981,0.052 8.304,-0.284C7.626,-0.618 6.799,-0.785 5.823,-0.785C3.699,-0.785 2.1,0.013 1.025,1.613C0.195,2.808 -0.217,4.533 -0.211,6.785C-0.204,9.037 0.207,10.761 1.025,11.959C2.1,13.556 3.699,14.357 5.823,14.357C6.775,14.357 7.596,14.189 8.285,13.853C8.975,13.517 9.705,12.922 10.474,12.068L11.792,13.277C10.864,14.326 9.958,15.05 9.073,15.447C8.188,15.843 7.104,16.041 5.823,16.041C3.345,16.041 1.403,15.216 0,13.57" style="fill:white;fill-rule:nonzero;"/>
            </g>
            <g transform="matrix(1,0,0,1,1320.96,637.224)">
                <path d="M0,0C0,2.949 0.538,4.959 1.614,6.033C2.641,7.059 3.892,7.572 5.365,7.572C6.838,7.572 8.089,7.059 9.115,6.033C10.191,4.959 10.729,2.949 10.729,0C10.729,-2.947 10.191,-4.959 9.115,-6.033C8.089,-7.059 6.838,-7.57 5.365,-7.57C3.892,-7.57 2.641,-7.059 1.614,-6.033C0.538,-4.959 0,-2.947 0,0M-1.904,0C-1.904,-3.35 -1.155,-5.777 0.345,-7.277C1.674,-8.609 3.35,-9.271 5.374,-9.266C7.397,-9.258 9.068,-8.596 10.385,-7.277C11.884,-5.777 12.634,-3.35 12.634,0C12.634,3.352 11.884,5.777 10.385,7.279C9.056,8.609 7.383,9.271 5.365,9.266C3.347,9.26 1.674,8.598 0.345,7.279C-1.155,5.777 -1.904,3.352 -1.904,0" style="fill:white;fill-rule:nonzero;"/>
            </g>
            <g transform="matrix(1,0,0,1,1337.11,639.046)">
                <path d="M0,-9.43L0,-10.858L2.49,-10.858L2.49,-16.645L4.395,-16.645L4.395,-10.858L8.496,-10.858L8.496,-9.43L4.395,-9.43L4.395,2.527C4.395,4.529 5.32,5.529 7.172,5.529L8.496,5.529L8.496,7.215L6.849,7.215C5.469,7.215 4.397,6.783 3.635,5.924C2.872,5.062 2.49,3.918 2.49,2.49L2.49,-9.43L0,-9.43Z" style="fill:white;fill-rule:nonzero;"/>
            </g>
            <g transform="matrix(1,0,0,1,1351,624.25)">
                <path d="M0,17.323L0,-4.687L1.904,-4.687L1.904,17.286C1.904,18.36 2.112,19.135 2.527,19.612C2.942,20.087 3.662,20.325 4.687,20.325L5.988,20.325L5.988,22.01L4.34,22.01C2.887,22.01 1.801,21.598 1.081,20.774C0.36,19.95 0,18.8 0,17.323" style="fill:white;fill-rule:nonzero;"/>
            </g>
            <g transform="matrix(1,0,0,1,1361.93,633.166)">
                <path d="M0,8.114C0,9.309 0.376,10.194 1.126,10.768C1.877,11.343 3.076,11.63 4.725,11.63C6.751,11.63 8.252,11.165 9.229,10.237C9.9,9.591 10.236,8.444 10.236,6.796L10.236,4.469L4.614,4.469C1.538,4.469 0,5.684 0,8.114M-1.904,8.151C-1.904,6.503 -1.349,5.221 -0.237,4.305C0.873,3.389 2.417,2.932 4.395,2.932L10.236,2.932L10.236,0.899C10.236,-0.577 9.836,-1.683 9.036,-2.415C8.237,-3.148 6.94,-3.513 5.146,-3.513C3.9,-3.513 2.905,-3.339 2.161,-2.991C1.416,-2.644 0.745,-2.054 0.146,-1.224L-1.227,-2.433C-0.482,-3.458 0.385,-4.175 1.374,-4.585C2.362,-4.993 3.619,-5.199 5.146,-5.199C9.809,-5.199 12.141,-3.226 12.141,0.716L12.141,13.094L10.236,13.094L10.236,11.3C9.491,12.044 8.713,12.565 7.901,12.866C7.089,13.165 6.03,13.313 4.725,13.313C2.246,13.313 0.47,12.764 -0.604,11.667C-1.471,10.8 -1.904,9.628 -1.904,8.151" style="fill:white;fill-rule:nonzero;"/>
            </g>
            <g transform="matrix(1,0,0,1,1380.08,627.968)">
                <path d="M0,18.293L0,0.221L1.904,0.221L1.904,2.363C3.26,0.787 5.036,0 7.233,0C9.259,0 10.858,0.574 12.03,1.721C13.275,2.918 13.898,4.59 13.898,6.738L13.898,18.293L11.994,18.293L11.994,7.086C11.994,5.342 11.569,4.004 10.721,3.076C9.872,2.148 8.637,1.686 7.014,1.686C5.39,1.686 4.132,2.152 3.241,3.086C2.35,4.02 1.904,5.354 1.904,7.086L1.904,18.293L0,18.293Z" style="fill:white;fill-rule:nonzero;"/>
            </g>
            <g transform="matrix(1,0,0,1,1401.23,631.639)">
                <path d="M0,2.764C-0.123,3.565 -0.184,4.502 -0.184,5.577C-0.184,6.651 -0.123,7.59 0,8.395C0.122,9.201 0.354,9.991 0.696,10.766C1.039,11.541 1.564,12.133 2.274,12.543C2.983,12.952 3.864,13.157 4.916,13.157C5.968,13.157 6.851,12.952 7.566,12.543C8.281,12.133 8.808,11.541 9.144,10.766C9.48,9.991 9.713,9.201 9.841,8.395C9.969,7.59 10.033,6.651 10.033,5.577C10.033,4.502 9.969,3.565 9.841,2.764C9.713,1.965 9.48,1.178 9.144,0.403C8.808,-0.373 8.281,-0.965 7.566,-1.373C6.851,-1.783 5.968,-1.986 4.916,-1.986C3.864,-1.986 2.983,-1.783 2.274,-1.373C1.564,-0.965 1.039,-0.373 0.696,0.403C0.354,1.178 0.122,1.965 0,2.764M-2.088,5.584C-2.088,2.014 -1.314,-0.547 0.233,-2.097C1.282,-3.146 2.757,-3.672 4.659,-3.672C5.783,-3.672 6.771,-3.492 7.621,-3.131C8.471,-2.771 9.275,-2.103 10.033,-1.127L10.033,-12.076L11.938,-12.076L11.938,14.621L10.033,14.621L10.033,12.295C9.287,13.272 8.486,13.94 7.631,14.301C6.774,14.66 5.783,14.84 4.659,14.84C2.757,14.84 1.282,14.317 0.233,13.266C-1.314,11.715 -2.088,9.155 -2.088,5.584" style="fill:white;fill-rule:nonzero;"/>
            </g>
        </g>
        <g id="swiis-fc-eng" transform="matrix(0.995746,0,0,0.991983,-1097.06,-192.125)">
            <g transform="matrix(1,0,0,1,1138,291.174)">
                <path d="M0,-51.954C-8.008,-51.954 -11.932,-47.452 -11.932,-44.444C-11.932,-37.766 -3.855,-36.44 16.176,-28.411C33.367,-21.561 40.545,-14.067 40.545,-6.373C40.545,4.463 33.637,17.49 -0.748,17.49C-21.283,17.49 -35.635,12.479 -35.635,2.131C-35.635,-3.881 -32.632,-7.053 -25.789,-7.053C-18.275,-7.053 -16.604,-1.365 0.422,-1.365C15.107,-1.365 17.678,-3.881 17.678,-7.053C17.678,-10.881 12.607,-11.894 -3.248,-17.554C-18.945,-23.073 -33.133,-30.419 -33.133,-46.61C-33.133,-60.136 -20.699,-69.155 0.834,-69.155C0.834,-69.155 14.125,-69.444 25.166,-62.661C35.537,-56.284 29.068,-49.063 29.068,-49.063C29.068,-49.063 24.521,-42.647 15.1,-48.126C8.361,-52.042 0,-51.954 0,-51.954" style="fill:white;fill-rule:nonzero;"/>
            </g>
            <g transform="matrix(1,0,0,1,1297.9,308.511)">
                <path d="M0,-114.228C7.343,-114.228 13.181,-108.374 13.181,-101.042C13.181,-93.693 7.343,-88.025 0,-88.025C-7.356,-88.025 -13.029,-93.693 -13.029,-101.042C-13.029,-108.374 -7.356,-114.228 0,-114.228M9.848,-73.789C9.848,-66.447 9.523,-59.626 9.57,-52.47C9.697,-32.925 11.471,-27.14 11.471,-11.956C11.471,-5.452 8.66,0 -1.197,0C-14.225,0 -13.176,-28.19 -13.721,-44.374C-14.647,-71.908 -12.357,-80.966 1.331,-80.966C4.171,-80.966 9.848,-79.132 9.848,-73.789" style="fill:white;fill-rule:nonzero;"/>
            </g>
            <g transform="matrix(-1,0,0,1,1329.28,221.398)">
                <path d="M0.175,-26.211C-7.176,-26.211 -13.014,-20.371 -13.014,-13.022C-13.014,-5.682 -7.176,0 0.175,0C7.513,0 13.189,-5.682 13.189,-13.022C13.189,-20.371 7.513,-26.211 0.175,-26.211" style="fill:white;fill-rule:nonzero;"/>
            </g>
            <g transform="matrix(1,0,0,1,1414.05,285.768)">
                <path d="M0,-38.128C-5.804,-30.466 -13.151,-37.489 -13.151,-37.489C-17.669,-41.308 -23.539,-45.189 -33.635,-45.189C-41.642,-45.189 -44.147,-40.683 -44.147,-37.683C-44.147,-30.997 -35.135,-29.673 -15.105,-21.653C2.092,-14.806 7.151,-7.285 7.151,0.383C7.151,11.232 3.93,24.26 -30.459,24.26C-50.989,24.26 -65.347,19.25 -65.347,8.906C-65.347,2.885 -62.339,-0.281 -55.493,-0.281C-47.982,-0.281 -46.317,5.394 -29.289,5.394C-14.601,5.394 -13.604,2.885 -13.604,-0.281C-13.604,-4.12 -19.612,-5.135 -35.47,-10.79C-51.162,-16.304 -65.347,-23.651 -65.347,-39.845C-65.347,-53.372 -54.333,-62.388 -32.798,-62.388C-20.946,-62.388 -11.014,-58.173 -4.045,-52.995C-4.045,-52.995 5.542,-45.446 0,-38.128" style="fill:white;fill-rule:nonzero;"/>
            </g>
            <g transform="matrix(1,0,0,1,1267.07,309.005)">
                <path d="M0,-86.101C-4.743,-86.101 -10.614,-84.07 -11.633,-74.386C-12.211,-68.931 -13.883,-48.165 -14.895,-33.259C-20.53,-50.136 -29.342,-76.23 -30.977,-79.287C-33.25,-83.355 -36.549,-85.591 -40.274,-85.591C-45.905,-85.591 -49.469,-81.775 -51.846,-73.205C-53.715,-66.453 -59.411,-47.232 -62.506,-36.81C-64.875,-50.374 -69.315,-75.869 -70.672,-79.622C-72.473,-84.636 -76.682,-87.511 -82.2,-87.511C-87.129,-87.511 -92.11,-83.74 -92.11,-76.527C-92.11,-71.96 -90.372,-65.746 -87.877,-56.183C-86.69,-51.605 -85.458,-46.878 -84.463,-42.55C-82.932,-35.972 -81.575,-29.413 -80.389,-23.606C-79.116,-17.444 -78.114,-12.575 -77.411,-10.241C-75.417,-3.661 -71.543,-0.03 -66.51,-0.03C-58.739,-0.03 -56.542,-5.243 -54.815,-11.026L-53.999,-13.743C-46.922,-36.855 -43.536,-47.978 -41.918,-53.4C-41.143,-51.316 -40.18,-48.712 -39.149,-45.939C-31.92,-26.441 -24.743,-8.821 -23.379,-6.243C-20.708,-1.237 -16.245,1.41 -10.483,1.41C-3.823,1.41 -0.209,-4.457 0.85,-9.465C1.822,-14.032 10.038,-67.734 10.038,-73.802C10.038,-80.82 5.723,-86.101 0,-86.101" style="fill:white;fill-rule:nonzero;"/>
            </g>
            <g transform="matrix(1,0,0,1,1329.99,228.758)">
                <path d="M0,80.776C-11.851,81.36 -11.455,67.516 -11.455,67.516C-11.455,37.808 -13.672,33.964 -13.672,14.101C-13.672,3.257 -8.959,-0.584 -2.106,-0.584C6.73,-0.584 10.741,5.418 10.741,13.939C10.741,32.47 12.074,35.3 12.074,68.354C12.074,68.354 12.729,80.147 0,80.776" style="fill:white;fill-rule:nonzero;"/>
            </g>
            <g transform="matrix(1,0,0,1,1250.17,344.377)">
                <path d="M0,-6.592L0,-8.02L2.49,-8.02L2.49,-11.92C2.49,-13.348 2.871,-14.492 3.635,-15.354C4.397,-16.214 5.469,-16.645 6.848,-16.645L8.496,-16.645L8.496,-14.959L7.172,-14.959C5.308,-14.959 4.382,-13.958 4.395,-11.957L4.395,-8.02L8.496,-8.02L8.496,-6.592L4.395,-6.592L4.395,10.053L2.49,10.053L2.49,-6.592L0,-6.592Z" style="fill:white;fill-rule:nonzero;"/>
            </g>
            <g transform="matrix(1,0,0,1,1263.59,345.393)">
                <path d="M0,0C0,2.948 0.538,4.959 1.614,6.033C2.641,7.059 3.892,7.571 5.365,7.571C6.838,7.571 8.089,7.059 9.115,6.033C10.191,4.959 10.729,2.948 10.729,0C10.729,-2.948 10.191,-4.959 9.115,-6.033C8.089,-7.059 6.838,-7.571 5.365,-7.571C3.892,-7.571 2.641,-7.059 1.614,-6.033C0.538,-4.959 0,-2.948 0,0M-1.904,0C-1.904,-3.351 -1.155,-5.777 0.345,-7.278C1.674,-8.609 3.35,-9.271 5.374,-9.266C7.397,-9.259 9.068,-8.597 10.385,-7.278C11.884,-5.777 12.634,-3.351 12.634,0C12.634,3.351 11.884,5.776 10.385,7.278C9.056,8.609 7.383,9.271 5.365,9.265C3.347,9.259 1.674,8.597 0.345,7.278C-1.155,5.776 -1.904,3.351 -1.904,0" style="fill:white;fill-rule:nonzero;"/>
            </g>
            <g transform="matrix(1,0,0,1,1280.31,338.719)">
                <path d="M0,13.348L1.319,12.03C2.721,13.507 4.698,14.245 7.247,14.245C10.878,14.245 12.695,13.019 12.695,10.567C12.695,9.615 12.42,8.905 11.872,8.435C11.322,7.964 10.443,7.669 9.234,7.546L6.238,7.286C2.608,6.98 0.793,5.399 0.793,2.545C0.793,0.97 1.381,-0.278 2.557,-1.2C3.734,-2.121 5.309,-2.582 7.284,-2.582C9.79,-2.582 11.905,-1.947 13.629,-0.677L12.346,0.604C10.94,-0.422 9.252,-0.934 7.284,-0.934C5.78,-0.934 4.632,-0.632 3.844,-0.031C3.055,0.572 2.661,1.438 2.661,2.569C2.661,3.527 2.955,4.245 3.543,4.725C4.131,5.204 5.069,5.505 6.356,5.628L9.266,5.895C10.964,6.064 12.272,6.483 13.188,7.153C14.104,7.823 14.563,8.96 14.563,10.565C14.563,12.213 13.912,13.519 12.61,14.484C11.308,15.448 9.545,15.93 7.321,15.93C4.234,15.93 1.794,15.07 0,13.348" style="fill:white;fill-rule:nonzero;"/>
            </g>
            <g transform="matrix(1,0,0,1,1298.18,347.216)">
                <path d="M0,-9.431L0,-10.859L2.49,-10.859L2.49,-16.645L4.395,-16.645L4.395,-10.859L8.496,-10.859L8.496,-9.431L4.395,-9.431L4.395,2.526C4.395,4.528 5.32,5.529 7.172,5.529L8.496,5.529L8.496,7.214L6.849,7.214C5.469,7.214 4.397,6.783 3.635,5.923C2.872,5.062 2.49,3.918 2.49,2.489L2.49,-9.431L0,-9.431Z" style="fill:white;fill-rule:nonzero;"/>
            </g>
            <g transform="matrix(1,0,0,1,1312.69,346.519)">
                <path d="M0,-2.252L10.639,-2.252C10.54,-3.803 10.333,-4.938 10.016,-5.658C9.613,-6.61 8.993,-7.355 8.157,-7.892C7.321,-8.429 6.378,-8.697 5.328,-8.697C4.278,-8.697 3.332,-8.429 2.49,-7.892C1.647,-7.355 1.031,-6.61 0.641,-5.658C0.286,-4.718 0.073,-3.583 0,-2.252M-1.904,-1.135C-1.904,-4.064 -1.267,-6.338 0.009,-7.956C1.284,-9.573 3.061,-10.382 5.337,-10.382C7.614,-10.382 9.39,-9.606 10.666,-8.057C11.941,-6.506 12.579,-4.346 12.579,-1.574L12.579,-0.714L0,-0.714C0,1.605 0.5,3.372 1.501,4.587C2.502,5.802 3.961,6.408 5.878,6.408C6.927,6.408 7.827,6.241 8.578,5.905C9.329,5.569 10.095,5.011 10.876,4.229L12.305,5.365C11.328,6.342 10.352,7.047 9.375,7.479C8.398,7.913 7.196,8.13 5.768,8.13C3.265,8.13 1.36,7.343 0.055,5.768C-1.252,4.193 -1.904,1.893 -1.904,-1.135" style="fill:white;fill-rule:nonzero;"/>
            </g>
            <g transform="matrix(1,0,0,1,1331.08,336.137)">
                <path d="M0,18.292L0,0.22L1.904,0.22L1.904,2.618C2.43,1.788 3.168,1.145 4.12,0.687C5.072,0.229 6.098,0 7.196,0C8.941,0 10.389,0.573 11.536,1.721L10.163,3.112C9.613,2.563 9.095,2.188 8.606,1.986C8.118,1.785 7.495,1.685 6.738,1.685C5.237,1.685 4.056,2.216 3.195,3.277C2.335,4.339 1.904,5.634 1.904,7.159L1.904,18.292L0,18.292Z" style="fill:white;fill-rule:nonzero;"/>
            </g>
            <g transform="matrix(1,0,0,1,1356.26,338.609)">
                <path d="M0,13.568C-1.404,11.92 -2.105,9.659 -2.105,6.784C-2.105,3.909 -1.4,1.648 0.009,0C1.419,-1.649 3.356,-2.472 5.823,-2.472C7.092,-2.472 8.173,-2.274 9.063,-1.877C9.955,-1.481 10.864,-0.757 11.792,0.293L10.474,1.502C9.705,0.647 8.981,0.051 8.304,-0.285C7.626,-0.62 6.799,-0.787 5.823,-0.787C3.699,-0.787 2.1,0.012 1.025,1.611C0.195,2.807 -0.217,4.532 -0.211,6.784C-0.204,9.036 0.207,10.76 1.025,11.957C2.1,13.555 3.699,14.355 5.823,14.355C6.775,14.355 7.596,14.187 8.285,13.851C8.975,13.516 9.705,12.921 10.474,12.066L11.792,13.275C10.864,14.325 9.958,15.048 9.073,15.445C8.188,15.841 7.104,16.04 5.823,16.04C3.345,16.04 1.403,15.215 0,13.568" style="fill:white;fill-rule:nonzero;"/>
            </g>
            <g transform="matrix(1,0,0,1,1373.68,341.337)">
                <path d="M0,8.112C0,9.308 0.376,10.193 1.126,10.767C1.877,11.341 3.076,11.628 4.725,11.628C6.751,11.628 8.252,11.164 9.229,10.236C9.9,9.59 10.236,8.442 10.236,6.794L10.236,4.468L4.614,4.468C1.538,4.468 0,5.683 0,8.112M-1.904,8.149C-1.904,6.501 -1.349,5.219 -0.237,4.303C0.873,3.387 2.417,2.93 4.395,2.93L10.236,2.93L10.236,0.897C10.236,-0.579 9.836,-1.684 9.036,-2.416C8.237,-3.149 6.94,-3.515 5.146,-3.515C3.9,-3.515 2.905,-3.341 2.161,-2.993C1.416,-2.646 0.745,-2.056 0.146,-1.226L-1.227,-2.435C-0.482,-3.46 0.385,-4.177 1.374,-4.586C2.362,-4.995 3.619,-5.2 5.146,-5.2C9.809,-5.2 12.141,-3.228 12.141,0.715L12.141,13.092L10.236,13.092L10.236,11.298C9.491,12.043 8.713,12.564 7.901,12.864C7.089,13.163 6.03,13.312 4.725,13.312C2.246,13.312 0.47,12.762 -0.604,11.665C-1.471,10.798 -1.904,9.626 -1.904,8.149" style="fill:white;fill-rule:nonzero;"/>
            </g>
            <g transform="matrix(1,0,0,1,1391.09,336.137)">
                <path d="M0,18.292L0,0.22L1.904,0.22L1.904,2.618C2.43,1.788 3.168,1.145 4.12,0.687C5.072,0.229 6.098,0 7.196,0C8.941,0 10.389,0.573 11.536,1.721L10.163,3.112C9.613,2.563 9.095,2.188 8.606,1.986C8.118,1.785 7.495,1.685 6.738,1.685C5.237,1.685 4.056,2.216 3.195,3.277C2.335,4.339 1.904,5.634 1.904,7.159L1.904,18.292L0,18.292Z" style="fill:white;fill-rule:nonzero;"/>
            </g>
            <g transform="matrix(1,0,0,1,1405.57,346.519)">
                <path d="M0,-2.252L10.639,-2.252C10.54,-3.803 10.333,-4.938 10.016,-5.658C9.613,-6.61 8.993,-7.355 8.157,-7.892C7.321,-8.429 6.378,-8.697 5.328,-8.697C4.278,-8.697 3.332,-8.429 2.49,-7.892C1.647,-7.355 1.031,-6.61 0.641,-5.658C0.286,-4.718 0.073,-3.583 0,-2.252M-1.904,-1.135C-1.904,-4.064 -1.267,-6.338 0.009,-7.956C1.284,-9.573 3.061,-10.382 5.337,-10.382C7.614,-10.382 9.39,-9.606 10.666,-8.057C11.941,-6.506 12.579,-4.346 12.579,-1.574L12.579,-0.714L0,-0.714C0,1.605 0.5,3.372 1.501,4.587C2.502,5.802 3.961,6.408 5.878,6.408C6.927,6.408 7.827,6.241 8.578,5.905C9.329,5.569 10.095,5.011 10.876,4.229L12.305,5.365C11.328,6.342 10.352,7.047 9.375,7.479C8.398,7.913 7.196,8.13 5.768,8.13C3.265,8.13 1.36,7.343 0.055,5.768C-1.252,4.193 -1.904,1.893 -1.904,-1.135" style="fill:white;fill-rule:nonzero;"/>
            </g>
        </g>
        <g id="swiis-healthcare" transform="matrix(0.995746,0,0,0.991983,-1113.88,-828.464)">
            <g transform="matrix(1,0,0,1,1154.88,932.659)">
                <path d="M0,-51.957C-8.008,-51.957 -11.932,-47.455 -11.932,-44.447C-11.932,-37.769 -3.855,-36.443 16.176,-28.414C33.367,-21.564 40.545,-14.07 40.545,-6.373C40.545,4.463 33.637,17.49 -0.748,17.49C-21.283,17.49 -35.635,12.479 -35.635,2.131C-35.635,-3.881 -32.632,-7.053 -25.789,-7.053C-18.275,-7.053 -16.604,-1.365 0.422,-1.365C15.107,-1.365 17.678,-3.881 17.678,-7.053C17.678,-10.883 12.607,-11.896 -3.248,-17.557C-18.945,-23.076 -33.133,-30.422 -33.133,-46.613C-33.133,-60.139 -20.699,-69.158 0.834,-69.158C0.834,-69.158 14.125,-69.447 25.166,-62.664C35.537,-56.287 29.068,-49.066 29.068,-49.066C29.068,-49.066 24.521,-42.65 15.1,-48.129C8.361,-52.045 0,-51.957 0,-51.957" style="fill:white;fill-rule:nonzero;"/>
            </g>
            <g transform="matrix(1,0,0,1,1314.78,949.995)">
                <path d="M0,-114.23C7.342,-114.23 13.18,-108.376 13.18,-101.044C13.18,-93.695 7.342,-88.027 0,-88.027C-7.357,-88.027 -13.029,-93.695 -13.029,-101.044C-13.029,-108.376 -7.357,-114.23 0,-114.23M9.848,-73.791C9.848,-66.449 9.523,-59.628 9.57,-52.472C9.697,-32.927 11.471,-27.14 11.471,-11.955C11.471,-5.451 8.66,0 -1.197,0C-14.225,0 -13.176,-28.191 -13.721,-44.376C-14.648,-71.91 -12.357,-80.968 1.33,-80.968C4.17,-80.968 9.848,-79.134 9.848,-73.791" style="fill:white;fill-rule:nonzero;"/>
            </g>
            <g transform="matrix(-1,0,0,1,1346.17,862.88)">
                <path d="M0.175,-26.211C-7.177,-26.211 -13.014,-20.371 -13.014,-13.022C-13.014,-5.682 -7.177,0 0.175,0C7.513,0 13.189,-5.682 13.189,-13.022C13.189,-20.371 7.513,-26.211 0.175,-26.211" style="fill:white;fill-rule:nonzero;"/>
            </g>
            <g transform="matrix(1,0,0,1,1430.93,927.253)">
                <path d="M0,-38.131C-5.805,-30.469 -13.152,-37.492 -13.152,-37.492C-17.67,-41.311 -23.539,-45.192 -33.635,-45.192C-41.643,-45.192 -44.148,-40.686 -44.148,-37.686C-44.148,-31 -35.135,-29.676 -15.105,-21.656C2.092,-14.809 7.15,-7.287 7.15,0.383C7.15,11.232 3.93,24.26 -30.459,24.26C-50.99,24.26 -65.348,19.25 -65.348,8.906C-65.348,2.885 -62.34,-0.281 -55.494,-0.281C-47.982,-0.281 -46.318,5.394 -29.289,5.394C-14.602,5.394 -13.604,2.885 -13.604,-0.281C-13.604,-4.121 -19.613,-5.137 -35.471,-10.793C-51.162,-16.307 -65.348,-23.654 -65.348,-39.848C-65.348,-53.375 -54.334,-62.391 -32.799,-62.391C-20.947,-62.391 -11.014,-58.176 -4.045,-52.998C-4.045,-52.998 5.541,-45.449 0,-38.131" style="fill:white;fill-rule:nonzero;"/>
            </g>
            <g transform="matrix(1,0,0,1,1283.96,950.49)">
                <path d="M0,-86.104C-4.744,-86.104 -10.615,-84.073 -11.635,-74.389C-12.213,-68.934 -13.885,-48.168 -14.896,-33.262C-20.531,-50.139 -29.344,-76.233 -30.979,-79.29C-33.252,-83.358 -36.551,-85.594 -40.275,-85.594C-45.906,-85.594 -49.471,-81.778 -51.848,-73.208C-53.717,-66.456 -59.412,-47.235 -62.508,-36.813C-64.877,-50.377 -69.316,-75.872 -70.674,-79.625C-72.475,-84.639 -76.684,-87.514 -82.201,-87.514C-87.131,-87.514 -92.111,-83.743 -92.111,-76.53C-92.111,-71.963 -90.373,-65.749 -87.879,-56.186C-86.691,-51.608 -85.459,-46.881 -84.465,-42.553C-82.934,-35.975 -81.576,-29.415 -80.391,-23.606C-79.117,-17.444 -78.115,-12.575 -77.412,-10.241C-75.418,-3.661 -71.545,-0.03 -66.512,-0.03C-58.74,-0.03 -56.543,-5.243 -54.816,-11.026L-54,-13.743C-46.924,-36.858 -43.537,-47.981 -41.92,-53.403C-41.145,-51.319 -40.182,-48.715 -39.15,-45.942C-31.922,-26.442 -24.744,-8.821 -23.381,-6.243C-20.709,-1.237 -16.246,1.41 -10.484,1.41C-3.824,1.41 -0.209,-4.458 0.851,-9.465C1.823,-14.032 10.043,-67.737 10.043,-73.805C10.043,-80.823 5.726,-86.104 0,-86.104" style="fill:white;fill-rule:nonzero;"/>
            </g>
            <g transform="matrix(1,0,0,1,1346.88,870.24)">
                <path d="M0,80.779C-11.852,81.363 -11.455,67.519 -11.455,67.519C-11.455,37.808 -13.672,33.965 -13.672,14.101C-13.672,3.258 -8.959,-0.584 -2.107,-0.584C6.73,-0.584 10.74,5.418 10.74,13.939C10.74,32.47 12.074,35.3 12.074,68.357C12.074,68.357 12.729,80.15 0,80.779" style="fill:white;fill-rule:nonzero;"/>
            </g>
            <g transform="matrix(1,0,0,1,1273.78,969.069)">
                <path d="M0,26.697L0,0L1.904,0L1.904,10.767C3.26,9.192 5.036,8.405 7.233,8.405C9.307,8.405 10.937,9.003 12.122,10.199C13.305,11.395 13.897,13.044 13.897,15.143L13.897,26.697L11.993,26.697L11.993,15.491C11.993,13.746 11.569,12.409 10.72,11.481C9.872,10.553 8.636,10.09 7.013,10.09C5.39,10.09 4.132,10.556 3.241,11.49C2.35,12.424 1.904,13.758 1.904,15.491L1.904,26.697L0,26.697Z" style="fill:white;fill-rule:nonzero;"/>
            </g>
            <g transform="matrix(1,0,0,1,1293.45,987.856)">
                <path d="M0,-2.252L10.639,-2.252C10.54,-3.803 10.333,-4.938 10.016,-5.658C9.613,-6.61 8.993,-7.355 8.157,-7.892C7.321,-8.429 6.378,-8.697 5.328,-8.697C4.278,-8.697 3.332,-8.429 2.49,-7.892C1.647,-7.355 1.031,-6.61 0.641,-5.658C0.286,-4.718 0.073,-3.583 0,-2.252M-1.904,-1.135C-1.904,-4.064 -1.267,-6.338 0.009,-7.956C1.284,-9.573 3.061,-10.382 5.337,-10.382C7.614,-10.382 9.39,-9.606 10.666,-8.057C11.941,-6.506 12.579,-4.346 12.579,-1.574L12.579,-0.714L0,-0.714C0,1.605 0.5,3.372 1.501,4.587C2.502,5.802 3.961,6.408 5.877,6.408C6.927,6.408 7.827,6.241 8.578,5.905C9.329,5.569 10.095,5.011 10.876,4.229L12.305,5.365C11.328,6.342 10.352,7.047 9.375,7.479C8.398,7.913 7.195,8.13 5.768,8.13C3.265,8.13 1.36,7.343 0.055,5.768C-1.252,4.193 -1.904,1.893 -1.904,-1.135" style="fill:white;fill-rule:nonzero;"/>
            </g>
            <g transform="matrix(1,0,0,1,1312.21,982.673)">
                <path d="M0,8.112C0,9.308 0.376,10.193 1.126,10.767C1.877,11.341 3.076,11.628 4.725,11.628C6.751,11.628 8.252,11.164 9.229,10.236C9.9,9.59 10.236,8.442 10.236,6.794L10.236,4.468L4.614,4.468C1.538,4.468 0,5.683 0,8.112M-1.904,8.149C-1.904,6.501 -1.349,5.219 -0.238,4.303C0.873,3.387 2.417,2.93 4.395,2.93L10.236,2.93L10.236,0.897C10.236,-0.579 9.836,-1.684 9.036,-2.416C8.237,-3.149 6.939,-3.515 5.146,-3.515C3.9,-3.515 2.905,-3.341 2.161,-2.993C1.416,-2.646 0.745,-2.056 0.146,-1.226L-1.227,-2.435C-0.482,-3.46 0.385,-4.177 1.373,-4.586C2.362,-4.995 3.619,-5.2 5.146,-5.2C9.809,-5.2 12.141,-3.228 12.141,0.715L12.141,13.092L10.236,13.092L10.236,11.298C9.491,12.043 8.713,12.564 7.901,12.864C7.089,13.163 6.03,13.312 4.725,13.312C2.246,13.312 0.47,12.762 -0.604,11.665C-1.471,10.798 -1.904,9.626 -1.904,8.149" style="fill:white;fill-rule:nonzero;"/>
            </g>
            <g transform="matrix(1,0,0,1,1330.29,973.755)">
                <path d="M0,17.323L0,-4.687L1.904,-4.687L1.904,17.286C1.904,18.361 2.112,19.135 2.527,19.612C2.942,20.088 3.662,20.326 4.687,20.326L5.988,20.326L5.988,22.01L4.34,22.01C2.887,22.01 1.801,21.598 1.08,20.774C0.36,19.951 0,18.801 0,17.323" style="fill:white;fill-rule:nonzero;"/>
            </g>
            <g transform="matrix(1,0,0,1,1337.94,988.552)">
                <path d="M0,-9.431L0,-10.859L2.49,-10.859L2.49,-16.645L4.395,-16.645L4.395,-10.859L8.496,-10.859L8.496,-9.431L4.395,-9.431L4.395,2.526C4.395,4.528 5.32,5.529 7.172,5.529L8.496,5.529L8.496,7.214L6.849,7.214C5.469,7.214 4.397,6.783 3.635,5.923C2.872,5.062 2.49,3.918 2.49,2.489L2.49,-9.431L0,-9.431Z" style="fill:white;fill-rule:nonzero;"/>
            </g>
            <g transform="matrix(1,0,0,1,1351.04,969.069)">
                <path d="M0,26.697L0,0L1.904,0L1.904,10.767C3.26,9.192 5.036,8.405 7.233,8.405C9.308,8.405 10.938,9.003 12.122,10.199C13.306,11.395 13.897,13.044 13.897,15.143L13.897,26.697L11.993,26.697L11.993,15.491C11.993,13.746 11.569,12.409 10.721,11.481C9.872,10.553 8.637,10.09 7.013,10.09C5.39,10.09 4.132,10.556 3.241,11.49C2.35,12.424 1.904,13.758 1.904,15.491L1.904,26.697L0,26.697Z" style="fill:white;fill-rule:nonzero;"/>
            </g>
            <g transform="matrix(1,0,0,1,1371.14,980.092)">
                <path d="M0,13.568C-1.404,11.92 -2.105,9.659 -2.105,6.784C-2.105,3.909 -1.4,1.648 0.009,0C1.419,-1.649 3.356,-2.472 5.822,-2.472C7.092,-2.472 8.173,-2.274 9.063,-1.877C9.955,-1.481 10.864,-0.757 11.792,0.293L10.474,1.502C9.705,0.647 8.981,0.051 8.304,-0.285C7.626,-0.62 6.799,-0.787 5.822,-0.787C3.699,-0.787 2.1,0.012 1.025,1.611C0.195,2.807 -0.217,4.532 -0.211,6.784C-0.204,9.036 0.207,10.76 1.025,11.957C2.1,13.555 3.699,14.355 5.822,14.355C6.775,14.355 7.596,14.187 8.285,13.851C8.975,13.516 9.705,12.921 10.474,12.066L11.792,13.275C10.864,14.325 9.958,15.048 9.073,15.445C8.188,15.841 7.104,16.04 5.822,16.04C3.345,16.04 1.403,15.215 0,13.568" style="fill:white;fill-rule:nonzero;"/>
            </g>
            <g transform="matrix(1,0,0,1,1388.56,982.82)">
                <path d="M0,8.112C0,9.308 0.376,10.193 1.126,10.767C1.877,11.341 3.076,11.628 4.725,11.628C6.751,11.628 8.252,11.164 9.229,10.236C9.9,9.59 10.236,8.442 10.236,6.794L10.236,4.468L4.614,4.468C1.538,4.468 0,5.683 0,8.112M-1.904,8.149C-1.904,6.501 -1.349,5.219 -0.238,4.303C0.873,3.387 2.417,2.93 4.395,2.93L10.236,2.93L10.236,0.897C10.236,-0.579 9.836,-1.684 9.036,-2.416C8.237,-3.149 6.939,-3.515 5.146,-3.515C3.9,-3.515 2.905,-3.341 2.161,-2.993C1.416,-2.646 0.745,-2.056 0.146,-1.226L-1.227,-2.435C-0.482,-3.46 0.385,-4.177 1.373,-4.586C2.362,-4.995 3.619,-5.2 5.146,-5.2C9.809,-5.2 12.141,-3.228 12.141,0.715L12.141,13.092L10.236,13.092L10.236,11.298C9.491,12.043 8.713,12.564 7.901,12.864C7.089,13.163 6.03,13.312 4.725,13.312C2.246,13.312 0.47,12.762 -0.604,11.665C-1.471,10.798 -1.904,9.626 -1.904,8.149" style="fill:white;fill-rule:nonzero;"/>
            </g>
            <g transform="matrix(1,0,0,1,1405.97,977.62)">
                <path d="M0,18.292L0,0.22L1.904,0.22L1.904,2.618C2.43,1.788 3.168,1.145 4.12,0.687C5.072,0.229 6.098,0 7.196,0C8.941,0 10.389,0.573 11.536,1.721L10.163,3.112C9.613,2.563 9.095,2.188 8.606,1.986C8.118,1.785 7.495,1.685 6.738,1.685C5.237,1.685 4.056,2.216 3.195,3.277C2.335,4.339 1.904,5.634 1.904,7.159L1.904,18.292L0,18.292Z" style="fill:white;fill-rule:nonzero;"/>
            </g>
            <g transform="matrix(1,0,0,1,1420.45,988.002)">
                <path d="M0,-2.252L10.639,-2.252C10.54,-3.803 10.333,-4.938 10.016,-5.658C9.613,-6.61 8.993,-7.355 8.157,-7.892C7.321,-8.429 6.378,-8.697 5.328,-8.697C4.278,-8.697 3.332,-8.429 2.49,-7.892C1.647,-7.355 1.031,-6.61 0.641,-5.658C0.286,-4.718 0.073,-3.583 0,-2.252M-1.904,-1.135C-1.904,-4.064 -1.267,-6.338 0.009,-7.956C1.284,-9.573 3.061,-10.382 5.337,-10.382C7.614,-10.382 9.39,-9.606 10.666,-8.057C11.941,-6.506 12.579,-4.346 12.579,-1.574L12.579,-0.714L0,-0.714C0,1.605 0.5,3.372 1.501,4.587C2.502,5.802 3.961,6.408 5.877,6.408C6.927,6.408 7.827,6.241 8.578,5.905C9.329,5.569 10.095,5.011 10.876,4.229L12.305,5.365C11.328,6.342 10.352,7.047 9.375,7.479C8.398,7.913 7.195,8.13 5.768,8.13C3.265,8.13 1.36,7.343 0.055,5.768C-1.252,4.193 -1.904,1.893 -1.904,-1.135" style="fill:white;fill-rule:nonzero;"/>
            </g>
        </g>
        <g id="swiis-international" transform="matrix(0.995746,0,0,0.991983,-1541.61,-481.936)">
            <g transform="matrix(1,0,0,1,1600.88,633.673)">
                <path d="M0,8.004C0,9.185 0.37,10.058 1.11,10.623C1.852,11.19 3.035,11.473 4.66,11.473C6.66,11.473 8.142,11.015 9.105,10.1C9.768,9.461 10.099,8.329 10.099,6.703L10.099,4.408L4.553,4.408C1.518,4.408 0,5.608 0,8.004M-1.879,8.04C-1.879,6.414 -1.331,5.15 -0.235,4.246C0.86,3.343 2.385,2.891 4.336,2.891L10.099,2.891L10.099,0.886C10.099,-0.571 9.704,-1.662 8.915,-2.385C8.126,-3.107 6.847,-3.469 5.076,-3.469C3.848,-3.469 2.866,-3.297 2.131,-2.953C1.396,-2.61 0.734,-2.029 0.145,-1.21L-1.211,-2.402C-0.477,-3.414 0.379,-4.121 1.354,-4.525C2.33,-4.929 3.57,-5.131 5.076,-5.131C9.677,-5.131 11.978,-3.185 11.978,0.705L11.978,12.918L10.099,12.918L10.099,11.148C9.364,11.882 8.596,12.398 7.795,12.692C6.994,12.987 5.949,13.135 4.66,13.135C2.216,13.135 0.463,12.593 -0.597,11.509C-1.452,10.653 -1.879,9.497 -1.879,8.04" style="fill:rgb(15,155,223);fill-rule:nonzero;"/>
            </g>
            <g transform="matrix(1,0,0,1,1617.99,624.875)">
                <path d="M0,17.091L0,-4.625L1.879,-4.625L1.879,17.055C1.879,18.114 2.083,18.88 2.492,19.349C2.902,19.82 3.613,20.054 4.625,20.054L5.907,20.054L5.907,21.716L4.281,21.716C2.848,21.716 1.776,21.31 1.065,20.496C0.354,19.684 0,18.548 0,17.091" style="fill:rgb(15,155,223);fill-rule:nonzero;"/>
            </g>
            <g transform="matrix(1,0,0,1,1627.48,624.875)">
                <path d="M0,17.091L0,-4.625L1.879,-4.625L1.879,17.055C1.879,18.114 2.083,18.88 2.492,19.349C2.902,19.82 3.613,20.054 4.625,20.054L5.907,20.054L5.907,21.716L4.281,21.716C2.848,21.716 1.776,21.31 1.065,20.496C0.354,19.684 0,18.548 0,17.091" style="fill:rgb(15,155,223);fill-rule:nonzero;"/>
            </g>
            <g transform="matrix(1,0,0,1,1643.35,639.472)">
                <path d="M0,-9.303L0,-10.713L2.457,-10.713L2.457,-16.422L4.336,-16.422L4.336,-10.713L8.383,-10.713L8.383,-9.303L4.336,-9.303L4.336,2.494C4.336,4.469 5.249,5.457 7.075,5.457L8.383,5.457L8.383,7.119L6.756,7.119C5.396,7.119 4.338,6.694 3.586,5.845C2.833,4.996 2.457,3.867 2.457,2.458L2.457,-9.303L0,-9.303Z" style="fill:rgb(15,155,223);fill-rule:nonzero;"/>
            </g>
            <g transform="matrix(1,0,0,1,1656.73,637.675)">
                <path d="M0,0C0,2.909 0.531,4.894 1.593,5.953C2.606,6.965 3.84,7.471 5.294,7.471C6.748,7.471 7.981,6.965 8.995,5.953C10.057,4.894 10.588,2.909 10.588,0C10.588,-2.908 10.057,-4.893 8.995,-5.953C7.981,-6.965 6.748,-7.471 5.294,-7.471C3.84,-7.471 2.606,-6.965 1.593,-5.953C0.531,-4.893 0,-2.908 0,0M-1.879,0C-1.879,-3.306 -1.139,-5.699 0.341,-7.182C1.652,-8.494 3.306,-9.147 5.303,-9.142C7.3,-9.135 8.948,-8.482 10.247,-7.182C11.727,-5.699 12.467,-3.306 12.467,0C12.467,3.307 11.727,5.7 10.247,7.182C8.936,8.494 7.284,9.147 5.294,9.142C3.303,9.136 1.652,8.482 0.341,7.182C-1.139,5.7 -1.879,3.307 -1.879,0" style="fill:rgb(15,155,223);fill-rule:nonzero;"/>
            </g>
            <g transform="matrix(1,0,0,1,1675.26,648.627)">
                <path d="M0,-13.734C-0.121,-12.945 -0.182,-12.02 -0.182,-10.961C-0.182,-9.901 -0.121,-8.973 0,-8.178C0.12,-7.383 0.35,-6.603 0.687,-5.838C1.025,-5.074 1.544,-4.49 2.244,-4.087C2.943,-3.682 3.813,-3.481 4.851,-3.481C5.888,-3.481 6.76,-3.682 7.466,-4.087C8.171,-4.49 8.69,-5.074 9.022,-5.838C9.354,-6.603 9.583,-7.383 9.71,-8.178C9.836,-8.973 9.9,-9.901 9.9,-10.961C9.9,-12.02 9.836,-12.945 9.71,-13.734C9.583,-14.522 9.354,-15.299 9.022,-16.064C8.69,-16.829 8.171,-17.413 7.466,-17.817C6.76,-18.22 5.888,-18.422 4.851,-18.422C3.813,-18.422 2.943,-18.22 2.244,-17.817C1.544,-17.413 1.025,-16.829 0.687,-16.064C0.35,-15.299 0.12,-14.522 0,-13.734M-2.061,-10.952C-2.061,-14.474 -1.297,-17.001 0.231,-18.53C1.266,-19.566 2.721,-20.085 4.597,-20.085C5.707,-20.085 6.682,-19.906 7.52,-19.551C8.358,-19.196 9.151,-18.537 9.9,-17.573L9.9,-19.868L11.779,-19.868L11.779,-1.381C11.779,0.907 11.131,2.767 9.834,4.201C8.537,5.634 6.756,6.351 4.488,6.351C3.213,6.351 2.153,6.172 1.311,5.818C0.468,5.462 -0.436,4.851 -1.398,3.984L-0.145,2.738C0.651,3.448 1.357,3.951 1.973,4.245C2.588,4.54 3.427,4.689 4.488,4.689C6.298,4.689 7.652,4.128 8.552,3.008C9.45,1.888 9.9,0.388 9.9,-1.491L9.9,-4.331C9.164,-3.367 8.374,-2.707 7.529,-2.352C6.685,-1.997 5.707,-1.819 4.597,-1.819C2.721,-1.819 1.266,-2.337 0.231,-3.373C-1.297,-4.902 -2.061,-7.428 -2.061,-10.952" style="fill:rgb(15,155,223);fill-rule:nonzero;"/>
            </g>
            <g transform="matrix(1,0,0,1,1693.38,638.787)">
                <path d="M0,-2.223L10.497,-2.223C10.4,-3.752 10.196,-4.872 9.883,-5.582C9.485,-6.522 8.874,-7.257 8.049,-7.787C7.224,-8.317 6.294,-8.582 5.258,-8.582C4.222,-8.582 3.289,-8.317 2.457,-7.787C1.627,-7.257 1.019,-6.522 0.633,-5.582C0.283,-4.656 0.072,-3.535 0,-2.223M-1.879,-1.12C-1.879,-4.011 -1.249,-6.254 0.01,-7.85C1.268,-9.446 3.021,-10.244 5.267,-10.244C7.513,-10.244 9.266,-9.479 10.524,-7.95C11.782,-6.42 12.412,-4.288 12.412,-1.554L12.412,-0.705L0,-0.705C0,1.584 0.494,3.327 1.482,4.525C2.47,5.724 3.909,6.323 5.8,6.323C6.836,6.323 7.724,6.158 8.465,5.826C9.205,5.495 9.961,4.944 10.732,4.173L12.141,5.293C11.178,6.256 10.214,6.953 9.25,7.38C8.287,7.807 7.101,8.021 5.691,8.021C3.223,8.021 1.344,7.244 0.055,5.691C-1.234,4.136 -1.879,1.867 -1.879,-1.12" style="fill:rgb(15,155,223);fill-rule:nonzero;"/>
            </g>
            <g transform="matrix(1,0,0,1,1708.76,639.472)">
                <path d="M0,-9.303L0,-10.713L2.457,-10.713L2.457,-16.422L4.336,-16.422L4.336,-10.713L8.383,-10.713L8.383,-9.303L4.336,-9.303L4.336,2.494C4.336,4.469 5.249,5.457 7.075,5.457L8.383,5.457L8.383,7.119L6.756,7.119C5.396,7.119 4.338,6.694 3.586,5.845C2.833,4.996 2.457,3.867 2.457,2.458L2.457,-9.303L0,-9.303Z" style="fill:rgb(15,155,223);fill-rule:nonzero;"/>
            </g>
            <g transform="matrix(1,0,0,1,1721.51,620.25)">
                <path d="M0,26.341L0,0L1.879,0L1.879,10.623C3.215,9.07 4.968,8.292 7.136,8.292C9.184,8.292 10.791,8.883 11.959,10.064C13.128,11.243 13.712,12.869 13.712,14.941L13.712,26.341L11.833,26.341L11.833,15.284C11.833,13.562 11.414,12.243 10.577,11.327C9.74,10.412 8.521,9.954 6.919,9.954C5.317,9.954 4.076,10.415 3.197,11.337C2.318,12.258 1.879,13.574 1.879,15.284L1.879,26.341L0,26.341Z" style="fill:rgb(15,155,223);fill-rule:nonzero;"/>
            </g>
            <g transform="matrix(1,0,0,1,1741.53,638.787)">
                <path d="M0,-2.223L10.497,-2.223C10.4,-3.752 10.196,-4.872 9.883,-5.582C9.485,-6.522 8.874,-7.257 8.049,-7.787C7.224,-8.317 6.294,-8.582 5.258,-8.582C4.222,-8.582 3.289,-8.317 2.457,-7.787C1.627,-7.257 1.019,-6.522 0.633,-5.582C0.283,-4.656 0.072,-3.535 0,-2.223M-1.879,-1.12C-1.879,-4.011 -1.249,-6.254 0.01,-7.85C1.268,-9.446 3.021,-10.244 5.267,-10.244C7.513,-10.244 9.266,-9.479 10.524,-7.95C11.782,-6.42 12.412,-4.288 12.412,-1.554L12.412,-0.705L0,-0.705C0,1.584 0.494,3.327 1.482,4.525C2.47,5.724 3.909,6.323 5.8,6.323C6.836,6.323 7.724,6.158 8.465,5.826C9.205,5.495 9.961,4.944 10.732,4.173L12.141,5.293C11.178,6.256 10.214,6.953 9.25,7.38C8.287,7.807 7.101,8.021 5.691,8.021C3.223,8.021 1.344,7.244 0.055,5.691C-1.234,4.136 -1.879,1.867 -1.879,-1.12" style="fill:rgb(15,155,223);fill-rule:nonzero;"/>
            </g>
            <g transform="matrix(1,0,0,1,1758.56,628.542)">
                <path d="M0,18.049L0,0.217L1.879,0.217L1.879,2.584C2.396,1.765 3.125,1.13 4.064,0.678C5.004,0.227 6.016,0 7.1,0C8.822,0 10.249,0.567 11.381,1.699L10.026,3.072C9.484,2.529 8.973,2.159 8.49,1.961C8.009,1.762 7.395,1.662 6.648,1.662C5.166,1.662 4.001,2.187 3.152,3.235C2.303,4.282 1.879,5.559 1.879,7.065L1.879,18.049L0,18.049Z" style="fill:rgb(15,155,223);fill-rule:nonzero;"/>
            </g>
            <g transform="matrix(1,0,0,1,1782.6,632.165)">
                <path d="M0,2.728C-0.127,3.517 -0.189,4.442 -0.189,5.501C-0.189,6.561 -0.127,7.489 0,8.284C0.126,9.079 0.354,9.859 0.687,10.624C1.018,11.388 1.535,11.972 2.24,12.375C2.944,12.78 3.814,12.981 4.851,12.981C5.887,12.981 6.754,12.78 7.452,12.375C8.15,11.972 8.669,11.388 9.006,10.624C9.343,9.859 9.572,9.079 9.692,8.284C9.813,7.489 9.873,6.561 9.873,5.501C9.873,4.442 9.813,3.517 9.692,2.728C9.572,1.94 9.343,1.163 9.006,0.398C8.669,-0.367 8.15,-0.951 7.452,-1.355C6.754,-1.758 5.887,-1.96 4.851,-1.96C3.814,-1.96 2.944,-1.758 2.24,-1.355C1.535,-0.951 1.018,-0.367 0.687,0.398C0.354,1.163 0.126,1.94 0,2.728M-2.068,14.426L-2.068,-11.915L-0.189,-11.915L-0.189,-1.111C0.545,-2.075 1.334,-2.734 2.177,-3.089C3.02,-3.444 3.995,-3.623 5.104,-3.623C6.978,-3.623 8.431,-3.104 9.464,-2.068C10.989,-0.539 11.752,1.988 11.752,5.51C11.752,9.034 10.989,11.56 9.464,13.089C8.431,14.125 6.978,14.643 5.104,14.643C3.995,14.643 3.022,14.465 2.186,14.11C1.349,13.755 0.557,13.095 -0.189,12.131L-0.189,14.426L-2.068,14.426Z" style="fill:rgb(15,155,223);fill-rule:nonzero;"/>
            </g>
            <g transform="matrix(1,0,0,1,1800.03,638.787)">
                <path d="M0,-2.223L10.497,-2.223C10.4,-3.752 10.196,-4.872 9.883,-5.582C9.485,-6.522 8.874,-7.257 8.049,-7.787C7.224,-8.317 6.294,-8.582 5.258,-8.582C4.222,-8.582 3.289,-8.317 2.457,-7.787C1.627,-7.257 1.019,-6.522 0.633,-5.582C0.283,-4.656 0.072,-3.535 0,-2.223M-1.879,-1.12C-1.879,-4.011 -1.249,-6.254 0.01,-7.85C1.268,-9.446 3.021,-10.244 5.267,-10.244C7.513,-10.244 9.266,-9.479 10.524,-7.95C11.782,-6.42 12.412,-4.288 12.412,-1.554L12.412,-0.705L0,-0.705C0,1.584 0.494,3.327 1.482,4.525C2.47,5.724 3.909,6.323 5.8,6.323C6.836,6.323 7.724,6.158 8.465,5.826C9.205,5.495 9.961,4.944 10.732,4.173L12.141,5.293C11.178,6.256 10.214,6.953 9.25,7.38C8.287,7.807 7.101,8.021 5.691,8.021C3.223,8.021 1.344,7.244 0.055,5.691C-1.234,4.136 -1.879,1.867 -1.879,-1.12" style="fill:rgb(15,155,223);fill-rule:nonzero;"/>
            </g>
            <g transform="matrix(1,0,0,1,1815.41,639.472)">
                <path d="M0,-9.303L0,-10.713L2.457,-10.713L2.457,-16.422L4.336,-16.422L4.336,-10.713L8.383,-10.713L8.383,-9.303L4.336,-9.303L4.336,2.494C4.336,4.469 5.249,5.457 7.075,5.457L8.383,5.457L8.383,7.119L6.756,7.119C5.396,7.119 4.338,6.694 3.586,5.845C2.833,4.996 2.457,3.867 2.457,2.458L2.457,-9.303L0,-9.303Z" style="fill:rgb(15,155,223);fill-rule:nonzero;"/>
            </g>
            <g transform="matrix(1,0,0,1,1826.13,639.472)">
                <path d="M0,-9.303L0,-10.713L2.457,-10.713L2.457,-16.422L4.336,-16.422L4.336,-10.713L8.383,-10.713L8.383,-9.303L4.336,-9.303L4.336,2.494C4.336,4.469 5.249,5.457 7.075,5.457L8.383,5.457L8.383,7.119L6.756,7.119C5.396,7.119 4.338,6.694 3.586,5.845C2.833,4.996 2.457,3.867 2.457,2.458L2.457,-9.303L0,-9.303Z" style="fill:rgb(15,155,223);fill-rule:nonzero;"/>
            </g>
            <g transform="matrix(1,0,0,1,1839.22,638.787)">
                <path d="M0,-2.223L10.497,-2.223C10.4,-3.752 10.196,-4.872 9.883,-5.582C9.485,-6.522 8.874,-7.257 8.049,-7.787C7.224,-8.317 6.294,-8.582 5.258,-8.582C4.222,-8.582 3.289,-8.317 2.457,-7.787C1.627,-7.257 1.019,-6.522 0.633,-5.582C0.283,-4.656 0.072,-3.535 0,-2.223M-1.879,-1.12C-1.879,-4.011 -1.249,-6.254 0.01,-7.85C1.268,-9.446 3.021,-10.244 5.267,-10.244C7.513,-10.244 9.266,-9.479 10.524,-7.95C11.782,-6.42 12.412,-4.288 12.412,-1.554L12.412,-0.705L0,-0.705C0,1.584 0.494,3.327 1.482,4.525C2.47,5.724 3.909,6.323 5.8,6.323C6.836,6.323 7.724,6.158 8.465,5.826C9.205,5.495 9.961,4.944 10.732,4.173L12.141,5.293C11.178,6.256 10.214,6.953 9.25,7.38C8.287,7.807 7.101,8.021 5.691,8.021C3.223,8.021 1.344,7.244 0.055,5.691C-1.234,4.136 -1.879,1.867 -1.879,-1.12" style="fill:rgb(15,155,223);fill-rule:nonzero;"/>
            </g>
            <g transform="matrix(1,0,0,1,1856.26,628.542)">
                <path d="M0,18.049L0,0.217L1.879,0.217L1.879,2.584C2.396,1.765 3.125,1.13 4.064,0.678C5.004,0.227 6.016,0 7.1,0C8.822,0 10.249,0.567 11.381,1.699L10.026,3.072C9.484,2.529 8.973,2.159 8.49,1.961C8.009,1.762 7.395,1.662 6.648,1.662C5.166,1.662 4.001,2.187 3.152,3.235C2.303,4.282 1.879,5.559 1.879,7.065L1.879,18.049L0,18.049Z" style="fill:rgb(15,155,223);fill-rule:nonzero;"/>
            </g>
            <g transform="matrix(1,0,0,1,1584.43,583.332)">
                <path d="M0,-51.958C-8.009,-51.958 -11.932,-47.455 -11.932,-44.447C-11.932,-37.77 -3.856,-36.444 16.176,-28.416C33.366,-21.565 40.545,-14.071 40.545,-6.375C40.545,4.462 33.636,17.489 -0.749,17.489C-21.283,17.489 -35.636,12.478 -35.636,2.129C-35.636,-3.882 -32.633,-7.053 -25.789,-7.053C-18.276,-7.053 -16.604,-1.367 0.421,-1.367C15.106,-1.367 17.678,-3.882 17.678,-7.053C17.678,-10.884 12.606,-11.897 -3.248,-17.557C-18.946,-23.078 -33.134,-30.423 -33.134,-46.614C-33.134,-60.14 -20.7,-69.159 0.834,-69.159C0.834,-69.159 14.125,-69.447 25.166,-62.664C35.536,-56.288 29.067,-49.066 29.067,-49.066C29.067,-49.066 24.521,-42.65 15.1,-48.13C8.36,-52.045 0,-51.958 0,-51.958" style="fill:rgb(229,61,48);fill-rule:nonzero;"/>
            </g>
            <g transform="matrix(1,0,0,1,1744.34,600.667)">
                <path d="M0,-114.23C7.343,-114.23 13.181,-108.376 13.181,-101.043C13.181,-93.694 7.343,-88.027 0,-88.027C-7.356,-88.027 -13.029,-93.694 -13.029,-101.043C-13.029,-108.376 -7.356,-114.23 0,-114.23M9.848,-73.79C9.848,-66.449 9.523,-59.627 9.57,-52.473C9.697,-32.927 11.471,-27.14 11.471,-11.955C11.471,-5.451 8.66,0 -1.197,0C-14.225,0 -13.176,-28.191 -13.721,-44.376C-14.647,-71.909 -12.357,-80.968 1.331,-80.968C4.171,-80.968 9.848,-79.133 9.848,-73.79" style="fill:rgb(229,61,48);fill-rule:nonzero;"/>
            </g>
            <g transform="matrix(-1,0,0,1,1775.72,513.552)">
                <path d="M0.175,-26.21C-7.176,-26.21 -13.014,-20.371 -13.014,-13.021C-13.014,-5.682 -7.176,0 0.175,0C7.513,0 13.189,-5.682 13.189,-13.021C13.189,-20.371 7.513,-26.21 0.175,-26.21" style="fill:rgb(229,61,48);fill-rule:nonzero;"/>
            </g>
            <g transform="matrix(1,0,0,1,1860.49,577.925)">
                <path d="M0,-38.131C-5.804,-30.468 -13.151,-37.492 -13.151,-37.492C-17.669,-41.31 -23.539,-45.191 -33.635,-45.191C-41.642,-45.191 -44.147,-40.685 -44.147,-37.686C-44.147,-31 -35.135,-29.675 -15.105,-21.656C2.092,-14.808 7.151,-7.288 7.151,0.382C7.151,11.233 3.93,24.26 -30.459,24.26C-50.989,24.26 -65.347,19.249 -65.347,8.906C-65.347,2.885 -62.339,-0.281 -55.493,-0.281C-47.982,-0.281 -46.317,5.394 -29.289,5.394C-14.601,5.394 -13.604,2.885 -13.604,-0.281C-13.604,-4.121 -19.612,-5.136 -35.47,-10.794C-51.162,-16.307 -65.347,-23.655 -65.347,-39.847C-65.347,-53.375 -54.333,-62.391 -32.798,-62.391C-20.946,-62.391 -11.014,-58.175 -4.045,-52.998C-4.045,-52.998 5.542,-45.448 0,-38.131" style="fill:rgb(229,61,48);fill-rule:nonzero;"/>
            </g>
            <g transform="matrix(1,0,0,1,1713.51,601.162)">
                <path d="M0,-86.104C-4.744,-86.104 -10.614,-84.072 -11.634,-74.388C-12.214,-68.934 -13.884,-48.169 -14.896,-33.263C-20.531,-50.139 -29.344,-76.232 -30.979,-79.29C-33.251,-83.357 -36.55,-85.593 -40.276,-85.593C-45.905,-85.593 -49.471,-81.777 -51.848,-73.207C-53.717,-66.455 -59.411,-47.234 -62.507,-36.812C-64.877,-50.378 -69.316,-75.871 -70.674,-79.625C-72.474,-84.639 -76.683,-87.514 -82.201,-87.514C-87.131,-87.514 -92.111,-83.742 -92.111,-76.53C-92.111,-71.963 -90.372,-65.749 -87.879,-56.185C-86.69,-51.608 -85.458,-46.881 -84.464,-42.553C-82.934,-35.975 -81.576,-29.415 -80.391,-23.606C-79.117,-17.444 -78.114,-12.574 -77.411,-10.241C-75.417,-3.661 -71.544,-0.03 -66.511,-0.03C-58.74,-0.03 -56.542,-5.243 -54.816,-11.025L-53.999,-13.743C-46.924,-36.858 -43.537,-47.98 -41.919,-53.403C-41.145,-51.319 -40.182,-48.715 -39.151,-45.941C-31.922,-26.442 -24.743,-8.821 -23.38,-6.242C-20.708,-1.236 -16.245,1.41 -10.484,1.41C-3.824,1.41 -0.209,-4.458 0.851,-9.466C1.823,-14.031 10.043,-67.736 10.043,-73.804C10.043,-80.823 5.726,-86.104 0,-86.104" style="fill:rgb(229,61,48);fill-rule:nonzero;"/>
            </g>
            <g transform="matrix(1,0,0,1,1776.43,520.913)">
                <path d="M0,80.777C-11.851,81.362 -11.455,67.517 -11.455,67.517C-11.455,37.807 -13.672,33.964 -13.672,14.101C-13.672,3.257 -8.959,-0.585 -2.106,-0.585C6.73,-0.585 10.741,5.417 10.741,13.938C10.741,32.469 12.074,35.298 12.074,68.355C12.074,68.355 12.729,80.149 0,80.777" style="fill:rgb(229,61,48);fill-rule:nonzero;"/>
            </g>
        </g>
    </g>
</svg>
