<?xml version="1.0" encoding="UTF-8" standalone="no"?>
<!DOCTYPE svg PUBLIC "-//W3C//DTD SVG 1.1//EN" "http://www.w3.org/Graphics/SVG/1.1/DTD/svg11.dtd">
<svg width="100%" height="100%" viewBox="0 0 1059 979" version="1.1" xmlns="http://www.w3.org/2000/svg" xmlns:xlink="http://www.w3.org/1999/xlink" xml:space="preserve" xmlns:serif="http://www.serif.com/" style="fill-rule:evenodd;clip-rule:evenodd;stroke-linejoin:round;stroke-miterlimit:2;">
    <g transform="matrix(1,0,0,1,-1305.15,0)">
        <g id="Brush-1" serif:id="Brush 1" transform="matrix(1,0,0,1,15.0351,-1084.09)">
            <rect x="1290.11" y="1084.09" width="1058.88" height="978.792" style="fill:none;"/>
            <g id="Brush-11" serif:id="Brush 1" transform="matrix(3.47892,0,0,3.47892,1312.19,1118.22)">
                <path d="M104.772,261.542C115.26,254.902 91.422,262.74 104.221,255.733C107.96,252.027 95.393,257.651 104.404,251.858C108.823,245.289 88.901,257.55 90.907,253.769C96.519,249.215 96.455,248.224 90.323,248.837C94.287,245.822 102.218,239.776 91.362,243.496C80.068,246.142 100.668,232.066 87.063,238.671C80.928,237.727 68.239,245.143 58.991,248.127C53.741,249.912 35.206,257.329 38.982,254.916C48.601,252.598 41.06,250.413 38.845,251.34C43.524,249.777 63.399,241.859 48.263,246.996C40.245,248.672 31.597,250.527 23.928,252.092C36.704,247.868 49.844,243.499 62.479,238.687C52.603,240.409 41.148,246.278 30.537,247.39C20.013,252.087 10.994,241.75 10.31,232.412C4.872,236.879 12.23,221.665 3.98,229.959C6.334,225.327 8.805,212.492 0.068,217.815C-0.928,207.926 9.279,199.476 15.462,191.512C19.034,187.175 31.989,176.324 23.556,176.916C18.926,177.004 15.023,186.537 17.715,177.241C10.234,183.793 17.532,176.03 14.115,177.711C13.343,179.9 20.174,162.628 12.206,172.966C15.302,165.367 25.734,151.279 33.746,142.866C64.862,109.293 95.498,75.268 127.134,42.167C138.371,31.103 148.901,19.119 161.633,9.729C168.63,7.477 159.732,14.408 167.829,9.814C170.706,11.559 170.539,9.306 166.508,15.245C173.505,10.074 171.702,12.442 170.583,17.91C178.555,10.572 170.131,24.282 176.58,14.762C176.742,16.812 174.621,20.965 182.046,16.9C194.896,7.956 172.273,29.321 184.614,19.412C187.64,21.853 172.758,30.727 181.32,28.054C175.019,36.495 185.741,25.098 185.056,28.076C189.112,25.086 203.733,11.679 201.356,14.951C193.096,20.83 200.316,20.413 202.931,18.212C199.162,21.12 182.707,35.991 195.101,25.903C200.92,23.473 214.886,11.729 215.532,13.517C204.029,21.837 193.054,31.301 182.484,40.578C178.248,43.008 160.347,58.266 158.716,61.084C175.032,48.829 189.443,34.106 206.279,22.602C213.807,15.795 221.964,12.983 229.704,17.898C236.549,23.67 243.847,33.452 244.564,42.179C246.487,45.8 241.718,52.001 244.338,51.279C244.463,53.229 251.003,51.903 254.629,49.337C248.787,54.819 257.366,63.166 261.864,55.939C257.933,59.811 262.798,65.681 265.731,59.279C263.989,63.75 264.717,70.609 265.29,72.772C278.97,67.352 265.705,89.145 261.316,94.328C248.414,111.78 233.395,127.518 218.325,143.044C232.598,136.475 247.105,129.65 262.13,124.536C273.851,115.675 272.386,132.365 274.465,139.201C275.392,145.609 278.321,153.515 282.853,153.15C274.889,160.207 290.468,158.137 284.764,167.368C283.876,175.69 298.073,170.71 288.124,177.624C284.067,191.55 269.971,198.239 257.056,202.701C237.205,211.871 219.682,225.093 202.236,238.082C193.041,243.413 184.729,254.257 173.904,254.186C182.597,246.751 160.34,257.33 172.842,248.248C173.272,245.745 165.264,250.776 172.133,244.742C172.8,237.723 149.758,258.937 162.905,244.108C162.091,241.68 152.96,246.602 161.179,240.346C170.05,230.8 151.286,244.767 154.216,236.423C141.723,245.061 128.643,252.869 115.265,260.027C112.324,260.647 107.169,262.272 104.772,261.542ZM120.491,255.178C128.34,253.043 131.52,248.088 121.368,253.214C119.98,253.659 115.431,257.37 120.491,255.178ZM188.706,245.778C196.304,243.085 195.545,239.222 188.306,244.258C185.99,244.92 183.964,250.083 188.706,245.778ZM257.273,185.951C261.029,182.695 264.793,183.648 262.324,186.321C269.215,184.692 272.201,181.697 270.677,179.523C270.82,176.601 255.612,185.052 255.761,186.023L255.748,186.485L257.274,185.951L257.273,185.951ZM264.724,183.971C266.071,179.702 271.806,181.396 265.924,183.561L264.724,183.971ZM30.707,128.561C33.056,125.31 21.445,129.626 28.455,123.563C21.232,129.437 28.03,117.999 21.204,121.677C24.103,116.621 18.042,126.382 20.032,119.5C14.648,120.358 10.41,119.459 15.147,115.712C7.945,117.791 20.599,109.906 14.484,109.698C15.514,107.552 9.361,112.242 13.204,105.059C23.987,91.025 36.773,78.191 46.568,63.227C60.673,43.847 69.346,21.186 81.006,0.818C83.383,-2.698 87.74,6.104 92.804,8.602C97.095,13.718 98.54,3.147 101.539,8.201C103.056,4.304 103.303,9.02 103.974,9.416C103.437,19.006 111.183,4.023 107.584,15.458C106.025,34.929 94.389,51.685 85.302,68.414C72.173,90.44 56.731,111.854 36.231,127.566C35.069,128.283 31.713,129.83 30.707,128.561Z" style="fill-rule:nonzero;"/>
            </g>
        </g>
        <g transform="matrix(1,0,0,1,17.0342,-2024.1)">
            <g transform="matrix(-1.08391,-0.290432,0.347554,-1.30562,3689.67,4664.83)">
                <g transform="matrix(-0.861162,0.191564,-0.229241,-0.714927,2673.49,1427.88)">
                </g>
            </g>
            <g transform="matrix(-1.08391,-0.290432,0.347554,-1.30562,3891.63,4649.29)">
                <g transform="matrix(-0.861162,0.191564,-0.229241,-0.714927,2843.85,1378.08)">
                </g>
            </g>
            <g transform="matrix(-2.23388,-0.598567,0.841807,-3.16232,5442.33,8453.3)">
                <g transform="matrix(-0.417847,0.0790904,-0.111231,-0.29517,2450.95,1569.15)">
                </g>
            </g>
        </g>
    </g>
</svg>
