<?xml version="1.0" encoding="UTF-8" standalone="no"?>
<!DOCTYPE svg PUBLIC "-//W3C//DTD SVG 1.1//EN" "http://www.w3.org/Graphics/SVG/1.1/DTD/svg11.dtd">
<svg width="100%" height="100%" viewBox="0 0 218 244" version="1.1" xmlns="http://www.w3.org/2000/svg" xmlns:xlink="http://www.w3.org/1999/xlink" xml:space="preserve" xmlns:serif="http://www.serif.com/" style="fill-rule:evenodd;clip-rule:evenodd;stroke-linejoin:round;stroke-miterlimit:2;">
    <rect id="Artboard2" x="0" y="0" width="217.548" height="243.678" style="fill:none;"/>
    <g id="Artboard21" serif:id="Artboard2">
        <g>
            <g transform="matrix(4.16667,0,0,4.16667,154.544,189.444)">
                <path d="M0,-15.636C-0.479,-14.329 1.235,-12.869 3.075,-12.869C4.423,-12.869 5.477,-13.372 6.236,-14.378C7.773,-16.409 8.543,-18.498 8.543,-20.643C8.543,-22.484 7.669,-23.406 5.923,-23.406C4.006,-23.406 2.629,-22.295 1.794,-20.073C1.699,-19.827 0,-15.636 0,-15.636M-2.648,-9.053L-10.081,9.228C-11.106,11.754 -12.605,13.016 -14.58,13.016C-15.339,13.016 -15.99,12.764 -16.531,12.261C-17.072,11.759 -17.342,11.155 -17.342,10.453C-17.342,9.865 -17.104,8.972 -16.63,7.776L-2.905,-26.054C-2.202,-27.762 -0.987,-28.616 0.74,-28.616C1.937,-28.616 2.886,-28.047 3.588,-26.908C4.917,-28.313 6.807,-28.652 8.724,-28.652C10.717,-28.652 12.207,-27.782 13.432,-26.273C14.656,-24.763 15.121,-23.253 15.121,-20.785C15.121,-16.115 13.669,-12.309 10.764,-9.366C8.96,-7.563 7.379,-6.795 4.114,-6.795C0.829,-6.795 -0.984,-7.389 -2.648,-9.053" style="fill:white;fill-rule:nonzero;"/>
            </g>
            <g transform="matrix(4.16667,0,0,4.16667,63.0042,54.2375)">
                <path d="M0,15.635C0.479,14.328 -1.236,12.868 -3.075,12.868C-4.423,12.868 -5.477,13.371 -6.236,14.377C-7.774,16.409 -8.542,18.497 -8.542,20.642C-8.542,22.484 -7.669,23.405 -5.923,23.405C-4.005,23.405 -2.629,22.294 -1.794,20.072C-1.699,19.826 0,15.635 0,15.635M2.648,9.052L10.081,-9.23C11.106,-11.754 12.605,-13.017 14.58,-13.017C15.339,-13.017 15.99,-12.765 16.531,-12.262C17.072,-11.76 17.343,-11.156 17.343,-10.454C17.343,-9.865 17.104,-8.973 16.631,-7.777L2.905,26.053C2.203,27.761 0.987,28.615 -0.74,28.615C-1.936,28.615 -2.885,28.046 -3.588,26.907C-4.917,28.312 -6.807,28.652 -8.724,28.652C-10.717,28.652 -12.208,27.781 -13.432,26.272C-14.656,24.763 -15.121,23.252 -15.121,20.784C-15.121,16.114 -13.668,12.308 -10.764,9.365C-8.96,7.562 -7.378,6.794 -4.115,6.794C-0.829,6.794 0.985,7.388 2.648,9.052" style="fill:white;fill-rule:nonzero;"/>
            </g>
        </g>
    </g>
</svg>
