<?xml version="1.0" encoding="UTF-8" standalone="no"?>
<!DOCTYPE svg PUBLIC "-//W3C//DTD SVG 1.1//EN" "http://www.w3.org/Graphics/SVG/1.1/DTD/svg11.dtd">
<svg width="100%" height="100%" viewBox="0 0 28 28" version="1.1" xmlns="http://www.w3.org/2000/svg" xmlns:xlink="http://www.w3.org/1999/xlink" xml:space="preserve"  style="fill-rule:evenodd;clip-rule:evenodd;stroke-linejoin:round;stroke-miterlimit:2;">
    <g id="Artboard1" transform="matrix(0.27717,0,0,0.27717,-4.87019e-06,0)">
        <rect x="0" y="0" width="100" height="100" style="fill:none;"/>
        <g transform="matrix(0.331746,0,0,0.331746,0.699191,3.71846)">
            <path d="M160.387,282.096C159.35,277.189 152.388,286.426 154.099,276.633C147.401,271.516 145.966,259.85 138.339,254.92C136.749,248.296 129.4,247.071 124.741,251.799C128.142,244.403 119.999,245.286 119.11,245.84C122.15,239.51 112.918,246.202 118.439,238.451C118.333,231.115 112.467,231.337 109.661,232.9C110.65,226.541 122.142,208.005 113.428,214.249C92.171,227.01 72.792,244.013 48.489,250.777C48.155,247.665 38.348,250.346 44.022,246.032C45.661,244.887 30.39,245.089 35.619,240.7C25.953,245.148 48.203,230.609 33.661,236.216C23.672,242.167 38.512,221.909 26.367,228.327C18.037,227.351 32.734,218.25 21.953,225.986C15.263,229.67 27.656,219.202 19.523,220.304C22.644,215.965 11.256,223.809 10.356,217.564C-0.627,222.078 4.976,212.583 10.57,212.27C21.438,202.58 -0.757,217.749 6.753,206.623C4.98,201.079 18.261,205.947 14.823,198.257C4.042,200.856 13.254,195.555 13.695,192.376C7.761,196.168 1.329,198.253 8.308,189.955C9.456,179.541 21.245,174.55 29.044,168.322C42.826,158.349 56.903,148.772 70.388,138.397C54.34,147.945 39.026,158.821 22.912,168.163C20.287,164.155 19.97,159.2 19.878,153.301C15.55,149.737 16.181,141.125 9.018,148.037C15.524,142.155 14.11,138.543 6.277,142.181C15.989,133.582 0.097,130.816 0,132.395C8.321,123.398 14.792,112.74 24.851,104.81C64.713,78.556 104.053,51.459 143.443,24.484C158.063,16.949 170.275,4.247 186.388,0.036C190.747,-0.463 182.772,4.45 190.436,1.454C194.43,1.882 183.608,7.662 191.267,4.633C178.188,16.6 210.373,-3.617 195.306,9.336C207.502,5.579 185.786,17.787 198.662,13.292C206.816,10.704 191.476,23.469 203.373,16.015C205.036,18.293 209.8,13.625 211.52,18.532C219.782,13.408 215.26,23.785 221.228,15.918C221.181,23.413 203.607,30.955 216.868,26.319C225.101,27.754 204.833,35.716 217.125,31.631C221.575,30.692 237.183,20.995 229.163,27.86C238.654,23.397 250.683,13.169 258.111,11.039C255.749,17.359 270.19,5.105 263.553,15.269C268.07,19.97 266.39,30.871 270.925,36.795C272.489,43.172 274.446,50.674 279.97,48.533C282.202,54.145 293.895,38.333 288.131,49.653C286.054,59.99 302.869,43.44 292.297,55.007C290.479,60.878 301.646,49.425 294.708,57.914C287.945,62.88 293.251,75.702 300.297,66.118C296.883,73.827 287.253,84.598 280.935,92.639C272.957,101.228 257.737,107.491 252.767,116.145C262.976,110.507 257.107,128.572 269.05,122.286C265.617,126.928 265.054,127.321 270.357,123.978C267.144,132.349 276.97,128.962 281.932,131.402C291.431,131.862 278.941,135.496 280.954,139.54C287.249,132.485 289.544,146.995 282.428,144.158C277.21,150.646 293.516,144.894 284.788,152.459C295.379,144.027 291.319,166.498 283.637,169.261C257.346,195.945 229.588,221.121 203.239,247.736C197.189,254.503 178.735,271.219 178.228,269.685C171.877,271.578 165.588,280.934 160.387,282.096ZM23.898,128.313C30.166,124.836 24.715,120.944 22.157,128.845L23.898,128.313ZM30.597,116.18C37.241,110.799 49.312,105.047 52.584,100.103C48.766,103.135 36.475,110.805 43.244,104.129C40.003,106.796 23.602,115 31.849,114.306C30.753,114.042 26.441,118.958 30.597,116.18ZM161.235,14.757C168.171,13.426 182.102,1.817 167.766,10.344C167.005,10.859 156.365,16.497 161.235,14.757Z" style="fill-rule:nonzero;"/>
        </g>
    </g>
</svg>
